<svg id="Layer_1" data-name="Layer 1" xmlns="http://www.w3.org/2000/svg" viewBox="0 0 424.29 100"><defs><style>.cls-1{fill:none;stroke-linecap:round;stroke-linejoin:round;stroke-width:2px;}.cls-1,.cls-3{stroke:#fff;}.cls-2,.cls-3{fill:#fff;}.cls-3{stroke-miterlimit:10;}</style></defs><title>header</title><path class="cls-1" d="M313.07,42.44V77.91m-38.69-40,38.69,4.52,19.48-16.38V61.52L313.07,77.91l-38.69-4.52m0,0V37.91l19.48-16.38,38.69,4.52"/><path class="cls-1" d="M180.89,49.81h7.78m30.86-.09a10.09,10.09,0,1,1-10.09-10.09h0A10.09,10.09,0,0,1,219.53,49.72Zm18.46,0a28.55,28.55,0,1,1-28.55-28.55A28.55,28.55,0,0,1,238,49.72Z"/><polygon class="cls-1" points="188.95 49.81 188.95 46.04 192.21 47.93 195.47 49.81 192.21 51.69 188.95 53.58 188.95 49.81"/><polygon class="cls-2" points="188.95 49.81 188.95 46.04 192.21 47.93 195.47 49.81 192.21 51.69 188.95 53.58 188.95 49.81"/><line class="cls-1" x1="209.44" y1="39.63" x2="209.44" y2="21.17"/><line class="cls-1" x1="209.44" y1="78.27" x2="209.44" y2="59.81"/><line class="cls-1" x1="237.99" y1="49.81" x2="230.21" y2="49.81"/><polygon class="cls-1" points="229.93 49.81 229.93 53.58 226.67 51.69 223.41 49.81 226.67 47.93 229.93 46.04 229.93 49.81"/><polygon class="cls-2" points="229.93 49.81 229.93 53.58 226.67 51.69 223.41 49.81 226.67 47.93 229.93 46.04 229.93 49.81"/><path class="cls-1" d="M366.55,74.91S416,62.2,405,43.61a9,9,0,0,0-4.23-3.83c-15.45-6.23-31.87,37.48-.42,34.74,31.2-2.72,26-39.9,7.84-46"/><polygon class="cls-1" points="404.49 28.18 406.16 31.84 408.49 28.56 410.82 25.29 406.82 24.91 402.81 24.53 404.49 28.18"/><polygon class="cls-3" points="408.49 28.56 406.16 31.84 404.49 28.18 402.81 24.53 406.82 24.91 410.82 25.29 408.49 28.56"/><path class="cls-1" d="M131,49.67a9.83,9.83,0,1,1-9.83-9.84A9.83,9.83,0,0,1,131,49.67Zm-37.6.08c19.07,22.53,36.12,22.93,55.54,0m0,0c-19.07-22.6-36.12-23-55.54-.1"/><path class="cls-1" d="M33.59,22.41A23.67,23.67,0,0,0,9.92,46.07,16.56,16.56,0,0,0,26.48,62.63h0c6.4,0,11.42-4.38,11.42-12.9M3.66,47.26A23.65,23.65,0,0,0,27.31,70.91h0A16.56,16.56,0,0,0,43.88,54.37v0c0-6.4-4.29-11.43-12.78-11.43M28.5,77.18A23.67,23.67,0,0,0,52.17,53.53h0A16.57,16.57,0,0,0,35.6,37c-6.4,0-11.3,4.25-11.3,12.77m34.13,2.61A23.66,23.66,0,0,0,34.77,28.68,16.57,16.57,0,0,0,18.21,45.24c0,6.4,4.16,11.29,12.89,11.29"/><polygon class="cls-1" points="30.98 22.39 30.92 19.62 33.28 20.95 35.65 22.27 33.35 23.71 31.04 25.15 30.98 22.39"/><polygon class="cls-1" points="30.98 22.39 30.92 19.62 33.28 20.95 35.65 22.27 33.35 23.71 31.04 25.15 30.98 22.39"/><polygon class="cls-1" points="28.33 75.74 26.03 77.18 28.4 78.5 30.77 79.83 30.7 77.07 30.64 74.3 28.33 75.74"/><polygon class="cls-1" points="30.7 77.07 30.77 79.83 28.4 78.51 26.03 77.18 28.33 75.74 30.64 74.3 30.7 77.07"/><polygon class="cls-1" points="58.5 49.97 61.2 49.9 59.91 52.33 58.61 54.76 57.2 52.4 55.79 50.03 58.5 49.97"/><polygon class="cls-1" points="58.5 49.97 61.2 49.9 59.91 52.33 58.61 54.76 57.2 52.4 55.79 50.03 58.5 49.97"/><polygon class="cls-1" points="2.3 46.79 1 49.21 3.7 49.15 6.41 49.08 5 46.72 3.59 44.36 2.3 46.79"/><polygon class="cls-1" points="3.7 49.15 1 49.21 2.3 46.79 3.59 44.36 5 46.72 6.41 49.08 3.7 49.15"/><ellipse class="cls-1" cx="31.1" cy="49.73" rx="6.76" ry="6.8"/></svg>