<svg xmlns="http://www.w3.org/2000/svg" viewBox="0 0 60 57.48"><defs><style>.cls-1{fill:#fff;}</style></defs><title>Asset 3</title><g id="Layer_2" data-name="Layer 2"><g id="Layer_1-2" data-name="Layer 1"><path class="cls-1" d="M21.44,23.62c-1,0-1.61.83-1.61,2.1s.59,2.11,1.61,2.11,1.61-.85,1.61-2.11S22.46,23.62,21.44,23.62Z"/><path class="cls-1" d="M35.47,27c0,.59.39.87,1,.87s1.24-.5,1.24-1.41v-.51C36.35,25.8,35.47,26.11,35.47,27Z"/><path class="cls-1" d="M14.81,22.22a5,5,0,0,0-.84,0H12.89v5.42h1a4.92,4.92,0,0,0,.83,0c1.17-.17,1.93-1.14,1.93-2.75S16,22.39,14.81,22.22Z"/><path class="cls-1" d="M14.88,15.49a1.1,1.1,0,0,0,.92-1.22A1.11,1.11,0,0,0,14.88,13a5,5,0,0,0-.74,0H12.89v2.53h1.25A5,5,0,0,0,14.88,15.49Z"/><path class="cls-1" d="M27,18.64c.93,0,1.62-.71,1.62-2.1,0-1.21-.56-2.11-1.57-2.11-.86,0-1.61.55-1.61,2.05v.28C25.41,18.13,26.23,18.64,27,18.64Z"/><path class="cls-1" d="M59.94,29c-.61-7.76-2.53-13.56-9.29-20.18C46,4.25,39.29,0,30.88,0h-.1l-.92,0C21.38.57,12.22,3.23,6.44,11.22,2.33,16.46,0,22.43,0,28.42.31,38.16,1.54,41,7.68,47.64c4.71,4.27,10.72,9.84,22.18,9.84,12.73,0,18.8-6.23,23-10.56C55.56,43.18,60.63,38.4,59.94,29ZM38.5,13.59A2.28,2.28,0,0,1,41,15.68H39.78c-.17-.86-.62-1.25-1.31-1.25S37,15.08,37,16.48s.63,2.16,1.41,2.16a1.3,1.3,0,0,0,1.31-1.16h1.18a2.38,2.38,0,0,1-2.55,2c-1.47,0-2.57-.92-2.57-2.92A2.71,2.71,0,0,1,38.5,13.59Zm-7.73-2h1.16v6c0,.19,0,.36,0,.52,0,.32.17.43.67.38v.82a6.19,6.19,0,0,1-.76,0c-.61,0-1-.22-1.07-.94,0-.21,0-.46,0-.8Zm-6.55,0h1.15v3l.43-.6a2.43,2.43,0,0,1,1.46-.42c1.6,0,2.52,1.21,2.52,2.85,0,2-1.26,3-2.71,3a2.5,2.5,0,0,1-1.33-.34l-.37-.56v.76H24.22Zm-12.53.47h2.39a7.79,7.79,0,0,1,1,0A2,2,0,0,1,17,14.27a2.09,2.09,0,0,1-1.92,2.16,7.79,7.79,0,0,1-1,0H12.85v2.87H11.69Zm3.24,16.42a7.08,7.08,0,0,1-.93,0H11.69V21.25h2.36a7,7,0,0,1,.92,0A3.18,3.18,0,0,1,17.9,24.8,3.39,3.39,0,0,1,14.93,28.48Zm2.89-10.42a6.65,6.65,0,0,1-.05-1V13.74h1.15v3.1c0,.18,0,.48,0,.77a1.1,1.1,0,0,0,1.2,1c.81,0,1.42-.62,1.42-2.25V13.74h1.15v5.6H21.58v-1l-.38.69a2.22,2.22,0,0,1-1.42.41A1.8,1.8,0,0,1,17.82,18.06Zm3.59,10.61a2.71,2.71,0,0,1-2.84-3,2.7,2.7,0,0,1,2.84-2.94,2.7,2.7,0,0,1,2.84,2.94A2.71,2.71,0,0,1,21.41,28.67Zm11.75-.15H32v-3a9.49,9.49,0,0,0,0-1,1,1,0,0,0-1.05-.92c-.67,0-1.12.56-1.12,2.08v2.81H28.64v-3a9.49,9.49,0,0,0,0-1,1,1,0,0,0-1.05-.92c-.68,0-1.13.56-1.13,2.08v2.81H25.27v-5.6h1.15v.84l.38-.66a1.9,1.9,0,0,1,1.2-.32,1.61,1.61,0,0,1,1.65,1.06l.52-.74a1.89,1.89,0,0,1,1.19-.32,1.63,1.63,0,0,1,1.75,1.37,6.57,6.57,0,0,1,0,1Zm1-16.73a.66.66,0,0,1,.69.66.67.67,0,0,1-.69.68.65.65,0,0,1-.67-.68A.64.64,0,0,1,34.15,11.79Zm-.58,2h1.16v5.6H33.57ZM37.8,28.52l-.11-.81-.28.6a2.46,2.46,0,0,1-1.4.36,1.62,1.62,0,0,1-1.8-1.61c0-1.25,1-1.92,3.11-1.92h.36V25c0-.21,0-.4,0-.61,0-.45-.32-.77-1-.77s-1,.38-1.09,1.07H34.43a2,2,0,0,1,2.27-1.91c1.44,0,2,.61,2.11,1.56,0,.23,0,.52,0,.79v2a10.17,10.17,0,0,0,.1,1.42Zm3.67,0H40.31v-5.6h1.16Zm-.58-6.21a.67.67,0,1,1,0-1.34.67.67,0,1,1,0,1.34Zm7,6.21H46.78v-3a7,7,0,0,0,0-.79,1.06,1.06,0,0,0-1.18-1.08c-.8,0-1.45.63-1.45,2.38v2.51H43v-5.6h1.16v.93l.38-.64a2.08,2.08,0,0,1,1.41-.43,1.76,1.76,0,0,1,2,1.6c0,.28,0,.54,0,1Z"/></g></g></svg>