<svg width="63" height="57" viewBox="0 0 63 57" fill="none" xmlns="http://www.w3.org/2000/svg">
<path d="M1.54999 55.717C1.54999 55.717 54.2547 42.1674 42.5188 22.3231C41.4519 20.5094 39.9582 19.0158 38.0378 18.2689C21.5009 11.6542 4.00384 58.2775 37.6111 55.2902C70.8983 52.4096 65.3504 12.7211 45.9329 6.21298" stroke="white" stroke-width="2" stroke-linecap="round" stroke-linejoin="round"/>
<path d="M40.3778 0.950349C40.0211 0.91468 39.6726 1.07267 39.4644 1.36444C39.2561 1.65622 39.22 2.03715 39.3696 2.36289L41.1834 6.31042L41.1878 6.31991L43.0015 10.1607C43.1538 10.4834 43.4665 10.7004 43.8221 10.7302C44.1776 10.7601 44.5221 10.5983 44.7261 10.3056L47.1759 6.79073L49.6255 3.38256C49.834 3.09246 49.8719 2.71317 49.725 2.38755C49.578 2.06193 49.2685 1.83944 48.913 1.80389L40.3778 0.950349Z" fill="white"/>
</svg>
