<svg width="63" height="63" viewBox="0 0 63 63" fill="none" xmlns="http://www.w3.org/2000/svg">
<path d="M1.1745 31.6479H9.37063H1.1745ZM41.7349 31.5429C41.7349 37.4273 37.0064 42.1558 31.1219 42.1558C25.2375 42.1558 20.509 37.4273 20.509 31.5429C20.509 25.6584 25.2375 20.9299 31.1219 20.9299C37.0064 20.9299 41.7349 25.6584 41.7349 31.5429ZM61.1745 31.5429C61.1745 48.1453 47.7244 61.5954 31.2271 61.5954C14.6246 61.5954 1.27962 48.1453 1.27962 31.5429C1.27962 14.9404 14.7297 1.5954 31.2271 1.5954C47.7244 1.5954 61.1745 14.9404 61.1745 31.5429Z" stroke="white" stroke-width="2" stroke-linecap="round" stroke-linejoin="round"/>
<path d="M10.0798 26.7883C9.77035 26.6101 9.3894 26.6105 9.08029 26.7892C8.77118 26.9679 8.58081 27.2979 8.58081 27.6549V35.6409C8.58081 35.998 8.77118 36.3279 9.08029 36.5066C9.3894 36.6853 9.77035 36.6857 10.0798 36.5075L17.015 32.5145C17.325 32.3361 17.516 32.0056 17.516 31.6479C17.516 31.2902 17.325 30.9598 17.015 30.7813L10.0798 26.7883Z" fill="white"/>
<path d="M31.1219 20.9299V1.5954" stroke="white" stroke-width="2" stroke-linecap="round" stroke-linejoin="round"/>
<path d="M31.1219 61.5954V42.1558" stroke="white" stroke-width="2" stroke-linecap="round" stroke-linejoin="round"/>
<path d="M61.1745 31.6479H52.9783" stroke="white" stroke-width="2" stroke-linecap="round" stroke-linejoin="round"/>
<path d="M53.6631 27.6549C53.6631 27.2955 53.4701 26.9637 53.1578 26.7858C52.8454 26.608 52.4616 26.6115 52.1525 26.7951L48.7958 28.7881L45.334 30.7813C45.024 30.9598 44.8329 31.2902 44.8329 31.6479C44.8329 32.0056 45.024 32.3361 45.334 32.5145L48.7958 34.5077L52.1525 36.5008C52.4616 36.6843 52.8454 36.6878 53.1578 36.51C53.4701 36.3321 53.6631 36.0004 53.6631 35.6409V27.6549Z" fill="white"/>
</svg>
