<svg id="Layer_1" data-name="Layer 1" xmlns="http://www.w3.org/2000/svg" viewBox="0 0 200 100"><defs><style>.cls-1{fill:none;stroke:#fff;stroke-linecap:round;stroke-linejoin:round;stroke-width:2px;}</style></defs><title>research</title><path class="cls-1" d="M33.56,32.58A23.67,23.67,0,0,0,9.89,56.24,16.56,16.56,0,0,0,26.46,72.8c6.4,0,11.42-4.38,11.42-12.9M3.63,57.43A23.65,23.65,0,0,0,27.29,81.08,16.55,16.55,0,0,0,43.85,64.52c0-6.4-4.29-11.43-12.78-11.43m-2.6,34.26A23.66,23.66,0,0,0,52.14,63.69,16.57,16.57,0,0,0,35.57,47.13c-6.4,0-11.3,4.25-11.3,12.77M58.4,62.51A23.66,23.66,0,0,0,34.74,38.85,16.57,16.57,0,0,0,18.18,55.41c0,6.4,4.16,11.29,12.89,11.29"/><polygon class="cls-1" points="30.95 32.56 30.89 29.79 33.25 31.12 35.62 32.44 33.32 33.88 31.01 35.32 30.95 32.56"/><polygon class="cls-1" points="30.95 32.56 30.89 29.79 33.25 31.12 35.62 32.44 33.32 33.88 31.01 35.32 30.95 32.56"/><polygon class="cls-1" points="28.3 85.91 26 87.35 28.37 88.67 30.74 90 30.67 87.24 30.61 84.47 28.3 85.91"/><polygon class="cls-1" points="30.67 87.24 30.74 90 28.37 88.68 26 87.35 28.3 85.91 30.61 84.47 30.67 87.24"/><polygon class="cls-1" points="58.47 60.14 61.17 60.07 59.88 62.5 58.58 64.93 57.17 62.57 55.76 60.2 58.47 60.14"/><polygon class="cls-1" points="58.47 60.14 61.17 60.07 59.88 62.5 58.58 64.93 57.17 62.57 55.76 60.2 58.47 60.14"/><polygon class="cls-1" points="2.27 56.96 0.97 59.38 3.67 59.32 6.38 59.25 4.97 56.89 3.56 54.53 2.27 56.96"/><polygon class="cls-1" points="3.67 59.32 0.97 59.38 2.27 56.96 3.56 54.53 4.97 56.89 6.38 59.25 3.67 59.32"/><ellipse class="cls-1" cx="31.07" cy="59.9" rx="6.76" ry="6.8"/></svg>