<svg xmlns="http://www.w3.org/2000/svg" viewBox="0 0 59.1 59.1"><defs><style>.cls-1{fill:none;stroke:#fff;stroke-linecap:round;stroke-linejoin:round;stroke-width:2px;}.cls-2{fill:#fff;}</style></defs><title>products</title><g id="Layer_2" data-name="Layer 2"><g id="Layer_1-2" data-name="Layer 1"><path class="cls-1" d="M1,29.64H8.78m30.86-.09A10.09,10.09,0,1,1,29.55,19.46h0A10.09,10.09,0,0,1,39.64,29.55Zm18.46,0A28.55,28.55,0,1,1,29.55,1,28.55,28.55,0,0,1,58.1,29.55Z"/><polygon class="cls-1" points="9.06 29.64 9.06 25.87 12.32 27.76 15.58 29.64 12.32 31.52 9.06 33.41 9.06 29.64"/><polygon class="cls-2" points="9.06 29.64 9.06 25.87 12.32 27.76 15.58 29.64 12.32 31.52 9.06 33.41 9.06 29.64"/><line class="cls-1" x1="29.55" y1="19.46" x2="29.55" y2="1"/><line class="cls-1" x1="29.55" y1="58.1" x2="29.55" y2="39.64"/><line class="cls-1" x1="58.1" y1="29.64" x2="50.32" y2="29.64"/><polygon class="cls-1" points="50.04 29.64 50.04 33.41 46.78 31.52 43.52 29.64 46.78 27.76 50.04 25.87 50.04 29.64"/><polygon class="cls-2" points="50.04 29.64 50.04 33.41 46.78 31.52 43.52 29.64 46.78 27.76 50.04 25.87 50.04 29.64"/></g></g></svg>