<svg xmlns="http://www.w3.org/2000/svg" viewBox="0 0 62.2 62.21"><defs><style>.cls-1{fill:none;stroke:#fff;stroke-linecap:round;stroke-linejoin:round;stroke-width:2px;}</style></defs><title>systems_1</title><g id="Layer_2" data-name="Layer 2"><g id="Layer_1-2" data-name="Layer 1"><path class="cls-1" d="M33.59,3.79A23.67,23.67,0,0,0,9.92,27.45,16.55,16.55,0,0,0,26.48,44h0c6.4,0,11.42-4.38,11.42-12.9M3.66,28.64A23.65,23.65,0,0,0,27.31,52.29h0A16.55,16.55,0,0,0,43.88,35.75v0c0-6.4-4.29-11.43-12.78-11.43M28.5,58.56A23.66,23.66,0,0,0,52.17,34.91h0A16.57,16.57,0,0,0,35.6,18.34c-6.4,0-11.3,4.25-11.3,12.77m34.13,2.61A23.66,23.66,0,0,0,34.77,10.06,16.58,16.58,0,0,0,18.21,26.62c0,6.4,4.16,11.29,12.89,11.29"/><polygon class="cls-1" points="30.98 3.77 30.92 1 33.28 2.33 35.65 3.65 33.35 5.09 31.04 6.53 30.98 3.77"/><polygon class="cls-1" points="30.98 3.77 30.92 1 33.28 2.33 35.65 3.65 33.35 5.09 31.04 6.53 30.98 3.77"/><polygon class="cls-1" points="28.33 57.12 26.03 58.56 28.4 59.88 30.77 61.21 30.7 58.45 30.64 55.68 28.33 57.12"/><polygon class="cls-1" points="30.7 58.45 30.77 61.21 28.4 59.89 26.03 58.56 28.33 57.12 30.64 55.68 30.7 58.45"/><polygon class="cls-1" points="58.5 31.35 61.2 31.28 59.91 33.71 58.61 36.14 57.2 33.78 55.79 31.41 58.5 31.35"/><polygon class="cls-1" points="58.5 31.35 61.2 31.28 59.91 33.71 58.61 36.14 57.2 33.78 55.79 31.41 58.5 31.35"/><polygon class="cls-1" points="2.3 28.17 1 30.59 3.7 30.53 6.41 30.46 5 28.1 3.59 25.74 2.3 28.17"/><polygon class="cls-1" points="3.7 30.53 1 30.59 2.3 28.17 3.59 25.74 5 28.1 6.41 30.46 3.7 30.53"/><ellipse class="cls-1" cx="31.1" cy="31.11" rx="6.76" ry="6.8"/></g></g></svg>