<?xml version="1.0" standalone="no"?>
<!DOCTYPE svg PUBLIC "-//W3C//DTD SVG 1.1//EN" "http://www.w3.org/Graphics/SVG/1.1/DTD/svg11.dtd" >
<svg xmlns="http://www.w3.org/2000/svg">
<metadata>
Created by FontPrep 20130207 at Mon Jun 27 20:13:02 2016
 By Devin Halladay
Copyright (c) 2011 by Eduardo Manso. All rights reserved.
</metadata>
<defs>
<font id="4980bd2017daf2697af624f843a37965" horiz-adv-x='1024' >
  <font-face 
    font-family="PeriodicoText-Light"
    font-weight="300"
    font-stretch="normal"
    units-per-em="2048"
    panose-1="2 0 5 3 6 0 0 2 0 4"
    ascent="1597"
    descent="-451"
    x-height="1034"
    cap-height="1391"
    bbox="-102.024 -377.02 2898 1847"
    underline-thickness="102"
    underline-position="-102"
    unicode-range="U+0009-FB02"
  />
<missing-glyph horiz-adv-x="903" 
d="M92 0v55h739v-55h-739zM92 1335v56h739v-56h-739zM498 688l229 -582h-78l-190 486l-189 -486h-80l232 582l-238 584h82l193 -486l192 486h82z" />
    <glyph glyph-name="fi" unicode="fi" horiz-adv-x="1288" 
d="M672 1417q-84 0 -130 -20q-89 -38 -113 -115q-24 -78 -26 -178v-80h375q135 0 221 25l31 6h43v-951l148 -45v-59h-476v59l148 45v818h-490v-818l164 -45v-59h-491v59l147 45v818h-145v73l145 27v72q0 186 126 298t328 112t298 -72q0 -114 -31 -170l-10 -23h-109
q-6 94 -30 143q-39 35 -123 35z" />
    <glyph glyph-name="fl" unicode="fl" horiz-adv-x="1288" 
d="M1073 1503v-1399l148 -45v-59h-476v59l148 45v1215q-82 98 -243 98t-210 -105q-35 -76 -37 -206v-82h259v-102h-259v-818l164 -45v-59h-491v59l147 45v818h-145v73l145 27v74q0 188 116 298t308 109q131 0 230 -35l153 35h43z" />
    <glyph glyph-name=".notdef" horiz-adv-x="903" 
d="M92 0v55h739v-55h-739zM92 1335v56h739v-56h-739zM498 688l229 -582h-78l-190 486l-189 -486h-80l232 582l-238 584h82l193 -486l192 486h82z" />
    <glyph glyph-name=".null" 
 />
    <glyph glyph-name="nonmarkingreturn" horiz-adv-x="681" 
 />
    <glyph glyph-name="CR" unicode="&#xd;" 
 />
    <glyph glyph-name="CR" 
 />
    <glyph glyph-name="HT" unicode="&#x9;" 
 />
    <glyph glyph-name="LF" unicode="&#xa;" 
 />
    <glyph glyph-name="DLE" 
 />
    <glyph glyph-name="DC1" 
 />
    <glyph glyph-name="DC2" 
 />
    <glyph glyph-name="DC3" 
 />
    <glyph glyph-name="DC4" 
 />
    <glyph glyph-name="RS" 
 />
    <glyph glyph-name="US" 
 />
    <glyph glyph-name="space" unicode=" " horiz-adv-x="436" 
 />
    <glyph glyph-name="exclam" unicode="!" horiz-adv-x="651" 
d="M207 97q0 48 36 83t83 35t83 -35q35 -35 35 -83t-36 -83q-36 -34 -82 -34q-47 0 -83 34t-36 83zM344 350h-39l-100 973q8 41 43 65t79 24q43 0 77 -24q34 -22 42 -65z" />
    <glyph glyph-name="quotedbl" unicode="&#x22;" horiz-adv-x="702" 
d="M500 1411q40 0 70 -27t30 -65l-68 -379h-67l-66 379q0 39 30 65t71 27zM203 1411q41 0 71 -27t29 -65l-67 -379h-68l-66 379q0 39 30 65t71 27z" />
    <glyph glyph-name="numbersign" unicode="#" horiz-adv-x="1224" 
d="M485 645l-82 -252h332l82 252h-332zM102 274v119h174l82 252h-174v119h213l90 272h127l-90 -272h332l90 272h127l-90 -272h139v-119h-178l-82 -252h178v-119h-217l-90 -274h-127l90 274h-331l-91 -274h-127l91 274h-136z" />
    <glyph glyph-name="dollar" unicode="$" horiz-adv-x="1181" 
d="M367 1022q0 -70 42 -114q42 -43 152 -85v404q-96 -19 -145 -77t-49 -128zM893 342q0 90 -51 142t-170 94l-15 4v-494q115 20 176 92q60 72 60 162zM129 193q0 56 -20 186l-7 39l78 22q36 -36 82 -122q45 -85 62 -162q119 -74 237 -74v536l-135 50q-242 90 -242 290
q0 164 106 256t271 111v129h96v-125q103 -2 221 -33t144 -32v-95q0 -64 20 -174l7 -30l-78 -23q-78 78 -129 234q-86 53 -185 57v-445l123 -45q299 -109 299 -344q-1 -161 -113 -281t-309 -136v-121h-96v121q-235 8 -432 104v107z" />
    <glyph glyph-name="percent" unicode="%" horiz-adv-x="1458" 
d="M1095 653q119 0 187 -86t68 -246q0 -161 -70 -251t-189 -90q-118 0 -187 86q-68 86 -68 246t70 250q71 91 189 91zM1096 41q116 1 116 277t-120 276t-119 -276q0 -276 123 -277zM965 1309h116l-583 -1309h-119zM369 717q117 1 117 277t-120 276t-120 -276t123 -277z
M368 1329q118 0 186 -86t69 -246q0 -160 -71 -251q-70 -91 -188 -91t-187 86t-69 246t71 251t189 91z" />
    <glyph glyph-name="ampersand" unicode="&#x26;" horiz-adv-x="1370" 
d="M544 1315q-70 1 -113 -49q-42 -50 -42 -154t135 -258q180 115 181 279q1 84 -45 133t-116 49zM256 379q0 -78 30 -135t78 -85q86 -50 179 -50q205 0 346 149q-112 110 -225 219q-160 147 -242 240q-166 -137 -166 -338zM557 1411q131 0 215 -74t84 -200q0 -221 -281 -340
q68 -74 145 -144q168 -152 269 -258q76 129 139 346l66 -12q-25 -236 -121 -412q213 -201 338 -258v-59h-235q-70 49 -201 176q-172 -197 -445 -196q-210 0 -344 107q-49 40 -82 110q-32 69 -32 155q1 174 106 279q106 104 195 145q-145 176 -146 316q-1 166 99 242t231 77z
" />
    <glyph glyph-name="quotesingle" unicode="'" horiz-adv-x="405" 
d="M203 1411q41 0 71 -27t29 -65l-67 -379h-68l-66 379q0 39 30 65t71 27z" />
    <glyph glyph-name="parenleft" unicode="(" horiz-adv-x="702" 
d="M262 616q0 -516 338 -823l-68 -65q-188 168 -299 374t-110 512q0 307 110 514q111 207 299 375l68 -65q-338 -306 -338 -822z" />
    <glyph glyph-name="parenright" unicode=")" horiz-adv-x="702" 
d="M440 615q0 515 -338 823l68 65q188 -168 299 -375t111 -514q0 -306 -111 -512t-299 -374l-68 65q338 307 338 822z" />
    <glyph glyph-name="asterisk" unicode="*" horiz-adv-x="960" 
d="M424 1061q0 -25 16 -41t41 -16t41 16t17 41q-1 25 -17 41t-41 16t-41 -16t-16 -41zM643 711l-164 227l-166 -227l-59 26l113 271l-275 34v60l275 26l-111 261l59 24l164 -227l162 227l59 -24l-108 -261l274 -26v-60l-278 -34l114 -271z" />
    <glyph glyph-name="plus" unicode="+" horiz-adv-x="1019" 
d="M102 545v123h347v346h122v-346h347v-123h-347v-346h-122v346h-347z" />
    <glyph glyph-name="comma" unicode="," horiz-adv-x="462" 
d="M113 109q-1 49 33 77t89 27q55 0 87 -41t26 -90q-6 -100 -92 -177t-217 -112l-19 41q137 90 173 164q-80 29 -80 111z" />
    <glyph glyph-name="hyphen" unicode="-" horiz-adv-x="716" 
d="M119 479v139h479v-139h-479z" />
    <glyph glyph-name="period" unicode="." horiz-adv-x="462" 
d="M113 97q0 48 35 83q36 35 83 35t83 -35t36 -83t-36 -83q-36 -34 -83 -34t-83 34q-35 35 -35 83z" />
    <glyph glyph-name="slash" unicode="/" horiz-adv-x="847" 
d="M147 -342h-127l598 1825h127z" />
    <glyph glyph-name="zero" unicode="0" horiz-adv-x="1157" 
d="M584 74q281 0 280 577q0 281 -72 435t-217 153q-283 -1 -283 -583t292 -582zM584 1329q223 0 352 -173t129 -491q0 -317 -134 -501q-135 -184 -357 -184t-352 173t-130 490t134 502q135 184 358 184z" />
    <glyph glyph-name="one" unicode="1" horiz-adv-x="880" 
d="M281 1106q-143 0 -199 16v58q76 6 205 50t213 99l47 -20v-1192l272 -58v-59h-731v59l266 58v989h-73z" />
    <glyph glyph-name="two" unicode="2" horiz-adv-x="1087" 
d="M544 1329q181 0 292 -98t110 -273q0 -264 -373 -575q-109 -91 -193 -152q-85 -61 -108 -79v-7h551q18 53 48 101t51 69l22 23l62 -21q-20 -119 -21 -213v-104h-932l-12 102q4 4 165 127t231 195q175 179 218 249q92 153 91 266q-1 114 -68 174q-68 60 -176 61
q-224 0 -367 -211l-61 45q45 119 167 220t303 101z" />
    <glyph glyph-name="three" unicode="3" horiz-adv-x="1030" 
d="M461 1188q-101 0 -193 -53t-143 -125l-51 43q40 113 152 195t282 81q170 0 272 -87t103 -228q0 -199 -207 -279v-4q106 -35 189 -120t83 -232q0 -187 -138 -293t-366 -106q-118 0 -228 32t-155 72q-1 114 19 181t22 67h88q20 -131 64 -205q100 -53 222 -53t197 68t75 223
q0 154 -115 218q-89 50 -252 70l22 84q139 7 217 59t76 171q0 119 -67 170q-68 51 -168 51z" />
    <glyph glyph-name="four" unicode="4" horiz-adv-x="1097" 
d="M668 463v624h-9l-458 -624h467zM41 367v57l651 885h168v-846h176v-96h-176v-263l164 -45v-59h-520v59l164 45v263h-627z" />
    <glyph glyph-name="five" unicode="5" horiz-adv-x="1064" 
d="M460 821q108 0 228 -36q121 -36 208 -129t87 -234q0 -215 -137 -329t-371 -113q-111 0 -217 26t-147 66q-19 138 8 223l8 37h90q16 -127 66 -205q104 -55 227 -55t201 78t77 237q0 285 -411 285q-117 0 -209 -21l-6 6l22 652h734l-21 -164h-588l-14 -330q57 6 165 6z" />
    <glyph glyph-name="six" unicode="6" horiz-adv-x="1112" 
d="M569 698q-88 0 -165 -48t-113 -130q8 -244 76 -345q67 -101 197 -101t195 88t64 252q0 284 -254 284zM613 815q187 0 297 -106t110 -299t-130 -312t-323 -118q-475 0 -475 595q0 354 142 554t399 200q104 0 186 -30t113 -58l31 -31l-43 -67q-106 70 -267 69
q-336 0 -360 -526q133 129 320 129z" />
    <glyph glyph-name="seven" unicode="7" horiz-adv-x="1021" 
d="M971 1309v-158l-578 -1151h-153v43l604 1102h-619q-31 -92 -98 -180l-21 -29l-75 16q20 160 20 252v105h920z" />
    <glyph glyph-name="eight" unicode="8" horiz-adv-x="1073" 
d="M762 1020q0 88 -51 152t-163 65q-112 -1 -162 -57t-50 -140t41 -135t131 -96l100 -51q154 106 154 262zM262 310q0 -97 71 -166t197 -68q276 0 277 229q0 154 -184 240l-170 78q-87 -51 -139 -133t-52 -180zM82 313q0 105 73 201t222 145q-223 121 -223 332
q0 160 113 249q114 89 284 89t273 -86q104 -85 104 -201t-65 -201t-177 -122l16 -6q160 -80 230 -166t69 -203q0 -154 -129 -259t-338 -105q-208 0 -330 80t-122 253z" />
    <glyph glyph-name="nine" unicode="9" horiz-adv-x="1112" 
d="M543 610q86 0 163 48t113 130q-8 244 -75 346q-66 102 -196 101q-130 0 -195 -88t-64 -252q0 -285 254 -285zM459 96q334 0 360 525q-133 -127 -320 -127t-297 106t-110 299t130 311t323 119q475 0 475 -596q0 -354 -142 -554t-399 -199q-104 0 -186 30t-113 60l-30 28
l43 68q106 -70 266 -70z" />
    <glyph glyph-name="colon" unicode=":" horiz-adv-x="462" 
d="M113 97q0 48 35 83q36 35 83 35t83 -35t36 -83t-36 -83q-36 -34 -83 -34t-83 34q-35 35 -35 83zM113 935q0 48 35 83q36 35 83 35t83 -35t36 -83t-36 -83t-83 -35t-83 35q-35 35 -35 83z" />
    <glyph glyph-name="semicolon" unicode=";" horiz-adv-x="462" 
d="M109 935q0 48 35 83q36 35 83 35t83 -35t36 -83t-36 -83t-83 -35t-83 35q-35 35 -35 83zM113 109q-1 49 33 77t89 27q55 0 87 -41t26 -90q-6 -100 -92 -177t-217 -112l-19 41q137 90 173 164q-80 29 -80 111z" />
    <glyph glyph-name="less" unicode="&#x3c;" horiz-adv-x="1019" 
d="M102 569v76l816 385v-139l-637 -281l637 -291v-137z" />
    <glyph glyph-name="equal" unicode="=" horiz-adv-x="1019" 
d="M102 362v123h816v-123h-816zM102 729v123h816v-123h-816z" />
    <glyph glyph-name="greater" unicode="&#x3e;" horiz-adv-x="1019" 
d="M918 645v-76l-816 -387v137l637 291l-637 281v139z" />
    <glyph glyph-name="question" unicode="?" horiz-adv-x="1021" 
d="M299 97q0 48 36 83t83 35t83 -35t36 -83t-36 -83q-36 -34 -83 -34t-83 34t-36 83zM483 1411q199 0 318 -94t119 -264q0 -290 -296 -414q-75 -31 -157 -45l-18 -244h-60l-29 381q128 20 173 41q105 51 152 121q46 69 46 187t-77 176t-174 58t-167 -34q-48 -107 -67 -182
l-8 -31h-105q-39 98 -27 193q46 57 144 104t233 47z" />
    <glyph glyph-name="at" unicode="@" horiz-adv-x="1851" 
d="M838 301q88 0 166 108t104 257l31 180q-55 104 -167 104t-185 -145t-73 -325t124 -179zM1276 236q127 0 223 128t96 370t-150 408q-151 167 -425 167q-330 1 -537 -229t-207 -572t213 -505q184 -140 457 -140q195 0 359 53l18 -63q-180 -90 -397 -91q-331 0 -544 164
q-75 57 -128 131t-87 188t-34 251q0 399 247 657t640 258q174 0 314 -55q140 -54 226 -150q178 -197 179 -475q0 -157 -46 -275t-119 -183q-144 -128 -282 -128q-139 -1 -186 57t-39 142l4 51h-10q-109 -221 -277 -221q-118 0 -184 78t-65 207q0 241 137 409t323 168
q115 0 199 -75l86 75l59 -12l-110 -616q-18 -56 -11 -114t58 -58z" />
    <glyph glyph-name="A" unicode="A" horiz-adv-x="1415" 
d="M676 1155h-8l-226 -604h453zM1415 0h-526v59l168 45l-129 355h-520l-134 -355l166 -45v-59h-440v59l147 45l508 1287l107 20l512 -1307l141 -45v-59z" />
    <glyph glyph-name="B" unicode="B" horiz-adv-x="1368" 
d="M639 1294h-180v-518h176q170 0 258 68t88 192t-87 192q-87 66 -255 66zM702 680h-243v-584h239q346 4 346 289q0 139 -88 217t-254 78zM692 0h-590v59l164 45v1182l-164 45v60h527q253 0 405 -86t152 -265q0 -227 -281 -303v-6q160 -31 254 -116t94 -226
q0 -190 -154 -290q-155 -99 -407 -99z" />
    <glyph glyph-name="C" unicode="C" horiz-adv-x="1280" 
d="M778 1411q100 1 220 -23t147 -26v-111q0 -64 20 -174l6 -30l-77 -23q-78 72 -136 236q-102 53 -223 53q-190 0 -307 -164q-117 -165 -117 -443t128 -426t327 -149q106 0 189 36t124 78t90 113l50 -28q-36 -119 -145 -228q-56 -55 -144 -89t-193 -33q-279 0 -457 183
t-178 519t193 532t483 197z" />
    <glyph glyph-name="D" unicode="D" horiz-adv-x="1499" 
d="M723 1288h-264v-1182h264q213 0 339 157t126 431t-126 434t-339 160zM102 1391h621q301 1 487 -179t186 -502t-193 -516q-194 -194 -480 -194h-621v59l164 45v1182l-164 45v60z" />
    <glyph glyph-name="E" unicode="E" horiz-adv-x="1314" 
d="M102 1391h1053v-105q0 -93 16 -205l5 -41l-70 -14q-68 102 -115 260h-532v-528l450 6l41 117h72v-344h-68l-45 116l-450 4v-553h579q42 148 97 240l18 35l70 -14q-20 -168 -21 -261v-104h-1100v59l164 45v1182l-164 45v60z" />
    <glyph glyph-name="F" unicode="F" horiz-adv-x="1265" 
d="M102 1391h1072v-105q0 -58 14 -205l6 -41l-70 -14q-68 102 -114 260h-551v-561l471 6l41 137h71v-385h-67l-45 138l-471 4v-521l184 -45v-59h-541v59l164 45v1182l-164 45v60z" />
    <glyph glyph-name="G" unicode="G" horiz-adv-x="1409" 
d="M805 1411q79 0 229 -25t187 -24v-98q0 -92 20 -170l6 -31l-78 -27q-76 59 -133 215q-119 61 -256 62q-215 0 -342 -170q-127 -171 -127 -455t135 -446t336 -162q135 0 230 49v379l-123 45v59h418v-59l-103 -45v-379l53 -12v-60q-205 -77 -485 -77t-474 179
q-196 179 -196 519t201 536t502 197z" />
    <glyph glyph-name="H" unicode="H" horiz-adv-x="1574" 
d="M952 1391h521v-60l-164 -45v-1182l164 -45v-59h-521v59l164 45v580h-657v-580l164 -45v-59h-521v59l164 45v1182l-164 45v60h521v-60l-164 -45v-500h657v500l-164 45v60z" />
    <glyph glyph-name="I" unicode="I" horiz-adv-x="724" 
d="M102 1391h521v-60l-164 -45v-1182l164 -45v-59h-521v59l164 45v1182l-164 45v60z" />
    <glyph glyph-name="J" unicode="J" horiz-adv-x="696" 
d="M-25 -362q-37 0 -73 6q-13 93 16 188l8 35h117q8 -88 29 -133q125 47 186 145v1407l-164 45v60h510v-60l-153 -45v-1415q-213 -233 -476 -233z" />
    <glyph glyph-name="K" unicode="K" horiz-adv-x="1439" 
d="M102 1391h521v-60l-164 -45v-541h190l416 541l-156 45v60h451v-60l-148 -45l-419 -518l340 -477q70 -98 141 -156q72 -57 108 -65l37 -11v-59h-262q-94 45 -182 174l-322 469h-194v-539l164 -45v-59h-521v59l164 45v1182l-164 45v60z" />
    <glyph glyph-name="L" unicode="L" horiz-adv-x="1210" 
d="M102 1391h521v-60l-164 -45v-1182h516q40 141 96 240l19 35l69 -14q-20 -168 -20 -261v-104h-1037v59l164 45v1182l-164 45v60z" />
    <glyph glyph-name="M" unicode="M" horiz-adv-x="1771" 
d="M102 1391h369l418 -1053h6l410 1053h364v-60l-164 -45v-1182l164 -45v-59h-514v59l164 45v1014h-8q-29 -102 -45 -143l-359 -909h-96l-377 909l-41 143h-8v-1014l164 -45v-59h-447v59l164 45v1182l-164 45v60z" />
    <glyph glyph-name="N" unicode="N" horiz-adv-x="1554" 
d="M1022 1391h451v-60l-164 -45v-1286h-103l-817 1157v-1053l164 -45v-59h-451v59l164 45v1182l-164 45v60h369l715 -1020v915l-164 45v60z" />
    <glyph glyph-name="O" unicode="O" horiz-adv-x="1439" 
d="M708 1313q-184 0 -290 -166t-106 -451q0 -286 117 -450q118 -164 303 -164t291 163q105 163 105 447t-117 452q-118 169 -303 169zM102 684q0 332 178 530t446 197q267 0 439 -188q172 -187 172 -519t-178 -528t-445 -196t-440 186q-172 186 -172 518z" />
    <glyph glyph-name="P" unicode="P" horiz-adv-x="1327" 
d="M102 1391h576q254 0 411 -111t157 -321q0 -209 -143 -333q-142 -124 -341 -124q-86 0 -180 30v60h104q172 2 263 91t91 256t-92 257t-260 90h-229v-1182l184 -45v-59h-541v59l164 45v1182l-164 45v60z" />
    <glyph glyph-name="Q" unicode="Q" horiz-adv-x="1439" 
d="M717 1313q-184 0 -295 -167t-111 -451q0 -285 114 -449t299 -164t295 164q109 164 109 448t-113 451q-114 168 -298 168zM1282 -322h-278q-66 27 -109 61t-98 91l-148 154q-243 22 -395 206t-152 505t178 519t446 197q267 0 439 -188t172 -521q0 -274 -127 -459
t-331 -243v-8l100 -86q162 -137 303 -168v-60z" />
    <glyph glyph-name="R" unicode="R" horiz-adv-x="1390" 
d="M459 1286v-577h368q168 92 168 295q0 138 -82 210t-239 72h-215zM1360 0h-268q-102 43 -172 197l-189 415h-272v-508l168 -45v-59h-525v59l164 45v1182l-164 45v60h562q244 1 390 -95t146 -286q0 -132 -75 -226t-201 -131v-10l149 -305q111 -227 270 -277l17 -2v-59z" />
    <glyph glyph-name="S" unicode="S" horiz-adv-x="1179" 
d="M109 193q0 50 -21 186l-6 39l78 22q33 -33 80 -120t63 -164q119 -74 259 -74t226 75q84 75 84 201q0 178 -221 260l-245 91q-123 45 -193 131t-70 206t69 205q128 160 404 160q115 0 238 -32t147 -33v-95q0 -58 21 -174l6 -30l-78 -23q-78 78 -129 233q-90 57 -218 57
t-203 -62t-74 -156q0 -154 198 -226l236 -86q307 -111 307 -385q0 -172 -131 -296q-132 -123 -366 -123t-461 106v107z" />
    <glyph glyph-name="T" unicode="T" horiz-adv-x="1273" 
d="M61 1286v105h1151v-105q0 -86 17 -205l4 -41l-70 -14q-68 102 -114 260h-316v-1182l185 -45v-59h-562v59l185 45v1182h-316q-41 -143 -96 -229l-18 -31l-70 14q20 154 20 246z" />
    <glyph glyph-name="U" unicode="U" horiz-adv-x="1513" 
d="M1147 391v895l-164 45v60h459v-60l-164 -45v-983q-47 -155 -180 -239t-330 -84q-428 0 -532 294v1012l-164 45v60h520v-60l-164 -45v-905q0 -131 93 -210t252 -79t267 80t107 219z" />
    <glyph glyph-name="V" unicode="V" horiz-adv-x="1415" 
d="M0 1391h526v-60l-168 -45l385 -1030h7l391 1030l-166 45v60h440v-60l-147 -45l-512 -1306h-99l-516 1306l-141 45v60z" />
    <glyph glyph-name="W" unicode="W" horiz-adv-x="2152" 
d="M0 1391h526v-60l-168 -45l324 -1018h2l328 985l-31 88l68 50h127l366 -1123h2l338 1018l-166 45v60h436v-60l-147 -45l-455 -1306h-98l-381 1097l-381 -1097h-98l-451 1306l-141 45v60z" />
    <glyph glyph-name="X" unicode="X" horiz-adv-x="1431" 
d="M883 0v59l141 41l-342 490l-367 -486l140 -45v-59h-424v59l137 45l457 572l-426 614l-146 41v60h508v-60l-133 -39l324 -471l344 467l-131 45v60h407v-60l-139 -45l-424 -549l442 -643l150 -37v-59h-518z" />
    <glyph glyph-name="Y" unicode="Y" horiz-adv-x="1374" 
d="M0 1391h512v-60l-158 -45l363 -622h2l391 622l-156 45v60h420v-60l-137 -45l-465 -723v-459l184 -45v-59h-561v59l185 45v449l-449 733l-131 45v60z" />
    <glyph glyph-name="Z" unicode="Z" horiz-adv-x="1251" 
d="M1106 1391v-99l-797 -1188h666q34 127 94 248l21 39l79 -16q-20 -143 -20 -271v-104h-1067v98l799 1188h-559q-8 -59 -38 -132t-55 -116l-24 -43l-78 17q20 160 20 274v105h959z" />
    <glyph glyph-name="bracketleft" unicode="[" horiz-adv-x="712" 
d="M610 -254h-426v1737h426v-103h-264v-1534h264v-100z" />
    <glyph glyph-name="backslash" unicode="\" horiz-adv-x="847" 
d="M827 -342h-127l-598 1825h127z" />
    <glyph glyph-name="bracketright" unicode="]" horiz-adv-x="712" 
d="M528 -254h-426v100h265v1534h-265v103h426v-1737z" />
    <glyph glyph-name="asciicircum" unicode="^" horiz-adv-x="860" 
d="M758 750h-123l-209 483l-203 -483h-121l267 641h116z" />
    <glyph glyph-name="underscore" unicode="_" horiz-adv-x="1050" 
d="M0 -283v119h1063v-119h-1063z" />
    <glyph glyph-name="grave" unicode="`" horiz-adv-x="604" 
d="M215 1491h21l253 -281l-51 -53l-327 215z" />
    <glyph glyph-name="a" unicode="a" horiz-adv-x="1075" 
d="M449 115q139 0 235 96q0 53 1 161t1 163q-276 -63 -410 -175v-86q0 -80 48 -120t125 -39zM928 109q53 0 116 53l29 -49q-94 -129 -213 -129q-158 0 -174 145q-141 -150 -297 -149q-123 0 -205 61t-82 197v127q101 122 294 183q133 42 292 75v84q0 256 -209 256
q-82 0 -155 -43q-27 -64 -33 -168l-2 -35h-115q-49 72 -61 182q59 63 167 109t250 47q144 0 239 -81t95 -259l-6 -516q0 -90 70 -90z" />
    <glyph glyph-name="b" unicode="b" horiz-adv-x="1171" 
d="M602 915q-133 0 -242 -102v-620q106 -119 238 -119q293 0 293 448q0 215 -78 304t-211 89zM360 1503v-602q45 59 126 107t180 47q202 0 310 -137q108 -136 108 -384t-131 -402q-130 -154 -337 -152q-172 0 -299 71l-81 -71l-56 18v1356l-149 24v62l286 63h43z" />
    <glyph glyph-name="c" unicode="c" horiz-adv-x="1001" 
d="M580 958q-152 0 -231 -116t-79 -320q0 -205 91 -301t231 -96t309 129l39 -43q-51 -100 -146 -166t-233 -65q-219 0 -346 135t-127 387t150 402t356 151q102 0 189 -34t137 -87q-4 -112 -43 -184l-13 -23h-123q2 104 -20 186q-59 45 -141 45z" />
    <glyph glyph-name="d" unicode="d" horiz-adv-x="1206" 
d="M568 119q131 0 243 102v625q-106 115 -238 115q-293 0 -292 -455q0 -213 78 -300t209 -87zM991 1503v-1399l148 -36v-68h-297l-21 133h-10q-45 -59 -126 -106t-179 -47q-205 0 -311 134q-107 134 -107 381t131 403t336 157q141 0 256 -49v348l-149 24v62l286 63h43z" />
    <glyph glyph-name="e" unicode="e" horiz-adv-x="1013" 
d="M526 965q-104 -1 -174 -91t-84 -268l484 17v24q0 145 -61 231t-165 87zM543 -20q-213 0 -334 139t-121 390t128 398t318 147t291 -121q100 -122 101 -325v-92l-660 2v-2q0 -203 83 -300t218 -97q98 1 170 35t144 100l39 -43q-137 -231 -377 -231z" />
    <glyph glyph-name="f" unicode="f" horiz-adv-x="708" 
d="M566 1417q-46 1 -83 -25q-76 -53 -80 -272v-96h259v-102h-259v-818l164 -45v-59h-491v59l147 45v818h-145v73l145 27v88q-1 184 101 288t252 105q150 0 215 -51q0 -105 -31 -170l-10 -22h-88q-6 98 -31 147q-19 10 -65 10z" />
    <glyph glyph-name="g" unicode="g" horiz-adv-x="1095" 
d="M231 -94q0 -74 83 -123q84 -49 222 -49t231 48t93 134v45q-51 41 -217 59l-258 29q-25 2 -66 10q-88 -79 -88 -153zM537 463q203 0 202 254q0 117 -55 187t-160 71q-203 0 -202 -258q0 -117 54 -186q55 -68 161 -68zM530 381q-221 0 -221 -88q0 -61 121 -74l234 -24
q285 -31 374 -132v-94q0 -139 -146 -235t-368 -96t-341 68q-118 68 -117 171q0 121 180 211q-92 51 -92 160q0 133 170 174q-186 84 -187 291q0 160 111 251t282 91q101 0 185 -31q170 4 264 41l35 12l24 -121q-72 -18 -204 -8l-3 -6q94 -102 95 -221q0 -158 -112 -249
t-284 -91z" />
    <glyph glyph-name="h" unicode="h" horiz-adv-x="1245" 
d="M406 1501v-604q57 66 147 112t182 46q131 0 218 -86t87 -260v-605l148 -45v-59h-465v59l139 45v594q0 217 -198 217q-139 0 -258 -102v-709l137 -45v-59h-465v59l147 45v1248l-149 24v62l286 63h44z" />
    <glyph glyph-name="i" unicode="i" horiz-adv-x="620" 
d="M406 1055v-951l147 -45v-59h-475v59l147 45v781l-149 24v62l286 84h44zM193 1368q0 47 33 81q34 34 81 34t81 -34t34 -81t-34 -81t-81 -34t-81 34q-33 34 -33 81z" />
    <glyph glyph-name="j" unicode="j" horiz-adv-x="595" 
d="M201 1368q0 47 33 81q34 34 81 34t81 -34t34 -81t-34 -81t-81 -34t-81 34q-33 34 -33 81zM-4 -362q-51 0 -88 10q-8 105 16 180l8 25h103q12 -82 39 -132q113 45 159 113v1047l-167 28v62l305 84h43v-1211q-68 -86 -185 -146t-233 -60z" />
    <glyph glyph-name="k" unicode="k" horiz-adv-x="1142" 
d="M391 1501v-905h121l297 334l-88 45v59h356v-59l-121 -45l-307 -312l205 -301q84 -125 145 -181t134 -77v-59h-228q-59 37 -96 75t-80 103l-221 336h-117v-410l129 -45v-59h-457v59l148 45v1248l-150 24v62l287 63h43z" />
    <glyph glyph-name="l" unicode="l" horiz-adv-x="606" 
d="M391 1503v-1399l148 -45v-59h-476v59l148 45v1250l-150 24v62l287 63h43z" />
    <glyph glyph-name="m" unicode="m" horiz-adv-x="1855" 
d="M397 1055v-156h9q59 68 145 112t177 44t164 -45t107 -133h5q154 178 350 178q129 0 213 -86t84 -260v-605l147 -45v-59h-465v59l140 45v594q0 217 -191 217q-135 0 -264 -110q10 -47 10 -96v-605l127 -45v-59h-424v59l119 45v594q0 217 -191 217q-139 0 -253 -102v-709
l137 -45v-59h-465v59l147 45v781l-149 24v62l278 84h43z" />
    <glyph glyph-name="n" unicode="n" horiz-adv-x="1245" 
d="M397 1055v-156h9q59 68 147 112t182 44q131 0 218 -86t87 -260v-605l148 -45v-59h-465v59l139 45v594q0 217 -198 217q-139 0 -258 -102v-709l137 -45v-59h-465v59l147 45v781l-149 24v62l278 84h43z" />
    <glyph glyph-name="o" unicode="o" horiz-adv-x="1128" 
d="M586 74q258 0 258 442q0 211 -83 329t-216 118q-260 0 -260 -447q0 -210 83 -326t218 -116zM88 511q0 249 136 397t344 147q208 1 340 -141t132 -391t-136 -396t-344 -147t-340 141t-132 390z" />
    <glyph glyph-name="p" unicode="p" horiz-adv-x="1193" 
d="M624 915q-133 0 -241 -102v-625q98 -115 238 -114q293 0 292 454q0 213 -77 300q-79 87 -212 87zM375 1055v-156h6q45 59 126 107t181 49q205 0 311 -134q107 -134 107 -381t-131 -404t-336 -156q-145 0 -256 49v-267l172 -45v-59h-498v59l148 45v1123l-150 24v62l279 84
h41z" />
    <glyph glyph-name="q" unicode="q" horiz-adv-x="1169" 
d="M568 119q131 0 243 102v621q-106 119 -238 119q-293 0 -292 -449q0 -215 78 -304t209 -89zM1139 -342h-500v59l172 45v371q-45 -59 -126 -106t-179 -47q-202 0 -310 137t-108 384t130 401t322 153q192 0 314 -74l82 74h55v-1293l148 -45v-59z" />
    <glyph glyph-name="r" unicode="r" horiz-adv-x="872" 
d="M578 0h-500v59l147 45v781l-149 24v62l278 84h43v-195h9q121 195 335 195q49 0 90 -8q0 -148 -24 -244l-10 -31h-109q-20 117 -45 154q-103 -27 -186 -108q-21 -19 -29 -27l-22 -25v-662l172 -45v-59z" />
    <glyph glyph-name="s" unicode="s" horiz-adv-x="952" 
d="M111 139q0 65 -17 127l-4 25l92 24q53 -88 80 -190q111 -55 212 -55t157 51q55 51 55 145q0 119 -143 164l-201 66q-98 31 -152 102q-53 72 -53 164q0 150 109 222t252 71q92 0 188 -24t119 -23v-76q0 -45 14 -115l6 -20l-75 -33q-63 68 -95 162q-82 41 -171 41t-139 -43
t-50 -115q0 -115 139 -160l191 -61q123 -39 178 -115t55 -164q0 -157 -105 -243t-285 -86t-357 79v80z" />
    <glyph glyph-name="t" unicode="t" horiz-adv-x="763" 
d="M61 934v74l146 26l98 301h80v-301h258v-100h-258v-774q59 -64 153 -64t169 58l36 -58q-133 -116 -289 -116t-247 116v838h-146z" />
    <glyph glyph-name="u" unicode="u" horiz-adv-x="1214" 
d="M377 1055v-836q49 -100 189 -100t259 102v664l-155 24v62l278 84h58v-951l147 -45v-59h-291l-20 143h-11q-141 -164 -331 -163q-219 0 -301 204v701l-142 24v62l279 84h41z" />
    <glyph glyph-name="v" unicode="v" horiz-adv-x="1075" 
d="M-10 1034h452v-59l-139 -45l281 -715h4l266 715l-127 45v59h369v-59l-121 -45l-371 -950h-98l-402 950l-114 45v59z" />
    <glyph glyph-name="w" unicode="w" horiz-adv-x="1669" 
d="M0 1034h453v-59l-140 -45l236 -715h4l223 700l-31 86l27 33h162l270 -819h4l230 715l-127 45v59h368v-59l-120 -45l-334 -950h-99l-286 768l-271 -768h-98l-356 950l-115 45v59z" />
    <glyph glyph-name="x" unicode="x" horiz-adv-x="1155" 
d="M680 0v59l117 41l-256 334l-265 -330l119 -45v-59h-364v59l116 45l338 406l-321 424l-109 41v59h434v-59l-108 -39l225 -301l248 295l-111 45v59h357v-59l-119 -45l-319 -367l350 -467l112 -37v-59h-444z" />
    <glyph glyph-name="y" unicode="y" horiz-adv-x="1075" 
d="M-10 1034h452v-59l-139 -45l289 -715h4l260 715l-129 45v59h369v-59l-123 -45l-334 -912q-82 -229 -172 -305t-250 -75q-70 0 -104 18q-14 107 14 186l12 29h103q7 -82 30 -123q150 0 240 246l-408 936l-114 45v59z" />
    <glyph glyph-name="z" unicode="z" horiz-adv-x="1058" 
d="M936 1034v-88l-649 -852h526q35 110 105 217l20 33l59 -16q-20 -141 -20 -234v-94h-905v88l639 852h-406q-10 -45 -42 -97t-58 -81l-25 -31l-59 19q20 119 20 190v94h795z" />
    <glyph glyph-name="braceleft" unicode="{" horiz-adv-x="778" 
d="M565 -272q-328 0 -301 340l21 272q10 137 -29 180t-184 53v84q145 9 184 53t29 181l-21 272q-27 340 301 340q33 0 111 -8v-72l-47 -4q-95 -8 -141 -46t-35 -150l20 -244q19 -247 -101 -309q-54 -29 -163 -49v-11q109 -20 163 -49q121 -65 101 -309l-20 -244
q-9 -110 35 -148t137 -48l51 -5v-71q-78 -8 -111 -8z" />
    <glyph glyph-name="bar" unicode="|" horiz-adv-x="530" 
d="M332 -342h-127v1825h127v-1825z" />
    <glyph glyph-name="braceright" unicode="}" horiz-adv-x="778" 
d="M213 1503q328 0 301 -340l-20 -272q-10 -137 28 -180t185 -54v-84q-145 -10 -185 -53t-28 -180l20 -272q27 -340 -301 -340q-33 0 -111 8v71l52 5q92 10 137 48t35 148l-21 244q-19 247 102 309q54 29 162 49v11q-109 20 -163 49q-120 65 -101 309l21 244q10 113 -36 151
t-140 45l-48 4v72q78 8 111 8z" />
    <glyph glyph-name="asciitilde" unicode="~" horiz-adv-x="1239" 
d="M884 500q-80 0 -226 66t-216 67q-154 0 -258 -137l-82 65q58 97 150 153t196 56t256 -68t193 -67q95 0 158 86l82 -66q-39 -71 -106 -113t-147 -42z" />
    <glyph glyph-name="DEL" 
 />
    <glyph glyph-name="uni00A0" unicode="&#xa0;" horiz-adv-x="436" 
 />
    <glyph glyph-name="exclamdown" unicode="&#xa1;" horiz-adv-x="651" 
d="M207 937q0 48 36 83t83 35t83 -35q35 -35 35 -83t-36 -83t-82 -35q-47 0 -83 35t-36 83zM326 -377q-44 0 -78 24q-35 24 -43 64l100 973h39l102 -973q-8 -43 -42 -65t-78 -23z" />
    <glyph glyph-name="cent" unicode="&#xa2;" horiz-adv-x="1056" 
d="M285 645q-1 -166 65 -260t170 -121v817q-235 -55 -235 -436zM616 -20h-96v133q-198 16 -308 150q-110 135 -110 365t120 373t298 177v151h96v-143q98 -2 184 -36t134 -85q-2 -59 -16 -111t-27 -73l-12 -23h-123q2 104 -21 186q-51 37 -119 43v-831q141 6 299 129l39 -43
q-109 -211 -338 -229v-133z" />
    <glyph glyph-name="sterling" unicode="&#xa3;" horiz-adv-x="1239" 
d="M102 0v61l156 39q41 94 41 359v121h-197v96h197v186q0 215 127 341t346 126q96 -1 202 -27t122 -28v-94q0 -48 14 -136l6 -22l-76 -29q-80 78 -129 209q-74 39 -141 39q-279 0 -278 -377v-188h305v-96h-305v-121q0 -127 -25 -211t-102 -144h587q42 148 97 240l18 35
l70 -14q-20 -168 -21 -261v-104h-1014z" />
    <glyph glyph-name="yen" unicode="&#xa5;" horiz-adv-x="1415" 
d="M221 567v97h309l-337 540l-132 45v60h517v-60l-158 -45l317 -540h2l351 540l-156 45v60h420v-60l-137 -45l-359 -540h326v-97h-389l-2 -4v-112h391v-97h-391v-250l184 -45v-59h-561v59l184 45v250h-379v97h379v102l-10 14h-369z" />
    <glyph glyph-name="brokenbar" unicode="&#xa6;" horiz-adv-x="532" 
d="M328 758h-123v725h123v-725zM328 -252h-123v725h123v-725z" />
    <glyph glyph-name="section" unicode="&#xa7;" horiz-adv-x="1189" 
d="M903 420q0 178 -231 260l-246 90q-41 16 -59 27q-59 -70 -60 -168q0 -178 232 -260l245 -90q33 -14 58 -27q61 72 61 168zM1087 461q0 -80 -45 -151t-120 -115q94 -90 94 -218q0 -167 -128 -253t-315 -86q-115 0 -237 32t-148 33v94q0 92 -20 174l-6 31l78 23
q78 -78 129 -234q91 -57 211 -57t187 54t67 134q0 133 -168 195l-236 86q-307 111 -307 385q0 164 164 266q-92 86 -92 217q0 168 128 254t314 86q115 0 237 -32t148 -33v-95q0 -64 20 -174l7 -30l-78 -23q-78 78 -129 233q-90 57 -211 57t-188 -53q-67 -54 -66 -135
q0 -133 168 -194l235 -86q307 -111 307 -385z" />
    <glyph glyph-name="dieresis" unicode="&#xa8;" horiz-adv-x="698" 
d="M596 1327q0 -39 -30 -67t-69 -29q-40 0 -69 29q-29 28 -29 68t30 69t69 29q38 0 68 -30t30 -69zM299 1328q-1 -40 -29 -68t-68 -29q-40 0 -70 29q-30 30 -30 68t30 68t70 30t68 -30q28 -28 29 -68z" />
    <glyph glyph-name="copyright" unicode="&#xa9;" horiz-adv-x="1595" 
d="M805 205q-197 0 -318 121t-121 346t133 353q132 128 337 128q66 0 148 -14t106 -15v-88q0 -52 12 -118l4 -21l-68 -20q-55 53 -90 163q-61 33 -127 33q-121 0 -193 -103q-72 -102 -71 -278q0 -176 78 -266t199 -90q70 0 124 22t78 46q25 24 58 67l43 -25
q-31 -94 -112 -168t-220 -73zM797 1350q-269 0 -459 -193t-190 -463t190 -462t458 -191q268 0 460 191q192 192 192 462t-192 463t-459 193zM82 694q0 297 209 507t506 210t507 -210t210 -507t-210 -506q-210 -208 -507 -208t-506 208t-209 506z" />
    <glyph glyph-name="ordfeminine" unicode="&#xaa;" horiz-adv-x="681" 
d="M279 870q49 0 94 35q0 100 2 152q-113 -29 -170 -70v-47q0 -70 74 -70zM524 860q28 0 56 27l20 -31q-49 -68 -128 -68t-95 68q-71 -70 -141 -70q-154 0 -154 136v61q72 84 293 131v33q0 123 -96 123q-33 0 -70 -19q-12 -32 -12 -84l-2 -16h-72q-27 39 -33 96q31 31 90 57
t127 25q193 0 193 -182l-4 -246q0 -41 28 -41z" />
    <glyph glyph-name="guillemotleft" unicode="&#xab;" horiz-adv-x="1046" 
d="M512 475v92l295 381h117l-232 -424l232 -430h-117zM102 475v92l295 381h117l-231 -424l231 -430h-117z" />
    <glyph glyph-name="logicalnot" unicode="&#xac;" horiz-adv-x="1019" 
d="M102 545v123h816v-469h-123v346h-693z" />
    <glyph glyph-name="registered" unicode="&#xae;" horiz-adv-x="1239" 
d="M606 1128h-69v-237h131q66 35 65 123q0 114 -127 114zM928 580h-148q-45 16 -78 86l-77 172h-88v-207l65 -19v-32h-252v32l66 19v502l-66 18v33h273q106 0 171 -42t64 -126q0 -115 -117 -156v-2l62 -129q25 -49 55 -79t51 -34l19 -4v-32zM618 1352q-198 0 -336 -140
t-138 -340q0 -198 138 -338q140 -140 336 -140t336 140t140 338t-140 340q-140 140 -336 140zM82 872q0 223 157 381t379 158t381 -158q158 -158 158 -381q0 -224 -158 -380t-381 -156q-224 0 -380 156t-156 380z" />
    <glyph glyph-name="macron" unicode="&#xaf;" horiz-adv-x="712" 
d="M117 1249v119h479v-119h-479z" />
    <glyph glyph-name="degree" unicode="&#xb0;" horiz-adv-x="669" 
d="M186 1075q0 -67 44 -113t104 -46t103 46q44 48 44 114t-44 112q-44 47 -103 47q-60 0 -104 -47t-44 -113zM82 1075q0 104 74 179t178 75t179 -75t75 -179t-75 -178t-179 -74t-178 74t-74 178z" />
    <glyph glyph-name="plusminus" unicode="&#xb1;" horiz-adv-x="1019" 
d="M102 20v123h816v-123h-816zM102 565v123h347v326h122v-326h347v-123h-347v-325h-122v325h-347z" />
    <glyph glyph-name="twosuperior" unicode="&#xb2;" horiz-adv-x="751" 
d="M388 1329q96 0 152 -51q58 -52 58 -124t-30 -126q-58 -105 -302 -272v-4h262q22 59 54 84l10 12l37 -12q-10 -66 -11 -111v-61h-487l-8 59q2 2 41 33q39 30 86 68q56 45 115 113q59 67 78 114q18 47 18 87t-30 66q-30 27 -77 27q-113 -1 -172 -101l-45 31q29 63 92 115
t159 53z" />
    <glyph glyph-name="threesuperior" unicode="&#xb3;" horiz-adv-x="716" 
d="M430 1149q0 92 -111 92q-45 1 -90 -23t-69 -55l-33 27q23 55 84 97t151 42t144 -44t55 -114q0 -94 -115 -139v-2q60 -16 104 -58t44 -124t-72 -137t-186 -56q-64 1 -126 17t-87 39q0 68 13 96t16 31h51q6 -61 24 -97q39 -25 105 -24q125 0 125 129q0 74 -47 102t-129 39
l14 51q67 6 101 29t34 82z" />
    <glyph glyph-name="acute" unicode="&#xb4;" horiz-adv-x="604" 
d="M365 1491h20l104 -119l-327 -215l-51 53z" />
    <glyph glyph-name="mu" unicode="&#xb5;" horiz-adv-x="1214" 
d="M377 1055v-836q49 -100 189 -100t259 102v664l-155 24v62l278 84h58v-951l147 -45v-59h-291l-20 143h-11q-141 -164 -331 -163q-84 0 -152 30l29 -352h-178v1227l-142 24v62l279 84h41z" />
    <glyph glyph-name="paragraph" unicode="&#xb6;" horiz-adv-x="1146" 
d="M881 100q0 -305 -218 -411q-107 -51 -221 -51t-147 18q-15 114 16 186l11 29h102q8 -82 31 -123q121 0 211 83q36 33 64 101t28 158v1301h286v-60l-163 -45v-1186zM633 1391v-1024q-268 -2 -410 144q-141 145 -141 369t152 368t399 143z" />
    <glyph glyph-name="periodcentered" unicode="&#xb7;" horiz-adv-x="503" 
d="M133 603q0 48 36 83t83 35t83 -35t36 -83t-36 -83t-83 -35t-83 35t-36 83z" />
    <glyph glyph-name="cedilla" unicode="&#xb8;" horiz-adv-x="573" 
d="M471 -223q0 -63 -57 -101q-56 -38 -150 -38t-162 53l23 43q61 -31 127 -31q94 0 94 68t-141 98v8l94 154h86l-70 -115q156 -31 156 -139z" />
    <glyph glyph-name="onesuperior" unicode="&#xb9;" horiz-adv-x="645" 
d="M266 1208h-33l-110 9v36q137 14 233 76l43 -12v-586l123 -29v-38h-375v38l119 29v477z" />
    <glyph glyph-name="ordmasculine" unicode="&#xba;" horiz-adv-x="669" 
d="M342 848q111 0 111 211t-123 211q-113 0 -113 -211t125 -211zM338 1329q114 0 182 -71q68 -72 68 -198t-72 -200t-184 -74t-182 71q-68 71 -68 198t72 201t184 73z" />
    <glyph glyph-name="guillemotright" unicode="&#xbb;" horiz-adv-x="1046" 
d="M944 567v-92l-295 -381h-117l232 430l-232 424h117zM535 567v-92l-295 -381h-117l231 430l-231 424h117z" />
    <glyph glyph-name="onequarter" unicode="&#xbc;" horiz-adv-x="1347" 
d="M313 0h-98l913 1309h97zM266 1208h-33l-110 9v36q137 14 233 76l43 -12v-586l123 -29v-38h-375v38l119 29v477zM1004 225v299h-5l-208 -299h213zM694 162v43l320 448h123v-428h84v-63h-84v-103l77 -22v-37h-292v37l82 22v103h-310z" />
    <glyph glyph-name="onehalf" unicode="&#xbd;" horiz-adv-x="1454" 
d="M1321 61v-61h-487l-9 59q15 16 63 52q113 86 177 159q63 73 80 118q18 46 18 86t-29 67q-30 27 -77 26q-113 0 -172 -100l-45 31q29 63 92 115q62 53 158 53t153 -52t57 -124t-30 -126q-56 -103 -301 -272v-4h262q19 52 63 96l37 -12q-10 -66 -10 -111zM313 0h-98
l913 1309h97zM266 1208h-33l-110 9v36q137 14 233 76l43 -12v-586l123 -29v-38h-375v38l119 29v477z" />
    <glyph glyph-name="threequarters" unicode="&#xbe;" horiz-adv-x="1312" 
d="M430 1149q0 92 -111 92q-45 1 -90 -23t-69 -55l-33 27q23 55 84 97t151 42t144 -44t55 -114q0 -94 -115 -139v-2q60 -16 104 -58t44 -124t-72 -137t-186 -56q-64 1 -126 17t-87 39q0 68 13 96t16 31h51q6 -61 24 -97q39 -25 105 -24q125 0 125 129q0 74 -47 102t-129 39
l14 51q67 6 101 29t34 82zM279 0h-99l914 1309h96zM967 225v299h-4l-209 -299h213zM657 162v43l320 448h123v-428h84v-63h-84v-103l78 -22v-37h-293v37l82 22v103h-310z" />
    <glyph glyph-name="questiondown" unicode="&#xbf;" horiz-adv-x="1021" 
d="M723 937q0 -48 -36 -83t-83 -35t-83 35t-36 83t36 83t83 35t83 -35t36 -83zM539 -377q-199 0 -318 94t-119 265q0 289 296 413q75 31 157 45l18 244h60l29 -381q-134 -21 -176 -42q-103 -52 -133 -96q-62 -91 -62 -210t77 -177t174 -58t167 34q47 106 67 183l8 30h105
q38 -96 26 -192q-47 -57 -144 -105t-232 -47z" />
    <glyph glyph-name="Agrave" unicode="&#xc0;" horiz-adv-x="1415" 
d="M520 1847h21l254 -280l-52 -54l-327 216zM676 1155h-8l-226 -604h453zM1415 0h-526v59l168 45l-129 355h-520l-134 -355l166 -45v-59h-440v59l147 45l508 1287l107 20l512 -1307l141 -45v-59z" />
    <glyph glyph-name="Aacute" unicode="&#xc1;" horiz-adv-x="1415" 
d="M885 1847h20l105 -118l-328 -216l-51 54zM676 1155h-8l-226 -604h453zM1415 0h-526v59l168 45l-129 355h-520l-134 -355l166 -45v-59h-440v59l147 45l508 1287l107 20l512 -1307l141 -45v-59z" />
    <glyph glyph-name="Acircumflex" unicode="&#xc2;" horiz-adv-x="1415" 
d="M657 1831h99l239 -264l-47 -47l-241 157l-242 -157l-47 47zM676 1155h-8l-226 -604h453zM1415 0h-526v59l168 45l-129 355h-520l-134 -355l166 -45v-59h-440v59l147 45l508 1287l107 20l512 -1307l141 -45v-59z" />
    <glyph glyph-name="Atilde" unicode="&#xc3;" horiz-adv-x="1415" 
d="M868 1589q-70 0 -167 44t-160 44q-59 -29 -117 -127l-64 25q30 81 90 151t134 70t168 -41t143 -41q57 23 98 113l60 -23q-23 -84 -69 -150t-116 -65zM676 1155h-8l-226 -604h453zM1415 0h-526v59l168 45l-129 355h-520l-134 -355l166 -45v-59h-440v59l147 45l508 1287
l107 20l512 -1307l141 -45v-59z" />
    <glyph glyph-name="Adieresis" unicode="&#xc4;" horiz-adv-x="1415" 
d="M855 1587q-40 0 -69 29q-28 28 -28 68t28 69q29 29 69 29t70 -30q29 -30 29 -69t-30 -67t-69 -29zM560 1587q-40 0 -70 29q-30 30 -30 68t30 68t69 30t69 -29t30 -69t-30 -68q-28 -28 -68 -29zM676 1155h-8l-226 -604h453zM1415 0h-526v59l168 45l-129 355h-520
l-134 -355l166 -45v-59h-440v59l147 45l508 1287l107 20l512 -1307l141 -45v-59z" />
    <glyph glyph-name="Aring" unicode="&#xc5;" horiz-adv-x="1415" 
d="M715 1571q80 1 80 109t-93 108q-82 0 -82 -108t95 -109zM711 1847q86 0 138 -43t52 -123t-54 -126t-141 -46t-140 44q-52 44 -52 123t55 125q56 46 142 46zM676 1155h-8l-226 -604h453zM1415 0h-526v59l168 45l-129 355h-520l-134 -355l166 -45v-59h-440v59l147 45
l508 1287l107 20l512 -1307l141 -45v-59z" />
    <glyph glyph-name="AE" unicode="&#xc6;" horiz-adv-x="1986" 
d="M938 1286h-8l-408 -735h416v735zM1827 1391v-105q0 -93 16 -205l4 -41l-69 -14q-68 102 -115 260h-533v-528l451 6l41 117h72v-344h-68l-45 116l-451 4v-553h580q40 141 96 240l19 35l69 -14q-20 -168 -20 -261v-104h-1100v59l164 45v355h-467l-197 -355l166 -45v-59
h-440v59l133 45l727 1287h967z" />
    <glyph glyph-name="Ccedilla" unicode="&#xc7;" horiz-adv-x="1280" 
d="M598 -297q94 0 94 68t-141 98v8l67 113q-231 37 -373 216t-143 470q0 342 193 538t483 197q100 1 220 -23t147 -26v-111q0 -64 20 -174l6 -30l-77 -23q-78 72 -136 236q-102 53 -223 53q-190 0 -307 -164q-117 -165 -117 -443t128 -426t327 -149q106 0 189 36t124 78
t90 113l50 -28q-36 -119 -145 -228q-56 -55 -144 -89t-193 -33q-25 0 -37 2l-38 -66q156 -31 155 -139q0 -63 -57 -101q-56 -38 -150 -38t-161 53l22 43q61 -31 127 -31z" />
    <glyph glyph-name="Egrave" unicode="&#xc8;" horiz-adv-x="1314" 
d="M510 1847h20l254 -280l-51 -54l-327 216zM102 1391h1053v-105q0 -93 16 -205l5 -41l-70 -14q-68 102 -115 260h-532v-528l450 6l41 117h72v-344h-68l-45 116l-450 4v-553h579q42 148 97 240l18 35l70 -14q-20 -168 -21 -261v-104h-1100v59l164 45v1182l-164 45v60z" />
    <glyph glyph-name="Eacute" unicode="&#xc9;" horiz-adv-x="1314" 
d="M854 1847h20l105 -118l-328 -216l-51 54zM102 1391h1053v-105q0 -93 16 -205l5 -41l-70 -14q-68 102 -115 260h-532v-528l450 6l41 117h72v-344h-68l-45 116l-450 4v-553h579q42 148 97 240l18 35l70 -14q-20 -168 -21 -261v-104h-1100v59l164 45v1182l-164 45v60z" />
    <glyph glyph-name="Ecircumflex" unicode="&#xca;" horiz-adv-x="1314" 
d="M608 1831h99l239 -264l-47 -47l-242 157l-241 -157l-47 47zM102 1391h1053v-105q0 -93 16 -205l5 -41l-70 -14q-68 102 -115 260h-532v-528l450 6l41 117h72v-344h-68l-45 116l-450 4v-553h579q42 148 97 240l18 35l70 -14q-20 -168 -21 -261v-104h-1100v59l164 45v1182
l-164 45v60z" />
    <glyph glyph-name="Edieresis" unicode="&#xcb;" horiz-adv-x="1314" 
d="M903 1683q1 -39 -29 -67t-70 -29q-40 0 -69 29q-29 28 -29 68t30 69t69 29t69 -30t29 -69zM509 1587q-40 0 -70 29q-29 30 -29 68t29 68q30 30 70 30t69 -29q28 -29 28 -69t-28 -68t-69 -29zM102 1391h1053v-105q0 -93 16 -205l5 -41l-70 -14q-68 102 -115 260h-532v-528
l450 6l41 117h72v-344h-68l-45 116l-450 4v-553h579q42 148 97 240l18 35l70 -14q-20 -168 -21 -261v-104h-1100v59l164 45v1182l-164 45v60z" />
    <glyph glyph-name="Igrave" unicode="&#xcc;" horiz-adv-x="724" 
d="M195 1847h20l254 -280l-51 -54l-328 216zM102 1391h521v-60l-164 -45v-1182l164 -45v-59h-521v59l164 45v1182l-164 45v60z" />
    <glyph glyph-name="Iacute" unicode="&#xcd;" horiz-adv-x="724" 
d="M551 1847h20l105 -118l-328 -216l-51 54zM102 1391h521v-60l-164 -45v-1182l164 -45v-59h-521v59l164 45v1182l-164 45v60z" />
    <glyph glyph-name="Icircumflex" unicode="&#xce;" horiz-adv-x="724" 
d="M313 1831h99l239 -264l-47 -47l-242 157l-241 -157l-47 47zM102 1391h521v-60l-164 -45v-1182l164 -45v-59h-521v59l164 45v1182l-164 45v60z" />
    <glyph glyph-name="Idieresis" unicode="&#xcf;" horiz-adv-x="724" 
d="M509 1587q-40 0 -69 29q-28 28 -28 68t29 69q30 29 69 29t69 -30q29 -30 29 -69t-30 -67t-69 -29zM214 1587q-40 0 -70 29q-30 30 -30 68t30 68t70 30t69 -29t29 -69t-30 -68q-28 -28 -68 -29zM102 1391h521v-60l-164 -45v-1182l164 -45v-59h-521v59l164 45v1182l-164 45
v60z" />
    <glyph glyph-name="Eth" unicode="&#xd0;" horiz-adv-x="1499" 
d="M723 1288h-264v-502h311v-102h-311v-578h264q213 0 339 157t126 431t-126 434t-339 160zM88 684v102h178v500l-164 45v60h621q301 1 487 -179t186 -502t-193 -516q-194 -194 -480 -194h-621v59l164 45v580h-178z" />
    <glyph glyph-name="Ntilde" unicode="&#xd1;" horiz-adv-x="1554" 
d="M1128 1774q-22 -84 -68 -150t-116 -66t-167 45q-97 44 -161 44q-59 -29 -116 -127l-64 24q29 80 89 151q61 71 135 71t168 -42q94 -41 143 -41q57 23 98 113zM1022 1391h451v-60l-164 -45v-1286h-103l-817 1157v-1053l164 -45v-59h-451v59l164 45v1182l-164 45v60h369
l715 -1020v915l-164 45v60z" />
    <glyph glyph-name="Ograve" unicode="&#xd2;" horiz-adv-x="1439" 
d="M514 1847h21l253 -280l-51 -54l-327 216zM708 1313q-184 0 -290 -166t-106 -451q0 -286 117 -450q118 -164 303 -164t291 163q105 163 105 447t-117 452q-118 169 -303 169zM102 684q0 332 178 530t446 197q267 0 439 -188q172 -187 172 -519t-178 -528t-445 -196
t-440 186q-172 186 -172 518z" />
    <glyph glyph-name="Oacute" unicode="&#xd3;" horiz-adv-x="1439" 
d="M891 1847h20l105 -118l-328 -216l-51 54zM708 1313q-184 0 -290 -166t-106 -451q0 -286 117 -450q118 -164 303 -164t291 163q105 163 105 447t-117 452q-118 169 -303 169zM102 684q0 332 178 530t446 197q267 0 439 -188q172 -187 172 -519t-178 -528t-445 -196
t-440 186q-172 186 -172 518z" />
    <glyph glyph-name="Ocircumflex" unicode="&#xd4;" horiz-adv-x="1439" 
d="M670 1831h98l240 -264l-47 -47l-242 157l-242 -157l-47 47zM708 1313q-184 0 -290 -166t-106 -451q0 -286 117 -450q118 -164 303 -164t291 163q105 163 105 447t-117 452q-118 169 -303 169zM102 684q0 332 178 530t446 197q267 0 439 -188q172 -187 172 -519t-178 -528
t-445 -196t-440 186q-172 186 -172 518z" />
    <glyph glyph-name="Otilde" unicode="&#xd5;" horiz-adv-x="1439" 
d="M880 1589q-70 0 -166 44q-97 44 -161 44q-59 -29 -117 -127l-63 25q29 81 89 151t134 70t168 -41t143 -41q57 23 99 113l59 -23q-23 -84 -69 -150t-116 -65zM708 1313q-184 0 -290 -166t-106 -451q0 -286 117 -450q118 -164 303 -164t291 163q105 163 105 447t-117 452
q-118 169 -303 169zM102 684q0 332 178 530t446 197q267 0 439 -188q172 -187 172 -519t-178 -528t-445 -196t-440 186q-172 186 -172 518z" />
    <glyph glyph-name="Odieresis" unicode="&#xd6;" horiz-adv-x="1439" 
d="M967 1683q0 -39 -30 -67t-70 -29q-41 0 -69 29q-28 28 -28 68t29 69t69 29t69 -30q30 -30 30 -69zM670 1684q0 -40 -29 -68t-69 -29q-40 0 -70 29q-30 30 -29 68q0 38 30 68q31 30 69 30t68 -29t30 -69zM708 1313q-184 0 -290 -166t-106 -451q0 -286 117 -450
q118 -164 303 -164t291 163q105 163 105 447t-117 452q-118 169 -303 169zM102 684q0 332 178 530t446 197q267 0 439 -188q172 -187 172 -519t-178 -528t-445 -196t-440 186q-172 186 -172 518z" />
    <glyph glyph-name="multiply" unicode="&#xd7;" horiz-adv-x="868" 
d="M188 274l-86 86l246 246l-246 246l86 86l246 -246l246 246l86 -86l-246 -246l246 -246l-86 -86l-246 246z" />
    <glyph glyph-name="Oslash" unicode="&#xd8;" horiz-adv-x="1439" 
d="M695 1313q-171 0 -277 -166q-106 -165 -106 -429t87 -423l582 885q-114 133 -286 133zM742 82q174 0 280 162t106 428q0 264 -94 430l-581 -887q115 -133 289 -133zM725 1411q193 0 340 -100l68 100h104l-102 -158q203 -193 203 -537t-179 -540q-178 -196 -442 -196
q-203 0 -350 104l-68 -104h-106l106 161q-197 191 -197 533t178 540t445 197z" />
    <glyph glyph-name="Ugrave" unicode="&#xd9;" horiz-adv-x="1513" 
d="M569 1847h21l254 -280l-51 -54l-328 216zM1147 391v895l-164 45v60h459v-60l-164 -45v-983q-47 -155 -180 -239t-330 -84q-428 0 -532 294v1012l-164 45v60h520v-60l-164 -45v-905q0 -131 93 -210t252 -79t267 80t107 219z" />
    <glyph glyph-name="Uacute" unicode="&#xda;" horiz-adv-x="1513" 
d="M971 1847h20l105 -118l-328 -216l-51 54zM1147 391v895l-164 45v60h459v-60l-164 -45v-983q-47 -155 -180 -239t-330 -84q-428 0 -532 294v1012l-164 45v60h520v-60l-164 -45v-905q0 -131 93 -210t252 -79t267 80t107 219z" />
    <glyph glyph-name="Ucircumflex" unicode="&#xdb;" horiz-adv-x="1513" 
d="M707 1831h98l239 -264l-47 -47l-241 157l-242 -157l-47 47zM1147 391v895l-164 45v60h459v-60l-164 -45v-983q-47 -155 -180 -239t-330 -84q-428 0 -532 294v1012l-164 45v60h520v-60l-164 -45v-905q0 -131 93 -210t252 -79t267 80t107 219z" />
    <glyph glyph-name="Udieresis" unicode="&#xdc;" horiz-adv-x="1513" 
d="M1004 1683q0 -39 -30 -67t-70 -29q-40 0 -68 29q-28 28 -29 68q0 40 29 69q28 29 68 29t70 -30t30 -69zM707 1684q0 -40 -29 -68t-69 -29q-39 0 -69 29q-30 30 -30 68t30 68t68 30t69 -29q30 -29 30 -69zM1147 391v895l-164 45v60h459v-60l-164 -45v-983
q-47 -155 -180 -239t-330 -84q-428 0 -532 294v1012l-164 45v60h520v-60l-164 -45v-905q0 -131 93 -210t252 -79t267 80t107 219z" />
    <glyph glyph-name="Yacute" unicode="&#xdd;" horiz-adv-x="1374" 
d="M928 1847h20l105 -118l-328 -216l-51 54zM0 1391h512v-60l-158 -45l363 -622h2l391 622l-156 45v60h420v-60l-137 -45l-465 -723v-459l184 -45v-59h-561v59l185 45v449l-449 733l-131 45v60z" />
    <glyph glyph-name="Thorn" unicode="&#xde;" horiz-adv-x="1306" 
d="M582 362h104q164 2 249 86t85 242t-86 242t-246 84h-229v-912l184 -45v-59h-541v59l164 45v1182l-164 45v60h521v-60l-164 -45v-166h219q244 0 396 -105t151 -307q0 -202 -136 -318q-136 -118 -327 -118q-86 0 -180 31v59z" />
    <glyph glyph-name="germandbls" unicode="&#xdf;" horiz-adv-x="1251" 
d="M713 1503q160 0 256 -77t96 -193q0 -66 -43 -127q-43 -62 -93 -104q-136 -116 -136 -222q0 -66 81 -121l179 -122q168 -117 168 -281q-1 -117 -91 -197q-157 -139 -464 -36v75q0 46 -15 129l-6 23l76 24q53 -88 80 -190q59 -18 119 -18t99 42q38 42 38 108t-24 101
t-91 82l-139 95q-170 115 -170 251q0 66 41 131q41 64 89 106t89 100t41 132q-1 74 -63 134t-162 59q-242 0 -242 -381v-922l109 -45v-59h-439v59l148 45v818h-168v84l164 18v23q0 182 135 319t338 137z" />
    <glyph glyph-name="agrave" unicode="&#xe0;" horiz-adv-x="1073" 
d="M311 1491h21l254 -281l-51 -53l-328 215zM449 115q139 0 235 96q0 53 1 161t1 163q-276 -63 -410 -175v-86q0 -80 48 -120t125 -39zM928 109q53 0 116 53l29 -49q-94 -129 -213 -129q-158 0 -174 145q-141 -150 -297 -149q-123 0 -205 61t-82 197v127q101 122 294 183
q133 42 292 75v84q0 256 -209 256q-82 0 -155 -43q-27 -64 -33 -168l-2 -35h-115q-49 72 -61 182q59 63 167 109t250 47q144 0 239 -81t95 -259l-6 -516q0 -90 70 -90z" />
    <glyph glyph-name="aacute" unicode="&#xe1;" horiz-adv-x="1073" 
d="M670 1491h20l105 -119l-328 -215l-51 53zM449 115q139 0 235 96q0 53 1 161t1 163q-276 -63 -410 -175v-86q0 -80 48 -120t125 -39zM928 109q53 0 116 53l29 -49q-94 -129 -213 -129q-158 0 -174 145q-141 -150 -297 -149q-123 0 -205 61t-82 197v127q101 122 294 183
q133 42 292 75v84q0 256 -209 256q-82 0 -155 -43q-27 -64 -33 -168l-2 -35h-115q-49 72 -61 182q59 63 167 109t250 47q144 0 239 -81t95 -259l-6 -516q0 -90 70 -90z" />
    <glyph glyph-name="acircumflex" unicode="&#xe2;" horiz-adv-x="1073" 
d="M463 1475h98l240 -265l-47 -47l-242 158l-242 -158l-47 47zM449 115q139 0 235 96q0 53 1 161t1 163q-276 -63 -410 -175v-86q0 -80 48 -120t125 -39zM928 109q53 0 116 53l29 -49q-94 -129 -213 -129q-158 0 -174 145q-141 -150 -297 -149q-123 0 -205 61t-82 197v127
q101 122 294 183q133 42 292 75v84q0 256 -209 256q-82 0 -155 -43q-27 -64 -33 -168l-2 -35h-115q-49 72 -61 182q59 63 167 109t250 47q144 0 239 -81t95 -259l-6 -516q0 -90 70 -90z" />
    <glyph glyph-name="atilde" unicode="&#xe3;" horiz-adv-x="1073" 
d="M389 1440q74 0 168 -41t143 -41q57 23 99 112l59 -22q-22 -84 -68 -150t-116 -66t-167 45q-97 44 -161 44q-59 -29 -117 -127l-63 25q29 81 89 151t134 70zM449 115q139 0 235 96q0 53 1 161t1 163q-276 -63 -410 -175v-86q0 -80 48 -120t125 -39zM928 109q53 0 116 53
l29 -49q-94 -129 -213 -129q-158 0 -174 145q-141 -150 -297 -149q-123 0 -205 61t-82 197v127q101 122 294 183q133 42 292 75v84q0 256 -209 256q-82 0 -155 -43q-27 -64 -33 -168l-2 -35h-115q-49 72 -61 182q59 63 167 109t250 47q144 0 239 -81t95 -259l-6 -516
q0 -90 70 -90z" />
    <glyph glyph-name="adieresis" unicode="&#xe4;" horiz-adv-x="1073" 
d="M760 1327q0 -39 -30 -67t-69 -29q-40 0 -69 29q-29 28 -29 68t30 69t69 29q38 0 68 -30t30 -69zM463 1328q-1 -40 -29 -68t-68 -29q-40 0 -70 29q-30 30 -30 68t30 68t70 30t68 -30q28 -28 29 -68zM449 115q139 0 235 96q0 53 1 161t1 163q-276 -63 -410 -175v-86
q0 -80 48 -120t125 -39zM928 109q53 0 116 53l29 -49q-94 -129 -213 -129q-158 0 -174 145q-141 -150 -297 -149q-123 0 -205 61t-82 197v127q101 122 294 183q133 42 292 75v84q0 256 -209 256q-82 0 -155 -43q-27 -64 -33 -168l-2 -35h-115q-49 72 -61 182q59 63 167 109
t250 47q144 0 239 -81t95 -259l-6 -516q0 -90 70 -90z" />
    <glyph glyph-name="aring" unicode="&#xe5;" horiz-adv-x="1073" 
d="M520 1214q80 0 80 109t-92 109q-82 0 -82 -109t94 -109zM516 1491q86 0 138 -43t52 -123t-54 -126t-141 -46t-139 44t-52 123t54 125q56 46 142 46zM449 115q139 0 235 96q0 53 1 161t1 163q-276 -63 -410 -175v-86q0 -80 48 -120t125 -39zM928 109q53 0 116 53l29 -49
q-94 -129 -213 -129q-158 0 -174 145q-141 -150 -297 -149q-123 0 -205 61t-82 197v127q101 122 294 183q133 42 292 75v84q0 256 -209 256q-82 0 -155 -43q-27 -64 -33 -168l-2 -35h-115q-49 72 -61 182q59 63 167 109t250 47q144 0 239 -81t95 -259l-6 -516q0 -90 70 -90z
" />
    <glyph glyph-name="ae" unicode="&#xe6;" horiz-adv-x="1599" 
d="M1112 965q-104 -1 -174 -91t-84 -268l483 17v24q0 145 -60 232q-61 86 -165 86zM438 115q168 0 299 90q-63 131 -63 319v11q-270 -61 -408 -175v-86q0 -80 47 -120t125 -39zM1129 -20q-239 0 -357 167q-186 -168 -393 -167q-123 0 -205 61t-82 197v127q141 172 584 258
l2 84q6 256 -209 256q-82 0 -156 -43q-26 -61 -32 -168l-2 -35h-115q-49 72 -62 182q59 63 167 109t239 47q221 0 295 -168q123 168 315 168t292 -122t101 -325v-92l-659 2v-2q0 -203 83 -300t218 -97q97 1 169 35t144 100l39 -43q-137 -231 -376 -231z" />
    <glyph glyph-name="ccedilla" unicode="&#xe7;" horiz-adv-x="1001" 
d="M580 958q-152 0 -231 -116t-79 -320q0 -205 91 -301t231 -96t309 129l39 -43q-51 -100 -146 -166t-233 -65h-16l-39 -64q156 -31 156 -139q0 -63 -58 -101t-150 -38q-93 0 -161 53l22 43q61 -31 127 -31q94 0 95 68q0 68 -142 98v8l68 111q-178 29 -277 160
q-98 132 -98 369t150 387t356 151q102 0 189 -34t137 -87q-4 -112 -43 -184l-13 -23h-123q2 104 -20 186q-59 45 -141 45z" />
    <glyph glyph-name="egrave" unicode="&#xe8;" horiz-adv-x="1013" 
d="M342 1491h20l254 -281l-51 -53l-327 215zM526 965q-104 -1 -174 -91t-84 -268l484 17v24q0 145 -61 231t-165 87zM543 -20q-213 0 -334 139t-121 390t128 398t318 147t291 -121q100 -122 101 -325v-92l-660 2v-2q0 -203 83 -300t218 -97q98 1 170 35t144 100l39 -43
q-137 -231 -377 -231z" />
    <glyph glyph-name="eacute" unicode="&#xe9;" horiz-adv-x="1013" 
d="M696 1491h21l104 -119l-327 -215l-52 53zM526 965q-104 -1 -174 -91t-84 -268l484 17v24q0 145 -61 231t-165 87zM543 -20q-213 0 -334 139t-121 390t128 398t318 147t291 -121q100 -122 101 -325v-92l-660 2v-2q0 -203 83 -300t218 -97q98 1 170 35t144 100l39 -43
q-137 -231 -377 -231z" />
    <glyph glyph-name="ecircumflex" unicode="&#xea;" horiz-adv-x="1013" 
d="M457 1475h98l240 -265l-47 -47l-242 158l-242 -158l-47 47zM526 965q-104 -1 -174 -91t-84 -268l484 17v24q0 145 -61 231t-165 87zM543 -20q-213 0 -334 139t-121 390t128 398t318 147t291 -121q100 -122 101 -325v-92l-660 2v-2q0 -203 83 -300t218 -97q98 1 170 35
t144 100l39 -43q-137 -231 -377 -231z" />
    <glyph glyph-name="edieresis" unicode="&#xeb;" horiz-adv-x="1013" 
d="M754 1327q0 -39 -30 -67t-70 -29q-40 0 -68 29q-28 28 -29 68q0 40 29 69q28 29 68 29t70 -30t30 -69zM457 1328q0 -40 -29 -68t-69 -29q-39 0 -69 29q-30 30 -30 68t30 68t68 30t69 -30q30 -28 30 -68zM526 965q-104 -1 -174 -91t-84 -268l484 17v24q0 145 -61 231
t-165 87zM543 -20q-213 0 -334 139t-121 390t128 398t318 147t291 -121q100 -122 101 -325v-92l-660 2v-2q0 -203 83 -300t218 -97q98 1 170 35t144 100l39 -43q-137 -231 -377 -231z" />
    <glyph glyph-name="igrave" unicode="&#xec;" horiz-adv-x="620" 
d="M123 1491h20l254 -281l-51 -53l-328 215zM406 1055v-951l147 -45v-59h-475v59l147 45v781l-149 24v62l286 84h44z" />
    <glyph glyph-name="iacute" unicode="&#xed;" horiz-adv-x="620" 
d="M453 1491h20l105 -119l-328 -215l-51 53zM406 1055v-951l147 -45v-59h-475v59l147 45v781l-149 24v62l286 84h44z" />
    <glyph glyph-name="icircumflex" unicode="&#xee;" horiz-adv-x="620" 
d="M260 1475h98l240 -265l-47 -47l-242 158l-241 -158l-48 47zM406 1055v-951l147 -45v-59h-475v59l147 45v781l-149 24v62l286 84h44z" />
    <glyph glyph-name="idieresis" unicode="&#xef;" horiz-adv-x="620" 
d="M555 1327q1 -39 -29 -67t-70 -29q-40 0 -69 29q-29 28 -29 68t30 69t69 29t69 -30t29 -69zM258 1328q0 -40 -28 -68t-69 -29q-40 0 -70 29q-30 30 -30 68t30 68t70 30q41 0 69 -30q28 -28 28 -68zM406 1055v-951l147 -45v-59h-475v59l147 45v781l-149 24v62l286 84h44z
" />
    <glyph glyph-name="eth" unicode="&#xf0;" horiz-adv-x="1128" 
d="M586 74q258 0 258 442q0 211 -83 329t-216 118q-260 0 -260 -447q0 -210 83 -326t218 -116zM1040 522q0 -248 -136 -395t-344 -147t-340 141t-132 390t136 396t343 148q135 0 234 -82q-51 139 -144 244l-163 -72l-37 78l137 61q-84 76 -199 146l64 73q141 -61 256 -164
l174 78l39 -80l-148 -65q260 -289 260 -750z" />
    <glyph glyph-name="ntilde" unicode="&#xf1;" horiz-adv-x="1245" 
d="M500 1440q74 0 168 -41t143 -41q57 23 98 112l60 -22q-23 -84 -69 -150t-116 -66t-167 45q-97 44 -160 44q-59 -29 -117 -127l-64 25q30 81 90 151t134 70zM397 1055v-156h9q59 68 147 112t182 44q131 0 218 -86t87 -260v-605l148 -45v-59h-465v59l139 45v594
q0 217 -198 217q-139 0 -258 -102v-709l137 -45v-59h-465v59l147 45v781l-149 24v62l278 84h43z" />
    <glyph glyph-name="ograve" unicode="&#xf2;" horiz-adv-x="1128" 
d="M377 1491h20l254 -281l-51 -53l-328 215zM586 74q258 0 258 442q0 211 -83 329t-216 118q-260 0 -260 -447q0 -210 83 -326t218 -116zM88 511q0 249 136 397t344 147q208 1 340 -141t132 -391t-136 -396t-344 -147t-340 141t-132 390z" />
    <glyph glyph-name="oacute" unicode="&#xf3;" horiz-adv-x="1128" 
d="M725 1491h20l105 -119l-328 -215l-51 53zM586 74q258 0 258 442q0 211 -83 329t-216 118q-260 0 -260 -447q0 -210 83 -326t218 -116zM88 511q0 249 136 397t344 147q208 1 340 -141t132 -391t-136 -396t-344 -147t-340 141t-132 390z" />
    <glyph glyph-name="ocircumflex" unicode="&#xf4;" horiz-adv-x="1128" 
d="M514 1475h98l240 -265l-47 -47l-242 158l-241 -158l-48 47zM586 74q258 0 258 442q0 211 -83 329t-216 118q-260 0 -260 -447q0 -210 83 -326t218 -116zM88 511q0 249 136 397t344 147q208 1 340 -141t132 -391t-136 -396t-344 -147t-340 141t-132 390z" />
    <glyph glyph-name="otilde" unicode="&#xf5;" horiz-adv-x="1128" 
d="M440 1440q74 0 168 -41t144 -41q57 23 98 112l59 -22q-23 -84 -69 -150t-115 -66q-70 0 -167 45q-97 44 -161 44q-59 -29 -116 -127l-64 25q29 81 89 151t134 70zM586 74q258 0 258 442q0 211 -83 329t-216 118q-260 0 -260 -447q0 -210 83 -326t218 -116zM88 511
q0 249 136 397t344 147q208 1 340 -141t132 -391t-136 -396t-344 -147t-340 141t-132 390z" />
    <glyph glyph-name="odieresis" unicode="&#xf6;" horiz-adv-x="1128" 
d="M811 1327q1 -39 -29 -67t-70 -29q-40 0 -69 29q-29 28 -29 68t29 69t69 29t70 -30t29 -69zM514 1328q0 -40 -28 -68t-69 -29q-40 0 -70 29q-30 30 -30 68t30 68t69 30q38 0 68 -30q30 -28 30 -68zM586 74q258 0 258 442q0 211 -83 329t-216 118q-260 0 -260 -447
q0 -210 83 -326t218 -116zM88 511q0 249 136 397t344 147q208 1 340 -141t132 -391t-136 -396t-344 -147t-340 141t-132 390z" />
    <glyph glyph-name="divide" unicode="&#xf7;" horiz-adv-x="1019" 
d="M401 266q0 45 33 78t78 33t78 -33t33 -78t-33 -77q-33 -31 -78 -31t-78 32t-33 76zM102 545v123h816v-123h-816zM401 944q0 45 33 78t78 33t78 -33t33 -78t-33 -77q-33 -31 -78 -31t-78 32t-33 76z" />
    <glyph glyph-name="oslash" unicode="&#xf8;" horiz-adv-x="1128" 
d="M586 74q258 0 258 442q0 156 -49 266l-418 -606q80 -102 209 -102zM285 516q0 -158 47 -262l420 604q-80 104 -207 105q-260 -1 -260 -447zM567 1055q152 0 267 -78l53 78h96l-88 -129q145 -144 145 -398t-136 -401t-341 -147q-154 0 -268 75l-53 -75h-99l88 129
q-143 143 -143 397t136 402t343 147z" />
    <glyph glyph-name="ugrave" unicode="&#xf9;" horiz-adv-x="1214" 
d="M399 1491h21l254 -281l-51 -53l-328 215zM377 1055v-836q49 -100 189 -100t259 102v664l-155 24v62l278 84h58v-951l147 -45v-59h-291l-20 143h-11q-141 -164 -331 -163q-219 0 -301 204v701l-142 24v62l279 84h41z" />
    <glyph glyph-name="uacute" unicode="&#xfa;" horiz-adv-x="1214" 
d="M743 1491h21l104 -119l-327 -215l-52 53zM377 1055v-836q49 -100 189 -100t259 102v664l-155 24v62l278 84h58v-951l147 -45v-59h-291l-20 143h-11q-141 -164 -331 -163q-219 0 -301 204v701l-142 24v62l279 84h41z" />
    <glyph glyph-name="ucircumflex" unicode="&#xfb;" horiz-adv-x="1214" 
d="M557 1475h98l240 -265l-47 -47l-242 158l-241 -158l-48 47zM377 1055v-836q49 -100 189 -100t259 102v664l-155 24v62l278 84h58v-951l147 -45v-59h-291l-20 143h-11q-141 -164 -331 -163q-219 0 -301 204v701l-142 24v62l279 84h41z" />
    <glyph glyph-name="udieresis" unicode="&#xfc;" horiz-adv-x="1214" 
d="M732 1231q-40 0 -68 29q-28 28 -29 68q0 40 29 69q28 29 68 29t70 -30t30 -69t-30 -67t-70 -29zM535 1328q0 -40 -29 -68t-69 -29q-39 0 -69 29q-30 30 -30 68t30 68t68 30t69 -30q30 -28 30 -68zM377 1055v-836q49 -100 189 -100t259 102v664l-155 24v62l278 84h58v-951
l147 -45v-59h-291l-20 143h-11q-141 -164 -331 -163q-219 0 -301 204v701l-142 24v62l279 84h41z" />
    <glyph glyph-name="yacute" unicode="&#xfd;" horiz-adv-x="1075" 
d="M807 1491h20l105 -119l-328 -215l-51 53zM-10 1034h452v-59l-139 -45l289 -715h4l260 715l-129 45v59h369v-59l-123 -45l-334 -912q-82 -229 -172 -305t-250 -75q-70 0 -104 18q-14 107 14 186l12 29h103q7 -82 30 -123q150 0 240 246l-408 936l-114 45v59z" />
    <glyph glyph-name="thorn" unicode="&#xfe;" horiz-adv-x="1193" 
d="M624 915q-133 0 -241 -102v-625q98 -115 238 -114q293 0 292 454q0 213 -77 300q-79 87 -212 87zM383 1503v-602q45 59 126 107t179 47q205 0 311 -134q107 -134 107 -381t-131 -404t-336 -156q-145 0 -256 49v-267l172 -45v-59h-498v59l148 45v1592l-150 24v62l287 63
h41z" />
    <glyph glyph-name="ydieresis" unicode="&#xff;" horiz-adv-x="1075" 
d="M683 1231q-40 0 -69 29q-28 28 -28 68t28 69q29 29 69 29t70 -30q29 -30 29 -69t-30 -67t-69 -29zM388 1231q-40 0 -70 29q-30 30 -30 68t30 68t69 30t69 -30q30 -28 30 -68t-30 -68q-28 -28 -68 -29zM-10 1034h452v-59l-139 -45l289 -715h4l260 715l-129 45v59h369v-59
l-123 -45l-334 -912q-82 -229 -172 -305t-250 -75q-70 0 -104 18q-14 107 14 186l12 29h103q7 -82 30 -123q150 0 240 246l-408 936l-114 45v59z" />
    <glyph glyph-name="dotlessi" unicode="&#x131;" horiz-adv-x="620" 
d="M406 1055v-951l147 -45v-59h-475v59l147 45v781l-149 24v62l286 84h44z" />
    <glyph glyph-name="Lslash" unicode="&#x141;" horiz-adv-x="1210" 
d="M102 1391h521v-60l-164 -45v-385l203 154v-133l-203 -154v-664h516q40 141 96 240l19 35l69 -14q-20 -168 -20 -261v-104h-1037v59l164 45v519l-190 -144v133l190 144v530l-164 45v60z" />
    <glyph glyph-name="lslash" unicode="&#x142;" horiz-adv-x="606" 
d="M391 1503v-598l197 150v-133l-197 -150v-668l148 -45v-59h-476v59l148 45v533l-209 -158v133l209 158v584l-150 24v62l287 63h43z" />
    <glyph glyph-name="OE" unicode="&#x152;" horiz-adv-x="1929" 
d="M735 82q80 0 146 31v1155q-84 45 -174 45q-183 0 -289 -166t-106 -451q0 -286 117 -450q118 -164 306 -164zM717 -20q-270 0 -443 186q-172 186 -172 518t178 530t445 197q92 0 168 -20h876v-105q0 -86 17 -205l4 -41l-70 -14q-68 102 -114 260h-533v-528l451 6l41 117
h71v-344h-67l-45 116l-451 4v-553h580q40 141 96 240l18 35l70 -14q-20 -168 -20 -261v-104h-936q-88 -20 -164 -20z" />
    <glyph glyph-name="oe" unicode="&#x153;" horiz-adv-x="1767" 
d="M1280 965q-104 -1 -174 -91t-84 -268l483 17v24q0 145 -60 232q-61 86 -165 86zM586 74q258 0 258 442q0 211 -83 329t-216 118q-260 0 -260 -447q0 -210 83 -326t218 -116zM1289 -20q-247 0 -357 206q-127 -207 -369 -206q-211 0 -343 141t-132 390t136 396t343 148
q252 0 375 -209q56 98 148 153t198 56q190 0 290 -122t101 -325v-92l-659 2v-2q0 -203 83 -300t218 -97q97 1 169 35t144 100l39 -43q-137 -231 -384 -231z" />
    <glyph glyph-name="Scaron" unicode="&#x160;" horiz-adv-x="1179" 
d="M629 1520h-99l-239 264l47 47l242 -158l241 158l47 -47zM109 193q0 50 -21 186l-6 39l78 22q33 -33 80 -120t63 -164q119 -74 259 -74t226 75q84 75 84 201q0 178 -221 260l-245 91q-123 45 -193 131t-70 206t69 205q128 160 404 160q115 0 238 -32t147 -33v-95
q0 -58 21 -174l6 -30l-78 -23q-78 78 -129 233q-90 57 -218 57t-203 -62t-74 -156q0 -154 198 -226l236 -86q307 -111 307 -385q0 -172 -131 -296q-132 -123 -366 -123t-461 106v107z" />
    <glyph glyph-name="scaron" unicode="&#x161;" horiz-adv-x="952" 
d="M516 1163h-98l-240 264l47 48l242 -158l242 158l47 -48zM111 139q0 65 -17 127l-4 25l92 24q53 -88 80 -190q111 -55 212 -55t157 51q55 51 55 145q0 119 -143 164l-201 66q-98 31 -152 102q-53 72 -53 164q0 150 109 222t252 71q92 0 188 -24t119 -23v-76q0 -45 14 -115
l6 -20l-75 -33q-63 68 -95 162q-82 41 -171 41t-139 -43t-50 -115q0 -115 139 -160l191 -61q123 -39 178 -115t55 -164q0 -157 -105 -243t-285 -86t-357 79v80z" />
    <glyph glyph-name="Ydieresis" unicode="&#x178;" horiz-adv-x="1374" 
d="M934 1683q0 -39 -30 -67t-69 -29q-40 0 -69 29q-29 28 -29 68t29 69t69 29q39 0 69 -30t30 -69zM539 1782q39 0 69 -29t29 -69t-29 -68t-68 -29q-40 0 -70 29q-30 30 -30 68t30 68t69 30zM0 1391h512v-60l-158 -45l363 -622h2l391 622l-156 45v60h420v-60l-137 -45
l-465 -723v-459l184 -45v-59h-561v59l185 45v449l-449 733l-131 45v60z" />
    <glyph glyph-name="Zcaron" unicode="&#x17d;" horiz-adv-x="1251" 
d="M674 1520h-99l-239 264l47 47l242 -158l241 158l47 -47zM1106 1391v-99l-797 -1188h666q34 127 94 248l21 39l79 -16q-20 -143 -20 -271v-104h-1067v98l799 1188h-559q-8 -59 -38 -132t-55 -116l-24 -43l-78 17q20 160 20 274v105h959z" />
    <glyph glyph-name="zcaron" unicode="&#x17e;" horiz-adv-x="1058" 
d="M578 1163h-99l-239 264l47 48l241 -158l242 158l47 -48zM936 1034v-88l-649 -852h526q35 110 105 217l20 33l59 -16q-20 -141 -20 -234v-94h-905v88l639 852h-406q-10 -45 -42 -97t-58 -81l-25 -31l-59 19q20 119 20 190v94h795z" />
    <glyph glyph-name="florin" unicode="&#x192;" horiz-adv-x="1015" 
d="M799 1243q-72 0 -121 -49q-50 -48 -68 -106t-32 -142l-33 -203h237v-96h-254l-98 -616q-31 -189 -121 -291t-227 -102q-53 0 -99 13t-65 25l-20 13q2 57 21 108t38 72l18 22l117 -18q-43 -63 -51 -147q12 -2 45 -2t65 24q66 50 103 272l100 627h-180v96h197l30 193
q31 186 140 290t246 103q137 0 206 -39l23 -12q-2 -56 -22 -110t-38 -78l-18 -25l-117 18q43 61 49 146q-35 14 -71 14z" />
    <glyph glyph-name="circumflex" unicode="&#x2c6;" horiz-adv-x="772" 
d="M336 1475h98l240 -265l-47 -47l-242 158l-242 -158l-47 47z" />
    <glyph glyph-name="caron" unicode="&#x2c7;" horiz-adv-x="772" 
d="M434 1163h-98l-240 264l47 48l242 -158l242 158l47 -48z" />
    <glyph glyph-name="breve" unicode="&#x2d8;" horiz-adv-x="675" 
d="M340 1315q63 0 104 41t58 100l86 -31q-18 -92 -82 -154q-64 -63 -168 -63t-168 62t-82 155l90 31q16 -59 58 -100t104 -41z" />
    <glyph glyph-name="dotaccent" unicode="&#x2d9;" horiz-adv-x="462" 
d="M113 1338q0 48 35 83q36 35 83 35t83 -35t36 -83t-36 -83t-83 -35t-83 35q-35 35 -35 83z" />
    <glyph glyph-name="ring" unicode="&#x2da;" horiz-adv-x="593" 
d="M303 1214q80 0 80 109t-92 109q-82 0 -82 -109t94 -109zM299 1491q86 0 138 -43t52 -123t-54 -126t-141 -46t-139 44q-53 44 -53 123t56 125t141 46z" />
    <glyph glyph-name="ogonek" unicode="&#x2db;" horiz-adv-x="593" 
d="M231 -160q0 -109 121 -108q54 -1 103 22l28 -78q-65 -38 -159 -38t-157 43t-63 136t98 165t220 106l65 -39q-109 -33 -183 -88t-73 -121z" />
    <glyph glyph-name="tilde" unicode="&#x2dc;" horiz-adv-x="1024" 
d="M389 1440q74 0 168 -41t143 -41q57 23 99 112l59 -22q-22 -84 -68 -150t-116 -66t-167 45q-97 44 -161 44q-59 -29 -117 -127l-63 25q29 81 89 151t134 70z" />
    <glyph glyph-name="hungarumlaut" unicode="&#x2dd;" horiz-adv-x="792" 
d="M322 1210l319 201l94 -106v-27l-364 -117zM311 1491h21l102 -115l-328 -215l-49 49z" />
    <glyph glyph-name="pi" unicode="&#x3c0;" horiz-adv-x="1216" 
d="M70 952h1075l-502 -889z" />
    <glyph glyph-name="endash" unicode="&#x2013;" horiz-adv-x="1050" 
d="M119 500v118h813v-118h-813z" />
    <glyph glyph-name="emdash" unicode="&#x2014;" horiz-adv-x="1662" 
d="M119 500v118h1425v-118h-1425z" />
    <glyph glyph-name="quoteleft" unicode="&#x2018;" horiz-adv-x="466" 
d="M354 1094q0 -49 -34 -77t-88 -28q-56 0 -87 41t-26 90q6 100 92 177t217 112l18 -41q-137 -90 -172 -164q80 -28 80 -110z" />
    <glyph glyph-name="quoteright" unicode="&#x2019;" horiz-adv-x="466" 
d="M113 1307q-1 49 33 77t89 27q55 0 87 -41t26 -90q-6 -100 -92 -177t-217 -112l-19 41q137 90 173 164q-80 29 -80 111z" />
    <glyph glyph-name="quotesinglbase" unicode="&#x201a;" horiz-adv-x="462" 
d="M113 109q-1 49 33 77t89 27q55 0 87 -41t26 -90q-6 -100 -92 -177t-217 -112l-19 41q137 90 173 164q-80 29 -80 111z" />
    <glyph glyph-name="quotedblleft" unicode="&#x201c;" horiz-adv-x="847" 
d="M735 1094q0 -49 -34 -77t-89 -28t-86 41t-26 90q6 100 92 177t217 112l18 -41q-137 -90 -172 -164q80 -28 80 -110zM354 1094q0 -49 -34 -77t-88 -28q-56 0 -87 41t-26 90q6 100 92 177t217 112l18 -41q-137 -90 -172 -164q80 -28 80 -110z" />
    <glyph glyph-name="quotedblright" unicode="&#x201d;" horiz-adv-x="845" 
d="M492 1307q0 49 34 77t88 27q55 0 86 -41t27 -90q-6 -100 -92 -177t-217 -112l-19 41q137 90 172 164q-79 29 -79 111zM113 1307q-1 49 33 77t89 27q55 0 87 -41t26 -90q-6 -100 -92 -177t-217 -112l-19 41q137 90 173 164q-80 29 -80 111z" />
    <glyph glyph-name="quotedblbase" unicode="&#x201e;" horiz-adv-x="841" 
d="M492 109q0 49 34 77t88 27q55 0 86 -41t27 -90q-6 -100 -92 -177t-217 -112l-19 41q137 90 172 164q-79 29 -79 111zM113 109q-1 49 33 77t89 27q55 0 87 -41t26 -90q-6 -100 -92 -177t-217 -112l-19 41q137 90 173 164q-80 29 -80 111z" />
    <glyph glyph-name="dagger" unicode="&#x2020;" horiz-adv-x="1060" 
d="M612 1391l-18 -357l364 19v-123l-364 16l18 -252l-20 -694h-123l-20 694l16 252l-363 -16v123l365 -19l-18 357h163z" />
    <glyph glyph-name="daggerdbl" unicode="&#x2021;" horiz-adv-x="1060" 
d="M102 930v123l365 -19l-18 357h163l-18 -357l364 19v-123l-364 16l18 -250l-18 -254l364 19v-123l-364 16l18 -354h-163l18 354l-365 -16v123l363 -19l-16 254l16 250z" />
    <glyph glyph-name="bullet" unicode="&#x2022;" horiz-adv-x="765" 
d="M205 543q0 72 53 124t125 52t125 -52t53 -124t-53 -124t-125 -52t-125 52t-53 124z" />
    <glyph glyph-name="ellipsis" unicode="&#x2026;" horiz-adv-x="1388" 
d="M1038 97q0 48 36 83t83 35t83 -35t36 -83t-36 -83q-36 -34 -83 -34t-83 34t-36 83zM575 97q0 48 36 83t83 35t83 -35t36 -83t-36 -83q-36 -34 -83 -34t-83 34t-36 83zM113 97q0 48 35 83q36 35 83 35t83 -35t36 -83t-36 -83q-36 -34 -83 -34t-83 34q-35 35 -35 83z" />
    <glyph glyph-name="perthousand" unicode="&#x2030;" horiz-adv-x="2080" 
d="M1713 -20q-119 0 -187 86t-68 246t70 250q70 91 189 91q118 0 187 -86q68 -86 68 -246q0 -161 -70 -251t-189 -90zM1718 41q117 1 117 277t-120 276t-120 -276t123 -277zM1095 653q119 0 187 -86t68 -246q0 -161 -71 -251t-189 -90t-186 86t-68 246t70 250q71 91 189 91z
M1096 41q116 1 116 277t-120 276t-119 -276q0 -276 123 -277zM498 0h-119l586 1309h116zM368 1329q118 0 186 -86t69 -246q0 -160 -71 -251q-70 -91 -188 -91t-187 86t-69 246t71 251t189 91zM369 717q117 1 117 277t-120 276t-120 -276t123 -277z" />
    <glyph glyph-name="guilsinglleft" unicode="&#x2039;" horiz-adv-x="636" 
d="M102 475v92l295 381h117l-231 -424l231 -430h-117z" />
    <glyph glyph-name="guilsinglright" unicode="&#x203a;" horiz-adv-x="636" 
d="M535 567v-92l-295 -381h-117l231 430l-231 424h117z" />
    <glyph glyph-name="fraction" unicode="&#x2044;" horiz-adv-x="1009" 
d="M98 0h-98l913 1309h97z" />
    <glyph glyph-name="Euro" unicode="&#x20ac;" horiz-adv-x="1374" 
d="M102 721v96h131q47 242 214 377t393 135q98 1 216 -23t142 -26v-111q0 -75 21 -174l6 -30l-88 -25q-70 74 -127 238q-96 53 -224 53t-224 -110t-126 -304h361v-96h-371v-117h371v-96h-359q32 -182 138 -280t261 -97q155 0 237 66t149 161l49 -28q-36 -120 -143 -228
q-54 -55 -140 -89t-190 -33q-225 0 -383 138t-191 390h-123v96h115v31q0 29 4 86h-119z" />
    <glyph glyph-name="trademark" unicode="&#x2122;" horiz-adv-x="1685" 
d="M92 1337v54h600v-54l10 -131l-40 -8q-35 53 -60 129h-141v-571l82 -23v-37h-301v37l84 23v571h-144q-24 -81 -59 -129l-41 8q10 84 10 131zM778 1391h223l193 -482h4l186 482h220v-37l-76 -23v-575l76 -23v-37h-287v37l76 23v448h-4q-12 -47 -25 -78l-154 -397h-77
l-166 391l-27 84h-4v-448l76 -23v-37h-234v37l76 23v575l-76 23v37z" />
    <glyph glyph-name="Omega" unicode="&#x2126;" horiz-adv-x="1882" 
d="M1759 600q0 -307 -175 -464t-458 -156q-57 0 -114 6v2q110 12 230 86t149 190q-158 0 -272 81t-113 255v291q41 59 144 111t232 52q128 0 232 -52t145 -111v-291zM123 600v291q41 59 144 111t233 52t232 -52q103 -52 145 -111v-291q1 -307 -175 -464t-458 -156
q-55 0 -115 6v2q111 12 231 86t148 190q-158 0 -272 81t-113 255z" />
    <glyph glyph-name="partialdiff" unicode="&#x2202;" horiz-adv-x="1216" 
d="M1012 1055v-1075l-889 501z" />
    <glyph glyph-name="Delta" unicode="&#x2206;" horiz-adv-x="2101" 
d="M565 260q-197 0 -319 115t-123 281q0 166 123 283q124 116 320 116t319 -121t123 -299t-58 -308q-105 -232 -377 -314q-119 -36 -221 -36t-157 9v2q111 12 241 86t162 186h-33zM1536 260q-198 0 -320 115t-122 281t123 283q123 116 319 116t320 -121q122 -121 122 -305
q0 -396 -299 -559q-171 -93 -391 -93q-68 0 -123 9v2q111 12 241 86t163 186h-33z" />
    <glyph glyph-name="product" unicode="&#x220f;" horiz-adv-x="1216" 
d="M1145 88h-1075l573 889z" />
    <glyph glyph-name="summation" unicode="&#x2211;" horiz-adv-x="1216" 
d="M205 -20v1075l889 -574z" />
    <glyph glyph-name="minus" unicode="&#x2212;" horiz-adv-x="1019" 
d="M102 545v123h816v-123h-816z" />
    <glyph glyph-name="radical" unicode="&#x221a;" horiz-adv-x="2101" 
d="M1536 772q198 0 320 -115t122 -281t-123 -283q-123 -116 -319 -116t-320 121q-122 121 -122 299q0 179 58 309t158 204q197 146 472 145q43 0 125 -8v-3q-115 -14 -244 -87t-160 -187q10 2 33 2zM565 772q197 0 320 -115t123 -281t-123 -283q-123 -116 -320 -116
t-319 121t-123 299q0 179 58 309q59 130 159 204q199 146 473 145q41 0 123 -8v-3q-168 -20 -303 -132q-78 -65 -101 -142q10 2 33 2z" />
    <glyph glyph-name="infinity" unicode="&#x221e;" horiz-adv-x="1693" 
d="M1245 362q99 0 157 56t58 157t-57 157t-158 56q-61 0 -128 -38t-105 -76q-38 -37 -92 -99q53 -59 93 -98q39 -39 105 -77t127 -38zM449 362q61 0 127 38t105 77q40 39 93 98q-55 61 -93 99q-39 38 -105 76q-66 39 -127 38q-99 0 -157 -56t-58 -156t57 -158
q58 -56 158 -56zM1245 897q158 0 252 -92q94 -93 94 -231t-89 -229t-257 -91q-80 0 -161 40t-127 81t-109 108q-66 -69 -112 -109t-127 -80t-160 -40q-168 0 -258 91q-89 91 -89 229t94 230t253 93q81 0 161 -40q80 -41 126 -81t110 -108q66 68 112 108t126 81q81 40 161 40
z" />
    <glyph glyph-name="integral" unicode="&#x222b;" horiz-adv-x="1882" 
d="M877 434v-291q-41 -59 -145 -111t-232 -52t-232 52t-145 111v291q0 307 175 464t458 157q55 0 114 -6v-2q-112 -12 -232 -87t-149 -190q160 0 274 -81t114 -255zM1382 -20q-130 0 -232 52q-103 52 -144 111v291q0 307 175 464t457 157q55 0 115 -6v-2q-113 -12 -233 -87
t-148 -190q160 0 274 -81t113 -255v-291q-41 -59 -144 -111t-233 -52z" />
    <glyph glyph-name="approxequal" unicode="&#x2248;" horiz-adv-x="1239" 
d="M884 301q-80 0 -226 67t-216 66q-154 0 -258 -137l-82 65q58 96 150 152t196 57t256 -67t193 -68q95 0 158 86l82 -65q-39 -70 -106 -113t-147 -43zM884 672q-80 0 -226 66t-216 67q-154 0 -258 -137l-82 65q58 97 150 153t196 56t256 -68t193 -67q95 0 158 86l82 -66
q-39 -71 -106 -113t-147 -42z" />
    <glyph glyph-name="notequal" unicode="&#x2260;" horiz-adv-x="1019" 
d="M102 729v123h459l72 158h117l-72 -158h240v-123h-295l-109 -244h404v-123h-459l-70 -157h-119l70 157h-238v123h293l111 244h-404z" />
    <glyph glyph-name="lessequal" unicode="&#x2264;" horiz-adv-x="1019" 
d="M102 20v123h816v-123h-816zM918 360v-137l-816 367v76l816 364v-139l-639 -262z" />
    <glyph glyph-name="greaterequal" unicode="&#x2265;" horiz-adv-x="1019" 
d="M918 143v-123h-816v123h816zM102 223v137l639 269l-639 262v139l816 -364v-76z" />
    <glyph glyph-name="lozenge" unicode="&#x25ca;" horiz-adv-x="903" 
d="M92 0v55h739v-55h-739zM92 1335v56h739v-56h-739zM498 688l229 -582h-78l-190 486l-189 -486h-80l232 582l-238 584h82l193 -486l192 486h82z" />
    <glyph glyph-name="apple" unicode="&#xf8ff;" horiz-adv-x="3012" 
d="M1645 541q76 0 75 43q0 27 -26 26q-41 1 -49 -69zM2382 584q0 27 -27 26q-41 1 -49 -69q76 0 76 43zM289 584q0 27 -27 26q-41 1 -49 -69q76 0 76 43zM1059 332q0 -29 28 -29q52 0 56 94q-84 -18 -84 -65zM1870 512q23 0 38 -14t15 -34t-15 -34t-38 -14t-37 13t-14 33
t14 36q14 14 37 14zM1450 553q0 41 -27 41t-46 -38t-19 -60v-47q92 12 92 104zM2354 471q42 0 73 18q16 -10 16 -25q0 -14 -5 -24t-29 -20q-23 -10 -71 -10t-81 30t-33 81q0 52 38 94t90 42t75 -19t22 -44q0 -78 -141 -78q4 -45 46 -45zM1788 594q0 -78 -141 -78
q4 -45 46 -45t72 18q28 -18 12 -50q-16 -29 -82 -29t-100 29q-33 30 -33 82t39 94q38 42 90 42q53 0 75 -19t22 -44zM261 471q42 0 73 18q16 -10 16 -25q0 -14 -5 -24t-29 -20t-72 -10t-80 30q-33 30 -33 81q0 52 38 94t90 42t75 -19t22 -44q0 -78 -141 -78q4 -45 46 -45z
M2191 592v-100l4 -66q-49 -16 -67 -16t-19 16v137q0 31 -15 31q-14 0 -34 -36t-20 -62l6 -70q-49 -16 -69 -16t-19 16v141l-6 74q48 16 68 16t20 -18v-82q37 100 92 100q59 1 59 -65zM139 0v16h2740v-16h-2740zM139 1083v17h2740v-17h-2740zM2710 428l-168 -16q-39 0 -48 25
q-8 26 -9 113t-3 130l-59 -4v8q0 41 24 41h35l-6 61q49 16 69 16t19 -16v-59h96v-6q0 -43 -24 -43h-72v-184q0 -31 33 -31q23 0 79 11t93 11t83 -12t46 -39t-20 -41t-29 -14q-11 1 -61 25t-78 24zM567 657q59 0 60 -65v-35q29 100 92 100q57 1 57 -65v-100l6 -66
q-50 -16 -68 -16t-18 16v135q0 33 -14 33t-36 -36t-19 -62l4 -70q-49 -16 -68 -16t-18 16v135q1 33 -15 33t-35 -36t-20 -62l6 -70q-49 -16 -69 -16t-19 16v141l-6 74q49 16 69 16t19 -18v-82q33 100 92 100zM1454 655q34 1 58 -27t24 -77q0 -139 -178 -139v-82l6 -66
q-49 -16 -69 -16t-19 16v154l-51 -6v-6q0 -162 -140 -162q-43 0 -63 22t-21 47q0 74 144 109v86q-35 -98 -93 -98t-59 63v6q-39 -67 -103 -67t-65 61v207l-59 -4v8q0 41 25 41h34l-6 61q49 16 69 16t19 -16v-59h97v-6q0 -43 -25 -43h-72v-176q0 -33 27 -33q18 0 39 16
q20 16 20 37v51l-6 68q49 16 69 16t19 -18v-135q1 -31 15 -31t34 36t19 62l-4 70q49 16 67 16t19 -18v-203l51 6v125l-6 74q48 16 68 16t20 -18v-82q35 98 96 98z" />
    <glyph glyph-name="NULL" 
 />
    <glyph glyph-name="eight.tab" horiz-adv-x="1126" 
d="M568 1237q-112 -1 -162 -57t-50 -140t41 -135t131 -96l101 -51q154 106 153 262q0 88 -51 152t-163 65zM283 310q1 -97 71 -166t197 -68q276 0 276 229q0 154 -184 240l-170 78q-88 -51 -139 -133t-51 -180zM102 313q0 105 73 201t222 145q-223 121 -223 332
q0 160 114 249t284 89t272 -86q104 -85 104 -201t-64 -201t-177 -122l16 -6q159 -80 229 -166t70 -203q0 -154 -129 -259t-338 -105t-331 80t-122 253z" />
    <glyph glyph-name="five.tab" horiz-adv-x="1126" 
d="M480 821q106 0 228 -36t208 -129t88 -234q0 -215 -138 -329t-370 -113q-111 0 -217 26t-148 66q-18 132 8 223l8 37h91q16 -127 65 -205q104 -55 227 -55t201 78t78 237q0 285 -412 285q-117 0 -209 -21l-6 6l23 652h733l-20 -164h-588l-15 -330q59 6 165 6z" />
    <glyph glyph-name="four.tab" horiz-adv-x="1126" 
d="M692 463v624h-8l-459 -624h467zM66 367v57l651 885h168v-846h176v-96h-176v-263l164 -45v-59h-521v59l164 45v263h-626z" />
    <glyph glyph-name="nine.tab" horiz-adv-x="1126" 
d="M549 610q86 0 163 48t113 130q-8 244 -74 346q-67 101 -197 101t-195 -88t-64 -252q0 -285 254 -285zM465 96q334 0 360 525q-133 -127 -320 -127t-297 106t-110 299t130 311t323 119q475 0 475 -596q0 -354 -142 -554t-399 -199q-104 0 -186 30t-113 60l-30 28l43 68
q106 -70 266 -70z" />
    <glyph glyph-name="one.tab" horiz-adv-x="1126" 
d="M385 1106q-135 0 -211 16v58q89 6 232 50t227 99l47 -20v-1192l272 -58v-59h-731v59l266 58v989h-102z" />
    <glyph glyph-name="seven.tab" horiz-adv-x="1126" 
d="M1032 1309v-158l-577 -1151h-154v43l604 1102h-618q-33 -97 -99 -180l-20 -29l-76 16q20 160 21 252v105h919z" />
    <glyph glyph-name="six.tab" horiz-adv-x="1126" 
d="M575 698q-89 0 -165 -48t-113 -130q8 -244 76 -345t198 -101q131 0 195 88t63 252q0 284 -254 284zM620 815q188 0 296 -106q110 -106 110 -299t-130 -312t-323 -118q-475 0 -475 595q0 354 142 554t399 200q104 0 186 -30t113 -58l31 -31l-43 -67q-106 70 -267 69
q-336 0 -360 -526q133 129 321 129z" />
    <glyph glyph-name="three.tab" horiz-adv-x="1126" 
d="M754 967q0 119 -68 170t-168 51t-192 -53t-144 -125l-51 43q41 113 153 195t282 81q170 0 272 -87t102 -228q0 -199 -207 -279v-4q105 -35 189 -120t84 -232q0 -187 -138 -293t-366 -106q-117 0 -228 32t-155 72q0 117 19 183q19 65 22 65h88q20 -131 63 -205
q100 -53 222 -53t197 68t75 223q0 154 -115 218q-89 50 -252 70l23 84q139 7 216 59t77 171z" />
    <glyph glyph-name="two.tab" horiz-adv-x="1126" 
d="M582 1329q180 0 292 -98q111 -98 111 -273q0 -264 -373 -575q-109 -91 -193 -152q-85 -61 -108 -79v-7h551q18 53 48 101t53 69l20 23l61 -21q-20 -119 -20 -213v-104h-932l-12 102q4 4 165 127t231 195q176 181 227 265q83 140 82 252t-68 172q-68 60 -176 61
q-224 0 -367 -211l-61 45q45 119 167 220t302 101z" />
    <glyph glyph-name="zero.tab" horiz-adv-x="1126" 
d="M567 74q281 0 281 577q0 281 -72 435t-217 153q-283 -1 -283 -583t291 -582zM567 1329q223 0 353 -173t129 -491q-1 -317 -135 -501t-356 -184t-352 173t-130 490t134 501t357 185z" />
    </font>
</defs>
</svg>
