<?xml version="1.0" standalone="no"?>
<!DOCTYPE svg PUBLIC "-//W3C//DTD SVG 1.1//EN" "http://www.w3.org/Graphics/SVG/1.1/DTD/svg11.dtd" >
<svg xmlns="http://www.w3.org/2000/svg">
<metadata>
Created by FontPrep 20130207 at Mon Jun 27 20:13:05 2016
 By Devin Halladay
Copyright (c) 2011 by Eduardo Manso. All rights reserved.
</metadata>
<defs>
<font id="2347b214a0e2de2f977598f8d29c462c" horiz-adv-x='1024' >
  <font-face 
    font-family="PeriodicoText-RegularItalic"
    font-weight="400"
    font-style="italic"
    font-stretch="normal"
    units-per-em="2048"
    panose-1="2 0 5 3 6 0 0 2 0 4"
    ascent="1597"
    descent="-451"
    x-height="1058"
    cap-height="1391"
    bbox="-330 -373 2896 1851"
    underline-thickness="102"
    underline-position="-102"
    unicode-range="U+0009-FB02"
  />
<missing-glyph horiz-adv-x="927" 
d="M94 0v72h756v-72h-756zM94 1319v72h756v-72h-756zM516 688l236 -565h-99l-184 457l-182 -457h-101l238 565l-242 567h101l186 -456l186 456h101z" />
    <glyph glyph-name="fi" unicode="fi" horiz-adv-x="1277" 
d="M808 1503q194 0 333 -69q-3 -60 -23 -118t-41 -83l-18 -27l-135 21q39 61 49 145q-70 33 -162 33q-143 0 -216 -81t-93 -202l-17 -94h359q140 0 229 25l31 6h61l-157 -883q-10 -63 26 -63q25 0 60 39t57 77l23 39l57 -32l-11 -28q-7 -18 -33 -62q-98 -168 -260 -166
q-69 0 -106 51t-24 127l133 760h-461l-143 -883q-33 -197 -131 -297t-242 -100q-94 0 -197 51q2 59 23 113q20 54 41 79l18 23l121 -21q-41 -61 -51 -145q20 -4 49 -4t59 24q61 47 99 256l145 904h-147l14 81l152 29l12 74q31 195 177 298t340 103z" />
    <glyph glyph-name="fl" unicode="fl" horiz-adv-x="1265" 
d="M1018 113q26 0 60 39t57 77l22 39l57 -32l-11 -28q-7 -18 -33 -62t-56 -78t-83 -61t-121 -27t-105 52t-25 126l213 1206q-86 41 -182 41q-143 0 -216 -81t-93 -202l-17 -94h252l-20 -110h-248l-143 -883q-33 -197 -131 -297t-242 -100q-94 0 -197 51q2 59 23 113
q20 54 41 79l18 23l121 -21q-41 -61 -51 -145q20 -4 49 -4t59 24q61 47 99 256l145 904h-147l14 81l152 29l12 74q31 195 177 298t341 103q125 0 225 -28l129 28h62l-234 -1327q-10 -63 27 -63z" />
    <glyph glyph-name=".notdef" horiz-adv-x="927" 
d="M94 0v72h756v-72h-756zM94 1319v72h756v-72h-756zM516 688l236 -565h-99l-184 457l-182 -457h-101l238 565l-242 567h101l186 -456l186 456h101z" />
    <glyph glyph-name=".null" 
 />
    <glyph glyph-name="nonmarkingreturn" horiz-adv-x="681" 
 />
    <glyph glyph-name="CR" unicode="&#xd;" 
 />
    <glyph glyph-name="CR" 
 />
    <glyph glyph-name="HT" unicode="&#x9;" 
 />
    <glyph glyph-name="LF" unicode="&#xa;" 
 />
    <glyph glyph-name="DLE" 
 />
    <glyph glyph-name="DC1" 
 />
    <glyph glyph-name="DC2" 
 />
    <glyph glyph-name="DC3" 
 />
    <glyph glyph-name="DC4" 
 />
    <glyph glyph-name="RS" 
 />
    <glyph glyph-name="US" 
 />
    <glyph glyph-name="space" unicode=" " horiz-adv-x="428" 
 />
    <glyph glyph-name="exclam" unicode="!" horiz-adv-x="536" 
d="M322 118q0 -54 -44 -96t-97 -42q-54 0 -90 34t-36 86t43 96q44 44 98 44t90 -34t36 -88zM409 1411q48 0 85 -26t38 -72l-278 -940h-45l55 940q16 45 56 71t89 27z" />
    <glyph glyph-name="quotedbl" unicode="&#x22;" horiz-adv-x="718" 
d="M510 932v381q6 43 40 71t79 27q45 0 73 -29t23 -69l-139 -381h-76zM211 932v381q6 43 40 71t79 27q44 0 72 -29t24 -69l-139 -381h-76z" />
    <glyph glyph-name="numbersign" unicode="#" horiz-adv-x="1273" 
d="M545 639l-109 -236h291l111 236h-293zM236 639l16 127h209l127 274h143l-127 -274h293l127 274h143l-127 -274h136l-17 -127h-178l-111 -236h172l-16 -127h-215l-127 -276h-143l127 276h-291l-127 -276h-144l127 276h-131l17 127h174l108 236h-165z" />
    <glyph glyph-name="dollar" unicode="$" horiz-adv-x="1185" 
d="M430 1020q0 -109 158 -180l65 374q-109 -8 -166 -62t-57 -132zM821 346q0 129 -178 205l-80 -453q121 12 190 78t68 170zM221 958q0 176 130 268t323 101l22 127h107l-23 -127q86 -6 197 -34t156 -31l-19 -99q-12 -58 -12 -172l2 -33l-94 -22q-49 74 -76 213
q-80 51 -174 63l-74 -419l113 -52q256 -121 256 -335q-1 -180 -141 -302t-371 -124l-21 -119h-106l20 123q-223 14 -403 102l22 109q7 42 11 188v39l112 24q49 -106 68 -268q98 -68 211 -80l88 498l-58 29q-119 55 -193 142t-73 191z" />
    <glyph glyph-name="percent" unicode="%" horiz-adv-x="1433" 
d="M1141 432q0 154 -84 154q-116 0 -151 -268q-7 -60 -7 -117q0 -152 88 -152q45 0 86 54t62 221q6 57 6 108zM1288 397q0 -184 -88 -301q-88 -116 -208 -116t-181 66t-61 190q0 182 91 300t226 117q104 0 163 -69q58 -70 58 -187zM375 0h-129l817 1309h125zM535 1108
q0 154 -82 154q-59 0 -97 -72q-60 -113 -61 -311q0 -154 88 -154q45 0 86 53t59 221q7 58 7 109zM682 1075q0 -186 -87 -303t-207 -117t-181 67t-62 189q-1 182 91 300t225 118q104 0 163 -68q58 -69 58 -186z" />
    <glyph glyph-name="ampersand" unicode="&#x26;" horiz-adv-x="1429" 
d="M528 1082q0 -106 54 -234q242 127 241 319q0 61 -36 101q-35 40 -105 39q-70 0 -112 -59q-42 -60 -42 -166zM260 375q0 -135 78 -191t172 -55q143 0 262 76q-88 95 -190 237t-154 252q-168 -125 -168 -319zM707 1411q129 -1 205 -71t77 -168q0 -184 -137 -276
q-114 -76 -240 -118q43 -90 127 -210t185 -226q123 145 237 403l66 -24q-76 -272 -221 -461q122 -110 196 -110t156 137l55 -31q-92 -276 -262 -276q-133 0 -291 137q-178 -137 -399 -137q-147 0 -272 69q-67 37 -106 110q-40 73 -40 172t39 180t102 132q112 91 211 127
q-53 138 -53 242q0 187 85 281q107 118 280 118z" />
    <glyph glyph-name="quotesingle" unicode="'" horiz-adv-x="419" 
d="M211 932v381q6 43 40 71t79 27q44 0 72 -29t24 -69l-139 -381h-76z" />
    <glyph glyph-name="parenleft" unicode="(" horiz-adv-x="645" 
d="M236 388q0 -364 194 -595l-80 -67q-270 299 -270 698t186 666q90 129 180 218t216 185l57 -68q-223 -182 -353 -428q-130 -245 -130 -609z" />
    <glyph glyph-name="parenright" unicode=")" horiz-adv-x="645" 
d="M410 830q0 364 -195 595l80 68q270 -299 270 -698t-186 -666q-90 -129 -180 -218t-215 -185l-58 67q223 182 354 428q130 245 130 609z" />
    <glyph glyph-name="asterisk" unicode="*" horiz-adv-x="942" 
d="M471 1058q0 -24 17 -40t41 -17q24 1 40 17q17 16 17 40t-16 41t-41 17q-24 0 -41 -17t-17 -41zM301 698l-61 31l157 268l-260 35l13 70l270 26l-62 256l72 29l119 -223l196 223l62 -29l-152 -256q131 -14 263 -26l-13 -70l-276 -35q43 -193 63 -268l-71 -31l-119 226z
" />
    <glyph glyph-name="plus" unicode="+" horiz-adv-x="1024" 
d="M98 535v137h346v346h138v-346h344v-137h-344v-345h-138v345h-346z" />
    <glyph glyph-name="comma" unicode="," horiz-adv-x="575" 
d="M74 92q0 66 38 106t97 40t92 -35t33 -82q0 -127 -110 -210t-267 -126l-18 43q147 94 196 170q-61 27 -61 94z" />
    <glyph glyph-name="hyphen" unicode="-" horiz-adv-x="706" 
d="M111 477v150h485v-150h-485z" />
    <glyph glyph-name="period" unicode="." horiz-adv-x="575" 
d="M334 121q0 -55 -44 -98t-101 -43q-56 0 -90 30q-33 30 -33 86t44 100t101 44t90 -32t33 -87z" />
    <glyph glyph-name="slash" unicode="/" horiz-adv-x="833" 
d="M2 -342l633 1825h143l-633 -1825h-143z" />
    <glyph glyph-name="zero" unicode="0" horiz-adv-x="1177" 
d="M512 86q104 0 179 80t112 208q71 246 71 507q0 155 -53 249t-153 94q-267 1 -349 -519q-20 -135 -20 -286t55 -242q54 -91 158 -91zM510 -20q-204 0 -318 134t-114 371q0 375 169 609t417 235q208 0 322 -135t114 -377q0 -369 -167 -603t-423 -234z" />
    <glyph glyph-name="one" unicode="1" horiz-adv-x="759" 
d="M283 1098q-143 0 -207 16l10 66q93 6 240 50t239 99l62 -22l-209 -1182l244 -57l-13 -68h-725l13 68l258 57l172 973h-84z" />
    <glyph glyph-name="two" unicode="2" horiz-adv-x="1107" 
d="M-33 0v109q360 240 518 380t207 215q107 162 107 260q-1 99 -55 145t-144 46q-217 0 -379 -203l-59 49q72 127 199 228q129 100 305 100t272 -88t96 -245t-123 -307q-45 -54 -77 -92t-98 -90q-65 -52 -114 -92t-210 -141q-162 -102 -174 -110v-6h524q55 108 129 170
l24 22l62 -22q-41 -119 -59 -215l-19 -113h-932z" />
    <glyph glyph-name="three" unicode="3" horiz-adv-x="1028" 
d="M365 -20q-123 0 -238 32t-158 74q18 119 73 219q17 31 21 33h93q-8 -129 18 -201q86 -51 213 -51t213 83t86 239q0 119 -82 171t-223 70l39 92q154 11 238 69t85 204q0 160 -196 160q-91 0 -187 -50t-159 -116l-51 45q61 113 186 195t287 81q162 0 253 -76t91 -196
q0 -233 -269 -322v-4q90 -29 158 -105t68 -196q0 -206 -156 -328t-403 -122z" />
    <glyph glyph-name="four" unicode="4" horiz-adv-x="1128" 
d="M733 1067l-536 -600h436l106 600h-6zM10 356v72l791 881h203l-150 -842h170l-18 -111h-172l-43 -243l149 -45l-10 -68h-539l12 68l168 45l41 243h-602z" />
    <glyph glyph-name="five" unicode="5" horiz-adv-x="1062" 
d="M379 -20q-117 0 -223 28t-144 68q4 66 30 154t46 108h94q-8 -125 21 -201q98 -53 186 -53q154 0 244 83t90 247q0 246 -342 245q-113 0 -209 -20l-6 8l143 662h727l-55 -185h-575l-72 -311q90 8 131 8q215 0 352 -89t137 -271q0 -229 -157 -356q-158 -125 -418 -125z" />
    <glyph glyph-name="six" unicode="6" horiz-adv-x="1107" 
d="M791 461q1 113 -55 170t-145 57t-164 -45t-122 -121q-6 -66 -6 -131q0 -147 58 -226t174 -79t188 103t72 272zM517 -20q-207 0 -323 120t-116 330q0 393 186 646t500 253q106 0 187 -33q81 -32 110 -60t29 -34l-60 -74q-88 72 -254 72t-280 -138t-164 -360
q131 117 306 117t276 -95t102 -255q0 -223 -146 -356t-353 -133z" />
    <glyph glyph-name="seven" unicode="7" horiz-adv-x="1032" 
d="M113 0v49l782 1079h-580q-54 -102 -127 -180l-26 -28l-80 18q51 166 68 258l20 113h879v-168l-764 -1141h-172z" />
    <glyph glyph-name="eight" unicode="8" horiz-adv-x="1077" 
d="M414 1014q0 -115 131 -195l90 -49q180 104 180 266q0 76 -45 132q-44 56 -150 56t-156 -60q-50 -62 -50 -150zM236 299q0 -91 62 -151t190 -60t194 64t66 170q-1 132 -146 210l-145 74q-105 -55 -163 -136t-58 -171zM483 -20q-211 0 -331 72t-119 224q0 116 86 220
t260 151q-176 111 -176 295t128 286t303 101q175 0 272 -81q98 -80 98 -194t-78 -201t-207 -128q254 -141 254 -338q0 -170 -139 -289q-140 -118 -351 -118z" />
    <glyph glyph-name="nine" unicode="9" horiz-adv-x="1114" 
d="M523 621q89 0 163 44t123 119q6 66 6 134q0 147 -58 226t-174 79q-116 1 -188 -103t-71 -272q0 -113 56 -170t143 -57zM352 -20q-171 0 -280 80q-27 20 -37 32t-10 14l59 74q90 -72 255 -72t279 139q114 138 164 361q-133 -119 -307 -119q-174 -1 -275 95t-102 256
q0 223 146 356t353 133q208 0 324 -121t115 -329q0 -393 -185 -647q-186 -252 -499 -252z" />
    <glyph glyph-name="colon" unicode=":" horiz-adv-x="575" 
d="M326 797q-54 1 -84 33t-29 85q0 53 45 97q44 44 100 45q56 0 86 -33t31 -85t-47 -97t-102 -45zM332 121q0 -53 -48 -97t-102 -44q-55 0 -86 32q-30 32 -30 85q0 55 47 99t102 44t86 -33t31 -86z" />
    <glyph glyph-name="semicolon" unicode=";" horiz-adv-x="575" 
d="M329 797q-54 1 -85 33t-31 85t46 97q45 44 101 45q56 0 86 -33t31 -85q0 -52 -47 -97t-101 -45zM74 92q0 66 38 106t97 40t92 -35t33 -82q0 -127 -110 -210t-267 -126l-18 43q147 94 196 170q-61 27 -61 94z" />
    <glyph glyph-name="less" unicode="&#x3c;" horiz-adv-x="1024" 
d="M98 563v88l828 379v-153l-623 -267l623 -276v-152z" />
    <glyph glyph-name="equal" unicode="=" horiz-adv-x="1024" 
d="M98 365v137h828v-137h-828zM98 725v137h828v-137h-828z" />
    <glyph glyph-name="greater" unicode="&#x3e;" horiz-adv-x="1024" 
d="M926 651v-88l-828 -381v152l623 276l-623 267v153z" />
    <glyph glyph-name="question" unicode="?" horiz-adv-x="989" 
d="M299 -20q-53 0 -86 34t-33 86t46 96t100 44t86 -34t32 -87t-46 -96t-99 -43zM602 1411q176 0 278 -80t103 -210q0 -246 -165 -369t-359 -156l-66 -223h-74l17 362q105 14 190 46q86 32 128 68q42 37 78 105t36 162t-60 140t-154 46t-187 -57q-28 -95 -23 -143v-23
l-154 -20q-23 109 7 198q160 154 405 154z" />
    <glyph glyph-name="at" unicode="@" horiz-adv-x="1865" 
d="M846 313q82 -1 154 103t96 248l32 190q-50 94 -152 94t-172 -139t-69 -317q0 -178 111 -179zM1298 246q119 0 210 126t91 362t-150 402q-151 165 -423 164q-330 0 -536 -226t-206 -565t214 -499q149 -111 365 -135q46 -4 89 -4q197 0 367 53l20 -71q-184 -90 -407 -91
q-335 0 -551 164q-76 57 -129 131t-88 188t-35 251q0 399 249 657t648 258q176 0 318 -55q142 -54 231 -150q180 -195 180 -475q0 -155 -46 -275t-121 -185q-148 -128 -292 -128q-145 1 -195 59t-44 140l4 45l-10 2q-106 -217 -277 -217q-114 0 -182 78t-68 215
q0 243 138 407t329 164q123 0 209 -73l100 73l58 -12l-109 -606q-22 -133 5 -158q15 -14 44 -14z" />
    <glyph glyph-name="A" unicode="A" horiz-adv-x="1355" 
d="M711 1102h-9l-303 -559h424zM-147 0l12 66l149 45l723 1280l133 20l277 -1300l125 -45l-10 -66h-533l12 66l168 45l-65 329h-502l-178 -329l147 -45l-10 -66h-448z" />
    <glyph glyph-name="B" unicode="B" horiz-adv-x="1286" 
d="M694 1282h-159l-89 -500h158q178 0 274 79q95 79 95 218q0 203 -279 203zM651 674h-223l-102 -565h221q184 0 279 87t96 246q0 108 -69 170t-202 62zM719 1391q223 0 355 -78t132 -234q0 -266 -336 -346v-4q289 -74 289 -305q0 -208 -174 -316t-450 -108h-609l13 68
l163 45l207 1165l-147 45l10 68h547z" />
    <glyph glyph-name="C" unicode="C" horiz-adv-x="1261" 
d="M793 1298q-195 0 -327 -186t-132 -479q0 -225 108 -351t281 -126q135 0 224 57t175 162l47 -37q-63 -139 -191 -249t-319 -109q-259 0 -415 164t-156 454q0 375 220 594t536 219q115 1 246 -23t161 -26l-20 -121q-16 -78 -10 -172v-33l-88 -20q-66 68 -93 225
q-104 57 -247 57z" />
    <glyph glyph-name="D" unicode="D" horiz-adv-x="1454" 
d="M717 1278h-185l-204 -1161h245q252 -1 402 193t149 497q0 213 -109 342q-110 129 -298 129zM741 1391q283 0 454 -157t171 -415t-115 -444q-115 -187 -298 -281t-402 -94h-625l13 68l163 45l207 1165l-147 45l10 68h569z" />
    <glyph glyph-name="E" unicode="E" horiz-adv-x="1251" 
d="M868 537l-26 112l-418 4l-96 -538h546q72 152 138 237l24 33l70 -14q-49 -172 -66 -265l-18 -106h-1096l13 68l163 45l207 1165l-147 45l10 68h1051l-21 -107q-13 -69 -20 -207l-2 -41l-80 -16q-49 100 -68 256h-500l-90 -514l422 6l60 113h77l-61 -344h-72z" />
    <glyph glyph-name="F" unicode="F" horiz-adv-x="1220" 
d="M874 483l-22 133l-434 5l-90 -508l168 -45l-13 -68h-557l13 68l163 45l207 1165l-147 45l10 68h1065l-18 -107q-17 -89 -23 -207l-2 -41l-78 -16q-49 100 -69 256h-515l-96 -547l438 6l64 133h78l-68 -385h-74z" />
    <glyph glyph-name="G" unicode="G" horiz-adv-x="1392" 
d="M860 1298q-231 0 -381 -208t-149 -533q0 -221 108 -342t281 -121q90 0 172 39l65 373l-106 45l10 65h432l-12 -65l-104 -45l-66 -369l55 -14l-12 -66q-215 -78 -430 -77q-283 0 -459 147t-176 425t113 474q113 195 294 290t402 95q90 0 248 -25t198 -24l-20 -111
q-13 -86 -8 -174v-33l-90 -20q-66 59 -95 211q-117 63 -270 63z" />
    <glyph glyph-name="H" unicode="H" horiz-adv-x="1470" 
d="M760 0l12 68l164 45l100 565h-608l-100 -565l147 -45l-12 -68h-537l13 68l163 45l207 1165l-147 45l10 68h537l-11 -68l-163 -45l-89 -487h611l86 487l-148 45l11 68h536l-12 -68l-164 -45l-207 -1165l150 -45l-13 -68h-536z" />
    <glyph glyph-name="I" unicode="I" horiz-adv-x="636" 
d="M-74 0l13 68l163 45l207 1165l-147 45l10 68h537l-11 -68l-163 -45l-207 -1165l147 -45l-12 -68h-537z" />
    <glyph glyph-name="J" unicode="J" horiz-adv-x="630" 
d="M-248 -362q-39 0 -82 6q4 76 80 252h127q-25 -123 -10 -152q117 20 184 86l256 1448l-147 45l12 68h528l-12 -68l-156 -45l-258 -1454q-166 -186 -522 -186z" />
    <glyph glyph-name="K" unicode="K" horiz-adv-x="1378" 
d="M965 0q-86 47 -150 174l-227 463h-168l-92 -524l147 -45l-12 -68h-537l13 68l163 45l207 1165l-147 45l10 68h537l-11 -68l-163 -45l-95 -528h158l498 530l-138 45l11 66h458l-12 -66l-149 -45l-494 -504l246 -481q77 -152 184 -210q24 -13 51 -17l-10 -68h-278z" />
    <glyph glyph-name="L" unicode="L" horiz-adv-x="1128" 
d="M-74 0l13 68l163 45l207 1165l-147 45l10 68h537l-11 -68l-163 -45l-207 -1163h487q63 133 139 241l23 33l72 -14q-49 -172 -66 -264l-20 -111h-1037z" />
    <glyph glyph-name="M" unicode="M" horiz-adv-x="1673" 
d="M633 66l-199 854q-16 72 -16 129l-2 24h-8l-170 -962l147 -45l-10 -66h-449l13 66l163 45l207 1169l-147 45l10 66h391l217 -1014h6l564 1014h397l-12 -66l-166 -45l-205 -1169l147 -45l-10 -66h-532l12 66l164 45l168 962h-8q-41 -100 -70 -147l-481 -860h-121z" />
    <glyph glyph-name="N" unicode="N" horiz-adv-x="1447" 
d="M1010 0l-590 1114l-176 -1003l147 -45l-12 -66h-453l13 66l163 45l207 1169l-147 45l10 66h367l518 -981l153 870l-147 45l12 66h453l-12 -66l-164 -45l-228 -1280h-114z" />
    <glyph glyph-name="O" unicode="O" horiz-adv-x="1454" 
d="M328 545q0 -205 88 -328t234 -123q148 0 259 110q215 213 215 634q0 204 -84 332t-239 128q-207 0 -340 -208t-133 -545zM657 -20q-257 0 -413 160t-156 433q0 381 208 609t509 229q261 0 411 -162t150 -440q0 -361 -208 -595t-501 -234z" />
    <glyph glyph-name="P" unicode="P" horiz-adv-x="1271" 
d="M690 496q-86 0 -178 32l10 68h94q188 2 292 110q103 108 104 300q0 126 -77 198t-222 72h-181l-204 -1163l170 -45l-13 -68h-559l13 68l163 45l207 1165l-147 45l10 68h580q223 1 360 -101t137 -295q1 -229 -159 -364t-400 -135z" />
    <glyph glyph-name="Q" unicode="Q" horiz-adv-x="1454" 
d="M328 545q0 -205 88 -328t234 -123q148 0 259 110q215 213 215 634q0 204 -84 332t-239 128q-207 0 -340 -208t-133 -545zM88 557q0 383 214 619t519 235q249 0 397 -157t148 -429q0 -326 -166 -551t-422 -278v-6l80 -78q133 -133 266 -168l-12 -66h-295q-96 43 -176 152
l-121 160q-200 32 -316 182t-116 385z" />
    <glyph glyph-name="R" unicode="R" horiz-adv-x="1302" 
d="M709 1276h-177l-100 -563h334q154 75 193 191q19 56 20 130q1 114 -69 178t-201 64zM741 1391q217 -1 346 -91t129 -251t-92 -259t-247 -141v-8l94 -299q57 -183 173 -253q30 -18 58 -21l-12 -68h-285q-90 45 -137 217l-109 387h-245l-86 -491l149 -45l-12 -68h-539
l13 68l163 45l207 1165l-147 45l10 68h569z" />
    <glyph glyph-name="S" unicode="S" horiz-adv-x="1144" 
d="M389 1098q0 -80 42 -124t128 -89l209 -105q252 -125 252 -352q0 -190 -146 -319t-400 -129q-255 0 -480 106l20 109q13 76 13 188v39l94 24q80 -104 88 -270q119 -80 266 -80t234 76q86 76 86 212t-174 224l-213 105q-100 49 -165 131t-65 186q0 190 146 286t352 95
q119 0 255 -32t169 -36l-17 -98q-16 -78 -10 -172v-33l-90 -22q-63 70 -84 215q-105 65 -239 65t-202 -60t-69 -140z" />
    <glyph glyph-name="T" unicode="T" horiz-adv-x="1239" 
d="M1198 1016q-49 104 -65 260h-295l-207 -1163l164 -45l-13 -68h-567l12 68l181 45l206 1163h-297q-70 -149 -137 -229l-22 -31l-70 16q47 160 64 252l18 107h1149l-19 -107q-14 -70 -20 -211l-2 -41z" />
    <glyph glyph-name="U" unicode="U" horiz-adv-x="1435" 
d="M618 -20q-202 0 -334 76t-167 220l178 1002l-152 45l13 68h536l-12 -68l-164 -45l-158 -897q-24 -127 58 -203t231 -76t260 77t135 210l156 889l-149 45l12 68h461l-13 -68l-163 -45l-175 -981q-74 -149 -212 -233q-139 -84 -341 -84z" />
    <glyph glyph-name="V" unicode="V" horiz-adv-x="1351" 
d="M612 -20h-123l-278 1300l-127 45l10 66h537l-10 -66l-166 -45l190 -985h4l539 985l-148 45l11 66h448l-12 -66l-148 -45z" />
    <glyph glyph-name="W" unicode="W" horiz-adv-x="2080" 
d="M553 -20h-125l-217 1300l-127 45l10 66h537l-10 -66l-168 -45l133 -973h6l465 930l-17 96l93 58h147l150 -1084h6l485 973l-149 45l12 66h446l-12 -66l-150 -45l-671 -1300h-125l-178 1044z" />
    <glyph glyph-name="X" unicode="X" horiz-adv-x="1314" 
d="M-147 0l10 66l139 45l543 571l-307 602l-132 41l13 66h516l-12 -66l-129 -39l225 -444l401 438l-116 45l10 66h422l-13 -66l-141 -45l-514 -539l324 -639l135 -36l-10 -66h-527l10 66l140 40l-242 472l-426 -467l121 -45l-12 -66h-428z" />
    <glyph glyph-name="Y" unicode="Y" horiz-adv-x="1308" 
d="M238 0l10 68l182 45l78 440l-305 727l-121 45l12 66h527l-13 -66l-157 -45l231 -596h4l465 596l-139 45l10 66h434l-12 -66l-141 -45l-570 -717l-80 -450l164 -45l-10 -68h-569z" />
    <glyph glyph-name="Z" unicode="Z" horiz-adv-x="1173" 
d="M227 985l-77 19q49 162 69 274l21 113h968l-20 -105l-959 -1171h615q55 128 139 250l27 38l82 -16q-45 -145 -68 -272l-20 -115h-1076l17 100l964 1176h-510q-34 -107 -137 -248z" />
    <glyph glyph-name="bracketleft" unicode="[" horiz-adv-x="698" 
d="M29 -254l307 1737h422l-21 -111h-241l-269 -1517h244l-20 -109h-422z" />
    <glyph glyph-name="backslash" unicode="\" horiz-adv-x="817" 
d="M506 -342l-297 1825h137l297 -1825h-137z" />
    <glyph glyph-name="bracketright" unicode="]" horiz-adv-x="698" 
d="M670 1483l-308 -1737h-421l20 111h242l268 1517h-244l21 109h422z" />
    <glyph glyph-name="asciicircum" unicode="^" horiz-adv-x="868" 
d="M770 750h-139l-201 471l-194 -471h-138l267 641h133z" />
    <glyph glyph-name="underscore" unicode="_" horiz-adv-x="1050" 
d="M-143 -291v127h1063v-127h-1063z" />
    <glyph glyph-name="grave" unicode="`" horiz-adv-x="591" 
d="M272 1499h25l299 -280l-45 -60l-367 211z" />
    <glyph glyph-name="a" unicode="a" horiz-adv-x="1183" 
d="M446 139q109 0 206 134t130 321l39 225q-67 133 -205 133t-230 -182t-94 -406q0 -224 154 -225zM381 -20q-149 0 -231 97t-82 259q0 301 172 512t403 211q150 0 250 -96l108 96l72 -15l-155 -868q-10 -63 26 -63q25 0 60 39t57 77l22 39l58 -32q-5 -10 -11 -28t-30 -62
t-54 -78t-81 -61t-118 -27t-104 55t-20 133l16 88l-10 2q-139 -278 -348 -278z" />
    <glyph glyph-name="b" unicode="b" horiz-adv-x="1159" 
d="M516 86q123 0 205 93q147 167 145 487q0 233 -172 233q-111 -1 -208 -135t-130 -320l-45 -256q82 -102 205 -102zM508 -20q-150 0 -258 81l-123 -84l-57 23l237 1346l-139 24l12 70l301 63h62l-86 -491q-25 -130 -47 -205l-9 -25l11 -2q139 279 358 279q150 1 236 -101
t86 -262q0 -304 -164 -510t-420 -206z" />
    <glyph glyph-name="c" unicode="c" horiz-adv-x="966" 
d="M604 952q-156 0 -240 -138t-83 -363q0 -156 63 -234t174 -78q164 0 305 213l47 -24q-48 -150 -158 -251t-278 -101t-267 107q-99 108 -99 304q0 305 172 489t397 183q106 0 185 -30t116 -71q-2 -59 -24 -119t-40 -90t-20 -30l-125 18q25 80 33 166q-68 49 -158 49z" />
    <glyph glyph-name="d" unicode="d" horiz-adv-x="1202" 
d="M465 139q109 0 206 134t130 321l47 254q-88 104 -208 104t-202 -93q-145 -164 -145 -486q0 -234 172 -234zM389 -20q-153 0 -237 99t-84 259q0 305 163 513q164 208 418 208q125 0 223 -60l64 347l-139 24l10 70l303 63h59l-233 -1327q-8 -63 27 -63q25 0 59 39t57 77
l23 39l57 -32q-4 -10 -10 -28t-31 -62q-24 -44 -54 -78t-81 -61t-118 -27t-103 55t-21 133l17 88l-10 2q-140 -278 -359 -278z" />
    <glyph glyph-name="e" unicode="e" horiz-adv-x="987" 
d="M598 956q-117 0 -203 -112t-110 -303q453 27 452 274q0 65 -39 103t-100 38zM446 -20q-180 0 -279 102t-99 293q0 305 166 494q167 189 391 190q141 0 224 -68t83 -176q0 -155 -126 -235t-265 -103q-138 -22 -265 -31v-38q0 -137 62 -205t172 -68q166 0 317 182l43 -34
q-150 -303 -424 -303z" />
    <glyph glyph-name="f" unicode="f" horiz-adv-x="700" 
d="M713 1407q-97 0 -143 -78t-68 -203l-17 -98h265l-19 -110h-264l-141 -883q-33 -197 -131 -297t-242 -100q-94 0 -197 51q2 59 23 113q20 54 41 79l18 23l121 -21q-41 -61 -51 -145q20 -4 49 -4t59 24q61 47 99 256l145 904h-147l14 81l152 29l12 78q33 195 148 296
q117 101 257 101t242 -51q-2 -60 -22 -116t-39 -83l-21 -24l-121 20q39 59 49 144q-43 14 -71 14z" />
    <glyph glyph-name="g" unicode="g" horiz-adv-x="1087" 
d="M180 -100q0 -68 78 -112t203 -44t209 43t98 123l8 43q-53 53 -180 61l-258 15q-49 4 -78 16q-80 -77 -80 -145zM516 471q115 0 173 91t59 222q0 82 -43 132t-127 51q-116 1 -174 -93t-58 -223q0 -76 45 -128t125 -52zM514 379q-188 0 -186 -92q0 -63 88 -66l227 -12
q264 -14 350 -137l-16 -103q-25 -147 -166 -239t-360 -92t-338 62t-119 157q0 133 190 229q-61 51 -61 121q0 162 192 211q-82 36 -128 104t-46 154q0 180 123 281t305 102q111 0 189 -29q84 -4 167 9t124 28l41 14l2 -127q-72 -18 -203 -8l-2 -4q66 -94 65 -192
q0 -172 -125 -272t-313 -99z" />
    <glyph glyph-name="h" unicode="h" horiz-adv-x="1183" 
d="M715 899q-115 0 -218 -131t-137 -324l-77 -444h-209l237 1346l-139 24l12 70l301 63h62l-86 -491q-25 -130 -47 -205l-8 -25l10 -2q141 279 377 279q131 0 195 -86t40 -223l-100 -574q-10 -63 26 -63q25 0 60 39t57 77l23 39l57 -32l-11 -28q-7 -18 -33 -62
q-99 -166 -261 -166q-68 0 -105 52t-24 126l102 577q29 164 -104 164z" />
    <glyph glyph-name="i" unicode="i" horiz-adv-x="628" 
d="M559 1374q1 -53 -39 -94t-98 -41t-90 31q-31 31 -31 83t40 93t98 41t89 -30t31 -83zM342 1059q84 0 121 -49t22 -129l-135 -705q-10 -63 27 -63q25 0 59 39t58 77l22 39l57 -32l-11 -28q-7 -18 -33 -62q-97 -166 -259 -166q-68 0 -106 52q-37 52 -25 126l133 704
q10 63 -26 64q-25 0 -60 -39t-57 -78l-23 -39l-57 33q40 100 86 151q96 105 207 105z" />
    <glyph glyph-name="j" unicode="j" horiz-adv-x="612" 
d="M444 1239q-60 0 -90 31t-30 83t40 93t99 41t90 -30t31 -83t-40 -94t-100 -41zM72 803q102 256 306 256q72 0 108 -48t22 -130l-191 -1082q-53 -73 -157 -117t-220 -44q-114 0 -173 22q2 62 21 118t38 83l18 24l129 -20q-35 -55 -49 -137q127 18 187 75l186 1059
q8 63 -27 64q-26 0 -60 -39t-56 -78l-23 -39z" />
    <glyph glyph-name="k" unicode="k" horiz-adv-x="1146" 
d="M487 618h9q139 234 242 325q50 44 121 80t127 36t128 -12q-14 -117 -37 -187l-8 -29h-137q14 59 16 105q-161 -33 -354 -334q102 -33 145 -135l64 -154q72 -184 127 -184q22 0 54 38t52 75l19 37l55 -33q-4 -10 -11 -28q-55 -146 -148 -207q-92 -61 -198 -8
q-73 38 -122 136q-14 29 -31 70l-74 197q-41 109 -153 114l-90 -520h-209l235 1343l-139 25l14 70l301 63h62l-158 -891q53 8 98 8z" />
    <glyph glyph-name="l" unicode="l" horiz-adv-x="579" 
d="M332 113q26 0 60 39t57 77l22 39l59 -32l-11 -28q-7 -18 -33 -62q-98 -166 -260 -166q-68 0 -105 51t-25 127l209 1188l-139 24l12 70l299 63h62l-234 -1327q-10 -63 27 -63z" />
    <glyph glyph-name="m" unicode="m" horiz-adv-x="1828" 
d="M354 1059q68 0 102 -51t19 -127l-20 -99l10 -2q141 279 369 279q121 0 180 -76t49 -201l8 -2q137 279 367 279q132 0 196 -86t39 -223l-100 -574q-10 -63 26 -63q25 0 60 39t57 77l23 39l57 -32l-11 -28q-7 -18 -33 -62t-56 -78t-83 -61q-52 -27 -121 -27t-106 52
t-24 126l100 577q33 164 -102 164q-111 0 -211 -131t-133 -324l-78 -444h-209l129 735q29 164 -102 164q-113 0 -212 -131t-132 -324l-80 -444h-209l153 862q10 63 -26 64q-25 0 -60 -39t-57 -78l-22 -39l-60 33q102 256 303 256z" />
    <glyph glyph-name="n" unicode="n" horiz-adv-x="1234" 
d="M764 899q-115 0 -217 -131t-135 -324l-80 -444h-209l153 862q10 63 -26 64q-25 0 -60 -39t-57 -78l-22 -39l-60 33q40 100 86 151q96 105 207 105q78 0 112 -51t19 -127l-20 -99l10 -2q145 279 377 279q130 0 196 -86t41 -223l-100 -574q-10 -63 27 -63q26 0 60 39t56 77
l23 39l57 -32l-11 -28q-7 -18 -33 -62q-98 -166 -260 -166q-68 0 -106 52q-36 52 -24 126l100 577q29 164 -104 164z" />
    <glyph glyph-name="o" unicode="o" horiz-adv-x="1093" 
d="M494 88q152 0 232 170t79 404q0 130 -53 210q-54 80 -154 80t-174 -90q-137 -167 -135 -487q-1 -129 53 -208t152 -79zM1026 614q0 -276 -154 -455t-358 -179q-203 0 -325 124t-121 316q0 287 155 463q156 176 363 176q208 0 324 -125t116 -320z" />
    <glyph glyph-name="p" unicode="p" horiz-adv-x="1212" 
d="M572 86q120 0 202 93q146 166 146 487q0 233 -172 233q-109 -1 -206 -135t-130 -320l-47 -256q87 -102 207 -102zM353 1059q69 0 102 -50t20 -124l-20 -103l10 -2q139 279 360 279q150 -1 235 -101t85 -262q0 -305 -164 -511t-418 -205q-131 0 -225 59l-47 -268l162 -45
l-13 -68h-522l12 68l154 45l192 1091q10 63 -26 64q-25 0 -60 -39t-57 -78l-22 -39l-58 33q4 10 10 27q6 18 32 62t56 78q29 34 81 62t121 27z" />
    <glyph glyph-name="q" unicode="q" horiz-adv-x="1163" 
d="M465 139q109 0 206 134t130 321l45 254q-88 104 -207 104t-201 -93q-145 -164 -145 -486q0 -234 172 -234zM68 338q0 305 163 513q164 208 418 208q160 0 264 -86l111 88l66 -23l-226 -1267l137 -45l-12 -68h-520l10 68l178 45l45 256q19 123 48 202l8 27l-10 2
q-66 -129 -150 -204q-84 -74 -222 -74t-224 99q-84 99 -84 259z" />
    <glyph glyph-name="r" unicode="r" horiz-adv-x="913" 
d="M354 1059q68 0 103 -52t18 -126l-33 -152l11 -2q158 332 383 332q45 0 69 -8q-21 -187 -61 -285l-15 -35h-137q20 98 21 158q-99 -33 -191 -176t-121 -316l-69 -397h-209l153 862q10 63 -26 64q-25 0 -60 -39t-57 -78l-22 -39l-60 33q102 256 303 256z" />
    <glyph glyph-name="s" unicode="s" horiz-adv-x="909" 
d="M526 958q-88 0 -140 -43t-52 -114q0 -94 110 -139l156 -68q221 -92 221 -259t-122 -261q-123 -94 -317 -94t-368 81q2 61 20 121t34 88l16 29l123 -20q-27 -59 -39 -132q106 -65 215 -65t170 51t61 144t-118 143l-148 59q-90 37 -148 109t-59 162q0 158 120 234t274 75
q94 0 197 -24t132 -23q-2 -62 -24 -120t-41 -87l-21 -29l-123 19q33 53 50 118q-91 45 -179 45z" />
    <glyph glyph-name="t" unicode="t" horiz-adv-x="733" 
d="M109 930l14 82l158 26l159 297h97l-52 -297h246l-20 -108h-246l-133 -764q47 -60 138 -60t167 54l35 -60q-135 -120 -305 -120t-254 118l145 832h-149z" />
    <glyph glyph-name="u" unicode="u" horiz-adv-x="1222" 
d="M401 -20q-205 0 -258 188l129 694q10 63 -26 64q-25 0 -59 -39t-56 -78l-22 -39l-58 33q66 165 182 228q51 28 120 28t106 -52t24 -126l-125 -670q20 -72 126 -72t206 131t133 324l80 444h209l-154 -862q-10 -63 27 -63q25 0 59 39t58 77l22 39l60 -32q-41 -103 -87 -152
q-45 -49 -97 -77q-52 -27 -120 -27t-101 51q-34 51 -19 127l20 98l-10 2q-142 -278 -369 -278z" />
    <glyph glyph-name="v" unicode="v" horiz-adv-x="1095" 
d="M422 -20q-137 0 -206 86t-44 223l100 573q10 63 -26 64q-25 0 -60 -39t-57 -78l-23 -39l-57 33q40 100 86 151q96 105 207 105q80 0 117 -52t24 -126l-100 -578q-39 -180 92 -180q96 0 178 98t142 256q80 195 100 387q-64 44 -141 54l-27 4l84 137q137 2 242 -76
q-43 -297 -140 -541q-182 -462 -491 -462z" />
    <glyph glyph-name="w" unicode="w" horiz-adv-x="1677" 
d="M1012 -20q-121 0 -188 76t-52 202h-2q-150 -279 -358 -278q-131 0 -198 86t-42 223l100 573q10 63 -26 64q-25 0 -60 -39t-57 -78l-23 -39l-57 33q40 100 86 151q96 105 207 105q80 0 117 -52t24 -126l-100 -578q-14 -76 3 -128t79 -52q102 0 197 129q94 129 159 323
l70 422l55 41h158l-121 -735q-33 -180 84 -180q187 0 328 399q66 187 80 342q-64 45 -140 54l-24 4l86 137q131 2 235 -76q-43 -293 -127 -514q-180 -489 -493 -489z" />
    <glyph glyph-name="x" unicode="x" horiz-adv-x="1114" 
d="M250 885q-49 0 -39 -213l-66 -8q-16 46 -16 112q0 159 82 238q47 45 117 45q94 0 147 -105l133 -262q166 313 330 367q106 -8 180 -66l-82 -133q-53 53 -108 62q-133 -80 -266 -332l202 -393q18 -43 41 -43q49 0 39 213l66 8q18 -47 18 -113q0 -162 -80 -237
q-47 -45 -114 -45q-98 0 -154 108l-158 305q-182 -356 -362 -413q-100 8 -174 65l80 135q53 -53 110 -61q133 78 295 373l-178 350q-25 43 -43 43z" />
    <glyph glyph-name="y" unicode="y" horiz-adv-x="1052" 
d="M200 903q-24 0 -48 -49t-33 -93q-10 -44 -10 -50l-64 12q0 76 32 162q65 174 226 174q117 0 146 -133l161 -715h2q2 0 2 2q104 176 181 362q76 186 86 289q-64 39 -146 54l-26 2l86 139q125 4 231 -78q-4 -135 -93 -367t-224 -458q-234 -389 -467 -518q-53 20 -100 60
q-46 40 -66 69l-21 30l109 105q51 -68 104 -97q82 51 189 181l-219 864q-14 53 -38 53z" />
    <glyph glyph-name="z" unicode="z" horiz-adv-x="1017" 
d="M1022 1038v-24l-703 -815q12 2 53 2q40 0 172 -23t185 -22q104 0 135 141l10 57h62q18 -55 18 -153q0 -244 -215 -244q-94 0 -263 69q-169 68 -208 68t-57 -20l-64 -74h-141v27l680 792q-18 -4 -62 -4t-164 22q-118 22 -147 21q-82 0 -104 -110l-14 -66h-56
q-25 60 -25 156t47 158q46 62 132 62t250 -67t198 -67t47 16l84 98h150z" />
    <glyph glyph-name="braceleft" unicode="{" horiz-adv-x="761" 
d="M399 -272q-155 0 -223 84t-24 256l67 272q33 135 3 179t-161 54l19 93q137 10 180 50t57 175l27 272q16 178 106 259t261 81q35 0 108 -8l-14 -80l-6 -2l-43 -2q-88 -8 -138 -45t-59 -143l-22 -244q-12 -106 -34 -172q-37 -111 -161 -155q-45 -15 -135 -31v-11
q118 -23 161 -58q42 -34 53 -72q25 -87 -11 -228l-64 -244q-27 -104 9 -142t118 -46l27 -2l16 -2h4l-12 -80q-74 -8 -109 -8z" />
    <glyph glyph-name="bar" unicode="|" horiz-adv-x="536" 
d="M340 -342h-139v1825h139v-1825z" />
    <glyph glyph-name="braceright" unicode="}" horiz-adv-x="761" 
d="M362 1503q154 0 223 -84t25 -256l-67 -272q-33 -135 -3 -179t160 -55l-18 -92q-137 -10 -180 -50t-58 -175l-26 -272q-16 -178 -106 -259t-261 -81q-35 0 -108 8l14 80h6q12 4 71 8q60 4 109 41t60 143l22 244q12 106 34 172q37 111 161 155q45 15 135 31v11
q-118 23 -161 58q-42 34 -53 72q-25 87 11 228l64 244q27 104 -9 142t-118 46l-27 2l-16 2h-4l12 80q73 8 108 8z" />
    <glyph glyph-name="asciitilde" unicode="~" horiz-adv-x="1234" 
d="M440 627q-150 0 -254 -135l-88 71q127 215 357 215q95 0 247 -68t193 -69q88 0 154 84l88 -72q-88 -162 -254 -161q-81 0 -227 68t-216 67z" />
    <glyph glyph-name="DEL" 
 />
    <glyph glyph-name="uni00A0" unicode="&#xa0;" horiz-adv-x="428" 
 />
    <glyph glyph-name="exclamdown" unicode="&#xa1;" horiz-adv-x="536" 
d="M209 920q0 54 43 96t97 43q54 0 90 -34t36 -87t-43 -96t-97 -43t-90 34q-36 33 -36 87zM122 -373q-48 0 -85 26t-39 73l278 940h46l-56 -940q-16 -45 -56 -72t-88 -27z" />
    <glyph glyph-name="cent" unicode="&#xa2;" horiz-adv-x="1062" 
d="M348 551q0 -209 156 -266l139 784q-141 -33 -218 -171t-77 -347zM133 518q0 270 156 448t373 214l26 149h107l-25 -141q102 -2 179 -38t112 -81q-28 -122 -82 -197l-16 -24l-129 8q2 10 13 60t7 120q-45 35 -104 41l-142 -809q143 2 312 135l36 -45q-59 -98 -156 -167
t-220 -80l-23 -131h-106l22 131q-162 16 -251 121t-89 286z" />
    <glyph glyph-name="sterling" unicode="&#xa3;" horiz-adv-x="1232" 
d="M850 1329q98 1 217 -25t131 -28l-16 -98q-7 -38 -11 -142l3 -26l-78 -25q-66 72 -92 203q-78 39 -156 39q-242 0 -303 -361l-31 -182h283l-19 -109h-284l-21 -116q-20 -119 -60 -202t-120 -142h563q63 133 139 241l25 35l70 -16q-49 -172 -66 -264l-20 -111h-1014l12 68
l156 41q43 76 90 323l26 143h-182l19 109h182l31 172q39 223 179 348t347 125z" />
    <glyph glyph-name="yen" unicode="&#xa5;" horiz-adv-x="1400" 
d="M219 575l19 109h274l-221 514l-119 45l10 66h531l-11 -66l-157 -45l203 -514h2l409 514l-139 45l12 66h432l-12 -66l-141 -45l-418 -514h289l-21 -109h-356l-10 -12l-19 -98h367l-19 -109h-366l-43 -243l164 -45l-11 -68h-567l10 68l181 45l43 243h-353l19 109h352l16 88
l-10 22h-340z" />
    <glyph glyph-name="brokenbar" unicode="&#xa6;" horiz-adv-x="530" 
d="M334 758h-137v725h137v-725zM334 -252h-137v725h137v-725z" />
    <glyph glyph-name="section" unicode="&#xa7;" horiz-adv-x="1183" 
d="M461 766q-31 10 -53 25q-96 -78 -96 -215t184 -216l190 -77l53 -27q97 82 97 219t-183 213zM1047 528q0 -211 -224 -335q94 -90 95 -205q0 -174 -138 -262t-334 -88q-120 0 -252 30t-169 35l16 98q16 78 10 170l-2 33l90 23q63 -70 86 -211q105 -68 233 -68t191 53
t64 129q0 102 -158 172l-203 86q-120 50 -186 136t-66 196q0 209 224 334q-92 88 -93 207q-1 174 137 262t332 88q119 0 255 -32t169 -36l-18 -98q-13 -83 -8 -168v-33l-90 -22q-63 70 -84 209q-104 67 -234 67t-191 -52q-62 -52 -63 -128q0 -102 156 -172l203 -86
q119 -49 185 -135t67 -197z" />
    <glyph glyph-name="dieresis" unicode="&#xa8;" horiz-adv-x="684" 
d="M592 1227q-43 -1 -68 25q-24 26 -24 69t37 79t80 36t67 -27t25 -69q0 -42 -37 -78q-37 -35 -80 -35zM293 1227q-43 1 -68 27t-25 68t39 78q38 36 80 36q43 0 67 -27t24 -69t-37 -78q-37 -35 -80 -35z" />
    <glyph glyph-name="copyright" unicode="&#xa9;" horiz-adv-x="1671" 
d="M850 207q-199 0 -321 122q-121 122 -121 346t134 352t343 128q65 0 147 -14t107 -15v-84q0 -58 12 -127l6 -22l-74 -23q-59 55 -94 170q-53 29 -112 29q-117 0 -186 -99q-69 -98 -69 -270t76 -260q74 -88 195 -88q66 0 118 22q51 22 75 44t55 61l47 -26
q-31 -96 -115 -171t-223 -75zM844 1343q-266 0 -454 -190q-188 -191 -187 -459q0 -268 187 -457q188 -189 454 -189t454 188q188 190 189 458q-1 268 -189 458t-454 191zM129 694q0 297 209 507t506 210t507 -210t210 -507t-210 -506q-210 -208 -507 -208t-506 208t-209 506
z" />
    <glyph glyph-name="ordfeminine" unicode="&#xaa;" horiz-adv-x="743" 
d="M356 891q45 0 86 61t56 144l20 121q-29 47 -85 47t-97 -78t-41 -186t61 -109zM621 872q21 0 65 70l35 -20q-28 -85 -101 -121q-30 -15 -70 -15t-61 30q-20 30 -16 71l4 31h-4q-70 -132 -176 -132q-68 0 -111 48t-43 139q0 154 85 255t210 101q84 0 140 -45l55 43l49 -6
l-74 -418q-8 -31 13 -31z" />
    <glyph glyph-name="guillemotleft" unicode="&#xab;" horiz-adv-x="1081" 
d="M1004 948l-304 -430l152 -424h-123l-227 379v82l379 393h123zM563 948l-303 -430l152 -424h-123l-228 379v82l379 393h123z" />
    <glyph glyph-name="logicalnot" unicode="&#xac;" horiz-adv-x="1024" 
d="M98 530v138h828v-469h-138v331h-690z" />
    <glyph glyph-name="registered" unicode="&#xae;" horiz-adv-x="1261" 
d="M670 1112h-58v-231h115q66 35 66 120q0 111 -123 111zM999 569h-161q-45 16 -76 88l-72 166h-78v-198l62 -19v-37h-264v37l63 19v493l-63 19v37h286q108 0 174 -41t66 -127q0 -113 -113 -158v-2l58 -125q50 -98 118 -115v-37zM1163 862q0 200 -140 342t-338 142
t-337 -142t-139 -342q0 -201 139 -342t337 -141t338 142t140 341zM139 862q0 227 160 388t386 161t388 -161t162 -388t-161 -387t-388 -160t-387 160t-160 387z" />
    <glyph glyph-name="macron" unicode="&#xaf;" horiz-adv-x="698" 
d="M184 1245l23 131h469l-23 -131h-469z" />
    <glyph glyph-name="degree" unicode="&#xb0;" horiz-adv-x="663" 
d="M262 1071q0 -63 40 -107t93 -44t92 45t39 106t-39 107t-92 45t-93 -45t-40 -107zM147 1071q0 106 73 182t175 76t176 -76t74 -182t-74 -181t-176 -75t-175 75t-73 181z" />
    <glyph glyph-name="plusminus" unicode="&#xb1;" horiz-adv-x="1024" 
d="M98 16v138h828v-138h-828zM98 567v135h346v320h136v-320h346v-135h-346v-319h-136v319h-346z" />
    <glyph glyph-name="twosuperior" unicode="&#xb2;" horiz-adv-x="806" 
d="M127 664v63q2 2 43 30t55 39q13 11 55 41t61 48t54 48t72 82q55 75 55 130q0 76 -84 76q-104 0 -182 -93l-37 33q37 63 108 115t161 53q90 0 140 -44q50 -43 50 -105q0 -148 -184 -284q-74 -54 -203 -132v-2h266q30 55 82 98l37 -14q-25 -68 -33 -121l-10 -61h-506z" />
    <glyph glyph-name="threesuperior" unicode="&#xb3;" horiz-adv-x="780" 
d="M502 1163q0 72 -91 72t-169 -74l-27 31q33 55 103 96t155 41q86 0 133 -39t47 -98q0 -111 -147 -160v-2q51 -14 87 -52t36 -97q0 -105 -85 -165t-212 -61q-66 1 -124 17t-81 39q13 71 32 100q19 28 23 31h54q-8 -61 4 -97q31 -23 94 -23t102 38q39 37 39 93q0 95 -75 116
q-28 8 -72 16l22 55q72 6 112 32t40 91z" />
    <glyph glyph-name="acute" unicode="&#xb4;" horiz-adv-x="591" 
d="M467 1499h22l91 -129l-369 -211l-43 60z" />
    <glyph glyph-name="mu" unicode="&#xb5;" horiz-adv-x="1222" 
d="M410 -20q-55 0 -105 16l-29 -338h-215l213 1204q10 63 -26 64q-25 0 -60 -39t-57 -78l-22 -39l-58 33q40 100 86 151q96 105 207 105q80 0 117 -52t24 -126l-118 -670q19 -72 125 -72t206 131t133 324l78 444h209l-151 -862q-10 -63 26 -63q25 0 60 39t57 77l23 39
l57 -32q-4 -10 -10 -28t-32 -62t-56 -78t-83 -61q-52 -27 -120 -27t-102 51t-19 127l18 98l-10 2q-137 -278 -366 -278z" />
    <glyph glyph-name="paragraph" unicode="&#xb6;" horiz-adv-x="1079" 
d="M971 1278l-209 -1182q-80 -459 -557 -458q-88 0 -131 18q2 66 21 126t38 87l19 29l131 -15q-29 -63 -37 -129q317 8 372 326l232 1311h301l-12 -68zM727 1391l-182 -1045q-236 2 -354 129t-117 330q0 252 187 419t466 167z" />
    <glyph glyph-name="periodcentered" unicode="&#xb7;" horiz-adv-x="575" 
d="M269 485q-56 0 -90 31t-34 86t44 99q43 44 101 44q58 1 91 -31t33 -87t-44 -99q-45 -43 -101 -43z" />
    <glyph glyph-name="cedilla" unicode="&#xb8;" horiz-adv-x="561" 
d="M334 -197q0 -77 -66 -121t-170 -44t-166 55l35 49q49 -33 111 -33t88 24q27 24 27 58q0 72 -127 98l2 9l118 133h99l-86 -97q61 -12 98 -48t37 -83z" />
    <glyph glyph-name="onesuperior" unicode="&#xb9;" horiz-adv-x="634" 
d="M303 1198q-74 0 -102 14l6 41q143 14 250 76l41 -12l-101 -582l109 -28l-8 -43h-371l6 43l117 28l80 463h-27z" />
    <glyph glyph-name="ordmasculine" unicode="&#xba;" horiz-adv-x="686" 
d="M373 852q71 0 107 84t36 206t-88 122q-68 0 -102 -86t-35 -206q0 -120 82 -120zM420 1329q116 -1 180 -63t64 -184t-82 -208q-82 -88 -196 -88t-178 62q-65 62 -65 184q0 123 81 210t196 87z" />
    <glyph glyph-name="guillemotright" unicode="&#xbb;" horiz-adv-x="1081" 
d="M465 94l303 430l-152 424h123l228 -379v-82l-379 -393h-123zM25 94l303 430l-152 424h123l227 -379v-82l-379 -393h-122z" />
    <glyph glyph-name="onequarter" unicode="&#xbc;" horiz-adv-x="1290" 
d="M242 0h-105l922 1309h104zM305 1198q-74 0 -102 14l6 41q143 14 250 76l41 -12l-101 -582l109 -28l-8 -43h-371l6 43l117 28l80 463h-27zM879 502l-236 -273h191l49 273h-4zM530 162l7 43l393 448h127l-76 -424h80l-10 -67h-80l-19 -99l70 -22l-6 -41h-301l6 41l84 22
l18 99h-293z" />
    <glyph glyph-name="onehalf" unicode="&#xbd;" horiz-adv-x="1284" 
d="M231 0h-104l922 1309h104zM305 1198q-74 0 -102 14l6 41q143 14 250 76l41 -12l-101 -582l109 -28l-8 -43h-371l6 43l117 28l80 463h-27zM604 0v63q2 2 43 30t55 39t56 41t60 48q19 18 54 48t53 54q17 24 45 64t29 94q0 76 -84 76q-104 0 -182 -92l-37 33q37 63 108 115
q71 53 161 53t140 -44t50 -106q0 -149 -184 -284q-66 -48 -99 -68t-104 -64v-2h266q27 48 82 99l37 -15q-25 -68 -33 -121l-10 -61h-506z" />
    <glyph glyph-name="threequarters" unicode="&#xbe;" horiz-adv-x="1343" 
d="M295 0h-105l922 1309h105zM502 1163q0 72 -91 72t-169 -74l-27 31q33 55 103 96t155 41q86 0 133 -39t47 -98q0 -111 -147 -160v-2q51 -14 87 -52t36 -97q0 -105 -85 -165t-212 -61q-66 1 -124 17t-81 39q13 71 32 100q19 28 23 31h54q-8 -61 4 -97q31 -23 94 -23t102 38
q39 37 39 93q0 95 -75 116q-28 8 -72 16l22 55q72 6 112 32t40 91zM926 502l-236 -273h193l47 273h-4zM578 162l8 43l391 448h127l-76 -424h80l-10 -67h-80l-19 -99l70 -22l-6 -41h-301l6 41l86 22l16 99h-292z" />
    <glyph glyph-name="questiondown" unicode="&#xbf;" horiz-adv-x="989" 
d="M664 799q-54 0 -86 34q-32 35 -33 87q0 52 46 96t99 43q53 0 86 -34t33 -87t-46 -96q-45 -43 -99 -43zM387 -373q-176 0 -278 80q-103 80 -103 210q-1 246 176 378q155 114 348 147l66 224h74l-17 -363q-59 -8 -94 -15t-107 -35t-116 -64q-43 -37 -79 -105t-36 -162
q1 -94 61 -140t153 -46t188 57q24 82 24 146l-2 20l154 21q23 -109 -6 -199q-160 -154 -406 -154z" />
    <glyph glyph-name="Agrave" unicode="&#xc0;" horiz-adv-x="1355" 
d="M565 1851h25l299 -280l-45 -60l-367 211zM711 1102h-9l-303 -559h424zM-147 0l12 66l149 45l723 1280l133 20l277 -1300l125 -45l-10 -66h-533l12 66l168 45l-65 329h-502l-178 -329l147 -45l-10 -66h-448z" />
    <glyph glyph-name="Aacute" unicode="&#xc1;" horiz-adv-x="1355" 
d="M1049 1851h22l90 -129l-368 -211l-43 60zM711 1102h-9l-303 -559h424zM-147 0l12 66l149 45l723 1280l133 20l277 -1300l125 -45l-10 -66h-533l12 66l168 45l-65 329h-502l-178 -329l147 -45l-10 -66h-448z" />
    <glyph glyph-name="Acircumflex" unicode="&#xc2;" horiz-adv-x="1355" 
d="M905 1839l195 -272l-60 -54l-213 156l-266 -156l-43 54l293 272h94zM711 1102h-9l-303 -559h424zM-147 0l12 66l149 45l723 1280l133 20l277 -1300l125 -45l-10 -66h-533l12 66l168 45l-65 329h-502l-178 -329l147 -45l-10 -66h-448z" />
    <glyph glyph-name="Atilde" unicode="&#xc3;" horiz-adv-x="1355" 
d="M696 1802q70 0 156 -42t135 -42q49 23 109 113l59 -31q-25 -59 -47 -98t-68 -80q-48 -41 -108 -41t-148 44t-149 44q-57 -25 -129 -127l-64 37q115 223 254 223zM711 1102h-9l-303 -559h424zM-147 0l12 66l149 45l723 1280l133 20l277 -1300l125 -45l-10 -66h-533l12 66
l168 45l-65 329h-502l-178 -329l147 -45l-10 -66h-448z" />
    <glyph glyph-name="Adieresis" unicode="&#xc4;" horiz-adv-x="1355" 
d="M958 1579q-44 0 -68 26q-24 27 -24 69t37 78t80 36t68 -27t25 -69t-38 -78q-37 -35 -80 -35zM659 1579q-43 0 -67 27q-24 26 -25 68q0 42 38 78t80 36t67 -27q24 -27 24 -69t-37 -78q-37 -35 -80 -35zM711 1102h-9l-303 -559h424zM-147 0l12 66l149 45l723 1280l133 20
l277 -1300l125 -45l-10 -66h-533l12 66l168 45l-65 329h-502l-178 -329l147 -45l-10 -66h-448z" />
    <glyph glyph-name="Aring" unicode="&#xc5;" horiz-adv-x="1355" 
d="M829 1573q98 0 99 129q0 80 -76 80q-100 0 -100 -129q-1 -80 77 -80zM850 1845q92 1 143 -41t51 -122t-60 -128t-152 -47q-92 0 -144 43q-53 43 -53 122t62 126q61 47 153 47zM711 1102h-9l-303 -559h424zM-147 0l12 66l149 45l723 1280l133 20l277 -1300l125 -45
l-10 -66h-533l12 66l168 45l-65 329h-502l-178 -329l147 -45l-10 -66h-448z" />
    <glyph glyph-name="AE" unicode="&#xc6;" horiz-adv-x="1937" 
d="M997 1278h-4l-520 -727h395zM-4 111l934 1280h979l-19 -107q-13 -69 -20 -207l-2 -41l-78 -16q-51 100 -68 256h-501l-93 -514l424 6l60 113h78l-62 -344h-74l-22 112l-420 4l-96 -538h547q64 135 137 237l24 33l70 -14q-49 -172 -65 -265l-19 -106h-1096l13 68l166 45
l57 336h-451l-241 -338l147 -45l-10 -66h-442l12 66z" />
    <glyph glyph-name="Ccedilla" unicode="&#xc7;" horiz-adv-x="1261" 
d="M705 -197q0 -77 -66 -121t-170 -44t-166 55l35 49q48 -33 110 -33t89 24t26 58q0 72 -127 98l2 9l84 96q-202 41 -318 199t-116 405q0 375 220 594t536 219q115 1 246 -23t161 -26l-20 -121q-16 -78 -10 -172v-33l-88 -20q-66 68 -93 225q-104 57 -247 57
q-195 0 -327 -186t-132 -479q0 -225 108 -351t281 -126q135 0 224 57t175 162l47 -37q-63 -139 -191 -249t-319 -109l-49 2l-41 -48q61 -12 99 -48t37 -83z" />
    <glyph glyph-name="Egrave" unicode="&#xc8;" horiz-adv-x="1251" 
d="M547 1851h24l299 -280l-45 -60l-366 211zM868 537l-26 112l-418 4l-96 -538h546q72 152 138 237l24 33l70 -14q-49 -172 -66 -265l-18 -106h-1096l13 68l163 45l207 1165l-147 45l10 68h1051l-21 -107q-13 -69 -20 -207l-2 -41l-80 -16q-49 100 -68 256h-500l-90 -514
l422 6l60 113h77l-61 -344h-72z" />
    <glyph glyph-name="Eacute" unicode="&#xc9;" horiz-adv-x="1251" 
d="M868 537l-26 112l-418 4l-96 -538h546q72 152 138 237l24 33l70 -14q-49 -172 -66 -265l-18 -106h-1096l13 68l163 45l207 1165l-147 45l10 68h1051l-21 -107q-13 -69 -20 -207l-2 -41l-80 -16q-49 100 -68 256h-500l-90 -514l422 6l60 113h77l-61 -344h-72zM948 1851h23
l90 -129l-369 -211l-43 60z" />
    <glyph glyph-name="Ecircumflex" unicode="&#xca;" horiz-adv-x="1251" 
d="M868 537l-26 112l-418 4l-96 -538h546q72 152 138 237l24 33l70 -14q-49 -172 -66 -265l-18 -106h-1096l13 68l163 45l207 1165l-147 45l10 68h1051l-21 -107q-13 -69 -20 -207l-2 -41l-80 -16q-49 100 -68 256h-500l-90 -514l422 6l60 113h77l-61 -344h-72zM858 1839
l195 -272l-60 -54l-213 156l-266 -156l-43 54l293 272h94z" />
    <glyph glyph-name="Edieresis" unicode="&#xcb;" horiz-adv-x="1251" 
d="M868 537l-26 112l-418 4l-96 -538h546q72 152 138 237l24 33l70 -14q-49 -172 -66 -265l-18 -106h-1096l13 68l163 45l207 1165l-147 45l10 68h1051l-21 -107q-13 -69 -20 -207l-2 -41l-80 -16q-49 100 -68 256h-500l-90 -514l422 6l60 113h77l-61 -344h-72zM903 1579
q-43 0 -67 26q-24 27 -25 69q0 42 37 78t80 36q44 0 68 -27t24 -69t-37 -78q-37 -35 -80 -35zM604 1579q-44 0 -68 27q-24 26 -24 68t38 78t80 36t66 -27t25 -69q0 -42 -37 -78q-37 -35 -80 -35z" />
    <glyph glyph-name="Igrave" unicode="&#xcc;" horiz-adv-x="636" 
d="M229 1851h25l299 -280l-45 -60l-367 211zM-74 0l13 68l163 45l207 1165l-147 45l10 68h537l-11 -68l-163 -45l-207 -1165l147 -45l-12 -68h-537z" />
    <glyph glyph-name="Iacute" unicode="&#xcd;" horiz-adv-x="636" 
d="M696 1851h23l90 -129l-369 -211l-43 60zM-74 0l13 68l163 45l207 1165l-147 45l10 68h537l-11 -68l-163 -45l-207 -1165l147 -45l-12 -68h-537z" />
    <glyph glyph-name="Icircumflex" unicode="&#xce;" horiz-adv-x="636" 
d="M565 1839l195 -272l-60 -54l-213 156l-266 -156l-43 54l293 272h94zM-74 0l13 68l163 45l207 1165l-147 45l10 68h537l-11 -68l-163 -45l-207 -1165l147 -45l-12 -68h-537z" />
    <glyph glyph-name="Idieresis" unicode="&#xcf;" horiz-adv-x="636" 
d="M618 1579q-44 0 -68 26q-24 27 -24 69t37 78t80 36t68 -27t25 -69t-38 -78q-37 -35 -80 -35zM319 1579q-43 0 -67 27q-24 26 -25 68q0 42 38 78t80 36t67 -27q24 -27 24 -69t-37 -78q-37 -35 -80 -35zM-74 0l13 68l163 45l207 1165l-147 45l10 68h537l-11 -68l-163 -45
l-207 -1165l147 -45l-12 -68h-537z" />
    <glyph glyph-name="Eth" unicode="&#xd0;" horiz-adv-x="1454" 
d="M717 1278h-185l-86 -487h275l-21 -115h-274l-98 -559h245q252 -1 402 193t149 497q0 213 -109 342q-110 129 -298 129zM741 1391q283 0 454 -157t171 -415t-115 -444q-115 -187 -298 -281t-402 -94h-625l13 68l163 45l101 563h-170l20 115h170l86 487l-147 45l10 68h569z
" />
    <glyph glyph-name="Ntilde" unicode="&#xd1;" horiz-adv-x="1447" 
d="M1002 1556q-60 0 -148 44t-149 45q-58 -25 -130 -127l-63 36q115 223 254 224q70 0 156 -42t135 -42q49 23 108 112l60 -30q-25 -58 -47 -98t-68 -81q-48 -41 -108 -41zM1010 0l-590 1114l-176 -1003l147 -45l-12 -66h-453l13 66l163 45l207 1169l-147 45l10 66h367
l518 -981l153 870l-147 45l12 66h453l-12 -66l-164 -45l-228 -1280h-114z" />
    <glyph glyph-name="Ograve" unicode="&#xd2;" horiz-adv-x="1454" 
d="M563 1851h25l299 -280l-45 -60l-367 211zM328 545q0 -205 88 -328t234 -123q148 0 259 110q215 213 215 634q0 204 -84 332t-239 128q-207 0 -340 -208t-133 -545zM657 -20q-257 0 -413 160t-156 433q0 381 208 609t509 229q261 0 411 -162t150 -440q0 -361 -208 -595
t-501 -234z" />
    <glyph glyph-name="Oacute" unicode="&#xd3;" horiz-adv-x="1454" 
d="M328 545q0 -205 88 -328t234 -123q148 0 259 110q215 213 215 634q0 204 -84 332t-239 128q-207 0 -340 -208t-133 -545zM657 -20q-257 0 -413 160t-156 433q0 381 208 609t509 229q261 0 411 -162t150 -440q0 -361 -208 -595t-501 -234zM1030 1851h23l90 -129l-369 -211
l-43 60z" />
    <glyph glyph-name="Ocircumflex" unicode="&#xd4;" horiz-adv-x="1454" 
d="M328 545q0 -205 88 -328t234 -123q148 0 259 110q215 213 215 634q0 204 -84 332t-239 128q-207 0 -340 -208t-133 -545zM657 -20q-257 0 -413 160t-156 433q0 381 208 609t509 229q261 0 411 -162t150 -440q0 -361 -208 -595t-501 -234zM920 1839l194 -272l-59 -54
l-213 156l-267 -156l-43 54l293 272h95z" />
    <glyph glyph-name="Otilde" unicode="&#xd5;" horiz-adv-x="1454" 
d="M713 1802q69 0 155 -42t136 -42q49 23 108 113l59 -31q-25 -59 -47 -98t-68 -80t-107 -41t-149 44t-149 44q-57 -25 -129 -127l-63 37q115 223 254 223zM328 545q0 -205 88 -328t234 -123q148 0 259 110q215 213 215 634q0 204 -84 332t-239 128q-207 0 -340 -208
t-133 -545zM657 -20q-257 0 -413 160t-156 433q0 381 208 609t509 229q261 0 411 -162t150 -440q0 -361 -208 -595t-501 -234z" />
    <glyph glyph-name="Odieresis" unicode="&#xd6;" horiz-adv-x="1454" 
d="M328 545q0 -205 88 -328t234 -123q148 0 259 110q215 213 215 634q0 204 -84 332t-239 128q-207 0 -340 -208t-133 -545zM657 -20q-257 0 -413 160t-156 433q0 381 208 609t509 229q261 0 411 -162t150 -440q0 -361 -208 -595t-501 -234zM973 1579q-43 0 -68 26
q-25 27 -25 69t38 78q37 36 80 36q44 0 68 -27t24 -69t-37 -78q-37 -35 -80 -35zM674 1579q-43 0 -68 27q-24 26 -24 68t38 78t80 36t66 -27t25 -69q0 -42 -37 -78q-37 -35 -80 -35z" />
    <glyph glyph-name="multiply" unicode="&#xd7;" horiz-adv-x="878" 
d="M195 260l-97 98l244 244l-244 246l97 96l243 -246l246 246l96 -96l-245 -246l245 -244l-96 -98l-246 246z" />
    <glyph glyph-name="Oslash" unicode="&#xd8;" horiz-adv-x="1454" 
d="M648 94q150 0 261 110q215 213 215 634q0 131 -37 235l-679 -846q90 -133 240 -133zM328 545q0 -131 37 -230l679 846q-84 137 -243 137q-207 0 -340 -208t-133 -545zM88 573q0 381 208 609t509 229q209 0 352 -108l88 108h115l-137 -170q143 -162 143 -432
q0 -361 -208 -595t-501 -234q-209 0 -358 110l-88 -110h-117l139 172q-145 162 -145 421z" />
    <glyph glyph-name="Ugrave" unicode="&#xd9;" horiz-adv-x="1435" 
d="M627 1851h24l299 -280l-45 -60l-366 211zM618 -20q-202 0 -334 76t-167 220l178 1002l-152 45l13 68h536l-12 -68l-164 -45l-158 -897q-24 -127 58 -203t231 -76t260 77t135 210l156 889l-149 45l12 68h461l-13 -68l-163 -45l-175 -981q-74 -149 -212 -233
q-139 -84 -341 -84z" />
    <glyph glyph-name="Uacute" unicode="&#xda;" horiz-adv-x="1435" 
d="M618 -20q-202 0 -334 76t-167 220l178 1002l-152 45l13 68h536l-12 -68l-164 -45l-158 -897q-24 -127 58 -203t231 -76t260 77t135 210l156 889l-149 45l12 68h461l-13 -68l-163 -45l-175 -981q-74 -149 -212 -233q-139 -84 -341 -84zM1122 1851h23l90 -129l-369 -211
l-43 60z" />
    <glyph glyph-name="Ucircumflex" unicode="&#xdb;" horiz-adv-x="1435" 
d="M618 -20q-202 0 -334 76t-167 220l178 1002l-152 45l13 68h536l-12 -68l-164 -45l-158 -897q-24 -127 58 -203t231 -76t260 77t135 210l156 889l-149 45l12 68h461l-13 -68l-163 -45l-175 -981q-74 -149 -212 -233q-139 -84 -341 -84zM969 1839l194 -272l-59 -54
l-213 156l-266 -156l-43 54l292 272h95z" />
    <glyph glyph-name="Udieresis" unicode="&#xdc;" horiz-adv-x="1435" 
d="M618 -20q-202 0 -334 76t-167 220l178 1002l-152 45l13 68h536l-12 -68l-164 -45l-158 -897q-24 -127 58 -203t231 -76t260 77t135 210l156 889l-149 45l12 68h461l-13 -68l-163 -45l-175 -981q-74 -149 -212 -233q-139 -84 -341 -84zM1030 1579q-44 0 -68 26
q-24 27 -24 69t37 78t80 36t67 -27t25 -69q0 -42 -37 -78q-37 -35 -80 -35zM731 1579q-43 0 -67 27q-24 26 -25 68q0 42 38 78t80 36q43 0 67 -27t24 -69t-37 -78q-37 -35 -80 -35z" />
    <glyph glyph-name="Yacute" unicode="&#xdd;" horiz-adv-x="1308" 
d="M1040 1851h23l90 -129l-369 -211l-43 60zM238 0l10 68l182 45l78 440l-305 727l-121 45l12 66h527l-13 -66l-157 -45l231 -596h4l465 596l-139 45l10 66h434l-12 -66l-141 -45l-570 -717l-80 -450l164 -45l-10 -68h-569z" />
    <glyph glyph-name="Thorn" unicode="&#xde;" horiz-adv-x="1208" 
d="M649 266q-88 0 -180 33l12 68h94q178 2 276 103q97 101 97 286q0 118 -74 184t-210 66h-181l-155 -893l164 -45l-13 -68h-553l13 68l163 45l207 1165l-147 45l10 68h537l-11 -68l-163 -45l-31 -158h196q218 0 352 -95t134 -280q0 -219 -154 -349t-383 -130z" />
    <glyph glyph-name="germandbls" unicode="&#xdf;" horiz-adv-x="1214" 
d="M842 1503q147 -1 234 -67t87 -160t-53 -164q-54 -70 -116 -111t-115 -99t-53 -118t59 -106l149 -119q123 -100 123 -242q0 -141 -113 -239t-248 -98t-255 45q2 61 19 119t34 87l16 29l123 -18q-33 -68 -41 -148q55 -22 117 -22q61 0 105 50t44 129t-84 146l-118 97
q-125 106 -125 215q0 81 52 151q51 70 113 116t114 112t52 139q0 74 -46 123q-48 49 -130 49q-229 0 -290 -357l-170 -1007q-35 -197 -132 -297t-241 -100q-94 0 -197 51q2 59 23 113q20 54 41 79l18 23l121 -21q-41 -61 -51 -145q20 -4 49 -4q112 0 158 280l149 904h-162
l19 90l160 20l4 21q33 193 193 323t364 131z" />
    <glyph glyph-name="agrave" unicode="&#xe0;" horiz-adv-x="1183" 
d="M420 1499h24l299 -280l-45 -60l-366 211zM446 139q109 0 206 134t130 321l39 225q-67 133 -205 133t-230 -182t-94 -406q0 -224 154 -225zM381 -20q-149 0 -231 97t-82 259q0 301 172 512t403 211q150 0 250 -96l108 96l72 -15l-155 -868q-10 -63 26 -63q25 0 60 39
t57 77l22 39l58 -32q-5 -10 -11 -28t-30 -62t-54 -78t-81 -61t-118 -27t-104 55t-20 133l16 88l-10 2q-139 -278 -348 -278z" />
    <glyph glyph-name="aacute" unicode="&#xe1;" horiz-adv-x="1183" 
d="M956 1499h23l90 -129l-369 -211l-43 60zM446 139q109 0 206 134t130 321l39 225q-67 133 -205 133t-230 -182t-94 -406q0 -224 154 -225zM381 -20q-149 0 -231 97t-82 259q0 301 172 512t403 211q150 0 250 -96l108 96l72 -15l-155 -868q-10 -63 26 -63q25 0 60 39t57 77
l22 39l58 -32q-5 -10 -11 -28t-30 -62t-54 -78t-81 -61t-118 -27t-104 55t-20 133l16 88l-10 2q-139 -278 -348 -278z" />
    <glyph glyph-name="acircumflex" unicode="&#xe2;" horiz-adv-x="1183" 
d="M758 1487l194 -273l-59 -53l-213 156l-266 -156l-43 53l293 273h94zM446 139q109 0 206 134t130 321l39 225q-67 133 -205 133t-230 -182t-94 -406q0 -224 154 -225zM381 -20q-149 0 -231 97t-82 259q0 301 172 512t403 211q150 0 250 -96l108 96l72 -15l-155 -868
q-10 -63 26 -63q25 0 60 39t57 77l22 39l58 -32q-5 -10 -11 -28t-30 -62t-54 -78t-81 -61t-118 -27t-104 55t-20 133l16 88l-10 2q-139 -278 -348 -278z" />
    <glyph glyph-name="atilde" unicode="&#xe3;" horiz-adv-x="1183" 
d="M584 1450q70 0 156 -42t134 -42q49 23 109 113l59 -31q-24 -59 -46 -98t-68 -80t-109 -41q-61 0 -149 44t-148 44q-57 -25 -129 -127l-63 37q115 223 254 223zM446 139q109 0 206 134t130 321l39 225q-67 133 -205 133t-230 -182t-94 -406q0 -224 154 -225zM381 -20
q-149 0 -231 97t-82 259q0 301 172 512t403 211q150 0 250 -96l108 96l72 -15l-155 -868q-10 -63 26 -63q25 0 60 39t57 77l22 39l58 -32q-5 -10 -11 -28t-30 -62t-54 -78t-81 -61t-118 -27t-104 55t-20 133l16 88l-10 2q-139 -278 -348 -278z" />
    <glyph glyph-name="adieresis" unicode="&#xe4;" horiz-adv-x="1183" 
d="M837 1227q-43 -1 -67 25t-25 69q0 43 37 79t80 36t68 -27q24 -27 24 -69t-37 -78q-37 -35 -80 -35zM538 1227q-44 1 -68 27t-24 68t38 78t80 36t67 -27t25 -69t-38 -78q-37 -35 -80 -35zM446 139q109 0 206 134t130 321l39 225q-67 133 -205 133t-230 -182t-94 -406
q0 -224 154 -225zM381 -20q-149 0 -231 97t-82 259q0 301 172 512t403 211q150 0 250 -96l108 96l72 -15l-155 -868q-10 -63 26 -63q25 0 60 39t57 77l22 39l58 -32q-5 -10 -11 -28t-30 -62t-54 -78t-81 -61t-118 -27t-104 55t-20 133l16 88l-10 2q-139 -278 -348 -278z" />
    <glyph glyph-name="aring" unicode="&#xe5;" horiz-adv-x="1183" 
d="M707 1221q98 0 98 129q0 80 -76 80q-100 0 -100 -130q0 -79 78 -79zM728 1493q92 0 142 -42q52 -42 52 -122t-60 -127t-152 -47t-145 43t-53 122t62 126t154 47zM446 139q109 0 206 134t130 321l39 225q-67 133 -205 133t-230 -182t-94 -406q0 -224 154 -225zM381 -20
q-149 0 -231 97t-82 259q0 301 172 512t403 211q150 0 250 -96l108 96l72 -15l-155 -868q-10 -63 26 -63q25 0 60 39t57 77l22 39l58 -32q-5 -10 -11 -28t-30 -62t-54 -78t-81 -61t-118 -27t-104 55t-20 133l16 88l-10 2q-139 -278 -348 -278z" />
    <glyph glyph-name="ae" unicode="&#xe6;" horiz-adv-x="1646" 
d="M1257 956q-117 0 -203 -112t-110 -303q453 27 453 274q0 66 -39 104q-40 37 -101 37zM625 952q-98 0 -176 -91t-116 -222t-38 -266q0 -233 154 -234q79 0 155 75t127 196q8 238 127 407q-86 135 -233 135zM1106 -20q-150 0 -244 72t-121 210h-6q-141 -283 -352 -282
q-151 0 -233 97t-82 259q0 301 173 512t404 211q182 0 313 -127q145 127 326 127q141 0 224 -68t83 -176q0 -157 -127 -236q-127 -80 -265 -102t-263 -31v-38q0 -137 62 -205t171 -68q166 0 318 182l43 -34q-150 -303 -424 -303z" />
    <glyph glyph-name="ccedilla" unicode="&#xe7;" horiz-adv-x="966" 
d="M604 952q-156 0 -240 -138t-83 -363q0 -156 63 -234t174 -78q164 0 305 213l47 -24q-48 -150 -158 -251t-263 -102q-39 0 -56 2l-39 -43q60 -12 98 -48t37 -83q1 -77 -65 -121t-170 -44t-166 55l35 49q49 -33 111 -33t88 24q27 24 26 58q0 72 -127 98l2 9l86 98
q-241 74 -241 385t172 495t397 183q106 0 185 -30t116 -71q-2 -59 -24 -119t-40 -90t-20 -30l-125 18q25 80 33 166q-68 49 -158 49z" />
    <glyph glyph-name="egrave" unicode="&#xe8;" horiz-adv-x="987" 
d="M385 1499h25l299 -280l-45 -60l-367 211zM598 956q-117 0 -203 -112t-110 -303q453 27 452 274q0 65 -39 103t-100 38zM446 -20q-180 0 -279 102t-99 293q0 305 166 494q167 189 391 190q141 0 224 -68t83 -176q0 -155 -126 -235t-265 -103q-138 -22 -265 -31v-38
q0 -137 62 -205t172 -68q166 0 317 182l43 -34q-150 -303 -424 -303z" />
    <glyph glyph-name="eacute" unicode="&#xe9;" horiz-adv-x="987" 
d="M598 956q-117 0 -203 -112t-110 -303q453 27 452 274q0 65 -39 103t-100 38zM446 -20q-180 0 -279 102t-99 293q0 305 166 494q167 189 391 190q141 0 224 -68t83 -176q0 -155 -126 -235t-265 -103q-138 -22 -265 -31v-38q0 -137 62 -205t172 -68q166 0 317 182l43 -34
q-150 -303 -424 -303zM860 1499h23l90 -129l-369 -211l-43 60z" />
    <glyph glyph-name="ecircumflex" unicode="&#xea;" horiz-adv-x="987" 
d="M598 956q-117 0 -203 -112t-110 -303q453 27 452 274q0 65 -39 103t-100 38zM446 -20q-180 0 -279 102t-99 293q0 305 166 494q167 189 391 190q141 0 224 -68t83 -176q0 -155 -126 -235t-265 -103q-138 -22 -265 -31v-38q0 -137 62 -205t172 -68q166 0 317 182l43 -34
q-150 -303 -424 -303zM709 1487l194 -273l-59 -53l-213 156l-266 -156l-43 53l292 273h95z" />
    <glyph glyph-name="edieresis" unicode="&#xeb;" horiz-adv-x="987" 
d="M598 956q-117 0 -203 -112t-110 -303q453 27 452 274q0 65 -39 103t-100 38zM446 -20q-180 0 -279 102t-99 293q0 305 166 494q167 189 391 190q141 0 224 -68t83 -176q0 -155 -126 -235t-265 -103q-138 -22 -265 -31v-38q0 -137 62 -205t172 -68q166 0 317 182l43 -34
q-150 -303 -424 -303zM758 1227q-43 -1 -68 25q-24 26 -24 69t36 79q37 36 80 36t68 -27q24 -27 24 -69t-36 -78q-36 -35 -80 -35zM459 1227q-43 1 -68 27t-25 68t38 78t80 36t67 -27t25 -69t-38 -78q-36 -35 -79 -35z" />
    <glyph glyph-name="igrave" unicode="&#xec;" horiz-adv-x="628" 
d="M147 1499h25l299 -280l-45 -60l-367 211zM342 1059q84 0 121 -49t22 -129l-133 -705q-10 -63 27 -63q25 0 59 39t58 77l22 39l57 -32l-11 -28q-7 -18 -33 -62q-97 -166 -259 -166q-68 0 -106 52q-37 52 -25 126l131 704q10 63 -26 64q-25 0 -60 -39t-57 -78l-23 -39
l-57 33q40 100 86 151q96 105 207 105z" />
    <glyph glyph-name="iacute" unicode="&#xed;" horiz-adv-x="628" 
d="M342 1059q84 0 121 -49t22 -129l-133 -705q-10 -63 27 -63q25 0 59 39t58 77l22 39l57 -32l-11 -28q-7 -18 -33 -62q-97 -166 -259 -166q-68 0 -106 52q-37 52 -25 126l131 704q10 63 -26 64q-25 0 -60 -39t-57 -78l-23 -39l-57 33q40 100 86 151q96 105 207 105z
M602 1499h23l90 -129l-369 -211l-43 60z" />
    <glyph glyph-name="icircumflex" unicode="&#xee;" horiz-adv-x="628" 
d="M342 1059q84 0 121 -49t22 -129l-133 -705q-10 -63 27 -63q25 0 59 39t58 77l22 39l57 -32l-11 -28q-7 -18 -33 -62q-97 -166 -259 -166q-68 0 -106 52q-37 52 -25 126l131 704q10 63 -26 64q-25 0 -60 -39t-57 -78l-23 -39l-57 33q40 100 86 151q96 105 207 105z
M457 1487l194 -273l-59 -53l-213 156l-266 -156l-43 53l292 273h95z" />
    <glyph glyph-name="idieresis" unicode="&#xef;" horiz-adv-x="628" 
d="M342 1059q84 0 121 -49t22 -129l-133 -705q-10 -63 27 -63q25 0 59 39t58 77l22 39l57 -32l-11 -28q-7 -18 -33 -62q-97 -166 -259 -166q-68 0 -106 52q-37 52 -25 126l131 704q10 63 -26 64q-25 0 -60 -39t-57 -78l-23 -39l-57 33q40 100 86 151q96 105 207 105z
M532 1227q-44 -1 -68 25t-24 69t37 79t80 36t68 -27t25 -69t-38 -78q-37 -35 -80 -35zM233 1227q-43 1 -67 27t-25 68q0 42 38 78t80 36t67 -27q24 -27 24 -69t-37 -78q-37 -35 -80 -35z" />
    <glyph glyph-name="eth" unicode="&#xf0;" horiz-adv-x="1093" 
d="M805 662q0 130 -53 210q-54 80 -154 80t-174 -90q-137 -167 -135 -487q0 -129 53 -208t152 -79q152 0 232 170t79 404zM1026 625q0 -273 -153 -459t-357 -186t-327 124q-122 124 -121 316q0 287 153 463q154 176 371 176q104 0 194 -45q-29 104 -77 196l-156 -65l-25 84
l134 55q-61 82 -148 143l76 76q117 -63 209 -160l186 80l27 -86l-154 -65q168 -242 168 -647z" />
    <glyph glyph-name="ntilde" unicode="&#xf1;" horiz-adv-x="1234" 
d="M616 1450q70 0 156 -42t135 -42q49 23 109 113l59 -31q-25 -59 -47 -98t-68 -80t-108 -41t-150 44t-147 44q-57 -25 -129 -127l-64 37q115 223 254 223zM764 899q-115 0 -217 -131t-135 -324l-80 -444h-209l153 862q10 63 -26 64q-25 0 -60 -39t-57 -78l-22 -39l-60 33
q40 100 86 151q96 105 207 105q78 0 112 -51t19 -127l-20 -99l10 -2q145 279 377 279q130 0 196 -86t41 -223l-100 -574q-10 -63 27 -63q26 0 60 39t56 77l23 39l57 -32l-11 -28q-7 -18 -33 -62q-98 -166 -260 -166q-68 0 -106 52q-36 52 -24 126l100 577q29 164 -104 164z
" />
    <glyph glyph-name="ograve" unicode="&#xf2;" horiz-adv-x="1093" 
d="M397 1499h25l299 -280l-45 -60l-367 211zM494 88q152 0 232 170t79 404q0 130 -53 210q-54 80 -154 80t-174 -90q-137 -167 -135 -487q-1 -129 53 -208t152 -79zM1026 614q0 -276 -154 -455t-358 -179q-203 0 -325 124t-121 316q0 287 155 463q156 176 363 176
q208 0 324 -125t116 -320z" />
    <glyph glyph-name="oacute" unicode="&#xf3;" horiz-adv-x="1093" 
d="M494 88q152 0 232 170t79 404q0 130 -53 210q-54 80 -154 80t-174 -90q-137 -167 -135 -487q-1 -129 53 -208t152 -79zM1026 614q0 -276 -154 -455t-358 -179q-203 0 -325 124t-121 316q0 287 155 463q156 176 363 176q208 0 324 -125t116 -320zM848 1499h22l91 -129
l-369 -211l-43 60z" />
    <glyph glyph-name="ocircumflex" unicode="&#xf4;" horiz-adv-x="1093" 
d="M494 88q152 0 232 170t79 404q0 130 -53 210q-54 80 -154 80t-174 -90q-137 -167 -135 -487q-1 -129 53 -208t152 -79zM1026 614q0 -276 -154 -455t-358 -179q-203 0 -325 124t-121 316q0 287 155 463q156 176 363 176q208 0 324 -125t116 -320zM723 1487l195 -273
l-60 -53l-213 156l-266 -156l-43 53l293 273h94z" />
    <glyph glyph-name="otilde" unicode="&#xf5;" horiz-adv-x="1093" 
d="M528 1450q70 0 156 -42t135 -42q49 23 109 113l59 -31q-25 -59 -47 -98t-68 -80q-48 -41 -108 -41t-148 44t-149 44q-57 -25 -129 -127l-64 37q115 223 254 223zM494 88q152 0 232 170t79 404q0 130 -53 210q-54 80 -154 80t-174 -90q-137 -167 -135 -487
q-1 -129 53 -208t152 -79zM1026 614q0 -276 -154 -455t-358 -179q-203 0 -325 124t-121 316q0 287 155 463q156 176 363 176q208 0 324 -125t116 -320z" />
    <glyph glyph-name="odieresis" unicode="&#xf6;" horiz-adv-x="1093" 
d="M494 88q152 0 232 170t79 404q0 130 -53 210q-54 80 -154 80t-174 -90q-137 -167 -135 -487q-1 -129 53 -208t152 -79zM1026 614q0 -276 -154 -455t-358 -179q-203 0 -325 124t-121 316q0 287 155 463q156 176 363 176q208 0 324 -125t116 -320zM790 1227q-44 -1 -68 25
t-24 69t37 79t80 36t68 -27t25 -69t-38 -78q-37 -35 -80 -35zM491 1227q-43 1 -67 27t-25 68q0 42 38 78t80 36t67 -27q24 -27 24 -69t-37 -78q-37 -35 -80 -35z" />
    <glyph glyph-name="divide" unicode="&#xf7;" horiz-adv-x="1024" 
d="M397 268q0 47 35 81t82 34t81 -34t34 -81t-34 -81q-34 -33 -81 -33t-82 34t-35 80zM98 539v137h828v-137h-828zM397 944q0 47 35 81t82 34t81 -34t34 -81t-34 -81t-81 -34t-82 34t-35 81z" />
    <glyph glyph-name="oslash" unicode="&#xf8;" horiz-adv-x="1093" 
d="M289 423q0 -97 6 -140l471 565q-56 104 -162 104t-180 -90t-104 -216t-31 -223zM494 88q152 0 232 170t79 404q0 33 -8 94l-469 -566q53 -102 166 -102zM68 420q0 287 155 463q156 176 375 176q160 0 270 -88l74 88h107l-123 -148q100 -123 100 -297q0 -276 -155 -455
t-367 -179q-162 0 -279 90l-73 -90h-109l123 147q-98 117 -98 293z" />
    <glyph glyph-name="ugrave" unicode="&#xf9;" horiz-adv-x="1222" 
d="M449 1499h24l299 -280l-45 -60l-367 211zM401 -20q-205 0 -258 188l129 694q10 63 -26 64q-25 0 -59 -39t-56 -78l-22 -39l-58 33q66 165 182 228q51 28 120 28t106 -52t24 -126l-125 -670q20 -72 126 -72t206 131t133 324l80 444h209l-154 -862q-10 -63 27 -63
q25 0 59 39t58 77l22 39l60 -32q-41 -103 -87 -152q-45 -49 -97 -77q-52 -27 -120 -27t-101 51q-34 51 -19 127l20 98l-10 2q-142 -278 -369 -278z" />
    <glyph glyph-name="uacute" unicode="&#xfa;" horiz-adv-x="1222" 
d="M401 -20q-205 0 -258 188l129 694q10 63 -26 64q-25 0 -59 -39t-56 -78l-22 -39l-58 33q66 165 182 228q51 28 120 28t106 -52t24 -126l-125 -670q20 -72 126 -72t206 131t133 324l80 444h209l-154 -862q-10 -63 27 -63q25 0 59 39t58 77l22 39l60 -32q-41 -103 -87 -152
q-45 -49 -97 -77q-52 -27 -120 -27t-101 51q-34 51 -19 127l20 98l-10 2q-142 -278 -369 -278zM918 1499h22l90 -129l-368 -211l-44 60z" />
    <glyph glyph-name="ucircumflex" unicode="&#xfb;" horiz-adv-x="1222" 
d="M401 -20q-205 0 -258 188l129 694q10 63 -26 64q-25 0 -59 -39t-56 -78l-22 -39l-58 33q66 165 182 228q51 28 120 28t106 -52t24 -126l-125 -670q20 -72 126 -72t206 131t133 324l80 444h209l-154 -862q-10 -63 27 -63q25 0 59 39t58 77l22 39l60 -32q-41 -103 -87 -152
q-45 -49 -97 -77q-52 -27 -120 -27t-101 51q-34 51 -19 127l20 98l-10 2q-142 -278 -369 -278zM813 1487l195 -273l-60 -53l-213 156l-266 -156l-43 53l293 273h94z" />
    <glyph glyph-name="udieresis" unicode="&#xfc;" horiz-adv-x="1222" 
d="M401 -20q-205 0 -258 188l129 694q10 63 -26 64q-25 0 -59 -39t-56 -78l-22 -39l-58 33q66 165 182 228q51 28 120 28t106 -52t24 -126l-125 -670q20 -72 126 -72t206 131t133 324l80 444h209l-154 -862q-10 -63 27 -63q25 0 59 39t58 77l22 39l60 -32q-41 -103 -87 -152
q-45 -49 -97 -77q-52 -27 -120 -27t-101 51q-34 51 -19 127l20 98l-10 2q-142 -278 -369 -278zM850 1227q-43 -1 -68 25q-24 26 -24 69t37 79t80 36t67 -27t25 -69q0 -42 -37 -78q-37 -35 -80 -35zM551 1227q-43 1 -68 27t-25 68t39 78q38 36 80 36q43 0 67 -27t24 -69
t-37 -78q-37 -35 -80 -35z" />
    <glyph glyph-name="yacute" unicode="&#xfd;" horiz-adv-x="1052" 
d="M860 1499h23l90 -129l-369 -211l-43 60zM200 903q-24 0 -48 -49t-33 -93q-10 -44 -10 -50l-64 12q0 76 32 162q65 174 226 174q117 0 146 -133l161 -715h2q2 0 2 2q104 176 181 362q76 186 86 289q-64 39 -146 54l-26 2l86 139q125 4 231 -78q-4 -135 -93 -367t-224 -458
q-234 -389 -467 -518q-53 20 -100 60q-46 40 -66 69l-21 30l109 105q51 -68 104 -97q82 51 189 181l-219 864q-14 53 -38 53z" />
    <glyph glyph-name="thorn" unicode="&#xfe;" horiz-adv-x="1161" 
d="M518 86q123 0 205 93q147 167 145 487q0 233 -172 233q-111 -1 -208 -135t-130 -320l-45 -256q82 -102 205 -102zM510 -20q-131 0 -225 61l-47 -270l159 -45l-10 -68h-522l12 68l154 45l278 1575l-139 24l12 70l301 63h62l-86 -491q-25 -130 -47 -205l-9 -25l11 -2
q139 279 358 279q150 1 236 -101t86 -262q0 -304 -164 -510t-420 -206z" />
    <glyph glyph-name="ydieresis" unicode="&#xff;" horiz-adv-x="1052" 
d="M782 1227q-44 -1 -68 25t-24 69t37 79t80 36t67 -27t25 -69q0 -42 -37 -78q-37 -35 -80 -35zM483 1227q-43 1 -67 27t-25 68q0 42 38 78t80 36q43 0 67 -27t24 -69t-37 -78q-37 -35 -80 -35zM200 903q-24 0 -48 -49t-33 -93q-10 -44 -10 -50l-64 12q0 76 32 162
q65 174 226 174q117 0 146 -133l161 -715h2q2 0 2 2q104 176 181 362q76 186 86 289q-64 39 -146 54l-26 2l86 139q125 4 231 -78q-4 -135 -93 -367t-224 -458q-234 -389 -467 -518q-53 20 -100 60q-46 40 -66 69l-21 30l109 105q51 -68 104 -97q82 51 189 181l-219 864
q-14 53 -38 53z" />
    <glyph glyph-name="dotlessi" unicode="&#x131;" horiz-adv-x="628" 
d="M342 1059q84 0 121 -49t22 -129l-133 -705q-10 -63 27 -63q25 0 59 39t58 77l22 39l57 -32l-11 -28q-7 -18 -33 -62q-97 -166 -259 -166q-68 0 -106 52q-37 52 -25 126l131 704q10 63 -26 64q-25 0 -60 -39t-57 -78l-23 -39l-57 33q40 100 86 151q96 105 207 105z" />
    <glyph glyph-name="Lslash" unicode="&#x141;" horiz-adv-x="1128" 
d="M-14 471l26 145l203 134l94 528l-147 45l10 68h537l-11 -68l-163 -45l-66 -360l215 141l-27 -146l-213 -141l-116 -657h487q63 133 139 241l23 33l72 -14q-49 -172 -66 -264l-20 -111h-1037l13 68l163 45l86 491z" />
    <glyph glyph-name="lslash" unicode="&#x142;" horiz-adv-x="604" 
d="M332 113q26 0 60 39t57 77l22 39l59 -32l-11 -28q-7 -18 -33 -62t-56 -78t-83 -61t-121 -27t-105 51t-25 127l76 436l-186 -123l26 145l187 123l106 607l-139 24l12 70l299 63h62l-109 -610l250 166l-27 -146l-247 -163l-101 -574q-10 -63 27 -63z" />
    <glyph glyph-name="OE" unicode="&#x152;" horiz-adv-x="1927" 
d="M637 94q74 0 143 29l199 1126q-66 49 -162 49q-213 0 -351 -214t-138 -556q0 -198 83 -316t226 -118zM608 -20q-238 0 -379 150t-141 411q0 389 221 629t529 241q96 0 172 -20h888l-20 -107q-13 -69 -20 -207l-3 -41l-79 -16q-49 100 -68 256h-500l-90 -514l422 6l59 113
h78l-61 -344h-72l-26 112l-418 4l-96 -538h546q72 152 138 237l24 33l70 -14q-49 -172 -66 -265l-18 -106h-918q-82 -20 -172 -20z" />
    <glyph glyph-name="oe" unicode="&#x153;" horiz-adv-x="1718" 
d="M1329 956q-117 0 -204 -112t-111 -303q455 27 454 274q0 66 -38 104q-40 37 -101 37zM494 88q152 0 232 170t79 404q0 130 -53 210q-54 80 -154 80t-174 -90q-137 -167 -135 -487q-1 -129 53 -208t152 -79zM512 -20q-201 0 -323 124t-121 316q0 287 155 463
q156 176 375 176q123 1 215 -59t141 -164q159 220 415 222q128 0 211 -67q83 -68 83 -176q0 -156 -128 -236t-267 -102t-262 -31v-38q0 -137 63 -205t170 -68q168 0 320 182l43 -34q-154 -303 -424 -303q-238 0 -318 186q-147 -186 -348 -186z" />
    <glyph glyph-name="Scaron" unicode="&#x160;" horiz-adv-x="1144" 
d="M389 1098q0 -80 42 -124t128 -89l209 -105q252 -125 252 -352q0 -190 -146 -319t-400 -129q-255 0 -480 106l20 109q13 76 13 188v39l94 24q80 -104 88 -270q119 -80 266 -80t234 76q86 76 86 212t-174 224l-213 105q-100 49 -165 131t-65 186q0 190 146 286t352 95
q119 0 255 -32t169 -36l-17 -98q-16 -78 -10 -172v-33l-90 -22q-63 70 -84 215q-105 65 -239 65t-202 -60t-69 -140zM629 1513l-197 273l62 53l211 -156l268 156l41 -53l-291 -273h-94z" />
    <glyph glyph-name="scaron" unicode="&#x161;" horiz-adv-x="909" 
d="M526 958q-88 0 -140 -43t-52 -114q0 -94 110 -139l156 -68q221 -92 221 -259t-122 -261q-123 -94 -317 -94t-368 81q2 61 20 121t34 88l16 29l123 -20q-27 -59 -39 -132q106 -65 215 -65t170 51t61 144t-118 143l-148 59q-90 37 -148 109t-59 162q0 158 120 234t274 75
q94 0 197 -24t132 -23q-2 -62 -24 -120t-41 -87l-21 -29l-123 19q33 53 50 118q-91 45 -179 45zM508 1161l-197 273l62 53l211 -156l268 156l41 -53l-291 -273h-94z" />
    <glyph glyph-name="Ydieresis" unicode="&#x178;" horiz-adv-x="1308" 
d="M942 1579q-43 0 -68 26q-24 27 -24 69t37 78t80 36t67 -27t25 -69q0 -42 -37 -78q-37 -35 -80 -35zM643 1579q-43 0 -68 27q-25 26 -25 68t39 78q38 36 80 36q43 0 67 -27t24 -69t-37 -78q-37 -35 -80 -35zM238 0l10 68l182 45l78 440l-305 727l-121 45l12 66h527
l-13 -66l-157 -45l231 -596h4l465 596l-139 45l10 66h434l-12 -66l-141 -45l-570 -717l-80 -450l164 -45l-10 -68h-569z" />
    <glyph glyph-name="Zcaron" unicode="&#x17d;" horiz-adv-x="1173" 
d="M227 985l-77 19q49 162 69 274l21 113h968l-20 -105l-959 -1171h615q55 128 139 250l27 38l82 -16q-45 -145 -68 -272l-20 -115h-1076l17 100l964 1176h-510q-34 -107 -137 -248zM680 1513l-197 273l62 53l211 -156l268 156l41 -53l-291 -273h-94z" />
    <glyph glyph-name="zcaron" unicode="&#x17e;" horiz-adv-x="1017" 
d="M1022 1038v-24l-703 -815q12 2 53 2q40 0 172 -23t185 -22q104 0 135 141l10 57h62q18 -55 18 -153q0 -244 -215 -244q-94 0 -263 69q-169 68 -208 68t-57 -20l-64 -74h-141v27l680 792q-18 -4 -62 -4t-164 22q-118 22 -147 21q-82 0 -104 -110l-14 -66h-56
q-25 60 -25 156t47 158q46 62 132 62t250 -67t198 -67t47 16l84 98h150zM545 1161l-197 273l62 53l211 -156l268 156l41 -53l-291 -273h-94z" />
    <glyph glyph-name="florin" unicode="&#x192;" horiz-adv-x="1056" 
d="M829 1233q-67 0 -113 -46q-46 -47 -64 -101t-31 -134l-33 -200h231v-109h-250l-100 -608q-33 -197 -131 -297t-228 -100t-208 51q2 59 21 113t40 79l19 23l122 -21q-43 -61 -53 -145q12 -4 37 -4q55 0 92 47t51 99t27 134l102 629h-178v109h197l31 180q33 195 147 296
q115 101 268 101q61 0 133 -16t97 -35q-1 -60 -21 -116t-39 -81l-20 -26l-123 20q43 59 51 144q-43 14 -74 14z" />
    <glyph glyph-name="circumflex" unicode="&#x2c6;" horiz-adv-x="755" 
d="M539 1487l194 -273l-59 -53l-213 156l-266 -156l-43 53l292 273h95z" />
    <glyph glyph-name="caron" unicode="&#x2c7;" horiz-adv-x="755" 
d="M389 1161l-196 273l61 53l211 -156l268 156l41 -53l-291 -273h-94z" />
    <glyph glyph-name="breve" unicode="&#x2d8;" horiz-adv-x="661" 
d="M369 1323q119 0 176 133l88 -31q-35 -94 -108 -157q-73 -64 -177 -64t-158 64t-55 157l103 33q6 -57 38 -96t93 -39z" />
    <glyph glyph-name="dotaccent" unicode="&#x2d9;" horiz-adv-x="458" 
d="M320 1206q-56 0 -90 31t-34 86t45 99q44 44 101 44t90 -32t33 -86q0 -55 -44 -99q-45 -43 -101 -43z" />
    <glyph glyph-name="ring" unicode="&#x2da;" horiz-adv-x="591" 
d="M387 1221q98 0 98 129q0 80 -75 80q-100 0 -101 -130q0 -79 78 -79zM602 1329q0 -80 -60 -127t-152 -47t-144 43q-53 43 -53 122t62 126q61 47 153 47t143 -42t51 -122z" />
    <glyph glyph-name="ogonek" unicode="&#x2db;" horiz-adv-x="581" 
d="M162 -362q-193 0 -193 147q0 77 65 143q108 110 300 160l72 -39q-119 -33 -201 -91t-82 -130q0 -80 98 -80q54 0 105 23l2 -86q-76 -47 -166 -47z" />
    <glyph glyph-name="tilde" unicode="&#x2dc;" horiz-adv-x="1003" 
d="M489 1450q70 0 156 -42t135 -42q49 23 109 113l59 -31q-24 -59 -46 -98t-68 -80t-109 -41q-62 0 -150 44t-147 44q-57 -25 -129 -127l-63 37q115 223 253 223z" />
    <glyph glyph-name="hungarumlaut" unicode="&#x2dd;" horiz-adv-x="776" 
d="M389 1214l352 213l74 -116l-2 -27l-383 -121zM422 1499h22l88 -121l-364 -215l-43 49z" />
    <glyph glyph-name="pi" unicode="&#x3c0;" horiz-adv-x="1216" 
d="M68 952h1079l-510 -893z" />
    <glyph glyph-name="endash" unicode="&#x2013;" horiz-adv-x="1069" 
d="M111 496v129h847v-129h-847z" />
    <glyph glyph-name="emdash" unicode="&#x2014;" horiz-adv-x="1683" 
d="M111 496v129h1462v-129h-1462z" />
    <glyph glyph-name="quoteleft" unicode="&#x2018;" horiz-adv-x="485" 
d="M238 958q-60 0 -93 35t-32 82q0 127 109 210t267 126l19 -43q-147 -94 -197 -170q61 -27 61 -94q0 -66 -37 -106t-97 -40z" />
    <glyph glyph-name="quoteright" unicode="&#x2019;" horiz-adv-x="485" 
d="M209 1266q0 68 38 106q38 39 97 39t92 -35t33 -82q1 -127 -109 -210t-268 -126l-18 43q147 94 196 170q-61 27 -61 95z" />
    <glyph glyph-name="quotesinglbase" unicode="&#x201a;" horiz-adv-x="575" 
d="M74 92q0 66 38 106t97 40t92 -35t33 -82q0 -127 -110 -210t-267 -126l-18 43q147 94 196 170q-61 27 -61 94z" />
    <glyph glyph-name="quotedblleft" unicode="&#x201c;" horiz-adv-x="868" 
d="M620 954q-60 0 -92 35q-33 35 -32 82q0 127 109 210t267 126l19 -43q-147 -94 -197 -170q62 -27 62 -94q0 -66 -38 -106t-98 -40zM238 954q-60 0 -93 35t-32 82q0 127 109 210t267 126l19 -43q-147 -94 -197 -170q61 -27 61 -94q0 -66 -37 -106t-97 -40z" />
    <glyph glyph-name="quotedblright" unicode="&#x201d;" horiz-adv-x="868" 
d="M592 1266q0 68 38 106q38 39 97 39t92 -35t33 -82q0 -127 -110 -210t-267 -126l-18 43q147 94 196 170q-61 27 -61 95zM209 1266q0 68 38 106q38 39 97 39t92 -35t33 -82q1 -127 -109 -210t-268 -126l-18 43q147 94 196 170q-61 27 -61 95z" />
    <glyph glyph-name="quotedblbase" unicode="&#x201e;" horiz-adv-x="958" 
d="M461 92q0 66 38 106t97 40t92 -35t33 -82q1 -127 -109 -210t-268 -126l-18 43q147 94 196 170q-61 27 -61 94zM78 92q0 66 38 106t97 40t92 -35t33 -82q0 -127 -110 -210t-267 -126l-18 43q147 94 196 170q-61 27 -61 94z" />
    <glyph glyph-name="dagger" unicode="&#x2020;" horiz-adv-x="1062" 
d="M713 1391l-95 -363l363 29l-27 -148l-350 27l-16 -246l-154 -690h-121l90 690l70 246l-358 -27l26 148l351 -29l36 363h185z" />
    <glyph glyph-name="daggerdbl" unicode="&#x2021;" horiz-adv-x="1165" 
d="M217 909l27 148l348 -29l37 363h184l-92 -363l362 29l-26 -148l-350 27l-17 -240l-69 -243l360 28l-27 -147l-352 26l-35 -360h-184l90 360l-358 -26l26 147l346 -28l19 243l67 240z" />
    <glyph glyph-name="bullet" unicode="&#x2022;" horiz-adv-x="604" 
d="M314 795q86 0 134 -47q50 -47 50 -130q0 -84 -66 -148t-151 -64t-135 46t-50 128t66 148q66 67 152 67z" />
    <glyph glyph-name="ellipsis" unicode="&#x2026;" horiz-adv-x="1691" 
d="M752 -20q-57 0 -90 30t-33 86t44 100t100 44t90 -32t34 -87t-44 -98t-101 -43zM338 121q0 -55 -44 -98t-101 -43q-56 0 -90 30q-33 30 -33 86t44 100t101 44t90 -32t33 -87zM1311 -20q-57 0 -90 30t-33 86t44 100t100 44t89 -32t33 -87t-43 -98t-100 -43z" />
    <glyph glyph-name="perthousand" unicode="&#x2030;" horiz-adv-x="2048" 
d="M1757 432q0 154 -84 154t-121 -124q-36 -124 -36 -268t88 -145q118 0 147 275q6 57 6 108zM1905 397q0 -184 -88 -301q-89 -116 -209 -116t-181 66t-61 190q0 182 91 300t224 117q104 1 164 -69t60 -187zM1141 432q0 154 -84 154q-116 0 -151 -268q-7 -60 -7 -117
q0 -152 88 -152q45 0 86 54t62 221q6 57 6 108zM1288 397q0 -184 -88 -301q-88 -116 -208 -116t-181 66t-61 190q0 182 91 300t226 117q104 0 163 -69q58 -70 58 -187zM375 0h-129l817 1309h125zM535 1108q0 154 -82 154q-59 0 -97 -72q-60 -113 -61 -311q0 -154 88 -154
q45 0 86 53t59 221q7 58 7 109zM682 1075q0 -186 -87 -303t-207 -117t-181 67t-62 189q-1 182 91 300t225 118q104 0 163 -68q58 -69 58 -186z" />
    <glyph glyph-name="guilsinglleft" unicode="&#x2039;" horiz-adv-x="641" 
d="M563 948l-303 -430l152 -424h-123l-228 379v82l379 393h123z" />
    <glyph glyph-name="guilsinglright" unicode="&#x203a;" horiz-adv-x="641" 
d="M25 94l303 430l-152 424h123l227 -379v-82l-379 -393h-122z" />
    <glyph glyph-name="fraction" unicode="&#x2044;" horiz-adv-x="1011" 
d="M104 0h-104l922 1309h104z" />
    <glyph glyph-name="Euro" unicode="&#x20ac;" horiz-adv-x="1320" 
d="M426 608h332l-19 -108h-309q20 -164 106 -254t212 -90q92 0 171 34t123 76q44 41 101 109l47 -37q-62 -137 -194 -248q-132 -110 -334 -110t-335 138q-134 138 -149 382h-129l19 108h112q4 74 10 109h-104l18 108h111q72 238 254 371t416 133q109 1 233 -23t154 -26
l-21 -121q-16 -78 -10 -172v-33l-96 -24q-59 72 -86 231q-99 55 -229 55t-231 -104q-101 -106 -146 -287h344l-19 -108h-346q-6 -51 -6 -109z" />
    <glyph glyph-name="trademark" unicode="&#x2122;" horiz-adv-x="1716" 
d="M158 1391h610v-58l10 -137l-43 -8q-37 55 -63 135h-133v-563l84 -23v-41h-322v41l86 23v563h-133q-27 -78 -66 -135l-41 8q10 82 11 137v58zM850 1391h242l186 -463h4l182 463h234v-41l-74 -23v-567l74 -23v-41h-301v41l73 23v432h-4q-10 -47 -24 -80l-150 -383h-88
l-162 375l-26 88h-4v-432l73 -23v-41h-235v41l74 23v567l-74 23v41z" />
    <glyph glyph-name="Omega" unicode="&#x2126;" horiz-adv-x="1882" 
d="M1382 1059q128 0 232 -52t145 -112v-295q0 -307 -175 -464t-458 -156q-57 0 -114 6v2q110 12 230 86t149 190q-158 0 -272 81t-113 255v295q41 59 144 111t232 53zM123 600v295q41 59 144 111t233 53q130 0 232 -52q103 -52 145 -112v-295q1 -307 -175 -464t-458 -156
q-55 0 -115 6v2q111 12 231 86t148 190q-158 0 -272 81t-113 255z" />
    <glyph glyph-name="partialdiff" unicode="&#x2202;" horiz-adv-x="1212" 
d="M1016 1059v-1079l-893 509z" />
    <glyph glyph-name="Delta" unicode="&#x2206;" horiz-adv-x="2107" 
d="M1540 262q-198 0 -320 115t-122 283t123 283q123 116 321 116t320 -121q123 -121 123 -307q0 -397 -302 -561q-171 -93 -391 -93q-68 0 -123 9v2q161 15 304 132q78 65 100 142h-33zM567 262q-199 0 -321 115t-123 283q0 168 123 283q122 116 320 116t321 -121t123 -300
t-58 -310q-104 -234 -378 -315q-120 -36 -222 -36t-157 9v2q162 15 305 132q78 65 100 142h-33z" />
    <glyph glyph-name="product" unicode="&#x220f;" horiz-adv-x="1216" 
d="M1147 88h-1079l569 893z" />
    <glyph glyph-name="summation" unicode="&#x2211;" horiz-adv-x="1212" 
d="M197 -20v1079l893 -570z" />
    <glyph glyph-name="minus" unicode="&#x2212;" horiz-adv-x="1024" 
d="M98 535v137h828v-137h-828z" />
    <glyph glyph-name="radical" unicode="&#x221a;" horiz-adv-x="2107" 
d="M1542 776q197 0 320 -116t123 -282t-123 -284q-123 -117 -321 -117q-199 0 -321 121q-122 120 -122 300t58 311t158 205q199 146 474 145q43 0 125 -8v-2q-115 -14 -244 -87t-160 -188q10 2 33 2zM567 776q197 0 321 -116t124 -282t-124 -284q-124 -117 -321 -117
t-321 122t-123 307q0 397 301 561q169 92 391 92q41 0 123 -8v-2q-167 -20 -303 -133q-78 -65 -100 -142q9 2 32 2z" />
    <glyph glyph-name="infinity" unicode="&#x221e;" horiz-adv-x="1703" 
d="M1249 371q98 0 153 54q54 54 54 150q0 97 -54 151t-153 54q-57 0 -122 -37t-101 -73t-90 -95q180 -204 313 -204zM453 371q57 0 121 37q64 36 103 72q38 36 91 95q-57 61 -93 95t-101 72t-121 38q-97 0 -151 -54t-54 -150t54 -151q54 -54 151 -54zM1249 905
q162 0 259 -95q98 -94 98 -236t-92 -235t-272 -93q-179 0 -390 225q-64 -67 -110 -107t-127 -79t-162 -39q-172 0 -264 93q-91 93 -91 234t98 237t257 95q81 0 161 -39q80 -40 128 -80t108 -106q62 66 110 106t129 80q81 39 160 39z" />
    <glyph glyph-name="integral" unicode="&#x222b;" horiz-adv-x="1882" 
d="M877 438v-295q-41 -59 -145 -111t-232 -52t-232 52t-145 111v295q0 307 175 464t458 157q55 0 114 -6v-2q-112 -12 -232 -87t-149 -190q160 0 274 -81t114 -255zM1382 -20q-130 0 -232 52q-103 52 -144 111v295q0 307 175 464t457 157q55 0 115 -6v-2q-113 -12 -233 -87
t-148 -190q160 0 274 -81t113 -255v-295q-41 -59 -144 -111t-233 -52z" />
    <glyph glyph-name="approxequal" unicode="&#x2248;" horiz-adv-x="1234" 
d="M883 293q-81 -1 -227 67t-216 68q-150 0 -254 -135l-88 72q127 215 357 215q95 0 247 -69t193 -69q88 0 154 84l88 -71q-88 -162 -254 -162zM440 799q-150 0 -254 -135l-88 71q127 215 357 215q95 0 247 -68t193 -69q88 0 154 84l88 -72q-88 -162 -254 -161
q-81 0 -227 68t-216 67z" />
    <glyph glyph-name="notequal" unicode="&#x2260;" horiz-adv-x="1024" 
d="M98 725v137h463l72 156h117l-70 -156h246v-137h-308l-100 -223h408v-137h-469l-68 -152h-119l68 152h-240v137h301l101 223h-402z" />
    <glyph glyph-name="lessequal" unicode="&#x2264;" horiz-adv-x="1024" 
d="M98 20v138h828v-138h-828zM926 387v-149l-828 354v88l828 352v-151l-623 -244z" />
    <glyph glyph-name="greaterequal" unicode="&#x2265;" horiz-adv-x="1024" 
d="M926 158v-138h-828v138h828zM98 238v149l623 250l-623 244v151l828 -352v-88z" />
    <glyph glyph-name="lozenge" unicode="&#x25ca;" horiz-adv-x="927" 
d="M94 0v72h756v-72h-756zM94 1319v72h756v-72h-756zM516 688l236 -565h-99l-184 457l-182 -457h-101l238 565l-242 567h101l186 -456l186 456h101z" />
    <glyph glyph-name="apple" unicode="&#xf8ff;" horiz-adv-x="3012" 
d="M1718 584q0 27 -26 26q-42 1 -50 -69q76 0 76 43zM2380 584q0 27 -27 26q-41 1 -49 -69q76 0 76 43zM287 584q0 27 -27 26q-41 1 -49 -69q76 0 76 43zM1057 332q0 -29 28 -29q52 0 56 94q-84 -18 -84 -65zM1868 512q23 0 38 -14t15 -34t-15 -34t-38 -14t-37 13t-14 33
t14 36q14 14 37 14zM1448 553q0 41 -27 41t-46 -38t-19 -60v-47q92 12 92 104zM2352 471q42 0 73 18q16 -10 16 -25q0 -14 -5 -24t-29 -20q-23 -10 -71 -10t-81 30t-33 81q0 52 38 94t90 42t75 -19t22 -44q0 -78 -141 -78q4 -45 46 -45zM1786 594q0 -78 -141 -78
q4 -45 46 -45t72 18q28 -18 12 -50q-16 -29 -83 -29q-66 0 -99 30t-33 81q0 52 38 94t90 42t76 -19q22 -19 22 -44zM259 471q42 0 73 18q16 -10 16 -25q0 -14 -5 -24t-29 -20t-72 -10t-80 30q-33 30 -33 81q0 52 38 94t90 42t75 -19t22 -44q0 -78 -141 -78q4 -45 46 -45z
M2189 592v-100l4 -66q-49 -16 -67 -16t-19 16v137q0 31 -15 31q-14 0 -34 -36t-20 -62l6 -70q-49 -16 -69 -16t-19 16v141l-6 74q48 16 68 16t20 -18v-82q37 100 92 100q59 1 59 -65zM137 0v16h2740v-16h-2740zM137 1083v17h2740v-17h-2740zM2708 428l-168 -16q-39 0 -48 25
q-8 26 -9 113t-3 130l-59 -4v8q0 41 24 41h35l-6 61q49 16 69 16t19 -16v-59h96v-6q0 -43 -24 -43h-72v-184q0 -31 33 -31q23 0 79 11t93 11t83 -12t46 -39t-20 -41t-29 -14q-11 1 -61 25t-78 24zM565 657q59 0 60 -65v-35q29 100 92 100q57 1 57 -65v-100l6 -66
q-50 -16 -68 -16t-18 16v135q0 33 -14 33t-36 -36t-19 -62l4 -70q-49 -16 -68 -16t-18 16v135q1 33 -15 33t-35 -36t-20 -62l6 -70q-49 -16 -69 -16t-19 16v141l-6 74q49 16 69 16t19 -18v-82q33 100 92 100zM1452 655q34 1 58 -27t24 -77q0 -139 -178 -139v-82l6 -66
q-49 -16 -69 -16t-19 16v154l-51 -6v-6q0 -162 -140 -162q-43 0 -63 22t-21 47q0 74 144 109v86q-35 -98 -93 -98t-59 63v6q-39 -67 -103 -67t-65 61v207l-59 -4v8q0 41 24 41h35l-6 61q49 16 69 16t19 -16v-59h96v-6q0 -43 -24 -43h-72v-176q0 -33 27 -33q18 0 39 16
q20 16 20 37v51l-6 68q49 16 69 16t19 -18v-135q0 -31 14 -31t35 36q20 36 19 62l-4 70q49 16 67 16t19 -18v-203l51 6v125l-6 74q48 16 68 16t20 -18v-82q35 98 96 98z" />
    <glyph glyph-name="NULL" 
 />
    <glyph glyph-name="eight.tab" horiz-adv-x="1142" 
d="M463 1014q0 -115 131 -195l92 -51q180 111 180 268q0 76 -46 132t-150 56t-156 -60q-51 -62 -51 -150zM285 299q0 -91 62 -151t191 -60t194 64t65 170q-1 132 -146 210l-145 74q-104 -55 -162 -136t-59 -171zM532 -20q-210 0 -330 72t-120 224q0 116 86 220t260 151
q-176 113 -176 296t129 285t303 101q174 0 272 -81q98 -80 98 -194t-78 -201t-208 -128q254 -141 254 -338q0 -170 -139 -289q-140 -118 -351 -118z" />
    <glyph glyph-name="five.tab" horiz-adv-x="1142" 
d="M422 -20q-117 0 -223 28t-144 68q4 66 30 154t46 108h94q-8 -125 21 -201q98 -53 186 -53q154 0 244 83t90 247q0 246 -342 245q-113 0 -209 -20l-6 8l143 662h727l-55 -185h-575l-72 -311q90 8 131 8q215 0 352 -89t137 -271q0 -229 -157 -356q-158 -125 -418 -125z" />
    <glyph glyph-name="four.tab" horiz-adv-x="1142" 
d="M782 1067l-534 -600h436l107 600h-9zM61 356v72l791 881h203l-150 -842h170l-18 -111h-172l-43 -243l149 -45l-10 -68h-539l11 68l170 45l41 243h-603z" />
    <glyph glyph-name="nine.tab" horiz-adv-x="1142" 
d="M336 848q0 -113 56 -170t144 -57q90 0 164 44t121 119q6 68 6 134q0 147 -58 226t-174 79q-115 1 -187 -103t-72 -272zM362 -20q-106 0 -187 32t-109 61q-28 28 -29 33l59 74q88 -72 254 -72t281 139q115 138 164 359q-131 -117 -307 -117q-176 -1 -276 95
q-101 96 -101 256q0 223 145 356t353 133t324 -121t116 -329q0 -393 -187 -646t-500 -253z" />
    <glyph glyph-name="one.tab" horiz-adv-x="1142" 
d="M475 1098q-167 0 -239 16l10 66q98 6 255 50q158 44 257 99l61 -22l-209 -1182l277 -57l-13 -68h-790l12 68l291 57l172 973h-84z" />
    <glyph glyph-name="seven.tab" horiz-adv-x="1142" 
d="M160 0v49l786 1079h-588q-54 -102 -127 -180l-26 -28l-80 16q51 168 68 260l20 113h887v-168l-768 -1141h-172z" />
    <glyph glyph-name="six.tab" horiz-adv-x="1142" 
d="M607 688q-89 0 -164 -45t-121 -121q-6 -66 -7 -131q1 -147 59 -226t174 -79t188 103t71 272q0 113 -55 170q-56 57 -145 57zM1032 469q0 -223 -146 -356t-353 -133t-323 120t-116 330q0 393 186 646t500 253q106 0 188 -33q82 -32 110 -60t28 -34l-59 -74q-88 72 -254 72
t-281 -138t-164 -360q130 117 306 117t277 -95t101 -255z" />
    <glyph glyph-name="three.tab" horiz-adv-x="1142" 
d="M430 -20q-125 0 -239 32t-158 74q21 112 55 181t39 71h92q-6 -129 21 -201q80 -51 210 -51t215 83t85 239q0 121 -82 172t-224 69l41 92q154 11 239 69t85 204q0 82 -54 121q-55 39 -145 39t-185 -50t-159 -116l-51 45q61 113 186 195t286 81q161 0 253 -76t92 -196
q0 -233 -268 -322v-4q90 -29 157 -105t66 -196q-1 -206 -157 -328t-400 -122z" />
    <glyph glyph-name="two.tab" horiz-adv-x="1142" 
d="M-6 0v109q349 233 513 377q163 144 212 218q108 163 107 261t-55 144t-144 46q-217 0 -379 -203l-60 49q72 127 200 227t304 101q176 0 272 -88t97 -237q0 -96 -55 -213q-29 -59 -146 -194q-34 -38 -98 -90t-117 -95t-211 -141q-158 -99 -170 -107v-6h524q27 53 66 101
t64 69l24 22l62 -22q-41 -119 -60 -215l-18 -113h-932z" />
    <glyph glyph-name="zero.tab" horiz-adv-x="1142" 
d="M494 86q270 0 347 542q17 128 17 268t-54 234t-170 94t-201 -128q-152 -231 -150 -668q0 -160 54 -251q53 -91 157 -91zM492 -20q-203 0 -318 134t-115 371q0 375 169 609t417 235q207 0 322 -135t114 -377q-1 -369 -167 -603t-422 -234z" />
    </font>
</defs>
</svg>
