<svg width="29" height="24" viewBox="0 0 29 24" fill="none" xmlns="http://www.w3.org/2000/svg">
<path d="M9.59615 1C11.7049 1 16.3826 1.21463 18.223 2.07317M9.59615 1C7.29569 3.14634 3.26982 6.90244 1.54446 8.5122M9.59615 1C9.22295 3.14634 8.47656 8.19024 8.47656 9.04878M18.223 2.07317C20.0633 2.93171 23.9742 6.00813 25.6995 7.43902M18.223 2.07317C17.2746 2.96748 15.493 5.29268 15.9531 7.43902M25.6995 7.43902L28 14.4146M25.6995 7.43902C24.2947 7.86829 20.1298 12.2683 18.223 14.4146M28 14.4146L22.8239 20.8537L12.4718 23M28 14.4146C26.5952 14.4146 20.8966 14.4146 18.223 14.4146M12.4718 23L5.57031 20.8537C4.99519 19.6016 3.72992 16.6683 3.26983 14.9512C2.6947 12.8049 -0.180897 10.122 1.54446 8.5122M12.4718 23C12.9073 21.2829 16.4874 16.561 18.223 14.4146M1.54446 8.5122C2.89663 8.69106 6.17608 9.47805 8.47656 9.04878M8.47656 9.04878C11.5872 8.46834 12.7325 8.72683 15.9531 7.43902M15.9531 7.43902L18.223 14.4146" stroke="white" stroke-linecap="round" stroke-linejoin="round"/>
</svg>
