<svg width="29" height="29" viewBox="0 0 29 29" fill="none" xmlns="http://www.w3.org/2000/svg">
<path d="M0.588384 14.3523H4.25641H0.588384ZM18.8059 14.3099C18.8059 15.2508 18.5269 16.1705 18.0042 16.9528C17.4815 17.7351 16.7385 18.3449 15.8693 18.7049C15 19.065 14.0435 19.1592 13.1207 18.9756C12.1979 18.7921 11.3503 18.339 10.685 17.6737C10.0197 17.0084 9.56664 16.1608 9.38309 15.238C9.19954 14.3152 9.29375 13.3587 9.6538 12.4894C10.0139 11.6202 10.6236 10.8772 11.4059 10.3545C12.1882 9.83179 13.1079 9.55279 14.0488 9.55279V9.55279C14.6735 9.55279 15.2921 9.67584 15.8693 9.91491C16.4464 10.154 16.9708 10.5044 17.4126 10.9461C17.8543 11.3879 18.2047 11.9123 18.4438 12.4894C18.6829 13.0666 18.8059 13.6852 18.8059 14.3099V14.3099ZM27.5092 14.3099C27.5092 16.9721 26.7198 19.5746 25.2407 21.7881C23.7617 24.0017 21.6594 25.7269 19.1999 26.7457C16.7403 27.7645 14.0339 28.0311 11.4228 27.5117C8.81174 26.9923 6.41332 25.7103 4.53085 23.8279C2.64838 21.9454 1.3664 19.547 0.847024 16.9359C0.327651 14.3248 0.594208 11.6184 1.61299 9.15883C2.63178 6.69926 4.35704 4.59703 6.5706 3.11798C8.78415 1.63893 11.3866 0.849488 14.0488 0.849488C15.8168 0.848869 17.5677 1.19658 19.2013 1.87275C20.835 2.54892 22.3194 3.54031 23.5698 4.79029C24.8202 6.04026 25.8121 7.52434 26.4889 9.15774C27.1656 10.7911 27.5139 12.5419 27.5139 14.3099H27.5092Z" stroke="white" stroke-linecap="round" stroke-linejoin="round"/>
<path d="M4.38867 14.3524V12.5749L5.92566 13.466L7.46265 14.3524L5.92566 15.2387L4.38867 16.1298V14.3524Z" stroke="white" stroke-linecap="round" stroke-linejoin="round"/>
<path d="M4.38867 14.3524V12.5749L5.92566 13.466L7.46265 14.3524L5.92566 15.2387L4.38867 16.1298V14.3524Z" fill="white"/>
<path d="M14.0488 9.55279V0.849487" stroke="white" stroke-linecap="round" stroke-linejoin="round"/>
<path d="M14.0488 27.7703V19.067" stroke="white" stroke-linecap="round" stroke-linejoin="round"/>
<path d="M27.5088 14.3524H23.8408" stroke="white" stroke-linecap="round" stroke-linejoin="round"/>
<path d="M23.7092 14.3524V16.1298L22.1722 15.2387L20.6353 14.3524L22.1722 13.466L23.7092 12.5749V14.3524Z" stroke="white" stroke-linecap="round" stroke-linejoin="round"/>
<path d="M23.7092 14.3524V16.1298L22.1722 15.2387L20.6353 14.3524L22.1722 13.466L23.7092 12.5749V14.3524Z" fill="white"/>
</svg>
