<svg width="29" height="30" viewBox="0 0 32 31" fill="none" xmlns="http://www.w3.org/2000/svg">
<path d="M17.019 1.99768C13.9342 1.99768 10.9757 3.22277 8.79394 5.40358C6.61221 7.58439 5.38587 10.5424 5.38457 13.6272C5.38457 15.7859 6.24213 17.8563 7.76862 19.3828C8.52445 20.1386 9.42176 20.7382 10.4093 21.1472C11.3969 21.5563 12.4553 21.7668 13.5242 21.7668C16.67 21.7668 19.1374 19.6139 19.1374 15.4262M2.30762 14.2121C2.30762 17.2951 3.53235 20.2519 5.71238 22.4319C7.89241 24.6119 10.8492 25.8367 13.9322 25.8367C16.0901 25.838 18.1602 24.9823 19.6875 23.4578C21.2148 21.9333 22.0742 19.8648 22.0768 17.7068C22.0768 14.5611 19.9681 12.0887 15.7951 12.0887M14.5171 28.9185C17.601 28.9185 20.5588 27.6941 22.7404 25.5144C24.922 23.3346 26.1489 20.3779 26.1515 17.2939C26.1463 15.1373 25.2859 13.0707 23.7591 11.5476C22.2322 10.0244 20.1636 9.16903 18.0069 9.16904C14.8612 9.16904 12.4527 11.258 12.4527 15.4458M29.2285 16.7287C29.231 15.1998 28.9321 13.6855 28.3489 12.2722C27.7656 10.859 26.9094 9.57467 25.8292 8.49269C24.7491 7.41071 23.4662 6.55233 22.0539 5.96666C20.6417 5.381 19.1278 5.07954 17.599 5.07954C15.4406 5.08085 13.371 5.93883 11.8448 7.46503C10.3186 8.99123 9.46061 11.0608 9.45931 13.2192C9.45931 16.365 11.5041 18.7685 15.7951 18.7685" stroke="white" stroke-linecap="round" stroke-linejoin="round"/>
<path d="M15.7355 1.98787L15.7061 0.626343L16.8661 1.28007L18.031 1.92888L16.9005 2.63668L15.765 3.34448L15.7355 1.98787Z" stroke="white" stroke-linecap="round" stroke-linejoin="round"/>
<path d="M15.7355 1.98787L15.7061 0.626343L16.8661 1.28007L18.031 1.92888L16.9005 2.63668L15.765 3.34448L15.7355 1.98787Z" stroke="white" stroke-linecap="round" stroke-linejoin="round"/>
<path d="M14.4332 28.2107L13.3027 28.9185L14.4676 29.5673L15.6326 30.2211L15.5982 28.8645L15.5687 27.5029L14.4332 28.2107Z" stroke="white" stroke-linecap="round" stroke-linejoin="round"/>
<path d="M15.5982 28.8645L15.6326 30.2211L14.4676 29.5723L13.3027 28.9185L14.4332 28.2107L15.5687 27.5029L15.5982 28.8645Z" stroke="white" stroke-linecap="round" stroke-linejoin="round"/>
<path d="M29.2627 15.5441L30.5898 15.5097L29.9557 16.7041L29.3168 17.8985L28.6237 16.7385L27.9307 15.5736L29.2627 15.5441Z" stroke="white" stroke-linecap="round" stroke-linejoin="round"/>
<path d="M29.2627 15.5441L30.5898 15.5097L29.9557 16.7041L29.3168 17.8985L28.6237 16.7385L27.9307 15.5736L29.2627 15.5441Z" stroke="white" stroke-linecap="round" stroke-linejoin="round"/>
<path d="M1.63898 13.9811L1 15.1706L2.32712 15.1411L3.65915 15.1067L2.9661 13.9467L2.27305 12.7867L1.63898 13.9811Z" stroke="white" stroke-linecap="round" stroke-linejoin="round"/>
<path d="M2.32712 15.1411L1 15.1706L1.63898 13.9811L2.27305 12.7867L2.9661 13.9467L3.65915 15.1067L2.32712 15.1411Z" stroke="white" stroke-linecap="round" stroke-linejoin="round"/>
<path d="M15.7949 18.7685C17.63 18.7685 19.1176 17.2721 19.1176 15.4261C19.1176 13.5802 17.63 12.0837 15.7949 12.0837C13.9598 12.0837 12.4722 13.5802 12.4722 15.4261C12.4722 17.2721 13.9598 18.7685 15.7949 18.7685Z" stroke="white" stroke-linecap="round" stroke-linejoin="round"/>
</svg>
