<svg width="39" height="25" viewBox="0 0 39 25" fill="none" xmlns="http://www.w3.org/2000/svg">
<path d="M1 12.3952C13.7009 27.4006 25.0565 27.667 37.9906 12.3952C25.2896 -2.65674 13.934 -2.92315 1 12.3286M26.0422 12.3419C26.0409 13.6365 25.6558 14.9017 24.9356 15.9774C24.2154 17.0532 23.1925 17.8913 21.9961 18.3858C20.7997 18.8803 19.4835 19.009 18.214 18.7556C16.9444 18.5023 15.7785 17.8782 14.8635 16.9623C13.9486 16.0465 13.3257 14.8799 13.0736 13.6101C12.8216 12.3403 12.9516 11.0243 13.4473 9.82835C13.9431 8.63244 14.7822 7.61034 15.8587 6.89124C16.9352 6.17215 18.2007 5.78835 19.4953 5.78835C20.3556 5.78835 21.2075 5.95791 22.0022 6.28734C22.797 6.61677 23.519 7.09961 24.127 7.70825C24.7351 8.3169 25.2172 9.03942 25.5458 9.8345C25.8744 10.6296 26.0431 11.4816 26.0422 12.3419Z" stroke="white" stroke-linecap="round" stroke-linejoin="round"/>
</svg>
