<?xml version="1.0" standalone="no"?>
<!DOCTYPE svg PUBLIC "-//W3C//DTD SVG 1.1//EN" "http://www.w3.org/Graphics/SVG/1.1/DTD/svg11.dtd" >
<svg xmlns="http://www.w3.org/2000/svg">
<metadata>
Created by FontPrep 20130207 at Mon Jun 27 20:40:05 2016
 By Devin Halladay
Copyright (c) 2011 by Eduardo Manso. All rights reserved.
</metadata>
<defs>
<font id="4cf6943144e50c85d9765b4579d3d87e" horiz-adv-x='1024' >
  <font-face 
    font-family="PeriodicoDisplay-MediumItalic"
    font-weight="500"
    font-style="italic"
    font-stretch="normal"
    units-per-em="2048"
    panose-1="2 0 6 4 8 0 0 2 0 4"
    ascent="1597"
    descent="-451"
    x-height="1064"
    cap-height="1391"
    bbox="-330 -367 2894 1835"
    underline-thickness="102"
    underline-position="-102"
    unicode-range="U+0009-FB02"
  />
<missing-glyph horiz-adv-x="958" 
d="M96 0v63h776v-63h-776zM96 1329v62h776v-62h-776zM535 694l243 -547h-94l-192 455l-195 -455h-92l241 547l-245 543h94l197 -451l192 451h92z" />
    <glyph glyph-name="fi" unicode="fi" horiz-adv-x="1335" 
d="M-20 -362q-140 0 -222 51q2 63 27 121t49 84l25 24l112 -20q-45 -80 -61 -191q25 -4 39 -4q53 0 90 49q37 50 51 108t27 148l153 950h-147l8 48l152 28l10 60q31 205 188 307q158 102 366 102t357 -67q0 -66 -28 -127t-58 -88l-26 -29l-113 20q25 80 41 193
q-82 29 -162 29q-262 0 -309 -295l-19 -105h344q158 0 273 23l43 8h41l-160 -903q-10 -64 24 -64q33 0 75 41t69 82l27 41l39 -20q-13 -32 -46 -84q-33 -53 -67 -87t-88 -63q-55 -29 -117 -28q-94 0 -134 56t-28 138l140 784h-445l-149 -919q-33 -207 -142 -304t-249 -97z
" />
    <glyph glyph-name="fl" unicode="fl" horiz-adv-x="1327" 
d="M844 1434q-250 0 -299 -312l-15 -88h252l-14 -76h-250l-147 -919q-33 -207 -142 -304t-249 -97t-222 51q2 63 26 121t46 84l23 24l114 -20q-41 -80 -57 -191q24 -4 52 -4t58 27q52 48 77 172q9 43 20 106l153 950h-147l8 48l152 28l10 60q16 106 67 187t125 128
q151 96 342 94q139 0 248 -28l176 28h39l-237 -1341q-13 -64 23 -64t78 41t67 82l26 41l39 -20q-66 -165 -199 -234q-55 -29 -116 -28q-94 0 -135 56t-27 138l217 1223q-90 37 -182 37z" />
    <glyph glyph-name=".notdef" horiz-adv-x="958" 
d="M96 0v63h776v-63h-776zM96 1329v62h776v-62h-776zM535 694l243 -547h-94l-192 455l-195 -455h-92l241 547l-245 543h94l197 -451l192 451h92z" />
    <glyph glyph-name=".null" 
 />
    <glyph glyph-name="nonmarkingreturn" horiz-adv-x="681" 
 />
    <glyph glyph-name="CR" unicode="&#xd;" 
 />
    <glyph glyph-name="CR" 
 />
    <glyph glyph-name="HT" unicode="&#x9;" 
 />
    <glyph glyph-name="LF" unicode="&#xa;" 
 />
    <glyph glyph-name="DLE" 
 />
    <glyph glyph-name="DC1" 
 />
    <glyph glyph-name="DC2" 
 />
    <glyph glyph-name="DC3" 
 />
    <glyph glyph-name="DC4" 
 />
    <glyph glyph-name="RS" 
 />
    <glyph glyph-name="US" 
 />
    <glyph glyph-name="space" unicode=" " horiz-adv-x="428" 
 />
    <glyph glyph-name="exclam" unicode="!" horiz-adv-x="569" 
d="M201 -20q-61 0 -104 38q-42 40 -42 100t47 106q46 46 108 46t104 -40t42 -99t-47 -105t-108 -46zM420 1411q55 0 98 -30t43 -83l-297 -899h-26l20 899q18 53 62 83t100 30z" />
    <glyph glyph-name="quotedbl" unicode="&#x22;" horiz-adv-x="763" 
d="M652 1411q48 0 81 -31t23 -75l-172 -383h-31l-33 383q6 45 45 75t87 31zM339 1411q48 0 81 -31t22 -75l-172 -383h-30l-33 383q6 45 45 75t87 31z" />
    <glyph glyph-name="numbersign" unicode="#" horiz-adv-x="1245" 
d="M524 662l-110 -261h313l109 261h-312zM213 662l12 92h219l121 290h121l-123 -290h311l123 290h121l-123 -290h158l-12 -92h-185l-110 -261h190l-12 -92h-217l-129 -309h-119l129 309h-313l-129 -309h-117l129 309h-162l13 92h188l109 261h-193z" />
    <glyph glyph-name="dollar" unicode="$" horiz-adv-x="1212" 
d="M457 1038q0 -119 141 -180l12 -6l70 391q-111 -9 -167 -65t-56 -140zM801 326q0 141 -154 209l-12 4l-82 -469q115 10 181 76t67 180zM59 387v41l78 16q34 -41 67 -128q32 -87 40 -169q102 -70 229 -79l88 503l-76 35q-123 51 -197 139t-73 201q0 186 137 280t342 101
l23 127h80l-23 -127q88 -4 208 -32t165 -31l-19 -105q-16 -74 -10 -174v-33l-65 -16q-84 82 -107 244q-84 53 -186 63l-76 -426l113 -49q272 -119 272 -352q0 -184 -144 -308t-388 -128l-21 -119h-80l21 121q-233 8 -430 104l22 113q10 55 10 188z" />
    <glyph glyph-name="percent" unicode="%" horiz-adv-x="1437" 
d="M996 31q76 1 108 121q33 120 33 286t-74 166t-109 -119q-34 -119 -34 -287t76 -167zM1305 391q1 -182 -89 -297q-90 -114 -215 -114t-188 68t-63 194q0 180 93 296t232 115q109 1 169 -69t61 -193zM332 0h-101l877 1309h96zM518 1116q0 166 -74 166t-108 -120t-35 -288
q0 -168 75 -167q74 -1 108 121t34 288zM686 1069q0 -182 -89 -298t-214 -116t-188 69t-64 194q0 180 93 296t233 115q109 1 169 -69t60 -191z" />
    <glyph glyph-name="ampersand" unicode="&#x26;" horiz-adv-x="1445" 
d="M569 1083q0 -115 49 -237q215 139 216 328q0 82 -32 124t-89 43q-144 0 -144 -258zM272 406q0 -130 74 -190t195 -60t225 55q-89 96 -193 246q-92 127 -145 256q-156 -119 -156 -307zM1026 1153q0 -246 -389 -350q97 -212 309 -436q119 145 221 387l35 -13
q-43 -266 -172 -456q127 -113 215 -113q57 0 141 113l41 -19q-94 -287 -264 -286q-145 0 -297 131q-172 -131 -409 -131q-120 0 -202 36q-83 36 -128 74t-74 104t-29 144t30 146q28 68 70 113q85 89 197 136q42 18 85 33q-97 261 -16 441q60 135 213 185q60 19 124 19
q141 1 220 -73t79 -185z" />
    <glyph glyph-name="quotesingle" unicode="'" horiz-adv-x="450" 
d="M339 1411q48 0 81 -31t22 -75l-172 -383h-30l-33 383q6 45 45 75t87 31z" />
    <glyph glyph-name="parenleft" unicode="(" horiz-adv-x="659" 
d="M76 424q0 437 276 751q88 99 167 165t183 141l29 -37q-471 -406 -471 -1061q0 -190 48 -355t126 -272l-39 -32q-319 303 -319 700z" />
    <glyph glyph-name="parenright" unicode=")" horiz-adv-x="659" 
d="M399 821q0 189 -48 355t-126 272l39 33q319 -303 320 -701q0 -442 -277 -750q-88 -99 -167 -165t-183 -141l-29 36q471 406 471 1061z" />
    <glyph glyph-name="asterisk" unicode="*" horiz-adv-x="942" 
d="M528 979q29 1 52 23t22 51q0 29 -22 51t-52 20q-28 0 -50 -22t-22 -50t22 -50q21 -22 50 -23zM639 985l45 -280l-35 -21l-147 221q-18 -20 -113 -109t-113 -112l-30 21l145 280l-252 53l6 39l271 49l-43 269l35 18l147 -219l221 219l31 -18l-139 -269l254 -49l-7 -39z
" />
    <glyph glyph-name="plus" unicode="+" horiz-adv-x="1030" 
d="M94 553v111h367v358h110v-358h365v-111h-365v-373h-110v373h-367z" />
    <glyph glyph-name="comma" unicode="," horiz-adv-x="610" 
d="M222 268q66 0 104 -39t39 -94q1 -135 -125 -225t-308 -135l-6 20q61 38 120 95q60 57 87 108q-65 29 -65 105q0 77 44 121t110 44z" />
    <glyph glyph-name="hyphen" unicode="-" horiz-adv-x="677" 
d="M94 502v121h490v-121h-490z" />
    <glyph glyph-name="period" unicode="." horiz-adv-x="610" 
d="M63 110q-1 60 49 110t115 50t101 -36t37 -98q0 -62 -49 -108q-50 -48 -116 -48t-102 34q-35 36 -35 96z" />
    <glyph glyph-name="slash" unicode="/" horiz-adv-x="768" 
d="M-45 -342l702 1825h97l-703 -1825h-96z" />
    <glyph glyph-name="zero" unicode="0" horiz-adv-x="1187" 
d="M518 53q98 0 170 91q72 90 107 232q63 255 63 513q0 369 -188 368q-109 1 -187 -117q-153 -230 -153 -716q0 -371 188 -371zM510 -20q-209 0 -325 135t-115 374q0 373 175 607t431 233q211 0 328 -136t116 -382q0 -359 -172 -595t-438 -236z" />
    <glyph glyph-name="one" unicode="1" horiz-adv-x="761" 
d="M281 1094q-70 0 -120 14t-67 29l-16 14l4 29q101 6 263 50q163 44 265 99l35 -24l-215 -1215l229 -59l-4 -31h-735l4 31l244 57l178 1006h-65z" />
    <glyph glyph-name="two" unicode="2" horiz-adv-x="1120" 
d="M-33 0v78q6 6 118 86t250 190q138 111 195 172q178 190 215 282q37 91 37 169t-55 121t-153 43t-200 -49t-177 -125l-41 28q43 78 107 148q65 70 179 128t242 58q178 0 276 -89t99 -241q0 -97 -63 -226q-24 -48 -76 -106q-52 -57 -87 -95q-34 -38 -110 -95t-110 -82
t-123 -80q-88 -55 -110 -68t-110 -67v-6h510q33 55 81 102t81 66l31 18l33 -18q-43 -123 -60 -219l-22 -123h-957z" />
    <glyph glyph-name="three" unicode="3" horiz-adv-x="1044" 
d="M987 1051q0 -255 -325 -316v-4q118 -20 200 -97t82 -208q0 -206 -158 -326t-405 -120q-131 0 -253 34t-169 76q22 118 91 221q22 31 28 35h86q-23 -145 4 -240q76 -49 205 -49t212 89t83 262q0 127 -79 180t-216 71l37 72q147 13 231 69t84 197q0 82 -53 121t-137 39
q-193 0 -342 -145l-33 26q59 119 185 205t289 86t258 -77t95 -201z" />
    <glyph glyph-name="four" unicode="4" horiz-adv-x="1150" 
d="M729 1053l-555 -625h453l108 625h-6zM-2 346v41l833 922h213l-157 -881h166l-15 -82h-166l-47 -270l144 -45l-4 -31h-574l4 31l170 45l47 270h-614z" />
    <glyph glyph-name="five" unicode="5" horiz-adv-x="1077" 
d="M385 -20q-119 0 -227 30t-144 72q8 68 45 163t62 101h72q-14 -137 18 -240q88 -51 174 -51q143 0 229 84t86 250q0 256 -317 256q-117 0 -207 -22l-10 12l149 674h738l-60 -209h-622l-66 -289q133 10 182 10q215 0 353 -89t137 -271q0 -231 -162 -356t-430 -125z" />
    <glyph glyph-name="six" unicode="6" horiz-adv-x="1122" 
d="M582 721q-61 0 -128 -37t-112 -98q-12 -98 -12 -203q0 -326 194 -326q115 0 184 114t68 292q1 258 -194 258zM1042 473q0 -223 -150 -358t-369 -135q-218 0 -336 120t-117 334q0 393 190 644t510 251q152 0 228 -60t87 -98l9 -18l-39 -35q-86 66 -250 66t-275 -127
t-161 -336q125 104 296 104t274 -96t103 -256z" />
    <glyph glyph-name="seven" unicode="7" horiz-adv-x="1054" 
d="M113 0v55l805 1053h-603q-29 -51 -79 -103t-84 -79l-35 -27l-43 16q47 152 69 271l23 123h885v-179l-758 -1130h-180z" />
    <glyph glyph-name="eight" unicode="8" horiz-adv-x="1085" 
d="M430 1038q0 -139 137 -213l86 -47q152 113 152 275q0 201 -172 200q-106 0 -155 -62q-48 -63 -48 -153zM248 277q0 -88 57 -154t176 -66t186 67t66 175q0 149 -147 227l-140 70q-100 -61 -149 -146t-49 -173zM483 -20q-465 0 -465 301q0 106 92 205t275 145
q-84 51 -140 135t-57 188q0 170 134 272t315 103q183 0 283 -80q100 -79 100 -193t-82 -194t-219 -121l6 -2q262 -139 262 -350q0 -172 -142 -291q-143 -118 -362 -118z" />
    <glyph glyph-name="nine" unicode="9" horiz-adv-x="1132" 
d="M551 588q63 0 128 37t112 96q14 94 14 205q0 326 -195 325q-116 -1 -184 -113t-68 -292q0 -258 193 -258zM362 -20q-194 0 -283 115q-36 46 -36 65l35 33q86 -68 251 -68t275 127t162 336q-129 -102 -299 -102t-272 94q-102 96 -103 256q0 223 151 358t367 135t336 -121
q119 -121 119 -334q0 -394 -192 -644t-511 -250z" />
    <glyph glyph-name="colon" unicode=":" horiz-adv-x="610" 
d="M338 772q-64 0 -99 36q-34 36 -34 96t50 110q51 49 115 49t99 -36q35 -37 35 -97t-51 -109t-115 -49zM196 -20q-64 0 -99 36q-34 36 -34 94q-1 60 51 110t116 50t99 -36q33 -36 33 -96t-51 -110q-51 -48 -115 -48z" />
    <glyph glyph-name="semicolon" unicode=";" horiz-adv-x="610" 
d="M338 772q-64 0 -98 36q-35 36 -35 96t51 110q52 49 116 49t98 -36q34 -37 34 -97t-51 -109t-115 -49zM222 268q66 0 104 -39t39 -94q1 -135 -125 -225t-308 -135l-6 20q61 38 120 95q60 57 87 108q-65 29 -65 105q0 77 44 121t110 44z" />
    <glyph glyph-name="less" unicode="&#x3c;" horiz-adv-x="1030" 
d="M94 561v98l842 371v-127l-686 -293l686 -295v-127z" />
    <glyph glyph-name="equal" unicode="=" horiz-adv-x="1030" 
d="M94 397v111h842v-111h-842zM94 752v110h842v-110h-842z" />
    <glyph glyph-name="greater" unicode="&#x3e;" horiz-adv-x="1030" 
d="M936 659v-98l-842 -373v127l686 295l-686 293v127z" />
    <glyph glyph-name="question" unicode="?" horiz-adv-x="1011" 
d="M329 -20q-60 0 -100 39q-39 39 -38 99t51 106t108 46q60 0 100 -39t40 -98t-51 -106q-50 -47 -110 -47zM623 1411q179 0 287 -83t108 -213q0 -243 -180 -373q-154 -109 -355 -146l-84 -197h-32l-41 340q4 1 47 11t60 15t61 18t68 27t61 37t59 49t42 60q42 65 42 171
q0 107 -56 155t-142 47q-86 0 -160 -45q-39 -96 -39 -194l2 -33l-158 -23q-12 36 -19 108t11 113q162 156 418 156z" />
    <glyph glyph-name="at" unicode="@" horiz-adv-x="1839" 
d="M850 297q72 0 135 100t88 236l45 262q-45 78 -125 78q-100 0 -167 -139q-66 -139 -66 -338t90 -199zM1317 215q115 0 201 133t86 385t-150 428t-422 176q-328 1 -532 -237t-205 -597q0 -359 211 -520q149 -119 364 -143q45 -4 88 -4q211 0 392 53l10 -36
q-190 -90 -422 -91q-341 0 -560 164q-77 57 -131 131t-89 188t-35 251q0 397 253 656t656 259q354 0 549 -197t195 -483q0 -155 -47 -275t-124 -186q-150 -129 -306 -129q-156 1 -208 59t-49 140l2 39h-6q-111 -209 -278 -209q-108 0 -178 78t-70 223q0 244 138 406t337 161
q129 0 225 -75l131 69l35 -8l-114 -637q-18 -59 -11 -116q8 -56 64 -56z" />
    <glyph glyph-name="A" unicode="A" horiz-adv-x="1378" 
d="M662 1042h-7l-297 -538h422zM-145 0l4 31l139 45l735 1315l109 20l321 -1335l121 -45l-4 -31h-567l4 31l160 43l-78 352h-486l-192 -352l143 -43l-4 -31h-405z" />
    <glyph glyph-name="B" unicode="B" horiz-adv-x="1306" 
d="M719 1313h-144l-96 -541h135q170 0 262 82q91 82 91 223q0 236 -248 236zM670 694h-205l-111 -616h203q176 0 268 96t93 272q0 116 -62 182t-186 66zM752 1391q223 0 356 -80t133 -236q0 -266 -340 -342v-6q293 -70 293 -303q0 -212 -174 -318t-453 -106h-645l4 31
l162 45l221 1239l-145 45l6 31h582z" />
    <glyph glyph-name="C" unicode="C" horiz-adv-x="1265" 
d="M823 1325q-197 1 -327 -193t-129 -503q0 -240 99 -365t263 -125q242 0 428 230l29 -19q-62 -136 -171 -239q-61 -59 -153 -95t-198 -36q-268 0 -428 164t-160 434t109 459q110 189 285 281t388 93q113 -1 244 -23t168 -24l-21 -119q-12 -62 -12 -188v-35l-37 -10
q-10 6 -29 22q-18 16 -59 84t-63 158q-88 49 -226 49z" />
    <glyph glyph-name="D" unicode="D" horiz-adv-x="1476" 
d="M741 1309h-170l-215 -1225h232q174 0 297 104q231 195 231 625q0 225 -100 361q-101 135 -275 135zM764 1391q289 0 463 -159t174 -431q0 -371 -239 -586t-597 -215h-643l4 31l162 45l221 1239l-145 45l6 31h594z" />
    <glyph glyph-name="E" unicode="E" horiz-adv-x="1257" 
d="M926 543l-39 116l-426 13l-105 -588h521q41 80 95 157t87 113l33 37l34 -14q-59 -207 -75 -311l-11 -66h-1118l4 31l162 45l221 1239l-145 45l6 31h1069l-10 -64q-18 -109 -29 -246l-2 -49l-45 -8q-80 109 -104 285h-474l-100 -566l430 15l70 106h41l-55 -321h-35z" />
    <glyph glyph-name="F" unicode="F" horiz-adv-x="1222" 
d="M928 475l-31 150l-442 12l-101 -561l150 -45l-4 -31h-578l4 31l162 45l221 1239l-145 45l6 31h1079l-10 -64l-33 -295l-43 -8q-80 109 -104 285h-486l-106 -600l448 14l76 143h43l-69 -391h-37z" />
    <glyph glyph-name="G" unicode="G" horiz-adv-x="1390" 
d="M881 1327q-227 0 -373 -216t-146 -552q0 -237 98 -365t255 -128q70 0 143 28l84 455l-102 45l4 29h459l-5 -29l-98 -45l-80 -447q45 -12 58 -16l-4 -27q-221 -80 -455 -79q-287 0 -465 147t-178 440q0 393 240 619q241 225 591 225q94 1 251 -23t200 -24l-17 -92
q-21 -127 -16 -211l2 -33l-39 -10q-12 8 -31 23q-18 15 -59 81t-61 148q-104 57 -256 57z" />
    <glyph glyph-name="H" unicode="H" horiz-adv-x="1495" 
d="M758 0l4 31l160 45l108 618h-565l-109 -618l144 -45l-6 -31h-572l6 31l160 45l221 1239l-145 45l6 31h569l-4 -31l-160 -45l-94 -537h566l94 537l-144 45l7 31h569l-6 -31l-158 -45l-221 -1239l143 -45l-4 -31h-569z" />
    <glyph glyph-name="I" unicode="I" horiz-adv-x="661" 
d="M-78 0l4 31l162 45l221 1239l-145 45l6 31h569l-4 -31l-160 -45l-221 -1239l144 -45l-4 -31h-572z" />
    <glyph glyph-name="J" unicode="J" horiz-adv-x="655" 
d="M-236 -362q-45 0 -94 6q4 82 80 260h141q-8 -24 -18 -92t2 -99q27 2 79 24t93 58l266 1520l-151 45l6 31h565l-6 -31l-147 -45l-261 -1481q-186 -196 -555 -196z" />
    <glyph glyph-name="K" unicode="K" horiz-adv-x="1390" 
d="M954 0q-82 43 -161 207l-218 450h-118l-103 -581l144 -45l-4 -31h-572l4 31l162 45l221 1239l-145 45l6 31h569l-4 -31l-160 -45l-102 -576h105l585 578l-127 43l4 31h410l-4 -31l-148 -45l-510 -496l256 -497q104 -203 238 -291l-6 -31h-322z" />
    <glyph glyph-name="L" unicode="L" horiz-adv-x="1150" 
d="M-78 0l4 31l162 45l221 1239l-145 45l6 31h569l-4 -31l-160 -45l-219 -1231h465q84 156 180 272l33 41l39 -12q-57 -199 -76 -311l-12 -74h-1063z" />
    <glyph glyph-name="M" unicode="M" horiz-adv-x="1650" 
d="M360 1018h-8l-166 -944l142 -43l-4 -31h-402l4 31l158 43l221 1243l-139 43l4 31h371l247 -949h5l546 949h390l-5 -31l-159 -43l-222 -1243l144 -43l-4 -31h-563l4 31l157 43l166 944h-6q-63 -113 -88 -156l-459 -796h-86l-225 782q-20 65 -23 143v27z" />
    <glyph glyph-name="N" unicode="N" horiz-adv-x="1411" 
d="M1020 0l-645 1106l-182 -1032l141 -43l-4 -31h-408l4 31l158 43l221 1243l-139 43l4 31h350l549 -959l158 885l-142 43l5 31h405l-4 -31l-156 -43l-233 -1317h-82z" />
    <glyph glyph-name="O" unicode="O" horiz-adv-x="1468" 
d="M640 59q128 0 221 77q159 132 221 453q26 130 26 259q0 278 -125 414q-68 72 -168 71q-195 0 -326 -216t-131 -589q0 -213 77 -341t205 -128zM664 -20q-268 0 -428 160t-160 435q0 379 212 607t523 229q272 0 427 -162t155 -446q0 -355 -210 -589t-519 -234z" />
    <glyph glyph-name="P" unicode="P" horiz-adv-x="1308" 
d="M729 489q-96 0 -188 33l6 35h82q178 2 276 118t99 320q0 313 -285 314h-137l-220 -1233l168 -45l-6 -31h-594l7 31l159 45l219 1239l-143 45l4 31h586q240 1 381 -103t141 -316t-162 -348t-393 -135z" />
    <glyph glyph-name="Q" unicode="Q" horiz-adv-x="1468" 
d="M640 59q128 0 221 77q159 132 221 453q26 130 26 259q0 278 -125 414q-68 72 -168 71q-195 0 -326 -216t-131 -589q0 -213 77 -341t205 -128zM76 563q0 381 216 615t529 233q266 0 419 -158q153 -159 153 -453t-159 -515t-413 -285v-4l74 -76q145 -164 262 -211l-4 -31
h-332q-94 41 -176 152l-123 160q-210 36 -328 186t-118 387z" />
    <glyph glyph-name="R" unicode="R" horiz-adv-x="1337" 
d="M721 1309h-148l-110 -623h297q154 86 191 204q19 60 20 136q-1 137 -65 210t-185 73zM772 1391q219 -1 350 -93t131 -252q0 -297 -338 -397v-10l93 -293q53 -165 119 -241q64 -68 104 -74l-6 -31h-324q-94 47 -139 213l-113 397h-198l-97 -534l144 -45l-4 -31h-572l4 31
l162 45l221 1239l-145 45l6 31h602z" />
    <glyph glyph-name="S" unicode="S" horiz-adv-x="1185" 
d="M696 1327q-132 0 -198 -61q-66 -60 -66 -146t40 -132t118 -87l203 -100q268 -125 268 -359q0 -198 -154 -330q-155 -132 -417 -132t-486 106l23 113q10 55 10 188v41l39 16q14 -12 37 -36t65 -103q42 -78 53 -160q121 -77 258 -77t224 74q86 75 86 206q0 152 -170 240
l-205 102q-102 51 -170 133t-68 191q0 199 153 298t370 99q111 0 255 -31t177 -34l-19 -105q-12 -74 -12 -174l2 -33l-37 -12q-31 21 -79 94t-68 150q-100 61 -232 61z" />
    <glyph glyph-name="T" unicode="T" horiz-adv-x="1263" 
d="M1266 1028q-82 117 -113 281h-281l-219 -1233l154 -45l-4 -31h-590l4 31l170 45l219 1233h-272q-41 -86 -94 -156t-84 -96l-33 -29l-33 8q49 188 66 291l10 64h1175l-10 -64q-16 -90 -22 -242l-2 -49z" />
    <glyph glyph-name="U" unicode="U" horiz-adv-x="1449" 
d="M657 -20q-442 0 -542 299l184 1036l-145 45l4 31h571l-6 -31l-158 -45l-166 -934q-25 -137 53 -216t230 -79t272 81t144 220l166 928l-146 45l6 31h414l-6 -31l-158 -45l-184 -1026q-164 -309 -533 -309z" />
    <glyph glyph-name="V" unicode="V" horiz-adv-x="1361" 
d="M625 -20h-103l-305 1335l-123 45l4 31h570l-4 -31l-158 -43l194 -971h9l532 971l-141 43l4 31h403l-4 -31l-139 -45z" />
    <glyph glyph-name="W" unicode="W" horiz-adv-x="2060" 
d="M537 -20h-101l-219 1335l-123 45l4 31h566l-5 -31l-159 -43l129 -940h6l424 833l-21 113l113 68h166l149 -1014h7l464 940l-137 43l4 31h402l-4 -31l-146 -45l-676 -1335h-102l-191 1064z" />
    <glyph glyph-name="X" unicode="X" horiz-adv-x="1323" 
d="M-147 0l4 31l137 45l528 577l-305 666l-119 41l4 31h543l-4 -31l-121 -37l215 -467l418 463l-113 43l4 29h379l-4 -31l-137 -45l-506 -549l316 -698l133 -37l-4 -31h-562l5 31l129 39l-228 487l-430 -483l109 -43l-4 -31h-387z" />
    <glyph glyph-name="Y" unicode="Y" horiz-adv-x="1323" 
d="M238 0l4 31l172 45l94 530l-299 709l-119 45l4 31h565l-4 -31l-153 -43l227 -600h6l471 600l-131 43l6 31h392l-7 -31l-139 -45l-549 -688l-98 -551l156 -45l-5 -31h-593z" />
    <glyph glyph-name="Z" unicode="Z" horiz-adv-x="1185" 
d="M190 1020l-43 16q51 164 72 279l12 76h1006l-12 -68l-951 -1239h576q33 70 87 142t91 108l39 37l45 -15q-45 -147 -68 -274l-14 -82h-1106l10 57l961 1252h-485q-29 -70 -84 -143t-97 -109z" />
    <glyph glyph-name="bracketleft" unicode="[" horiz-adv-x="698" 
d="M25 -254l307 1737h426l-15 -76h-249l-281 -1587h250l-12 -74h-426z" />
    <glyph glyph-name="backslash" unicode="\" horiz-adv-x="796" 
d="M535 -342l-316 1825h96l318 -1825h-98z" />
    <glyph glyph-name="bracketright" unicode="]" horiz-adv-x="698" 
d="M674 1483l-307 -1737h-426l14 76h250l280 1587h-249l12 74h426z" />
    <glyph glyph-name="asciicircum" unicode="^" horiz-adv-x="878" 
d="M786 750h-120l-230 522l-225 -522h-117l266 641h154z" />
    <glyph glyph-name="underscore" unicode="_" horiz-adv-x="1028" 
d="M-137 -301v92h1042v-92h-1042z" />
    <glyph glyph-name="grave" unicode="`" horiz-adv-x="561" 
d="M293 1485h29l264 -289l-23 -29l-375 164z" />
    <glyph glyph-name="a" unicode="a" horiz-adv-x="1212" 
d="M469 115q98 0 185 132t118 312l55 320q-59 113 -190 113t-220 -174q-89 -173 -89 -438t141 -265zM375 -20q-141 0 -229 97q-87 97 -87 273q0 307 174 511t424 204q147 0 258 -94l158 94l35 -14l-158 -889q-8 -64 27 -64t77 40t68 79l27 41l37 -16l-11 -28q-7 -18 -35 -63
q-28 -46 -61 -80t-88 -63q-55 -28 -130 -28t-113 62t-23 144l12 60l-10 2q-135 -268 -352 -268z" />
    <glyph glyph-name="b" unicode="b" horiz-adv-x="1189" 
d="M526 53q160 0 249 170t89 438t-155 269q-98 0 -185 -129t-118 -305l-66 -359q70 -84 186 -84zM522 -20q-143 0 -256 81l-176 -81l-22 20l245 1378l-135 25l4 35l359 65h41l-84 -477q-20 -115 -52 -199l-10 -28l10 -2q131 268 347 268q149 0 243 -102t94 -287
q0 -303 -169 -500q-171 -196 -439 -196z" />
    <glyph glyph-name="c" unicode="c" horiz-adv-x="978" 
d="M637 985q-152 0 -236 -144t-84 -378q0 -348 222 -348q98 0 170 55t151 164l33 -17q-49 -145 -159 -242t-286 -97t-283 109q-105 110 -106 310q1 303 179 485t415 183q115 0 198 -34t114 -68q-8 -63 -36 -127t-50 -95l-23 -30l-123 22q39 102 43 213q-59 39 -139 39z" />
    <glyph glyph-name="d" unicode="d" horiz-adv-x="1230" 
d="M483 113q94 0 179 110q84 111 112 264l76 410q-78 94 -186 94q-160 0 -248 -170t-88 -439t155 -269zM399 -20q-151 0 -245 101t-95 284q0 303 170 501t437 199q115 0 204 -51l68 364l-135 25l4 35l360 65h39l-237 -1341q-13 -64 23 -64t79 40t70 79l26 41l35 -16l-11 -28
q-7 -18 -35 -63q-28 -46 -60 -80t-88 -63q-55 -28 -130 -28t-115 63t-22 143l13 60l-11 2q-129 -268 -344 -268z" />
    <glyph glyph-name="e" unicode="e" horiz-adv-x="1001" 
d="M598 991q-108 0 -188 -128t-95 -341q213 7 319 92q40 34 68 92t27 134q0 76 -37 114t-94 37zM461 -20q-188 0 -295 104q-106 104 -107 301q0 303 167 491t392 189q156 0 245 -67t89 -175q0 -148 -113 -225q-113 -78 -250 -102t-276 -31v-31q0 -324 219 -323
q172 0 330 198l31 -18q-141 -311 -432 -311z" />
    <glyph glyph-name="f" unicode="f" horiz-adv-x="714" 
d="M718 1503q153 0 255 -51q-2 -64 -25 -122t-43 -85l-22 -26l-125 20q51 76 61 186q-43 12 -74 13q-156 0 -196 -260l-23 -144h258l-12 -76h-258l-143 -919q-31 -207 -141 -304t-250 -97t-222 51q2 63 26 121t46 84l23 24l118 -20q-47 -80 -59 -193l37 -2q51 0 85 42t48 91
t27 127l155 995h-147l8 48l151 28l11 68q31 205 154 303q124 98 277 98z" />
    <glyph glyph-name="g" unicode="g" horiz-adv-x="1099" 
d="M190 -119q0 -76 73 -123t196 -47q256 0 289 164l12 68q-39 51 -158 57l-266 14q-61 6 -70 15q-76 -72 -76 -148zM530 442q109 0 162 102t53 220q0 236 -155 235q-109 0 -162 -101t-53 -219q1 -117 41 -177t114 -60zM518 375q-59 -1 -110 -19q-52 -18 -52 -67t76 -51
l230 -13q260 -12 350 -143l-19 -113q-23 -155 -169 -243t-371 -88t-344 61t-119 156q0 59 54 113t159 85q-94 49 -94 144q0 166 229 209q-199 76 -199 264t127 292t316 103q125 0 213 -37q165 4 276 45l41 12l-2 -135q-88 -25 -199 -8l-2 -4q72 -86 72 -193
q0 -172 -133 -271t-330 -99z" />
    <glyph glyph-name="h" unicode="h" horiz-adv-x="1230" 
d="M745 938q-104 0 -199 -129t-128 -313l-90 -496h-250l246 1378l-134 25l5 35l358 65h39l-82 -477q-19 -113 -51 -199l-10 -28l10 -2q145 268 377 268q134 0 200 -88t43 -227l-104 -588q-11 -64 23 -64t76 41t69 82l24 41l41 -20q-15 -36 -49 -91q-109 -171 -285 -171
q-78 0 -118 56q-41 56 -27 138l109 614q25 150 -93 150z" />
    <glyph glyph-name="i" unicode="i" horiz-adv-x="659" 
d="M436 1221q-140 1 -139 125q0 60 43 103q44 44 114 44t105 -33q35 -32 35 -92t-43 -104t-115 -43zM309 -20q-94 0 -136 56t-26 138l129 709q10 63 -24 63t-77 -41q-42 -41 -69 -82l-24 -41l-39 21q13 33 46 85q32 52 65 86t88 62t116 29q98 0 140 -55t24 -140l-131 -708
q-10 -64 25 -64t77 41t68 82l25 41l39 -20q-13 -32 -46 -84q-33 -53 -67 -87q-34 -35 -88 -63q-56 -28 -115 -28z" />
    <glyph glyph-name="j" unicode="j" horiz-adv-x="638" 
d="M454 1221q-140 1 -139 125q0 60 43 103q44 44 114 44t106 -33q36 -32 34 -92q0 -60 -43 -104t-115 -43zM-72 -362q-96 0 -170 20q2 66 22 126q19 60 40 89l18 27l144 -23q-39 -74 -54 -180q109 12 168 70l197 1116q12 63 -23 63q-34 0 -76 -41t-67 -82l-27 -41l-39 21
q11 28 45 83q34 54 67 88q34 34 89 62t115 29q100 0 139 -56t25 -139l-187 -1056q-137 -176 -426 -176z" />
    <glyph glyph-name="k" unicode="k" horiz-adv-x="1191" 
d="M1044 1065q61 0 103 -12l12 -2q-20 -140 -57 -211l-12 -23h-121q16 78 22 141q-23 -2 -53 -16q-152 -66 -317 -319q137 -27 188 -156l63 -154q76 -195 123 -194q29 0 65 37t58 73l21 37l41 -20q-42 -107 -86 -158q-94 -110 -193 -108q-195 0 -278 229l-72 197
q-49 133 -125 151l-98 -557h-250l244 1378l-134 23l7 37l356 63h41l-156 -883q51 8 92 11q260 436 516 436z" />
    <glyph glyph-name="l" unicode="l" horiz-adv-x="612" 
d="M524 151q-108 -171 -284 -171q-78 0 -118 56t-28 138l215 1204l-135 25l6 35l357 65h41l-238 -1341q-10 -64 25 -64t77 41t66 82l27 41l38 -20q-15 -36 -49 -91z" />
    <glyph glyph-name="m" unicode="m" horiz-adv-x="1863" 
d="M250 946q-34 0 -77 -41q-42 -41 -69 -82l-26 -39l-37 19q67 167 197 233q56 29 130 29t112 -59t22 -138l-15 -69l11 -2q141 268 364 268q117 0 179 -72t57 -196h6q141 268 369 268q133 0 197 -88t42 -227l-104 -588q-10 -64 24 -64t75 41q42 41 69 82l26 41l39 -20
q-66 -164 -201 -234q-55 -29 -116 -28q-94 0 -135 56t-27 138l108 614q25 150 -88 150q-102 0 -194 -129t-125 -313l-90 -496h-250l139 788q29 150 -86 150q-104 0 -196 -129t-123 -313l-90 -496h-250l157 883q10 63 -24 63z" />
    <glyph glyph-name="n" unicode="n" horiz-adv-x="1267" 
d="M784 938q-106 0 -201 -129t-126 -313l-90 -496h-250l157 883q10 63 -24 63t-77 -41q-42 -41 -69 -82l-26 -39l-37 19q67 167 197 233q56 29 130 29t112 -59t22 -138l-15 -69l11 -2q141 268 374 268q135 0 202 -88t42 -227l-102 -588q-10 -64 24 -64t75 41q42 41 67 82
l26 41l39 -20q-38 -94 -118 -178q-79 -84 -213 -84q-78 0 -119 56t-27 138l109 614q25 150 -93 150z" />
    <glyph glyph-name="o" unicode="o" horiz-adv-x="1120" 
d="M495 53q83 -1 144 59q109 107 151 378t-33 413q-46 88 -130 88q-228 0 -296 -437q-43 -272 33 -412q48 -88 131 -89zM529 -20q-216 0 -343 124t-127 326q0 285 158 460t377 175t343 -125t124 -328q0 -276 -158 -454t-374 -178z" />
    <glyph glyph-name="p" unicode="p" horiz-adv-x="1245" 
d="M584 53q160 0 248 169t88 438t-156 270q-94 0 -179 -112t-112 -263l-74 -412q70 -90 185 -90zM254 946q-35 0 -78 -41t-70 -82l-26 -39l-35 19q13 32 44 84q32 53 66 87t90 62q57 28 131 29q74 0 111 -61t19 -140l-14 -65l10 -2q133 268 346 268q150 0 244 -102t94 -287
q0 -303 -170 -500t-436 -196q-109 0 -203 49l-53 -295l161 -45l-4 -31h-563l4 31l154 45l203 1149q10 63 -25 63z" />
    <glyph glyph-name="q" unicode="q" horiz-adv-x="1177" 
d="M483 113q96 0 183 129q86 129 118 305l64 358q-66 86 -182 86q-162 0 -250 -170t-88 -439t155 -269zM399 -20q-151 0 -245 101t-95 284q0 303 171 501t440 199q147 0 260 -86l166 84l28 -19l-233 -1310l137 -45l-4 -31h-563l4 31l178 45l51 284q21 123 49 199l11 29
l-11 2q-125 -268 -344 -268z" />
    <glyph glyph-name="r" unicode="r" horiz-adv-x="954" 
d="M483 727q153 338 373 338q60 0 92 -10q-14 -113 -43 -200t-49 -118l-22 -30h-113q2 15 6 37t9 83t-1 86q-98 -47 -182 -187t-113 -308l-73 -418h-250l157 883q10 63 -24 63t-77 -41q-42 -41 -69 -82l-26 -39l-37 19q41 103 91 154q106 108 222 108q88 0 126 -59t22 -138
l-29 -139z" />
    <glyph glyph-name="s" unicode="s" horiz-adv-x="931" 
d="M575 993q-88 0 -140 -46t-52 -120q0 -106 102 -147l148 -64q223 -98 223 -270t-127 -269t-323 -97t-379 86q2 66 20 128t37 93l18 28l107 -20q-18 -86 -25 -176q100 -66 206 -66t164 52t58 155t-114 152l-138 59q-205 88 -204 268q0 111 67 189q119 137 344 137
q90 0 199 -24t141 -23q-1 -66 -23 -128t-42 -93l-21 -31l-110 20q25 76 34 162q-82 45 -170 45z" />
    <glyph glyph-name="t" unicode="t" horiz-adv-x="757" 
d="M504 74q98 0 186 61l21 -31q-145 -124 -325 -124t-277 120l151 869h-147l8 47l160 28l217 291h75l-51 -291h246l-12 -75h-248l-148 -838q46 -57 144 -57z" />
    <glyph glyph-name="u" unicode="u" horiz-adv-x="1265" 
d="M403 -20q-209 0 -260 192l131 711q10 63 -26 63q-29 0 -68 -41t-61 -82l-25 -41l-39 21q41 102 89 153q102 109 205 109t145 -57t26 -138l-133 -704q19 -62 115 -62t189 130t126 313l88 497h250l-158 -882q-10 -64 25 -64t78 40t69 79l27 41l35 -16l-11 -28
q-7 -18 -36 -63q-29 -46 -62 -80t-87 -63t-115 -28q-90 0 -127 59t-23 135l14 72l-10 2q-140 -268 -371 -268z" />
    <glyph glyph-name="v" unicode="v" horiz-adv-x="1116" 
d="M430 -20q-143 0 -216 89t-48 226l102 588q10 63 -22 63t-76 -41q-43 -41 -72 -82l-26 -39l-35 19q4 10 10 27q6 18 33 64t59 80q88 91 227 91q80 0 121 -57t27 -138l-108 -614q-33 -162 92 -162q96 0 187 100t159 271q78 213 102 420q-68 40 -137 51l-25 4l84 125
q125 -4 211 -80q-43 -324 -141 -561q-186 -444 -508 -444z" />
    <glyph glyph-name="w" unicode="w" horiz-adv-x="1685" 
d="M1100 94q94 0 178 109t152 297t86 385q-74 40 -140 51l-26 4l82 125q129 -4 217 -80q-41 -291 -127 -532q-172 -473 -490 -473q-120 0 -190 72t-64 190h-4q-139 -262 -354 -262q-137 0 -208 89t-46 226l102 588q10 63 -22 63t-76 -41q-43 -41 -72 -82l-26 -39l-35 19
q4 10 10 27q6 18 33 64t59 80q88 91 227 91q80 0 121 -57t27 -138l-108 -614q-25 -162 81 -162q92 0 182 122q89 122 150 321l78 456l70 51h186l-133 -788q-29 -162 80 -162z" />
    <glyph glyph-name="x" unicode="x" horiz-adv-x="1134" 
d="M236 889q-59 0 -60 -232l-41 -6q-41 90 12 259q19 65 75 110t132 45q106 0 160 -104l133 -263q182 309 354 367q86 -12 150 -76l-88 -141q-49 55 -105 67q-127 -74 -266 -303l213 -413q20 -45 45 -45q59 0 60 233l41 6q38 -220 -60 -340q-59 -73 -163 -73t-158 108
l-154 299q-189 -337 -379 -407q-92 8 -155 75l88 144q53 -66 110 -78q133 88 287 360l-186 365q-20 43 -45 43z" />
    <glyph glyph-name="y" unicode="y" horiz-adv-x="1087" 
d="M197 899q-37 0 -63 -85t-25 -118l-46 4q-9 87 35 213q23 63 79 107t134 45q137 0 185 -156l170 -657h2q100 168 178 342t96 270q-60 37 -147 49l-27 2l90 150q121 4 213 -84q-8 -129 -100 -352t-226 -445q-256 -415 -485 -546q-94 24 -199 112l-28 29l114 127
q70 -78 148 -109q88 61 190 189l-252 858q-16 55 -36 55z" />
    <glyph glyph-name="z" unicode="z" horiz-adv-x="1046" 
d="M125 840q0 98 49 161q48 63 140 63t256 -73t205 -73q42 0 71 34l82 92h127v-24l-731 -801q43 12 89 12q47 0 161 -20t157 -21q121 0 152 134l10 53h41q29 -70 29 -176q0 -244 -224 -244q-88 0 -262 73q-174 72 -218 72t-64 -24l-68 -78h-119v27l705 774q-76 -25 -212 2
q-136 26 -169 26q-100 0 -125 -106l-14 -59h-35q-33 78 -33 176z" />
    <glyph glyph-name="braceleft" unicode="{" horiz-adv-x="761" 
d="M393 -272q-161 0 -233 84t-29 256l72 303q33 133 6 174t-148 51l7 43q127 10 168 51t55 172l33 301q18 178 106 259t264 81q45 0 119 -8l-8 -45l-49 -4q-84 -8 -127 -43t-56 -135l-32 -289q-12 -106 -36 -171q-41 -112 -165 -155q-49 -16 -139 -32v-9q160 -30 210 -100
t3 -260l-72 -289q-25 -98 8 -134t109 -44q13 0 29 -2t20 -2l-6 -45q-74 -8 -109 -8z" />
    <glyph glyph-name="bar" unicode="|" horiz-adv-x="483" 
d="M291 -342h-94v1825h94v-1825z" />
    <glyph glyph-name="braceright" unicode="}" horiz-adv-x="761" 
d="M369 1503q161 0 233 -84t29 -256l-72 -303q-33 -133 -6 -174t147 -51l-6 -43q-127 -10 -168 -51t-55 -172l-33 -301q-18 -178 -106 -259t-264 -81q-45 0 -119 8l8 45l49 4q84 8 127 43t55 135l33 289q12 106 36 171q41 112 165 155q49 16 139 32v8q-160 31 -210 101
t-3 260l72 289q25 98 -8 134t-109 44q-13 0 -29 2t-20 2l6 45q74 8 109 8z" />
    <glyph glyph-name="asciitilde" unicode="~" horiz-adv-x="1226" 
d="M880 510q-78 0 -224 67t-216 66q-150 0 -264 -141l-82 71q129 203 361 203q95 0 247 -68t193 -69q94 0 162 94l78 -71q-39 -66 -108 -109t-147 -43z" />
    <glyph glyph-name="DEL" 
 />
    <glyph glyph-name="uni00A0" unicode="&#xa0;" horiz-adv-x="428" 
 />
    <glyph glyph-name="exclamdown" unicode="&#xa1;" horiz-adv-x="569" 
d="M365 1065q61 0 103 -39t42 -99q0 -61 -47 -107t-109 -46t-103 40q-42 40 -42 99t47 106q48 46 109 46zM146 -367q-55 0 -99 30q-43 30 -43 83l297 899h27l-21 -899q-18 -53 -62 -83t-99 -30z" />
    <glyph glyph-name="cent" unicode="&#xa2;" horiz-adv-x="1097" 
d="M377 578q0 -258 151 -320l148 844q-143 -31 -221 -174t-78 -350zM119 524q0 276 169 454t402 208l27 143h78l-25 -139q115 -2 197 -40t108 -75q-16 -66 -47 -125t-53 -86l-23 -28l-121 16q38 113 33 223q-49 33 -108 35l-154 -870h21q87 0 163 40t166 126l25 -25
q-133 -260 -397 -277l-23 -124h-78l23 124q-180 14 -282 123q-101 109 -101 297z" />
    <glyph glyph-name="sterling" unicode="&#xa3;" horiz-adv-x="1257" 
d="M844 1329q94 1 222 -23t151 -26l-19 -102q-10 -58 -10 -154l2 -29l-37 -18q-12 6 -50 44q-72 72 -87 193q-78 39 -160 39q-231 0 -299 -397l-27 -162h263l-15 -80h-264l-27 -155q-47 -264 -217 -375h578q29 90 82 168t92 113l39 32l35 -12q-49 -174 -66 -266l-22 -119
h-1033l7 33l149 39q39 70 86 325l37 217h-168l14 80h170l27 156q41 233 185 356t362 123z" />
    <glyph glyph-name="yen" unicode="&#xa5;" horiz-adv-x="1386" 
d="M219 629l14 80h265l-226 524l-116 45l4 31h571l-6 -31l-152 -43l201 -524h4l420 524l-135 43l6 31h389l-4 -31l-139 -45l-428 -524h291l-17 -80h-340l-2 -2l-24 -144h342l-13 -80h-344l-57 -327l154 -45l-7 -31h-589l6 31l170 45l57 327h-332l13 80h331l21 111l-17 35
h-311z" />
    <glyph glyph-name="brokenbar" unicode="&#xa6;" horiz-adv-x="483" 
d="M297 758h-111v725h111v-725zM297 -252h-111v725h111v-725z" />
    <glyph glyph-name="section" unicode="&#xa7;" horiz-adv-x="1208" 
d="M850 457q0 127 -164 186l-221 80q-59 20 -100 49q-51 -80 -52 -180q0 -123 162 -186l223 -78q61 -23 101 -49q51 82 51 178zM1075 565q0 -209 -217 -336q84 -90 84 -219q0 -186 -145 -279t-353 -93q-112 0 -252 30t-176 35l19 104q10 58 10 164l-2 31l49 14q10 -6 28 -20
t52 -72q35 -58 47 -137q103 -66 229 -66q126 -1 194 57t67 144q0 113 -164 172l-185 72q-132 45 -202 128t-70 191q0 207 217 334q-84 90 -84 218t75 216q136 160 423 160q111 0 252 -32t176 -35l-19 -105q-10 -58 -10 -162l2 -30l-51 -17q-9 6 -27 20t-52 73
q-34 58 -46 137q-104 66 -230 66t-194 -58q-66 -57 -65 -144q0 -113 163 -170l183 -71q133 -45 203 -128t71 -192z" />
    <glyph glyph-name="dieresis" unicode="&#xa8;" horiz-adv-x="684" 
d="M611 1223q-47 -1 -73 27t-26 74t39 86t87 40t74 -29t26 -75t-40 -85q-39 -38 -87 -38zM303 1223q-49 -1 -75 27t-26 75t41 86q40 39 87 39q46 0 72 -29t26 -75t-38 -85q-38 -38 -87 -38z" />
    <glyph glyph-name="copyright" unicode="&#xa9;" horiz-adv-x="1656" 
d="M866 211q-200 0 -324 123t-124 346t137 350t350 127q66 0 148 -14t108 -15v-79q0 -78 13 -138l4 -22l-35 -12q-31 12 -76 70t-68 124q-49 23 -96 23q-109 0 -173 -102t-64 -284q0 -180 70 -276t178 -96q106 0 161 39t103 104l34 -18q-34 -100 -120 -175t-226 -75z
M861 1358q-269 0 -461 -195t-191 -468q0 -273 191 -467q190 -194 460 -194t463 194t193 466t-193 468t-462 196zM147 694q0 297 209 507t506 210t507 -210t210 -507t-210 -506q-210 -208 -507 -208t-506 208t-209 506z" />
    <glyph glyph-name="ordfeminine" unicode="&#xaa;" horiz-adv-x="761" 
d="M365 887q37 0 71 56t47 128l29 170q-23 37 -63 37q-57 0 -97 -83t-41 -218q1 -90 54 -90zM289 786q-63 0 -107 48t-45 141q0 154 85 254t210 100q84 0 148 -43l88 39l24 -4l-74 -432q-4 -31 15 -31q25 0 65 60l15 20l22 -12q-28 -83 -112 -124q-33 -16 -74 -16t-65 29
t-21 76l4 22h-4q-70 -127 -174 -127z" />
    <glyph glyph-name="guillemotleft" unicode="&#xab;" horiz-adv-x="1097" 
d="M1038 948l-303 -430l152 -424h-76l-293 398v53l445 403h75zM596 948l-303 -430l151 -424h-75l-293 398v53l444 403h76z" />
    <glyph glyph-name="logicalnot" unicode="&#xac;" horiz-adv-x="1030" 
d="M94 557v111h842v-469h-111v358h-731z" />
    <glyph glyph-name="registered" unicode="&#xae;" horiz-adv-x="1300" 
d="M698 1122h-45v-274h95q68 39 67 137q0 137 -117 137zM1036 557h-178q-45 18 -76 92l-63 164h-66v-223l58 -19v-14h-281v14l64 19v538l-64 19v14h305q113 0 179 -42t65 -128q0 -109 -107 -149v-4l56 -129q25 -55 52 -91q28 -35 42 -40l14 -7v-14zM717 1360
q-207 0 -355 -150t-147 -360q0 -210 147 -361q146 -149 354 -149t354 150t147 360q-1 210 -147 360t-353 150zM158 849q0 232 164 397t395 165t397 -165t166 -397t-165 -395t-397 -163t-396 163t-164 395z" />
    <glyph glyph-name="macron" unicode="&#xaf;" horiz-adv-x="698" 
d="M174 1253l16 88h469l-16 -88h-469z" />
    <glyph glyph-name="degree" unicode="&#xb0;" horiz-adv-x="675" 
d="M219 1066q0 -77 51 -133t119 -56t117 56t49 133t-49 133t-117 56t-119 -56t-51 -133zM131 1067q0 109 75 185t180 77q105 0 181 -78q76 -77 76 -185t-76 -184t-181 -77q-105 1 -180 77t-75 185z" />
    <glyph glyph-name="plusminus" unicode="&#xb1;" horiz-adv-x="1030" 
d="M94 12v109h842v-109h-842zM94 592v108h367v332h108v-332h367v-108h-367v-334h-108v334h-367z" />
    <glyph glyph-name="twosuperior" unicode="&#xb2;" horiz-adv-x="806" 
d="M498 1329q86 0 138 -44t52 -112q0 -132 -118 -225t-259 -172v-4h260q18 28 45 52t43 32l19 10l20 -10q-23 -68 -34 -131l-11 -61h-534v41q279 197 352 307q39 59 39 112q0 86 -90 86t-168 -77l-25 18q111 178 271 178z" />
    <glyph glyph-name="threesuperior" unicode="&#xb3;" horiz-adv-x="757" 
d="M479 1159q0 74 -88 74t-172 -76l-20 14q90 158 266 158q90 0 139 -36t49 -97q0 -127 -190 -164v-2q166 -23 166 -156q0 -102 -93 -160q-92 -58 -230 -58t-202 55q15 88 74 137h39q-8 -80 4 -129q123 -52 192 25q40 46 40 118t-37 97q-37 24 -105 36l17 33q74 8 112 36
t39 95z" />
    <glyph glyph-name="acute" unicode="&#xb4;" horiz-adv-x="591" 
d="M440 1485h27l104 -154l-372 -164l-23 29z" />
    <glyph glyph-name="mu" unicode="&#xb5;" horiz-adv-x="1265" 
d="M408 -20q-31 0 -80 8l-6 -330h-267l217 1225q10 63 -24 63t-75 -41q-42 -41 -67 -82l-26 -41l-41 21q13 33 46 85q32 52 66 86t89 62q56 28 132 29q76 0 117 -56t29 -139l-127 -704q19 -62 115 -62t189 130t124 313l90 497h250l-158 -882q-10 -64 25 -64t78 40t70 79
l26 41l35 -16l-11 -28q-7 -18 -35 -63q-28 -46 -62 -80t-89 -63q-56 -28 -130 -28t-111 59t-23 135l14 72l-10 2q-139 -268 -370 -268z" />
    <glyph glyph-name="paragraph" unicode="&#xb6;" horiz-adv-x="1116" 
d="M719 -128q-127 -234 -501 -234q-106 0 -159 18q2 63 33 130t62 101l30 35l86 -10l-10 -35q-6 -21 -14 -79t6 -89q74 4 139 31t105 63q39 37 77 113q39 76 58 178l227 1297h326l-4 -31l-172 -45l-211 -1200q-25 -145 -78 -243zM735 1391l-188 -1069q-236 -2 -359 126
t-122 326q0 283 189 450t480 167z" />
    <glyph glyph-name="periodcentered" unicode="&#xb7;" horiz-adv-x="532" 
d="M434 642q0 -62 -49 -109q-49 -48 -115 -48t-102 35q-35 36 -35 96t49 110q48 50 114 50t102 -36t36 -98z" />
    <glyph glyph-name="cedilla" unicode="&#xb8;" horiz-adv-x="561" 
d="M297 -215q-1 -70 -63 -109q-62 -38 -172 -38t-179 57l21 37q55 -33 131 -33q102 0 102 74t-135 104l2 8l113 146h73l-81 -105q188 -12 188 -141z" />
    <glyph glyph-name="onesuperior" unicode="&#xb9;" horiz-adv-x="614" 
d="M291 1184q-37 0 -65 13t-36 28l-8 12l2 16q164 14 277 76l43 -12l-107 -606l101 -29l-2 -18h-377l2 18l108 29l84 473h-22z" />
    <glyph glyph-name="ordmasculine" unicode="&#xba;" horiz-adv-x="708" 
d="M512 1142q0 138 -78 138q-61 0 -94 -86t-33 -222t72 -136q63 0 98 84t35 222zM428 1329q122 0 188 -62t66 -185q0 -124 -85 -210t-206 -86t-187 62t-67 184q0 123 84 210t207 87z" />
    <glyph glyph-name="guillemotright" unicode="&#xbb;" horiz-adv-x="1097" 
d="M473 94l303 430l-151 424h75l293 -397v-53l-444 -404h-76zM31 94l303 430l-152 424h76l293 -397v-53l-445 -404h-75z" />
    <glyph glyph-name="onequarter" unicode="&#xbc;" horiz-adv-x="1273" 
d="M238 0h-99l946 1309h95zM287 1184q-37 0 -65 13t-36 28l-8 12l2 16q164 14 277 76l43 -12l-107 -606l101 -29l-2 -18h-377l2 18l108 29l84 473h-22zM858 510l-258 -305h209l53 305h-4zM514 160l6 24l402 469h137l-78 -448h80l-8 -45h-80l-23 -121l70 -23l-2 -16h-326
l2 16l86 23l23 121h-289z" />
    <glyph glyph-name="onehalf" unicode="&#xbd;" horiz-adv-x="1273" 
d="M231 0h-98l946 1309h95zM287 1184q-37 0 -65 13t-36 28l-8 12l2 16q164 14 277 76l43 -12l-107 -606l101 -29l-2 -18h-377l2 18l108 29l84 473h-22zM1141 510q0 -133 -119 -227t-258 -170v-4h260q18 29 38 47t68 47l21 -10q-23 -68 -35 -132l-10 -61h-535v41
q281 198 353 307q39 59 39 113q-1 86 -91 86t-167 -78l-25 18q111 178 270 179q86 0 138 -44t53 -112z" />
    <glyph glyph-name="threequarters" unicode="&#xbe;" horiz-adv-x="1310" 
d="M276 0h-98l946 1309h95zM479 1159q0 74 -88 74t-172 -76l-20 14q90 158 266 158q90 0 139 -36t49 -97q0 -127 -190 -164v-2q166 -23 166 -156q0 -102 -93 -160q-92 -58 -230 -58t-202 55q15 88 74 137h39q-8 -80 4 -129q123 -52 192 25q40 46 40 118t-37 97
q-37 24 -105 36l17 33q74 8 112 36t39 95zM887 510l-260 -305h211l53 305h-4zM543 160l2 24l403 469h137l-77 -448h77l-6 -45h-80l-22 -121l70 -23l-3 -16h-325l2 16l86 23l22 121h-286z" />
    <glyph glyph-name="questiondown" unicode="&#xbf;" horiz-adv-x="1011" 
d="M683 1065q60 0 99 -40t38 -99q-1 -60 -50 -106q-48 -46 -108 -46t-100 39t-40 98t50 107q51 47 111 47zM389 -367q-180 0 -288 83t-107 229q0 115 49 207t131 150q151 107 354 147l84 196h33l41 -340q-4 -2 -96 -21t-128 -42q-36 -22 -73 -44t-59 -48t-42 -61
q-42 -66 -42 -172q0 -107 56 -155t141 -47q85 0 161 45q39 96 39 195l-2 33l158 22q12 -36 19 -108t-11 -113q-162 -156 -418 -156z" />
    <glyph glyph-name="Agrave" unicode="&#xc0;" horiz-adv-x="1378" 
d="M575 1833h29l264 -289l-22 -28l-375 163zM662 1042h-7l-297 -538h422zM-145 0l4 31l139 45l735 1315l109 20l321 -1335l121 -45l-4 -31h-567l4 31l160 43l-78 352h-486l-192 -352l143 -43l-4 -31h-405z" />
    <glyph glyph-name="Aacute" unicode="&#xc1;" horiz-adv-x="1378" 
d="M1022 1833h27l104 -154l-373 -163l-22 28zM662 1042h-7l-297 -538h422zM-145 0l4 31l139 45l735 1315l109 20l321 -1335l121 -45l-4 -31h-567l4 31l160 43l-78 352h-486l-192 -352l143 -43l-4 -31h-405z" />
    <glyph glyph-name="Acircumflex" unicode="&#xc2;" horiz-adv-x="1378" 
d="M870 1827l199 -275l-25 -24l-233 129l-279 -129l-16 24l299 275h55zM662 1042h-7l-297 -538h422zM-145 0l4 31l139 45l735 1315l109 20l321 -1335l121 -45l-4 -31h-567l4 31l160 43l-78 352h-486l-192 -352l143 -43l-4 -31h-405z" />
    <glyph glyph-name="Atilde" unicode="&#xc3;" horiz-adv-x="1378" 
d="M686 1800q68 0 153 -38t128 -42q63 20 133 107l20 -8q-51 -250 -213 -250q-67 0 -153 41t-142 45q-53 -19 -151 -121l-23 12q70 254 248 254zM662 1042h-7l-297 -538h422zM-145 0l4 31l139 45l735 1315l109 20l321 -1335l121 -45l-4 -31h-567l4 31l160 43l-78 352h-486
l-192 -352l143 -43l-4 -31h-405z" />
    <glyph glyph-name="Adieresis" unicode="&#xc4;" horiz-adv-x="1378" 
d="M955 1571q-47 -1 -73 27t-26 74t39 86t87 40t74 -29t26 -75t-40 -85q-39 -38 -87 -38zM647 1571q-49 -1 -75 27t-26 75t41 86q40 39 87 39q46 0 72 -29t26 -75t-38 -85q-38 -38 -87 -38zM662 1042h-7l-297 -538h422zM-145 0l4 31l139 45l735 1315l109 20l321 -1335
l121 -45l-4 -31h-567l4 31l160 43l-78 352h-486l-192 -352l143 -43l-4 -31h-405z" />
    <glyph glyph-name="Aring" unicode="&#xc5;" horiz-adv-x="1378" 
d="M815 1538q102 0 103 166q0 92 -70 92q-106 0 -107 -164q0 -94 74 -94zM844 1835q98 0 152 -42t55 -120q0 -78 -68 -127t-166 -49t-153 42q-56 42 -56 120t69 127t167 49zM662 1042h-7l-297 -538h422zM-145 0l4 31l139 45l735 1315l109 20l321 -1335l121 -45l-4 -31h-567
l4 31l160 43l-78 352h-486l-192 -352l143 -43l-4 -31h-405z" />
    <glyph glyph-name="AE" unicode="&#xc6;" horiz-adv-x="1986" 
d="M1034 1305h-4l-559 -797h422zM12 76l946 1315h1010l-12 -64q-23 -132 -29 -256l-2 -39l-41 -12q-82 106 -106 289h-478l-100 -566l442 15l60 108h43l-55 -315h-37l-27 108l-436 13l-105 -588h521q35 74 88 150t88 114l37 39l36 -10q-47 -156 -71 -295l-15 -82h-1118l6 31
l160 45l64 356h-463l-256 -358l137 -43l-4 -31h-408l7 31z" />
    <glyph glyph-name="Ccedilla" unicode="&#xc7;" horiz-adv-x="1265" 
d="M823 1325q-197 1 -327 -193t-129 -503q0 -240 99 -365t263 -125q242 0 428 230l29 -19q-62 -136 -171 -239q-61 -59 -153 -95t-198 -36q-29 0 -82 4l-45 -58q188 -12 188 -141q0 -70 -62 -109q-62 -38 -172 -38t-180 57l21 37q55 -33 131 -33q102 0 102 74t-135 104l2 8
l84 109q-204 41 -322 199q-118 159 -118 407t109 437q110 189 285 281t388 93q113 -1 244 -23t168 -24l-21 -119q-12 -62 -12 -188v-35l-37 -10q-10 6 -29 22q-18 16 -59 84t-63 158q-88 49 -226 49z" />
    <glyph glyph-name="Egrave" unicode="&#xc8;" horiz-adv-x="1257" 
d="M606 1833h29l264 -289l-22 -28l-375 163zM926 543l-39 116l-426 13l-105 -588h521q41 80 95 157t87 113l33 37l34 -14q-59 -207 -75 -311l-11 -66h-1118l4 31l162 45l221 1239l-145 45l6 31h1069l-10 -64q-18 -109 -29 -246l-2 -49l-45 -8q-80 109 -104 285h-474
l-100 -566l430 15l70 106h41l-55 -321h-35z" />
    <glyph glyph-name="Eacute" unicode="&#xc9;" horiz-adv-x="1257" 
d="M926 543l-39 116l-426 13l-105 -588h521q41 80 95 157t87 113l33 37l34 -14q-59 -207 -75 -311l-11 -66h-1118l4 31l162 45l221 1239l-145 45l6 31h1069l-10 -64q-18 -109 -29 -246l-2 -49l-45 -8q-80 109 -104 285h-474l-100 -566l430 15l70 106h41l-55 -321h-35z
M956 1833h27l104 -154l-372 -163l-23 28z" />
    <glyph glyph-name="Ecircumflex" unicode="&#xca;" horiz-adv-x="1257" 
d="M926 543l-39 116l-426 13l-105 -588h521q41 80 95 157t87 113l33 37l34 -14q-59 -207 -75 -311l-11 -66h-1118l4 31l162 45l221 1239l-145 45l6 31h1069l-10 -64q-18 -109 -29 -246l-2 -49l-45 -8q-80 109 -104 285h-474l-100 -566l430 15l70 106h41l-55 -321h-35z
M854 1827l199 -275l-25 -24l-233 129l-279 -129l-16 24l299 275h55z" />
    <glyph glyph-name="Edieresis" unicode="&#xcb;" horiz-adv-x="1257" 
d="M926 543l-39 116l-426 13l-105 -588h521q41 80 95 157t87 113l33 37l34 -14q-59 -207 -75 -311l-11 -66h-1118l4 31l162 45l221 1239l-145 45l6 31h1069l-10 -64q-18 -109 -29 -246l-2 -49l-45 -8q-80 109 -104 285h-474l-100 -566l430 15l70 106h41l-55 -321h-35z
M914 1571q-48 -1 -74 27t-25 74q0 46 39 86t87 40t74 -29q25 -29 25 -75t-39 -85q-39 -38 -87 -38zM606 1571q-49 -1 -75 27q-25 28 -25 75t40 86t87 39t73 -29t26 -75t-39 -85q-38 -38 -87 -38z" />
    <glyph glyph-name="Igrave" unicode="&#xcc;" horiz-adv-x="661" 
d="M250 1833h29l264 -289l-23 -28l-375 163zM-78 0l4 31l162 45l221 1239l-145 45l6 31h569l-4 -31l-160 -45l-221 -1239l144 -45l-4 -31h-572z" />
    <glyph glyph-name="Iacute" unicode="&#xcd;" horiz-adv-x="661" 
d="M705 1833h26l105 -154l-373 -163l-23 28zM-78 0l4 31l162 45l221 1239l-145 45l6 31h569l-4 -31l-160 -45l-221 -1239l144 -45l-4 -31h-572z" />
    <glyph glyph-name="Icircumflex" unicode="&#xce;" horiz-adv-x="661" 
d="M567 1827l199 -275l-25 -24l-233 129l-279 -129l-16 24l299 275h55zM-78 0l4 31l162 45l221 1239l-145 45l6 31h569l-4 -31l-160 -45l-221 -1239l144 -45l-4 -31h-572z" />
    <glyph glyph-name="Idieresis" unicode="&#xcf;" horiz-adv-x="661" 
d="M640 1571q-48 -1 -74 27t-26 74t40 86q39 40 87 40q47 0 73 -29t26 -75t-39 -85q-39 -38 -87 -38zM332 1571q-49 -1 -75 27t-26 75t40 86q39 39 87 39t74 -29t25 -75q0 -46 -38 -85q-38 -38 -87 -38zM-78 0l4 31l162 45l221 1239l-145 45l6 31h569l-4 -31l-160 -45
l-221 -1239l144 -45l-4 -31h-572z" />
    <glyph glyph-name="Eth" unicode="&#xd0;" horiz-adv-x="1476" 
d="M741 1309h-170l-94 -531h246l-14 -82h-246l-107 -612h232q174 0 297 104q231 195 231 625q0 225 -100 361q-101 135 -275 135zM764 1391q289 0 463 -159t174 -431q0 -371 -239 -586t-597 -215h-643l4 31l162 45l111 620h-158l14 82h158l96 537l-145 45l6 31h594z" />
    <glyph glyph-name="Ntilde" unicode="&#xd1;" horiz-adv-x="1411" 
d="M770 1782q68 0 153 -38t128 -42q63 20 133 106l20 -8q-51 -250 -213 -250q-67 0 -153 41t-142 45q-53 -18 -151 -120l-23 12q70 254 248 254zM1020 0l-645 1106l-182 -1032l141 -43l-4 -31h-408l4 31l158 43l221 1243l-139 43l4 31h350l549 -959l158 885l-142 43l5 31
h405l-4 -31l-156 -43l-233 -1317h-82z" />
    <glyph glyph-name="Ograve" unicode="&#xd2;" horiz-adv-x="1468" 
d="M569 1833h29l264 -289l-22 -28l-375 163zM640 59q128 0 221 77q159 132 221 453q26 130 26 259q0 278 -125 414q-68 72 -168 71q-195 0 -326 -216t-131 -589q0 -213 77 -341t205 -128zM664 -20q-268 0 -428 160t-160 435q0 379 212 607t523 229q272 0 427 -162t155 -446
q0 -355 -210 -589t-519 -234z" />
    <glyph glyph-name="Oacute" unicode="&#xd3;" horiz-adv-x="1468" 
d="M640 59q128 0 221 77q159 132 221 453q26 130 26 259q0 278 -125 414q-68 72 -168 71q-195 0 -326 -216t-131 -589q0 -213 77 -341t205 -128zM664 -20q-268 0 -428 160t-160 435q0 379 212 607t523 229q272 0 427 -162t155 -446q0 -355 -210 -589t-519 -234zM1034 1833
h27l104 -154l-372 -163l-23 28z" />
    <glyph glyph-name="Ocircumflex" unicode="&#xd4;" horiz-adv-x="1468" 
d="M640 59q128 0 221 77q159 132 221 453q26 130 26 259q0 278 -125 414q-68 72 -168 71q-195 0 -326 -216t-131 -589q0 -213 77 -341t205 -128zM664 -20q-268 0 -428 160t-160 435q0 379 212 607t523 229q272 0 427 -162t155 -446q0 -355 -210 -589t-519 -234zM901 1827
l199 -275l-25 -24l-233 129l-279 -129l-16 24l299 275h55z" />
    <glyph glyph-name="Otilde" unicode="&#xd5;" horiz-adv-x="1468" 
d="M702 1800q68 0 153 -38t128 -42q63 20 133 107l21 -8q-51 -250 -213 -250q-66 0 -153 41t-142 45q-54 -19 -152 -121l-22 12q70 254 247 254zM640 59q128 0 221 77q159 132 221 453q26 130 26 259q0 278 -125 414q-68 72 -168 71q-195 0 -326 -216t-131 -589
q0 -213 77 -341t205 -128zM664 -20q-268 0 -428 160t-160 435q0 379 212 607t523 229q272 0 427 -162t155 -446q0 -355 -210 -589t-519 -234z" />
    <glyph glyph-name="Odieresis" unicode="&#xd6;" horiz-adv-x="1468" 
d="M640 59q128 0 221 77q159 132 221 453q26 130 26 259q0 278 -125 414q-68 72 -168 71q-195 0 -326 -216t-131 -589q0 -213 77 -341t205 -128zM664 -20q-268 0 -428 160t-160 435q0 379 212 607t523 229q272 0 427 -162t155 -446q0 -355 -210 -589t-519 -234zM978 1571
q-48 -1 -74 27t-26 74t40 86q39 40 87 40q47 0 73 -29t26 -75t-39 -85q-39 -38 -87 -38zM670 1571q-49 -1 -75 27t-26 75t40 86t87 39t73 -29t26 -75t-38 -85q-38 -38 -87 -38z" />
    <glyph glyph-name="multiply" unicode="&#xd7;" horiz-adv-x="866" 
d="M172 272l-78 78l258 258l-254 256l78 78l254 -256l260 260l76 -78l-258 -258l266 -266l-78 -78l-266 266z" />
    <glyph glyph-name="Oslash" unicode="&#xd8;" horiz-adv-x="1468" 
d="M647 59q121 0 214 77q159 132 221 453q26 129 26 243t-18 202l-693 -768q76 -207 250 -207zM358 528q0 -106 17 -178l692 768q-78 215 -252 215q-195 0 -326 -216t-131 -589zM76 575q0 379 212 607t523 229q246 0 397 -135l121 135h98l-167 -186q133 -162 133 -422
q0 -355 -210 -589t-519 -234q-248 0 -402 135l-123 -135h-100l170 188q-133 156 -133 407z" />
    <glyph glyph-name="Ugrave" unicode="&#xd9;" horiz-adv-x="1449" 
d="M709 1833h28l264 -289l-22 -28l-375 163zM657 -20q-442 0 -542 299l184 1036l-145 45l4 31h571l-6 -31l-158 -45l-166 -934q-25 -137 53 -216t230 -79t272 81t144 220l166 928l-146 45l6 31h414l-6 -31l-158 -45l-184 -1026q-164 -309 -533 -309z" />
    <glyph glyph-name="Uacute" unicode="&#xda;" horiz-adv-x="1449" 
d="M657 -20q-442 0 -542 299l184 1036l-145 45l4 31h571l-6 -31l-158 -45l-166 -934q-25 -137 53 -216t230 -79t272 81t144 220l166 928l-146 45l6 31h414l-6 -31l-158 -45l-184 -1026q-164 -309 -533 -309zM1163 1833h27l104 -154l-372 -163l-23 28z" />
    <glyph glyph-name="Ucircumflex" unicode="&#xdb;" horiz-adv-x="1449" 
d="M657 -20q-442 0 -542 299l184 1036l-145 45l4 31h571l-6 -31l-158 -45l-166 -934q-25 -137 53 -216t230 -79t272 81t144 220l166 928l-146 45l6 31h414l-6 -31l-158 -45l-184 -1026q-164 -309 -533 -309zM1004 1827l198 -275l-24 -24l-234 129l-278 -129l-17 24l299 275
h56z" />
    <glyph glyph-name="Udieresis" unicode="&#xdc;" horiz-adv-x="1449" 
d="M657 -20q-442 0 -542 299l184 1036l-145 45l4 31h571l-6 -31l-158 -45l-166 -934q-25 -137 53 -216t230 -79t272 81t144 220l166 928l-146 45l6 31h414l-6 -31l-158 -45l-184 -1026q-164 -309 -533 -309zM1174 1694q0 -46 -40 -85q-40 -38 -87 -38q-47 -1 -73 27t-26 74
t39 86t87 40t74 -29t26 -75zM739 1571q-49 -1 -75 27t-25 75q0 47 40 86t87 39t73 -29q25 -29 25 -75t-38 -85q-38 -38 -87 -38z" />
    <glyph glyph-name="Yacute" unicode="&#xdd;" horiz-adv-x="1323" 
d="M1059 1833h26l105 -154l-373 -163l-22 28zM238 0l4 31l172 45l94 530l-299 709l-119 45l4 31h565l-4 -31l-153 -43l227 -600h6l471 600l-131 43l6 31h392l-7 -31l-139 -45l-549 -688l-98 -551l156 -45l-5 -31h-593z" />
    <glyph glyph-name="Thorn" unicode="&#xde;" horiz-adv-x="1251" 
d="M686 260q-100 0 -188 33l6 37h82q170 0 264 110t94 305q0 293 -276 293h-136l-172 -962l156 -45l-4 -31h-582l4 31l160 45l221 1239l-143 45l4 31h569l-4 -31l-159 -45l-35 -195h162q237 0 377 -97t140 -300t-157 -333q-158 -130 -383 -130z" />
    <glyph glyph-name="germandbls" unicode="&#xdf;" horiz-adv-x="1296" 
d="M866 1503q158 1 253 -67t95 -179q0 -84 -55 -147t-121 -95t-120 -79q-54 -46 -56 -102q0 -56 62 -109l172 -137q129 -104 129 -255t-119 -252t-283 -101q-123 0 -248 47q3 63 23 125t41 90l20 30l107 -20q-27 -82 -35 -180q49 -20 113 -20t107 48q44 50 44 134t-90 159
l-108 94q-127 106 -127 219t111 227q46 46 92 91q112 110 112 206q0 195 -164 195q-113 0 -177 -91t-97 -271l-176 -1024q-35 -207 -143 -304t-248 -97t-222 51q2 63 26 121t46 84l23 24l118 -20q-47 -80 -59 -193l37 -2q51 0 85 42t48 91q15 49 27 127l170 995h-156l10 54
l158 22q29 218 199 344q170 125 376 125z" />
    <glyph glyph-name="agrave" unicode="&#xe0;" horiz-adv-x="1212" 
d="M471 1485h29l264 -289l-23 -29l-374 164zM469 115q98 0 185 132t118 312l55 320q-59 113 -190 113t-220 -174q-89 -173 -89 -438t141 -265zM375 -20q-141 0 -229 97q-87 97 -87 273q0 307 174 511t424 204q147 0 258 -94l158 94l35 -14l-158 -889q-8 -64 27 -64t77 40
t68 79l27 41l37 -16l-11 -28q-7 -18 -35 -63q-28 -46 -61 -80t-88 -63q-55 -28 -130 -28t-113 62t-23 144l12 60l-10 2q-135 -268 -352 -268z" />
    <glyph glyph-name="aacute" unicode="&#xe1;" horiz-adv-x="1212" 
d="M936 1485h27l104 -154l-373 -164l-22 29zM469 115q98 0 185 132t118 312l55 320q-59 113 -190 113t-220 -174q-89 -173 -89 -438t141 -265zM375 -20q-141 0 -229 97q-87 97 -87 273q0 307 174 511t424 204q147 0 258 -94l158 94l35 -14l-158 -889q-8 -64 27 -64t77 40
t68 79l27 41l37 -16l-11 -28q-7 -18 -35 -63q-28 -46 -61 -80t-88 -63q-55 -28 -130 -28t-113 62t-23 144l12 60l-10 2q-135 -268 -352 -268z" />
    <glyph glyph-name="acircumflex" unicode="&#xe2;" horiz-adv-x="1212" 
d="M774 1479l199 -275l-25 -24l-233 129l-279 -129l-16 24l299 275h55zM469 115q98 0 185 132t118 312l55 320q-59 113 -190 113t-220 -174q-89 -173 -89 -438t141 -265zM375 -20q-141 0 -229 97q-87 97 -87 273q0 307 174 511t424 204q147 0 258 -94l158 94l35 -14
l-158 -889q-8 -64 27 -64t77 40t68 79l27 41l37 -16l-11 -28q-7 -18 -35 -63q-28 -46 -61 -80t-88 -63q-55 -28 -130 -28t-113 62t-23 144l12 60l-10 2q-135 -268 -352 -268z" />
    <glyph glyph-name="atilde" unicode="&#xe3;" horiz-adv-x="1212" 
d="M614 1452q68 0 153 -38t128 -42q63 20 133 107l21 -9q-51 -250 -213 -249q-66 0 -153 41t-142 45q-54 -19 -152 -121l-22 12q70 254 247 254zM469 115q98 0 185 132t118 312l55 320q-59 113 -190 113t-220 -174q-89 -173 -89 -438t141 -265zM375 -20q-141 0 -229 97
q-87 97 -87 273q0 307 174 511t424 204q147 0 258 -94l158 94l35 -14l-158 -889q-8 -64 27 -64t77 40t68 79l27 41l37 -16l-11 -28q-7 -18 -35 -63q-28 -46 -61 -80t-88 -63q-55 -28 -130 -28t-113 62t-23 144l12 60l-10 2q-135 -268 -352 -268z" />
    <glyph glyph-name="adieresis" unicode="&#xe4;" horiz-adv-x="1212" 
d="M841 1223q-48 -1 -74 27t-26 74t39 86t87 40t74 -29t26 -75t-39 -85q-39 -38 -87 -38zM532 1223q-48 -1 -74 27t-26 75t40 86t87 39t73 -29t26 -75t-39 -85q-38 -38 -87 -38zM469 115q98 0 185 132t118 312l55 320q-59 113 -190 113t-220 -174q-89 -173 -89 -438
t141 -265zM375 -20q-141 0 -229 97q-87 97 -87 273q0 307 174 511t424 204q147 0 258 -94l158 94l35 -14l-158 -889q-8 -64 27 -64t77 40t68 79l27 41l37 -16l-11 -28q-7 -18 -35 -63q-28 -46 -61 -80t-88 -63q-55 -28 -130 -28t-113 62t-23 144l12 60l-10 2
q-135 -268 -352 -268z" />
    <glyph glyph-name="aring" unicode="&#xe5;" horiz-adv-x="1212" 
d="M707 1190q102 0 102 166q0 92 -70 92q-106 0 -106 -164q0 -94 74 -94zM735 1487q99 0 153 -42t54 -120t-68 -127t-166 -49t-153 42t-55 120t68 127q69 49 167 49zM469 115q98 0 185 132t118 312l55 320q-59 113 -190 113t-220 -174q-89 -173 -89 -438t141 -265zM375 -20
q-141 0 -229 97q-87 97 -87 273q0 307 174 511t424 204q147 0 258 -94l158 94l35 -14l-158 -889q-8 -64 27 -64t77 40t68 79l27 41l37 -16l-11 -28q-7 -18 -35 -63q-28 -46 -61 -80t-88 -63q-55 -28 -130 -28t-113 62t-23 144l12 60l-10 2q-135 -268 -352 -268z" />
    <glyph glyph-name="ae" unicode="&#xe6;" horiz-adv-x="1656" 
d="M1253 991q-109 0 -189 -128t-93 -341q413 21 411 309q0 85 -36 123t-93 37zM711 385q0 287 153 477q-80 129 -218 129t-228 -174t-90 -430q0 -135 38 -204t106 -69t129 66q62 66 110 172v33zM1114 -20q-152 0 -252 66t-135 196h-4q-135 -262 -348 -262q-141 0 -228 97
q-86 97 -86 273q1 307 175 511t421 204q176 0 301 -113q140 113 306 113t255 -67t89 -175q0 -147 -114 -225t-250 -102q-137 -24 -275 -31v-31q0 -324 219 -323q174 0 328 198l32 -18q-141 -311 -434 -311z" />
    <glyph glyph-name="ccedilla" unicode="&#xe7;" horiz-adv-x="978" 
d="M637 985q-152 0 -236 -144t-84 -378q0 -348 222 -348q98 0 170 55t151 164l33 -17q-49 -145 -159 -242t-273 -98q-31 0 -45 3l-41 -54q188 -12 188 -141q0 -70 -62 -109q-62 -38 -172 -38t-179 57l20 37q55 -33 131 -33q102 0 102 74t-135 104l2 8l80 105
q-139 29 -215 133t-76 274q1 303 179 485t415 183q115 0 198 -34t114 -68q-8 -63 -36 -127t-50 -95l-23 -30l-123 22q39 102 43 213q-59 39 -139 39z" />
    <glyph glyph-name="egrave" unicode="&#xe8;" horiz-adv-x="1001" 
d="M412 1485h28l265 -289l-23 -29l-375 164zM598 991q-108 0 -188 -128t-95 -341q213 7 319 92q40 34 68 92t27 134q0 76 -37 114t-94 37zM461 -20q-188 0 -295 104q-106 104 -107 301q0 303 167 491t392 189q156 0 245 -67t89 -175q0 -148 -113 -225q-113 -78 -250 -102
t-276 -31v-31q0 -324 219 -323q172 0 330 198l31 -18q-141 -311 -432 -311z" />
    <glyph glyph-name="eacute" unicode="&#xe9;" horiz-adv-x="1001" 
d="M598 991q-108 0 -188 -128t-95 -341q213 7 319 92q40 34 68 92t27 134q0 76 -37 114t-94 37zM461 -20q-188 0 -295 104q-106 104 -107 301q0 303 167 491t392 189q156 0 245 -67t89 -175q0 -148 -113 -225q-113 -78 -250 -102t-276 -31v-31q0 -324 219 -323
q172 0 330 198l31 -18q-141 -311 -432 -311zM864 1485h27l104 -154l-372 -164l-23 29z" />
    <glyph glyph-name="ecircumflex" unicode="&#xea;" horiz-adv-x="1001" 
d="M598 991q-108 0 -188 -128t-95 -341q213 7 319 92q40 34 68 92t27 134q0 76 -37 114t-94 37zM461 -20q-188 0 -295 104q-106 104 -107 301q0 303 167 491t392 189q156 0 245 -67t89 -175q0 -148 -113 -225q-113 -78 -250 -102t-276 -31v-31q0 -324 219 -323
q172 0 330 198l31 -18q-141 -311 -432 -311zM696 1479l199 -275l-25 -24l-233 129l-279 -129l-16 24l299 275h55z" />
    <glyph glyph-name="edieresis" unicode="&#xeb;" horiz-adv-x="1001" 
d="M598 991q-108 0 -188 -128t-95 -341q213 7 319 92q40 34 68 92t27 134q0 76 -37 114t-94 37zM461 -20q-188 0 -295 104q-106 104 -107 301q0 303 167 491t392 189q156 0 245 -67t89 -175q0 -148 -113 -225q-113 -78 -250 -102t-276 -31v-31q0 -324 219 -323
q172 0 330 198l31 -18q-141 -311 -432 -311zM769 1223q-48 -1 -74 27q-25 28 -25 74t39 86t87 40t74 -29t25 -75q0 -46 -39 -85q-39 -38 -87 -38zM461 1223q-49 -1 -75 27t-26 75t40 86t88 39t72 -29q26 -29 26 -75t-38 -85q-38 -38 -87 -38z" />
    <glyph glyph-name="igrave" unicode="&#xec;" horiz-adv-x="659" 
d="M178 1485h29l264 -289l-22 -29l-375 164zM307 -20q-94 0 -136 56t-26 138l131 709q10 63 -24 63t-77 -41q-42 -41 -69 -82l-24 -41l-39 21q13 33 46 85q32 52 65 86t88 62t116 29q98 0 140 -55t24 -140l-133 -708q-10 -64 25 -64q34 0 76 41t67 82l27 41l39 -20
q-13 -32 -46 -84q-33 -53 -67 -87q-34 -35 -88 -63q-56 -28 -115 -28z" />
    <glyph glyph-name="iacute" unicode="&#xed;" horiz-adv-x="659" 
d="M307 -20q-94 0 -136 56t-26 138l131 709q10 63 -24 63t-77 -41q-42 -41 -69 -82l-24 -41l-39 21q13 33 46 85q32 52 65 86t88 62t116 29q98 0 140 -55t24 -140l-133 -708q-10 -64 25 -64q34 0 76 41t67 82l27 41l39 -20q-13 -32 -46 -84q-33 -53 -67 -87q-34 -35 -88 -63
q-56 -28 -115 -28zM606 1485h27l104 -154l-372 -164l-23 29z" />
    <glyph glyph-name="icircumflex" unicode="&#xee;" horiz-adv-x="659" 
d="M307 -20q-94 0 -136 56t-26 138l131 709q10 63 -24 63t-77 -41q-42 -41 -69 -82l-24 -41l-39 21q13 33 46 85q32 52 65 86t88 62t116 29q98 0 140 -55t24 -140l-133 -708q-10 -64 25 -64q34 0 76 41t67 82l27 41l39 -20q-13 -32 -46 -84q-33 -53 -67 -87q-34 -35 -88 -63
q-56 -28 -115 -28zM465 1479l199 -275l-25 -24l-233 129l-279 -129l-16 24l299 275h55z" />
    <glyph glyph-name="idieresis" unicode="&#xef;" horiz-adv-x="659" 
d="M307 -20q-94 0 -136 56t-26 138l131 709q10 63 -24 63t-77 -41q-42 -41 -69 -82l-24 -41l-39 21q13 33 46 85q32 52 65 86t88 62t116 29q98 0 140 -55t24 -140l-133 -708q-10 -64 25 -64q34 0 76 41t67 82l27 41l39 -20q-13 -32 -46 -84q-33 -53 -67 -87q-34 -35 -88 -63
q-56 -28 -115 -28zM550 1223q-48 -1 -74 27t-26 74t39 86t87 40t74 -29t26 -75t-39 -85q-39 -38 -87 -38zM242 1223q-49 -1 -75 27t-26 75t40 86t87 39t73 -29t26 -75t-38 -85q-38 -38 -87 -38z" />
    <glyph glyph-name="eth" unicode="&#xf0;" horiz-adv-x="1120" 
d="M803 673q0 140 -46 228t-143 88t-171 -107q-126 -186 -126 -517q-1 -133 47 -223t144 -89q96 0 169 106q126 181 126 514zM1061 635q0 -275 -153 -465t-390 -190q-205 0 -332 124t-127 326q0 281 154 458t379 177q98 0 194 -45q-16 109 -63 213l-182 -76l-19 66l170 73
q-53 86 -151 158l47 49q127 -57 229 -153l162 67l22 -67l-135 -58q195 -233 195 -657z" />
    <glyph glyph-name="ntilde" unicode="&#xf1;" horiz-adv-x="1267" 
d="M651 1452q68 0 153 -38t128 -42q63 20 133 107l20 -9q-51 -250 -213 -249q-66 0 -152 41t-142 45q-54 -19 -152 -121l-23 12q70 254 248 254zM784 938q-106 0 -201 -129t-126 -313l-90 -496h-250l157 883q10 63 -24 63t-77 -41q-42 -41 -69 -82l-26 -39l-37 19
q67 167 197 233q56 29 130 29t112 -59t22 -138l-15 -69l11 -2q141 268 374 268q135 0 202 -88t42 -227l-102 -588q-10 -64 24 -64t75 41q42 41 67 82l26 41l39 -20q-38 -94 -118 -178q-79 -84 -213 -84q-78 0 -119 56t-27 138l109 614q25 150 -93 150z" />
    <glyph glyph-name="ograve" unicode="&#xf2;" horiz-adv-x="1120" 
d="M418 1485h28l265 -289l-23 -29l-375 164zM495 53q83 -1 144 59q109 107 151 378t-33 413q-46 88 -130 88q-228 0 -296 -437q-43 -272 33 -412q48 -88 131 -89zM529 -20q-216 0 -343 124t-127 326q0 285 158 460t377 175t343 -125t124 -328q0 -276 -158 -454t-374 -178z
" />
    <glyph glyph-name="oacute" unicode="&#xf3;" horiz-adv-x="1120" 
d="M495 53q83 -1 144 59q109 107 151 378t-33 413q-46 88 -130 88q-228 0 -296 -437q-43 -272 33 -412q48 -88 131 -89zM529 -20q-216 0 -343 124t-127 326q0 285 158 460t377 175t343 -125t124 -328q0 -276 -158 -454t-374 -178zM852 1485h27l104 -154l-373 -164l-22 29z
" />
    <glyph glyph-name="ocircumflex" unicode="&#xf4;" horiz-adv-x="1120" 
d="M495 53q83 -1 144 59q109 107 151 378t-33 413q-46 88 -130 88q-228 0 -296 -437q-43 -272 33 -412q48 -88 131 -89zM529 -20q-216 0 -343 124t-127 326q0 285 158 460t377 175t343 -125t124 -328q0 -276 -158 -454t-374 -178zM719 1479l199 -275l-25 -24l-234 129
l-278 -129l-16 24l299 275h55z" />
    <glyph glyph-name="otilde" unicode="&#xf5;" horiz-adv-x="1120" 
d="M555 1452q68 0 153 -38t128 -42q63 20 133 107l20 -9q-51 -250 -213 -249q-66 0 -152 41t-143 45q-53 -19 -151 -121l-23 12q70 254 248 254zM495 53q83 -1 144 59q109 107 151 378t-33 413q-46 88 -130 88q-228 0 -296 -437q-43 -272 33 -412q48 -88 131 -89zM529 -20
q-216 0 -343 124t-127 326q0 285 158 460t377 175t343 -125t124 -328q0 -276 -158 -454t-374 -178z" />
    <glyph glyph-name="odieresis" unicode="&#xf6;" horiz-adv-x="1120" 
d="M495 53q83 -1 144 59q109 107 151 378t-33 413q-46 88 -130 88q-228 0 -296 -437q-43 -272 33 -412q48 -88 131 -89zM529 -20q-216 0 -343 124t-127 326q0 285 158 460t377 175t343 -125t124 -328q0 -276 -158 -454t-374 -178zM800 1223q-48 -1 -74 27t-26 74t39 86
t87 40t74 -29t26 -75t-39 -85q-39 -38 -87 -38zM491 1223q-49 -1 -75 27t-25 75q0 47 40 86t87 39t73 -29q25 -29 25 -75t-38 -85q-38 -38 -87 -38z" />
    <glyph glyph-name="divide" unicode="&#xf7;" horiz-adv-x="1030" 
d="M393 270q0 49 37 85t86 36t85 -36t36 -85t-36 -85q-36 -35 -85 -35t-86 36t-37 84zM94 553v111h842v-111h-842zM393 943q0 50 37 86t86 36t85 -36t36 -86t-36 -85t-85 -35t-86 35t-37 85z" />
    <glyph glyph-name="oslash" unicode="&#xf8;" horiz-adv-x="1120" 
d="M498 53q80 -1 141 59q109 107 147 355q16 104 16 171t-1 79l-471 -477q39 -187 168 -187zM317 365v-41l476 477q-39 190 -170 190q-81 0 -143 -61q-107 -105 -146 -360q-17 -103 -17 -205zM59 430q0 285 158 460t374 175t343 -123l121 123h92l-170 -172q84 -117 84 -281
q0 -276 -158 -454t-373 -178t-340 118l-118 -118h-95l168 170q-86 115 -86 280z" />
    <glyph glyph-name="ugrave" unicode="&#xf9;" horiz-adv-x="1265" 
d="M487 1485h29l264 -289l-22 -29l-375 164zM403 -20q-209 0 -260 192l131 711q10 63 -26 63q-29 0 -68 -41t-61 -82l-25 -41l-39 21q41 102 89 153q102 109 205 109t145 -57t26 -138l-133 -704q19 -62 115 -62t189 130t126 313l88 497h250l-158 -882q-10 -64 25 -64t78 40
t69 79l27 41l35 -16l-11 -28q-7 -18 -36 -63q-29 -46 -62 -80t-87 -63t-115 -28q-90 0 -127 59t-23 135l14 72l-10 2q-140 -268 -371 -268z" />
    <glyph glyph-name="uacute" unicode="&#xfa;" horiz-adv-x="1265" 
d="M403 -20q-209 0 -260 192l131 711q10 63 -26 63q-29 0 -68 -41t-61 -82l-25 -41l-39 21q41 102 89 153q102 109 205 109t145 -57t26 -138l-133 -704q19 -62 115 -62t189 130t126 313l88 497h250l-158 -882q-10 -64 25 -64t78 40t69 79l27 41l35 -16l-11 -28
q-7 -18 -36 -63q-29 -46 -62 -80t-87 -63t-115 -28q-90 0 -127 59t-23 135l14 72l-10 2q-140 -268 -371 -268zM932 1485h26l105 -154l-373 -164l-22 29z" />
    <glyph glyph-name="ucircumflex" unicode="&#xfb;" horiz-adv-x="1265" 
d="M403 -20q-209 0 -260 192l131 711q10 63 -26 63q-29 0 -68 -41t-61 -82l-25 -41l-39 21q41 102 89 153q102 109 205 109t145 -57t26 -138l-133 -704q19 -62 115 -62t189 130t126 313l88 497h250l-158 -882q-10 -64 25 -64t78 40t69 79l27 41l35 -16l-11 -28
q-7 -18 -36 -63q-29 -46 -62 -80t-87 -63t-115 -28q-90 0 -127 59t-23 135l14 72l-10 2q-140 -268 -371 -268zM799 1479l198 -275l-24 -24l-234 129l-278 -129l-17 24l299 275h56z" />
    <glyph glyph-name="udieresis" unicode="&#xfc;" horiz-adv-x="1265" 
d="M403 -20q-209 0 -260 192l131 711q10 63 -26 63q-29 0 -68 -41t-61 -82l-25 -41l-39 21q41 102 89 153q102 109 205 109t145 -57t26 -138l-133 -704q19 -62 115 -62t189 130t126 313l88 497h250l-158 -882q-10 -64 25 -64t78 40t69 79l27 41l35 -16l-11 -28
q-7 -18 -36 -63q-29 -46 -62 -80t-87 -63t-115 -28q-90 0 -127 59t-23 135l14 72l-10 2q-140 -268 -371 -268zM871 1223q-47 -1 -73 27t-26 74t39 86t87 40t74 -29t26 -75t-40 -85q-39 -38 -87 -38zM563 1223q-49 -1 -75 27t-26 75t41 86q40 39 87 39t73 -29q25 -29 25 -75
t-38 -85q-38 -38 -87 -38z" />
    <glyph glyph-name="yacute" unicode="&#xfd;" horiz-adv-x="1087" 
d="M868 1485h27l104 -154l-372 -164l-23 29zM197 899q-37 0 -63 -85t-25 -118l-46 4q-9 87 35 213q23 63 79 107t134 45q137 0 185 -156l170 -657h2q100 168 178 342t96 270q-60 37 -147 49l-27 2l90 150q121 4 213 -84q-8 -129 -100 -352t-226 -445q-256 -415 -485 -546
q-94 24 -199 112l-28 29l114 127q70 -78 148 -109q88 61 190 189l-252 858q-16 55 -36 55z" />
    <glyph glyph-name="thorn" unicode="&#xfe;" horiz-adv-x="1204" 
d="M541 53q160 0 249 170t89 438t-156 269q-98 0 -185 -129t-118 -305l-64 -359q66 -84 185 -84zM537 -20q-109 0 -203 49l-53 -295l159 -45l-4 -31h-563l4 31l156 45l295 1644l-135 25l4 35l358 65h41l-84 -477q-18 -104 -51 -199l-10 -28l10 -2q131 268 346 268
q150 0 244 -102t94 -287q0 -304 -170 -500t-438 -196z" />
    <glyph glyph-name="ydieresis" unicode="&#xff;" horiz-adv-x="1087" 
d="M820 1223q-48 -1 -74 27t-26 74t40 86q39 40 87 40t74 -29q25 -29 25 -75t-39 -85q-39 -38 -87 -38zM512 1223q-49 -1 -75 27q-25 28 -25 75t40 86t87 39t73 -29t25 -75q0 -46 -38 -85q-38 -38 -87 -38zM197 899q-37 0 -63 -85t-25 -118l-46 4q-9 87 35 213q23 63 79 107
t134 45q137 0 185 -156l170 -657h2q100 168 178 342t96 270q-60 37 -147 49l-27 2l90 150q121 4 213 -84q-8 -129 -100 -352t-226 -445q-256 -415 -485 -546q-94 24 -199 112l-28 29l114 127q70 -78 148 -109q88 61 190 189l-252 858q-16 55 -36 55z" />
    <glyph glyph-name="dotlessi" unicode="&#x131;" horiz-adv-x="659" 
d="M307 -20q-94 0 -136 56t-26 138l131 709q10 63 -24 63t-77 -41q-42 -41 -69 -82l-24 -41l-39 21q13 33 46 85q32 52 65 86t88 62t116 29q98 0 140 -55t24 -140l-133 -708q-10 -64 25 -64q34 0 76 41t67 82l27 41l39 -20q-13 -32 -46 -84q-33 -53 -67 -87q-34 -35 -88 -63
q-56 -28 -115 -28z" />
    <glyph glyph-name="Lslash" unicode="&#x141;" horiz-adv-x="1150" 
d="M-10 506l18 117l201 127l100 565l-145 45l6 31h569l-4 -31l-160 -45l-67 -373l192 123l-20 -117l-193 -123l-131 -741h465q84 156 180 272l33 41l39 -12q-57 -199 -76 -311l-12 -74h-1063l4 31l162 45l98 557z" />
    <glyph glyph-name="lslash" unicode="&#x142;" horiz-adv-x="628" 
d="M-12 506l18 117l191 120l112 635l-135 25l6 35l357 65h41l-105 -581l223 143l-20 -117l-223 -143l-113 -643q-10 -64 25 -64t77 41t66 82l27 41l38 -20q-65 -163 -200 -234q-55 -29 -117 -28q-94 0 -134 56t-28 138l80 453z" />
    <glyph glyph-name="OE" unicode="&#x152;" horiz-adv-x="1939" 
d="M637 59q76 0 135 27l207 1188q-59 59 -152 59q-201 0 -335 -218t-134 -597q0 -209 74 -334t205 -125zM629 -20q-256 0 -405 152q-148 153 -148 421q0 383 220 621t535 237q100 0 183 -20h907l-12 -64q-23 -132 -29 -256l-2 -39l-41 -12q-82 106 -108 289h-474l-102 -566
l444 15l58 108h45l-55 -315h-39l-27 108l-436 13l-105 -588h521q35 74 88 150t90 114l35 39l36 -10q-49 -156 -71 -295l-17 -82h-917q-80 -20 -174 -20z" />
    <glyph glyph-name="oe" unicode="&#x153;" horiz-adv-x="1726" 
d="M1321 991q-109 0 -189 -128t-94 -341q210 7 319 92q39 34 67 92t28 134t-37 114t-94 37zM495 53q83 -1 144 59q109 107 151 378t-33 413q-46 88 -130 88q-228 0 -296 -437q-43 -272 33 -412q48 -88 131 -89zM518 -20q-205 0 -332 124t-127 326q0 285 158 460
q159 175 397 175t353 -195q154 195 374 195q156 0 246 -67t90 -175q0 -148 -113 -225t-251 -101t-277 -32v-31q0 -166 58 -245t161 -78q176 0 330 198l31 -18q-141 -311 -432 -311q-221 0 -316 161q-145 -161 -350 -161z" />
    <glyph glyph-name="Scaron" unicode="&#x160;" horiz-adv-x="1185" 
d="M696 1327q-132 0 -198 -61q-66 -60 -66 -146t40 -132t118 -87l203 -100q268 -125 268 -359q0 -198 -154 -330q-155 -132 -417 -132t-486 106l23 113q10 55 10 188v41l39 16q14 -12 37 -36t65 -103q42 -78 53 -160q121 -77 258 -77t224 74q86 75 86 206q0 152 -170 240
l-205 102q-102 51 -170 133t-68 191q0 199 153 298t370 99q111 0 255 -31t177 -34l-19 -105q-12 -74 -12 -174l2 -33l-37 -12q-31 21 -79 94t-68 150q-100 61 -232 61zM674 1528l-201 276l25 23l235 -127l277 127l16 -23l-299 -276h-53z" />
    <glyph glyph-name="scaron" unicode="&#x161;" horiz-adv-x="931" 
d="M575 993q-88 0 -140 -46t-52 -120q0 -106 102 -147l148 -64q223 -98 223 -270t-127 -269t-323 -97t-379 86q2 66 20 128t37 93l18 28l107 -20q-18 -86 -25 -176q100 -66 206 -66t164 52t58 155t-114 152l-138 59q-205 88 -204 268q0 111 67 189q119 137 344 137
q90 0 199 -24t141 -23q-1 -66 -23 -128t-42 -93l-21 -31l-110 20q25 76 34 162q-82 45 -170 45zM555 1180l-201 276l25 23l235 -127l277 127l16 -23l-299 -276h-53z" />
    <glyph glyph-name="Ydieresis" unicode="&#x178;" horiz-adv-x="1323" 
d="M978 1571q-48 -1 -74 27t-26 74t40 86q39 40 87 40q47 0 73 -29t26 -75t-39 -85q-39 -38 -87 -38zM670 1571q-49 -1 -75 27t-26 75t40 86t87 39t73 -29t26 -75t-38 -85q-38 -38 -87 -38zM238 0l4 31l172 45l94 530l-299 709l-119 45l4 31h565l-4 -31l-153 -43l227 -600h6
l471 600l-131 43l6 31h392l-7 -31l-139 -45l-549 -688l-98 -551l156 -45l-5 -31h-593z" />
    <glyph glyph-name="Zcaron" unicode="&#x17d;" horiz-adv-x="1185" 
d="M190 1020l-43 16q51 164 72 279l12 76h1006l-12 -68l-951 -1239h576q33 70 87 142t91 108l39 37l45 -15q-45 -147 -68 -274l-14 -82h-1106l10 57l961 1252h-485q-29 -70 -84 -143t-97 -109zM713 1528l-201 276l25 23l235 -127l277 127l16 -23l-299 -276h-53z" />
    <glyph glyph-name="zcaron" unicode="&#x17e;" horiz-adv-x="1046" 
d="M125 840q0 98 49 161q48 63 140 63t256 -73t205 -73q42 0 71 34l82 92h127v-24l-731 -801q43 12 89 12q47 0 161 -20t157 -21q121 0 152 134l10 53h41q29 -70 29 -176q0 -244 -224 -244q-88 0 -262 73q-174 72 -218 72t-64 -24l-68 -78h-119v27l705 774q-76 -25 -212 2
q-136 26 -169 26q-100 0 -125 -106l-14 -59h-35q-33 78 -33 176zM553 1180l-201 276l25 23l235 -127l277 127l16 -23l-299 -276h-53z" />
    <glyph glyph-name="florin" unicode="&#x192;" horiz-adv-x="1079" 
d="M821 745v-77h-243l-105 -629q-33 -207 -141 -304t-249 -97q-140 0 -222 51q1 63 25 121t46 84l23 24l121 -20q-47 -80 -60 -193q12 -2 44 -2q92 0 131 165q9 38 20 95l117 705h-181v77h195l31 183q33 205 155 303q123 98 287 98q121 0 203 -34q29 -11 39 -17
q-2 -64 -24 -122t-42 -85l-22 -27l-125 21q51 76 61 186q-43 12 -76 13q-90 0 -132 -71t-62 -189l-43 -259h229z" />
    <glyph glyph-name="circumflex" unicode="&#x2c6;" horiz-adv-x="755" 
d="M526 1479l199 -275l-25 -24l-233 129l-279 -129l-16 24l299 275h55z" />
    <glyph glyph-name="caron" unicode="&#x2c7;" horiz-adv-x="755" 
d="M397 1180l-200 276l24 23l236 -127l276 127l17 -23l-299 -276h-54z" />
    <glyph glyph-name="breve" unicode="&#x2d8;" horiz-adv-x="661" 
d="M361 1323q168 0 253 123l25 -16q-35 -104 -108 -172t-181 -68t-162 68q-55 68 -57 172l39 14q23 -121 191 -121z" />
    <glyph glyph-name="dotaccent" unicode="&#x2d9;" horiz-adv-x="499" 
d="M330 1194q-64 0 -98 33t-34 93t47 106q46 46 108 46q61 0 97 -33q36 -35 36 -93t-46 -105t-110 -47z" />
    <glyph glyph-name="ring" unicode="&#x2da;" horiz-adv-x="602" 
d="M375 1190q102 0 102 166q0 92 -69 92q-106 0 -107 -164q0 -94 74 -94zM610 1325q0 -78 -68 -127t-165 -49q-98 0 -154 42q-55 42 -55 120t69 127t167 49t152 -42t54 -120z" />
    <glyph glyph-name="ogonek" unicode="&#x2db;" horiz-adv-x="581" 
d="M154 -362q-193 0 -193 151q0 205 379 295l22 -21q-96 -31 -162 -87t-65 -126q0 -84 105 -83q49 -1 102 24l12 -51q-86 -102 -200 -102z" />
    <glyph glyph-name="tilde" unicode="&#x2dc;" horiz-adv-x="1003" 
d="M496 1452q68 0 152 -38t128 -42q63 20 133 107l21 -9q-51 -250 -213 -249q-66 0 -153 41t-142 45q-54 -19 -152 -121l-22 12q70 254 248 254z" />
    <glyph glyph-name="hungarumlaut" unicode="&#x2dd;" horiz-adv-x="776" 
d="M393 1188l328 246l84 -123l2 -35l-391 -121zM397 1501h27l98 -129l-372 -184l-25 31z" />
    <glyph glyph-name="pi" unicode="&#x3c0;" horiz-adv-x="1193" 
d="M66 952h1085l-522 -897z" />
    <glyph glyph-name="endash" unicode="&#x2013;" horiz-adv-x="1077" 
d="M94 506v94h889v-94h-889z" />
    <glyph glyph-name="emdash" unicode="&#x2014;" horiz-adv-x="1693" 
d="M94 506v94h1503v-94h-1503z" />
    <glyph glyph-name="quoteleft" unicode="&#x2018;" horiz-adv-x="526" 
d="M426 1083q0 -77 -44 -121t-110 -44t-105 38q-38 38 -38 95q0 135 125 225t307 135l6 -20q-61 -38 -120 -95q-60 -57 -87 -108q66 -29 66 -105z" />
    <glyph glyph-name="quoteright" unicode="&#x2019;" horiz-adv-x="526" 
d="M184 1246q0 76 44 120q44 45 110 45t105 -39q38 -39 38 -94q0 -135 -125 -225t-307 -135l-6 20q60 38 120 94q60 57 87 109q-66 29 -66 105z" />
    <glyph glyph-name="quotesinglbase" unicode="&#x201a;" horiz-adv-x="610" 
d="M222 268q66 0 104 -39t39 -94q1 -135 -125 -225t-308 -135l-6 20q61 38 120 95q60 57 87 108q-65 29 -65 105q0 77 44 121t110 44z" />
    <glyph glyph-name="quotedblleft" unicode="&#x201c;" horiz-adv-x="935" 
d="M838 1081q0 -77 -44 -121t-110 -44t-105 38q-38 39 -38 95q0 135 125 225t307 135l6 -20q-61 -38 -120 -95q-60 -57 -87 -108q66 -29 66 -105zM426 1081q0 -77 -44 -121t-110 -44t-105 38q-38 39 -38 95q0 135 125 225t307 135l6 -20q-61 -38 -120 -95q-60 -57 -87 -108
q66 -29 66 -105z" />
    <glyph glyph-name="quotedblright" unicode="&#x201d;" horiz-adv-x="935" 
d="M748 1411q66 0 105 -39q38 -39 38 -94q0 -135 -125 -225t-307 -135l-6 20q60 38 120 94q60 57 86 109q-65 29 -65 105t44 120q44 45 110 45zM184 1246q0 76 44 120q44 45 110 45t105 -39q38 -39 38 -94q0 -135 -125 -225t-307 -135l-6 20q60 38 120 94q60 57 87 109
q-66 29 -66 105z" />
    <glyph glyph-name="quotedblbase" unicode="&#x201e;" horiz-adv-x="1021" 
d="M473 103q0 77 44 121q45 44 111 44t104 -39t38 -94q0 -135 -125 -225t-307 -135l-6 20q61 38 120 95q60 57 87 108q-66 29 -66 105zM61 103q0 77 44 121q45 44 111 44t104 -39t38 -94q0 -135 -125 -225t-307 -135l-6 20q61 38 120 95q60 57 87 108q-66 29 -66 105z" />
    <glyph glyph-name="dagger" unicode="&#x2020;" horiz-adv-x="1058" 
d="M508 1391h215l-143 -390l397 62l-33 -178l-373 57l27 -256l-197 -686h-63l45 686l113 256l-392 -57l33 178l371 -62v390z" />
    <glyph glyph-name="daggerdbl" unicode="&#x2021;" horiz-adv-x="1155" 
d="M203 885l30 178l373 -62l-2 390h215l-141 -390l395 62l-31 -178l-372 57l26 -246l-114 -250l395 62l-33 -178l-375 59l4 -389h-215l140 387l-394 -57l33 178l369 -59l-25 247l113 246z" />
    <glyph glyph-name="bullet" unicode="&#x2022;" horiz-adv-x="659" 
d="M350 813q98 0 152 -54t55 -145t-73 -164t-174 -73t-152 51q-54 51 -54 143t74 167t172 75z" />
    <glyph glyph-name="ellipsis" unicode="&#x2026;" horiz-adv-x="1669" 
d="M887 138q0 -60 -48 -110q-49 -48 -115 -48t-102 34t-36 96q0 60 49 110t115 50t102 -36q35 -36 35 -96zM220 270q66 0 102 -36t36 -98t-49 -108q-49 -48 -115 -48t-101 34q-36 34 -36 96q0 60 49 110q48 50 114 50zM1417 136q0 -62 -49 -108q-50 -48 -116 -48t-102 34
t-36 96q0 60 49 110t115 50t103 -36q36 -36 36 -98z" />
    <glyph glyph-name="perthousand" unicode="&#x2030;" horiz-adv-x="2060" 
d="M1618 31q76 -1 110 121t33 287q0 165 -71 165q-76 0 -112 -119t-36 -287t76 -167zM1929 391q0 -182 -90 -297q-90 -114 -214 -114q-249 1 -251 262q0 180 92 296t232 115q111 1 171 -69t60 -193zM996 31q76 1 108 121q33 120 33 286t-74 166t-109 -119q-34 -119 -34 -287
t76 -167zM1305 391q1 -182 -89 -297q-90 -114 -215 -114t-188 68t-63 194q0 180 93 296t232 115q109 1 169 -69t61 -193zM332 0h-101l877 1309h96zM518 1116q0 166 -74 166t-108 -120t-35 -288q0 -168 75 -167q74 -1 108 121t34 288zM686 1069q0 -182 -89 -298t-214 -116
t-188 69t-64 194q0 180 93 296t233 115q109 1 169 -69t60 -191z" />
    <glyph glyph-name="guilsinglleft" unicode="&#x2039;" horiz-adv-x="655" 
d="M596 948l-303 -430l151 -424h-75l-293 398v53l444 403h76z" />
    <glyph glyph-name="guilsinglright" unicode="&#x203a;" horiz-adv-x="655" 
d="M31 94l303 430l-152 424h76l293 -397v-53l-445 -404h-75z" />
    <glyph glyph-name="fraction" unicode="&#x2044;" horiz-adv-x="1013" 
d="M76 0h-99l947 1309h94z" />
    <glyph glyph-name="Euro" unicode="&#x20ac;" horiz-adv-x="1314" 
d="M866 1243q-141 0 -250 -119t-149 -317h338l-12 -78h-338q-8 -86 -9 -133h322l-12 -78h-307q10 -186 86 -284t202 -99q229 0 414 234l33 -23q-63 -133 -182 -237q-64 -57 -156 -93t-197 -36q-221 0 -355 143t-138 395h-107l12 78h97q4 76 14 133h-86l12 78h92
q72 246 258 384t426 138q106 -1 232 -23t160 -24l-23 -133q-15 -96 -10 -176v-33l-45 -14q-14 10 -35 29q-20 19 -62 93t-57 160q-76 35 -168 35z" />
    <glyph glyph-name="trademark" unicode="&#x2122;" horiz-adv-x="1734" 
d="M399 1346h-118q-27 -72 -76 -142l-17 -22l-22 4q10 76 10 143v62h623v-62l12 -143l-25 -4q-59 80 -90 164h-121v-611l84 -22v-17h-346v17l86 22v611zM879 1391h231l211 -430h4l168 430h229v-17l-69 -22v-617l69 -22v-17h-317v17l74 22v443h-4q-10 -47 -25 -82l-150 -367
h-55l-198 356q-27 40 -27 78l-2 15h-4v-443l69 -22v-17h-204v17l71 22v617l-71 22v17z" />
    <glyph glyph-name="Omega" unicode="&#x2126;" horiz-adv-x="1839" 
d="M1382 1065q128 0 232 -52t145 -112v-301q0 -307 -175 -464t-458 -156q-57 0 -114 6v2q110 12 230 86t149 190q-158 0 -272 81t-113 255v301q41 59 144 111t232 53zM123 600v301q41 59 144 111t233 53q130 0 232 -52q103 -52 145 -112v-301q1 -307 -175 -464t-458 -156
q-55 0 -115 6v2q111 12 231 86t148 190q-158 0 -272 81t-113 255z" />
    <glyph glyph-name="partialdiff" unicode="&#x2202;" horiz-adv-x="1177" 
d="M1020 1065v-1085l-897 522z" />
    <glyph glyph-name="Delta" unicode="&#x2206;" horiz-adv-x="2068" 
d="M1546 262q-198 0 -322 117t-124 285t124 284t322 117q198 0 323 -122q124 -122 124 -302q1 -180 -59 -311q-107 -235 -383 -317q-119 -36 -221 -36t-156 9v2q112 12 242 87t163 189q-4 -2 -33 -2zM567 262q-199 0 -321 117t-123 285q0 168 124 284q123 116 321 117
q198 0 322 -122t124 -308q0 -395 -301 -564q-169 -94 -394 -94q-70 0 -124 9v2q159 14 305 134q78 65 100 142q-4 -2 -33 -2z" />
    <glyph glyph-name="product" unicode="&#x220f;" horiz-adv-x="1193" 
d="M1151 88h-1085l563 897z" />
    <glyph glyph-name="summation" unicode="&#x2211;" horiz-adv-x="1177" 
d="M184 -20v1085l897 -563z" />
    <glyph glyph-name="minus" unicode="&#x2212;" horiz-adv-x="1030" 
d="M94 553v111h842v-111h-842z" />
    <glyph glyph-name="radical" unicode="&#x221a;" horiz-adv-x="2068" 
d="M1546 780q199 0 323 -116t124 -285q0 -168 -124 -285t-323 -117q-200 0 -322 122t-122 309q0 398 299 564q167 93 395 93q43 0 125 -8v-2q-168 -20 -307 -134q-78 -65 -101 -143q10 2 33 2zM567 780q199 0 323 -116t124 -285q0 -168 -124 -285t-322 -117t-322 122
t-123 309q0 397 301 564q167 93 395 93q41 0 123 -8v-2q-168 -20 -307 -134q-78 -65 -100 -143q9 2 32 2z" />
    <glyph glyph-name="infinity" unicode="&#x221e;" horiz-adv-x="1644" 
d="M1214 358q102 0 160 58t58 159q0 103 -58 159t-160 57q-59 0 -127 -41q-69 -41 -103 -75t-95 -100q53 -61 93 -100t106 -78t126 -39zM430 358q61 0 128 39t107 78t93 100q-149 162 -236 197q-45 18 -92 19q-102 -1 -160 -57t-57 -158q-1 -102 57 -160t160 -58zM1214 887
q154 0 246 -89q92 -90 92 -224t-87 -222t-251 -88q-80 0 -158 39t-125 80q-46 41 -108 109q-61 -66 -108 -108t-126 -81t-159 -39q-164 0 -250 87t-86 222t91 225t245 89q80 0 159 -39t126 -81t106 -108q66 70 110 109t124 79t159 40z" />
    <glyph glyph-name="integral" unicode="&#x222b;" horiz-adv-x="1839" 
d="M877 444v-301q-41 -59 -145 -111t-232 -52t-232 52t-145 111v301q0 307 175 464t458 157q55 0 114 -6v-2q-112 -12 -232 -87t-149 -190q160 0 274 -81t114 -255zM1382 -20q-130 0 -232 52q-103 52 -144 111v301q0 307 175 464t457 157q55 0 115 -6v-2q-113 -12 -233 -87
t-148 -190q160 0 274 -81t113 -255v-301q-41 -59 -144 -111t-233 -52z" />
    <glyph glyph-name="approxequal" unicode="&#x2248;" horiz-adv-x="1226" 
d="M880 311q-78 0 -224 67t-216 66q-150 0 -264 -141l-82 72q129 203 361 203q95 0 247 -69t193 -69q94 1 162 95l78 -72q-39 -66 -108 -109t-147 -43zM880 682q-78 0 -224 67t-216 66q-150 0 -264 -141l-82 71q129 203 361 203q95 0 247 -68t193 -69q94 0 162 94l78 -71
q-39 -66 -108 -109t-147 -43z" />
    <glyph glyph-name="notequal" unicode="&#x2260;" horiz-adv-x="1030" 
d="M94 752v110h473l78 170h107l-78 -170h262v-110h-311l-109 -244h420v-111h-469l-76 -170h-108l75 170h-264v111h316l108 244h-424z" />
    <glyph glyph-name="lessequal" unicode="&#x2264;" horiz-adv-x="1030" 
d="M94 20v111h842v-111h-842zM936 375v-119l-842 346v88l842 344v-121l-670 -266z" />
    <glyph glyph-name="greaterequal" unicode="&#x2265;" horiz-adv-x="1030" 
d="M936 131v-111h-842v111h842zM94 256v119l670 272l-670 266v121l842 -344v-88z" />
    <glyph glyph-name="lozenge" unicode="&#x25ca;" horiz-adv-x="958" 
d="M96 0v63h776v-63h-776zM96 1329v62h776v-62h-776zM535 694l243 -547h-94l-192 455l-195 -455h-92l241 547l-245 543h94l197 -451l192 451h92z" />
    <glyph glyph-name="apple" unicode="&#xf8ff;" horiz-adv-x="2945" 
d="M1716 584q0 27 -26 26q-42 1 -50 -69q76 0 76 43zM2378 584q0 27 -27 26q-41 1 -49 -69q76 0 76 43zM285 584q0 27 -27 26q-41 1 -49 -69q76 0 76 43zM1055 332q0 -29 28 -29q52 0 56 94q-84 -18 -84 -65zM1866 512q23 0 38 -14t15 -34t-15 -34t-38 -14t-37 13t-14 33
t14 36q14 14 37 14zM1446 553q0 41 -27 41t-46 -38t-19 -60v-47q92 12 92 104zM2350 471q42 0 73 18q16 -10 16 -25q0 -14 -5 -24t-29 -20q-23 -10 -71 -10t-81 30t-33 81q0 52 38 94t90 42t75 -19t22 -44q0 -78 -141 -78q4 -45 46 -45zM1784 594q0 -78 -142 -78
q4 -45 46 -45t73 18q28 -18 12 -50q-16 -29 -83 -29q-66 0 -99 30t-33 81q0 52 38 94t90 42t76 -19q22 -19 22 -44zM257 471q42 0 73 18q16 -10 16 -25q0 -14 -5 -24t-29 -20t-72 -10t-80 30q-33 30 -33 81q0 52 38 94t90 42t75 -19t22 -44q0 -78 -141 -78q4 -45 46 -45z
M2187 592v-100l4 -66q-49 -16 -67 -16t-19 16v137q0 31 -15 31q-14 0 -34 -36t-20 -62l6 -70q-49 -16 -69 -16t-19 16v141l-6 74q48 16 68 16t20 -18v-82q37 100 92 100q59 1 59 -65zM135 0v16h2740v-16h-2740zM135 1083v17h2740v-17h-2740zM2706 428l-168 -16q-40 0 -48 26
t-9 112q-1 87 -3 130l-59 -4v8q0 41 24 41h35l-6 61q48 16 68 16t20 -16v-59h96v-6q0 -43 -24 -43h-72v-184q0 -31 33 -31q23 0 79 11t93 11t83 -12t46 -39t-20 -41t-29 -14q-11 1 -61 25t-78 24zM563 657q59 0 60 -65v-35q29 100 92 100q57 1 57 -65v-100l6 -66
q-50 -16 -68 -16t-18 16v135q0 33 -14 33t-36 -36t-19 -62l4 -70q-49 -16 -68 -16t-18 16v135q1 33 -15 33t-36 -36t-19 -62l6 -70q-49 -16 -69 -16t-19 16v141l-6 74q49 16 69 16t19 -18v-82q33 100 92 100zM1450 655q34 1 58 -27t24 -77q0 -139 -178 -139v-82l6 -66
q-49 -16 -69 -16t-19 16v154l-51 -6v-6q0 -162 -140 -162q-43 0 -63 22t-21 47q0 74 144 109v86q-35 -98 -93 -98t-59 63v6q-39 -67 -103 -67t-65 61v207l-59 -4v8q0 41 24 41h35l-6 61q49 16 69 16t19 -16v-59h96v-6q0 -43 -24 -43h-72v-176q0 -33 27 -33q18 0 39 16
q20 16 20 37v51l-6 68q49 16 69 16t19 -18v-135q0 -31 14 -31t35 36q20 36 19 62l-4 70q49 16 67 16t19 -18v-203l51 6v125l-6 74q48 16 68 16t20 -18v-82q35 98 96 98z" />
    <glyph glyph-name="NULL" 
 />
    <glyph glyph-name="eight.tab" horiz-adv-x="1163" 
d="M483 1038q0 -139 138 -213l86 -47q152 113 151 275q0 201 -170 200q-109 -1 -157 -63t-48 -152zM301 277q0 -88 57 -154t176 -66t186 67t66 175q0 151 -147 227l-139 70q-100 -61 -150 -146t-49 -173zM538 -20q-466 0 -466 301q0 106 92 204t274 144q-84 51 -139 136
t-55 189q0 172 132 274t315 101q183 0 283 -80q100 -79 99 -193q0 -114 -82 -194t-219 -121l6 -2q264 -141 264 -350q0 -172 -142 -291q-143 -118 -362 -118z" />
    <glyph glyph-name="five.tab" horiz-adv-x="1163" 
d="M438 -20q-120 0 -228 30t-144 72q8 68 34 132t45 96q20 32 27 36h72q-12 -137 20 -240q80 -51 172 -51q143 0 231 84q87 84 87 250q0 256 -318 256q-115 0 -209 -22l-10 12l150 674h737l-60 -209h-620l-66 -289q129 10 181 10q217 0 353 -89t136 -271q0 -231 -161 -356
t-429 -125z" />
    <glyph glyph-name="four.tab" horiz-adv-x="1163" 
d="M766 1053l-557 -625h455l108 625h-6zM35 346v41l833 922h211l-155 -881h163l-12 -82h-166l-47 -270l144 -45l-5 -31h-573l4 31l170 45l47 270h-614z" />
    <glyph glyph-name="nine.tab" horiz-adv-x="1163" 
d="M559 588q63 0 128 37t112 96q14 94 14 205q0 326 -195 325q-116 1 -184 -113t-67 -292q-1 -258 192 -258zM371 -20q-195 0 -284 115q-36 46 -36 65l35 33q86 -68 251 -68t275 127t162 336q-129 -102 -299 -102t-272 94q-102 96 -103 256q0 223 151 358t369 135t336 -121
t117 -334q0 -393 -191 -644q-192 -250 -511 -250z" />
    <glyph glyph-name="one.tab" horiz-adv-x="1163" 
d="M504 1094q-86 0 -148 14t-84 29l-20 14l4 29q108 6 286 50q179 44 292 99l34 -24l-215 -1215l277 -59l-4 -31h-830l4 31l291 57l178 1006h-65z" />
    <glyph glyph-name="seven.tab" horiz-adv-x="1163" 
d="M156 0v55l827 1053h-618q-29 -51 -79 -103t-85 -79l-35 -27l-43 19q47 150 67 268l23 123h905v-179l-782 -1130h-180z" />
    <glyph glyph-name="six.tab" horiz-adv-x="1163" 
d="M602 721q-61 0 -128 -37t-112 -98q-12 -98 -12 -203q0 -326 195 -326q115 0 183 114t69 292q0 258 -195 258zM1063 473q-1 -223 -151 -358t-367 -135t-336 120t-119 334q0 393 192 644t511 251q150 0 225 -59t88 -99l8 -18l-39 -35q-86 66 -250 66q-165 0 -275 -127
t-161 -336q125 104 297 104t274 -96t103 -256z" />
    <glyph glyph-name="three.tab" horiz-adv-x="1163" 
d="M1010 426q0 -206 -159 -326t-405 -120q-130 0 -252 34t-169 76q22 118 91 221q22 31 27 35h86q-25 -145 4 -240q76 -49 204 -49t212 89t84 262q0 127 -79 180t-216 71l37 72q147 13 231 69t85 197q1 82 -53 121t-138 39q-190 0 -344 -145l-33 26q61 119 187 205t290 86
q162 0 257 -77t96 -201q0 -256 -326 -316v-4q119 -20 201 -97t82 -208z" />
    <glyph glyph-name="two.tab" horiz-adv-x="1163" 
d="M-8 0v78q6 6 107 78t236 177t206 179q71 76 138 156q128 154 128 301q0 86 -55 129q-54 43 -154 43t-202 -49t-177 -125l-39 28q68 127 205 231t319 103q182 0 280 -89q99 -89 99 -241q0 -100 -56 -202q-57 -102 -119 -174t-192 -168q-130 -95 -192 -135t-143 -86
q-80 -46 -88 -54v-6h512q33 55 81 102t81 66l30 18l33 -18q-43 -123 -61 -219l-21 -123h-956z" />
    <glyph glyph-name="zero.tab" horiz-adv-x="1163" 
d="M504 53q98 0 170 91q72 90 106 232q61 251 64 513q0 369 -187 368q-109 1 -187 -117q-152 -228 -153 -716q1 -371 187 -371zM496 -20q-209 0 -325 135t-116 374q0 373 175 607t432 233q210 0 328 -137t118 -381q0 -359 -172 -595t-440 -236z" />
    </font>
</defs>
</svg>
