<?xml version="1.0" standalone="no"?>
<!DOCTYPE svg PUBLIC "-//W3C//DTD SVG 1.1//EN" "http://www.w3.org/Graphics/SVG/1.1/DTD/svg11.dtd" >
<svg xmlns="http://www.w3.org/2000/svg">
<metadata>
Created by FontPrep 20130207 at Mon Jun 27 20:40:36 2016
 By Devin Halladay
Copyright (c) 2011 by Eduardo Manso. All rights reserved.
</metadata>
<defs>
<font id="283635c0e006219b80f8705fb39aa336" horiz-adv-x='1024' >
  <font-face 
    font-family="PeriodicoDisplay-UltLtIta"
    font-weight="265"
    font-style="italic"
    font-stretch="normal"
    units-per-em="2048"
    panose-1="2 0 5 6 7 0 0 2 0 4"
    ascent="1597"
    descent="-451"
    x-height="1044"
    cap-height="1391"
    bbox="-303 -387 2898 1804"
    underline-thickness="102"
    underline-position="-102"
    unicode-range="U+0009-FB02"
  />
<missing-glyph horiz-adv-x="915" 
d="M92 0v33h739v-33h-739zM92 1358v33h739v-33h-739zM483 692l230 -581h-45l-207 524l-205 -524h-45l229 579l-231 584h45l207 -524l213 524h47z" />
    <glyph glyph-name="fi" unicode="fi" horiz-adv-x="1189" 
d="M928 41q45 0 93 68t64 116l27 -12q-4 -10 -15 -44t-66 -108q-64 -81 -152 -81q-51 0 -79 44t-16 109l146 836h-527l-153 -949q-31 -190 -120 -286t-220 -96q-63 0 -150 36q4 56 24 96q21 39 34 62l12 21l64 -9q0 -2 -21 -53t-27 -104q37 -8 58 -9q195 0 250 336l153 955
h-147l6 30l149 19l19 104q33 188 160 284t309 97q134 0 233 -38q27 -9 29 -9q-4 -64 -25 -103q-22 -40 -36 -63l-17 -24l-53 8q35 117 41 162q-84 27 -170 26q-158 0 -252 -87t-121 -245l-20 -112h395q127 0 192 10l29 4h12l-159 -899q-16 -92 47 -92z" />
    <glyph glyph-name="fl" unicode="fl" horiz-adv-x="1185" 
d="M913 41q45 0 94 68q48 68 64 116l27 -12q-4 -10 -15 -44t-66 -108q-63 -81 -151 -81q-52 0 -81 44q-28 44 -15 109l229 1299q-104 31 -198 30q-158 0 -251 -89t-120 -247l-18 -108h260l-10 -49h-259l-153 -949q-31 -190 -120 -286t-220 -96q-63 0 -150 36q4 67 56 158
l12 21l66 -9q-41 -98 -48 -157q37 -8 58 -9q98 0 160 90t90 246l153 955h-147l6 30l149 19l19 104q33 188 158 284t305 97q131 0 211 -24l88 24h12l-242 -1370q-16 -92 47 -92z" />
    <glyph glyph-name=".notdef" horiz-adv-x="915" 
d="M92 0v33h739v-33h-739zM92 1358v33h739v-33h-739zM483 692l230 -581h-45l-207 524l-205 -524h-45l229 579l-231 584h45l207 -524l213 524h47z" />
    <glyph glyph-name=".null" 
 />
    <glyph glyph-name="nonmarkingreturn" horiz-adv-x="681" 
 />
    <glyph glyph-name="CR" unicode="&#xd;" 
 />
    <glyph glyph-name="CR" 
 />
    <glyph glyph-name="HT" unicode="&#x9;" 
 />
    <glyph glyph-name="LF" unicode="&#xa;" 
 />
    <glyph glyph-name="DLE" 
 />
    <glyph glyph-name="DC1" 
 />
    <glyph glyph-name="DC2" 
 />
    <glyph glyph-name="DC3" 
 />
    <glyph glyph-name="DC4" 
 />
    <glyph glyph-name="RS" 
 />
    <glyph glyph-name="US" 
 />
    <glyph glyph-name="space" unicode=" " horiz-adv-x="462" 
 />
    <glyph glyph-name="exclam" unicode="!" horiz-adv-x="532" 
d="M163 -20q-32 0 -51 18q-20 18 -20 49t26 57t58 25q32 0 50 -18q20 -18 20 -49q0 -30 -26 -56t-57 -26zM403 1411q25 0 42 -13t20 -34l-242 -1053h-20l129 1053q20 47 71 47z" />
    <glyph glyph-name="quotedbl" unicode="&#x22;" horiz-adv-x="538" 
d="M500 1411q25 0 39 -14t10 -35l-115 -410h-26l30 410q4 18 20 34t42 15zM299 1411q25 0 39 -14t10 -35l-115 -410h-26l31 410q4 18 20 34t41 15z" />
    <glyph glyph-name="numbersign" unicode="#" horiz-adv-x="1263" 
d="M504 682l-129 -315h387l129 315h-387zM227 682l9 55h229l121 297h61l-121 -297h387l121 297h62l-121 -297h174l-8 -55h-189l-129 -315h215l-8 -56h-229l-125 -311h-62l125 311h-387l-125 -311h-59l125 311h-176l8 56h190l127 315h-215z" />
    <glyph glyph-name="dollar" unicode="$" horiz-adv-x="1163" 
d="M342 1014q0 -74 47 -130t123 -87l76 -31l92 516q-146 -4 -242 -70t-96 -198zM889 358q0 168 -197 248l-78 31l-108 -608q164 8 274 98t109 231zM997 391q0 -178 -144 -293t-355 -118l-21 -119h-47l21 119q-258 8 -420 100l12 72q15 86 10 151v29l47 10q43 -96 47 -236
q129 -74 312 -77l110 626l-108 43q-221 94 -221 283t142 270q127 74 306 78l23 125h47l-23 -125q109 -2 217 -31t129 -30l-12 -64q-13 -82 -8 -139l2 -23l-43 -10q-43 66 -53 195q-125 51 -240 55l-94 -534l129 -52q113 -47 174 -127t61 -178z" />
    <glyph glyph-name="percent" unicode="%" horiz-adv-x="1337" 
d="M991 621q-107 0 -167 -125t-60 -281q0 -88 32 -145q32 -58 102 -58t122 68q98 126 98 333q0 208 -127 208zM1196 408q0 -188 -87 -308t-214 -120q-98 0 -154 64q-55 65 -55 181q0 186 88 307t217 121q97 0 151 -65t54 -180zM279 0h-60l856 1309h53zM360 688q68 0 121 68
q101 130 101 335q0 206 -127 205q-105 0 -167 -125t-63 -280q0 -87 33 -145q34 -58 102 -58zM657 1083q0 -188 -86 -308t-215 -120q-96 0 -151 65t-55 181q0 186 87 307t218 121q94 1 148 -65t54 -181z" />
    <glyph glyph-name="ampersand" unicode="&#x26;" horiz-adv-x="1355" 
d="M465 1061q0 -109 59 -256q169 65 227 117q29 26 65 64q66 70 68 174q1 104 -49 154q-51 50 -141 50t-160 -72t-69 -231zM145 329q-1 -95 53 -163t118 -90t141 -21q188 0 350 125q-97 111 -201 277t-153 284q-72 -31 -190 -130q-118 -98 -118 -282zM709 1411
q117 -1 189 -65t71 -154q0 -90 -34 -155t-74 -103q-41 -38 -113 -75q-72 -38 -108 -51t-103 -36q55 -127 125 -233q102 -170 215 -297q178 178 290 499l29 -10q-76 -326 -274 -534q135 -131 237 -131q86 0 141 200l31 -8q0 -16 -17 -74q-18 -57 -26 -72t-21 -43t-46 -59
q-33 -30 -82 -30q-135 0 -285 153q-184 -154 -420 -153q-128 0 -241 63q-63 35 -104 107q-40 72 -40 164t35 166q35 75 81 122t107 87q60 40 98 55t70 28q-61 156 -61 262q0 282 220 359q54 18 110 18z" />
    <glyph glyph-name="quotesingle" unicode="'" horiz-adv-x="335" 
d="M299 1411q25 0 39 -14t10 -35l-115 -410h-26l31 410q4 18 20 34t41 15z" />
    <glyph glyph-name="parenleft" unicode="(" horiz-adv-x="655" 
d="M94 434q0 450 267 760q87 100 164 167t182 142l22 -30q-94 -72 -169 -141q-388 -357 -388 -910q0 -395 256 -664l-33 -30q-301 297 -301 706z" />
    <glyph glyph-name="parenright" unicode=")" horiz-adv-x="655" 
d="M561 797q0 -163 -36 -307t-90 -248t-141 -204t-164 -168q-77 -67 -181 -142l-23 30q94 72 169 141q391 360 388 910q0 395 -256 664l33 30q301 -297 301 -706z" />
    <glyph glyph-name="asterisk" unicode="*" horiz-adv-x="915" 
d="M502 1047q29 -8 41 20q10 29 -20 40t-41 -19t20 -41zM569 1042l90 -286l-24 -15l-137 256q-25 -27 -228 -256l-20 15l190 286q-299 30 -305 31l4 25l312 20l-84 285l22 12l135 -266l230 266l20 -12l-182 -285q102 -10 297 -20l-4 -25z" />
    <glyph glyph-name="plus" unicode="+" horiz-adv-x="1042" 
d="M115 580v57h377v377h59v-377h379v-57h-379v-381h-59v381h-377z" />
    <glyph glyph-name="comma" unicode="," horiz-adv-x="497" 
d="M74 43q0 41 22 63t57 21q34 -1 52 -21t18 -47q0 -145 -260 -239l-4 10l52 39q57 42 77 71t29 48q-43 14 -43 55z" />
    <glyph glyph-name="hyphen" unicode="-" horiz-adv-x="704" 
d="M113 524v66h479v-66h-479z" />
    <glyph glyph-name="period" unicode="." horiz-adv-x="497" 
d="M140 -20q-32 0 -51 18t-19 49t26 57t57 25q32 0 51 -18t19 -49t-25 -57q-26 -25 -58 -25z" />
    <glyph glyph-name="slash" unicode="/" horiz-adv-x="802" 
d="M-8 -342l715 1825h55l-715 -1825h-55z" />
    <glyph glyph-name="zero" unicode="0" horiz-adv-x="1148" 
d="M197 456q1 -208 73 -319q72 -112 213 -112q141 -1 251 119t163 308t53 398q0 209 -72 324q-73 114 -214 114t-252 -124t-163 -312t-52 -396zM477 -20q-180 0 -282 130t-103 357q0 383 166 623t414 239q180 0 282 -129t103 -360q0 -384 -166 -622t-414 -238z" />
    <glyph glyph-name="one" unicode="1" horiz-adv-x="718" 
d="M350 1198q-150 0 -211 16l-24 7l4 22q270 12 411 82l15 -16l-221 -1254l274 -28l-4 -27h-660l5 27l280 28l201 1143h-70z" />
    <glyph glyph-name="two" unicode="2" horiz-adv-x="1089" 
d="M-23 0v47q17 11 99 65t126 85t130 91t140 106t129 112t121 124q125 158 153 241q27 82 26 145q0 109 -68 168q-69 59 -194 59q-246 0 -426 -233l-29 16q72 121 194 212t290 91t256 -82t88 -223q0 -211 -218 -438q-181 -189 -520 -404q-123 -79 -147 -96v-4h680
q35 100 92 160l19 20l24 -8q-35 -86 -51 -191l-12 -63h-902z" />
    <glyph glyph-name="three" unicode="3" horiz-adv-x="983" 
d="M332 -20q-115 0 -218 32t-145 72q21 115 67 190q15 27 17 27h47q-2 0 -15 -54t-9 -149q90 -74 269 -74t293 102q114 101 114 286q0 92 -52 153t-120 85q-70 24 -160 30l16 43q162 4 266 90t105 236q0 96 -65 148q-66 52 -180 52t-212 -63t-164 -156q-27 14 -26 17
q61 117 174 199q114 82 262 83q148 0 232 -72q84 -73 83 -201q0 -128 -86 -214t-211 -121v-4q102 -23 176 -96q73 -74 72 -197q0 -207 -148 -326q-149 -118 -382 -118z" />
    <glyph glyph-name="four" unicode="4" horiz-adv-x="1081" 
d="M813 1180l-694 -752h567l131 752h-4zM16 381v20l850 914h80l-158 -887h183l-8 -47h-183l-59 -332l160 -22l-4 -27h-437l4 27l174 22l58 332h-660z" />
    <glyph glyph-name="five" unicode="5" horiz-adv-x="1050" 
d="M381 -20q-113 0 -215 26t-137 66q4 110 54 211q15 31 17 30h45q-12 -42 -21 -112q-9 -69 1 -109q33 -27 105 -47t159 -20q207 0 323 103t115 294q1 150 -109 222t-274 71q-111 0 -243 -25l-4 6l129 613h704l-29 -90h-632l-95 -439q129 18 203 19q199 0 330 -87t131 -259
q0 -225 -148 -350q-149 -123 -409 -123z" />
    <glyph glyph-name="six" unicode="6" horiz-adv-x="1071" 
d="M197 412q1 -387 297 -387q150 0 255 121q105 122 105 321q0 135 -70 209t-187 74t-229 -68t-169 -182q-2 -29 -2 -88zM486 -20q-192 0 -292 116q-101 116 -102 328q0 391 177 648t476 257q130 0 206 -46q54 -29 77 -69l-31 -26q-13 25 -93 48t-156 24q-218 0 -360 -184
t-179 -468q160 199 412 199q153 0 245 -92t92 -244q0 -223 -140 -357t-332 -134z" />
    <glyph glyph-name="seven" unicode="7" horiz-adv-x="1044" 
d="M162 0v31l809 1188h-725q-40 -88 -107 -179l-22 -24l-35 8q43 119 61 219l11 66h884v-82l-802 -1227h-74z" />
    <glyph glyph-name="eight" unicode="8" horiz-adv-x="1050" 
d="M879 1056q1 106 -61 166q-62 62 -195 62t-214 -74t-81 -168q0 -96 41 -152t125 -110l90 -57q119 47 207 137t88 196zM141 272q0 -110 79 -178t242 -68t257 78q94 76 94 209q0 81 -43 141t-139 121l-123 74q-367 -150 -367 -377zM43 264q0 142 124 248t306 160l-47 30
q-197 125 -197 295q0 147 118 239t281 93q163 0 252 -75q89 -74 89 -190q1 -116 -99 -216t-254 -146l76 -47q117 -75 172 -145t56 -162q0 -164 -128 -266t-354 -102t-335 117q-60 67 -60 167z" />
    <glyph glyph-name="nine" unicode="9" horiz-adv-x="1077" 
d="M881 897q-1 387 -299 387q-150 0 -253 -121t-104 -321q-1 -135 69 -209t187 -74t229 67t169 181q2 31 2 90zM332 -20q-157 0 -246 76q-22 19 -35 40l27 27q32 -32 104 -53q71 -20 148 -21q219 0 359 183t179 468q-164 -199 -411 -198q-152 0 -245 92t-93 244
q0 223 140 357q139 134 331 134t294 -117t101 -327q0 -391 -177 -648t-476 -257z" />
    <glyph glyph-name="colon" unicode=":" horiz-adv-x="497" 
d="M383 975q1 -31 -27 -57t-59 -25q-31 0 -48 18t-17 49t26 57q28 25 58 25t48 -18t19 -49zM156 129q65 1 65 -67q-1 -32 -27 -57t-57 -25t-49 18t-18 49t28 57t58 25z" />
    <glyph glyph-name="semicolon" unicode=";" horiz-adv-x="497" 
d="M383 975q-1 -31 -27 -57t-57 -25q-31 0 -48 18t-17 49t26 57q27 25 58 25t48 -18t17 -49zM74 43q0 41 22 63t57 21q34 -1 52 -21t18 -47q0 -145 -260 -239l-4 10l52 39q57 42 77 71t29 48q-43 14 -43 55z" />
    <glyph glyph-name="less" unicode="&#x3c;" horiz-adv-x="1042" 
d="M115 586v49l815 385v-70l-740 -342l740 -342v-67z" />
    <glyph glyph-name="equal" unicode="=" horiz-adv-x="1042" 
d="M115 418v57h815v-57h-815zM115 784v58h815v-58h-815z" />
    <glyph glyph-name="greater" unicode="&#x3e;" horiz-adv-x="1042" 
d="M928 635v-49l-815 -387v67l739 342l-739 342v70z" />
    <glyph glyph-name="question" unicode="?" horiz-adv-x="987" 
d="M280 -20q-31 0 -48 18t-17 49t28 57q29 26 59 25q30 0 47 -18q17 -17 17 -49t-27 -57q-28 -25 -59 -25zM613 1411q155 0 256 -80t102 -219q0 -100 -36 -184t-92 -140q-160 -161 -431 -198l-66 -279h-20l34 357q246 31 383 150q127 112 127 312q0 110 -80 172
q-82 62 -232 62t-265 -94q-29 -80 -23 -156l2 -27l-73 -10q-9 24 -14 83q-5 60 10 100q57 57 160 104t258 47z" />
    <glyph glyph-name="at" unicode="@" horiz-adv-x="1820" 
d="M807 240q111 0 207 114t119 252l47 279q-68 104 -191 104q-147 0 -252 -155q-104 -156 -104 -363q0 -111 45 -171t129 -60zM1290 190q141 0 260 138t119 406t-171 456t-484 188q-365 0 -593 -249t-228 -633q0 -182 60 -318t144 -208t196 -114q111 -42 187 -52t150 -11
q203 0 383 74l12 -29q-180 -92 -405 -92q-339 0 -555 167q-76 58 -131 134q-54 76 -89 192t-34 257q1 406 251 668t652 263q178 0 321 -57q143 -56 233 -154q184 -200 183 -485q0 -157 -46 -275t-118 -183q-140 -126 -293 -126q-221 0 -196 228l4 33h-4q-131 -233 -312 -234
q-118 0 -184 78t-65 207q0 241 137 409t323 168q127 0 213 -90l56 86l34 -6l-110 -629q-41 -207 100 -207z" />
    <glyph glyph-name="A" unicode="A" horiz-adv-x="1341" 
d="M735 1249h-2l-393 -714h553zM-127 0l4 27l133 22l750 1350l41 12l307 -1362l125 -22l-4 -27h-387l4 27l155 22l-96 438h-590l-239 -438l143 -22l-4 -27h-342z" />
    <glyph glyph-name="B" unicode="B" horiz-adv-x="1249" 
d="M723 1343h-266l-105 -593h269q186 0 305 91t118 246q0 123 -88 189t-233 67zM662 705h-320l-115 -658h322q195 0 319 101t123 280q1 129 -89 203t-240 74zM727 1391q188 0 308 -78t120 -221q0 -142 -94 -234t-250 -129v-2q131 -27 211 -107t80 -200q0 -200 -163 -310
t-402 -110h-586l4 27l168 22l229 1292l-157 23l4 27h528z" />
    <glyph glyph-name="C" unicode="C" horiz-adv-x="1257" 
d="M825 1364q-242 0 -423 -214t-181 -568q0 -246 118 -386t304 -141q274 0 471 277l27 -15q-88 -149 -221 -243t-304 -94q-225 0 -367 156t-143 427q0 199 65 363q121 306 407 429q131 56 259 56t257 -26t141 -25l-10 -62q-17 -108 -17 -184v-29l-30 -6q-47 70 -64 234
q-123 51 -289 51z" />
    <glyph glyph-name="D" unicode="D" horiz-adv-x="1417" 
d="M741 1341h-288l-226 -1290h318q127 0 245 54q248 113 355 397q55 147 55 319q0 238 -128 379t-331 141zM750 1391q248 0 404 -151t157 -406q0 -256 -115 -448t-290 -289t-371 -97h-584l4 27l168 22l229 1292l-157 23l4 27h551z" />
    <glyph glyph-name="E" unicode="E" horiz-adv-x="1226" 
d="M1096 1341h-641l-107 -608l549 6l51 133h31l-57 -325h-27l-8 135l-547 6l-113 -639h682q52 144 119 254l23 37l26 -6q-43 -135 -67 -273l-11 -61h-1048l4 27l168 22l229 1292l-157 23l4 27h1005l-10 -50q-11 -78 -23 -227l-2 -39l-36 -6q-37 111 -37 272z" />
    <glyph glyph-name="F" unicode="F" horiz-adv-x="1214" 
d="M1120 1341h-665l-111 -622l578 6l53 147h31l-62 -354h-29l-4 150l-575 6l-109 -625l162 -22l-4 -27h-434l4 27l168 22l229 1292l-157 23l4 27h1030l-8 -50q-21 -121 -27 -227l-2 -39l-35 -6q-37 111 -37 272z" />
    <glyph glyph-name="G" unicode="G" horiz-adv-x="1380" 
d="M893 1364q-272 0 -473 -223t-201 -592q0 -252 137 -386t349 -134q141 0 264 49l84 475l-131 22l4 27h344l-4 -27l-111 -22l-82 -469l27 4q27 4 28 2l-2 -22q-192 -88 -438 -88t-414 146t-168 427q0 203 69 370q127 307 438 432q142 56 269 56q126 0 266 -26t152 -25
l-10 -51q-21 -121 -16 -193v-26l-29 -5q-51 66 -67 224q-119 55 -285 55z" />
    <glyph glyph-name="H" unicode="H" horiz-adv-x="1445" 
d="M819 0l4 27l168 22l119 678h-764l-119 -678l158 -22l-4 -27h-430l6 27l166 22l229 1292l-157 23l4 27h428l-4 -27l-168 -23l-99 -565h764l99 565l-158 23l4 27h428l-4 -27l-168 -23l-227 -1292l157 -22l-4 -27h-428z" />
    <glyph glyph-name="I" unicode="I" horiz-adv-x="577" 
d="M-49 0l4 27l168 22l229 1292l-157 23l4 27h428l-4 -27l-168 -23l-228 -1292l158 -22l-4 -27h-430z" />
    <glyph glyph-name="J" unicode="J" horiz-adv-x="575" 
d="M-238 -362q-20 0 -65 4q8 82 65 196h64q-33 -90 -23 -155q162 2 283 114l272 1544l-159 23l4 27h424l-4 -27l-160 -23l-273 -1540q-145 -163 -428 -163z" />
    <glyph glyph-name="K" unicode="K" horiz-adv-x="1308" 
d="M1053 0q-106 51 -213 238l-240 442h-262l-111 -631l158 -22l-4 -27h-430l4 27l168 22l229 1292l-157 23l4 27h428l-4 -27l-168 -23l-109 -612h248l586 612l-144 23l4 27h355l-4 -27l-138 -23l-573 -593l254 -451q72 -129 146 -195t130 -75l-4 -27h-153z" />
    <glyph glyph-name="L" unicode="L" horiz-adv-x="1101" 
d="M-49 0l4 27l168 22l229 1292l-157 23l4 27h428l-4 -27l-168 -23l-228 -1292h619q56 151 115 252l22 39l31 -6q-43 -133 -68 -273l-10 -61h-985z" />
    <glyph glyph-name="M" unicode="M" horiz-adv-x="1605" 
d="M655 66l-256 1064l-12 95h-6l-205 -1176l158 -22l-4 -27h-379l4 27l168 22l227 1292l-155 23l4 27h254l266 -1162h4l670 1162h260l-4 -27l-168 -23l-228 -1292l158 -22l-4 -27h-426l4 27l168 22l207 1176h-6q-37 -74 -51 -95l-617 -1064h-31z" />
    <glyph glyph-name="N" unicode="N" horiz-adv-x="1435" 
d="M1042 0l-649 1280l-215 -1231l158 -22l-4 -27h-381l4 27l168 22l227 1292l-155 23l4 27h258l606 -1207l203 1157l-156 23l4 27h379l-4 -27l-166 -23l-238 -1341h-43z" />
    <glyph glyph-name="O" unicode="O" horiz-adv-x="1423" 
d="M612 27q238 0 414 231t176 586q0 238 -108 380q-109 142 -281 142q-240 0 -417 -231t-177 -588q-1 -238 109 -379t284 -141zM614 -20q-221 0 -364 156t-144 415q0 195 60 361t162 273q100 108 226 167t261 59q221 0 361 -157t141 -418q-1 -193 -61 -357
q-115 -311 -385 -439q-126 -60 -257 -60z" />
    <glyph glyph-name="P" unicode="P" horiz-adv-x="1259" 
d="M635 518q-104 0 -158 21l4 24h127q211 0 349 117t139 330q0 158 -98 244t-273 87h-268l-228 -1292l168 -22l-6 -27h-436l4 27l168 22l227 1292l-157 23l4 27h538q211 -1 339 -101t128 -282q0 -236 -166 -363t-405 -127z" />
    <glyph glyph-name="Q" unicode="Q" horiz-adv-x="1423" 
d="M612 27q238 0 414 231t176 586q0 238 -108 380q-109 142 -281 142q-240 0 -417 -231t-177 -588q-1 -238 109 -379t284 -141zM823 1411q215 0 355 -154t139 -411q0 -350 -181 -582t-440 -276v-4l119 -127q121 -129 246 -154l-4 -25h-178q-92 39 -183 152l-129 152
q-203 12 -331 162t-130 397q0 195 62 361t162 277q102 110 230 171t263 61z" />
    <glyph glyph-name="R" unicode="R" horiz-adv-x="1257" 
d="M748 1341h-293l-115 -655h403q107 28 199 104q111 91 111 265q0 133 -83 209t-222 77zM754 1391q180 0 295 -89t115 -246t-106 -260q-105 -103 -267 -137v-8l102 -307q69 -205 176 -285q40 -28 68 -32l-4 -27h-144q-45 20 -98 96t-92 195l-111 350h-356l-105 -592
l160 -22l-4 -27h-432l4 27l168 22l229 1292l-157 23l4 27h555z" />
    <glyph glyph-name="S" unicode="S" horiz-adv-x="1110" 
d="M660 1364q-144 0 -252 -69t-107 -205q0 -86 47 -144t144 -100l245 -109q111 -49 171 -138t61 -196q-1 -186 -149 -305t-365 -118q-276 0 -457 100l14 72q13 78 8 174v34l31 9q66 -106 70 -265q133 -76 319 -76t306 96q118 95 118 249q0 199 -202 286l-250 111
q-92 41 -151 115q-58 74 -58 171q0 264 313 337q82 18 188 18t221 -30q116 -30 132 -31l-13 -64q-12 -75 -10 -136t4 -69l-30 -6q-57 86 -70 236q-134 53 -278 53z" />
    <glyph glyph-name="T" unicode="T" horiz-adv-x="1169" 
d="M1153 1341h-401l-228 -1292l178 -22l-4 -27h-467l5 27l186 22l227 1292h-399q-52 -148 -115 -235l-20 -33l-29 6q39 115 61 250l11 62h1102l-11 -62q-22 -130 -22 -217v-33l-33 -6q-41 123 -41 268z" />
    <glyph glyph-name="U" unicode="U" horiz-adv-x="1421" 
d="M602 -20q-186 0 -308 76q-120 76 -140 220l188 1065l-158 23l4 27h426l-4 -27l-166 -23l-174 -985q-24 -147 72 -232t268 -85t308 91q135 91 161 243l170 968l-157 23l4 27h383l-4 -27l-168 -23l-183 -1040q-64 -153 -200 -237t-322 -84z" />
    <glyph glyph-name="V" unicode="V" horiz-adv-x="1339" 
d="M578 -20h-39l-301 1361l-125 23l4 27h389l-4 -27l-156 -23l256 -1202h4l662 1202l-144 23l4 27h340l-4 -27l-133 -23z" />
    <glyph glyph-name="W" unicode="W" horiz-adv-x="2021" 
d="M489 -20h-36l-215 1361l-125 23l4 27h387l-4 -27l-156 -23l180 -1181h4l551 1108l-12 84l37 39h67l189 -1231h4l584 1181l-142 23l4 27h338l-4 -27l-135 -23l-682 -1361h-35l-200 1200z" />
    <glyph glyph-name="X" unicode="X" horiz-adv-x="1259" 
d="M-147 0l4 27l129 22l592 649l-320 643l-135 23l4 27h397l-4 -27l-143 -21l280 -565l512 563l-118 23l4 27h311l-4 -27l-125 -23l-557 -610l340 -684l141 -20l-4 -27h-405l4 27l147 22l-301 596l-543 -596l115 -22l-4 -27h-317z" />
    <glyph glyph-name="Y" unicode="Y" horiz-adv-x="1280" 
d="M279 0l4 27l186 22l94 535l-342 757l-121 23l4 27h385l-4 -27l-149 -23l309 -702h2l574 702l-138 23l4 27h334l-4 -27l-133 -23l-616 -755l-95 -537l177 -22l-5 -27h-466z" />
    <glyph glyph-name="Z" unicode="Z" horiz-adv-x="1150" 
d="M225 1067l-35 10q39 109 66 252l10 62h897l-8 -45l-1059 -1297h774q40 131 113 238l23 35l34 -9q-39 -104 -65 -252l-10 -61h-1006l6 45l1065 1296h-670q-16 -67 -50 -135t-60 -104z" />
    <glyph glyph-name="bracketleft" unicode="[" horiz-adv-x="684" 
d="M53 -254l307 1737h363l-8 -49h-281l-289 -1639h279l-8 -49h-363z" />
    <glyph glyph-name="backslash" unicode="\" horiz-adv-x="823" 
d="M575 -342l-299 1825h54l299 -1825h-54z" />
    <glyph glyph-name="bracketright" unicode="]" horiz-adv-x="684" 
d="M631 1483l-307 -1737h-363l8 49h281l289 1639h-279l8 49h363z" />
    <glyph glyph-name="asciicircum" unicode="^" horiz-adv-x="882" 
d="M770 750h-61l-271 571l-262 -571h-61l288 641h72z" />
    <glyph glyph-name="underscore" unicode="_" horiz-adv-x="1036" 
d="M-164 -283v58h1049v-58h-1049z" />
    <glyph glyph-name="grave" unicode="`" horiz-adv-x="585" 
d="M291 1448h10l289 -270l-19 -23l-331 225z" />
    <glyph glyph-name="a" unicode="a" horiz-adv-x="1163" 
d="M186 365q0 -158 64 -239t182 -81q119 0 237 136t144 284l76 424q-29 41 -92 76t-162 34q-189 0 -319 -190t-130 -444zM395 -20q-149 0 -231 98t-82 264q0 301 166 502t397 200q162 0 268 -90l74 90l25 -8l-160 -903q-14 -92 49 -92q45 0 93 67t65 115l26 -10
q-4 -22 -29 -71q-25 -50 -49 -81t-63 -57t-91 -24q-52 0 -81 45t-12 116l26 131h-4q-66 -120 -169 -206t-218 -86z" />
    <glyph glyph-name="b" unicode="b" horiz-adv-x="1126" 
d="M938 659q0 158 -65 239t-187 81t-242 -135q-118 -136 -145 -283l-80 -455q86 -82 254 -81q209 0 337 188t128 446zM467 -20q-168 0 -274 81l-72 -75l-19 10l252 1436l-147 10l6 26l238 33h12l-98 -561l-41 -188l6 -2q62 122 166 208t240 86t222 -101t86 -269
q0 -301 -164 -498q-165 -196 -413 -196z" />
    <glyph glyph-name="c" unicode="c" horiz-adv-x="968" 
d="M625 999q-186 0 -315 -163q-128 -164 -128 -426q0 -176 78 -268t219 -93q205 0 361 262l26 -14q-141 -319 -413 -320q-175 -1 -273 105t-98 301q0 299 169 480t390 181q109 0 187 -38t106 -74q-11 -92 -72 -184l-63 10q31 74 39 166q-27 18 -36 25q-64 50 -177 50z" />
    <glyph glyph-name="d" unicode="d" horiz-adv-x="1179" 
d="M186 365q0 -158 66 -240t187 -82q122 0 241 130t143 269l84 469q-94 88 -254 88q-211 0 -339 -188t-128 -446zM390 -20q-136 0 -222 100t-86 268q0 301 165 499t412 197q156 0 259 -71l83 459l-147 12l4 26l240 33h12l-242 -1370q-14 -92 47 -92q45 0 95 67q49 67 65 115
l25 -10q-5 -23 -30 -72t-49 -80t-63 -57q-40 -26 -90 -24q-50 0 -81 45q-30 45 -13 116l29 131h-6q-66 -124 -168 -208q-103 -84 -239 -84z" />
    <glyph glyph-name="e" unicode="e" horiz-adv-x="970" 
d="M602 999q-156 0 -274 -137t-144 -368q362 -4 540 142q95 79 95 195q0 80 -58 124q-59 44 -159 44zM440 -20q-170 0 -264 103t-94 294q0 297 159 482t371 185q138 0 220 -58t81 -157q-1 -176 -209 -276t-524 -96q-2 -23 -2 -68q0 -168 76 -256t198 -88t206 56t165 155
l23 -16q-164 -260 -406 -260z" />
    <glyph glyph-name="f" unicode="f" horiz-adv-x="645" 
d="M715 1462q-115 0 -188 -86t-97 -235l-20 -123h264l-8 -49h-265l-151 -949q-31 -190 -120 -286t-220 -96q-63 0 -150 36q4 67 56 158l12 21l66 -9l-13 -28q-31 -90 -35 -131q55 -6 58 -7q195 0 246 324l155 967h-149l6 30l151 19l17 104q29 186 133 284t250 97
q86 0 156 -29q17 -7 20 -8q-4 -66 -24 -102q-19 -36 -31 -58t-13 -24l-65 10q0 2 22 56t25 100q-57 14 -88 14z" />
    <glyph glyph-name="g" unicode="g" horiz-adv-x="1073" 
d="M115 -123q0 -86 82 -139t245 -53q162 1 276 65t132 160l16 94q-84 76 -248 84l-270 10l-41 8q-84 -45 -138 -106t-54 -123zM283 684q-1 -120 63 -189t184 -69t211 99q93 99 93 222t-60 189t-191 66q-130 0 -215 -99t-85 -219zM512 383q-246 0 -246 -107q0 -34 30 -58
t83 -25l262 -13q250 -10 330 -125l-21 -114q-23 -125 -164 -214t-350 -89t-311 63t-102 162q1 77 67 145t170 113q-92 37 -92 123q0 135 203 166q-86 33 -138 102q-51 70 -51 162q0 164 118 267t298 103q90 0 164 -26q84 -2 165 11t117 28l39 12l2 -76q-78 -29 -235 -26v-4
q82 -82 82 -211q0 -162 -124 -266t-296 -103z" />
    <glyph glyph-name="h" unicode="h" horiz-adv-x="1167" 
d="M871 -20q-51 0 -79 44t-16 109l107 608q23 123 -25 183t-147 59q-135 0 -259 -135t-151 -287l-98 -561h-97l252 1432l-147 10l6 26l236 33h14l-98 -561l-41 -188l6 -2q66 126 174 210t234 84t194 -82t41 -233l-105 -596q-16 -92 48 -92q45 0 92 67t65 117l27 -12
q-4 -10 -10 -26q-50 -126 -134 -182q-38 -25 -89 -25z" />
    <glyph glyph-name="i" unicode="i" horiz-adv-x="581" 
d="M481 1360q-1 -32 -25 -56t-56 -24t-50 18t-18 49t25 56q26 25 57 25t49 -19q18 -18 18 -49zM269 -20q-51 0 -80 44q-28 44 -17 109l139 758q16 92 -47 92q-45 1 -92 -65t-68 -119l-26 10q4 9 10 25q49 127 134 185q38 25 92 25t80 -43t14 -110l-138 -758q-20 -92 45 -92
q45 0 94 68q48 68 64 116l29 -12q-4 -10 -10 -26q-50 -126 -134 -182q-38 -25 -89 -25z" />
    <glyph glyph-name="j" unicode="j" horiz-adv-x="550" 
d="M417 1280q-32 0 -49 18q-18 18 -18 49t25 56t57 25t48 -19q18 -18 18 -49q0 -32 -24 -56t-57 -24zM-105 -362q-89 0 -131 14q8 88 66 180l68 -8q-35 -70 -48 -150q176 0 283 115l195 1102q16 92 -47 92q-45 0 -93 -68t-65 -116l-29 10q4 9 10 25q50 128 135 185
q38 26 78 25q68 0 94 -44t13 -109l-191 -1096q-59 -73 -154 -115t-184 -42z" />
    <glyph glyph-name="k" unicode="k" horiz-adv-x="1103" 
d="M392 600q38 0 67 -4q121 203 200 291q145 158 291 157q79 0 115 -12q-17 -110 -45 -164l-10 -20l-68 6q25 53 37 133q-47 0 -72 -6q-195 -39 -407 -395q90 -29 131 -125l86 -225q68 -188 137 -189q41 0 80 52t57 106l19 53l30 -10q-17 -85 -55 -148q-75 -122 -160 -121
t-130 69q-46 68 -70 136l-90 246q-47 129 -177 129q-16 0 -59 -6l-96 -553h-97l252 1432l-145 10l4 26l238 35h12l-162 -919q49 16 87 16z" />
    <glyph glyph-name="l" unicode="l" horiz-adv-x="546" 
d="M228 -20q-51 0 -80 44q-28 44 -17 109l229 1299l-145 12l4 26l238 33h12l-242 -1370q-12 -92 47 -92q45 0 94 65q48 66 66 119l27 -12q-4 -10 -10 -26q-51 -126 -135 -182q-38 -25 -88 -25z" />
    <glyph glyph-name="m" unicode="m" horiz-adv-x="1828" 
d="M264 983q-45 1 -93 -65t-67 -119l-26 10q4 9 10 25q49 127 134 185q38 25 89 25t78 -43t14 -110l-26 -139l4 -2q66 126 170 210t224 84q121 0 185 -74t48 -218l4 -2q62 126 168 210t230 84t190 -80t38 -235l-104 -596q-16 -92 47 -92q45 0 93 68t65 116l26 -12
q-4 -9 -9 -25q-4 -16 -26 -56q-83 -154 -186 -152q-61 0 -89 44t-17 109l106 608q23 123 -23 183t-143 59q-131 0 -251 -135t-146 -287l-98 -561h-99l131 741q20 123 -24 183q-45 59 -141 59q-131 0 -252 -135t-148 -287l-98 -561h-96l155 891q12 92 -47 92z" />
    <glyph glyph-name="n" unicode="n" horiz-adv-x="1216" 
d="M920 -20q-51 0 -79 44t-16 109l107 608q20 123 -27 183t-145 59q-135 0 -259 -135t-151 -287l-98 -561h-96l155 891q12 92 -47 92q-45 1 -93 -65t-67 -119l-26 10q4 9 10 25q49 127 134 185q38 25 89 25t78 -43t14 -110l-26 -139l4 -2q67 126 175 210t234 84t195 -82
q68 -82 39 -233l-102 -596q-16 -92 45 -92q45 0 94 68t65 116l27 -12q-4 -10 -10 -26q-51 -126 -135 -182q-38 -25 -88 -25z" />
    <glyph glyph-name="o" unicode="o" horiz-adv-x="1073" 
d="M463 25q182 0 303 173t121 437q0 168 -74 266t-199 98q-184 0 -306 -175t-122 -437q0 -166 76 -264t201 -98zM469 -20q-172 0 -280 116t-107 301q0 291 158 469t372 178q170 0 275 -117q104 -118 104 -304q1 -283 -155 -463t-367 -180z" />
    <glyph glyph-name="p" unicode="p" horiz-adv-x="1181" 
d="M528 25q211 0 338 188t127 446q0 160 -65 240q-66 80 -188 80t-241 -129q-118 -129 -143 -270l-84 -469q92 -86 256 -86zM266 983q-45 1 -93 -65t-67 -119l-26 10q4 9 10 25q49 127 137 185q39 25 91 25t79 -44t11 -113l-29 -135l6 -2q63 122 167 208t240 86t222 -101
t86 -269q0 -301 -165 -498t-413 -196q-152 0 -260 69l-61 -342l155 -22l-4 -27h-401l4 27l149 22l209 1184q16 92 -47 92z" />
    <glyph glyph-name="q" unicode="q" horiz-adv-x="1114" 
d="M186 365q0 -158 66 -240t188 -82q123 0 242 135t145 283l78 454q-90 84 -250 84q-213 0 -341 -188t-128 -446zM390 -20q-136 0 -222 100t-86 268q0 301 165 499t412 197q172 0 279 -86l63 78l23 -8l-231 -1321l139 -22l-4 -27h-402l4 27l164 22l68 375l41 190h-6
q-63 -124 -167 -208t-240 -84z" />
    <glyph glyph-name="r" unicode="r" horiz-adv-x="874" 
d="M264 983q-45 0 -93 -67t-67 -117l-26 10q4 10 15 46t66 108q64 81 153 81q52 0 79 -43t12 -110l-34 -170h6q68 133 176 228q109 95 229 95q55 0 80 -10q-17 -147 -57 -203l-12 -22h-60q31 102 31 168q-141 -7 -266 -151t-152 -296l-92 -530h-96l155 891q14 92 -47 92z
" />
    <glyph glyph-name="s" unicode="s" horiz-adv-x="888" 
d="M535 1001q-113 0 -190 -52t-77 -164t131 -160l193 -72q94 -37 144 -103t50 -145q0 -153 -114 -239t-306 -86q-190 0 -323 75q0 109 35 174l10 25l62 -14q-20 -82 -21 -156q107 -61 247 -61q140 1 226 69t86 182q0 141 -147 197l-185 70q-178 70 -178 221q0 104 60 171
t135 89q156 46 356 0q94 -23 111 -23q0 -93 -39 -174l-13 -24l-61 14q20 68 23 141q-102 45 -215 45z" />
    <glyph glyph-name="t" unicode="t" horiz-adv-x="706" 
d="M389 -20q-162 0 -239 106l155 889h-147l6 31l151 18l117 311h35l-55 -311h266l-8 -49h-269l-153 -871q62 -70 168 -70t198 56l15 -24q-125 -86 -240 -86z" />
    <glyph glyph-name="u" unicode="u" horiz-adv-x="1222" 
d="M458 41q146 0 267 134t147 286l99 563h96l-156 -891q-16 -92 47 -92q45 0 94 67q48 67 64 115l27 -10q-4 -10 -15 -44t-66 -108q-64 -81 -150 -81q-50 0 -78 42q-27 42 -17 111l29 139h-6q-63 -124 -169 -208t-229 -84q-211 0 -264 178l133 733q16 92 -47 92
q-43 0 -90 -68t-63 -116l-29 10q95 238 221 235q61 0 89 -45t16 -108l-134 -733q38 -117 184 -117z" />
    <glyph glyph-name="v" unicode="v" horiz-adv-x="1087" 
d="M410 -20q-127 0 -184 86q-56 86 -33 215l106 610q18 92 -47 92q-45 0 -93 -68t-65 -116l-26 10q4 21 29 72t49 82t63 57t91 24q52 0 80 -46t15 -107l-108 -623q-19 -94 11 -166t124 -71q250 0 414 434q76 201 120 463q-35 18 -145 45l41 74q127 -25 176 -64
q-80 -369 -141 -530q-182 -473 -477 -473z" />
    <glyph glyph-name="w" unicode="w" horiz-adv-x="1665" 
d="M252 983q-45 0 -93 -68t-65 -116l-26 10q4 21 29 72t49 82t63 57t91 24q52 0 80 -46t15 -107l-108 -623q-15 -94 11 -166t110 -71q112 0 208 100t152 226q55 126 96 280l62 362l28 25h74l-131 -756q-17 -94 11 -166t112 -71q242 0 403 456q70 195 111 441q-31 14 -150 45
l41 74q133 -29 181 -64q-80 -367 -133 -512q-174 -492 -465 -491q-119 0 -172 85t-33 205l20 117h-2q-167 -407 -411 -407q-134 0 -187 86t-30 215l106 610q18 92 -47 92z" />
    <glyph glyph-name="x" unicode="x" horiz-adv-x="1091" 
d="M854 -20q-72 0 -113 83l-198 392q-81 -157 -191 -293t-221 -185q-78 16 -125 56l43 73q51 -43 103 -53q176 111 366 449l-205 405q-31 59 -65 59q-65 1 -70 -94q-5 -96 2 -155l-28 -4q-27 97 -7 205q9 53 47 90q38 36 100 36t101 -81l187 -369q78 150 179 278t204 172
q78 -16 124 -55l-45 -74q-45 39 -98 52q-94 -57 -187 -183t-155 -235l221 -434q31 -57 64 -57t54 34q21 35 21 110t-6 105l29 2q10 -59 13 -133q4 -74 -34 -135t-110 -61z" />
    <glyph glyph-name="y" unicode="y" horiz-adv-x="1032" 
d="M199 973q-59 0 -81 -84t-12 -139h-30q-18 36 8 169q10 50 50 88t102 37q96 0 118 -100l203 -858h4q61 86 90 133q100 170 184 388q83 218 91 319q-45 29 -117 45l-23 2l50 76q90 -8 151 -58q-8 -135 -92 -367q-164 -453 -461 -774q-135 -144 -262 -212q-41 26 -74 64
t-45 65l-10 24l59 49q47 -86 103 -116q117 66 276 260l-223 923q-16 66 -59 66z" />
    <glyph glyph-name="z" unicode="z" horiz-adv-x="1034" 
d="M154 838q0 82 44 144t127 62t245 -74t206 -75q43 0 72 25l92 104h57v-25l-764 -837q35 10 80 10t193 -54t227 -55q150 0 168 191v80h31q16 -53 16 -119q0 -252 -209 -252q-100 0 -268 80t-220 80t-85 -35l-78 -88h-49v27l745 823q-32 -6 -74 -6t-180 49t-199 49
q-60 0 -93 -43t-37 -108l-2 -95h-27q-18 61 -18 142z" />
    <glyph glyph-name="braceleft" unicode="{" horiz-adv-x="751" 
d="M416 -272q-152 0 -218 83t-22 257l72 292q35 136 3 182t-173 56l6 37q145 10 192 54t62 181l31 293q18 178 104 259t250 81q43 0 113 -8l-7 -35q-176 18 -269 -59q-69 -57 -83 -197l-31 -284q-16 -156 -67 -218t-186 -84v-4q119 -26 151 -92t-4 -211l-70 -284
q-34 -137 12 -195q57 -73 248 -61l-6 -35q-69 -8 -108 -8z" />
    <glyph glyph-name="bar" unicode="|" horiz-adv-x="462" 
d="M260 -342h-55v1825h55v-1825z" />
    <glyph glyph-name="braceright" unicode="}" horiz-adv-x="751" 
d="M336 1503q152 0 218 -83t21 -257l-71 -293q-35 -137 -3 -182t173 -55l-6 -37q-144 -10 -192 -54t-62 -182l-31 -292q-18 -178 -104 -259t-250 -81q-43 0 -113 8l6 35q177 -18 269 59q69 57 83 197l31 284q15 156 67 218t187 83v4q-119 27 -151 93t4 211l69 284
q33 138 -12 196q-57 73 -248 60l6 35q70 8 109 8z" />
    <glyph glyph-name="asciitilde" unicode="~" horiz-adv-x="1234" 
d="M882 543q-74 1 -213 67q-140 66 -216 66q-174 0 -293 -156l-45 37q133 186 346 186q92 -1 235 -67t195 -66q120 1 188 99l43 -35q-38 -55 -102 -93t-138 -38z" />
    <glyph glyph-name="DEL" 
 />
    <glyph glyph-name="uni00A0" unicode="&#xa0;" horiz-adv-x="462" 
 />
    <glyph glyph-name="exclamdown" unicode="&#xa1;" horiz-adv-x="532" 
d="M353 1044q32 0 51 -18q20 -18 20 -49t-26 -57t-58 -25q-32 0 -50 18q-20 18 -20 49q0 30 26 56t57 26zM113 -387q-25 0 -42 13t-20 34l242 1053h20l-129 -1053q-20 -47 -71 -47z" />
    <glyph glyph-name="cent" unicode="&#xa2;" horiz-adv-x="1038" 
d="M223 535q0 -156 71 -244t191 -105l166 942q-184 -23 -306 -185t-122 -408zM123 518q0 276 160 454t376 204l29 153h45l-26 -149h12q109 0 187 -42t106 -79q-16 -68 -35 -101q-20 -34 -33 -55l-12 -20l-64 4q31 74 31 174q-84 72 -194 72h-7l-168 -949h7q182 0 368 217
l19 -20q-156 -264 -406 -266l-22 -135h-45l22 135q-166 12 -258 116t-92 287z" />
    <glyph glyph-name="sterling" unicode="&#xa3;" horiz-adv-x="1216" 
d="M834 1329q104 -1 216 -27t128 -28l-11 -66q-13 -73 -6 -139l-26 -10q-59 59 -70 182q-127 45 -234 45q-158 0 -257 -114t-132 -302l-34 -194h380l-8 -47h-379l-34 -185q-51 -293 -164 -395h680q20 74 55 147t59 107l25 37l29 -6q-41 -125 -66 -258l-12 -76h-991l4 27
l166 22q57 86 116 406l31 174h-195l9 47h194l35 198q37 209 167 332t325 123z" />
    <glyph glyph-name="yen" unicode="&#xa5;" horiz-adv-x="1372" 
d="M199 588l8 47h383l-289 625l-121 22l4 27h391l-8 -27l-149 -22l284 -625h3l516 625l-140 22l4 27h336l-4 -27l-133 -22l-528 -625h403l-8 -47h-432l-23 -137h432l-8 -48h-432l-61 -354l178 -22l-4 -27h-469l6 27l186 22l62 354h-420l8 48h420l22 129l-4 8h-413z" />
    <glyph glyph-name="brokenbar" unicode="&#xa6;" horiz-adv-x="514" 
d="M287 758h-60v725h60v-725zM287 -252h-60v725h60v-725z" />
    <glyph glyph-name="section" unicode="&#xa7;" horiz-adv-x="1122" 
d="M201 582q0 -166 200 -242l250 -96q55 -20 103 -58q131 113 131 279t-201 246l-250 94q-55 20 -102 57q-131 -114 -131 -280zM979 494q0 -199 -203 -326q82 -76 82 -196t-73 -200t-170 -107q-206 -60 -457 2q-119 30 -135 32l12 63q10 62 10 140l-2 22l33 10
q53 -59 63 -194q139 -55 280 -55q141 1 241 65t102 202q0 138 -187 208l-233 94q-115 45 -175 125t-61 176q0 201 203 326q-80 75 -80 195t72 200t169 108t218 27q121 0 240 -30t135 -31l-12 -64q-11 -68 -11 -139l2 -23l-32 -8q-53 57 -64 193q-138 55 -278 55t-242 -65
t-102 -201t186 -209l233 -92q115 -47 175 -127t61 -176z" />
    <glyph glyph-name="dieresis" unicode="&#xa8;" horiz-adv-x="686" 
d="M565 1266q-57 0 -57 56q0 26 22 48t49 23q26 -1 41 -17t15 -43q1 -27 -21 -47t-49 -20zM317 1266q-57 0 -57 56q0 26 23 48t49 23q26 -1 40 -17q15 -16 15 -43q1 -27 -21 -47t-49 -20z" />
    <glyph glyph-name="copyright" unicode="&#xa9;" horiz-adv-x="1646" 
d="M1128 1069q0 -72 15 -139l-29 -8q-45 47 -74 157q-74 31 -161 31q-145 0 -243 -115t-97 -313q0 -198 93 -304t230 -108q184 0 291 174l25 -14q-43 -98 -126 -162t-202 -63q-180 0 -298 122t-118 345t130 352t319 129q71 0 155 -16t90 -17v-51zM850 1376q-280 0 -478 -200
t-198 -482q0 -280 198 -478t478 -198t476 199q198 199 198 479t-198 480t-476 200zM135 694q0 297 209 507t506 210t507 -210t210 -507t-210 -506q-210 -208 -507 -208t-506 208t-209 506z" />
    <glyph glyph-name="ordfeminine" unicode="&#xaa;" horiz-adv-x="708" 
d="M328 836q63 0 123 68q59 69 71 143l35 202q-45 45 -129 45t-144 -88t-60 -229t104 -141zM305 784q-72 0 -116 52t-44 141q0 154 86 253t209 99q82 0 140 -43l38 43l25 -4l-80 -461q-10 -43 25 -43q20 0 44 35t32 57l18 -6q-4 -15 -11 -35t-39 -54t-71 -34t-55 28t-10 65
l10 53h-2q-76 -146 -199 -146z" />
    <glyph glyph-name="guillemotleft" unicode="&#xab;" horiz-adv-x="1017" 
d="M946 948l-366 -428l215 -426h-56l-260 404v43l412 407h55zM549 948l-367 -428l215 -426h-55l-260 404v43l412 407h55z" />
    <glyph glyph-name="logicalnot" unicode="&#xac;" horiz-adv-x="1042" 
d="M115 610v58h815v-469h-60v411h-755z" />
    <glyph glyph-name="registered" unicode="&#xae;" horiz-adv-x="1251" 
d="M696 1153h-123v-276h175q36 12 64 48t28 97t-40 96q-41 35 -104 35zM987 580h-92q-49 16 -100 122l-68 146h-154v-242l70 -12v-14h-209v14l70 12v549l-70 14v15h279q88 0 145 -42t57 -120q0 -113 -118 -162v-2l61 -127q63 -127 129 -137v-14zM691 1376q-206 0 -353 -148
q-148 -148 -148 -356t148 -355q148 -148 353 -148q206 0 352 148t147 355q0 208 -146 356t-353 148zM154 872q0 223 156 381q157 158 380 158t381 -158t158 -381q0 -224 -158 -380t-381 -156q-224 0 -380 156t-156 380z" />
    <glyph glyph-name="macron" unicode="&#xaf;" horiz-adv-x="700" 
d="M141 1286l9 53h475l-9 -53h-475z" />
    <glyph glyph-name="degree" unicode="&#xb0;" horiz-adv-x="669" 
d="M190 1075q0 -88 58 -149q58 -62 141 -62q82 0 140 62t59 149q0 89 -58 151t-141 62t-141 -62t-58 -151zM141 1075q0 104 73 179t174 75t175 -75t74 -179t-74 -178t-176 -74t-174 74t-72 178z" />
    <glyph glyph-name="plusminus" unicode="&#xb1;" horiz-adv-x="1042" 
d="M115 55v58h815v-58h-815zM115 598v57h377v359h59v-359h379v-57h-379v-358h-59v358h-377z" />
    <glyph glyph-name="twosuperior" unicode="&#xb2;" horiz-adv-x="804" 
d="M604 1152q0 58 -34 87t-91 29q-119 0 -215 -127l-24 14q106 174 264 174q84 0 132 -42q48 -43 48 -111q0 -135 -149 -253q-106 -85 -269 -184q-6 -4 -10 -6t-9 -5t-9 -5v-2h348q25 73 71 123l23 -2q-27 -57 -41 -133l-8 -45h-498l2 30q353 223 430 341q39 59 39 117z" />
    <glyph glyph-name="threesuperior" unicode="&#xb3;" horiz-adv-x="757" 
d="M561 1184q0 42 -31 66t-88 24t-112 -32t-86 -77l-23 9q33 63 98 109q66 46 149 46t127 -35q44 -36 44 -100t-45 -102t-119 -60v-2q139 -31 139 -140t-80 -172q-81 -62 -206 -63q-62 1 -120 17t-79 39q11 70 48 113q11 13 13 14h25q-2 0 -10 -44t-10 -71q45 -33 137 -33
t148 49t57 140q0 117 -179 127l13 28q74 4 132 41t58 109z" />
    <glyph glyph-name="acute" unicode="&#xb4;" horiz-adv-x="593" 
d="M473 1448h10l52 -68l-332 -225l-19 23z" />
    <glyph glyph-name="mu" unicode="&#xb5;" horiz-adv-x="1222" 
d="M436 -20q-131 0 -203 77l-43 -399h-100l217 1233q16 92 -47 92q-45 0 -92 -68t-64 -116l-28 10q4 9 10 25q49 127 134 185q38 25 89 25t79 -45t15 -108l-129 -733q42 -117 186 -117t265 134t147 286l99 563h96l-154 -891q-16 -92 45 -92q45 0 95 67q49 67 65 115l27 -10
q-4 -10 -15 -44t-66 -108q-64 -81 -154 -81q-52 0 -77 43q-26 43 -14 110l29 139h-6q-66 -125 -170 -209q-105 -83 -236 -83z" />
    <glyph glyph-name="paragraph" unicode="&#xb6;" horiz-adv-x="1042" 
d="M204 -362q-88 0 -118 18q0 49 23 101t43 79l22 27l47 -8q-4 -13 -11 -31t-17 -64t-5 -73q357 -29 430 374l236 1330h233l-4 -27l-168 -23l-225 -1271q-47 -270 -188 -357q-123 -75 -298 -75zM82 811q0 254 185 417q186 163 462 163l-180 -1024q-227 -2 -347 125t-120 319
z" />
    <glyph glyph-name="periodcentered" unicode="&#xb7;" horiz-adv-x="378" 
d="M171 485q-32 1 -51 19q-20 18 -20 49t26 57t58 25t50 -19q20 -18 20 -49t-26 -57t-57 -25z" />
    <glyph glyph-name="cedilla" unicode="&#xb8;" horiz-adv-x="563" 
d="M285 -226q1 -60 -55 -99q-56 -37 -150 -37t-160 55l21 24q55 -41 127 -41t110 27t37 70q0 92 -160 125v6l99 110h47l-80 -90q164 -29 164 -150z" />
    <glyph glyph-name="onesuperior" unicode="&#xb9;" horiz-adv-x="622" 
d="M338 1243q-87 0 -129 14l2 21q152 6 229 47l27 -12l-109 -611l146 -16l-4 -22h-367l4 22l146 16l94 541h-39z" />
    <glyph glyph-name="ordmasculine" unicode="&#xba;" horiz-adv-x="651" 
d="M549 1100q0 194 -129 194q-86 0 -142 -90t-56 -190t34 -145q35 -46 94 -46q88 0 144 88q55 89 55 189zM623 1108q0 -143 -79 -232q-78 -90 -182 -90t-160 58t-57 162q0 145 81 234q82 89 184 89q102 -1 158 -61t55 -160z" />
    <glyph glyph-name="guillemotright" unicode="&#xbb;" horiz-adv-x="1017" 
d="M430 94l367 428l-215 426h55l260 -403v-43l-412 -408h-55zM33 94l366 428l-215 426h56l260 -403v-43l-412 -408h-55z" />
    <glyph glyph-name="onequarter" unicode="&#xbc;" horiz-adv-x="1257" 
d="M233 0h-59l913 1309h54zM336 1243q-80 0 -129 14l2 21q152 6 229 47l27 -12l-109 -611l146 -16l-4 -22h-367l4 22l146 16l94 541h-39zM944 569l-328 -364h269l63 364h-4zM553 170l4 20l420 463h61l-77 -448h83l-6 -35h-84l-24 -135l76 -17l-5 -18h-235l4 18l84 17l25 135
h-326z" />
    <glyph glyph-name="onehalf" unicode="&#xbd;" horiz-adv-x="1294" 
d="M229 0h-59l913 1309h54zM336 1243q-80 0 -129 14l2 21q152 6 229 47l27 -12l-109 -611l146 -16l-4 -22h-367l4 22l146 16l94 541h-39zM1092 490q0 58 -34 86t-91 28q-119 0 -215 -127l-25 15q106 174 264 174q84 0 132 -42t48 -111q0 -135 -149 -254q-104 -83 -196 -138
t-101 -62v-2h348q27 78 72 123l22 -2q-27 -57 -41 -133l-8 -45h-497l2 31q353 223 430 341q39 60 39 118z" />
    <glyph glyph-name="threequarters" unicode="&#xbe;" horiz-adv-x="1294" 
d="M272 0h-59l913 1309h54zM561 1184q0 42 -31 66t-88 24t-112 -32t-86 -77l-23 9q33 63 98 109q66 46 149 46t127 -35q44 -36 44 -100t-45 -102t-119 -60v-2q139 -31 139 -140t-80 -172q-81 -62 -206 -63q-62 1 -120 17t-79 39q11 70 48 113q11 13 13 14h25q-2 0 -10 -44
t-10 -71q45 -33 137 -33t148 49t57 140q0 117 -179 127l13 28q74 4 132 41t58 109zM979 569l-330 -364h271l63 364h-4zM588 170l2 20l420 463h63l-78 -448h82l-6 -35h-82l-24 -135l73 -17l-2 -18h-235l2 18l86 17l22 135h-323z" />
    <glyph glyph-name="questiondown" unicode="&#xbf;" horiz-adv-x="987" 
d="M703 1044q31 0 48 -18t17 -49t-28 -57t-58 -25q-30 0 -48 18q-18 17 -18 49t28 57t59 25zM370 -387q-155 0 -256 80t-102 219q0 100 36 184t92 140q160 161 431 198l66 279h20l-34 -357q-246 -31 -383 -150q-53 -46 -90 -124t-37 -188t81 -172q82 -62 232 -62t264 94
q29 80 23 156l-2 27l73 10q9 -24 14 -83q5 -60 -10 -100q-57 -57 -160 -104t-258 -47z" />
    <glyph glyph-name="Agrave" unicode="&#xc0;" horiz-adv-x="1341" 
d="M524 1804h11l288 -270l-18 -23l-332 226zM735 1249h-2l-393 -714h553zM-127 0l4 27l133 22l750 1350l41 12l307 -1362l125 -22l-4 -27h-387l4 27l155 22l-96 438h-590l-239 -438l143 -22l-4 -27h-342z" />
    <glyph glyph-name="Aacute" unicode="&#xc1;" horiz-adv-x="1341" 
d="M1063 1804h10l51 -67l-331 -226l-19 23zM735 1249h-2l-393 -714h553zM-127 0l4 27l133 22l750 1350l41 12l307 -1362l125 -22l-4 -27h-387l4 27l155 22l-96 438h-590l-239 -438l143 -22l-4 -27h-342z" />
    <glyph glyph-name="Acircumflex" unicode="&#xc2;" horiz-adv-x="1341" 
d="M852 1798l182 -258l-22 -20l-195 196l-264 -196l-16 20l274 258h41zM735 1249h-2l-393 -714h553zM-127 0l4 27l133 22l750 1350l41 12l307 -1362l125 -22l-4 -27h-387l4 27l155 22l-96 438h-590l-239 -438l143 -22l-4 -27h-342z" />
    <glyph glyph-name="Atilde" unicode="&#xc3;" horiz-adv-x="1341" 
d="M657 1769q74 0 161 -46t134 -46q66 25 133 121l19 -10q-76 -182 -186 -182q-54 0 -144 48t-149 50q-76 -22 -166 -139l-21 10q29 74 87 134t132 60zM735 1249h-2l-393 -714h553zM-127 0l4 27l133 22l750 1350l41 12l307 -1362l125 -22l-4 -27h-387l4 27l155 22l-96 438
h-590l-239 -438l143 -22l-4 -27h-342z" />
    <glyph glyph-name="Adieresis" unicode="&#xc4;" horiz-adv-x="1341" 
d="M913 1622q-57 0 -57 56q0 26 23 48t49 23q26 0 40 -16q15 -16 15 -43t-21 -48q-22 -20 -49 -20zM735 1690q0 -28 -21 -48t-48 -20t-42 15q-16 15 -16 41t23 48t49 23q26 0 40 -16q15 -16 15 -43zM735 1249h-2l-393 -714h553zM-127 0l4 27l133 22l750 1350l41 12
l307 -1362l125 -22l-4 -27h-387l4 27l155 22l-96 438h-590l-239 -438l143 -22l-4 -27h-342z" />
    <glyph glyph-name="Aring" unicode="&#xc5;" horiz-adv-x="1341" 
d="M793 1524q59 0 96 40t37 107q0 96 -95 96q-61 0 -98 -41t-37 -104q1 -98 97 -98zM826 1800q82 0 124 -39t41 -111q0 -72 -56 -115q-56 -44 -136 -44t-124 37q-44 36 -44 108t57 118q56 46 138 46zM735 1249h-2l-393 -714h553zM-127 0l4 27l133 22l750 1350l41 12
l307 -1362l125 -22l-4 -27h-387l4 27l155 22l-96 438h-590l-239 -438l143 -22l-4 -27h-342z" />
    <glyph glyph-name="AE" unicode="&#xc6;" horiz-adv-x="1904" 
d="M1030 1337h-4l-590 -809h451zM1774 1341h-641l-107 -608l553 6l45 133h33l-58 -323h-28l-2 133l-551 6l-113 -639h682q46 137 117 252l22 39l29 -6q-39 -119 -65 -266l-11 -68h-1048l4 27l168 22l76 434h-476l-317 -434l143 -22l-4 -27h-342l4 27l127 22l983 1342h885
l-10 -50q-18 -114 -25 -231v-35l-35 -8q-38 114 -38 274z" />
    <glyph glyph-name="Ccedilla" unicode="&#xc7;" horiz-adv-x="1257" 
d="M487 -76q164 -28 164 -150q0 -60 -55 -99q-56 -37 -150 -37t-159 55l20 24q55 -41 127 -41t110 27t38 70q0 92 -160 125v6l78 88q-178 38 -286 188t-108 366t65 380q121 306 407 429q131 56 259 56t257 -26t141 -25l-10 -62q-17 -108 -17 -184v-29l-30 -6q-47 70 -64 234
q-123 51 -289 51q-242 0 -423 -214t-181 -568q0 -246 118 -386t304 -141q274 0 471 277l27 -15q-88 -149 -221 -243t-304 -94q-39 0 -75 6z" />
    <glyph glyph-name="Egrave" unicode="&#xc8;" horiz-adv-x="1226" 
d="M518 1804h10l289 -270l-18 -23l-332 226zM1096 1341h-641l-107 -608l549 6l51 133h31l-57 -325h-27l-8 135l-547 6l-113 -639h682q52 144 119 254l23 37l26 -6q-43 -135 -67 -273l-11 -61h-1048l4 27l168 22l229 1292l-157 23l4 27h1005l-10 -50q-11 -78 -23 -227l-2 -39
l-36 -6q-37 111 -37 272z" />
    <glyph glyph-name="Eacute" unicode="&#xc9;" horiz-adv-x="1226" 
d="M1096 1341h-641l-107 -608l549 6l51 133h31l-57 -325h-27l-8 135l-547 6l-113 -639h682q52 144 119 254l23 37l26 -6q-43 -135 -67 -273l-11 -61h-1048l4 27l168 22l229 1292l-157 23l4 27h1005l-10 -50q-11 -78 -23 -227l-2 -39l-36 -6q-37 111 -37 272zM983 1804h10
l51 -67l-331 -226l-19 23z" />
    <glyph glyph-name="Ecircumflex" unicode="&#xca;" horiz-adv-x="1226" 
d="M1096 1341h-641l-107 -608l549 6l51 133h31l-57 -325h-27l-8 135l-547 6l-113 -639h682q52 144 119 254l23 37l26 -6q-43 -135 -67 -273l-11 -61h-1048l4 27l168 22l229 1292l-157 23l4 27h1005l-10 -50q-11 -78 -23 -227l-2 -39l-36 -6q-37 111 -37 272zM844 1798
l182 -258l-22 -20l-195 196l-264 -196l-17 20l275 258h41z" />
    <glyph glyph-name="Edieresis" unicode="&#xcb;" horiz-adv-x="1226" 
d="M1096 1341h-641l-107 -608l549 6l51 133h31l-57 -325h-27l-8 135l-547 6l-113 -639h682q52 144 119 254l23 37l26 -6q-43 -135 -67 -273l-11 -61h-1048l4 27l168 22l229 1292l-157 23l4 27h1005l-10 -50q-11 -78 -23 -227l-2 -39l-36 -6q-37 111 -37 272zM866 1622
q-57 0 -57 56q1 26 23 48t48 23q26 0 41 -16t15 -43q0 -28 -22 -48t-48 -20zM618 1622q-28 0 -42 15t-14 41t22 48t48 23q26 0 41 -16t15 -43t-21 -48q-22 -20 -49 -20z" />
    <glyph glyph-name="Igrave" unicode="&#xcc;" horiz-adv-x="577" 
d="M186 1804h11l288 -270l-18 -23l-332 226zM-49 0l4 27l168 22l229 1292l-157 23l4 27h428l-4 -27l-168 -23l-228 -1292l158 -22l-4 -27h-430z" />
    <glyph glyph-name="Iacute" unicode="&#xcd;" horiz-adv-x="577" 
d="M674 1804h10l51 -67l-332 -226l-18 23zM-49 0l4 27l168 22l229 1292l-157 23l4 27h428l-4 -27l-168 -23l-228 -1292l158 -22l-4 -27h-430z" />
    <glyph glyph-name="Icircumflex" unicode="&#xce;" horiz-adv-x="577" 
d="M502 1798l182 -258l-22 -20l-195 196l-264 -196l-17 20l275 258h41zM-49 0l4 27l168 22l229 1292l-157 23l4 27h428l-4 -27l-168 -23l-228 -1292l158 -22l-4 -27h-430z" />
    <glyph glyph-name="Idieresis" unicode="&#xcf;" horiz-adv-x="577" 
d="M573 1622q-57 0 -57 56q0 26 23 48t49 23q26 0 40 -16q15 -16 15 -43t-21 -48q-22 -20 -49 -20zM395 1690q0 -28 -21 -48t-48 -20t-42 15q-16 15 -16 41t23 48t49 23q26 0 40 -16q15 -16 15 -43zM-49 0l4 27l168 22l229 1292l-157 23l4 27h428l-4 -27l-168 -23
l-228 -1292l158 -22l-4 -27h-430z" />
    <glyph glyph-name="Eth" unicode="&#xd0;" horiz-adv-x="1417" 
d="M741 1341h-288l-99 -565h369l-10 -49h-367l-119 -676h318q127 0 245 54q248 113 355 397q55 147 55 319q0 238 -128 379t-331 141zM750 1391q248 0 404 -151t157 -406q0 -256 -115 -448t-290 -289t-371 -97h-584l4 27l168 22l121 678h-205l8 49h205l100 565l-157 23l4 27
h551z" />
    <glyph glyph-name="Ntilde" unicode="&#xd1;" horiz-adv-x="1435" 
d="M1018 1575q-54 0 -144 48t-149 50q-76 -22 -166 -139l-20 10q29 74 87 134q108 112 293 15q87 -46 134 -46q66 25 133 120l18 -10q-76 -182 -186 -182zM1042 0l-649 1280l-215 -1231l158 -22l-4 -27h-381l4 27l168 22l227 1292l-155 23l4 27h258l606 -1207l203 1157
l-156 23l4 27h379l-4 -27l-166 -23l-238 -1341h-43z" />
    <glyph glyph-name="Ograve" unicode="&#xd2;" horiz-adv-x="1423" 
d="M573 1804h11l288 -270l-18 -23l-332 226zM612 27q238 0 414 231t176 586q0 238 -108 380q-109 142 -281 142q-240 0 -417 -231t-177 -588q-1 -238 109 -379t284 -141zM614 -20q-221 0 -364 156t-144 415q0 195 60 361t162 273q100 108 226 167t261 59q221 0 361 -157
t141 -418q-1 -193 -61 -357q-115 -311 -385 -439q-126 -60 -257 -60z" />
    <glyph glyph-name="Oacute" unicode="&#xd3;" horiz-adv-x="1423" 
d="M612 27q238 0 414 231t176 586q0 238 -108 380q-109 142 -281 142q-240 0 -417 -231t-177 -588q-1 -238 109 -379t284 -141zM614 -20q-221 0 -364 156t-144 415q0 195 60 361t162 273q100 108 226 167t261 59q221 0 361 -157t141 -418q-1 -193 -61 -357
q-115 -311 -385 -439q-126 -60 -257 -60zM1092 1804h10l51 -67l-332 -226l-18 23z" />
    <glyph glyph-name="Ocircumflex" unicode="&#xd4;" horiz-adv-x="1423" 
d="M612 27q238 0 414 231t176 586q0 238 -108 380q-109 142 -281 142q-240 0 -417 -231t-177 -588q-1 -238 109 -379t284 -141zM614 -20q-221 0 -364 156t-144 415q0 195 60 361t162 273q100 108 226 167t261 59q221 0 361 -157t141 -418q-1 -193 -61 -357
q-115 -311 -385 -439q-126 -60 -257 -60zM893 1798l182 -258l-22 -20l-195 196l-264 -196l-16 20l274 258h41z" />
    <glyph glyph-name="Otilde" unicode="&#xd5;" horiz-adv-x="1423" 
d="M700 1769q74 0 161 -46t134 -46q66 25 133 121l19 -10q-76 -182 -186 -182q-55 0 -145 48t-148 50q-76 -22 -166 -139l-21 10q29 74 87 134t132 60zM612 27q238 0 414 231t176 586q0 238 -108 380q-109 142 -281 142q-240 0 -417 -231t-177 -588q-1 -238 109 -379
t284 -141zM614 -20q-221 0 -364 156t-144 415q0 195 60 361t162 273q100 108 226 167t261 59q221 0 361 -157t141 -418q-1 -193 -61 -357q-115 -311 -385 -439q-126 -60 -257 -60z" />
    <glyph glyph-name="Odieresis" unicode="&#xd6;" horiz-adv-x="1423" 
d="M612 27q238 0 414 231t176 586q0 238 -108 380q-109 142 -281 142q-240 0 -417 -231t-177 -588q-1 -238 109 -379t284 -141zM614 -20q-221 0 -364 156t-144 415q0 195 60 361t162 273q100 108 226 167t261 59q221 0 361 -157t141 -418q-1 -193 -61 -357
q-115 -311 -385 -439q-126 -60 -257 -60zM1036 1690q0 -28 -21 -48t-48 -20t-42 15t-15 41t22 48t48 23q26 0 41 -16t15 -43zM719 1622q-57 0 -57 56q0 26 22 48t48 23q26 0 41 -16t15 -43q0 -28 -21 -48t-48 -20z" />
    <glyph glyph-name="multiply" unicode="&#xd7;" horiz-adv-x="845" 
d="M156 301l-41 41l266 266l-266 269l41 41l266 -269l270 271l39 -43l-268 -269l270 -268l-41 -41l-270 268z" />
    <glyph glyph-name="Oslash" unicode="&#xd8;" horiz-adv-x="1423" 
d="M612 27q238 0 414 231t176 586q0 174 -63 305l-834 -950q108 -172 307 -172zM219 547q0 -182 64 -309l833 950q-111 178 -303 178q-240 0 -417 -232t-177 -587zM106 534q0 212 60 378t162 273q100 108 226 167t261 59q223 0 361 -156l137 156h55l-166 -188
q115 -154 115 -367q-1 -213 -61 -377q-115 -311 -385 -439q-126 -60 -257 -60q-223 0 -366 155l-135 -155h-58l166 188q-115 154 -115 366z" />
    <glyph glyph-name="Ugrave" unicode="&#xd9;" horiz-adv-x="1421" 
d="M610 1804h11l288 -270l-18 -23l-332 226zM602 -20q-186 0 -308 76q-120 76 -140 220l188 1065l-158 23l4 27h426l-4 -27l-166 -23l-174 -985q-24 -147 72 -232t268 -85t308 91q135 91 161 243l170 968l-157 23l4 27h383l-4 -27l-168 -23l-183 -1040q-64 -153 -200 -237
t-322 -84z" />
    <glyph glyph-name="Uacute" unicode="&#xda;" horiz-adv-x="1421" 
d="M602 -20q-186 0 -308 76q-120 76 -140 220l188 1065l-158 23l4 27h426l-4 -27l-166 -23l-174 -985q-24 -147 72 -232t268 -85t308 91q135 91 161 243l170 968l-157 23l4 27h383l-4 -27l-168 -23l-183 -1040q-64 -153 -200 -237t-322 -84zM1143 1804h10l51 -67l-332 -226
l-18 23z" />
    <glyph glyph-name="Ucircumflex" unicode="&#xdb;" horiz-adv-x="1421" 
d="M602 -20q-186 0 -308 76q-120 76 -140 220l188 1065l-158 23l4 27h426l-4 -27l-166 -23l-174 -985q-24 -147 72 -232t268 -85t308 91q135 91 161 243l170 968l-157 23l4 27h383l-4 -27l-168 -23l-183 -1040q-64 -153 -200 -237t-322 -84zM938 1798l182 -258l-22 -20
l-195 196l-264 -196l-16 20l274 258h41z" />
    <glyph glyph-name="Udieresis" unicode="&#xdc;" horiz-adv-x="1421" 
d="M602 -20q-186 0 -308 76q-120 76 -140 220l188 1065l-158 23l4 27h426l-4 -27l-166 -23l-174 -985q-24 -147 72 -232t268 -85t308 91q135 91 161 243l170 968l-157 23l4 27h383l-4 -27l-168 -23l-183 -1040q-64 -153 -200 -237t-322 -84zM987 1622q-57 0 -57 56
q0 26 22 48t49 23q27 0 41 -16t14 -43q0 -28 -20 -48q-22 -20 -49 -20zM739 1622q-57 0 -57 56q0 26 23 48t49 23q26 0 40 -16q15 -16 15 -43q1 -28 -21 -48t-49 -20z" />
    <glyph glyph-name="Yacute" unicode="&#xdd;" horiz-adv-x="1280" 
d="M1030 1804h10l52 -67l-332 -226l-19 23zM279 0l4 27l186 22l94 535l-342 757l-121 23l4 27h385l-4 -27l-149 -23l309 -702h2l574 702l-138 23l4 27h334l-4 -27l-133 -23l-616 -755l-95 -537l177 -22l-5 -27h-466z" />
    <glyph glyph-name="Thorn" unicode="&#xde;" horiz-adv-x="1206" 
d="M594 279q-98 0 -158 18l4 25h127q207 2 341 114t134 320q0 150 -96 232t-268 83h-268l-181 -1022l166 -22l-4 -27h-436l4 27l166 22l229 1292l-157 23l4 27h428l-4 -27l-168 -23l-39 -221h272q209 0 336 -96t127 -270q1 -229 -161 -352t-398 -123z" />
    <glyph glyph-name="germandbls" unicode="&#xdf;" horiz-adv-x="1193" 
d="M829 1503q123 0 207 -63q84 -62 84 -154t-58 -161t-128 -109t-128 -102t-58 -136t96 -139l139 -102q150 -105 150 -243q-1 -138 -103 -226t-247 -88t-238 59q0 103 37 174l12 23l61 -15q-23 -80 -26 -160q72 -35 172 -35t170 68q69 66 69 173t-125 192l-112 80
q-133 94 -133 211t124 220l104 84q124 100 124 208q0 84 -60 138t-161 54q-143 0 -241 -101t-134 -315l-176 -1018q-31 -190 -120 -286t-220 -96q-63 0 -150 36q4 67 56 158l12 21l66 -9l-13 -28q-31 -90 -35 -131q55 -6 58 -7q193 0 246 324l165 967h-155l6 35l156 14l6 31
q37 209 175 331t326 123z" />
    <glyph glyph-name="agrave" unicode="&#xe0;" horiz-adv-x="1163" 
d="M446 1448h11l288 -270l-18 -23l-332 225zM186 365q0 -158 64 -239t182 -81q119 0 237 136t144 284l76 424q-29 41 -92 76t-162 34q-189 0 -319 -190t-130 -444zM395 -20q-149 0 -231 98t-82 264q0 301 166 502t397 200q162 0 268 -90l74 90l25 -8l-160 -903
q-14 -92 49 -92q45 0 93 67t65 115l26 -10q-4 -22 -29 -71q-25 -50 -49 -81t-63 -57t-91 -24q-52 0 -81 45t-12 116l26 131h-4q-66 -120 -169 -206t-218 -86z" />
    <glyph glyph-name="aacute" unicode="&#xe1;" horiz-adv-x="1163" 
d="M956 1448h11l51 -68l-332 -225l-18 23zM186 365q0 -158 64 -239t182 -81q119 0 237 136t144 284l76 424q-29 41 -92 76t-162 34q-189 0 -319 -190t-130 -444zM395 -20q-149 0 -231 98t-82 264q0 301 166 502t397 200q162 0 268 -90l74 90l25 -8l-160 -903q-14 -92 49 -92
q45 0 93 67t65 115l26 -10q-4 -22 -29 -71q-25 -50 -49 -81t-63 -57t-91 -24q-52 0 -81 45t-12 116l26 131h-4q-66 -120 -169 -206t-218 -86z" />
    <glyph glyph-name="acircumflex" unicode="&#xe2;" horiz-adv-x="1163" 
d="M735 1442l183 -258l-23 -21l-195 197l-264 -197l-16 21l274 258h41zM186 365q0 -158 64 -239t182 -81q119 0 237 136t144 284l76 424q-29 41 -92 76t-162 34q-189 0 -319 -190t-130 -444zM395 -20q-149 0 -231 98t-82 264q0 301 166 502t397 200q162 0 268 -90l74 90
l25 -8l-160 -903q-14 -92 49 -92q45 0 93 67t65 115l26 -10q-4 -22 -29 -71q-25 -50 -49 -81t-63 -57t-91 -24q-52 0 -81 45t-12 116l26 131h-4q-66 -120 -169 -206t-218 -86z" />
    <glyph glyph-name="atilde" unicode="&#xe3;" horiz-adv-x="1163" 
d="M562 1413q74 0 162 -46t134 -46q66 25 133 121l19 -10q-76 -182 -187 -183q-55 0 -144 48t-149 51q-75 -23 -165 -140l-21 11q29 74 87 134q57 60 131 60zM186 365q0 -158 64 -239t182 -81q119 0 237 136t144 284l76 424q-29 41 -92 76t-162 34q-189 0 -319 -190
t-130 -444zM395 -20q-149 0 -231 98t-82 264q0 301 166 502t397 200q162 0 268 -90l74 90l25 -8l-160 -903q-14 -92 49 -92q45 0 93 67t65 115l26 -10q-4 -22 -29 -71q-25 -50 -49 -81t-63 -57t-91 -24q-52 0 -81 45t-12 116l26 131h-4q-66 -120 -169 -206t-218 -86z" />
    <glyph glyph-name="adieresis" unicode="&#xe4;" horiz-adv-x="1163" 
d="M825 1266q-57 0 -57 56q0 26 23 48t49 23q26 -1 40 -17q15 -16 15 -43q1 -27 -21 -47t-49 -20zM577 1266q-27 0 -41 15t-16 41q0 26 23 48t49 23q26 -1 40 -17q15 -16 15 -43q1 -27 -21 -47t-49 -20zM186 365q0 -158 64 -239t182 -81q119 0 237 136t144 284l76 424
q-29 41 -92 76t-162 34q-189 0 -319 -190t-130 -444zM395 -20q-149 0 -231 98t-82 264q0 301 166 502t397 200q162 0 268 -90l74 90l25 -8l-160 -903q-14 -92 49 -92q45 0 93 67t65 115l26 -10q-4 -22 -29 -71q-25 -50 -49 -81t-63 -57t-91 -24q-52 0 -81 45t-12 116l26 131
h-4q-66 -120 -169 -206t-218 -86z" />
    <glyph glyph-name="aring" unicode="&#xe5;" horiz-adv-x="1163" 
d="M680 1198q59 0 96 40t37 108q0 96 -94 96q-61 0 -98 -41t-37 -105q0 -98 96 -98zM518 1311q0 71 57 117t139 46t123 -38q42 -40 42 -112q-1 -72 -57 -115q-56 -44 -136 -44t-124 37t-44 109zM186 365q0 -158 64 -239t182 -81q119 0 237 136t144 284l76 424q-29 41 -92 76
t-162 34q-189 0 -319 -190t-130 -444zM395 -20q-149 0 -231 98t-82 264q0 301 166 502t397 200q162 0 268 -90l74 90l25 -8l-160 -903q-14 -92 49 -92q45 0 93 67t65 115l26 -10q-4 -22 -29 -71q-25 -50 -49 -81t-63 -57t-91 -24q-52 0 -81 45t-12 116l26 131h-4
q-66 -120 -169 -206t-218 -86z" />
    <glyph glyph-name="ae" unicode="&#xe6;" horiz-adv-x="1654" 
d="M1286 999q-156 0 -274 -137t-144 -368q365 -4 539 142q94 79 94 195q0 80 -58 124q-59 44 -157 44zM760 377q0 313 180 504q-104 119 -300 119t-324 -191q-128 -190 -128 -444q0 -158 64 -239t166 -81t195 85t147 204v43zM1124 -20q-145 0 -237 74t-119 214h-2
q-60 -120 -160 -204t-209 -84q-151 0 -233 99t-82 263q0 301 167 502q167 200 386 200t354 -116q135 117 307 116q140 0 220 -58t79 -157q1 -176 -207 -276t-524 -96q-2 -23 -2 -68q0 -168 75 -256t198 -88t207 56t165 155l23 -16q-164 -260 -406 -260z" />
    <glyph glyph-name="ccedilla" unicode="&#xe7;" horiz-adv-x="968" 
d="M360 -76q164 -28 164 -150q0 -60 -55 -99q-55 -37 -149 -37t-160 55l20 24q55 -41 127 -41t110 27t38 70q0 92 -160 125v6l72 82q-137 23 -211 125t-74 272q0 299 169 480t390 181q109 0 187 -38t106 -74q-11 -92 -72 -184l-63 10q31 74 39 166q-27 18 -36 25
q-64 50 -177 50q-186 0 -315 -163q-128 -164 -128 -426q0 -176 78 -268t219 -93q205 0 361 262l26 -14q-141 -319 -413 -320q-27 0 -45 3z" />
    <glyph glyph-name="egrave" unicode="&#xe8;" horiz-adv-x="970" 
d="M397 1448h11l288 -270l-18 -23l-332 225zM602 999q-156 0 -274 -137t-144 -368q362 -4 540 142q95 79 95 195q0 80 -58 124q-59 44 -159 44zM440 -20q-170 0 -264 103t-94 294q0 297 159 482t371 185q138 0 220 -58t81 -157q-1 -176 -209 -276t-524 -96q-2 -23 -2 -68
q0 -168 76 -256t198 -88t206 56t165 155l23 -16q-164 -260 -406 -260z" />
    <glyph glyph-name="eacute" unicode="&#xe9;" horiz-adv-x="970" 
d="M602 999q-156 0 -274 -137t-144 -368q362 -4 540 142q95 79 95 195q0 80 -58 124q-59 44 -159 44zM440 -20q-170 0 -264 103t-94 294q0 297 159 482t371 185q138 0 220 -58t81 -157q-1 -176 -209 -276t-524 -96q-2 -23 -2 -68q0 -168 76 -256t198 -88t206 56t165 155
l23 -16q-164 -260 -406 -260zM918 1448h10l51 -68l-332 -225l-18 23z" />
    <glyph glyph-name="ecircumflex" unicode="&#xea;" horiz-adv-x="970" 
d="M602 999q-156 0 -274 -137t-144 -368q362 -4 540 142q95 79 95 195q0 80 -58 124q-59 44 -159 44zM440 -20q-170 0 -264 103t-94 294q0 297 159 482t371 185q138 0 220 -58t81 -157q-1 -176 -209 -276t-524 -96q-2 -23 -2 -68q0 -168 76 -256t198 -88t206 56t165 155
l23 -16q-164 -260 -406 -260zM682 1442l182 -258l-22 -21l-195 197l-264 -197l-16 21l274 258h41z" />
    <glyph glyph-name="edieresis" unicode="&#xeb;" horiz-adv-x="970" 
d="M602 999q-156 0 -274 -137t-144 -368q362 -4 540 142q95 79 95 195q0 80 -58 124q-59 44 -159 44zM440 -20q-170 0 -264 103t-94 294q0 297 159 482t371 185q138 0 220 -58t81 -157q-1 -176 -209 -276t-524 -96q-2 -23 -2 -68q0 -168 76 -256t198 -88t206 56t165 155
l23 -16q-164 -260 -406 -260zM745 1266q-57 0 -57 56q0 26 23 48t49 23q26 -1 40 -17q15 -16 15 -43q1 -27 -21 -47t-49 -20zM498 1266q-27 0 -42 15q-16 15 -16 41t23 48t49 23q26 -1 40 -17q15 -16 15 -43t-21 -47t-48 -20z" />
    <glyph glyph-name="igrave" unicode="&#xec;" horiz-adv-x="581" 
d="M100 1448h11l288 -270l-18 -23l-332 225zM266 -20q-51 0 -79 44t-15 109l139 758q16 92 -47 92q-45 1 -92 -65t-68 -119l-26 10q4 9 10 25q49 127 134 185q38 25 92 25t80 -43t14 -110l-140 -758q-20 -92 47 -92q45 0 93 68q47 68 63 116l29 -12q-40 -100 -73 -141
q-34 -42 -72 -67t-89 -25z" />
    <glyph glyph-name="iacute" unicode="&#xed;" horiz-adv-x="581" 
d="M266 -20q-51 0 -79 44t-15 109l139 758q16 92 -47 92q-45 1 -92 -65t-68 -119l-26 10q4 9 10 25q49 127 134 185q38 25 92 25t80 -43t14 -110l-140 -758q-20 -92 47 -92q45 0 93 68q47 68 63 116l29 -12q-40 -100 -73 -141q-34 -42 -72 -67t-89 -25zM600 1448h10l52 -68
l-332 -225l-19 23z" />
    <glyph glyph-name="icircumflex" unicode="&#xee;" horiz-adv-x="581" 
d="M266 -20q-51 0 -79 44t-15 109l139 758q16 92 -47 92q-45 1 -92 -65t-68 -119l-26 10q4 9 10 25q49 127 134 185q38 25 92 25t80 -43t14 -110l-140 -758q-20 -92 47 -92q45 0 93 68q47 68 63 116l29 -12q-40 -100 -73 -141q-34 -42 -72 -67t-89 -25zM399 1442l183 -258
l-23 -21l-194 197l-265 -197l-16 21l274 258h41z" />
    <glyph glyph-name="idieresis" unicode="&#xef;" horiz-adv-x="581" 
d="M266 -20q-51 0 -79 44t-15 109l139 758q16 92 -47 92q-45 1 -92 -65t-68 -119l-26 10q4 9 10 25q49 127 134 185q38 25 92 25t80 -43t14 -110l-140 -758q-20 -92 47 -92q45 0 93 68q47 68 63 116l29 -12q-40 -100 -73 -141q-34 -42 -72 -67t-89 -25zM475 1268
q-57 0 -57 56q0 26 22 48t49 23q27 -1 41 -17t14 -43t-20 -47q-22 -20 -49 -20zM227 1268q-57 0 -57 56q0 26 23 48t49 23q26 -1 40 -17q15 -16 15 -43q1 -27 -21 -47t-49 -20z" />
    <glyph glyph-name="eth" unicode="&#xf0;" horiz-adv-x="1073" 
d="M887 635q0 166 -75 265t-198 99q-184 0 -306 -175t-122 -437q0 -166 76 -264t201 -98q182 0 303 173t121 437zM991 623q1 -283 -155 -463t-367 -180q-172 0 -280 116t-107 301q0 291 158 469t372 178q170 0 262 -141q-25 205 -139 352l-205 -84l-14 41l193 82
q-66 80 -191 172l35 37q129 -78 225 -180l201 84l14 -43l-186 -78q98 -132 141 -282t43 -381z" />
    <glyph glyph-name="ntilde" unicode="&#xf1;" horiz-adv-x="1216" 
d="M616 1413q74 0 161 -46t134 -46q66 25 133 121l19 -10q-76 -182 -186 -183q-55 0 -145 48t-148 51q-76 -23 -166 -140l-21 11q29 74 87 134t132 60zM920 -20q-51 0 -79 44t-16 109l107 608q20 123 -27 183t-145 59q-135 0 -259 -135t-151 -287l-98 -561h-96l155 891
q12 92 -47 92q-45 1 -93 -65t-67 -119l-26 10q4 9 10 25q49 127 134 185q38 25 89 25t78 -43t14 -110l-26 -139l4 -2q67 126 175 210t234 84t195 -82q68 -82 39 -233l-102 -596q-16 -92 45 -92q45 0 94 68t65 116l27 -12q-4 -10 -10 -26q-51 -126 -135 -182q-38 -25 -88 -25
z" />
    <glyph glyph-name="ograve" unicode="&#xf2;" horiz-adv-x="1073" 
d="M393 1448h10l289 -270l-18 -23l-332 225zM463 25q182 0 303 173t121 437q0 168 -74 266t-199 98q-184 0 -306 -175t-122 -437q0 -166 76 -264t201 -98zM469 -20q-172 0 -280 116t-107 301q0 291 158 469t372 178q170 0 275 -117q104 -118 104 -304q1 -283 -155 -463
t-367 -180z" />
    <glyph glyph-name="oacute" unicode="&#xf3;" horiz-adv-x="1073" 
d="M463 25q182 0 303 173t121 437q0 168 -74 266t-199 98q-184 0 -306 -175t-122 -437q0 -166 76 -264t201 -98zM469 -20q-172 0 -280 116t-107 301q0 291 158 469t372 178q170 0 275 -117q104 -118 104 -304q1 -283 -155 -463t-367 -180zM891 1448h10l51 -68l-331 -225
l-19 23z" />
    <glyph glyph-name="ocircumflex" unicode="&#xf4;" horiz-adv-x="1073" 
d="M463 25q182 0 303 173t121 437q0 168 -74 266t-199 98q-184 0 -306 -175t-122 -437q0 -166 76 -264t201 -98zM469 -20q-172 0 -280 116t-107 301q0 291 158 469t372 178q170 0 275 -117q104 -118 104 -304q1 -283 -155 -463t-367 -180zM696 1442l183 -258l-23 -21
l-194 197l-265 -197l-16 21l274 258h41z" />
    <glyph glyph-name="otilde" unicode="&#xf5;" horiz-adv-x="1073" 
d="M512 1413q74 0 160 -46q88 -46 135 -46q66 25 133 121l18 -10q-76 -182 -186 -183q-55 0 -144 48t-149 51q-76 -23 -166 -140l-20 11q29 74 87 134t132 60zM463 25q182 0 303 173t121 437q0 168 -74 266t-199 98q-184 0 -306 -175t-122 -437q0 -166 76 -264t201 -98z
M469 -20q-172 0 -280 116t-107 301q0 291 158 469t372 178q170 0 275 -117q104 -118 104 -304q1 -283 -155 -463t-367 -180z" />
    <glyph glyph-name="odieresis" unicode="&#xf6;" horiz-adv-x="1073" 
d="M463 25q182 0 303 173t121 437q0 168 -74 266t-199 98q-184 0 -306 -175t-122 -437q0 -166 76 -264t201 -98zM469 -20q-172 0 -280 116t-107 301q0 291 158 469t372 178q170 0 275 -117q104 -118 104 -304q1 -283 -155 -463t-367 -180zM756 1266q-27 0 -42 15
q-16 15 -16 41t23 48t49 23q26 -1 40 -17q15 -16 15 -43t-21 -47t-48 -20zM508 1266q-57 0 -57 56q1 26 23 48t48 23q26 -1 40 -17q16 -16 16 -43t-22 -47t-48 -20z" />
    <glyph glyph-name="divide" unicode="&#xf7;" horiz-adv-x="1042" 
d="M453 268q-1 28 21 50t50 22t50 -22t22 -50t-22 -50t-50 -22t-50 22q-21 21 -21 50zM115 578v59h815v-59h-815zM453 946q-1 28 21 50t50 22t50 -22t22 -50t-22 -50t-50 -22t-50 22q-21 22 -21 50z" />
    <glyph glyph-name="oslash" unicode="&#xf8;" horiz-adv-x="1073" 
d="M463 25q182 0 303 173t121 437q0 104 -31 184l-620 -657q75 -137 227 -137zM186 387q0 -109 31 -186l623 657q-74 141 -226 141q-184 0 -306 -175t-122 -437zM82 397q0 291 158 469t372 178q178 0 283 -126l121 126h53l-149 -159q72 -111 71 -262q1 -283 -155 -463
t-367 -180q-178 0 -289 122l-117 -122h-55l148 155q-74 109 -74 262z" />
    <glyph glyph-name="ugrave" unicode="&#xf9;" horiz-adv-x="1222" 
d="M465 1448h10l289 -270l-19 -23l-331 225zM458 41q146 0 267 134t147 286l99 563h96l-156 -891q-16 -92 47 -92q45 0 94 67q48 67 64 115l27 -10q-4 -10 -15 -44t-66 -108q-64 -81 -150 -81q-50 0 -78 42q-27 42 -17 111l29 139h-6q-63 -124 -169 -208t-229 -84
q-211 0 -264 178l133 733q16 92 -47 92q-43 0 -90 -68t-63 -116l-29 10q95 238 221 235q61 0 89 -45t16 -108l-134 -733q38 -117 184 -117z" />
    <glyph glyph-name="uacute" unicode="&#xfa;" horiz-adv-x="1222" 
d="M458 41q146 0 267 134t147 286l99 563h96l-156 -891q-16 -92 47 -92q45 0 94 67q48 67 64 115l27 -10q-4 -10 -15 -44t-66 -108q-64 -81 -150 -81q-50 0 -78 42q-27 42 -17 111l29 139h-6q-63 -124 -169 -208t-229 -84q-211 0 -264 178l133 733q16 92 -47 92
q-43 0 -90 -68t-63 -116l-29 10q95 238 221 235q61 0 89 -45t16 -108l-134 -733q38 -117 184 -117zM932 1448h10l51 -68l-331 -225l-19 23z" />
    <glyph glyph-name="ucircumflex" unicode="&#xfb;" horiz-adv-x="1222" 
d="M458 41q146 0 267 134t147 286l99 563h96l-156 -891q-16 -92 47 -92q45 0 94 67q48 67 64 115l27 -10q-4 -10 -15 -44t-66 -108q-64 -81 -150 -81q-50 0 -78 42q-27 42 -17 111l29 139h-6q-63 -124 -169 -208t-229 -84q-211 0 -264 178l133 733q16 92 -47 92
q-43 0 -90 -68t-63 -116l-29 10q95 238 221 235q61 0 89 -45t16 -108l-134 -733q38 -117 184 -117zM770 1442l182 -258l-22 -21l-195 197l-264 -197l-16 21l274 258h41z" />
    <glyph glyph-name="udieresis" unicode="&#xfc;" horiz-adv-x="1222" 
d="M458 41q146 0 267 134t147 286l99 563h96l-156 -891q-16 -92 47 -92q45 0 94 67q48 67 64 115l27 -10q-4 -10 -15 -44t-66 -108q-64 -81 -150 -81q-50 0 -78 42q-27 42 -17 111l29 139h-6q-63 -124 -169 -208t-229 -84q-211 0 -264 178l133 733q16 92 -47 92
q-43 0 -90 -68t-63 -116l-29 10q95 238 221 235q61 0 89 -45t16 -108l-134 -733q38 -117 184 -117zM827 1266q-57 0 -57 56q0 26 23 48t49 23q26 -1 40 -17q15 -16 15 -43q1 -27 -21 -47t-49 -20zM579 1266q-27 0 -41 15t-16 41q0 26 23 48t49 23q26 -1 40 -17
q15 -16 15 -43q1 -27 -21 -47t-49 -20z" />
    <glyph glyph-name="yacute" unicode="&#xfd;" horiz-adv-x="1032" 
d="M862 1448h10l52 -68l-332 -225l-19 23zM199 973q-59 0 -81 -84t-12 -139h-30q-18 36 8 169q10 50 50 88t102 37q96 0 118 -100l203 -858h4q61 86 90 133q100 170 184 388q83 218 91 319q-45 29 -117 45l-23 2l50 76q90 -8 151 -58q-8 -135 -92 -367q-164 -453 -461 -774
q-135 -144 -262 -212q-41 26 -74 64t-45 65l-10 24l59 49q47 -86 103 -116q117 66 276 260l-223 923q-16 66 -59 66z" />
    <glyph glyph-name="thorn" unicode="&#xfe;" horiz-adv-x="1161" 
d="M973 659q0 160 -66 240q-67 80 -189 80t-240 -135q-117 -136 -144 -283l-80 -455q86 -82 254 -81q209 0 337 188t128 446zM502 -20q-160 0 -260 71l-60 -344l154 -22l-4 -27h-402l4 27l150 22l305 1725l-147 10l6 26l237 33h13l-99 -561l-41 -188l7 -2q63 122 166 208
t240 86t223 -101t85 -269q-1 -302 -165 -498t-412 -196z" />
    <glyph glyph-name="ydieresis" unicode="&#xff;" horiz-adv-x="1032" 
d="M729 1266q-57 0 -57 56q0 26 22 48t48 23q26 -1 41 -17t15 -43t-20 -47q-22 -20 -49 -20zM481 1266q-57 0 -57 56q0 26 22 48t49 23q26 -1 41 -17t15 -43q1 -27 -21 -47t-49 -20zM199 973q-59 0 -81 -84t-12 -139h-30q-18 36 8 169q10 50 50 88t102 37q96 0 118 -100
l203 -858h4q61 86 90 133q100 170 184 388q83 218 91 319q-45 29 -117 45l-23 2l50 76q90 -8 151 -58q-8 -135 -92 -367q-164 -453 -461 -774q-135 -144 -262 -212q-41 26 -74 64t-45 65l-10 24l59 49q47 -86 103 -116q117 66 276 260l-223 923q-16 66 -59 66z" />
    <glyph glyph-name="dotlessi" unicode="&#x131;" horiz-adv-x="581" 
d="M266 -20q-51 0 -79 44t-15 109l139 758q16 92 -47 92q-45 1 -92 -65t-68 -119l-26 10q4 9 10 25q49 127 134 185q38 25 92 25t80 -43t14 -110l-140 -758q-20 -92 47 -92q45 0 93 68q47 68 63 116l29 -12q-40 -100 -73 -141q-34 -42 -72 -67t-89 -25z" />
    <glyph glyph-name="Lslash" unicode="&#x141;" horiz-adv-x="1101" 
d="M-4 532l12 70l242 162l102 577l-157 23l4 27h428l-4 -27l-168 -23l-88 -499l301 202l-13 -69l-301 -203l-127 -723h619q56 151 115 252l22 39l31 -6q-43 -133 -68 -273l-10 -61h-985l4 27l168 22l115 645z" />
    <glyph glyph-name="lslash" unicode="&#x142;" horiz-adv-x="555" 
d="M274 41q45 0 94 65q48 66 66 119l27 -12q-4 -9 -10 -25q-49 -126 -135 -183q-38 -25 -88 -25t-80 44q-28 44 -17 109l102 580l-268 -181l12 70l269 180l114 650l-145 12l4 26l238 33h12l-115 -649l283 190l-12 -69l-283 -191l-115 -651q-12 -92 47 -92z" />
    <glyph glyph-name="OE" unicode="&#x152;" horiz-adv-x="1837" 
d="M598 27q76 0 137 22l226 1288q-57 29 -140 29q-244 0 -423 -233t-179 -596q-1 -233 105 -371t274 -139zM1706 1341h-639l-106 -608l550 6l48 133h30l-57 -323h-27l-4 133l-549 6l-112 -639h682q38 128 114 252l25 39l29 -6q-41 -119 -68 -266l-12 -68h-877
q-82 -20 -151 -20q-211 0 -343 148t-133 404q0 197 63 366q118 320 396 452q129 61 241 61t187 -20h822l-9 -50q-24 -151 -24 -231l-2 -35l-35 -8q-39 117 -39 274z" />
    <glyph glyph-name="oe" unicode="&#x153;" horiz-adv-x="1761" 
d="M1393 999q-156 0 -275 -137t-143 -368q363 -4 539 142q95 79 96 195q0 80 -58 124t-159 44zM463 25q182 0 303 173t121 437q0 168 -74 266t-199 98q-184 0 -306 -175t-122 -437q0 -166 76 -264t201 -98zM469 -20q-172 0 -280 116t-107 301q0 291 158 469t372 178
q135 0 230 -79q94 -80 125 -217q72 139 188 218q117 78 252 78t216 -58t81 -157q0 -176 -209 -276t-524 -96q-2 -23 -2 -68q-1 -168 75 -256t198 -88t207 56t165 155l22 -16q-164 -260 -405 -260q-135 0 -223 70t-115 206q-70 -131 -183 -204q-114 -72 -241 -72z" />
    <glyph glyph-name="Scaron" unicode="&#x160;" horiz-adv-x="1110" 
d="M660 1364q-144 0 -252 -69t-107 -205q0 -86 47 -144t144 -100l245 -109q111 -49 171 -138t61 -196q-1 -186 -149 -305t-365 -118q-276 0 -457 100l14 72q13 78 8 174v34l31 9q66 -106 70 -265q133 -76 319 -76t306 96q118 95 118 249q0 199 -202 286l-250 111
q-92 41 -151 115q-58 74 -58 171q0 264 313 337q82 18 188 18t221 -30q116 -30 132 -31l-13 -64q-12 -75 -10 -136t4 -69l-30 -6q-57 86 -70 236q-134 53 -278 53zM655 1520l-184 260l23 18l194 -194l264 194l17 -18l-275 -260h-39z" />
    <glyph glyph-name="scaron" unicode="&#x161;" horiz-adv-x="890" 
d="M535 1001q-113 0 -190 -52t-77 -164t131 -160l193 -72q94 -37 144 -103t50 -145q0 -153 -114 -239t-306 -86q-190 0 -323 75q0 109 35 174l10 25l62 -14q-20 -82 -21 -156q107 -61 247 -61q140 1 226 69t86 182q0 141 -147 197l-185 70q-178 70 -178 221q0 104 60 171
t135 89q156 46 356 0q94 -23 111 -23q0 -93 -39 -174l-13 -24l-61 14q20 68 23 141q-102 45 -215 45zM532 1163l-184 260l23 19l194 -195l264 195l17 -19l-275 -260h-39z" />
    <glyph glyph-name="Ydieresis" unicode="&#x178;" horiz-adv-x="1280" 
d="M913 1622q-57 0 -57 56q0 26 23 48t49 23q26 0 40 -16q15 -16 15 -43t-21 -48q-22 -20 -49 -20zM735 1690q0 -28 -21 -48t-48 -20t-42 15q-16 15 -16 41t23 48t49 23q26 0 40 -16q15 -16 15 -43zM279 0l4 27l186 22l94 535l-342 757l-121 23l4 27h385l-4 -27l-149 -23
l309 -702h2l574 702l-138 23l4 27h334l-4 -27l-133 -23l-616 -755l-95 -537l177 -22l-5 -27h-466z" />
    <glyph glyph-name="Zcaron" unicode="&#x17d;" horiz-adv-x="1150" 
d="M225 1067l-35 10q39 109 66 252l10 62h897l-8 -45l-1059 -1297h774q40 131 113 238l23 35l34 -9q-39 -104 -65 -252l-10 -61h-1006l6 45l1065 1296h-670q-16 -67 -50 -135t-60 -104zM692 1520l-184 260l22 18l195 -194l264 194l17 -18l-275 -260h-39z" />
    <glyph glyph-name="zcaron" unicode="&#x17e;" horiz-adv-x="1034" 
d="M154 838q0 82 44 144t127 62t245 -74t206 -75q43 0 72 25l92 104h57v-25l-764 -837q35 10 80 10t193 -54t227 -55q150 0 168 191v80h31q16 -53 16 -119q0 -252 -209 -252q-100 0 -268 80t-220 80t-85 -35l-78 -88h-49v27l745 823q-32 -6 -74 -6t-180 49t-199 49
q-60 0 -93 -43t-37 -108l-2 -95h-27q-18 61 -18 142zM575 1163l-184 260l23 19l194 -195l264 195l17 -19l-275 -260h-39z" />
    <glyph glyph-name="florin" unicode="&#x192;" horiz-adv-x="997" 
d="M791 1288q-117 0 -189 -85t-96 -236l-37 -234h276v-47h-284l-105 -666q-30 -190 -120 -286t-222 -96q-61 0 -147 36q4 59 23 97q20 38 32 61l12 21l66 -9l-12 -28q-33 -95 -35 -131q37 -6 57 -7q195 0 246 324l109 684h-228v47h234l35 215q29 186 133 284t249 97
q77 0 108 -11q30 -10 48 -18t21 -8q-5 -77 -54 -160q-12 -22 -12 -24l-68 10q43 102 48 156q-57 14 -88 14z" />
    <glyph glyph-name="circumflex" unicode="&#x2c6;" horiz-adv-x="759" 
d="M508 1442l182 -258l-22 -21l-195 197l-264 -197l-16 21l274 258h41z" />
    <glyph glyph-name="caron" unicode="&#x2c7;" horiz-adv-x="759" 
d="M424 1163l-184 260l22 19l195 -195l264 195l16 -19l-274 -260h-39z" />
    <glyph glyph-name="breve" unicode="&#x2d8;" horiz-adv-x="665" 
d="M386 1270q83 0 143 48t92 122l26 -10q-33 -96 -103 -160q-71 -64 -168 -64q-96 0 -146 64t-52 157l33 11q4 -74 48 -121t127 -47z" />
    <glyph glyph-name="dotaccent" unicode="&#x2d9;" horiz-adv-x="466" 
d="M388 1255q-32 1 -50 19t-18 48t24 56t56 25t52 -19t19 -48q1 -30 -25 -56t-58 -25z" />
    <glyph glyph-name="ring" unicode="&#x2da;" horiz-adv-x="583" 
d="M383 1198q59 0 96 40t37 108q0 96 -94 96q-61 0 -98 -41t-37 -105q0 -98 96 -98zM221 1311q-1 71 57 117t139 46t123 -38q42 -40 42 -112t-56 -115q-56 -44 -137 -44q-80 0 -124 37t-44 109z" />
    <glyph glyph-name="ogonek" unicode="&#x2db;" horiz-adv-x="583" 
d="M47 -201q0 -51 39 -78q40 -27 104 -27t134 46l18 -33q-80 -70 -184 -69q-185 0 -187 141q0 162 265 265q59 24 126 40l5 -27q-129 -37 -225 -101q-95 -65 -95 -157z" />
    <glyph glyph-name="tilde" unicode="&#x2dc;" horiz-adv-x="1005" 
d="M498 1413q74 0 160 -46q87 -46 135 -46q66 25 133 121l18 -10q-76 -182 -186 -183q-54 0 -144 48t-149 51q-76 -23 -166 -140l-20 11q29 74 87 134t132 60z" />
    <glyph glyph-name="hungarumlaut" unicode="&#x2dd;" horiz-adv-x="780" 
d="M399 1180l334 215l43 -58l2 -10l-360 -174zM461 1454h12l43 -63l-334 -228l-20 25z" />
    <glyph glyph-name="pi" unicode="&#x3c0;" horiz-adv-x="1187" 
d="M66 942h1062l-495 -881z" />
    <glyph glyph-name="endash" unicode="&#x2013;" horiz-adv-x="1038" 
d="M113 541v57h813v-57h-813z" />
    <glyph glyph-name="emdash" unicode="&#x2014;" horiz-adv-x="1650" 
d="M113 541v57h1425v-57h-1425z" />
    <glyph glyph-name="quoteleft" unicode="&#x2018;" horiz-adv-x="360" 
d="M279 1188q0 -41 -23 -63q-22 -21 -56 -21t-53 20q-18 20 -18 47q0 146 260 240l4 -10l-29 -22q-8 -7 -24 -18q-77 -54 -104 -118q43 -14 43 -55z" />
    <glyph glyph-name="quoteright" unicode="&#x2019;" horiz-adv-x="360" 
d="M213 1327q0 41 23 63q22 22 56 22t52 -21q18 -20 18 -48q0 -145 -260 -239l-4 10q29 21 34 25q4 4 20 15q16 12 29 24t36 35t39 59q-43 14 -43 55z" />
    <glyph glyph-name="quotesinglbase" unicode="&#x201a;" horiz-adv-x="497" 
d="M74 43q0 41 22 63t57 21q34 -1 52 -21t18 -47q0 -145 -260 -239l-4 10l52 39q57 42 77 71t29 48q-43 14 -43 55z" />
    <glyph glyph-name="quotedblleft" unicode="&#x201c;" horiz-adv-x="620" 
d="M539 1184q0 -41 -23 -63q-22 -21 -56 -21t-52 20t-19 47q0 146 260 240l4 -10l-29 -22q-8 -7 -24 -18q-77 -54 -104 -118q43 -14 43 -55zM279 1184q0 -41 -23 -63q-22 -21 -56 -21t-53 20q-18 20 -18 47q0 146 260 240l4 -10l-29 -22q-8 -7 -24 -18q-77 -54 -104 -118
q43 -14 43 -55z" />
    <glyph glyph-name="quotedblright" unicode="&#x201d;" horiz-adv-x="620" 
d="M473 1327q0 41 23 63q22 22 56 22t52 -21q18 -20 19 -48q-1 -145 -261 -239l-4 10q29 21 34 25q4 4 20 15q16 12 29 24t36 35t39 59q-43 14 -43 55zM213 1327q0 41 23 63q22 22 56 22t52 -21q18 -20 18 -48q0 -145 -260 -239l-4 10q29 21 34 25q4 4 20 15q16 12 29 24
t36 35t39 59q-43 14 -43 55z" />
    <glyph glyph-name="quotedblbase" unicode="&#x201e;" horiz-adv-x="757" 
d="M330 43q0 41 22 63t57 21q34 -1 52 -21t18 -47q0 -145 -260 -239l-4 10l52 39q57 42 77 71t29 48q-43 14 -43 55zM70 43q0 41 22 63t57 21q34 -1 52 -21t18 -47q0 -145 -260 -239l-4 10l53 39q57 42 76 71q20 29 29 48q-43 14 -43 55z" />
    <glyph glyph-name="dagger" unicode="&#x2020;" horiz-adv-x="1089" 
d="M670 1391l-86 -365l401 16l-14 -71l-396 16l-28 -293l-146 -694h-47l101 694l71 293l-403 -16l14 71l398 -18l43 367h92z" />
    <glyph glyph-name="daggerdbl" unicode="&#x2021;" horiz-adv-x="1198" 
d="M231 971l15 71l397 -18l43 367h92l-86 -365l402 16l-13 -71l-397 16l-29 -293l-73 -293l401 19l-12 -72l-398 17l-41 -365h-92l84 365l-401 -17l12 72l397 -17l31 291l74 293z" />
    <glyph glyph-name="bullet" unicode="&#x2022;" horiz-adv-x="563" 
d="M246 463q-47 -1 -76 27t-29 74t39 84t86 38t76 -28t29 -74t-39 -83q-39 -38 -86 -38z" />
    <glyph glyph-name="ellipsis" unicode="&#x2026;" horiz-adv-x="1275" 
d="M524 -20q-31 0 -50 18t-19 49q1 31 25 57t57 25q33 0 51 -18t18 -49t-25 -57q-26 -25 -57 -25zM136 -20q-32 0 -51 18t-19 49t24 57t58 25q33 0 52 -18t19 -49t-25 -57q-26 -25 -58 -25zM912 -20q-32 0 -50 18t-18 49t24 57t58 25q33 0 51 -18t18 -49t-25 -57
q-26 -25 -58 -25z" />
    <glyph glyph-name="perthousand" unicode="&#x2030;" horiz-adv-x="1935" 
d="M1589 621q-105 0 -167 -125t-62 -281q0 -88 33 -145q33 -58 101 -58t122 68q100 128 100 335q0 206 -127 206zM1792 408q0 -188 -86 -308t-215 -120q-96 0 -152 64q-55 65 -55 181q0 186 87 307t216 121q97 0 151 -65t54 -180zM991 621q-107 0 -167 -125t-60 -281
q0 -88 32 -145q32 -58 102 -58t122 68q98 126 98 333q0 208 -127 208zM1196 408q0 -188 -87 -308t-214 -120q-98 0 -154 64q-55 65 -55 181q0 186 88 307t217 121q97 0 151 -65t54 -180zM279 0h-60l856 1309h53zM360 688q68 0 121 68q101 130 101 335q0 206 -127 205
q-105 0 -167 -125t-63 -280q0 -87 33 -145q34 -58 102 -58zM657 1083q0 -188 -86 -308t-215 -120q-96 0 -151 65t-55 181q0 186 87 307t218 121q94 1 148 -65t54 -181z" />
    <glyph glyph-name="guilsinglleft" unicode="&#x2039;" horiz-adv-x="622" 
d="M549 948l-367 -428l215 -426h-55l-260 404v43l412 407h55z" />
    <glyph glyph-name="guilsinglright" unicode="&#x203a;" horiz-adv-x="622" 
d="M33 94l366 428l-215 426h56l260 -403v-43l-412 -408h-55z" />
    <glyph glyph-name="fraction" unicode="&#x2044;" horiz-adv-x="974" 
d="M57 0h-59l913 1309h54z" />
    <glyph glyph-name="Euro" unicode="&#x20ac;" horiz-adv-x="1320" 
d="M877 1282q-186 0 -340 -127t-213 -356h446l-8 -47h-449q-14 -68 -18 -179h434l-8 -47h-426q6 -221 106 -347t261 -126q272 0 471 269l26 -19q-201 -324 -522 -323q-201 0 -327 146t-128 400h-125l9 47h116q4 100 21 179h-107l8 47h111q70 254 259 393t415 139
q123 -1 237 -27t125 -26l-10 -68q-16 -98 -16 -180v-26l-33 -9q-55 78 -64 242q-109 45 -251 45z" />
    <glyph glyph-name="trademark" unicode="&#x2122;" horiz-adv-x="1615" 
d="M184 1346v45h568v-45l10 -121l-23 -4q-35 63 -45 135h-186v-629l88 -12v-19h-256v19l90 12v629h-188q-7 -59 -45 -135l-23 4q10 55 10 121zM842 1391h159l226 -555h4l219 555h162v-19l-78 -12v-633l78 -12v-19h-236v19l80 12v559h-4q-8 -31 -14 -51l-207 -506h-33
l-215 504l-16 53h-2v-559l77 -12v-19h-200v19l78 12v633l-78 12v19z" />
    <glyph glyph-name="Omega" unicode="&#x2126;" horiz-adv-x="1851" 
d="M1368 1044q127 0 229 -52t144 -111v-287q0 -305 -173 -460t-452 -154q-55 0 -115 6v2q111 10 229 84t146 188q-98 0 -179 29t-141 107t-61 198v287q41 59 143 111t230 52zM123 594v287q39 57 142 110t231 53t229 -52q102 -52 143 -111v-287q0 -305 -174 -460t-452 -154
q-57 0 -113 6v2q111 12 229 84t146 188q-98 0 -179 29t-142 107q-60 79 -60 198z" />
    <glyph glyph-name="partialdiff" unicode="&#x2202;" horiz-adv-x="1185" 
d="M1001 1044v-1064l-878 495z" />
    <glyph glyph-name="Delta" unicode="&#x2206;" horiz-adv-x="2066" 
d="M1520 256q-193 0 -315 115t-122 279t122 280q122 114 316 114q193 0 315 -120t122 -295q0 -176 -58 -305t-158 -202q-198 -145 -468 -145q-68 0 -119 9v2q106 12 236 85q129 73 161 183h-32zM559 256q-193 0 -315 115t-121 279q0 164 122 280q121 114 315 114t316 -120
t122 -295q0 -176 -58 -305t-156 -202q-196 -145 -467 -145q-70 0 -124 9v2q111 12 239 85t160 183h-33z" />
    <glyph glyph-name="product" unicode="&#x220f;" horiz-adv-x="1187" 
d="M1128 86h-1062l567 881z" />
    <glyph glyph-name="summation" unicode="&#x2211;" horiz-adv-x="1185" 
d="M193 -20v1064l878 -569z" />
    <glyph glyph-name="minus" unicode="&#x2212;" horiz-adv-x="1042" 
d="M115 600v57h815v-57h-815z" />
    <glyph glyph-name="radical" unicode="&#x221a;" horiz-adv-x="2066" 
d="M1520 764q194 0 316 -114t122 -278t-122 -280q-122 -115 -316 -115t-316 119q-121 119 -121 296t58 305q102 230 371 312q118 36 251 35q45 0 123 -8v-2q-112 -14 -240 -87t-159 -185q10 2 33 2zM559 764q195 0 317 -114t122 -278t-122 -280q-122 -115 -316 -115
t-316 120t-121 296q0 176 57 304q56 128 156 202q198 147 469 145q41 0 123 -8v-2q-113 -14 -241 -87t-159 -185q11 2 31 2z" />
    <glyph glyph-name="infinity" unicode="&#x221e;" horiz-adv-x="1665" 
d="M1248 336q104 0 174 64t71 176q0 110 -71 176t-189 65q-69 0 -140 -40q-26 -13 -66 -46t-54 -47t-55 -57t-48 -49q121 -134 197 -188q77 -54 181 -54zM434 336q72 0 149 45t115 83t103 111q-6 6 -35 37q-91 98 -170 151q-79 54 -180 54q-102 1 -172 -65t-70 -177t70 -175
t190 -64zM1233 866q145 0 232 -84t87 -209t-82 -205t-237 -81q-86 0 -161 41q-74 41 -121 87q-48 46 -54 52t-33 35t-28 30q-129 -131 -193 -174q-109 -72 -211 -71q-154 0 -236 81q-82 82 -81 206q0 124 87 208q88 84 240 84t330 -178q11 -10 64 -65q6 5 36 37t42 42
q11 10 42 39q32 29 50 40t50 31q84 54 177 54z" />
    <glyph glyph-name="integral" unicode="&#x222b;" horiz-adv-x="1851" 
d="M495 -20q-129 0 -231 52t-141 109v289q0 305 173 460t454 154q53 0 112 -6v-2q-160 -19 -287 -133q-70 -63 -90 -141q158 0 271 -80t112 -252v-289q-41 -59 -143 -110t-230 -51zM1741 430v-289q-41 -59 -143 -110t-230 -51q-127 0 -229 51t-144 110v289q0 305 173 460
t454 154q53 0 113 -6v-2q-162 -19 -287 -133q-70 -63 -90 -141q158 0 270 -80t113 -252z" />
    <glyph glyph-name="approxequal" unicode="&#x2248;" horiz-adv-x="1234" 
d="M882 344q-74 0 -213 67q-140 67 -216 66q-174 0 -293 -155l-45 36q133 186 346 187q92 0 235 -67t195 -66q120 0 188 98l43 -35q-38 -55 -102 -93t-138 -38zM882 715q-74 1 -213 67q-140 66 -216 66q-174 0 -293 -156l-45 37q133 186 346 186q92 -1 235 -67t195 -66
q120 1 188 99l43 -35q-38 -55 -102 -93t-138 -38z" />
    <glyph glyph-name="notequal" unicode="&#x2260;" horiz-adv-x="1042" 
d="M115 784v58h465l86 182h69l-84 -182h279v-58h-305l-144 -309h449v-57h-475l-93 -199h-71l92 199h-268v57h295l143 309h-438z" />
    <glyph glyph-name="lessequal" unicode="&#x2264;" horiz-adv-x="1042" 
d="M115 33v57h815v-57h-815zM930 315v-67l-815 358v47l815 355v-68l-735 -311z" />
    <glyph glyph-name="greaterequal" unicode="&#x2265;" horiz-adv-x="1042" 
d="M928 90v-57h-815v57h815zM113 248v67l735 314l-735 311v68l815 -355v-47z" />
    <glyph glyph-name="lozenge" unicode="&#x25ca;" horiz-adv-x="915" 
d="M92 0v33h739v-33h-739zM92 1358v33h739v-33h-739zM483 692l230 -581h-45l-207 524l-205 -524h-45l229 579l-231 584h45l207 -524l213 524h47z" />
    <glyph glyph-name="apple" unicode="&#xf8ff;" horiz-adv-x="2965" 
d="M1645 541q76 0 75 43q0 27 -26 26q-41 1 -49 -69zM2382 584q0 27 -27 26q-41 1 -49 -69q76 0 76 43zM289 584q0 27 -27 26q-41 1 -49 -69q76 0 76 43zM1059 332q0 -29 28 -29q52 0 56 94q-84 -18 -84 -65zM1870 512q23 0 38 -14t15 -34t-15 -34t-38 -14t-37 13t-14 33
t14 36q14 14 37 14zM1450 553q0 41 -27 41t-46 -38t-19 -60v-47q92 12 92 104zM2354 471q42 0 73 18q16 -10 16 -25q0 -14 -5 -24t-29 -20q-23 -10 -71 -10t-81 30t-33 81q0 52 38 94t90 42t75 -19t22 -44q0 -78 -141 -78q4 -45 46 -45zM1788 594q0 -78 -141 -78
q4 -45 46 -45t72 18q28 -18 12 -50q-16 -29 -82 -29t-100 29q-33 30 -33 82t39 94q38 42 90 42q53 0 75 -19t22 -44zM261 471q42 0 73 18q16 -10 16 -25q0 -14 -5 -24t-29 -20t-72 -10t-80 30q-33 30 -33 81q0 52 38 94t90 42t75 -19t22 -44q0 -78 -141 -78q4 -45 46 -45z
M2191 592v-100l4 -66q-49 -16 -67 -16t-19 16v137q0 31 -15 31q-14 0 -34 -36t-20 -62l6 -70q-49 -16 -69 -16t-19 16v141l-6 74q48 16 68 16t20 -18v-82q37 100 92 100q59 1 59 -65zM139 0v16h2740v-16h-2740zM139 1083v17h2740v-17h-2740zM2710 428l-168 -16q-39 0 -48 25
q-8 26 -9 113t-3 130l-59 -4v8q0 41 24 41h35l-6 61q49 16 69 16t19 -16v-59h96v-6q0 -43 -24 -43h-72v-184q0 -31 33 -31q23 0 79 11t93 11t83 -12t46 -39t-20 -41t-29 -14q-11 1 -61 25t-78 24zM567 657q59 0 60 -65v-35q29 100 92 100q57 1 57 -65v-100l6 -66
q-50 -16 -68 -16t-18 16v135q0 33 -14 33t-36 -36t-19 -62l4 -70q-49 -16 -68 -16t-18 16v135q1 33 -15 33t-35 -36t-20 -62l6 -70q-49 -16 -69 -16t-19 16v141l-6 74q49 16 69 16t19 -18v-82q33 100 92 100zM1454 655q34 1 58 -27t24 -77q0 -139 -178 -139v-82l6 -66
q-49 -16 -69 -16t-19 16v154l-51 -6v-6q0 -162 -140 -162q-43 0 -63 22t-21 47q0 74 144 109v86q-35 -98 -93 -98t-59 63v6q-39 -67 -103 -67t-65 61v207l-59 -4v8q0 41 25 41h34l-6 61q49 16 69 16t19 -16v-59h97v-6q0 -43 -25 -43h-72v-176q0 -33 27 -33q18 0 39 16
q20 16 20 37v51l-6 68q49 16 69 16t19 -18v-135q1 -31 15 -31t34 36t19 62l-4 70q49 16 67 16t19 -18v-203l51 6v125l-6 74q48 16 68 16t20 -18v-82q35 98 96 98z" />
    <glyph glyph-name="NULL" 
 />
    <glyph glyph-name="eight.tab" horiz-adv-x="1116" 
d="M371 1026q0 -143 168 -246l90 -57q119 47 206 137t87 196t-62 166q-62 62 -193 62q-132 0 -214 -74t-82 -184zM184 272q0 -110 79 -178t242 -68t258 78q95 76 95 209q0 81 -43 141t-141 121l-121 76q-369 -147 -369 -379zM514 -20q-194 0 -311 68t-117 213q0 147 125 253
t305 160l-45 28q-199 125 -199 295q0 147 119 239t281 93q162 0 251 -75q89 -74 89 -190t-100 -217t-250 -147l73 -45q117 -75 172 -145t56 -162q0 -164 -127 -266q-128 -102 -322 -102z" />
    <glyph glyph-name="five.tab" horiz-adv-x="1116" 
d="M418 -20q-113 0 -216 26t-139 66q2 59 21 119q18 60 35 92l16 30h45q-8 -27 -19 -104t-1 -117q34 -27 106 -47t158 -20q207 0 324 103t116 294q0 150 -110 222t-275 71q-109 0 -241 -25l-5 6l127 613h707l-29 -90h-635l-94 -439q160 18 203 19q199 0 330 -87t131 -259
q-1 -225 -149 -349t-406 -124z" />
    <glyph glyph-name="four.tab" horiz-adv-x="1116" 
d="M866 1180l-704 -752h577l131 752h-4zM57 381v20l863 914h77l-155 -887h182l-8 -47h-185l-57 -332l158 -22l-4 -27h-434l4 27l174 22l57 332h-672z" />
    <glyph glyph-name="nine.tab" horiz-adv-x="1116" 
d="M897 897q1 387 -297 387q-150 0 -254 -122t-104 -320q0 -135 70 -209t186 -74t228 67t169 181q2 31 2 90zM348 -20q-127 0 -192 38t-88 78l26 27q32 -32 104 -53q72 -20 148 -21q219 0 359 182q139 182 178 467q-160 -197 -408 -196q-154 0 -247 92t-93 244
q0 223 140 357q139 134 331 134t294 -117t101 -327q0 -391 -177 -648t-476 -257z" />
    <glyph glyph-name="one.tab" horiz-adv-x="1116" 
d="M580 1198q-161 0 -236 16l-31 7l4 22q297 12 443 82l14 -16l-221 -1254l307 -28l-4 -27h-723l4 27l314 28l198 1143h-69z" />
    <glyph glyph-name="seven.tab" horiz-adv-x="1116" 
d="M207 0v31l815 1188h-725q-37 -95 -109 -179l-20 -24l-33 10q41 117 60 217l10 66h885v-82l-807 -1227h-76z" />
    <glyph glyph-name="six.tab" horiz-adv-x="1116" 
d="M229 412q1 -387 297 -387q150 -1 254 121t105 321q1 135 -69 209t-188 74t-229 -68t-168 -182q-2 -29 -2 -88zM520 -20q-192 0 -294 116q-101 117 -101 328q0 391 177 648t476 257q128 0 204 -46q54 -29 77 -69l-29 -26q-27 27 -100 49t-150 23q-219 0 -359 -184
t-179 -466q164 197 409 197q154 0 247 -92t93 -244q0 -223 -140 -357q-139 -134 -331 -134z" />
    <glyph glyph-name="three.tab" horiz-adv-x="1116" 
d="M418 -20q-113 0 -217 32t-144 72q16 110 65 190q15 27 17 27h47q-9 -26 -17 -92q-9 -65 -7 -111q38 -30 110 -52t158 -21q182 0 296 101t114 286q0 135 -96 197t-236 71l16 43q162 4 267 90q104 86 104 236q0 96 -66 148q-65 52 -179 52t-212 -63t-164 -156
q-27 14 -28 17q63 119 175 201q111 82 261 81q150 0 234 -72q84 -73 83 -201q0 -128 -87 -214t-210 -121v-4q102 -23 176 -97q73 -75 72 -196q0 -207 -149 -326q-150 -118 -383 -118z" />
    <glyph glyph-name="two.tab" horiz-adv-x="1116" 
d="M922 1006q0 237 -266 237q-130 -1 -240 -69q-109 -68 -180 -164l-29 16q70 119 192 211q123 92 290 92t255 -82t88 -223t-102 -299q-71 -109 -222 -242t-319 -241q-53 -35 -136 -88t-106 -68v-4h682q16 51 44 96t49 64l18 20l25 -8q-35 -86 -54 -191l-10 -63h-901v47
q167 104 335 229q167 124 225 175q183 162 241 250q121 186 121 305z" />
    <glyph glyph-name="zero.tab" horiz-adv-x="1116" 
d="M466 25q140 -1 250 119t163 308t53 399q0 210 -72 324q-72 113 -213 113t-252 -124q-215 -240 -215 -718q0 -197 73 -309t213 -112zM459 -20q-180 0 -282 130q-101 130 -101 357q0 383 165 623t412 239q179 0 283 -129t104 -360q0 -384 -166 -622t-415 -238z" />
    </font>
</defs>
</svg>
