<?xml version="1.0" standalone="no"?>
<!DOCTYPE svg PUBLIC "-//W3C//DTD SVG 1.1//EN" "http://www.w3.org/Graphics/SVG/1.1/DTD/svg11.dtd" >
<svg xmlns="http://www.w3.org/2000/svg">
<metadata>
Created by FontPrep 20130207 at Mon Jun 27 20:40:43 2016
 By Devin Halladay
Copyright (c) 2011 by Eduardo Manso. All rights reserved.
</metadata>
<defs>
<font id="01b4a5191b9f0857abb07761bf265bf5" horiz-adv-x='1024' >
  <font-face 
    font-family="PeriodicoDisplay-UltraLight"
    font-weight="265"
    font-stretch="normal"
    units-per-em="2048"
    panose-1="2 0 5 4 7 0 0 2 0 4"
    ascent="1597"
    descent="-451"
    x-height="1024"
    cap-height="1391"
    bbox="-104.421 -387 2898 1812"
    underline-thickness="102"
    underline-position="-102"
    unicode-range="U+0009-FB02"
  />
<missing-glyph horiz-adv-x="915" 
d="M92 0v33h739v-33h-739zM92 1358v33h739v-33h-739zM483 692l230 -581h-45l-207 524l-205 -524h-45l229 579l-231 584h45l207 -524l213 524h47z" />
    <glyph glyph-name="fi" unicode="fi" horiz-adv-x="1198" 
d="M334 1118v-100h397q128 0 201 10l29 4h12v-983l147 -22v-27h-393v27l147 22v920h-540v-920l166 -22v-27h-414v27l147 22v920h-145v30l145 17v96q0 190 116 290t294 101q178 0 268 -47q0 -74 -47 -180h-51q18 76 -10 160q-100 27 -158 26q-159 0 -235 -91t-76 -253z" />
    <glyph glyph-name="fl" unicode="fl" horiz-adv-x="1198" 
d="M973 1503v-1454l147 -22v-27h-393v27l147 22v1358q-129 55 -231 55q-157 0 -233 -91t-76 -253v-100h260v-49h-260v-920l166 -22v-27h-414v27l147 22v920h-145v30l145 17v98q0 190 114 290t298 99q133 0 225 -28l91 28h12z" />
    <glyph glyph-name=".notdef" horiz-adv-x="915" 
d="M92 0v33h739v-33h-739zM92 1358v33h739v-33h-739zM483 692l230 -581h-45l-207 524l-205 -524h-45l229 579l-231 584h45l207 -524l213 524h47z" />
    <glyph glyph-name=".null" 
 />
    <glyph glyph-name="nonmarkingreturn" horiz-adv-x="681" 
 />
    <glyph glyph-name="CR" unicode="&#xd;" 
 />
    <glyph glyph-name="CR" 
 />
    <glyph glyph-name="HT" unicode="&#x9;" 
 />
    <glyph glyph-name="LF" unicode="&#xa;" 
 />
    <glyph glyph-name="DLE" 
 />
    <glyph glyph-name="DC1" 
 />
    <glyph glyph-name="DC2" 
 />
    <glyph glyph-name="DC3" 
 />
    <glyph glyph-name="DC4" 
 />
    <glyph glyph-name="RS" 
 />
    <glyph glyph-name="US" 
 />
    <glyph glyph-name="space" unicode=" " horiz-adv-x="464" 
 />
    <glyph glyph-name="exclam" unicode="!" horiz-adv-x="598" 
d="M373 55q0 -31 -23 -53q-22 -22 -52 -22t-52 22t-23 53q0 31 22 53q23 22 53 22t52 -22t23 -53zM299 1411q57 0 66 -47l-56 -1053h-20l-58 1053q3 18 23 32t45 15z" />
    <glyph glyph-name="quotedbl" unicode="&#x22;" horiz-adv-x="610" 
d="M442 1411q25 0 41 -15t17 -34l-45 -410h-25l-43 410q0 18 15 34t40 15zM168 1411q25 0 41 -15t16 -34l-45 -410h-24l-43 410q0 18 15 34t40 15z" />
    <glyph glyph-name="numbersign" unicode="#" horiz-adv-x="1230" 
d="M471 682l-102 -315h393l102 315h-393zM115 311v56h194l103 315h-215v55h233l98 297h60l-99 -297h394l98 297h59l-98 -297h174v-55h-192l-103 -315h213v-56h-231l-103 -311h-59l102 311h-393l-102 -311h-60l103 311h-176z" />
    <glyph glyph-name="dollar" unicode="$" horiz-adv-x="1161" 
d="M299 1026q0 -158 199 -225l90 -31v510q-129 -8 -209 -72t-80 -182zM711 616l-76 27v-612q141 14 230 98t89 219q1 186 -243 268zM139 141q0 52 -16 160l-6 27l33 14q84 -100 110 -242q133 -72 320 -71h8v630l-150 52q-240 82 -239 286q0 166 109 244q110 78 280 86v127
h47v-125q113 0 229 -30t127 -29v-56q0 -74 17 -145l6 -22l-33 -13q-70 70 -107 203q-131 45 -239 45v-528l131 -45q291 -98 291 -338q0 -158 -118 -268t-304 -121v-121h-47v119q-269 4 -449 100v61z" />
    <glyph glyph-name="percent" unicode="%" horiz-adv-x="1366" 
d="M1014 -20q-112 0 -178 86t-66 246t68 250q68 91 180 91t178 -86t66 -246q0 -161 -68 -251t-180 -90zM1015 12q79 0 123 81t44 225t-44 224t-123 79q-79 0 -123 -82q-44 -81 -44 -225t44 -223t123 -79zM981 1309h53l-635 -1309h-55zM518 994q0 144 -44 223t-123 79
t-123 -82t-44 -225t44 -222t123 -79t123 81t44 225zM354 1329q112 0 178 -86t66 -246t-68 -251t-180 -91t-178 86t-66 245t68 251t180 92z" />
    <glyph glyph-name="ampersand" unicode="&#x26;" horiz-adv-x="1357" 
d="M371 1107q0 -134 141 -302q268 119 268 338q0 101 -55 161t-143 60t-150 -61q-61 -62 -61 -196zM668 522q-150 137 -217 215q-66 -34 -148 -114q-101 -101 -101 -263q0 -82 36 -148q35 -64 91 -96q104 -58 228 -61q236 0 393 191q-20 20 -282 276zM541 -20
q-141 0 -275 69q-72 37 -116 115t-46 175q-1 235 231 377q48 30 93 48q-145 176 -145 340t96 236q96 71 219 71t195 -74t71 -194q0 -163 -123 -251q-100 -74 -209 -110q68 -78 189 -188q92 -88 280 -277q102 158 156 414l31 -4q-25 -254 -144 -451q217 -211 295 -249v-27
h-116q-78 53 -230 203q-174 -223 -452 -223z" />
    <glyph glyph-name="quotesingle" unicode="'" horiz-adv-x="335" 
d="M168 1411q25 0 41 -15t16 -34l-45 -410h-24l-43 410q0 18 15 34t40 15z" />
    <glyph glyph-name="parenleft" unicode="(" horiz-adv-x="688" 
d="M123 614q0 324 139 548q68 108 137 186q70 78 164 155l27 -28q-178 -156 -282 -360t-105 -500q-1 -295 105 -499t282 -358l-27 -30q-323 268 -404 586q-36 138 -36 300z" />
    <glyph glyph-name="parenright" unicode=")" horiz-adv-x="688" 
d="M485 616q0 296 -104 499q-104 204 -283 360q27 27 27 28q324 -268 404 -588q36 -139 36 -301q0 -322 -139 -546q-68 -109 -137 -186q-70 -76 -164 -154l-27 30q176 154 282 358q105 204 105 500z" />
    <glyph glyph-name="asterisk" unicode="*" horiz-adv-x="970" 
d="M528 1076q0 18 -12 30t-28 12t-30 -12q-12 -12 -12 -30q0 -17 13 -28q29 -26 57 0q12 12 12 28zM551 1042l141 -286l-20 -15l-185 256l-184 -256l-22 15l139 286q-9 2 -316 31v25l312 20l-133 285l20 12l184 -266l183 266l22 -12l-133 -285q104 -10 305 -20v-25z" />
    <glyph glyph-name="plus" unicode="+" horiz-adv-x="1042" 
d="M115 580v57h377v377h59v-377h379v-57h-379v-381h-59v381h-377z" />
    <glyph glyph-name="comma" unicode="," horiz-adv-x="344" 
d="M96 59q0 31 23 49t57 19q34 0 52 -24q19 -24 20 -56q-2 -74 -62 -133t-149 -94l-8 12q106 80 123 156q-56 14 -56 71z" />
    <glyph glyph-name="hyphen" unicode="-" horiz-adv-x="704" 
d="M113 524v66h479v-66h-479z" />
    <glyph glyph-name="period" unicode="." horiz-adv-x="344" 
d="M248 55q0 -31 -23 -53t-53 -22t-54 22q-22 22 -22 53t23 53t53 22t54 -22q22 -22 22 -53z" />
    <glyph glyph-name="slash" unicode="/" horiz-adv-x="815" 
d="M115 -342h-56l598 1825h56z" />
    <glyph glyph-name="zero" unicode="0" horiz-adv-x="1126" 
d="M209 648q0 -300 92 -462t261 -163t262 167q94 168 94 468t-92 466t-262 166q-169 0 -262 -171t-93 -471zM98 643q0 317 129 501t341 185q212 0 335 -173t123 -492q0 -320 -127 -502t-340 -182t-337 173t-124 490z" />
    <glyph glyph-name="one" unicode="1" horiz-adv-x="811" 
d="M369 1198h-60q-150 0 -211 16l-24 7v22q258 12 383 82l16 -16v-1254l283 -28v-27h-666v27l279 28v1143z" />
    <glyph glyph-name="two" unicode="2" horiz-adv-x="1058" 
d="M528 1329q178 0 282 -97t105 -266q0 -169 -112 -320q-57 -77 -111 -139t-142 -134q-87 -72 -135 -111t-134 -101t-103 -75v-4h692q8 53 30 98t38 64l16 18l25 -8q-20 -78 -21 -195v-59h-909l-6 45q293 219 420 336q342 322 342 571q0 139 -81 215t-226 76
q-247 1 -392 -235l-30 18q47 117 161 210q113 93 291 93z" />
    <glyph glyph-name="three" unicode="3" horiz-adv-x="1005" 
d="M750 995q0 125 -77 191t-200 66t-212 -66q-89 -64 -138 -158q-33 16 -35 19q45 117 145 199t261 83q162 0 260 -84t98 -211t-69 -206t-171 -107v-4q127 -25 216 -112q90 -87 90 -253t-130 -270q-130 -102 -339 -102q-113 0 -221 32t-152 72q-4 102 30 190q10 27 13 27h43
q-2 0 -4 -56t22 -147q39 -30 117 -52t164 -21q158 -1 253 81t95 240q0 307 -387 334l8 43q143 4 232 75q88 71 88 197z" />
    <glyph glyph-name="four" unicode="4" horiz-adv-x="1087" 
d="M725 428v741h-6l-569 -741h575zM63 379v22l693 908h73v-881h185v-49h-185v-330l164 -22v-27h-440v27l172 22v330h-662z" />
    <glyph glyph-name="five" unicode="5" horiz-adv-x="1050" 
d="M961 414q0 -211 -128 -323t-358 -111q-111 0 -217 26t-147 66q-15 111 16 211l12 30h47q-14 -127 19 -221q37 -27 115 -47t163 -20q180 0 277 91q96 91 96 266t-130 254t-318 79q-109 0 -232 -25l-6 6l20 613h713l-14 -90h-639l-17 -439q451 73 648 -146q80 -89 80 -220z
" />
    <glyph glyph-name="six" unicode="6" horiz-adv-x="1067" 
d="M579 750q-127 0 -228 -62t-144 -170q15 -496 333 -494q154 0 240 103q86 101 86 275t-80 261t-207 87zM590 807q174 1 279 -105t105 -298t-121 -308q-122 -117 -304 -116q-451 0 -451 595q0 354 134 554t378 200q169 0 258 -73q30 -22 41 -39l-6 -9l-12 -12l-6 -8
q-28 28 -109 49q-215 57 -348 -31q-141 -91 -195 -348q-23 -109 -26 -235q66 86 167 135t216 49z" />
    <glyph glyph-name="seven" unicode="7" horiz-adv-x="1009" 
d="M973 1309v-72l-586 -1237h-86v31l606 1188h-733q-22 -92 -76 -177l-18 -24l-35 8q20 125 21 217v66h907z" />
    <glyph glyph-name="eight" unicode="8" horiz-adv-x="1048" 
d="M538 1286q-128 0 -203 -66t-75 -168q0 -100 49 -158t152 -114l98 -53q102 39 174 120t72 187t-69 179q-70 73 -198 73zM186 305q0 -119 85 -200t247 -81t251 70q89 68 89 197q0 91 -52 155t-167 123l-154 82q-121 -53 -210 -140t-89 -206zM519 -20q-203 0 -317 86
t-114 230q0 142 104 236t254 138l-36 20q-121 63 -185 138q-63 75 -63 204t107 213q108 84 272 84t259 -84t95 -203q0 -118 -87 -208t-210 -127l88 -48q150 -77 213 -151t64 -191q0 -157 -120 -247t-324 -90z" />
    <glyph glyph-name="nine" unicode="9" horiz-adv-x="1067" 
d="M858 788q-14 496 -328 496q-152 0 -241 -102q-88 -102 -88 -276t80 -260q80 -87 207 -87q127 -1 227 61t143 168zM479 502q-174 0 -279 105q-106 105 -106 297t123 308t305 117q446 0 447 -596q0 -354 -133 -554t-377 -199q-127 0 -214 45q-41 19 -83 61l-4 6l26 31
q29 -29 109 -51q438 -120 538 377q23 109 27 235q-66 -86 -166 -134t-213 -48z" />
    <glyph glyph-name="colon" unicode=":" horiz-adv-x="344" 
d="M248 55q0 -31 -23 -53t-53 -22t-54 22q-22 22 -22 53t23 53t53 22t54 -22q22 -22 22 -53zM96 968q0 30 23 52t53 22t54 -22q22 -22 22 -52t-23 -53t-53 -23t-54 24q-22 22 -22 52z" />
    <glyph glyph-name="semicolon" unicode=";" horiz-adv-x="344" 
d="M94 968q0 30 24 52t54 22t52 -22t22 -52t-23 -53t-53 -23t-52 24q-24 22 -24 52zM96 59q0 31 23 49t57 19q34 0 52 -24q19 -24 20 -56q-2 -74 -62 -133t-149 -94l-8 12q106 80 123 156q-56 14 -56 71z" />
    <glyph glyph-name="less" unicode="&#x3c;" horiz-adv-x="1042" 
d="M115 586v49l815 385v-70l-740 -342l740 -342v-67z" />
    <glyph glyph-name="equal" unicode="=" horiz-adv-x="1042" 
d="M115 418v57h815v-57h-815zM115 784v58h815v-58h-815z" />
    <glyph glyph-name="greater" unicode="&#x3e;" horiz-adv-x="1042" 
d="M928 635v-49l-815 -387v67l739 342l-739 342v70z" />
    <glyph glyph-name="question" unicode="?" horiz-adv-x="1005" 
d="M326 55q0 31 22 53q24 22 54 22t53 -22t23 -53t-24 -53q-22 -22 -53 -22t-53 22t-22 53zM467 1411q199 0 317 -94t119 -264q0 -295 -311 -420q-78 -31 -164 -43l-16 -279h-21l-29 357q148 16 278 90q75 41 120 120t45 183q0 151 -96 227q-95 76 -245 76t-245 -74
q-36 -87 -41 -176l-2 -33h-51q-43 86 -35 179q47 57 144 104t233 47z" />
    <glyph glyph-name="at" unicode="@" horiz-adv-x="1820" 
d="M807 240q111 0 207 114t119 252l47 279q-68 104 -191 104q-147 0 -252 -155q-104 -156 -104 -363q0 -111 45 -171t129 -60zM1290 190q141 0 260 138t119 406t-171 456t-484 188q-365 0 -593 -249t-228 -633q0 -182 60 -318t144 -208t196 -114q111 -42 187 -52t150 -11
q203 0 383 74l12 -29q-180 -92 -405 -92q-339 0 -555 167q-76 58 -131 134q-54 76 -89 192t-34 257q1 406 251 668t652 263q178 0 321 -57q143 -56 233 -154q184 -200 183 -485q0 -157 -46 -275t-118 -183q-140 -126 -293 -126q-221 0 -196 228l4 33h-4q-131 -233 -312 -234
q-118 0 -184 78t-65 207q0 241 137 409t323 168q127 0 213 -90l56 86l34 -6l-110 -629q-41 -207 100 -207z" />
    <glyph glyph-name="A" unicode="A" horiz-adv-x="1411" 
d="M672 1262h-2l-275 -727h561zM1393 0h-400v27l152 22l-172 440h-596l-166 -440l151 -22v-27h-342v27l132 22l520 1350l45 12l545 -1362l131 -22v-27z" />
    <glyph glyph-name="B" unicode="B" horiz-adv-x="1302" 
d="M647 1343h-270v-593h272q168 0 270 77q101 78 101 219t-102 220q-103 77 -271 77zM698 705h-321v-658h325q172 0 277 86q104 86 104 242q-1 156 -107 243t-278 87zM698 0h-589v27l163 22v1292l-163 23v27h534q213 0 351 -87t139 -253q0 -127 -83 -208t-225 -110v-4
q167 -27 269 -117t102 -239q0 -180 -140 -277q-141 -96 -358 -96z" />
    <glyph glyph-name="C" unicode="C" horiz-adv-x="1261" 
d="M709 -20q-254 0 -425 183t-171 519t187 532t458 197q106 0 229 -26t133 -25v-53q0 -129 17 -195l6 -27l-33 -12q-68 82 -109 244q-115 47 -262 47q-217 0 -365 -180t-148 -490t142 -476q142 -167 355 -167q287 0 444 279l29 -17q-63 -147 -187 -240t-300 -93z" />
    <glyph glyph-name="D" unicode="D" horiz-adv-x="1447" 
d="M702 1341h-325v-1290h319q227 0 379 176t152 473t-149 469t-376 172zM109 1391h593q274 1 456 -181t181 -502q0 -320 -188 -514t-455 -194h-587v27l163 22v1292l-163 23v27z" />
    <glyph glyph-name="E" unicode="E" horiz-adv-x="1280" 
d="M109 1391h1015v-50q0 -129 15 -231l6 -35l-35 -8q-57 104 -88 274h-645v-608l557 6l22 133h33v-323h-28l-27 133l-557 6v-639h688q20 135 74 252l16 39l31 -6q-20 -119 -21 -266v-68h-1056v27l163 22v1292l-163 23v27z" />
    <glyph glyph-name="F" unicode="F" horiz-adv-x="1234" 
d="M109 1391h1040v-50q0 -112 14 -231l6 -35l-32 -8q-63 104 -88 274h-672v-622l581 6l25 147h33v-352h-29l-29 148l-581 6v-625l174 -22v-27h-442v27l163 22v1292l-163 23v27z" />
    <glyph glyph-name="G" unicode="G" horiz-adv-x="1380" 
d="M786 1411q98 0 236 -26t152 -25v-62q0 -86 14 -180l6 -26l-29 -11q-72 68 -110 234q-129 49 -277 49q-238 0 -398 -183t-159 -501q0 -318 164 -484q164 -167 406 -167q150 0 276 49v475l-137 22v27h348v-27l-107 -22v-469l56 6v-22q-193 -88 -457 -88t-458 165
q-95 82 -150 216t-56 305q0 352 198 548t482 197z" />
    <glyph glyph-name="H" unicode="H" horiz-adv-x="1525" 
d="M983 1391h432v-27l-164 -23v-1292l164 -22v-27h-432v27l164 22v678h-770v-678l164 -22v-27h-432v27l163 22v1292l-163 23v27h432v-27l-164 -23v-565h770v565l-164 23v27z" />
    <glyph glyph-name="I" unicode="I" horiz-adv-x="651" 
d="M109 1391h432v-27l-164 -23v-1292l164 -22v-27h-432v27l163 22v1292l-163 23v27z" />
    <glyph glyph-name="J" unicode="J" horiz-adv-x="638" 
d="M-27 -362q-20 0 -65 4q-4 51 8 110t23 76h55q-4 -12 0 -64t14 -81q86 2 155 48t111 113v1497l-163 23v27h428v-27l-160 -23v-1491q-70 -94 -175 -153t-231 -59z" />
    <glyph glyph-name="K" unicode="K" horiz-adv-x="1398" 
d="M109 1391h432v-27l-164 -23v-612h256l481 612l-149 23v27h352v-27l-133 -23l-471 -591l338 -461q96 -131 183 -195t138 -67v-27h-160q-119 57 -254 233l-321 447h-260v-631l164 -22v-27h-432v27l163 22v1292l-163 23v27z" />
    <glyph glyph-name="L" unicode="L" horiz-adv-x="1171" 
d="M109 1391h432v-27l-164 -23v-1292h624q15 130 72 254l17 37l32 -6q-20 -125 -20 -273v-61h-993v27l163 22v1292l-163 23v27z" />
    <glyph glyph-name="M" unicode="M" horiz-adv-x="1685" 
d="M109 1391h260l475 -1168h4l471 1168h258v-27l-164 -23v-1292l164 -22v-27h-430v27l164 22v1176h-4q-20 -68 -35 -95l-434 -1064h-33l-447 1064l-26 95h-6v-1176l163 -22v-27h-380v27l163 22v1292l-163 23v27z" />
    <glyph glyph-name="N" unicode="N" horiz-adv-x="1509" 
d="M1034 1391h381v-27l-164 -23v-1341h-47l-878 1268v-1219l147 -20l16 -2v-27h-380v27l163 22v1292l-163 23v27h262l827 -1203v1153l-164 23v27z" />
    <glyph glyph-name="O" unicode="O" horiz-adv-x="1396" 
d="M696 1366q-205 0 -340 -185t-135 -491t138 -485q137 -178 343 -178t340 183t136 489q0 307 -138 487t-344 180zM106 684q0 330 174 528t427 199q251 0 417 -188q166 -189 166 -519t-173 -528t-424 -196q-251 0 -419 187t-168 517z" />
    <glyph glyph-name="P" unicode="P" horiz-adv-x="1269" 
d="M109 1391h557q228 0 378 -112q150 -111 150 -317t-144 -325t-348 -119q-104 0 -161 21v24h129q180 1 296 105t116 287t-115 285q-115 101 -297 101h-293v-1292l174 -22v-27h-442v27l163 22v1292l-163 23v27z" />
    <glyph glyph-name="Q" unicode="Q" horiz-adv-x="1396" 
d="M700 1366q-205 0 -342 -185t-137 -493t136 -484q136 -177 341 -177t342 183q138 183 138 490q0 306 -136 486t-342 180zM1212 -322h-180q-84 33 -211 152l-157 152q-242 10 -400 196t-158 511t174 523t427 199q251 0 417 -188t166 -501t-141 -504t-356 -228v-6l143 -127
q152 -135 276 -154v-25z" />
    <glyph glyph-name="R" unicode="R" horiz-adv-x="1335" 
d="M377 1341v-655h407q98 29 174 111q76 83 76 231t-97 230t-257 83h-303zM1300 0h-151q-49 18 -114 90t-124 191l-174 360h-360v-592l166 -22v-27h-434v27l163 22v1292l-163 23v27h565q205 -1 337 -95t132 -272q0 -142 -84 -236t-219 -124v-7l157 -313q124 -248 276 -309
q15 -6 27 -8v-27z" />
    <glyph glyph-name="S" unicode="S" horiz-adv-x="1130" 
d="M109 141q0 61 -23 219l33 15q84 -113 110 -275q137 -72 311 -72t277 91q104 90 105 241q0 213 -244 297l-272 95q-250 84 -250 313q0 182 128 264t318 82q112 0 228 -29t128 -30v-56q0 -115 21 -186l6 -27l-33 -10q-72 82 -112 246q-118 45 -256 45t-234 -65t-96 -201
q0 -184 211 -258l268 -92q293 -98 293 -367q0 -172 -130 -287t-333 -114q-264 0 -454 100v61z" />
    <glyph glyph-name="T" unicode="T" horiz-adv-x="1257" 
d="M74 1391h1110v-64q0 -144 16 -221l4 -29l-30 -6q-63 113 -91 270h-401v-1292l184 -22v-27h-473v27l185 22v1292h-404q-19 -130 -72 -237l-18 -33l-31 6q20 96 21 250v64z" />
    <glyph glyph-name="U" unicode="U" horiz-adv-x="1472" 
d="M1163 383v958l-164 23v27h387v-27l-163 -23v-1040q-39 -154 -166 -238q-127 -83 -318 -83t-321 74t-170 220v1067l-164 23v27h432v-27l-164 -23v-976q0 -152 109 -239t283 -87t297 94q122 94 122 250z" />
    <glyph glyph-name="V" unicode="V" horiz-adv-x="1411" 
d="M20 1391h398v-27l-150 -23l475 -1204h5l454 1204l-151 23v27h342v-27l-136 -23l-514 -1361h-43l-548 1361l-132 23v27z" />
    <glyph glyph-name="W" unicode="W" horiz-adv-x="2093" 
d="M20 1391h398v-27l-150 -23l389 -1185h2l361 1106l-31 90l29 39h69l416 -1235h2l379 1185l-149 23v27h340v-27l-136 -23l-442 -1361h-37l-416 1202l-393 -1202h-37l-462 1361l-132 23v27z" />
    <glyph glyph-name="X" unicode="X" horiz-adv-x="1386" 
d="M942 0v27l145 22l-413 600l-449 -600l125 -22v-27h-317v27l123 22l489 645l-440 647l-142 23v27h410v-27l-143 -21l383 -563l424 561l-125 25v25h311v-25l-121 -25l-461 -604l471 -690l142 -20v-27h-412z" />
    <glyph glyph-name="Y" unicode="Y" horiz-adv-x="1370" 
d="M20 1391h396v-27l-148 -23l441 -702h2l450 702l-143 23v27h334v-27l-129 -23l-490 -759v-533l185 -22v-27h-474v27l185 22v533l-482 759l-127 23v27z" />
    <glyph glyph-name="Z" unicode="Z" horiz-adv-x="1208" 
d="M1055 1391v-45l-846 -1297h788q8 69 31 137t41 101l16 35l37 -9q-20 -96 -20 -252v-61h-1016v45l848 1296h-680q-6 -67 -29 -135t-41 -102l-20 -35l-35 8q20 98 21 252v62h905z" />
    <glyph glyph-name="bracketleft" unicode="[" horiz-adv-x="598" 
d="M502 -254h-365v1737h365v-49h-283v-1639h283v-49z" />
    <glyph glyph-name="backslash" unicode="\" horiz-adv-x="813" 
d="M756 -342h-56l-598 1825h56z" />
    <glyph glyph-name="bracketright" unicode="]" horiz-adv-x="598" 
d="M461 -254h-365v49h283v1639h-283v49h365v-1737z" />
    <glyph glyph-name="asciicircum" unicode="^" horiz-adv-x="882" 
d="M770 750h-61l-271 571l-262 -571h-61l288 641h72z" />
    <glyph glyph-name="underscore" unicode="_" horiz-adv-x="1036" 
d="M0 -283v58h1049v-58h-1049z" />
    <glyph glyph-name="grave" unicode="`" horiz-adv-x="595" 
d="M193 1456h10l254 -276l-23 -21l-301 232z" />
    <glyph glyph-name="a" unicode="a" horiz-adv-x="1046" 
d="M424 43q178 0 295 152q0 61 2 189t2 194q-369 -72 -510 -209v-115q0 -106 59 -159q60 -52 152 -52zM899 45q61 0 113 76l22 -19q-63 -119 -164 -118q-70 0 -110 38t-41 111v17q-43 -49 -79 -80t-102 -61t-141 -29q-121 0 -201 61t-79 197v124q156 178 608 259v112
q0 266 -248 266q-129 0 -229 -77q-23 -76 -23 -150v-29h-53q-39 61 -45 154q140 147 369 147q326 0 325 -317l-6 -594q0 -88 84 -88z" />
    <glyph glyph-name="b" unicode="b" horiz-adv-x="1122" 
d="M578 977q-86 0 -165 -43t-130 -100v-711q104 -98 276 -98t268 134t97 363q0 455 -346 455zM283 1503v-622q51 67 137 115t192 48q206 0 312 -135t106 -381t-130 -398t-337 -150q-176 0 -303 73l-53 -67l-23 8v1438l-149 12v26l235 33h13z" />
    <glyph glyph-name="c" unicode="c" horiz-adv-x="997" 
d="M586 47q184 0 327 182l27 -16q-121 -233 -379 -233q-219 0 -344 134t-125 384t146 398t350 148q94 0 180 -34t133 -86q-4 -88 -49 -179h-61q18 78 -11 183q-88 70 -202 69q-170 0 -278 -132t-108 -359t105 -343t289 -116z" />
    <glyph glyph-name="d" unicode="d" horiz-adv-x="1165" 
d="M545 45q162 0 295 143v715q-111 94 -280 94t-265 -134t-96 -365q0 -453 346 -453zM938 1503v-1452l149 -20v-31h-233l-10 141h-4q-137 -161 -336 -161t-305 133q-107 133 -107 380t130 399t337 152q154 0 281 -63v451l-150 12v26l236 33h12z" />
    <glyph glyph-name="e" unicode="e" horiz-adv-x="993" 
d="M525 1001q-136 -1 -228 -115t-104 -315l618 11v45q0 172 -75 273t-211 101zM537 -20q-209 0 -327 139t-118 387t126 394q126 144 310 144t282 -118q97 -119 97 -318v-78l-714 2v-12q0 -238 95 -356t259 -119q115 0 189 48t143 134l24 -18q-133 -229 -366 -229z" />
    <glyph glyph-name="f" unicode="f" horiz-adv-x="657" 
d="M563 1462q-117 0 -173 -89t-56 -247v-108h260v-49h-260v-920l166 -22v-27h-414v27l147 22v920h-145v30l145 17v106q1 186 93 284t241 97q109 0 172 -39q-2 -88 -43 -180h-47q6 18 3 74t-13 92q-49 12 -76 12z" />
    <glyph glyph-name="g" unicode="g" horiz-adv-x="1083" 
d="M178 -106q0 -96 85 -154t263 -59t286 69t108 168v86q-72 55 -267 76l-256 29l-43 4q-76 -39 -126 -99t-50 -120zM530 424q121 0 197 82t76 209t-74 208t-204 81q-129 0 -199 -81t-70 -208t76 -209t198 -82zM473 383q-211 0 -211 -94q0 -74 135 -86l267 -27
q272 -29 354 -121v-114q0 -121 -139 -212t-359 -91t-326 66q-108 66 -108 175q0 71 60 137t153 109q-125 35 -125 141q0 129 195 146q-98 37 -157 115q-58 79 -58 184q0 147 103 240t269 93q94 1 170 -28q86 0 162 13t109 28l32 12l19 -72q-154 -31 -234 -30v-6
q119 -91 119 -241t-108 -244q-109 -93 -269 -93h-53z" />
    <glyph glyph-name="h" unicode="h" horiz-adv-x="1208" 
d="M338 1501v-624q60 71 156 119t212 48t201 -82q86 -82 86 -251v-662l148 -22v-27h-389v27l143 22v670q0 135 -68 196t-163 61t-180 -39q-85 -40 -146 -103v-785l141 -22v-27h-389v27l148 22v1381l-150 12v26l236 33h14z" />
    <glyph glyph-name="i" unicode="i" horiz-adv-x="559" 
d="M336 1032v-983l147 -22v-27h-395v27l148 22v903l-150 11v26l238 43h12zM201 1354q-1 30 21 52t52 22t53 -22q21 -22 21 -52t-22 -52t-52 -22q-31 0 -52 22t-21 52z" />
    <glyph glyph-name="j" unicode="j" horiz-adv-x="534" 
d="M211 1354q-1 30 21 52t52 22t52 -22t22 -52t-22 -52t-52 -22t-52 22t-21 52zM-29 -362q-41 0 -75 8q-4 76 30 178h51q-4 -16 1 -68t18 -78q82 2 148 44t102 102v1126l-158 13v26l246 43h10v-1194q-60 -90 -160 -145t-213 -55z" />
    <glyph glyph-name="k" unicode="k" horiz-adv-x="1091" 
d="M332 1503v-915h149l357 385l-115 24v27h305v-27l-123 -24l-346 -371l213 -301q92 -129 163 -192t142 -82v-27h-143q-117 63 -234 229l-217 316h-151v-496l137 -22v-27h-385v27l147 22v1383l-149 10v26l237 35h13z" />
    <glyph glyph-name="l" unicode="l" horiz-adv-x="555" 
d="M332 1503v-1454l147 -22v-27h-395v27l147 22v1383l-149 12v26l237 33h13z" />
    <glyph glyph-name="m" unicode="m" horiz-adv-x="1814" 
d="M330 1032v-155h6q59 71 153 119q93 48 187 48t167 -43t107 -129h2q64 70 156 121t208 51t200 -82t83 -251v-662l148 -22v-27h-391v27l145 22v670q0 135 -65 196q-66 61 -166 62q-166 0 -309 -139q16 -59 16 -127v-662l139 -22v-27h-373v27l136 22v670q0 135 -65 196
t-165 62q-174 0 -313 -143v-785l143 -22v-27h-391v27l148 22v903l-150 11v26l231 43h13z" />
    <glyph glyph-name="n" unicode="n" horiz-adv-x="1206" 
d="M330 1032v-155h6q59 71 154 119t212 48t203 -82t86 -251v-662l148 -22v-27h-389v27l143 22v670q0 135 -68 196t-163 61t-180 -39q-85 -40 -146 -103v-785l143 -22v-27h-391v27l148 22v903l-150 11v26l231 43h13z" />
    <glyph glyph-name="o" unicode="o" horiz-adv-x="1091" 
d="M553 25q156 0 248 129t92 359t-98 358t-254 128t-248 -130t-92 -360t98 -357t254 -127zM550 1044q198 0 324 -140t125 -387q0 -247 -130 -392q-129 -145 -327 -145t-324 139t-126 386t130 393t328 146z" />
    <glyph glyph-name="p" unicode="p" horiz-adv-x="1150" 
d="M606 977q-86 0 -165 -43t-130 -100v-713q97 -96 273 -96t272 135t96 364q0 453 -346 453zM307 1032v-151h4q133 163 334 163t307 -133t106 -380t-129 -399q-130 -152 -337 -152q-154 0 -281 61v-334l160 -22v-27h-405v27l147 22v1245l-150 11v26l228 43h16z" />
    <glyph glyph-name="q" unicode="q" horiz-adv-x="1124" 
d="M545 45q162 0 295 143v713q-113 96 -281 96t-264 -133t-96 -362q0 -457 346 -457zM1085 -342h-405v27l160 22v434q-137 -161 -336 -161t-305 134q-107 134 -107 381t130 399t322 150q192 0 318 -75l53 69l23 -2v-1329l147 -22v-27z" />
    <glyph glyph-name="r" unicode="r" horiz-adv-x="821" 
d="M506 0h-418v27l148 22v903l-150 11v26l231 43h13v-184h6q59 86 153 141t201 55q53 0 92 -10q0 -115 -24 -190l-8 -27h-54q-6 115 -26 164q-98 -2 -190 -58t-144 -122v-752l170 -22v-27z" />
    <glyph glyph-name="s" unicode="s" horiz-adv-x="911" 
d="M758 946q0 -87 18 -129l-28 -14q-61 55 -93 166q-90 33 -193 33t-172 -48q-69 -47 -69 -147q0 -135 148 -180l223 -68q115 -35 169 -107t54 -161q0 -143 -101 -227t-255 -84q-205 -1 -346 75v49q0 75 -15 138l-6 20l33 10q61 -80 88 -202q113 -47 237 -47q124 -1 198 65
t73 178q0 70 -42 125t-130 82l-227 70q-90 27 -140 89q-49 62 -49 148q0 140 97 202t214 62t208 -22t106 -23v-53z" />
    <glyph glyph-name="t" unicode="t" horiz-adv-x="733" 
d="M68 975v31l147 18l64 311h34v-311h273v-49h-273v-871q75 -70 177 -70t188 58l18 -29q-117 -84 -233 -83q-156 0 -248 106v889h-147z" />
    <glyph glyph-name="u" unicode="u" horiz-adv-x="1198" 
d="M311 1032v-856q70 -131 242 -131t313 145v762l-151 11v26l231 43h21v-983l147 -22v-27h-229l-11 150h-6q-61 -72 -155 -121t-197 -49q-223 0 -303 190v782l-145 11v26l233 43h10z" />
    <glyph glyph-name="v" unicode="v" horiz-adv-x="1083" 
d="M4 1024h367v-27l-138 -24l345 -846h2l321 846l-131 24v27h307v-27l-121 -24l-381 -993h-36l-414 993l-121 24v27z" />
    <glyph glyph-name="w" unicode="w" horiz-adv-x="1669" 
d="M10 1024h365v-27l-137 -24l301 -846h2l264 737l-51 144l10 26h88l326 -907h2l303 846l-131 24v27h307v-27l-121 -24l-360 -993h-39l-305 811l-297 -811h-39l-369 993l-119 24v27z" />
    <glyph glyph-name="x" unicode="x" horiz-adv-x="1091" 
d="M678 0v27l133 22l-289 416l-321 -416l112 -22v-27h-293v27l115 22l357 459l-322 467l-125 22v27h375v-27l-131 -22l274 -397l307 395l-110 24v27h287v-27l-111 -24l-344 -436l338 -490l129 -20v-27h-381z" />
    <glyph glyph-name="y" unicode="y" horiz-adv-x="1083" 
d="M4 1024h367v-27l-138 -24l353 -850h4l311 852l-131 22v27h307v-27l-123 -24l-358 -975q-74 -205 -153 -283t-224 -77q-49 0 -67 12q-12 102 16 153l10 19h45q4 -84 29 -129q184 0 291 299l-418 981l-121 24v27z" />
    <glyph glyph-name="z" unicode="z" horiz-adv-x="1038" 
d="M915 1024v-43l-727 -932h672q23 128 74 221l18 31l29 -6q-20 -119 -20 -246v-49h-889v43l725 932h-559q-8 -55 -33 -109t-45 -78l-21 -24l-22 8q20 92 20 201v51h778z" />
    <glyph glyph-name="braceleft" unicode="{" horiz-adv-x="741" 
d="M555 -272q-324 0 -301 340l20 292q10 137 -28 182q-39 44 -185 54v37q143 10 184 54q40 44 29 183l-20 293q-23 340 301 340q33 0 111 -8v-35q-185 13 -259 -59q-58 -57 -51 -197l21 -284q10 -147 -33 -212t-170 -90v-6q127 -26 170 -90t33 -211l-21 -284
q-8 -137 56 -202t254 -54v-35q-78 -8 -111 -8z" />
    <glyph glyph-name="bar" unicode="|" horiz-adv-x="462" 
d="M260 -342h-55v1825h55v-1825z" />
    <glyph glyph-name="braceright" unicode="}" horiz-adv-x="741" 
d="M186 1503q324 0 301 -340l-20 -293q-10 -139 30 -183t183 -54v-37q-145 -10 -184 -54t-29 -182l20 -292q23 -340 -301 -340q-33 0 -110 8v35q190 -11 253 54q64 65 56 202l-20 284q-10 147 32 212q43 65 170 89v6q-127 25 -170 90t-32 212l20 284q8 138 -50 196
q-74 73 -259 60v35q78 8 110 8z" />
    <glyph glyph-name="asciitilde" unicode="~" horiz-adv-x="1234" 
d="M882 543q-74 1 -213 67q-140 66 -216 66q-174 0 -293 -156l-45 37q133 186 346 186q92 -1 235 -67t195 -66q120 1 188 99l43 -35q-38 -55 -102 -93t-138 -38z" />
    <glyph glyph-name="DEL" 
 />
    <glyph glyph-name="uni00A0" unicode="&#xa0;" horiz-adv-x="464" 
 />
    <glyph glyph-name="exclamdown" unicode="&#xa1;" horiz-adv-x="598" 
d="M223 969q0 31 23 53q22 22 52 22t52 -22t23 -54q0 -30 -23 -52q-24 -22 -54 -22t-52 22t-21 53zM299 -387q-25 0 -44 14t-24 33l58 1053h20l56 -1053q-8 -47 -66 -47z" />
    <glyph glyph-name="cent" unicode="&#xa2;" horiz-adv-x="1038" 
d="M215 640q0 -210 89 -325t243 -129v942q-147 -20 -239 -149t-93 -339zM598 1133h-4v-949q201 0 340 181l27 -17q-121 -227 -367 -233v-135h-47v135q-203 10 -318 144q-115 135 -115 369t126 378q125 144 307 170v153h47v-149h14q96 0 182 -34t134 -87q-7 -89 -50 -176h-61
q14 86 -12 180q-88 70 -203 70z" />
    <glyph glyph-name="sterling" unicode="&#xa3;" horiz-adv-x="1218" 
d="M1085 1208q0 -82 19 -139l-31 -14q-70 63 -102 186q-123 45 -221 45q-166 0 -251 -116t-85 -308v-186h383v-47h-383v-185q0 -295 -97 -395h687q16 151 71 254l19 37l32 -6q-20 -125 -20 -258v-76h-1004v27l160 22q49 92 49 406v174h-196v47h196v186q0 215 117 341
t322 126q98 -1 208 -27t127 -28v-66z" />
    <glyph glyph-name="yen" unicode="&#xa5;" horiz-adv-x="1384" 
d="M215 588v47h387l-403 625l-125 22v27h395v-27l-145 -22l395 -625h4l410 625l-146 22v27h334v-27l-129 -22l-420 -625h406v-47h-435v-137h435v-48h-435v-354l185 -22v-27h-473v27l184 22v354h-424v48h424v129l-6 8h-418z" />
    <glyph glyph-name="brokenbar" unicode="&#xa6;" horiz-adv-x="514" 
d="M287 758h-60v725h60v-725zM287 -252h-60v725h60v-725z" />
    <glyph glyph-name="section" unicode="&#xa7;" horiz-adv-x="1122" 
d="M215 639q0 -207 246 -289l284 -98q66 -25 113 -57q80 90 80 217q0 205 -246 288l-284 97q-61 20 -115 57q-78 -88 -78 -215zM1030 442q0 -166 -147 -266q98 -86 98 -217q0 -245 -276 -305q-73 -16 -173 -16t-215 28t-124 31v65q0 44 -17 142l-6 22l33 8q68 -59 100 -200
q125 -49 259 -49t228 59q93 59 93 182q0 164 -197 234l-268 92q-295 98 -295 354q0 164 147 266q-98 86 -98 218q0 170 126 246t310 75q113 0 228 -29t125 -30v-66q0 -80 16 -139l6 -23l-33 -10q-68 59 -100 201q-125 49 -259 49t-227 -59t-94 -183q0 -164 197 -231l268 -92
q295 -103 295 -357z" />
    <glyph glyph-name="dieresis" unicode="&#xa8;" horiz-adv-x="688" 
d="M469 1266q-27 0 -45 17t-18 44t18 46t45 19t45 -18q18 -20 18 -47t-18 -44t-45 -17zM219 1266q-27 0 -45 17t-18 44t18 46t44 19t45 -18q19 -20 19 -47t-18 -44t-45 -17z" />
    <glyph glyph-name="copyright" unicode="&#xa9;" horiz-adv-x="1611" 
d="M1087 1069q0 -72 15 -139l-29 -8q-45 47 -74 157q-74 31 -163 31q-144 0 -242 -115t-98 -313t94 -304t231 -108q184 0 291 174l25 -14q-43 -98 -126 -162t-202 -63q-180 0 -298 122t-118 345t129 352t320 129q72 0 156 -16t89 -17v-51zM1481 696q0 280 -198 480
q-197 200 -475 200t-476 -200t-199 -482q0 -280 198 -478t476 -198t476 199t198 479zM94 694q0 297 209 507t506 210t507 -210t210 -507t-210 -506q-210 -208 -507 -208t-506 208t-209 506z" />
    <glyph glyph-name="ordfeminine" unicode="&#xaa;" horiz-adv-x="661" 
d="M260 834q80 0 133 63q0 57 4 188q-164 -39 -231 -100v-61q0 -90 94 -90zM506 823q29 0 55 31l12 -16q-39 -51 -94 -52q-80 0 -86 74q-72 -76 -144 -76q-155 0 -155 136v63q78 88 303 135v45q1 131 -116 131q-59 0 -111 -34l-4 -89h-45q-18 33 -23 82q72 76 195 76
q178 0 178 -166l-4 -293q0 -47 39 -47z" />
    <glyph glyph-name="guillemotleft" unicode="&#xab;" horiz-adv-x="991" 
d="M492 498v49l335 401h56l-295 -426l295 -428h-56zM104 498v49l336 401h56l-295 -426l295 -428h-56z" />
    <glyph glyph-name="logicalnot" unicode="&#xac;" horiz-adv-x="1042" 
d="M115 610v58h815v-469h-60v411h-755z" />
    <glyph glyph-name="registered" unicode="&#xae;" horiz-adv-x="1255" 
d="M635 1153h-123v-276h174q35 12 65 48q29 36 29 97t-41 96t-104 35zM926 580h-92q-49 16 -101 122l-67 146h-154v-242l70 -12v-14h-207v14l67 12v549l-67 14v15h276q87 0 145 -42t58 -120q0 -113 -119 -162v-2l62 -127q63 -127 129 -137v-14zM1128 872q0 208 -146 356
t-352 148t-352 -148t-146 -356t146 -355q146 -148 352 -148t352 148t146 355zM94 872q0 223 157 381t380 158t381 -158t158 -381q0 -224 -158 -380t-381 -156t-380 156t-157 380z" />
    <glyph glyph-name="macron" unicode="&#xaf;" horiz-adv-x="700" 
d="M117 1296v54h479v-54h-479z" />
    <glyph glyph-name="degree" unicode="&#xb0;" horiz-adv-x="686" 
d="M141 1075q1 -88 61 -149q60 -62 144 -62t143 62t60 149q1 89 -59 151t-144 62t-144 -62t-61 -151zM94 1075q0 104 74 179t178 75t179 -75t75 -179t-75 -178t-179 -74t-178 74t-74 178z" />
    <glyph glyph-name="plusminus" unicode="&#xb1;" horiz-adv-x="1042" 
d="M115 55v58h815v-58h-815zM115 598v57h377v359h59v-359h379v-57h-379v-358h-59v358h-377z" />
    <glyph glyph-name="twosuperior" unicode="&#xb2;" horiz-adv-x="737" 
d="M608 664h-487l-4 30q115 82 185 138t136 143q68 86 68 155q0 70 -39 104t-105 34q-122 0 -196 -127l-27 14q29 68 88 121t153 53t148 -51q56 -50 56 -124q1 -133 -139 -255q-107 -91 -230 -174v-4h338q8 70 49 123l23 -2q-16 -57 -17 -133v-45z" />
    <glyph glyph-name="threesuperior" unicode="&#xb3;" horiz-adv-x="690" 
d="M469 1159q0 57 -36 86t-97 29q-60 0 -110 -33t-72 -76l-27 9q23 63 82 109t146 46t139 -42t51 -111q0 -69 -43 -97q-43 -29 -94 -47v-2q170 -41 170 -172q0 -94 -69 -148t-155 -54t-150 16q-62 16 -87 39q0 68 28 113q8 13 11 14h24q-6 -53 0 -115q54 -33 140 -33
q178 0 178 162q0 144 -203 154l8 28q66 4 116 36t50 89z" />
    <glyph glyph-name="acute" unicode="&#xb4;" horiz-adv-x="595" 
d="M387 1456h10l60 -65l-301 -232l-23 21z" />
    <glyph glyph-name="mu" unicode="&#xb5;" horiz-adv-x="1198" 
d="M311 1032v-856q70 -131 242 -131t313 145v762l-151 11v26l231 43h21v-983l147 -22v-27h-229l-11 150h-6q-61 -72 -155 -121t-197 -49q-145 0 -227 77l28 -399h-104v1294l-145 11v26l233 43h10z" />
    <glyph glyph-name="paragraph" unicode="&#xb6;" horiz-adv-x="1097" 
d="M825 78q0 -440 -422 -440q-80 0 -114 18q-8 47 3 97t27 79l15 27h41q-14 -117 20 -170q96 -9 164 21t105 70t62 115q26 75 26 175v1321h237v-27l-164 -23v-1263zM627 1391v-1024q-268 -2 -410 144q-141 145 -141 369t152 368t399 143z" />
    <glyph glyph-name="periodcentered" unicode="&#xb7;" horiz-adv-x="362" 
d="M182 485q-32 1 -54 23t-22 53t23 53t53 21q30 0 54 -22q22 -23 22 -53t-22 -52t-54 -23z" />
    <glyph glyph-name="cedilla" unicode="&#xb8;" horiz-adv-x="565" 
d="M258 -324q125 0 125 87t-176 122v6l84 123h47l-68 -100q186 -33 187 -147q0 -59 -51 -95q-50 -36 -140 -34q-90 0 -164 55l15 24q61 -41 141 -41z" />
    <glyph glyph-name="onesuperior" unicode="&#xb9;" horiz-adv-x="626" 
d="M287 1247h-39l-131 10v21q154 6 225 47l23 -12v-611l149 -16v-22h-371v22l144 16v545z" />
    <glyph glyph-name="ordmasculine" unicode="&#xba;" horiz-adv-x="655" 
d="M170 1056q0 -112 45 -174t118 -61t115 63t41 175q0 113 -44 174q-45 61 -117 61t-115 -63t-43 -175zM332 1329q104 0 170 -71q66 -72 66 -198t-68 -200t-172 -74t-169 71t-65 198t67 201t171 73z" />
    <glyph glyph-name="guillemotright" unicode="&#xbb;" horiz-adv-x="991" 
d="M887 547v-49l-336 -404h-55l295 428l-295 426h55zM500 547v-49l-336 -404h-55l294 428l-294 426h55z" />
    <glyph glyph-name="onequarter" unicode="&#xbc;" horiz-adv-x="1304" 
d="M276 0h-57l924 1309h53zM287 1247h-39l-131 10v21q154 6 225 47l23 -12v-611l149 -16v-22h-371v22l144 16v545zM977 205v364h-2l-268 -364h270zM649 170v20l342 463h64v-448h84v-35h-84v-135l78 -17v-18h-238v18l82 17v135h-328z" />
    <glyph glyph-name="onehalf" unicode="&#xbd;" horiz-adv-x="1368" 
d="M266 0h-57l924 1309h53zM287 1247h-39l-131 10v21q154 6 225 47l23 -12v-611l149 -16v-22h-371v22l144 16v545zM1239 45v-45h-487l-4 31q114 82 184 138t137 142q68 86 68 155q0 70 -39 104t-105 34q-122 0 -196 -127l-27 15q29 68 88 120q58 52 152 54q94 0 149 -52
t55 -124q0 -136 -138 -254q-112 -96 -230 -175v-4h338q9 74 49 123l22 -2q-16 -57 -16 -133z" />
    <glyph glyph-name="threequarters" unicode="&#xbe;" horiz-adv-x="1282" 
d="M252 0h-57l923 1309h53zM469 1159q0 57 -36 86t-97 29q-60 0 -110 -33t-72 -76l-27 9q23 63 82 109t146 46t139 -42t51 -111q0 -69 -43 -97q-43 -29 -94 -47v-2q170 -41 170 -172q0 -94 -69 -148t-155 -54t-150 16q-62 16 -87 39q0 68 28 113q8 13 11 14h24
q-6 -53 0 -115q54 -33 140 -33q178 0 178 162q0 144 -203 154l8 28q66 4 116 36t50 89zM963 205v364h-5l-266 -364h271zM635 170v20l342 463h61v-448h84v-35h-84v-135l78 -17v-18h-235v18l82 17v135h-328z" />
    <glyph glyph-name="questiondown" unicode="&#xbf;" horiz-adv-x="1005" 
d="M528 969q0 31 23 53t53 22t54 -22q22 -22 22 -53t-23 -53t-53 -22t-54 22q-22 22 -22 53zM539 -387q-199 0 -318 94t-119 264q0 109 44 196t117 140q142 103 315 127l16 279h20l29 -357q-147 -16 -277 -90q-75 -41 -120 -120t-45 -183q0 -151 96 -227q95 -76 245 -76
t244 74q28 68 41 176l2 33h52q42 -85 34 -179q-47 -57 -144 -104t-232 -47z" />
    <glyph glyph-name="Agrave" unicode="&#xc0;" horiz-adv-x="1411" 
d="M489 1812h11l254 -276l-23 -20l-301 231zM672 1262h-2l-275 -727h561zM1393 0h-400v27l152 22l-172 440h-596l-166 -440l151 -22v-27h-342v27l132 22l520 1350l45 12l545 -1362l131 -22v-27z" />
    <glyph glyph-name="Aacute" unicode="&#xc1;" horiz-adv-x="1411" 
d="M918 1812h10l59 -65l-301 -231l-22 20zM672 1262h-2l-275 -727h561zM1393 0h-400v27l152 22l-172 440h-596l-166 -440l151 -22v-27h-342v27l132 22l520 1350l45 12l545 -1362l131 -22v-27z" />
    <glyph glyph-name="Acircumflex" unicode="&#xc2;" horiz-adv-x="1411" 
d="M676 1802h41l229 -264l-20 -20l-230 196l-229 -196l-21 20zM672 1262h-2l-275 -727h561zM1393 0h-400v27l152 22l-172 440h-596l-166 -440l151 -22v-27h-342v27l132 22l520 1350l45 12l545 -1362l131 -22v-27z" />
    <glyph glyph-name="Atilde" unicode="&#xc3;" horiz-adv-x="1411" 
d="M862 1608q-60 0 -156 49q-97 49 -157 49q-84 -25 -150 -141l-22 8q16 72 68 135q98 119 295 16q93 -47 143 -47q70 31 118 123l21 -8q-16 -72 -58 -128t-102 -56zM672 1262h-2l-275 -727h561zM1393 0h-400v27l152 22l-172 440h-596l-166 -440l151 -22v-27h-342v27l132 22
l520 1350l45 12l545 -1362l131 -22v-27z" />
    <glyph glyph-name="Adieresis" unicode="&#xc4;" horiz-adv-x="1411" 
d="M827 1622q-27 0 -45 17t-18 44t18 47t45 19q27 0 45 -19q18 -18 18 -46t-18 -45t-45 -17zM514 1683q0 27 18 47t44 19q26 0 46 -19q20 -18 19 -46t-19 -45t-45 -17t-45 17t-18 44zM672 1262h-2l-275 -727h561zM1393 0h-400v27l152 22l-172 440h-596l-166 -440l151 -22
v-27h-342v27l132 22l520 1350l45 12l545 -1362l131 -22v-27z" />
    <glyph glyph-name="Aring" unicode="&#xc5;" horiz-adv-x="1411" 
d="M698 1526q51 0 82 33t31 91t-31 89t-83 31t-83 -34q-30 -32 -30 -89t32 -89t82 -32zM700 1802q80 0 127 -40t47 -112t-49 -115q-49 -42 -130 -42t-128 40t-47 114q0 75 50 115t130 40zM672 1262h-2l-275 -727h561zM1393 0h-400v27l152 22l-172 440h-596l-166 -440
l151 -22v-27h-342v27l132 22l520 1350l45 12l545 -1362l131 -22v-27z" />
    <glyph glyph-name="AE" unicode="&#xc6;" horiz-adv-x="1951" 
d="M944 1337h-4l-455 -809h459v809zM1794 1391v-50q0 -140 16 -231l5 -35l-33 -8q-59 104 -88 274h-645v-608l555 6l24 133h33v-323h-29l-28 133l-555 6v-639h688q14 118 69 252l19 39l33 -6q-20 -119 -21 -266v-68h-1057v27l164 22v434h-485l-244 -434l152 -22v-27h-342v27
l129 22l757 1342h883z" />
    <glyph glyph-name="Ccedilla" unicode="&#xc7;" horiz-adv-x="1261" 
d="M709 -20h-27l-43 -66q186 -33 186 -147q0 -59 -51 -95t-140 -34q-89 0 -163 55l14 24q61 -41 142 -41q125 0 125 87t-177 122v6l62 93q-229 27 -377 205q-147 179 -147 481q0 348 187 544t458 197q106 0 229 -26t133 -25v-53q0 -129 17 -195l6 -27l-33 -12
q-68 82 -109 244q-115 47 -262 47q-217 0 -365 -180t-148 -490t142 -476q142 -167 355 -167q287 0 444 279l29 -17q-63 -147 -187 -240t-300 -93z" />
    <glyph glyph-name="Egrave" unicode="&#xc8;" horiz-adv-x="1280" 
d="M465 1812h10l254 -276l-22 -20l-301 231zM109 1391h1015v-50q0 -129 15 -231l6 -35l-35 -8q-57 104 -88 274h-645v-608l557 6l22 133h33v-323h-28l-27 133l-557 6v-639h688q20 135 74 252l16 39l31 -6q-20 -119 -21 -266v-68h-1056v27l163 22v1292l-163 23v27z" />
    <glyph glyph-name="Eacute" unicode="&#xc9;" horiz-adv-x="1280" 
d="M109 1391h1015v-50q0 -129 15 -231l6 -35l-35 -8q-57 104 -88 274h-645v-608l557 6l22 133h33v-323h-28l-27 133l-557 6v-639h688q20 135 74 252l16 39l31 -6q-20 -119 -21 -266v-68h-1056v27l163 22v1292l-163 23v27zM881 1812h10l59 -65l-301 -231l-22 20z" />
    <glyph glyph-name="Ecircumflex" unicode="&#xca;" horiz-adv-x="1280" 
d="M109 1391h1015v-50q0 -129 15 -231l6 -35l-35 -8q-57 104 -88 274h-645v-608l557 6l22 133h33v-323h-28l-27 133l-557 6v-639h688q20 135 74 252l16 39l31 -6q-20 -119 -21 -266v-68h-1056v27l163 22v1292l-163 23v27zM627 1802h41l229 -264l-20 -20l-230 196l-229 -196
l-21 20z" />
    <glyph glyph-name="Edieresis" unicode="&#xcb;" horiz-adv-x="1280" 
d="M109 1391h1015v-50q0 -129 15 -231l6 -35l-35 -8q-57 104 -88 274h-645v-608l557 6l22 133h33v-323h-28l-27 133l-557 6v-639h688q20 135 74 252l16 39l31 -6q-20 -119 -21 -266v-68h-1056v27l163 22v1292l-163 23v27zM776 1622q-27 0 -45 17t-18 44t18 47t45 19
q27 0 45 -19q19 -18 19 -46t-18 -45t-46 -17zM526 1622q-27 0 -45 17t-18 44t18 47t44 19q26 0 45 -19q20 -18 20 -46t-18 -45t-46 -17z" />
    <glyph glyph-name="Igrave" unicode="&#xcc;" horiz-adv-x="651" 
d="M127 1812h10l254 -276l-22 -20l-301 231zM109 1391h432v-27l-164 -23v-1292l164 -22v-27h-432v27l163 22v1292l-163 23v27z" />
    <glyph glyph-name="Iacute" unicode="&#xcd;" horiz-adv-x="651" 
d="M530 1812h11l59 -65l-301 -231l-23 20zM109 1391h432v-27l-164 -23v-1292l164 -22v-27h-432v27l163 22v1292l-163 23v27z" />
    <glyph glyph-name="Icircumflex" unicode="&#xce;" horiz-adv-x="651" 
d="M307 1802h41l230 -264l-21 -20l-229 196l-230 -196l-20 20zM109 1391h432v-27l-164 -23v-1292l164 -22v-27h-432v27l163 22v1292l-163 23v27z" />
    <glyph glyph-name="Idieresis" unicode="&#xcf;" horiz-adv-x="651" 
d="M453 1622q-27 0 -45 17t-19 44q1 27 19 47t45 19q27 0 45 -19q18 -18 18 -46t-18 -45t-45 -17zM203 1622q-27 0 -45 17t-19 44q1 27 19 47t44 19q26 0 45 -19q19 -18 19 -46t-18 -45t-45 -17zM109 1391h432v-27l-164 -23v-1292l164 -22v-27h-432v27l163 22v1292l-163 23
v27z" />
    <glyph glyph-name="Eth" unicode="&#xd0;" horiz-adv-x="1447" 
d="M702 1341h-325v-565h393v-49h-393v-676h319q227 0 379 176t152 473t-149 469t-376 172zM88 727v49h184v565l-163 23v27h593q274 1 456 -181t181 -502q0 -320 -188 -514t-455 -194h-587v27l163 22v678h-184z" />
    <glyph glyph-name="Ntilde" unicode="&#xd1;" horiz-adv-x="1509" 
d="M922 1577q-58 0 -156 49t-158 49q-84 -25 -149 -141l-23 8q16 72 68 135t128 63q75 0 168 -46q93 -47 142 -47q70 31 119 122l20 -8q-16 -72 -58 -128t-101 -56zM1034 1391h381v-27l-164 -23v-1341h-47l-878 1268v-1219l147 -20l16 -2v-27h-380v27l163 22v1292l-163 23
v27h262l827 -1203v1153l-164 23v27z" />
    <glyph glyph-name="Ograve" unicode="&#xd2;" horiz-adv-x="1396" 
d="M492 1812h10l254 -276l-23 -20l-301 231zM696 1366q-205 0 -340 -185t-135 -491t138 -485q137 -178 343 -178t340 183t136 489q0 307 -138 487t-344 180zM106 684q0 330 174 528t427 199q251 0 417 -188q166 -189 166 -519t-173 -528t-424 -196q-251 0 -419 187t-168 517
z" />
    <glyph glyph-name="Oacute" unicode="&#xd3;" horiz-adv-x="1396" 
d="M696 1366q-205 0 -340 -185t-135 -491t138 -485q137 -178 343 -178t340 183t136 489q0 307 -138 487t-344 180zM106 684q0 330 174 528t427 199q251 0 417 -188q166 -189 166 -519t-173 -528t-424 -196q-251 0 -419 187t-168 517zM905 1812h10l60 -65l-301 -231l-23 20z
" />
    <glyph glyph-name="Ocircumflex" unicode="&#xd4;" horiz-adv-x="1396" 
d="M696 1366q-205 0 -340 -185t-135 -491t138 -485q137 -178 343 -178t340 183t136 489q0 307 -138 487t-344 180zM106 684q0 330 174 528t427 199q251 0 417 -188q166 -189 166 -519t-173 -528t-424 -196q-251 0 -419 187t-168 517zM688 1802h41l229 -264l-20 -20l-229 196
l-230 -196l-20 20z" />
    <glyph glyph-name="Otilde" unicode="&#xd5;" horiz-adv-x="1396" 
d="M864 1608q-60 0 -156 49q-97 49 -157 49q-84 -25 -150 -141l-22 8q16 72 68 135q98 119 295 16q93 -47 143 -47q70 31 119 123l20 -8q-16 -72 -58 -128t-102 -56zM696 1366q-205 0 -340 -185t-135 -491t138 -485q137 -178 343 -178t340 183t136 489q0 307 -138 487
t-344 180zM106 684q0 330 174 528t427 199q251 0 417 -188q166 -189 166 -519t-173 -528t-424 -196q-251 0 -419 187t-168 517z" />
    <glyph glyph-name="Odieresis" unicode="&#xd6;" horiz-adv-x="1396" 
d="M696 1366q-205 0 -340 -185t-135 -491t138 -485q137 -178 343 -178t340 183t136 489q0 307 -138 487t-344 180zM106 684q0 330 174 528t427 199q251 0 417 -188q166 -189 166 -519t-173 -528t-424 -196q-251 0 -419 187t-168 517zM840 1622q-27 0 -45 17t-19 44
q0 27 18 47t46 19q27 0 45 -19q18 -18 18 -46t-18 -45t-45 -17zM590 1622q-27 0 -45 17t-19 44q0 27 18 47t45 19q26 0 45 -19q19 -18 19 -46t-18 -45t-45 -17z" />
    <glyph glyph-name="multiply" unicode="&#xd7;" horiz-adv-x="845" 
d="M156 301l-41 41l266 266l-266 269l41 41l266 -269l270 271l39 -43l-268 -269l270 -268l-41 -41l-270 268z" />
    <glyph glyph-name="Oslash" unicode="&#xd8;" horiz-adv-x="1396" 
d="M690 1366q-199 0 -334 -185t-135 -483t125 -477l674 989q-131 156 -330 156zM1178 691q0 298 -129 480l-672 -989q131 -156 331 -156t335 184q135 183 135 481zM705 1411q209 0 362 -131l88 131h55l-110 -164q190 -195 190 -534t-173 -537t-421 -196q-213 0 -366 131
l-90 -131h-58l113 163q-189 193 -189 532t174 537t425 199z" />
    <glyph glyph-name="Ugrave" unicode="&#xd9;" horiz-adv-x="1472" 
d="M549 1812h10l254 -276l-22 -20l-302 231zM1163 383v958l-164 23v27h387v-27l-163 -23v-1040q-39 -154 -166 -238q-127 -83 -318 -83t-321 74t-170 220v1067l-164 23v27h432v-27l-164 -23v-976q0 -152 109 -239t283 -87t297 94q122 94 122 250z" />
    <glyph glyph-name="Uacute" unicode="&#xda;" horiz-adv-x="1472" 
d="M1163 383v958l-164 23v27h387v-27l-163 -23v-1040q-39 -154 -166 -238q-127 -83 -318 -83t-321 74t-170 220v1067l-164 23v27h432v-27l-164 -23v-976q0 -152 109 -239t283 -87t297 94q122 94 122 250zM954 1812h11l59 -65l-301 -231l-23 20z" />
    <glyph glyph-name="Ucircumflex" unicode="&#xdb;" horiz-adv-x="1472" 
d="M1163 383v958l-164 23v27h387v-27l-163 -23v-1040q-39 -154 -166 -238q-127 -83 -318 -83t-321 74t-170 220v1067l-164 23v27h432v-27l-164 -23v-976q0 -152 109 -239t283 -87t297 94q122 94 122 250zM725 1802h41l229 -264l-20 -20l-230 196l-229 -196l-20 20z" />
    <glyph glyph-name="Udieresis" unicode="&#xdc;" horiz-adv-x="1472" 
d="M1163 383v958l-164 23v27h387v-27l-163 -23v-1040q-39 -154 -166 -238q-127 -83 -318 -83t-321 74t-170 220v1067l-164 23v27h432v-27l-164 -23v-976q0 -152 109 -239t283 -87t297 94q122 94 122 250zM872 1622q-27 0 -45 17t-18 44t18 47t45 19q28 0 46 -19
q18 -18 18 -46t-18 -45t-46 -17zM623 1622q-27 0 -45 17t-19 44q1 27 19 47t44 19q26 0 45 -19q19 -18 19 -46t-18 -45t-45 -17z" />
    <glyph glyph-name="Yacute" unicode="&#xdd;" horiz-adv-x="1370" 
d="M930 1812h10l59 -65l-301 -231l-22 20zM20 1391h396v-27l-148 -23l441 -702h2l450 702l-143 23v27h334v-27l-129 -23l-490 -759v-533l185 -22v-27h-474v27l185 22v533l-482 759l-127 23v27z" />
    <glyph glyph-name="Thorn" unicode="&#xde;" horiz-adv-x="1257" 
d="M541 322h127q178 2 290 102t113 276q0 176 -112 274t-289 97h-293v-1022l174 -22v-27h-442v27l163 22v1292l-163 23v27h432v-27l-164 -23v-221h287q225 0 372 -108q148 -108 148 -306t-142 -313t-340 -114q-96 0 -161 18v25z" />
    <glyph glyph-name="germandbls" unicode="&#xdf;" horiz-adv-x="1232" 
d="M670 1503q139 1 236 -71t98 -191q0 -66 -46 -125t-99 -98q-54 -39 -99 -95q-45 -57 -45 -117t33 -97t100 -78l147 -94q195 -119 195 -283q0 -121 -85 -198q-85 -76 -221 -76t-243 59v55q0 57 -14 127l-4 23l26 10q59 -80 82 -195q74 -33 166 -33t149 56q56 54 56 140
t-37 134t-125 103l-131 82q-84 51 -126 106t-42 128q0 125 133 236q49 40 91 98t42 122q0 96 -72 160q-73 63 -186 63q-305 0 -305 -416v-989l141 -22v-27h-389v27l148 22v920h-158v35l156 14v31q0 209 118 331t310 123z" />
    <glyph glyph-name="agrave" unicode="&#xe0;" horiz-adv-x="1044" 
d="M281 1456h10l254 -276l-23 -21l-301 232zM422 43q178 0 295 152q0 61 2 189t2 194q-369 -72 -510 -209v-115q0 -106 59 -159q60 -52 152 -52zM897 45q61 0 113 76l22 -19q-63 -119 -164 -118q-70 0 -110 38t-41 111v17q-43 -49 -79 -80t-102 -61t-141 -29q-121 0 -201 61
t-79 197v124q156 178 608 259v112q0 266 -248 266q-129 0 -229 -77q-23 -76 -23 -150v-29h-53q-39 61 -45 154q140 147 369 147q326 0 325 -317l-6 -594q0 -88 84 -88z" />
    <glyph glyph-name="aacute" unicode="&#xe1;" horiz-adv-x="1044" 
d="M674 1456h10l59 -65l-301 -232l-22 21zM422 43q178 0 295 152q0 61 2 189t2 194q-369 -72 -510 -209v-115q0 -106 59 -159q60 -52 152 -52zM897 45q61 0 113 76l22 -19q-63 -119 -164 -118q-70 0 -110 38t-41 111v17q-43 -49 -79 -80t-102 -61t-141 -29q-121 0 -201 61
t-79 197v124q156 178 608 259v112q0 266 -248 266q-129 0 -229 -77q-23 -76 -23 -150v-29h-53q-39 61 -45 154q140 147 369 147q326 0 325 -317l-6 -594q0 -88 84 -88z" />
    <glyph glyph-name="acircumflex" unicode="&#xe2;" horiz-adv-x="1044" 
d="M463 1446h41l229 -264l-20 -21l-230 197l-229 -197l-21 21zM422 43q178 0 295 152q0 61 2 189t2 194q-369 -72 -510 -209v-115q0 -106 59 -159q60 -52 152 -52zM897 45q61 0 113 76l22 -19q-63 -119 -164 -118q-70 0 -110 38t-41 111v17q-43 -49 -79 -80t-102 -61
t-141 -29q-121 0 -201 61t-79 197v124q156 178 608 259v112q0 266 -248 266q-129 0 -229 -77q-23 -76 -23 -150v-29h-53q-39 61 -45 154q140 147 369 147q326 0 325 -317l-6 -594q0 -88 84 -88z" />
    <glyph glyph-name="atilde" unicode="&#xe3;" horiz-adv-x="1044" 
d="M358 1415q76 0 168 -47t142 -47q70 31 118 123l21 -8q-16 -72 -58 -128q-41 -56 -101 -56t-158 48q-98 49 -156 50q-84 -25 -150 -142l-22 9q16 72 68 135t128 63zM422 43q178 0 295 152q0 61 2 189t2 194q-369 -72 -510 -209v-115q0 -106 59 -159q60 -52 152 -52z
M897 45q61 0 113 76l22 -19q-63 -119 -164 -118q-70 0 -110 38t-41 111v17q-43 -49 -79 -80t-102 -61t-141 -29q-121 0 -201 61t-79 197v124q156 178 608 259v112q0 266 -248 266q-129 0 -229 -77q-23 -76 -23 -150v-29h-53q-39 61 -45 154q140 147 369 147q326 0 325 -317
l-6 -594q0 -88 84 -88z" />
    <glyph glyph-name="adieresis" unicode="&#xe4;" horiz-adv-x="1044" 
d="M616 1266q-27 0 -45 17t-18 44t18 46t45 19q28 0 46 -18q18 -20 18 -47t-18 -44t-46 -17zM367 1266q-27 0 -45 17t-19 44q1 27 19 46t44 19t45 -18q19 -20 19 -47t-18 -44t-45 -17zM422 43q178 0 295 152q0 61 2 189t2 194q-369 -72 -510 -209v-115q0 -106 59 -159
q60 -52 152 -52zM897 45q61 0 113 76l22 -19q-63 -119 -164 -118q-70 0 -110 38t-41 111v17q-43 -49 -79 -80t-102 -61t-141 -29q-121 0 -201 61t-79 197v124q156 178 608 259v112q0 266 -248 266q-129 0 -229 -77q-23 -76 -23 -150v-29h-53q-39 61 -45 154q140 147 369 147
q326 0 325 -317l-6 -594q0 -88 84 -88z" />
    <glyph glyph-name="aring" unicode="&#xe5;" horiz-adv-x="1044" 
d="M483 1200q51 0 82 33t31 91t-31 89t-83 31t-83 -33t-31 -90t32 -89t83 -32zM485 1477q80 0 127 -40t47 -113t-49 -115t-130 -42t-128 40t-47 114t50 115t130 41zM422 43q178 0 295 152q0 61 2 189t2 194q-369 -72 -510 -209v-115q0 -106 59 -159q60 -52 152 -52zM897 45
q61 0 113 76l22 -19q-63 -119 -164 -118q-70 0 -110 38t-41 111v17q-43 -49 -79 -80t-102 -61t-141 -29q-121 0 -201 61t-79 197v124q156 178 608 259v112q0 266 -248 266q-129 0 -229 -77q-23 -76 -23 -150v-29h-53q-39 61 -45 154q140 147 369 147q326 0 325 -317l-6 -594
q0 -88 84 -88z" />
    <glyph glyph-name="ae" unicode="&#xe6;" horiz-adv-x="1617" 
d="M1150 1001q-136 -1 -228 -115t-105 -315l619 11v45q0 172 -75 273t-211 101zM442 43q199 0 338 162q-63 131 -63 319q0 27 2 54q-369 -70 -510 -209v-115q0 -106 65 -159q66 -52 168 -52zM1152 -20q-243 0 -357 196q-51 -55 -93 -91t-122 -71q-78 -35 -164 -34
q-131 0 -217 61t-86 197v124q147 170 606 259q2 37 2 112q0 266 -250 266q-125 0 -229 -77q-21 -69 -21 -150v-29h-55q-37 61 -45 154q139 147 371 147q264 0 307 -227q55 107 148 167t206 60q184 0 282 -118q97 -119 97 -318v-78l-715 2v-12q0 -238 95 -356t259 -119
q115 0 189 48t143 134l25 -18q-133 -229 -376 -229z" />
    <glyph glyph-name="ccedilla" unicode="&#xe7;" horiz-adv-x="1001" 
d="M586 47q184 0 327 182l27 -16q-121 -233 -379 -233q-23 0 -35 2l-43 -68q186 -33 187 -147q0 -59 -52 -95t-140 -34q-89 0 -163 55l15 24q61 -41 141 -41q125 0 125 87t-176 122v6l63 95q-184 22 -287 154q-104 132 -104 370t146 386t350 148q94 0 180 -34t133 -86
q-4 -88 -49 -179h-61q18 78 -11 183q-88 70 -202 69q-170 0 -278 -132t-108 -359t105 -343t289 -116z" />
    <glyph glyph-name="egrave" unicode="&#xe8;" horiz-adv-x="993" 
d="M322 1456h10l254 -276l-23 -21l-301 232zM525 1001q-136 -1 -228 -115t-104 -315l618 11v45q0 172 -75 273t-211 101zM537 -20q-209 0 -327 139t-118 387t126 394q126 144 310 144t282 -118q97 -119 97 -318v-78l-714 2v-12q0 -238 95 -356t259 -119q115 0 189 48
t143 134l24 -18q-133 -229 -366 -229z" />
    <glyph glyph-name="eacute" unicode="&#xe9;" horiz-adv-x="993" 
d="M525 1001q-136 -1 -228 -115t-104 -315l618 11v45q0 172 -75 273t-211 101zM537 -20q-209 0 -327 139t-118 387t126 394q126 144 310 144t282 -118q97 -119 97 -318v-78l-714 2v-12q0 -238 95 -356t259 -119q115 0 189 48t143 134l24 -18q-133 -229 -366 -229zM727 1456
h10l60 -65l-301 -232l-23 21z" />
    <glyph glyph-name="ecircumflex" unicode="&#xea;" horiz-adv-x="993" 
d="M525 1001q-136 -1 -228 -115t-104 -315l618 11v45q0 172 -75 273t-211 101zM537 -20q-209 0 -327 139t-118 387t126 394q126 144 310 144t282 -118q97 -119 97 -318v-78l-714 2v-12q0 -238 95 -356t259 -119q115 0 189 48t143 134l24 -18q-133 -229 -366 -229zM498 1446
h41l229 -264l-20 -21l-230 197l-229 -197l-21 21z" />
    <glyph glyph-name="edieresis" unicode="&#xeb;" horiz-adv-x="993" 
d="M525 1001q-136 -1 -228 -115t-104 -315l618 11v45q0 172 -75 273t-211 101zM537 -20q-209 0 -327 139t-118 387t126 394q126 144 310 144t282 -118q97 -119 97 -318v-78l-714 2v-12q0 -238 95 -356t259 -119q115 0 189 48t143 134l24 -18q-133 -229 -366 -229zM639 1266
q-27 0 -45 17t-19 44q1 27 19 46t45 19t45 -18q18 -20 18 -47t-18 -44t-45 -17zM389 1266q-27 0 -45 17t-18 44t18 46t44 19t45 -18q19 -20 19 -47t-18 -44t-45 -17z" />
    <glyph glyph-name="igrave" unicode="&#xec;" horiz-adv-x="559" 
d="M78 1456h10l254 -276l-23 -21l-301 232zM336 1032v-983l147 -22v-27h-395v27l148 22v903l-150 11v26l238 43h12z" />
    <glyph glyph-name="iacute" unicode="&#xed;" horiz-adv-x="559" 
d="M336 1032v-983l147 -22v-27h-395v27l148 22v903l-150 11v26l238 43h12zM463 1456h10l59 -65l-301 -232l-22 21z" />
    <glyph glyph-name="icircumflex" unicode="&#xee;" horiz-adv-x="559" 
d="M336 1032v-983l147 -22v-27h-395v27l148 22v903l-150 11v26l238 43h12zM258 1446h41l229 -264l-20 -21l-229 197l-230 -197l-20 21z" />
    <glyph glyph-name="idieresis" unicode="&#xef;" horiz-adv-x="559" 
d="M336 1032v-983l147 -22v-27h-395v27l148 22v903l-150 11v26l238 43h12zM397 1266q-27 0 -45 17t-18 44t18 46t45 19t45 -18q18 -20 18 -47t-18 -44t-45 -17zM147 1266q-27 0 -45 17t-18 44t18 46t44 19t45 -18q19 -20 19 -47t-18 -44t-45 -17z" />
    <glyph glyph-name="eth" unicode="&#xf0;" horiz-adv-x="1091" 
d="M553 25q156 0 248 129t92 359t-98 358t-254 128t-248 -130t-92 -360t98 -357t254 -127zM542 -20q-198 0 -324 139t-126 386t130 393t332 146t306 -170q-59 219 -215 386l-194 -86l-19 36l178 82q-82 82 -221 176l29 35q141 -74 258 -180l188 82l21 -39l-176 -78
q291 -303 290 -772q0 -246 -130 -391q-129 -145 -327 -145z" />
    <glyph glyph-name="ntilde" unicode="&#xf1;" horiz-adv-x="1206" 
d="M480 1415q75 0 168 -47t143 -47q70 31 118 123l21 -8q-16 -72 -58 -128t-102 -56q-58 0 -156 48q-98 49 -157 50q-84 -25 -150 -142l-22 9q16 72 68 135t127 63zM330 1032v-155h6q59 71 154 119t212 48t203 -82t86 -251v-662l148 -22v-27h-389v27l143 22v670
q0 135 -68 196t-163 61t-180 -39q-85 -40 -146 -103v-785l143 -22v-27h-391v27l148 22v903l-150 11v26l231 43h13z" />
    <glyph glyph-name="ograve" unicode="&#xf2;" horiz-adv-x="1091" 
d="M346 1456h10l254 -276l-22 -21l-301 232zM553 25q156 0 248 129t92 359t-98 358t-254 128t-248 -130t-92 -360t98 -357t254 -127zM550 1044q198 0 324 -140t125 -387q0 -247 -130 -392q-129 -145 -327 -145t-324 139t-126 386t130 393t328 146z" />
    <glyph glyph-name="oacute" unicode="&#xf3;" horiz-adv-x="1091" 
d="M553 25q156 0 248 129t92 359t-98 358t-254 128t-248 -130t-92 -360t98 -357t254 -127zM550 1044q198 0 324 -140t125 -387q0 -247 -130 -392q-129 -145 -327 -145t-324 139t-126 386t130 393t328 146zM739 1456h11l59 -65l-301 -232l-23 21z" />
    <glyph glyph-name="ocircumflex" unicode="&#xf4;" horiz-adv-x="1091" 
d="M553 25q156 0 248 129t92 359t-98 358t-254 128t-248 -130t-92 -360t98 -357t254 -127zM550 1044q198 0 324 -140t125 -387q0 -247 -130 -392q-129 -145 -327 -145t-324 139t-126 386t130 393t328 146zM532 1446h41l230 -264l-21 -21l-229 197l-229 -197l-21 21z" />
    <glyph glyph-name="otilde" unicode="&#xf5;" horiz-adv-x="1091" 
d="M425 1415q75 0 168 -47t142 -47q70 31 119 123l20 -8q-16 -72 -58 -128t-101 -56t-157 48q-98 49 -157 50q-84 -25 -149 -142l-23 9q17 72 69 135t127 63zM553 25q156 0 248 129t92 359t-98 358t-254 128t-248 -130t-92 -360t98 -357t254 -127zM550 1044q198 0 324 -140
t125 -387q0 -247 -130 -392q-129 -145 -327 -145t-324 139t-126 386t130 393t328 146z" />
    <glyph glyph-name="odieresis" unicode="&#xf6;" horiz-adv-x="1091" 
d="M553 25q156 0 248 129t92 359t-98 358t-254 128t-248 -130t-92 -360t98 -357t254 -127zM550 1044q198 0 324 -140t125 -387q0 -247 -130 -392q-129 -145 -327 -145t-324 139t-126 386t130 393t328 146zM678 1266q-27 0 -45 17t-19 44q0 27 18 46t46 19q27 0 45 -18
q18 -20 18 -47t-18 -44t-45 -17zM428 1266q-27 0 -45 17t-18 44t18 46t44 19t45 -18q20 -20 20 -47t-18 -44t-46 -17z" />
    <glyph glyph-name="divide" unicode="&#xf7;" horiz-adv-x="1042" 
d="M453 268q-1 28 21 50t50 22t50 -22t22 -50t-22 -50t-50 -22t-50 22q-21 21 -21 50zM115 578v59h815v-59h-815zM453 946q-1 28 21 50t50 22t50 -22t22 -50t-22 -50t-50 -22t-50 22q-21 22 -21 50z" />
    <glyph glyph-name="oslash" unicode="&#xf8;" horiz-adv-x="1091" 
d="M201 526q0 -213 71 -336l519 682q-96 127 -251 127t-247 -130t-92 -343zM551 25q158 0 250 129t92 341t-76 341l-520 -684q96 -127 254 -127zM536 1044q184 0 304 -106l82 106h53l-105 -137q129 -145 129 -391t-130 -391t-316 -145t-305 106l-80 -106h-55l104 139
q-125 141 -125 387t130 392t314 146z" />
    <glyph glyph-name="ugrave" unicode="&#xf9;" horiz-adv-x="1198" 
d="M379 1456h10l254 -276l-22 -21l-302 232zM311 1032v-856q70 -131 242 -131t313 145v762l-151 11v26l231 43h21v-983l147 -22v-27h-229l-11 150h-6q-61 -72 -155 -121t-197 -49q-223 0 -303 190v782l-145 11v26l233 43h10z" />
    <glyph glyph-name="uacute" unicode="&#xfa;" horiz-adv-x="1198" 
d="M311 1032v-856q70 -131 242 -131t313 145v762l-151 11v26l231 43h21v-983l147 -22v-27h-229l-11 150h-6q-61 -72 -155 -121t-197 -49q-223 0 -303 190v782l-145 11v26l233 43h10zM778 1456h10l60 -65l-301 -232l-23 21z" />
    <glyph glyph-name="ucircumflex" unicode="&#xfb;" horiz-adv-x="1198" 
d="M311 1032v-856q70 -131 242 -131t313 145v762l-151 11v26l231 43h21v-983l147 -22v-27h-229l-11 150h-6q-61 -72 -155 -121t-197 -49q-223 0 -303 190v782l-145 11v26l233 43h10zM575 1446h41l230 -264l-21 -21l-229 197l-229 -197l-21 21z" />
    <glyph glyph-name="udieresis" unicode="&#xfc;" horiz-adv-x="1198" 
d="M311 1032v-856q70 -131 242 -131t313 145v762l-151 11v26l231 43h21v-983l147 -22v-27h-229l-11 150h-6q-61 -72 -155 -121t-197 -49q-223 0 -303 190v782l-145 11v26l233 43h10zM700 1266q-27 0 -45 17t-18 44t18 46t45 19t45 -18q19 -20 19 -47t-18 -44t-46 -17z
M451 1266q-27 0 -45 17t-19 44q1 27 19 46t44 19t45 -18q19 -20 19 -47t-18 -44t-45 -17z" />
    <glyph glyph-name="yacute" unicode="&#xfd;" horiz-adv-x="1083" 
d="M799 1456h10l59 -65l-301 -232l-22 21zM4 1024h367v-27l-138 -24l353 -850h4l311 852l-131 22v27h307v-27l-123 -24l-358 -975q-74 -205 -153 -283t-224 -77q-49 0 -67 12q-12 102 16 153l10 19h45q4 -84 29 -129q184 0 291 299l-418 981l-121 24v27z" />
    <glyph glyph-name="thorn" unicode="&#xfe;" horiz-adv-x="1150" 
d="M606 977q-86 0 -165 -43t-130 -100v-713q97 -96 273 -96t272 135t96 364q0 453 -346 453zM311 1501v-620q51 67 137 115t193 48q205 0 311 -133t106 -380t-129 -399q-130 -152 -337 -152q-154 0 -281 61v-334l160 -22v-27h-405v27l147 22v1723l-150 10v28l234 33h14z" />
    <glyph glyph-name="ydieresis" unicode="&#xff;" horiz-adv-x="1083" 
d="M655 1266q-27 0 -45 17t-18 44t18 46t45 19t45 -18q18 -20 18 -47t-18 -44t-45 -17zM469 1327q-1 -27 -19 -44t-45 -17t-45 17t-18 44t18 46t44 19t46 -18q20 -20 19 -47zM4 1024h367v-27l-138 -24l353 -850h4l311 852l-131 22v27h307v-27l-123 -24l-358 -975
q-74 -205 -153 -283t-224 -77q-49 0 -67 12q-12 102 16 153l10 19h45q4 -84 29 -129q184 0 291 299l-418 981l-121 24v27z" />
    <glyph glyph-name="dotlessi" unicode="&#x131;" horiz-adv-x="559" 
d="M336 1032v-983l147 -22v-27h-395v27l148 22v903l-150 11v26l238 43h12z" />
    <glyph glyph-name="Lslash" unicode="&#x141;" horiz-adv-x="1171" 
d="M109 1391h432v-27l-164 -23v-510l282 213v-65l-282 -213v-717h624q15 130 72 254l17 37l32 -6q-20 -125 -20 -273v-61h-993v27l163 22v637l-198 -149v65l198 150v589l-163 23v27z" />
    <glyph glyph-name="lslash" unicode="&#x142;" horiz-adv-x="555" 
d="M332 1503v-641l241 182v-65l-241 -182v-748l147 -22v-27h-395v27l147 22v672l-243 -184v65l243 184v646l-149 12v26l237 33h13z" />
    <glyph glyph-name="OE" unicode="&#x152;" horiz-adv-x="1847" 
d="M705 27q74 0 135 26v1282q-68 31 -144 31q-205 0 -340 -185t-135 -491q1 -306 139 -485q138 -178 345 -178zM696 -20q-252 0 -421 187t-169 516t176 529t423 199q84 0 153 -20h834v-50q0 -140 16 -231l4 -35l-35 -8q-57 104 -88 274h-645v-608l557 6l25 133h30v-323h-26
l-29 133l-557 6v-639h688q18 119 72 252l18 39l31 -6q-20 -119 -20 -266v-68h-889q-82 -20 -148 -20z" />
    <glyph glyph-name="oe" unicode="&#x153;" horiz-adv-x="1792" 
d="M1324 1001q-136 1 -228 -115t-105 -315l619 11v45q0 172 -75 273t-211 101zM553 25q156 0 248 129t92 359t-98 358t-254 128t-248 -130t-92 -360t98 -357t254 -127zM1335 -20q-299 0 -393 276q-54 -133 -158 -205t-239 -71q-201 0 -327 139t-126 386t130 393t327 146
q139 0 243 -71q103 -72 154 -207q54 131 154 205t227 73q184 0 283 -118q98 -119 98 -318v-78l-717 2v-12q0 -236 95 -356t260 -119q115 0 190 48t143 134l23 -18q-133 -229 -367 -229z" />
    <glyph glyph-name="Scaron" unicode="&#x160;" horiz-adv-x="1130" 
d="M109 141q0 61 -23 219l33 15q84 -113 110 -275q137 -72 311 -72t277 91q104 90 105 241q0 213 -244 297l-272 95q-250 84 -250 313q0 182 128 264t318 82q112 0 228 -29t128 -30v-56q0 -115 21 -186l6 -27l-33 -10q-72 82 -112 246q-118 45 -256 45t-234 -65t-96 -201
q0 -184 211 -258l268 -92q293 -98 293 -367q0 -172 -130 -287t-333 -114q-264 0 -454 100v61zM604 1513h-41l-229 265l20 18l230 -194l229 194l21 -18z" />
    <glyph glyph-name="scaron" unicode="&#x161;" horiz-adv-x="911" 
d="M758 946q0 -87 18 -129l-28 -14q-61 55 -93 166q-90 33 -193 33t-172 -48q-69 -47 -69 -147q0 -135 148 -180l223 -68q115 -35 169 -107t54 -161q0 -143 -101 -227t-255 -84q-205 -1 -346 75v49q0 75 -15 138l-6 20l33 10q61 -80 88 -202q113 -47 237 -47q124 -1 198 65
t73 178q0 70 -42 125t-130 82l-227 70q-90 27 -140 89q-49 62 -49 148q0 140 97 202t214 62t208 -22t106 -23v-53zM485 1157h-41l-229 264l21 19l229 -195l229 195l21 -19z" />
    <glyph glyph-name="Ydieresis" unicode="&#x178;" horiz-adv-x="1370" 
d="M807 1622q-27 0 -45 17t-19 44q1 27 19 47t45 19q27 0 45 -19q18 -18 18 -46t-18 -45t-45 -17zM557 1622q-27 0 -45 17t-18 44t18 47t44 19q26 0 45 -19q19 -18 19 -46t-18 -45t-45 -17zM20 1391h396v-27l-148 -23l441 -702h2l450 702l-143 23v27h334v-27l-129 -23
l-490 -759v-533l185 -22v-27h-474v27l185 22v533l-482 759l-127 23v27z" />
    <glyph glyph-name="Zcaron" unicode="&#x17d;" horiz-adv-x="1208" 
d="M1055 1391v-45l-846 -1297h788q8 69 31 137t41 101l16 35l37 -9q-20 -96 -20 -252v-61h-1016v45l848 1296h-680q-6 -67 -29 -135t-41 -102l-20 -35l-35 8q20 98 21 252v62h905zM621 1513h-41l-230 265l21 18l229 -194l229 194l21 -18z" />
    <glyph glyph-name="zcaron" unicode="&#x17e;" horiz-adv-x="1038" 
d="M915 1024v-43l-727 -932h672q23 128 74 221l18 31l29 -6q-20 -119 -20 -246v-49h-889v43l725 932h-559q-8 -55 -33 -109t-45 -78l-21 -24l-22 8q20 92 20 201v51h778zM537 1157h-41l-230 264l21 19l229 -195l229 195l21 -19z" />
    <glyph glyph-name="florin" unicode="&#x192;" horiz-adv-x="997" 
d="M827 1288q-117 0 -189 -85t-95 -236l-37 -234h274v-47h-282l-105 -666q-31 -190 -121 -286t-221 -96q-63 0 -149 36q6 78 69 179l66 -9q-43 -102 -47 -159q37 -6 57 -7q195 0 246 324l108 684h-229v47h236l34 215q29 186 133 284t250 97q89 0 157 -30q17 -7 19 -7
q-6 -76 -67 -184l-66 10q0 2 22 55t25 101q-57 14 -88 14z" />
    <glyph glyph-name="circumflex" unicode="&#x2c6;" horiz-adv-x="761" 
d="M362 1446h41l230 -264l-21 -21l-229 197l-229 -197l-21 21z" />
    <glyph glyph-name="caron" unicode="&#x2c7;" horiz-adv-x="761" 
d="M403 1157h-41l-229 264l21 19l229 -195l229 195l21 -19z" />
    <glyph glyph-name="breve" unicode="&#x2d8;" horiz-adv-x="667" 
d="M339 1274q83 0 134 48t68 120l34 -10q-18 -96 -78 -160q-59 -64 -157 -64t-158 64t-78 160l33 8q15 -72 67 -119t135 -47z" />
    <glyph glyph-name="dotaccent" unicode="&#x2d9;" horiz-adv-x="456" 
d="M229 1255q-31 1 -53 23t-22 53t22 53t54 21q30 0 53 -22q23 -23 23 -53t-24 -52q-22 -22 -53 -23z" />
    <glyph glyph-name="ring" unicode="&#x2da;" horiz-adv-x="585" 
d="M295 1200q51 0 82 33t31 91t-31 89t-83 31t-83 -33t-31 -90t32 -89t83 -32zM297 1477q80 0 127 -40t47 -113t-49 -115t-130 -42t-128 40t-47 114t50 115t130 41z" />
    <glyph glyph-name="ogonek" unicode="&#x2db;" horiz-adv-x="585" 
d="M178 -170q0 -134 158 -135q70 0 131 45l22 -33q-74 -69 -171 -69q-212 1 -214 165q0 186 353 281l8 -27q-115 -33 -201 -94t-86 -133z" />
    <glyph glyph-name="tilde" unicode="&#x2dc;" horiz-adv-x="1005" 
d="M376 1415q75 0 168 -47t142 -47q70 31 119 123l20 -8q-16 -72 -58 -128t-101 -56q-58 0 -156 48q-98 49 -158 50q-84 -25 -149 -142l-23 9q16 72 68 135t128 63z" />
    <glyph glyph-name="hungarumlaut" unicode="&#x2dd;" horiz-adv-x="782" 
d="M334 1188l307 213l51 -60v-16l-336 -164zM352 1456h10l58 -63l-303 -232l-25 27z" />
    <glyph glyph-name="pi" unicode="&#x3c0;" horiz-adv-x="1187" 
d="M66 942h1062l-495 -881z" />
    <glyph glyph-name="endash" unicode="&#x2013;" horiz-adv-x="1038" 
d="M113 541v57h813v-57h-813z" />
    <glyph glyph-name="emdash" unicode="&#x2014;" horiz-adv-x="1650" 
d="M113 541v57h1425v-57h-1425z" />
    <glyph glyph-name="quoteleft" unicode="&#x2018;" horiz-adv-x="376" 
d="M258 1169q0 -31 -22 -49t-57 -18q-34 0 -53 24t-20 56q2 74 62 133t149 94l9 -12q-106 -80 -123 -156q55 -15 55 -72z" />
    <glyph glyph-name="quoteright" unicode="&#x2019;" horiz-adv-x="376" 
d="M117 1343q0 31 22 50q23 18 57 18q34 1 53 -23t19 -57q-2 -74 -62 -133t-149 -94l-8 12q106 80 123 156q-55 14 -55 71z" />
    <glyph glyph-name="quotesinglbase" unicode="&#x201a;" horiz-adv-x="344" 
d="M96 59q0 31 23 49t57 19q34 0 52 -24q19 -24 20 -56q-2 -74 -62 -133t-149 -94l-8 12q106 80 123 156q-56 14 -56 71z" />
    <glyph glyph-name="quotedblleft" unicode="&#x201c;" horiz-adv-x="667" 
d="M549 1169q0 -31 -23 -49q-22 -18 -56 -18t-53 24t-20 56q3 74 63 133t148 94l8 -12q-106 -80 -122 -156q55 -15 55 -72zM258 1169q0 -31 -22 -49t-57 -18q-34 0 -53 24t-20 56q2 74 62 133t149 94l9 -12q-106 -80 -123 -156q55 -15 55 -72z" />
    <glyph glyph-name="quotedblright" unicode="&#x201d;" horiz-adv-x="665" 
d="M406 1343q0 31 22 50q22 18 56 18t54 -23q19 -24 19 -57q-2 -74 -62 -133t-149 -94l-8 12q106 80 123 156q-55 14 -55 71zM117 1343q0 31 22 50q23 18 57 18q34 1 53 -23t19 -57q-2 -74 -62 -133t-149 -94l-8 12q106 80 123 156q-55 14 -55 71z" />
    <glyph glyph-name="quotedblbase" unicode="&#x201e;" horiz-adv-x="632" 
d="M387 59q0 31 23 49q22 18 56 19q34 0 53 -24t20 -56q-3 -74 -63 -133t-148 -94l-9 12q106 80 123 156q-55 14 -55 71zM96 59q0 31 23 49t57 19q34 0 52 -24q19 -24 20 -56q-2 -74 -62 -133t-149 -94l-8 12q106 80 123 156q-56 14 -56 71z" />
    <glyph glyph-name="dagger" unicode="&#x2020;" horiz-adv-x="1083" 
d="M590 1391l-23 -365l404 16v-71l-404 16l23 -293l-23 -694h-49l-22 694l22 293l-403 -16v71l403 -18l-22 367h94z" />
    <glyph glyph-name="daggerdbl" unicode="&#x2021;" horiz-adv-x="1083" 
d="M115 971v71l403 -18l-22 367h94l-23 -365l404 16v-71l-404 16l23 -293l-23 -293l404 19v-72l-404 17l23 -365h-94l22 365l-403 -17v72l403 -17l-22 291l22 293z" />
    <glyph glyph-name="bullet" unicode="&#x2022;" horiz-adv-x="620" 
d="M197 548q0 46 33 79q34 33 81 33t80 -34q33 -32 33 -78t-34 -79t-80 -33t-80 33q-33 33 -33 79z" />
    <glyph glyph-name="ellipsis" unicode="&#x2026;" horiz-adv-x="1040" 
d="M793 54q1 30 23 52t52 23t54 -21q22 -22 22 -53t-22 -53t-53 -22q-30 0 -53 22t-23 52zM596 55q0 -31 -23 -53t-53 -22t-54 22q-22 22 -22 53t23 53t53 22t54 -22q22 -22 22 -53zM248 55q0 -31 -23 -53t-53 -22t-54 22q-22 22 -22 53t23 53t53 22t54 -22q22 -22 22 -53z
" />
    <glyph glyph-name="perthousand" unicode="&#x2030;" horiz-adv-x="1968" 
d="M1624 653q112 0 178 -86t66 -246q0 -161 -68 -251t-180 -90t-178 86t-66 244t68 251q68 92 180 92zM1621 12q79 0 123 81t44 225t-44 224t-123 79q-79 0 -123 -82q-44 -81 -44 -225t44 -223t123 -79zM1022 653q112 0 178 -86t66 -246q0 -161 -68 -251t-180 -90t-178 86
t-66 244t68 251q68 92 180 92zM1019 12q79 0 123 81t44 225t-44 224t-123 79q-79 0 -123 -82q-44 -81 -44 -225t44 -223t123 -79zM406 0h-58l637 1309h55zM359 1329q112 0 178 -86q65 -86 65 -246t-68 -251t-180 -91t-178 86t-66 246t69 251q68 91 180 91zM357 688
q79 0 123 81t44 225t-44 224t-123 78q-79 0 -123 -82t-44 -225t44 -222t123 -79z" />
    <glyph glyph-name="guilsinglleft" unicode="&#x2039;" horiz-adv-x="604" 
d="M104 498v49l336 401h56l-295 -426l295 -428h-56z" />
    <glyph glyph-name="guilsinglright" unicode="&#x203a;" horiz-adv-x="604" 
d="M500 547v-49l-336 -404h-55l294 428l-294 426h55z" />
    <glyph glyph-name="fraction" unicode="&#x2044;" horiz-adv-x="968" 
d="M55 0h-57l924 1309h53z" />
    <glyph glyph-name="Euro" unicode="&#x20ac;" horiz-adv-x="1329" 
d="M100 752v47h127q39 256 205 394t385 138q117 -1 233 -27t126 -26v-57q0 -121 16 -193l4 -24l-37 -13q-66 78 -104 246q-102 45 -265 45t-292 -125t-160 -358h434v-47h-438q-4 -57 -4 -103t2 -76h440v-47h-434q30 -227 152 -351t290 -124q276 0 434 279l31 -17
q-67 -147 -185 -240t-292 -93q-210 0 -362 144t-183 402h-123v47h119q-2 25 -2 69t4 110h-121z" />
    <glyph glyph-name="trademark" unicode="&#x2122;" horiz-adv-x="1619" 
d="M104 1346v45h566v-45l10 -121l-23 -4q-35 63 -45 135h-184v-629l86 -12v-19h-254v19l90 12v629h-188q-7 -54 -47 -135l-21 4q10 55 10 121zM760 1391h160l227 -555h2l221 555h162v-19l-80 -12v-633l80 -12v-19h-238v19l80 12v559h-2q-8 -31 -16 -51l-205 -506h-35
l-213 504l-16 53h-4v-559l80 -12v-19h-203v19l80 12v633l-80 12v19z" />
    <glyph glyph-name="Omega" unicode="&#x2126;" horiz-adv-x="1851" 
d="M1368 1044q127 0 229 -52t144 -111v-287q0 -305 -173 -460t-452 -154q-55 0 -115 6v2q111 10 229 84t146 188q-98 0 -179 29t-141 107t-61 198v287q41 59 143 111t230 52zM123 594v287q39 57 142 110t231 53t229 -52q102 -52 143 -111v-287q0 -305 -174 -460t-452 -154
q-57 0 -113 6v2q111 12 229 84t146 188q-98 0 -179 29t-142 107q-60 79 -60 198z" />
    <glyph glyph-name="partialdiff" unicode="&#x2202;" horiz-adv-x="1185" 
d="M1001 1044v-1064l-878 495z" />
    <glyph glyph-name="Delta" unicode="&#x2206;" horiz-adv-x="2066" 
d="M559 256q-193 0 -315 115t-121 279q0 164 122 280q121 114 315 114t316 -120t122 -295q0 -176 -58 -305t-156 -202q-196 -145 -467 -145q-70 0 -124 9v2q111 12 239 85t160 183h-33zM1520 256q-193 0 -315 115t-122 279t122 280q122 114 316 114q193 0 315 -120t122 -295
q0 -176 -58 -305t-158 -202q-198 -145 -468 -145q-68 0 -119 9v2q106 12 236 85q129 73 161 183h-32z" />
    <glyph glyph-name="product" unicode="&#x220f;" horiz-adv-x="1187" 
d="M1128 86h-1062l567 881z" />
    <glyph glyph-name="summation" unicode="&#x2211;" horiz-adv-x="1185" 
d="M193 -20v1064l878 -569z" />
    <glyph glyph-name="minus" unicode="&#x2212;" horiz-adv-x="1042" 
d="M115 600v57h815v-57h-815z" />
    <glyph glyph-name="radical" unicode="&#x221a;" horiz-adv-x="2066" 
d="M1520 764q194 0 316 -114t122 -278t-122 -280q-122 -115 -316 -115t-316 119q-121 119 -121 296t58 305q102 230 371 312q118 36 251 35q45 0 123 -8v-2q-112 -14 -240 -87t-159 -185q10 2 33 2zM559 764q195 0 317 -114t122 -278t-122 -280q-122 -115 -316 -115
t-316 120t-121 296q0 176 57 304q56 128 156 202q198 147 469 145q41 0 123 -8v-2q-113 -14 -241 -87t-159 -185q11 2 31 2z" />
    <glyph glyph-name="infinity" unicode="&#x221e;" horiz-adv-x="1665" 
d="M1248 336q104 0 174 64t71 176q0 110 -71 176t-189 65q-69 0 -140 -40q-26 -13 -66 -46t-54 -47t-55 -57t-48 -49q121 -134 197 -188q77 -54 181 -54zM434 336q72 0 149 45t115 83t103 111q-6 6 -35 37q-91 98 -170 151q-79 54 -180 54q-102 1 -172 -65t-70 -177t70 -175
t190 -64zM1233 866q145 0 232 -84t87 -209t-82 -205t-237 -81q-86 0 -161 41q-74 41 -121 87q-48 46 -54 52t-33 35t-28 30q-129 -131 -193 -174q-109 -72 -211 -71q-154 0 -236 81q-82 82 -81 206q0 124 87 208q88 84 240 84t330 -178q11 -10 64 -65q6 5 36 37t42 42
q11 10 42 39q32 29 50 40t50 31q84 54 177 54z" />
    <glyph glyph-name="integral" unicode="&#x222b;" horiz-adv-x="1851" 
d="M495 -20q-129 0 -231 52t-141 109v289q0 305 173 460t454 154q53 0 112 -6v-2q-160 -19 -287 -133q-70 -63 -90 -141q158 0 271 -80t112 -252v-289q-41 -59 -143 -110t-230 -51zM1741 430v-289q-41 -59 -143 -110t-230 -51q-127 0 -229 51t-144 110v289q0 305 173 460
t454 154q53 0 113 -6v-2q-162 -19 -287 -133q-70 -63 -90 -141q158 0 270 -80t113 -252z" />
    <glyph glyph-name="approxequal" unicode="&#x2248;" horiz-adv-x="1234" 
d="M882 344q-74 0 -213 67q-140 67 -216 66q-174 0 -293 -155l-45 36q133 186 346 187q92 0 235 -67t195 -66q120 0 188 98l43 -35q-38 -55 -102 -93t-138 -38zM882 715q-74 1 -213 67q-140 66 -216 66q-174 0 -293 -156l-45 37q133 186 346 186q92 -1 235 -67t195 -66
q120 1 188 99l43 -35q-38 -55 -102 -93t-138 -38z" />
    <glyph glyph-name="notequal" unicode="&#x2260;" horiz-adv-x="1042" 
d="M115 784v58h460l91 190h69l-88 -190h283v-58h-309l-144 -309h453v-57h-479l-89 -191h-71l88 191h-264v57h291l143 309h-434z" />
    <glyph glyph-name="lessequal" unicode="&#x2264;" horiz-adv-x="1042" 
d="M115 33v57h815v-57h-815zM930 315v-67l-815 358v47l815 355v-68l-735 -311z" />
    <glyph glyph-name="greaterequal" unicode="&#x2265;" horiz-adv-x="1042" 
d="M928 90v-57h-815v57h815zM113 248v67l735 314l-735 311v68l815 -355v-47z" />
    <glyph glyph-name="lozenge" unicode="&#x25ca;" horiz-adv-x="915" 
d="M92 0v33h739v-33h-739zM92 1358v33h739v-33h-739zM483 692l230 -581h-45l-207 524l-205 -524h-45l229 579l-231 584h45l207 -524l213 524h47z" />
    <glyph glyph-name="apple" unicode="&#xf8ff;" horiz-adv-x="2965" 
d="M1645 541q76 0 75 43q0 27 -26 26q-41 1 -49 -69zM2382 584q0 27 -27 26q-41 1 -49 -69q76 0 76 43zM289 584q0 27 -27 26q-41 1 -49 -69q76 0 76 43zM1059 332q0 -29 28 -29q52 0 56 94q-84 -18 -84 -65zM1870 512q23 0 38 -14t15 -34t-15 -34t-38 -14t-37 13t-14 33
t14 36q14 14 37 14zM1450 553q0 41 -27 41t-46 -38t-19 -60v-47q92 12 92 104zM2354 471q42 0 73 18q16 -10 16 -25q0 -14 -5 -24t-29 -20q-23 -10 -71 -10t-81 30t-33 81q0 52 38 94t90 42t75 -19t22 -44q0 -78 -141 -78q4 -45 46 -45zM1788 594q0 -78 -141 -78
q4 -45 46 -45t72 18q28 -18 12 -50q-16 -29 -82 -29t-100 29q-33 30 -33 82t39 94q38 42 90 42q53 0 75 -19t22 -44zM261 471q42 0 73 18q16 -10 16 -25q0 -14 -5 -24t-29 -20t-72 -10t-80 30q-33 30 -33 81q0 52 38 94t90 42t75 -19t22 -44q0 -78 -141 -78q4 -45 46 -45z
M2191 592v-100l4 -66q-49 -16 -67 -16t-19 16v137q0 31 -15 31q-14 0 -34 -36t-20 -62l6 -70q-49 -16 -69 -16t-19 16v141l-6 74q48 16 68 16t20 -18v-82q37 100 92 100q59 1 59 -65zM139 0v16h2740v-16h-2740zM139 1083v17h2740v-17h-2740zM2710 428l-168 -16q-39 0 -48 25
q-8 26 -9 113t-3 130l-59 -4v8q0 41 24 41h35l-6 61q49 16 69 16t19 -16v-59h96v-6q0 -43 -24 -43h-72v-184q0 -31 33 -31q23 0 79 11t93 11t83 -12t46 -39t-20 -41t-29 -14q-11 1 -61 25t-78 24zM567 657q59 0 60 -65v-35q29 100 92 100q57 1 57 -65v-100l6 -66
q-50 -16 -68 -16t-18 16v135q0 33 -14 33t-36 -36t-19 -62l4 -70q-49 -16 -68 -16t-18 16v135q1 33 -15 33t-35 -36t-20 -62l6 -70q-49 -16 -69 -16t-19 16v141l-6 74q49 16 69 16t19 -18v-82q33 100 92 100zM1454 655q34 1 58 -27t24 -77q0 -139 -178 -139v-82l6 -66
q-49 -16 -69 -16t-19 16v154l-51 -6v-6q0 -162 -140 -162q-43 0 -63 22t-21 47q0 74 144 109v86q-35 -98 -93 -98t-59 63v6q-39 -67 -103 -67t-65 61v207l-59 -4v8q0 41 25 41h34l-6 61q49 16 69 16t19 -16v-59h97v-6q0 -43 -25 -43h-72v-176q0 -33 27 -33q18 0 39 16
q20 16 20 37v51l-6 68q49 16 69 16t19 -18v-135q1 -31 15 -31t34 36t19 62l-4 70q49 16 67 16t19 -18v-203l51 6v125l-6 74q48 16 68 16t20 -18v-82q35 98 96 98z" />
    <glyph glyph-name="NULL" 
 />
    <glyph glyph-name="eight.tab" horiz-adv-x="1107" 
d="M289 1052q0 -100 48 -158t150 -114l103 -55q100 39 171 121t71 188t-69 179t-198 73t-203 -66q-73 -68 -73 -168zM213 305q0 -119 85 -200t247 -81t251 70q89 68 89 197q0 91 -51 155t-166 123l-156 82q-121 -53 -210 -140t-89 -206zM546 -20q-204 0 -318 86t-113 230
q0 142 104 236t254 138l-37 20q-121 63 -184 138q-64 75 -64 204t109 213t271 84t258 -84t96 -203q0 -120 -86 -210t-207 -127l84 -46q151 -77 215 -151t63 -191q0 -157 -121 -247q-120 -90 -324 -90z" />
    <glyph glyph-name="five.tab" horiz-adv-x="1107" 
d="M971 414q0 -211 -128 -323t-358 -111q-111 0 -217 26t-147 66q-8 59 -1 119t19 92l11 30h47q-12 -127 20 -221q35 -27 113 -47t166 -20q178 0 274 91t96 266t-130 254t-318 79q-109 0 -232 -25l-6 6l21 613h712l-12 -90h-641l-16 -439q115 18 225 18t226 -37
q116 -38 196 -127t80 -220z" />
    <glyph glyph-name="four.tab" horiz-adv-x="1107" 
d="M735 428v741h-6l-569 -741h575zM74 379v22l692 908h74v-881h184v-49h-184v-330l164 -22v-27h-441v27l172 22v330h-661z" />
    <glyph glyph-name="nine.tab" horiz-adv-x="1107" 
d="M883 788q-15 496 -329 496q-154 0 -242 -101t-87 -275q0 -174 80 -262q80 -87 207 -87q127 -1 227 61t144 168zM473 49q109 0 190 53q81 54 125 146q86 179 95 436q-66 -86 -166 -134t-213 -48q-176 0 -282 105q-105 105 -105 297t123 308t307 117q446 0 446 -596
q0 -354 -134 -554t-378 -199q-126 0 -213 45q-37 18 -60 41q-24 23 -26 26l25 31q98 -74 266 -74z" />
    <glyph glyph-name="one.tab" horiz-adv-x="1107" 
d="M516 1198h-70q-153 0 -225 16l-26 7v22q287 12 409 82l17 -16v-1254l292 -28v-27h-682v27l285 28v1143z" />
    <glyph glyph-name="seven.tab" horiz-adv-x="1107" 
d="M1014 1309v-72l-586 -1237h-86v31l606 1188h-733q-22 -92 -76 -177l-18 -24l-35 8q20 125 20 217v66h908z" />
    <glyph glyph-name="six.tab" horiz-adv-x="1107" 
d="M598 750q-127 0 -228 -62t-145 -170q15 -496 333 -494q154 0 241 103q86 101 86 275t-80 261t-207 87zM608 807q174 1 280 -105t105 -298q0 -192 -122 -308q-122 -117 -304 -116q-451 0 -450 595q0 354 134 554t378 200q169 0 258 -73q22 -16 41 -39q-7 -11 -19 -21
l-6 -8q-28 28 -109 49q-214 57 -352 -33t-190 -346q-23 -109 -27 -235q66 86 167 135t216 49z" />
    <glyph glyph-name="three.tab" horiz-adv-x="1107" 
d="M801 995q0 125 -77 191t-199 66t-211 -66q-89 -64 -138 -158q-35 16 -35 19q43 117 143 199t263 83q162 0 259 -84t97 -211q-1 -127 -69 -206t-170 -107v-4q127 -25 216 -112t89 -236q0 -185 -128 -287t-339 -102q-114 0 -222 32t-153 72q0 117 31 190q10 27 12 27h43
q-2 1 -2 -55t20 -148q105 -74 273 -74t262 82t94 240q0 307 -385 334l8 43q143 4 231 75q87 71 87 197z" />
    <glyph glyph-name="two.tab" horiz-adv-x="1107" 
d="M563 1329q177 0 281 -97t104 -269q0 -295 -416 -634q-119 -97 -321 -243v-4h694q8 53 30 98t38 64l16 18l25 -8q-20 -78 -21 -195v-59h-911l-4 45q293 219 420 336q342 322 342 571q0 139 -81 215t-227 76q-246 1 -391 -235l-30 18q47 117 160 210q114 93 292 93z" />
    <glyph glyph-name="zero.tab" horiz-adv-x="1107" 
d="M199 648q0 -300 92 -462t261 -163t262 167t93 468t-92 466t-261 166t-262 -171t-93 -471zM88 643q0 317 129 501t341 185q212 0 335 -173t123 -492q0 -320 -127 -502t-340 -182t-337 173t-124 490z" />
    </font>
</defs>
</svg>
