<?xml version="1.0" standalone="no"?>
<!DOCTYPE svg PUBLIC "-//W3C//DTD SVG 1.1//EN" "http://www.w3.org/Graphics/SVG/1.1/DTD/svg11.dtd" >
<svg xmlns="http://www.w3.org/2000/svg">
<metadata>
Created by FontPrep 20130207 at Mon Jun 27 20:40:13 2016
 By Devin Halladay
Copyright (c) 2011 by Eduardo Manso. All rights reserved.
</metadata>
<defs>
<font id="3e45aa30d668f69054d17b6196cb2b29" horiz-adv-x='1024' >
  <font-face 
    font-family="PeriodicoDisplay-Rg"
    font-weight="400"
    font-stretch="normal"
    units-per-em="2048"
    panose-1="2 0 5 4 8 0 0 2 0 4"
    ascent="1597"
    descent="-451"
    x-height="1038"
    cap-height="1391"
    bbox="-113 -373.02 2896 1851"
    underline-thickness="102"
    underline-position="-102"
    unicode-range="U+0009-FB02"
  />
<missing-glyph horiz-adv-x="927" 
d="M94 0v47h756v-47h-756zM94 1343v48h756v-48h-756zM512 692l236 -565h-74l-197 485l-198 -485h-74l235 565l-241 565h75l203 -481l199 481h74z" />
    <glyph glyph-name="fi" unicode="fi" horiz-adv-x="1316" 
d="M858 1227q0 109 -41 182q-43 33 -129 33q-170 0 -221 -113q-43 -95 -43 -237v-64h348q156 0 281 25l43 6h24v-983l144 -45v-31h-500v31l143 45v878h-483v-878l166 -45v-31h-527v31l148 45v878h-145v45l145 27v57q0 201 137 311t349 110t319 -70q0 -54 -16 -106t-33 -77
l-17 -24h-92z" />
    <glyph glyph-name="fl" unicode="fl" horiz-adv-x="1320" 
d="M1124 1503v-1427l144 -45v-31h-500v31l143 45v1280q-94 86 -244 86t-202 -112q-41 -89 -41 -236v-66h258v-74h-258v-878l166 -45v-31h-527v31l148 45v878h-145v45l145 27v59q0 203 131 311t336 107q145 0 250 -35l172 35h24z" />
    <glyph glyph-name=".notdef" horiz-adv-x="927" 
d="M94 0v47h756v-47h-756zM94 1343v48h756v-48h-756zM512 692l236 -565h-74l-197 485l-198 -485h-74l235 565l-241 565h75l203 -481l199 481h74z" />
    <glyph glyph-name=".null" 
 />
    <glyph glyph-name="nonmarkingreturn" horiz-adv-x="681" 
 />
    <glyph glyph-name="CR" unicode="&#xd;" 
 />
    <glyph glyph-name="CR" 
 />
    <glyph glyph-name="HT" unicode="&#x9;" 
 />
    <glyph glyph-name="LF" unicode="&#xa;" 
 />
    <glyph glyph-name="DLE" 
 />
    <glyph glyph-name="DC1" 
 />
    <glyph glyph-name="DC2" 
 />
    <glyph glyph-name="DC3" 
 />
    <glyph glyph-name="DC4" 
 />
    <glyph glyph-name="RS" 
 />
    <glyph glyph-name="US" 
 />
    <glyph glyph-name="space" unicode=" " horiz-adv-x="428" 
 />
    <glyph glyph-name="exclam" unicode="!" horiz-adv-x="628" 
d="M180 109q0 53 39 92t94 39t93 -38t38 -92t-38 -93q-40 -37 -94 -37t-93 38t-39 91zM313 1411q49 0 88 -26t50 -72l-125 -940h-23l-125 940q8 45 47 71t88 27z" />
    <glyph glyph-name="quotedbl" unicode="&#x22;" horiz-adv-x="702" 
d="M502 1411q45 0 78 -28t32 -70l-96 -381h-29l-94 381q0 43 32 71t77 27zM197 1411q45 0 77 -28t33 -70l-96 -381h-29l-94 381q0 43 32 71t77 27z" />
    <glyph glyph-name="numbersign" unicode="#" horiz-adv-x="1216" 
d="M479 664l-90 -273h348l90 273h-348zM98 301v90h185l90 273h-193v90h221l95 286h106l-94 -286h348l94 286h107l-94 -286h155v-90h-184l-90 -273h192v-90h-221l-98 -301h-107l99 301h-349l-98 -301h-106l98 301h-156z" />
    <glyph glyph-name="dollar" unicode="$" horiz-adv-x="1179" 
d="M393 1034q0 -131 160 -186l31 -12v415q-94 -14 -143 -72q-48 -59 -48 -145zM680 559l-25 8v-501q109 20 167 90t59 184q0 145 -201 219zM125 170q0 116 -23 205l-6 35l51 24q16 -14 42 -39t78 -105t73 -165q106 -66 229 -66h15v535l-150 53q-118 41 -186 125t-68 193
q0 170 115 260t289 102v127h71v-125q103 -2 229 -32t156 -33v-74q0 -113 21 -189l6 -28l-49 -21q-46 33 -101 107t-79 147q-74 43 -183 49v-444l131 -47q313 -111 314 -365q0 -159 -120 -281t-325 -136v-121h-71v119q-248 6 -459 106v84z" />
    <glyph glyph-name="percent" unicode="%" horiz-adv-x="1449" 
d="M1094 653q120 0 190 -86t70 -246q0 -161 -72 -251t-193 -90q-120 0 -192 86t-72 244t74 251q74 92 195 92zM1094 25q106 1 106 293t-110 292t-109 -292q0 -292 113 -293zM1012 1309h92l-658 -1309h-94zM362 700q106 0 106 293t-109 293t-109 -293t112 -293zM362 1329
q121 0 191 -86t70 -246t-73 -251t-193 -91q-119 0 -191 86t-72 245t74 251t194 92z" />
    <glyph glyph-name="ampersand" unicode="&#x26;" horiz-adv-x="1386" 
d="M432 1135q0 -117 139 -277q158 106 158 287q0 92 -40 143t-107 51q-150 1 -150 -204zM291 399q0 -139 89 -205t212 -65q178 0 311 121q-125 121 -252 252q-141 129 -219 219q-141 -131 -141 -322zM78 346q0 156 97 262t222 152q-153 182 -153 338t105 235q105 78 252 78
t223 -78t77 -194q0 -217 -301 -316q72 -76 205 -204t219 -220q86 139 145 349l35 -5q-25 -225 -119 -405q258 -258 361 -307v-31h-270q-63 49 -197 178q-174 -199 -440 -198q-161 0 -296 73q-73 39 -119 115t-46 178z" />
    <glyph glyph-name="quotesingle" unicode="'" horiz-adv-x="397" 
d="M197 1411q45 0 77 -28t33 -70l-96 -381h-29l-94 381q0 43 32 71t77 27z" />
    <glyph glyph-name="parenleft" unicode="(" horiz-adv-x="679" 
d="M115 610q0 318 142 544q69 108 141 184t167 155l33 -37q-322 -316 -322 -844t322 -850l-33 -36q-329 267 -413 585q-37 137 -37 299z" />
    <glyph glyph-name="parenright" unicode=")" horiz-adv-x="679" 
d="M565 610q0 -320 -142 -543q-69 -108 -140 -186q-72 -77 -168 -155l-33 36q322 322 322 849t-322 845l33 37q330 -268 413 -584q37 -137 37 -299z" />
    <glyph glyph-name="asterisk" unicode="*" horiz-adv-x="942" 
d="M403 1056q-1 -30 19 -49t50 -19t50 18q20 20 20 50t-20 50t-50 20t-50 -20t-19 -50zM586 997l100 -280l-31 -19l-186 226q-23 -33 -95 -115t-93 -111l-31 19l100 280l-272 52v32l272 47l-98 269l31 16l186 -223l184 223l31 -16l-94 -269l270 -47v-32z" />
    <glyph glyph-name="plus" unicode="+" horiz-adv-x="1024" 
d="M98 559v100h365v359h100v-359h363v-100h-363v-369h-100v369h-365z" />
    <glyph glyph-name="comma" unicode="," horiz-adv-x="425" 
d="M82 119q0 53 37 86t98 33t96 -43t31 -99q-4 -112 -95 -192t-231 -119l-8 20q137 100 154 193q-82 31 -82 121z" />
    <glyph glyph-name="hyphen" unicode="-" horiz-adv-x="694" 
d="M104 502v112h484v-112h-484z" />
    <glyph glyph-name="period" unicode="." horiz-adv-x="425" 
d="M82 109q0 53 38 92t94 39t94 -38t38 -92t-39 -92t-94 -38t-93 38t-38 91z" />
    <glyph glyph-name="slash" unicode="/" horiz-adv-x="811" 
d="M115 -342h-92l598 1825h92z" />
    <glyph glyph-name="zero" unicode="0" horiz-adv-x="1148" 
d="M580 43q260 1 260 615t-269 614q-261 0 -261 -614t270 -615zM580 1329q229 0 361 -173t132 -492q0 -320 -137 -502q-138 -182 -366 -182t-361 173t-133 490t137 502q138 184 367 184z" />
    <glyph glyph-name="one" unicode="1" horiz-adv-x="845" 
d="M322 1102h-64q-72 0 -123 12t-65 25l-17 12v29q94 6 238 50q145 44 229 99l27 -22v-1219l260 -57v-31h-739v31l254 57v1014z" />
    <glyph glyph-name="two" unicode="2" horiz-adv-x="1077" 
d="M536 1329q186 0 299 -99q111 -99 111 -279t-158 -359q-106 -117 -194 -187q-88 -69 -125 -97t-112 -79t-93 -65v-6h553q23 59 62 106t67 64l27 18l33 -18q-20 -100 -21 -228v-100h-950l-15 72q94 74 150 120t173 153q116 108 185 193q70 84 127 194t57 212t-68 159
q-69 58 -179 58q-211 0 -377 -186l-41 29q47 121 175 223t314 102z" />
    <glyph glyph-name="three" unicode="3" horiz-adv-x="1024" 
d="M674 952q0 224 -232 226q-98 0 -189 -48t-147 -114l-38 26q45 115 154 201q110 86 285 86t280 -87t105 -216t-72 -199q-73 -70 -181 -92v-4q131 -20 225 -109t94 -239q0 -188 -140 -296t-367 -107q-121 0 -238 32t-166 74q0 122 44 219q13 31 18 33h69q18 -145 70 -238
q96 -51 215 -51t191 70t71 211q1 182 -103 248t-253 84l18 67q139 8 213 55q74 48 74 168z" />
    <glyph glyph-name="four" unicode="4" horiz-adv-x="1089" 
d="M657 430v639h-6l-477 -639h483zM35 354v37l682 918h166v-879h172v-76h-172v-278l159 -45v-31h-548v31l163 45v278h-622z" />
    <glyph glyph-name="five" unicode="5" horiz-adv-x="1052" 
d="M456 821q120 0 241 -38q122 -38 206 -131t84 -228q0 -215 -141 -330t-379 -114q-115 0 -221 28t-150 68q-8 66 5 153t36 109h72q18 -150 70 -238q115 -53 200 -53q131 0 206 78t75 243t-127 233q-107 58 -243 58t-232 -20l-8 8l26 662h742l-23 -185h-625l-14 -315
q80 12 200 12z" />
    <glyph glyph-name="six" unicode="6" horiz-adv-x="1105" 
d="M563 725q-77 0 -147 -39t-109 -106q-1 -291 63 -411t203 -120q109 0 169 94t61 271q0 311 -240 311zM76 575q0 354 146 554t411 200q148 0 226 -51t95 -86l9 -16l-33 -41q-104 66 -264 65q-322 0 -357 -495q129 115 313 115t298 -107q114 -106 112 -300q0 -194 -134 -314
t-333 -119q-489 0 -489 595z" />
    <glyph glyph-name="seven" unicode="7" horiz-adv-x="1007" 
d="M981 1309v-144l-563 -1165h-176v49l624 1079h-630q-16 -51 -56 -102t-71 -76l-31 -26l-45 12q20 168 20 260v113h928z" />
    <glyph glyph-name="eight" unicode="8" horiz-adv-x="1067" 
d="M338 1051q0 -150 170 -230l110 -53q129 102 130 272q0 88 -52 156t-156 68q-106 0 -154 -58t-48 -155zM266 295q0 -100 70 -173t192 -73q262 0 263 234q-1 167 -179 247l-174 78q-76 -47 -124 -130t-48 -183zM63 315q0 103 82 193t234 129q-246 127 -246 350
q0 162 118 252t293 90t281 -87q107 -88 107 -202t-76 -191t-178 -110l24 -12q162 -78 234 -168t72 -211q0 -158 -129 -263t-345 -105t-343 80q-128 80 -128 255z" />
    <glyph glyph-name="nine" unicode="9" horiz-adv-x="1105" 
d="M543 584q81 0 149 39t107 106q-3 291 -63 411t-184 120q-247 0 -249 -365q0 -311 240 -311zM484 489q-186 1 -298 107t-112 300t137 314t336 119q243 0 363 -145t120 -475t-146 -530t-411 -199q-145 0 -223 51q-77 51 -98 88l-9 16l33 41q104 -68 264 -67q326 0 355 493
q-125 -113 -311 -113z" />
    <glyph glyph-name="colon" unicode=":" horiz-adv-x="425" 
d="M82 109q0 53 38 92t94 39t94 -38t38 -92t-39 -92t-94 -38t-93 38t-38 91zM82 927q0 54 38 92t94 38t94 -38t38 -92t-38 -91t-94 -37t-94 37t-38 91z" />
    <glyph glyph-name="semicolon" unicode=";" horiz-adv-x="425" 
d="M78 927q0 54 39 92t94 38t94 -38t39 -92t-39 -91t-94 -37t-94 37t-39 91zM82 119q0 53 37 86t98 33t96 -43t31 -99q-4 -112 -95 -192t-231 -119l-8 20q137 100 154 193q-82 31 -82 121z" />
    <glyph glyph-name="less" unicode="&#x3c;" horiz-adv-x="1024" 
d="M98 567v84l828 379v-117l-690 -303l690 -307v-117z" />
    <glyph glyph-name="equal" unicode="=" horiz-adv-x="1024" 
d="M98 389v100h828v-100h-828zM98 750v100h828v-100h-828z" />
    <glyph glyph-name="greater" unicode="&#x3e;" horiz-adv-x="1024" 
d="M926 651v-84l-828 -381v117l690 307l-690 303v117z" />
    <glyph glyph-name="question" unicode="?" horiz-adv-x="1017" 
d="M281 109q0 53 38 92q39 39 95 39t94 -39q39 -39 39 -92t-39 -91t-94 -38t-95 37q-38 39 -38 92zM481 1411q201 0 322 -94t121 -264q0 -287 -299 -415q-76 -32 -162 -46l-37 -219h-27l-71 362q45 8 94 16t90 28q109 51 146 106q55 78 56 201q1 124 -77 189t-188 64
q-63 0 -123 -24q-61 -108 -97 -221l-12 -39h-86q-18 30 -33 92q-14 61 -8 110q50 59 150 107t241 47z" />
    <glyph glyph-name="at" unicode="@" horiz-adv-x="1828" 
d="M842 289q80 0 152 103t96 247l40 240q-51 94 -143 94q-111 -1 -181 -147t-70 -342t106 -195zM1290 209q123 0 216 135t93 389t-149 429q-150 175 -424 175q-330 -1 -536 -237t-206 -594t214 -524q148 -120 365 -144q46 -4 89 -4q201 0 379 53l8 -34q-184 -90 -407 -91
q-335 0 -551 164q-76 57 -130 131t-88 188t-34 251q0 399 249 657t648 258q176 0 318 -55q142 -54 231 -150q180 -195 180 -475q0 -155 -47 -275q-80 -204 -273 -281q-79 -32 -155 -32q-133 1 -183 59t-42 140l2 45l-6 2q-106 -217 -277 -217q-114 0 -182 78t-68 215
q0 243 138 407t329 164q123 0 211 -75l113 73l41 -10l-115 -643q-22 -133 5 -158q15 -14 44 -14z" />
    <glyph glyph-name="A" unicode="A" horiz-adv-x="1421" 
d="M645 1114h-8l-229 -596h462zM1430 0h-553v29l161 45l-143 375h-516l-146 -375l160 -45v-29h-401v29l137 45l537 1321l88 16l538 -1337l138 -45v-29z" />
    <glyph glyph-name="B" unicode="B" horiz-adv-x="1366" 
d="M639 1319h-166v-551h162q160 0 244 70t84 194q0 287 -324 287zM702 696h-229v-624h225q328 0 328 315q0 147 -83 228t-241 81zM707 0h-621v31l160 45v1239l-160 45v31h555q258 0 409 -81t150 -255q0 -258 -340 -316v-6q408 -53 408 -352q0 -189 -154 -285t-407 -96z" />
    <glyph glyph-name="C" unicode="C" horiz-adv-x="1263" 
d="M88 682q0 336 196 532t494 197q100 1 221 -23t150 -26v-84q0 -124 22 -209l7 -33l-50 -18q-14 10 -36 30t-71 91q-50 72 -79 153q-92 43 -199 43q-186 0 -298 -167q-111 -167 -111 -458q0 -292 122 -444t314 -151q111 0 199 41t131 85t94 113l31 -16q-36 -121 -148 -233
q-57 -56 -146 -91t-198 -34q-285 0 -465 183t-180 519z" />
    <glyph glyph-name="D" unicode="D" horiz-adv-x="1492" 
d="M721 1315h-248v-1235h252q207 0 325 163t118 451t-121 454q-121 167 -326 167zM86 1391h637q311 1 499 -179t189 -504q0 -324 -196 -516t-492 -192h-637v31l160 45v1239l-160 45v31z" />
    <glyph glyph-name="E" unicode="E" horiz-adv-x="1298" 
d="M86 1391h1069v-70q0 -90 16 -246l7 -39l-41 -10q-92 109 -152 287h-512v-570l467 13l41 112h43v-319h-39l-45 113l-467 12v-596h559q45 143 125 264l27 39l41 -10q-23 -156 -23 -287v-84h-1116v31l160 45v1239l-160 45v31z" />
    <glyph glyph-name="F" unicode="F" horiz-adv-x="1241" 
d="M86 1391h1085v-70q0 -136 17 -246l4 -39l-39 -10q-100 106 -154 287h-526v-604l483 14l41 145h43v-385h-39l-45 146l-483 10v-563l180 -45v-31h-567v31l160 45v1239l-160 45v31z" />
    <glyph glyph-name="G" unicode="G" horiz-adv-x="1386" 
d="M797 1411q81 0 233 -25t191 -24v-111q0 -67 20 -170l8 -32l-45 -21q-13 7 -43 31q-96 79 -145 225q-113 51 -240 51q-207 0 -329 -176q-121 -176 -121 -471t129 -463t321 -168q115 0 205 39v447l-119 45v28h441v-28l-99 -45v-443l58 -14v-29q-209 -77 -497 -77
q-289 0 -487 179t-198 519t205 536t512 197z" />
    <glyph glyph-name="H" unicode="H" horiz-adv-x="1568" 
d="M936 1391h547v-31l-160 -45v-1239l160 -45v-31h-547v31l160 45v624h-623v-624l160 -45v-31h-547v31l160 45v1239l-160 45v31h547v-31l-160 -45v-537h623v537l-160 45v31z" />
    <glyph glyph-name="I" unicode="I" horiz-adv-x="718" 
d="M86 1391h547v-31l-160 -45v-1239l160 -45v-31h-547v31l160 45v1239l-160 45v31z" />
    <glyph glyph-name="J" unicode="J" horiz-adv-x="704" 
d="M88 1391h539v-31l-152 -45v-1440q-219 -238 -500 -237q-41 0 -84 6q-8 63 10 141q17 78 29 94h105q8 -106 39 -172q117 43 174 133v1475l-160 45v31z" />
    <glyph glyph-name="K" unicode="K" horiz-adv-x="1429" 
d="M86 1391h547v-31l-160 -45v-578h145l490 580l-150 45v29h408v-29l-145 -45l-430 -506l356 -516q67 -96 137 -163t107 -83l36 -18v-31h-288q-92 43 -197 195l-311 464h-158v-583l160 -45v-31h-547v31l160 45v1239l-160 45v31z" />
    <glyph glyph-name="L" unicode="L" horiz-adv-x="1200" 
d="M86 1391h547v-31l-160 -45v-1237h498q20 80 59 156t68 114l26 37l39 -10q-20 -172 -20 -301v-74h-1057v31l160 45v1239l-160 45v31z" />
    <glyph glyph-name="M" unicode="M" horiz-adv-x="1724" 
d="M86 1391h352l430 -1010h6l416 1010h348v-29l-159 -45v-1243l159 -45v-29h-538v29l157 45v999h-8q-33 -109 -53 -147l-356 -858l-70 -2l-381 854q-26 54 -41 129l-6 24h-8v-999l160 -45v-29h-408v29l160 45v1243l-160 45v29z" />
    <glyph glyph-name="N" unicode="N" horiz-adv-x="1497" 
d="M1026 1391h406v-29l-158 -45v-1317h-86l-854 1139v-1065q4 0 31 -8l129 -37v-29h-408v29l160 45v1243l-160 45v29h340l758 -1018v944l-158 45v29z" />
    <glyph glyph-name="O" unicode="O" horiz-adv-x="1423" 
d="M699 1343q-177 0 -275 -173t-98 -474t110 -473t290 -172q179 0 276 170q98 170 98 470t-112 476t-289 176zM80 684q0 334 178 530t461 197q283 0 453 -186q170 -187 171 -521q0 -334 -177 -530q-178 -196 -460 -194q-282 0 -454 185t-172 519z" />
    <glyph glyph-name="P" unicode="P" horiz-adv-x="1314" 
d="M86 1391h588q260 0 421 -111t161 -323q0 -213 -144 -337q-143 -124 -342 -124q-86 0 -182 32v31h94q162 2 247 99q85 96 85 280t-87 280t-255 95h-199v-1237l182 -45v-31h-569v31l160 45v1239l-160 45v31z" />
    <glyph glyph-name="Q" unicode="Q" horiz-adv-x="1423" 
d="M707 1343q-177 0 -279 -174t-102 -474t106 -472t286 -172t280 171q102 171 102 471t-108 475t-285 175zM1294 -322h-303q-67 27 -109 61t-98 91l-147 154q-254 24 -406 206q-151 182 -151 505t178 519t461 197q283 0 453 -186t171 -523q-1 -272 -123 -456t-327 -244v-6
l94 -86q8 -6 46 -41q144 -133 261 -162v-29z" />
    <glyph glyph-name="R" unicode="R" horiz-adv-x="1384" 
d="M471 1313v-625h342q166 98 166 322q0 303 -311 303h-197zM1374 0h-297q-104 43 -174 199l-184 417h-248v-540l162 -45v-31h-547v31l160 45v1239l-160 45v31h592q244 -1 390 -93t146 -282q0 -131 -72 -222t-200 -128v-13l148 -311q75 -159 152 -227t116 -78l16 -6v-31z
" />
    <glyph glyph-name="S" unicode="S" horiz-adv-x="1163" 
d="M88 170q0 119 -22 215l-7 37l52 24q16 -14 42 -40q27 -26 77 -108q50 -83 71 -171q115 -68 249 -68t215 76t81 209q0 182 -207 256l-244 88q-129 47 -201 135t-71 207q0 188 139 284t342 97q111 0 242 -32t158 -33v-74q0 -124 20 -201l6 -31l-45 -18q-14 10 -36 30
t-71 88q-50 69 -77 150q-88 47 -209 47t-193 -62t-71 -163q0 -160 186 -225l234 -84q322 -115 321 -402q0 -170 -136 -296q-136 -125 -378 -125t-467 106v84z" />
    <glyph glyph-name="T" unicode="T" horiz-adv-x="1284" 
d="M55 1313v78h1174v-78q0 -141 16 -240l4 -37l-39 -10q-94 109 -153 287h-301v-1237l176 -45v-31h-580v31l176 45v1237h-301q-25 -80 -63 -152t-66 -104l-24 -31l-39 10q20 133 20 277z" />
    <glyph glyph-name="U" unicode="U" horiz-adv-x="1501" 
d="M1178 416v899l-160 45v31h420v-31l-160 -45v-1016q-119 -319 -516 -319q-197 0 -343 74t-202 218v1043l-160 45v31h547v-31l-160 -45v-914q0 -151 90 -237t254 -86t277 93t113 245z" />
    <glyph glyph-name="V" unicode="V" horiz-adv-x="1417" 
d="M-8 1391h555v-29l-162 -45l403 -1024h9l387 1024l-160 45v29h401v-29l-143 -45l-510 -1337h-90l-551 1337l-139 45v29z" />
    <glyph glyph-name="W" unicode="W" horiz-adv-x="2113" 
d="M-8 1391h555v-29l-162 -45l307 -998h4l312 910l-37 104l82 58h149l350 -1072h4l326 998l-160 45v29h400v-29l-144 -45l-452 -1337h-78l-395 1114l-387 -1114h-78l-457 1337l-139 45v29z" />
    <glyph glyph-name="X" unicode="X" horiz-adv-x="1417" 
d="M860 0v29l146 41l-353 518l-387 -514l131 -45v-29h-385v29l135 45l459 588l-442 659l-129 41v29h534v-29l-137 -39l328 -489l370 485l-126 45v29h372v-29l-137 -45l-432 -555l465 -698l133 -37v-29h-545z" />
    <glyph glyph-name="Y" unicode="Y" horiz-adv-x="1372" 
d="M-8 1391h545v-29l-154 -45l367 -627h2l393 627l-150 45v29h385v-29l-135 -45l-452 -713v-528l176 -45v-31h-580v31l176 45v516l-442 725l-131 45v29z" />
    <glyph glyph-name="Z" unicode="Z" horiz-adv-x="1255" 
d="M1124 1391v-68l-786 -1245h643q23 74 61 146t68 106l27 35l49 -15q-20 -127 -21 -272v-78h-1095v63l792 1250h-540q-16 -72 -56 -144t-73 -108l-31 -35l-45 14q20 133 20 275v76h987z" />
    <glyph glyph-name="bracketleft" unicode="[" horiz-adv-x="657" 
d="M578 -254h-431v1737h431v-74h-273v-1591h273v-72z" />
    <glyph glyph-name="backslash" unicode="\" horiz-adv-x="811" 
d="M788 -342h-92l-598 1825h92z" />
    <glyph glyph-name="bracketright" unicode="]" horiz-adv-x="657" 
d="M510 -254h-430v72h272v1591h-272v74h430v-1737z" />
    <glyph glyph-name="asciicircum" unicode="^" horiz-adv-x="868" 
d="M770 750h-104l-236 526l-227 -526h-105l267 641h133z" />
    <glyph glyph-name="underscore" unicode="_" horiz-adv-x="1032" 
d="M0 -291v90h1044v-90h-1044z" />
    <glyph glyph-name="grave" unicode="`" horiz-adv-x="593" 
d="M217 1499h21l241 -301l-28 -27l-349 199z" />
    <glyph glyph-name="a" unicode="a" horiz-adv-x="1091" 
d="M459 92q123 0 215 86q0 119 4 385q-248 -59 -379 -162v-122q0 -91 44 -139t116 -48zM678 729q0 265 -190 263q-94 0 -156 -40q-42 -68 -58 -198l-4 -41h-90q-61 74 -74 188q61 63 171 111q109 48 263 47q154 0 250 -84t97 -266l-6 -541q0 -80 63 -80q33 0 67 36t48 75
l35 -21q-38 -104 -92 -149t-134 -45q-162 0 -190 141q-137 -145 -295 -145q-125 0 -208 63t-83 199v123q152 176 586 258v106z" />
    <glyph glyph-name="b" unicode="b" horiz-adv-x="1171" 
d="M598 938q-127 0 -223 -90v-684q102 -115 237 -115t197 120q61 120 61 350t-72 325q-73 94 -200 94zM375 1503v-594q49 59 130 105t177 45q194 0 304 -133t110 -385t-134 -407t-348 -154q-174 0 -297 75l-129 -78l-26 21v1384l-146 25v33l334 63h25z" />
    <glyph glyph-name="c" unicode="c" horiz-adv-x="978" 
d="M578 987q-142 0 -216 -119t-74 -340t88 -323q87 -103 227 -103t308 140l31 -27q-53 -102 -150 -169t-235 -66q-223 0 -353 136t-130 389t152 403t362 151q98 0 188 -34t142 -85q-2 -60 -20 -114t-34 -78l-14 -25h-107q-4 137 -45 227q-51 37 -120 37z" />
    <glyph glyph-name="d" unicode="d" horiz-adv-x="1208" 
d="M301 514q0 -230 73 -322t200 -92t223 90v687q-105 113 -239 113t-196 -123q-62 -122 -61 -353zM1010 1503v-1427l143 -39v-37h-326l-20 129h-10q-49 -59 -130 -104t-178 -45q-195 0 -305 131t-110 383t135 408t348 157q125 0 240 -45v368l-146 25v33l332 63h27z" />
    <glyph glyph-name="e" unicode="e" horiz-adv-x="1003" 
d="M522 995q-100 0 -163 -109q-62 -110 -72 -296l442 18v39q0 162 -53 255q-54 93 -154 93zM541 -20q-217 0 -342 139t-125 391t132 400t326 148t298 -123q103 -124 104 -327v-80l-649 7v-9q0 -221 80 -324q79 -104 199 -104t190 36t145 104l27 -25q-139 -233 -385 -233z
" />
    <glyph glyph-name="f" unicode="f" horiz-adv-x="710" 
d="M576 1444q-43 0 -77 -27q-75 -60 -75 -291v-98h258v-74h-258v-878l166 -45v-31h-527v31l148 45v878h-145v45l145 27v80q0 193 108 295q109 102 263 102t229 -51q0 -110 -41 -178l-12 -25h-80q-10 121 -41 185q-18 10 -61 10z" />
    <glyph glyph-name="g" unicode="g" horiz-adv-x="1101" 
d="M538 -301q148 0 232 55t84 156v43q-55 39 -199 53l-272 29q-29 2 -68 10q-77 -67 -77 -149t75 -140q76 -57 225 -57zM543 434q197 0 196 283q0 131 -53 210t-156 79q-197 0 -196 -289q0 -129 54 -206t155 -77zM950 721q0 -158 -116 -250t-314 -92q-196 0 -196 -82
q0 -55 112 -68l242 -22q285 -31 379 -135v-103q0 -141 -151 -236t-381 -95t-350 66t-120 171q-1 53 53 105t142 86q-113 51 -113 165q0 156 211 179q-104 37 -164 114q-59 78 -59 189q0 160 116 253t296 93q108 0 194 -33q166 4 268 43l35 12l21 -127q-80 -25 -201 -6l-2 -8
q98 -98 98 -219z" />
    <glyph glyph-name="h" unicode="h" horiz-adv-x="1251" 
d="M426 1501v-596q59 66 146 110t180 44q133 0 221 -86t88 -260v-637l143 -45v-31h-485v31l131 45v659q0 203 -188 203q-133 0 -236 -90v-772l129 -45v-31h-485v31l143 45v1304l-145 25v33l333 63h25z" />
    <glyph glyph-name="i" unicode="i" horiz-adv-x="618" 
d="M422 1059v-983l143 -45v-31h-499v31l143 45v842l-146 24v33l334 84h25zM178 1363q0 52 37 88t93 36t93 -36t37 -88t-37 -88t-93 -36t-93 36t-37 88z" />
    <glyph glyph-name="j" unicode="j" horiz-adv-x="595" 
d="M188 1363q0 52 37 88t92 36t93 -36t36 -88q0 -52 -36 -88t-92 -36t-93 36t-37 88zM-10 -362q-57 0 -99 10q-11 100 27 186l12 27h93q8 -106 49 -166q111 43 147 100v1118l-164 29v33l353 84h24v-1211q-70 -88 -192 -149t-250 -61z" />
    <glyph glyph-name="k" unicode="k" horiz-adv-x="1150" 
d="M414 1501v-895h88l370 359l-104 45v28h334v-28l-119 -47l-315 -301l221 -332q88 -131 147 -199t129 -100v-31h-258q-109 68 -180 184l-223 355h-90v-463l123 -45v-31h-480v31l144 45v1304l-146 25v33l334 63h25z" />
    <glyph glyph-name="l" unicode="l" horiz-adv-x="610" 
d="M414 1503v-1427l143 -45v-31h-500v31l144 45v1306l-146 25v33l334 63h25z" />
    <glyph glyph-name="m" unicode="m" horiz-adv-x="1859" 
d="M414 1059v-152h8q139 152 323 152q88 0 161 -43t108 -129h4q154 172 350 172q131 0 217 -85t86 -261v-637l144 -45v-31h-488v31l131 45v659q0 203 -180 203q-127 0 -248 -102q16 -55 17 -123v-637l120 -45v-31h-446v31l115 45v659q0 203 -183 203q-129 0 -231 -90v-772
l129 -45v-31h-485v31l143 45v842l-146 24v33l328 84h23z" />
    <glyph glyph-name="n" unicode="n" horiz-adv-x="1247" 
d="M414 1059v-152h8q61 66 147 109t181 43q133 0 221 -86t88 -260v-637l143 -45v-31h-487v31l131 45v659q0 203 -189 203q-129 0 -235 -90v-772l129 -45v-31h-485v31l143 45v842l-146 24v33l328 84h23z" />
    <glyph glyph-name="o" unicode="o" horiz-adv-x="1126" 
d="M582 47q242 0 241 471q0 227 -74 351q-75 124 -202 124q-244 0 -244 -475q0 -227 75 -349t204 -122zM74 513q0 251 139 399t355 147q216 0 350 -141q134 -140 135 -392q-1 -252 -139 -399t-354 -147t-351 141t-135 392z" />
    <glyph glyph-name="p" unicode="p" horiz-adv-x="1196" 
d="M895 524q0 230 -73 322t-200 92t-223 -90v-686q95 -113 233 -113t201 122q62 122 62 353zM391 1059v-152h6q125 152 315 152t300 -131t108 -384q0 -253 -134 -409t-347 -155q-133 0 -240 45v-291q53 -20 172 -45v-31h-530v31l147 45v1184l-149 24v33l317 84h35z" />
    <glyph glyph-name="q" unicode="q" horiz-adv-x="1171" 
d="M560 989q-136 0 -198 -120t-61 -350q0 -231 73 -325t200 -94t223 90v684q-101 115 -237 115zM1157 -342h-532v31l172 45v395q-49 -59 -130 -104t-178 -45q-195 0 -305 133t-110 385t134 406t349 155q174 0 297 -76l129 78l27 -6v-1321l147 -45v-31z" />
    <glyph glyph-name="r" unicode="r" horiz-adv-x="886" 
d="M598 0h-532v31l147 45v842l-150 24v33l332 84h23v-189h8q123 188 336 189q49 0 90 -8q0 -78 -12 -151t-25 -105l-10 -35h-103q-16 133 -53 188q-100 -24 -207 -131l-16 -16v-725l172 -45v-31z" />
    <glyph glyph-name="s" unicode="s" horiz-adv-x="940" 
d="M811 940q0 -57 20 -137l-32 -21q-6 3 -34 24q-84 63 -122 163q-66 27 -150 27t-134 -45q-50 -44 -50 -122q0 -121 129 -165l183 -62q244 -82 243 -285q0 -157 -108 -247t-294 -90t-366 81v62q0 76 -14 156l-6 22l43 18q37 -30 80 -94q43 -65 65 -133q100 -47 198 -47
t150 54q53 54 54 153q0 121 -136 168l-192 63q-102 33 -159 106q-56 73 -56 169q1 154 111 228t258 73q90 0 191 -24t128 -23v-72z" />
    <glyph glyph-name="t" unicode="t" horiz-adv-x="759" 
d="M45 967v45l150 26l143 297h63v-297h258v-71h-258v-836q57 -61 147 -61t169 59l26 -35q-131 -114 -291 -114t-262 118v869h-145z" />
    <glyph glyph-name="u" unicode="u" horiz-adv-x="1226" 
d="M395 1059v-862q47 -97 181 -97t235 90v728l-149 24v33l327 84h35v-983l143 -45v-31h-319l-21 137h-10q-143 -158 -328 -157q-225 0 -305 204v734l-139 24v33l328 84h22z" />
    <glyph glyph-name="v" unicode="v" horiz-adv-x="1075" 
d="M-29 1038h480v-30l-132 -43l291 -709h6l277 709l-117 45v28h326v-28l-119 -45l-393 -985h-72l-434 985l-113 45v28z" />
    <glyph glyph-name="w" unicode="w" horiz-adv-x="1658" 
d="M-20 1038h473v-30l-127 -43l237 -705h2l217 637l-37 96l35 45h187l272 -778h2l229 705l-116 45v28h321v-28l-116 -45l-334 -985h-82l-316 798l-282 -798h-80l-373 985l-112 45v28z" />
    <glyph glyph-name="x" unicode="x" horiz-adv-x="1153" 
d="M655 0v31l115 39l-258 358l-287 -354l109 -45v-29h-326v29l111 47l348 418l-336 473l-98 43v28h467v-28l-109 -39l232 -328l270 322l-98 45v28h317v-28l-113 -47l-333 -379l362 -518l105 -37v-29h-478z" />
    <glyph glyph-name="y" unicode="y" horiz-adv-x="1075" 
d="M-29 1038h480v-30l-132 -43l316 -717h4l252 719l-115 43v28h326v-28l-119 -45l-346 -947q-78 -225 -170 -303t-250 -77q-78 0 -121 20q-10 56 0 114t27 85l14 28h90q8 -102 43 -161q162 0 269 266l-455 975l-113 45v28z" />
    <glyph glyph-name="z" unicode="z" horiz-adv-x="1038" 
d="M934 1038v-63l-635 -901h498q23 70 63 138t66 99l28 35l33 -10q-20 -133 -20 -266v-70h-914v63l637 902h-395q-16 -59 -57 -117t-74 -86l-31 -29l-31 15q20 106 21 221v69h811z" />
    <glyph glyph-name="braceleft" unicode="{" horiz-adv-x="737" 
d="M553 -272q-334 0 -313 340l20 297q10 135 -27 177t-174 52v43q137 10 174 52t27 177l-20 297q-20 340 313 340q33 0 111 -8v-43l-41 -4q-90 -8 -123 -32q-59 -44 -51 -156l20 -281q6 -100 -5 -165q-19 -114 -136 -161q-47 -18 -131 -32v-11q84 -14 131 -32t86 -58
t50 -104t5 -164l-20 -281q-9 -104 33 -142t128 -46l54 -4v-43q-78 -8 -111 -8z" />
    <glyph glyph-name="bar" unicode="|" horiz-adv-x="487" 
d="M291 -342h-90v1825h90v-1825z" />
    <glyph glyph-name="braceright" unicode="}" horiz-adv-x="737" 
d="M184 1503q334 0 314 -340l-21 -297q-10 -135 27 -177t174 -52v-43q-137 -10 -174 -52t-27 -177l21 -297q20 -340 -314 -340q-33 0 -110 8v43l53 4q86 8 128 46t34 142l-21 281q-6 100 5 165q19 113 137 161q47 18 131 32v11q-84 14 -131 32q-47 17 -86 57q-38 40 -50 104
t-6 165l21 281q8 106 -37 143t-137 45l-41 4v43q78 8 110 8z" />
    <glyph glyph-name="asciitilde" unicode="~" horiz-adv-x="1232" 
d="M880 514q-76 0 -222 67t-216 66q-152 0 -266 -141l-78 63q60 89 152 145t196 56t258 -69q152 -69 193 -68q96 0 164 94l74 -63q-39 -66 -109 -108t-146 -42z" />
    <glyph glyph-name="DEL" 
 />
    <glyph glyph-name="uni00A0" unicode="&#xa0;" horiz-adv-x="428" 
 />
    <glyph glyph-name="exclamdown" unicode="&#xa1;" horiz-adv-x="628" 
d="M182 930q0 53 39 91t93 38t94 -38t38 -91q0 -53 -38 -92t-94 -39q-54 0 -93 39t-39 92zM315 -373q-49 0 -88 27t-47 72l125 940h23l125 -940q-9 -47 -49 -73t-89 -26z" />
    <glyph glyph-name="cent" unicode="&#xa2;" horiz-adv-x="1062" 
d="M319 653q-1 -180 63 -280t167 -129v864q-230 -52 -230 -455zM621 -20h-72v129q-207 14 -326 149q-119 134 -119 370t127 382t318 172v147h72v-141h4q102 0 191 -33t140 -86q-2 -61 -19 -115t-34 -77l-16 -25h-105q-6 137 -45 227q-51 35 -116 37v-885h14q150 0 313 140
l31 -27q-113 -221 -358 -235v-129z" />
    <glyph glyph-name="sterling" unicode="&#xa3;" horiz-adv-x="1232" 
d="M102 0v31l148 41q39 90 39 360v180h-187v72h187v168q0 223 133 350t354 127q94 1 209 -25t129 -28v-98q0 -42 16 -142l7 -26l-39 -21q-12 4 -42 31q-105 95 -132 205q-78 39 -144 39q-266 0 -266 -402v-178h289v-72h-289v-153q0 -274 -154 -381h603q14 86 53 163t69 109
l31 33l39 -8q-20 -172 -20 -264v-111h-1033z" />
    <glyph glyph-name="yen" unicode="&#xa5;" horiz-adv-x="1404" 
d="M231 612v72h301l-342 551l-129 45v29h547v-29l-153 -45l317 -551h6l357 551l-152 45v29h385v-29l-135 -45l-367 -551h328v-72h-373v-147h373v-72h-373v-317l176 -45v-31h-579v31l176 45v317h-363v72h363v123l-16 24h-347z" />
    <glyph glyph-name="brokenbar" unicode="&#xa6;" horiz-adv-x="493" 
d="M297 758h-100v725h100v-725zM297 -252h-100v725h100v-725z" />
    <glyph glyph-name="section" unicode="&#xa7;" horiz-adv-x="1183" 
d="M307 637q0 -162 213 -236l277 -92q55 -20 90 -45q35 66 35 148t-50 139t-163 96l-277 94q-51 16 -90 43q-35 -66 -35 -147zM1106 500q0 -168 -170 -275q104 -98 104 -239q0 -172 -134 -260t-326 -88q-109 0 -236 30t-156 35v98q0 64 -20 174l-8 33l49 8q13 -6 33 -21
t64 -79t67 -147q94 -57 215 -57q122 0 188 56t66 140q0 141 -164 198l-234 80q-322 104 -321 365q0 170 168 272q-103 92 -103 252t134 249t325 89q111 0 238 -32t155 -35v-99q0 -62 21 -170l8 -33l-49 -12q-12 6 -32 22t-65 78q-44 64 -67 148q-94 57 -215 57t-187 -55
t-67 -141q0 -139 164 -197l233 -80q322 -106 322 -364z" />
    <glyph glyph-name="dieresis" unicode="&#xa8;" horiz-adv-x="686" 
d="M496 1227q-43 1 -74 31t-31 73t31 74t74 31q42 0 74 -31t32 -74t-32 -73t-74 -31zM193 1227q-43 1 -75 31t-32 73t32 74t75 31t73 -31t31 -74q-1 -43 -31 -73t-73 -31z" />
    <glyph glyph-name="copyright" unicode="&#xa9;" horiz-adv-x="1581" 
d="M803 207q-199 0 -321 122t-122 346t134 352t344 128q66 0 148 -14t106 -15v-84q0 -58 12 -127l4 -22l-35 -12q-27 13 -68 68q-41 54 -63 116q-53 29 -113 29q-117 0 -185 -106t-69 -288q0 -184 75 -281t196 -97q70 0 125 26t79 50q24 26 58 71l33 -16q-31 -96 -115 -171
t-223 -75zM797 1362q-272 0 -466 -197t-194 -471t194 -469t466 -195t466 196q194 194 193 468q0 274 -193 471q-194 197 -466 197zM82 694q0 297 209 507t506 210t507 -210t210 -507t-210 -506q-210 -208 -507 -208t-506 208t-209 506z" />
    <glyph glyph-name="ordfeminine" unicode="&#xaa;" horiz-adv-x="681" 
d="M289 864q47 0 84 33q0 115 2 174q-96 -23 -150 -61v-80q1 -66 64 -66zM543 846q29 0 61 41l12 -19q-47 -80 -135 -80t-104 68q-71 -70 -141 -70q-154 0 -154 136v63q74 86 293 131v33q0 135 -90 135q-33 0 -66 -16q-14 -42 -14 -101l-2 -20h-78q-27 37 -35 98
q31 33 92 59t133 25q203 0 203 -186l-4 -258q0 -39 29 -39z" />
    <glyph glyph-name="guillemotleft" unicode="&#xab;" horiz-adv-x="993" 
d="M483 487v68l353 393h75l-231 -424l231 -430h-75zM74 487v68l352 393h76l-232 -424l232 -430h-76z" />
    <glyph glyph-name="logicalnot" unicode="&#xac;" horiz-adv-x="1024" 
d="M98 567v101h828v-469h-101v368h-727z" />
    <glyph glyph-name="registered" unicode="&#xae;" horiz-adv-x="1245" 
d="M612 1137h-57v-273h115q66 41 65 137q0 136 -123 136zM942 569h-160q-47 16 -77 88l-72 172h-78v-229l61 -18v-13h-264v13l66 18v543l-66 18v13h287q109 0 175 -41t65 -127q0 -113 -113 -150v-4l59 -131q25 -57 55 -92t46 -41l16 -6v-13zM629 1364q-205 0 -350 -147
t-145 -355t144 -354q146 -148 351 -148t349 148t144 354t-144 354t-349 148zM82 862q0 227 160 388t387 161t388 -161t161 -388t-161 -387t-388 -160t-387 160t-160 387z" />
    <glyph glyph-name="macron" unicode="&#xaf;" horiz-adv-x="698" 
d="M117 1284v82h479v-82h-479z" />
    <glyph glyph-name="degree" unicode="&#xb0;" horiz-adv-x="663" 
d="M162 1071q0 -78 52 -134t124 -56t124 56t52 134t-52 135q-52 58 -124 58t-124 -58t-52 -135zM82 1071q0 106 75 182t181 76t182 -76t76 -182t-76 -181t-182 -75t-181 75t-75 181z" />
    <glyph glyph-name="plusminus" unicode="&#xb1;" horiz-adv-x="1024" 
d="M98 16v101h828v-101h-828zM98 586v100h365v336h100v-336h363v-100h-363v-338h-100v338h-365z" />
    <glyph glyph-name="twosuperior" unicode="&#xb2;" horiz-adv-x="733" 
d="M621 725v-61h-498l-8 38q1 2 31 28t40 35t41 36t45 42t44 45t61 74q65 92 65 162q0 96 -106 96t-162 -85l-33 18q29 68 89 122t156 54t152 -51q58 -52 58 -124t-28 -126q-56 -107 -294 -262v-4h252q23 48 82 90l23 -6q-10 -68 -10 -121z" />
    <glyph glyph-name="threesuperior" unicode="&#xb3;" horiz-adv-x="700" 
d="M416 1138q0 101 -107 101q-92 0 -157 -78l-27 10q25 66 84 112t152 46t149 -43t55 -112q0 -102 -147 -142v-2q178 -35 178 -170q0 -96 -75 -150t-166 -54q-179 -1 -240 55q0 65 19 96q19 32 24 35h37q10 -76 28 -121q45 -23 99 -23t88 36q32 36 32 113t-45 107t-125 43
l13 31q67 8 99 32t32 78z" />
    <glyph glyph-name="acute" unicode="&#xb4;" horiz-adv-x="593" 
d="M344 1499h21l114 -129l-348 -199l-29 27z" />
    <glyph glyph-name="mu" unicode="&#xb5;" horiz-adv-x="1226" 
d="M395 1059v-862q47 -97 181 -97t235 90v728l-149 24v33l327 84h35v-983l143 -45v-31h-319l-21 137h-10q-143 -158 -328 -157q-70 0 -131 20l45 -342h-219v1260l-139 24v33l328 84h22z" />
    <glyph glyph-name="paragraph" unicode="&#xb6;" horiz-adv-x="1140" 
d="M891 113q0 -113 -31 -200q-98 -275 -461 -275q-88 0 -131 18q-10 52 6 112t37 93l21 30h69q-4 -121 43 -182q60 0 119 30q59 29 95 67t63 114t27 176v1295h307v-31l-164 -45v-1202zM623 1391v-1045q-275 -2 -419 146t-144 377q0 228 156 375q157 147 407 147z" />
    <glyph glyph-name="periodcentered" unicode="&#xb7;" horiz-adv-x="458" 
d="M98 614q0 52 38 92t94 40t95 -39q37 -39 37 -93t-38 -91q-38 -38 -94 -38t-94 38t-38 91z" />
    <glyph glyph-name="cedilla" unicode="&#xb8;" horiz-adv-x="563" 
d="M479 -233q0 -59 -57 -95q-58 -36 -158 -34q-100 0 -172 55l14 31q61 -29 134 -29q96 0 96 65q0 74 -133 105v8l98 158h66l-74 -117q186 -23 186 -147z" />
    <glyph glyph-name="onesuperior" unicode="&#xb9;" horiz-adv-x="620" 
d="M223 1210q-75 0 -108 25v18q156 14 258 76l28 -12v-606l117 -29v-18h-379v18l113 29v499h-29z" />
    <glyph glyph-name="ordmasculine" unicode="&#xba;" horiz-adv-x="673" 
d="M350 834q102 0 102 225t-112 225q-55 0 -80 -55t-24 -172q-1 -223 114 -223zM82 1055q0 127 74 201t191 73q118 0 189 -71q70 -72 70 -198t-74 -200t-192 -74t-188 71t-70 198z" />
    <glyph glyph-name="guillemotright" unicode="&#xbb;" horiz-adv-x="993" 
d="M920 555v-68l-353 -393h-75l231 430l-231 424h75zM510 555v-68l-352 -393h-76l231 430l-231 424h76z" />
    <glyph glyph-name="onequarter" unicode="&#xbc;" horiz-adv-x="1320" 
d="M281 0h-93l953 1309h88zM223 1210q-75 0 -108 25v18q156 14 258 76l28 -12v-606l117 -29v-18h-379v18l113 29v499h-29zM967 205v325h-4l-224 -325h228zM668 162v26l321 465h127v-448h82v-43h-82v-123l76 -23v-16h-307v16l82 23v123h-299z" />
    <glyph glyph-name="onehalf" unicode="&#xbd;" horiz-adv-x="1400" 
d="M281 0h-93l953 1309h88zM223 1210q-75 0 -108 25v18q156 14 258 76l28 -12v-606l117 -29v-18h-379v18l113 29v499h-29zM1288 61v-61h-497l-9 39q22 23 52 47t61 51t45 42t43 44t66 81q61 87 61 157q0 96 -106 96t-162 -86l-33 18q29 68 89 122q60 55 156 55t152 -52
q58 -52 58 -124t-28 -125q-57 -109 -294 -263v-4h252q23 48 82 90l22 -6q-10 -68 -10 -121z" />
    <glyph glyph-name="threequarters" unicode="&#xbe;" horiz-adv-x="1296" 
d="M256 0h-92l952 1309h88zM416 1138q0 101 -107 101q-92 0 -157 -78l-27 10q25 66 84 112t152 46t149 -43t55 -112q0 -102 -147 -142v-2q178 -35 178 -170q0 -96 -75 -150t-166 -54q-179 -1 -240 55q0 65 19 96q19 32 24 35h37q10 -76 28 -121q45 -23 99 -23t88 36
q32 36 32 113t-45 107t-125 43l13 31q67 8 99 32t32 78zM932 205v325h-4l-223 -325h227zM633 162v26l321 465h127v-448h82v-43h-82v-123l76 -23v-16h-307v16l82 23v123h-299z" />
    <glyph glyph-name="questiondown" unicode="&#xbf;" horiz-adv-x="1017" 
d="M737 930q0 -53 -39 -92t-94 -39t-94 39t-39 92t39 91t94 38t94 -38t39 -91zM537 -373q-201 0 -322 94t-121 265q0 286 299 414q76 32 162 46l37 220h26l72 -363q-45 -8 -97 -17t-123 -43q-71 -35 -102 -77q-63 -87 -64 -213q-1 -125 77 -190t188 -64q63 0 123 25
q67 117 96 221l13 39h86q18 -30 32 -92q15 -62 9 -111q-50 -59 -150 -107t-241 -47z" />
    <glyph glyph-name="Agrave" unicode="&#xc0;" horiz-adv-x="1421" 
d="M530 1851h21l242 -301l-29 -26l-348 198zM645 1114h-8l-229 -596h462zM1430 0h-553v29l161 45l-143 375h-516l-146 -375l160 -45v-29h-401v29l137 45l537 1321l88 16l538 -1337l138 -45v-29z" />
    <glyph glyph-name="Aacute" unicode="&#xc1;" horiz-adv-x="1421" 
d="M877 1851h20l115 -129l-348 -198l-29 26zM645 1114h-8l-229 -596h462zM1430 0h-553v29l161 45l-143 375h-516l-146 -375l160 -45v-29h-401v29l137 45l537 1321l88 16l538 -1337l138 -45v-29z" />
    <glyph glyph-name="Acircumflex" unicode="&#xc2;" horiz-adv-x="1421" 
d="M684 1823h61l244 -275l-22 -20l-252 133l-252 -133l-21 20zM645 1114h-8l-229 -596h462zM1430 0h-553v29l161 45l-143 375h-516l-146 -375l160 -45v-29h-401v29l137 45l537 1321l88 16l538 -1337l138 -45v-29z" />
    <glyph glyph-name="Atilde" unicode="&#xc3;" horiz-adv-x="1421" 
d="M873 1581q-75 0 -172 44t-160 44q-66 -25 -140 -125l-22 10q41 248 209 248q70 0 163 -42t142 -42q70 25 123 113l20 -8q-6 -98 -47 -170t-116 -72zM645 1114h-8l-229 -596h462zM1430 0h-553v29l161 45l-143 375h-516l-146 -375l160 -45v-29h-401v29l137 45l537 1321
l88 16l538 -1337l138 -45v-29z" />
    <glyph glyph-name="Adieresis" unicode="&#xc4;" horiz-adv-x="1421" 
d="M862 1579q-43 0 -74 31q-30 32 -30 74t30 73q31 31 74 31t75 -31t32 -74t-32 -73t-75 -31zM559 1579q-43 0 -75 31q-32 32 -32 74t32 73t75 31t74 -31t31 -74t-31 -73t-74 -31zM645 1114h-8l-229 -596h462zM1430 0h-553v29l161 45l-143 375h-516l-146 -375l160 -45v-29
h-401v29l137 45l537 1321l88 16l538 -1337l138 -45v-29z" />
    <glyph glyph-name="Aring" unicode="&#xc5;" horiz-adv-x="1421" 
d="M723 1548q80 0 80 129t-92 129q-82 0 -82 -129t94 -129zM719 1845q92 0 147 -43q56 -43 56 -123t-58 -126t-149 -46q-92 0 -149 44q-56 44 -56 123t58 125q59 46 151 46zM645 1114h-8l-229 -596h462zM1430 0h-553v29l161 45l-143 375h-516l-146 -375l160 -45v-29h-401v29
l137 45l537 1321l88 16l538 -1337l138 -45v-29z" />
    <glyph glyph-name="AE" unicode="&#xc6;" horiz-adv-x="1990" 
d="M938 1309h-6l-443 -795h449v795zM1849 1391v-70q0 -129 15 -246l6 -39l-39 -10q-96 109 -154 287h-510v-570l465 13l41 112h43v-319h-37l-45 113l-467 12v-596h557q36 134 123 264l29 39l41 -10q-20 -156 -21 -287v-84h-1118v31l160 45v368h-489l-207 -370l159 -45v-29
h-401v29l129 45l752 1317h968z" />
    <glyph glyph-name="Ccedilla" unicode="&#xc7;" horiz-adv-x="1263" 
d="M596 -305q96 0 96 65q0 74 -133 105v8l70 115q-244 33 -392 211q-149 179 -149 499t196 516t494 197q100 1 221 -23t150 -26v-84q0 -124 22 -209l7 -33l-50 -18q-14 10 -36 30t-71 91q-50 72 -79 153q-92 43 -199 43q-186 0 -298 -167q-111 -167 -111 -458
q0 -292 122 -444t314 -151q111 0 199 41t131 85t94 113l31 -16q-36 -121 -148 -233q-57 -56 -146 -91t-198 -34q-29 0 -43 2l-41 -68q186 -23 187 -147q0 -59 -58 -95t-157 -34q-100 0 -172 55l14 31q61 -29 133 -29z" />
    <glyph glyph-name="Egrave" unicode="&#xc8;" horiz-adv-x="1298" 
d="M512 1851h20l242 -301l-29 -26l-348 198zM86 1391h1069v-70q0 -90 16 -246l7 -39l-41 -10q-92 109 -152 287h-512v-570l467 13l41 112h43v-319h-39l-45 113l-467 12v-596h559q45 143 125 264l27 39l41 -10q-23 -156 -23 -287v-84h-1116v31l160 45v1239l-160 45v31z" />
    <glyph glyph-name="Eacute" unicode="&#xc9;" horiz-adv-x="1298" 
d="M86 1391h1069v-70q0 -90 16 -246l7 -39l-41 -10q-92 109 -152 287h-512v-570l467 13l41 112h43v-319h-39l-45 113l-467 12v-596h559q45 143 125 264l27 39l41 -10q-23 -156 -23 -287v-84h-1116v31l160 45v1239l-160 45v31zM840 1851h20l115 -129l-348 -198l-29 26z" />
    <glyph glyph-name="Ecircumflex" unicode="&#xca;" horiz-adv-x="1298" 
d="M86 1391h1069v-70q0 -90 16 -246l7 -39l-41 -10q-92 109 -152 287h-512v-570l467 13l41 112h43v-319h-39l-45 113l-467 12v-596h559q45 143 125 264l27 39l41 -10q-23 -156 -23 -287v-84h-1116v31l160 45v1239l-160 45v31zM629 1823h61l244 -275l-23 -20l-252 133
l-251 -133l-21 20z" />
    <glyph glyph-name="Edieresis" unicode="&#xcb;" horiz-adv-x="1298" 
d="M86 1391h1069v-70q0 -90 16 -246l7 -39l-41 -10q-92 109 -152 287h-512v-570l467 13l41 112h43v-319h-39l-45 113l-467 12v-596h559q45 143 125 264l27 39l41 -10q-23 -156 -23 -287v-84h-1116v31l160 45v1239l-160 45v31zM807 1579q-43 0 -74 31q-31 32 -31 74t31 73
t74 31t75 -31t32 -74t-32 -73t-75 -31zM504 1579q-43 0 -75 31q-32 32 -32 74t32 73t75 31t74 -31q30 -31 30 -74t-30 -73t-74 -31z" />
    <glyph glyph-name="Igrave" unicode="&#xcc;" horiz-adv-x="718" 
d="M201 1851h20l242 -301l-29 -26l-348 198zM86 1391h547v-31l-160 -45v-1239l160 -45v-31h-547v31l160 45v1239l-160 45v31z" />
    <glyph glyph-name="Iacute" unicode="&#xcd;" horiz-adv-x="718" 
d="M524 1851h21l114 -129l-348 -198l-28 26zM86 1391h547v-31l-160 -45v-1239l160 -45v-31h-547v31l160 45v1239l-160 45v31z" />
    <glyph glyph-name="Icircumflex" unicode="&#xce;" horiz-adv-x="718" 
d="M338 1823h61l244 -275l-22 -20l-252 133l-252 -133l-21 20zM86 1391h547v-31l-160 -45v-1239l160 -45v-31h-547v31l160 45v1239l-160 45v31z" />
    <glyph glyph-name="Idieresis" unicode="&#xcf;" horiz-adv-x="718" 
d="M516 1579q-43 0 -74 31q-30 32 -30 74t30 73q31 31 74 31t75 -31t32 -74t-32 -73t-75 -31zM213 1579q-43 0 -75 31q-32 32 -32 74t32 73t75 31t74 -31t31 -74t-32 -73q-30 -30 -73 -31zM86 1391h547v-31l-160 -45v-1239l160 -45v-31h-547v31l160 45v1239l-160 45v31z" />
    <glyph glyph-name="Eth" unicode="&#xd0;" horiz-adv-x="1492" 
d="M721 1315h-248v-537h297v-76h-297v-622h252q207 0 325 163t118 451t-121 454q-121 167 -326 167zM88 702v76h158v537l-160 45v31h637q311 1 499 -179t189 -504q0 -324 -196 -516t-492 -192h-637v31l160 45v626h-158z" />
    <glyph glyph-name="Ntilde" unicode="&#xd1;" horiz-adv-x="1497" 
d="M910 1556q-75 0 -172 44t-160 45q-66 -25 -140 -125l-22 10q41 248 209 248q71 0 163 -42t142 -42q70 25 123 112l20 -8q-6 -98 -47 -170t-116 -72zM1026 1391h406v-29l-158 -45v-1317h-86l-854 1139v-1065q4 0 31 -8l129 -37v-29h-408v29l160 45v1243l-160 45v29h340
l758 -1018v944l-158 45v29z" />
    <glyph glyph-name="Ograve" unicode="&#xd2;" horiz-adv-x="1423" 
d="M528 1851h21l242 -301l-29 -26l-348 198zM699 1343q-177 0 -275 -173t-98 -474t110 -473t290 -172q179 0 276 170q98 170 98 470t-112 476t-289 176zM80 684q0 334 178 530t461 197q283 0 453 -186q170 -187 171 -521q0 -334 -177 -530q-178 -196 -460 -194
q-282 0 -454 185t-172 519z" />
    <glyph glyph-name="Oacute" unicode="&#xd3;" horiz-adv-x="1423" 
d="M699 1343q-177 0 -275 -173t-98 -474t110 -473t290 -172q179 0 276 170q98 170 98 470t-112 476t-289 176zM80 684q0 334 178 530t461 197q283 0 453 -186q170 -187 171 -521q0 -334 -177 -530q-178 -196 -460 -194q-282 0 -454 185t-172 519zM870 1851h21l115 -129
l-349 -198l-28 26z" />
    <glyph glyph-name="Ocircumflex" unicode="&#xd4;" horiz-adv-x="1423" 
d="M699 1343q-177 0 -275 -173t-98 -474t110 -473t290 -172q179 0 276 170q98 170 98 470t-112 476t-289 176zM80 684q0 334 178 530t461 197q283 0 453 -186q170 -187 171 -521q0 -334 -177 -530q-178 -196 -460 -194q-282 0 -454 185t-172 519zM696 1823h62l243 -275
l-22 -20l-252 133l-252 -133l-20 20z" />
    <glyph glyph-name="Otilde" unicode="&#xd5;" horiz-adv-x="1423" 
d="M881 1581q-75 0 -171 44t-161 44q-66 -25 -139 -125l-23 10q41 248 209 248q70 0 163 -42t142 -42q70 25 123 113l20 -8q-6 -98 -47 -170t-116 -72zM699 1343q-177 0 -275 -173t-98 -474t110 -473t290 -172q179 0 276 170q98 170 98 470t-112 476t-289 176zM80 684
q0 334 178 530t461 197q283 0 453 -186q170 -187 171 -521q0 -334 -177 -530q-178 -196 -460 -194q-282 0 -454 185t-172 519z" />
    <glyph glyph-name="Odieresis" unicode="&#xd6;" horiz-adv-x="1423" 
d="M699 1343q-177 0 -275 -173t-98 -474t110 -473t290 -172q179 0 276 170q98 170 98 470t-112 476t-289 176zM80 684q0 334 178 530t461 197q283 0 453 -186q170 -187 171 -521q0 -334 -177 -530q-178 -196 -460 -194q-282 0 -454 185t-172 519zM877 1579q-43 0 -74 31
q-31 32 -31 74t31 73t74 31t75 -31t31 -74q1 -43 -31 -73t-75 -31zM573 1579q-43 0 -75 31q-32 32 -31 74q0 42 32 73q33 31 75 31t73 -31t31 -74t-31 -73t-74 -31z" />
    <glyph glyph-name="multiply" unicode="&#xd7;" horiz-adv-x="858" 
d="M170 285l-72 69l258 258l-254 254l70 70l254 -254l258 258l70 -72l-256 -256l262 -262l-70 -69l-264 260z" />
    <glyph glyph-name="Oslash" unicode="&#xd8;" horiz-adv-x="1423" 
d="M697 1343q-175 0 -273 -173t-98 -478q0 -231 69 -393l590 875q-113 169 -288 169zM726 51q178 0 276 170q98 171 98 441t-74 434l-590 -875q111 -170 290 -170zM717 1411q209 0 358 -102l70 102h92l-100 -151q207 -190 207 -540t-178 -546q-177 -196 -457 -194
q-215 0 -365 104l-70 -104h-94l103 153q-203 189 -203 537t178 544t459 197z" />
    <glyph glyph-name="Ugrave" unicode="&#xd9;" horiz-adv-x="1501" 
d="M592 1851h20l242 -301l-29 -26l-348 198zM1178 416v899l-160 45v31h420v-31l-160 -45v-1016q-119 -319 -516 -319q-197 0 -343 74t-202 218v1043l-160 45v31h547v-31l-160 -45v-914q0 -151 90 -237t254 -86t277 93t113 245z" />
    <glyph glyph-name="Uacute" unicode="&#xda;" horiz-adv-x="1501" 
d="M1178 416v899l-160 45v31h420v-31l-160 -45v-1016q-119 -319 -516 -319q-197 0 -343 74t-202 218v1043l-160 45v31h547v-31l-160 -45v-914q0 -151 90 -237t254 -86t277 93t113 245zM940 1851h21l114 -129l-348 -198l-29 26z" />
    <glyph glyph-name="Ucircumflex" unicode="&#xdb;" horiz-adv-x="1501" 
d="M1178 416v899l-160 45v31h420v-31l-160 -45v-1016q-119 -319 -516 -319q-197 0 -343 74t-202 218v1043l-160 45v31h547v-31l-160 -45v-914q0 -151 90 -237t254 -86t277 93t113 245zM750 1823h61l244 -275l-23 -20l-252 133l-252 -133l-20 20z" />
    <glyph glyph-name="Udieresis" unicode="&#xdc;" horiz-adv-x="1501" 
d="M1178 416v899l-160 45v31h420v-31l-160 -45v-1016q-119 -319 -516 -319q-197 0 -343 74t-202 218v1043l-160 45v31h547v-31l-160 -45v-914q0 -151 90 -237t254 -86t277 93t113 245zM936 1579q-43 0 -74 31q-31 32 -31 74t31 73t74 31t75 -31q31 -31 31 -74t-32 -73
t-74 -31zM633 1579q-43 0 -75 31q-32 32 -32 74t32 73t75 31t74 -31t31 -74t-32 -73q-30 -30 -73 -31z" />
    <glyph glyph-name="Yacute" unicode="&#xdd;" horiz-adv-x="1372" 
d="M915 1851h21l115 -129l-349 -198l-28 26zM-8 1391h545v-29l-154 -45l367 -627h2l393 627l-150 45v29h385v-29l-135 -45l-452 -713v-528l176 -45v-31h-580v31l176 45v516l-442 725l-131 45v29z" />
    <glyph glyph-name="Thorn" unicode="&#xde;" horiz-adv-x="1298" 
d="M588 330h94q154 2 234 95t81 265q0 172 -83 262t-242 90h-199v-966l182 -45v-31h-569v31l160 45v1239l-160 45v31h547v-31l-160 -45v-195h201q254 0 410 -105t155 -307q0 -202 -139 -322t-330 -120q-78 0 -182 33v31z" />
    <glyph glyph-name="germandbls" unicode="&#xdf;" horiz-adv-x="1277" 
d="M717 1503q166 0 267 -78t101 -196q0 -61 -45 -117t-99 -94q-54 -37 -99 -92q-45 -56 -45 -114t108 -134l172 -119q92 -65 132 -133t40 -156q0 -125 -94 -208q-94 -82 -224 -82t-259 45v79q0 47 -17 129l-6 23l31 12q10 -8 28 -23t55 -67q36 -52 52 -108q61 -23 119 -23
t98 43q40 44 39 112q0 68 -27 106t-98 89l-139 97q-156 104 -156 243q0 103 84 202q35 40 70 79q84 94 84 192q-1 98 -59 158t-154 62q-233 0 -234 -388v-966l109 -45v-31h-471v31l147 45v878h-164v54l162 20v21q1 190 143 322t349 132z" />
    <glyph glyph-name="agrave" unicode="&#xe0;" horiz-adv-x="1091" 
d="M324 1499h20l242 -301l-29 -27l-348 199zM459 92q123 0 215 86q0 119 4 385q-248 -59 -379 -162v-122q0 -91 44 -139t116 -48zM678 729q0 265 -190 263q-94 0 -156 -40q-42 -68 -58 -198l-4 -41h-90q-61 74 -74 188q61 63 171 111q109 48 263 47q154 0 250 -84t97 -266
l-6 -541q0 -80 63 -80q33 0 67 36t48 75l35 -21q-38 -104 -92 -149t-134 -45q-162 0 -190 141q-137 -145 -295 -145q-125 0 -208 63t-83 199v123q152 176 586 258v106z" />
    <glyph glyph-name="aacute" unicode="&#xe1;" horiz-adv-x="1091" 
d="M651 1499h21l114 -129l-348 -199l-28 27zM459 92q123 0 215 86q0 119 4 385q-248 -59 -379 -162v-122q0 -91 44 -139t116 -48zM678 729q0 265 -190 263q-94 0 -156 -40q-42 -68 -58 -198l-4 -41h-90q-61 74 -74 188q61 63 171 111q109 48 263 47q154 0 250 -84t97 -266
l-6 -541q0 -80 63 -80q33 0 67 36t48 75l35 -21q-38 -104 -92 -149t-134 -45q-162 0 -190 141q-137 -145 -295 -145q-125 0 -208 63t-83 199v123q152 176 586 258v106z" />
    <glyph glyph-name="acircumflex" unicode="&#xe2;" horiz-adv-x="1091" 
d="M492 1470h61l244 -274l-23 -20l-252 133l-252 -133l-20 20zM459 92q123 0 215 86q0 119 4 385q-248 -59 -379 -162v-122q0 -91 44 -139t116 -48zM678 729q0 265 -190 263q-94 0 -156 -40q-42 -68 -58 -198l-4 -41h-90q-61 74 -74 188q61 63 171 111q109 48 263 47
q154 0 250 -84t97 -266l-6 -541q0 -80 63 -80q33 0 67 36t48 75l35 -21q-38 -104 -92 -149t-134 -45q-162 0 -190 141q-137 -145 -295 -145q-125 0 -208 63t-83 199v123q152 176 586 258v106z" />
    <glyph glyph-name="atilde" unicode="&#xe3;" horiz-adv-x="1091" 
d="M397 1450q70 0 163 -42t142 -42q70 25 123 113l21 -9q-6 -98 -47 -170t-116 -72t-172 45q-97 44 -161 44q-66 -25 -139 -125l-23 10q41 248 209 248zM459 92q123 0 215 86q0 119 4 385q-248 -59 -379 -162v-122q0 -91 44 -139t116 -48zM678 729q0 265 -190 263
q-94 0 -156 -40q-42 -68 -58 -198l-4 -41h-90q-61 74 -74 188q61 63 171 111q109 48 263 47q154 0 250 -84t97 -266l-6 -541q0 -80 63 -80q33 0 67 36t48 75l35 -21q-38 -104 -92 -149t-134 -45q-162 0 -190 141q-137 -145 -295 -145q-125 0 -208 63t-83 199v123
q152 176 586 258v106z" />
    <glyph glyph-name="adieresis" unicode="&#xe4;" horiz-adv-x="1091" 
d="M674 1227q-43 1 -74 31t-31 73t31 74t74 31t75 -31q31 -31 31 -74t-31 -74q-32 -30 -75 -30zM371 1227q-43 1 -75 31t-32 73t32 74t75 31t73 -31t31 -74q-1 -43 -31 -73t-73 -31zM459 92q123 0 215 86q0 119 4 385q-248 -59 -379 -162v-122q0 -91 44 -139t116 -48z
M678 729q0 265 -190 263q-94 0 -156 -40q-42 -68 -58 -198l-4 -41h-90q-61 74 -74 188q61 63 171 111q109 48 263 47q154 0 250 -84t97 -266l-6 -541q0 -80 63 -80q33 0 67 36t48 75l35 -21q-38 -104 -92 -149t-134 -45q-162 0 -190 141q-137 -145 -295 -145q-125 0 -208 63
t-83 199v123q152 176 586 258v106z" />
    <glyph glyph-name="aring" unicode="&#xe5;" horiz-adv-x="1091" 
d="M526 1196q80 0 80 129t-92 129q-82 0 -82 -129t94 -129zM522 1493q92 0 148 -43t55 -123q0 -80 -57 -126q-58 -46 -150 -46t-148 44t-56 123t58 125t150 46zM459 92q123 0 215 86q0 119 4 385q-248 -59 -379 -162v-122q0 -91 44 -139t116 -48zM678 729q0 265 -190 263
q-94 0 -156 -40q-42 -68 -58 -198l-4 -41h-90q-61 74 -74 188q61 63 171 111q109 48 263 47q154 0 250 -84t97 -266l-6 -541q0 -80 63 -80q33 0 67 36t48 75l35 -21q-38 -104 -92 -149t-134 -45q-162 0 -190 141q-137 -145 -295 -145q-125 0 -208 63t-83 199v123
q152 176 586 258v106z" />
    <glyph glyph-name="ae" unicode="&#xe6;" horiz-adv-x="1595" 
d="M1113 995q-101 0 -164 -108q-62 -109 -72 -297l444 18v39q0 162 -53 255q-54 93 -155 93zM451 92q164 0 284 105q-70 133 -69 327v39q-246 -59 -375 -162v-122q0 -91 44 -139t116 -48zM1128 -20q-251 0 -370 180q-195 -180 -383 -180q-125 0 -208 63t-83 199v123
q143 168 584 258q2 41 2 106q4 262 -203 262q-82 0 -143 -39q-42 -68 -58 -198l-4 -41h-90q-61 74 -74 188q59 63 170 111t250 47q215 0 293 -154q127 154 317 154t294 -124q103 -124 104 -327v-80l-649 7v-9q-1 -221 79 -324q80 -104 200 -104t190 36q71 36 145 104l27 -25
q-139 -233 -390 -233z" />
    <glyph glyph-name="ccedilla" unicode="&#xe7;" horiz-adv-x="985" 
d="M578 987q-142 0 -216 -119t-74 -340t88 -323q87 -103 227 -103t308 140l31 -27q-53 -102 -150 -169t-235 -66h-33l-41 -66q186 -23 187 -147q0 -59 -58 -95t-158 -34q-101 0 -171 55l14 31q61 -29 133 -29q96 0 96 65q0 74 -133 105v8l70 113q-182 27 -286 160
q-103 134 -103 373t152 389t362 151q98 0 188 -34t142 -85q-2 -60 -20 -114t-34 -78l-14 -25h-107q-4 137 -45 227q-51 37 -120 37z" />
    <glyph glyph-name="egrave" unicode="&#xe8;" horiz-adv-x="1003" 
d="M350 1499h21l241 -301l-28 -27l-348 199zM522 995q-100 0 -163 -109q-62 -110 -72 -296l442 18v39q0 162 -53 255q-54 93 -154 93zM541 -20q-217 0 -342 139t-125 391t132 400t326 148t298 -123q103 -124 104 -327v-80l-649 7v-9q0 -221 80 -324q79 -104 199 -104t190 36
t145 104l27 -25q-139 -233 -385 -233z" />
    <glyph glyph-name="eacute" unicode="&#xe9;" horiz-adv-x="1003" 
d="M522 995q-100 0 -163 -109q-62 -110 -72 -296l442 18v39q0 162 -53 255q-54 93 -154 93zM541 -20q-217 0 -342 139t-125 391t132 400t326 148t298 -123q103 -124 104 -327v-80l-649 7v-9q0 -221 80 -324q79 -104 199 -104t190 36t145 104l27 -25q-139 -233 -385 -233z
M694 1499h21l114 -129l-348 -199l-28 27z" />
    <glyph glyph-name="ecircumflex" unicode="&#xea;" horiz-adv-x="1003" 
d="M522 995q-100 0 -163 -109q-62 -110 -72 -296l442 18v39q0 162 -53 255q-54 93 -154 93zM541 -20q-217 0 -342 139t-125 391t132 400t326 148t298 -123q103 -124 104 -327v-80l-649 7v-9q0 -221 80 -324q79 -104 199 -104t190 36t145 104l27 -25q-139 -233 -385 -233z
M481 1470h62l243 -274l-22 -20l-252 133l-252 -133l-20 20z" />
    <glyph glyph-name="edieresis" unicode="&#xeb;" horiz-adv-x="1003" 
d="M522 995q-100 0 -163 -109q-62 -110 -72 -296l442 18v39q0 162 -53 255q-54 93 -154 93zM541 -20q-217 0 -342 139t-125 391t132 400t326 148t298 -123q103 -124 104 -327v-80l-649 7v-9q0 -221 80 -324q79 -104 199 -104t190 36t145 104l27 -25q-139 -233 -385 -233z
M659 1227q-43 1 -73 31t-31 73q0 43 31 74q32 31 74 31t74 -31t32 -74t-32 -73t-75 -31zM356 1227q-42 1 -74 31t-32 73t32 74t74 31t74 -31q31 -31 31 -74t-31 -73t-74 -31z" />
    <glyph glyph-name="igrave" unicode="&#xec;" horiz-adv-x="618" 
d="M141 1499h21l241 -301l-28 -27l-348 199zM422 1059v-983l143 -45v-31h-499v31l143 45v842l-146 24v33l334 84h25z" />
    <glyph glyph-name="iacute" unicode="&#xed;" horiz-adv-x="618" 
d="M422 1059v-983l143 -45v-31h-499v31l143 45v842l-146 24v33l334 84h25zM438 1499h21l114 -129l-348 -199l-28 27z" />
    <glyph glyph-name="icircumflex" unicode="&#xee;" horiz-adv-x="618" 
d="M422 1059v-983l143 -45v-31h-499v31l143 45v842l-146 24v33l334 84h25zM285 1470h61l244 -274l-23 -20l-252 133l-252 -133l-20 20z" />
    <glyph glyph-name="idieresis" unicode="&#xef;" horiz-adv-x="618" 
d="M422 1059v-983l143 -45v-31h-499v31l143 45v842l-146 24v33l334 84h25zM469 1227q-43 1 -74 31t-30 73q0 43 30 74q31 31 74 31t75 -31t32 -74t-32 -74q-32 -30 -75 -30zM166 1227q-43 1 -75 31t-32 73t32 74t75 31t74 -31q30 -31 30 -74t-30 -74q-31 -30 -74 -30z" />
    <glyph glyph-name="eth" unicode="&#xf0;" horiz-adv-x="1126" 
d="M582 47q242 0 241 471q0 227 -74 350q-75 123 -202 123q-244 0 -244 -473q0 -229 75 -350t204 -121zM1053 524q-1 -250 -139 -397t-354 -147t-351 141t-135 392t139 398t354 148q125 0 217 -70q-45 139 -131 250l-172 -76l-26 54l157 69q-68 82 -188 174l39 43
q143 -61 262 -164l162 72l28 -55l-145 -66q283 -295 283 -766z" />
    <glyph glyph-name="ntilde" unicode="&#xf1;" horiz-adv-x="1247" 
d="M504 1450q70 0 163 -42t142 -42q70 25 123 113l20 -9q-6 -98 -47 -170t-116 -72t-172 45q-97 44 -160 44q-66 -25 -140 -125l-22 10q41 248 209 248zM414 1059v-152h8q61 66 147 109t181 43q133 0 221 -86t88 -260v-637l143 -45v-31h-487v31l131 45v659q0 203 -189 203
q-129 0 -235 -90v-772l129 -45v-31h-485v31l143 45v842l-146 24v33l328 84h23z" />
    <glyph glyph-name="ograve" unicode="&#xf2;" horiz-adv-x="1126" 
d="M387 1499h21l241 -301l-28 -27l-349 199zM582 47q242 0 241 471q0 227 -74 351q-75 124 -202 124q-244 0 -244 -475q0 -227 75 -349t204 -122zM74 513q0 251 139 399t355 147q216 0 350 -141q134 -140 135 -392q-1 -252 -139 -399t-354 -147t-351 141t-135 392z" />
    <glyph glyph-name="oacute" unicode="&#xf3;" horiz-adv-x="1126" 
d="M582 47q242 0 241 471q0 227 -74 351q-75 124 -202 124q-244 0 -244 -475q0 -227 75 -349t204 -122zM74 513q0 251 139 399t355 147q216 0 350 -141q134 -140 135 -392q-1 -252 -139 -399t-354 -147t-351 141t-135 392zM707 1499h20l115 -129l-348 -199l-29 27z" />
    <glyph glyph-name="ocircumflex" unicode="&#xf4;" horiz-adv-x="1126" 
d="M582 47q242 0 241 471q0 227 -74 351q-75 124 -202 124q-244 0 -244 -475q0 -227 75 -349t204 -122zM74 513q0 251 139 399t355 147q216 0 350 -141q134 -140 135 -392q-1 -252 -139 -399t-354 -147t-351 141t-135 392zM541 1470h61l244 -274l-23 -20l-252 133l-252 -133
l-20 20z" />
    <glyph glyph-name="otilde" unicode="&#xf5;" horiz-adv-x="1126" 
d="M444 1450q70 0 163 -42t143 -42q70 25 122 113l21 -9q-6 -98 -47 -170t-116 -72t-172 45q-97 44 -161 44q-66 -25 -139 -125l-22 10q41 248 208 248zM582 47q242 0 241 471q0 227 -74 351q-75 124 -202 124q-244 0 -244 -475q0 -227 75 -349t204 -122zM74 513
q0 251 139 399t355 147q216 0 350 -141q134 -140 135 -392q-1 -252 -139 -399t-354 -147t-351 141t-135 392z" />
    <glyph glyph-name="odieresis" unicode="&#xf6;" horiz-adv-x="1126" 
d="M582 47q242 0 241 471q0 227 -74 351q-75 124 -202 124q-244 0 -244 -475q0 -227 75 -349t204 -122zM74 513q0 251 139 399t355 147q216 0 350 -141q134 -140 135 -392q-1 -252 -139 -399t-354 -147t-351 141t-135 392zM719 1227q-43 1 -74 31t-31 73t31 74t74 31t75 -31
t32 -74t-32 -74q-32 -30 -75 -30zM416 1227q-43 1 -75 31t-32 73t32 74t75 31q44 0 74 -31t30 -74t-30 -73t-74 -31z" />
    <glyph glyph-name="divide" unicode="&#xf7;" horiz-adv-x="1024" 
d="M397 268q0 47 35 81t82 34t81 -34t34 -81t-34 -81q-34 -33 -81 -33t-82 34t-35 80zM98 557v100h828v-100h-828zM397 944q0 47 35 81t82 34t81 -34t34 -81t-34 -81t-81 -34t-82 34t-35 81z" />
    <glyph glyph-name="oslash" unicode="&#xf8;" horiz-adv-x="1126" 
d="M303 518q0 -141 29 -244l432 566q-76 154 -217 153q-244 0 -244 -475zM582 47q242 0 241 471q0 145 -30 248l-433 -567q75 -152 222 -152zM567 1059q172 0 293 -90l70 90h84l-103 -135q141 -146 141 -398t-138 -399t-353 -147q-176 0 -297 90l-69 -90h-86l104 137
q-139 143 -139 395t139 400t354 147z" />
    <glyph glyph-name="ugrave" unicode="&#xf9;" horiz-adv-x="1226" 
d="M410 1499h20l242 -301l-29 -27l-348 199zM395 1059v-862q47 -97 181 -97t235 90v728l-149 24v33l327 84h35v-983l143 -45v-31h-319l-21 137h-10q-143 -158 -328 -157q-225 0 -305 204v734l-139 24v33l328 84h22z" />
    <glyph glyph-name="uacute" unicode="&#xfa;" horiz-adv-x="1226" 
d="M395 1059v-862q47 -97 181 -97t235 90v728l-149 24v33l327 84h35v-983l143 -45v-31h-319l-21 137h-10q-143 -158 -328 -157q-225 0 -305 204v734l-139 24v33l328 84h22zM766 1499h20l115 -129l-348 -199l-29 27z" />
    <glyph glyph-name="ucircumflex" unicode="&#xfb;" horiz-adv-x="1226" 
d="M395 1059v-862q47 -97 181 -97t235 90v728l-149 24v33l327 84h35v-983l143 -45v-31h-319l-21 137h-10q-143 -158 -328 -157q-225 0 -305 204v734l-139 24v33l328 84h22zM584 1470h61l244 -274l-23 -20l-252 133l-252 -133l-20 20z" />
    <glyph glyph-name="udieresis" unicode="&#xfc;" horiz-adv-x="1226" 
d="M395 1059v-862q47 -97 181 -97t235 90v728l-149 24v33l327 84h35v-983l143 -45v-31h-319l-21 137h-10q-143 -158 -328 -157q-225 0 -305 204v734l-139 24v33l328 84h22zM750 1227q-43 1 -74 31t-31 73t31 74t74 31q42 0 74 -31t32 -74t-32 -73t-74 -31zM446 1227
q-42 1 -74 31t-32 73t32 74t74 31t74 -31q31 -31 31 -74t-31 -73t-74 -31z" />
    <glyph glyph-name="yacute" unicode="&#xfd;" horiz-adv-x="1075" 
d="M801 1499h20l115 -129l-348 -199l-29 27zM-29 1038h480v-30l-132 -43l316 -717h4l252 719l-115 43v28h326v-28l-119 -45l-346 -947q-78 -225 -170 -303t-250 -77q-78 0 -121 20q-10 56 0 114t27 85l14 28h90q8 -102 43 -161q162 0 269 266l-455 975l-113 45v28z" />
    <glyph glyph-name="thorn" unicode="&#xfe;" horiz-adv-x="1196" 
d="M895 524q0 230 -73 322t-200 92t-223 -90v-686q95 -113 233 -113t201 122q62 122 62 353zM399 1503v-594q49 59 130 105t178 45q195 0 305 -131t108 -384q0 -253 -134 -409t-347 -155q-133 0 -240 45v-291q53 -20 172 -45v-31h-530v31l147 45v1644l-149 25v33l326 67h34z
" />
    <glyph glyph-name="ydieresis" unicode="&#xff;" horiz-adv-x="1075" 
d="M692 1227q-43 1 -74 31t-30 73q0 43 30 74q31 31 74 31t75 -31t32 -74t-32 -73t-75 -31zM389 1227q-43 1 -75 31t-31 73q0 43 31 74q32 31 75 31t74 -31t31 -74t-31 -73t-74 -31zM-29 1038h480v-30l-132 -43l316 -717h4l252 719l-115 43v28h326v-28l-119 -45l-346 -947
q-78 -225 -170 -303t-250 -77q-78 0 -121 20q-10 56 0 114t27 85l14 28h90q8 -102 43 -161q162 0 269 266l-455 975l-113 45v28z" />
    <glyph glyph-name="dotlessi" unicode="&#x131;" horiz-adv-x="618" 
d="M422 1059v-983l143 -45v-31h-499v31l143 45v842l-146 24v33l334 84h25z" />
    <glyph glyph-name="Lslash" unicode="&#x141;" horiz-adv-x="1200" 
d="M86 1391h547v-31l-160 -45v-408l205 152v-96l-205 -152v-733h498q20 80 59 156t68 114l26 37l39 -10q-20 -172 -20 -301v-74h-1057v31l160 45v569l-170 -125v96l170 125v574l-160 45v31z" />
    <glyph glyph-name="lslash" unicode="&#x142;" horiz-adv-x="610" 
d="M414 1503v-588l194 144v-96l-194 -144v-743l143 -45v-31h-500v31l144 45v588l-197 -144v96l197 144v622l-146 25v33l334 63h25z" />
    <glyph glyph-name="OE" unicode="&#x152;" horiz-adv-x="1927" 
d="M727 51q88 0 147 41v1192q-78 59 -176 59q-176 0 -274 -173t-98 -474t110 -473t291 -172zM709 -20q-279 0 -454 186t-175 518t180 530t457 197q96 0 172 -20h897v-70q0 -142 16 -246l4 -39l-39 -10q-94 109 -153 287h-510v-570l465 13l41 112h43v-319h-37l-45 113
l-467 12v-596h557q23 74 61 150t64 114l29 39l38 -10q-20 -156 -20 -287v-84h-954q-92 -20 -170 -20z" />
    <glyph glyph-name="oe" unicode="&#x153;" horiz-adv-x="1757" 
d="M1275 995q-101 0 -164 -109q-62 -110 -73 -296l445 18v39q0 162 -53 255q-54 93 -155 93zM582 47q242 0 241 471q0 227 -74 351q-75 124 -202 124q-244 0 -244 -475q0 -227 75 -349t204 -122zM1292 -20q-250 0 -362 186q-122 -186 -354 -186t-367 141t-135 392t139 398
t354 148q252 0 373 -191q125 190 332 190t311 -123q104 -124 105 -327v-80l-650 7v-9q0 -221 80 -324q80 -104 200 -104t190 36q71 36 145 104l24 -25q-135 -233 -385 -233z" />
    <glyph glyph-name="Scaron" unicode="&#x160;" horiz-adv-x="1163" 
d="M88 170q0 119 -22 215l-7 37l52 24q16 -14 42 -40q27 -26 77 -108q50 -83 71 -171q115 -68 249 -68t215 76t81 209q0 182 -207 256l-244 88q-129 47 -201 135t-71 207q0 188 139 284t342 97q111 0 242 -32t158 -33v-74q0 -124 20 -201l6 -31l-45 -18q-14 10 -36 30
t-71 88q-50 69 -77 150q-88 47 -209 47t-193 -62t-71 -163q0 -160 186 -225l234 -84q322 -115 321 -402q0 -170 -136 -296q-136 -125 -378 -125t-467 106v84zM618 1520h-61l-242 272l21 23l252 -134l252 134l22 -23z" />
    <glyph glyph-name="scaron" unicode="&#x161;" horiz-adv-x="940" 
d="M811 940q0 -57 20 -137l-32 -21q-6 3 -34 24q-84 63 -122 163q-66 27 -150 27t-134 -45q-50 -44 -50 -122q0 -121 129 -165l183 -62q244 -82 243 -285q0 -157 -108 -247t-294 -90t-366 81v62q0 76 -14 156l-6 22l43 18q37 -30 80 -94q43 -65 65 -133q100 -47 198 -47
t150 54q53 54 54 153q0 121 -136 168l-192 63q-102 33 -159 106q-56 73 -56 169q1 154 111 228t258 73q90 0 191 -24t128 -23v-72zM504 1167h-62l-241 273l20 22l252 -133l252 133l23 -22z" />
    <glyph glyph-name="Ydieresis" unicode="&#x178;" horiz-adv-x="1372" 
d="M838 1579q-43 0 -74 31q-31 32 -31 74t31 73t74 31q42 0 74 -31t32 -74t-32 -73t-74 -31zM535 1579q-43 0 -75 31q-32 32 -32 74t32 73t75 31t73 -31t31 -74q-1 -43 -31 -73t-73 -31zM-8 1391h545v-29l-154 -45l367 -627h2l393 627l-150 45v29h385v-29l-135 -45
l-452 -713v-528l176 -45v-31h-580v31l176 45v516l-442 725l-131 45v29z" />
    <glyph glyph-name="Zcaron" unicode="&#x17d;" horiz-adv-x="1255" 
d="M1124 1391v-68l-786 -1245h643q23 74 61 146t68 106l27 35l49 -15q-20 -127 -21 -272v-78h-1095v63l792 1250h-540q-16 -72 -56 -144t-73 -108l-31 -35l-45 14q20 133 20 275v76h987zM664 1520h-62l-242 272l21 23l252 -134l252 134l22 -23z" />
    <glyph glyph-name="zcaron" unicode="&#x17e;" horiz-adv-x="1038" 
d="M934 1038v-63l-635 -901h498q23 70 63 138t66 99l28 35l33 -10q-20 -133 -20 -266v-70h-914v63l637 902h-395q-16 -59 -57 -117t-74 -86l-31 -29l-31 15q20 106 21 221v69h811zM559 1167h-61l-242 273l20 22l252 -133l252 133l23 -22z" />
    <glyph glyph-name="florin" unicode="&#x192;" horiz-adv-x="1034" 
d="M805 739v-71h-246l-102 -633q-31 -197 -130 -297t-243 -100q-94 0 -197 51q2 59 24 113t44 79l20 23l117 -21q-47 -78 -57 -184q12 -2 44 -2q33 -1 63 23q61 47 98 257l112 691h-184v71h194l33 193q31 195 147 296t256 101t242 -51q-2 -60 -24 -116t-41 -81l-21 -26
l-116 20q49 76 57 180q-43 14 -72 15q-98 0 -143 -78t-68 -203l-41 -250h234z" />
    <glyph glyph-name="circumflex" unicode="&#x2c6;" horiz-adv-x="759" 
d="M354 1470h62l243 -274l-22 -20l-252 133l-252 -133l-20 20z" />
    <glyph glyph-name="caron" unicode="&#x2c7;" horiz-adv-x="759" 
d="M416 1167h-62l-241 273l20 22l252 -133l252 133l22 -22z" />
    <glyph glyph-name="breve" unicode="&#x2d8;" horiz-adv-x="665" 
d="M340 1323q158 0 207 131l43 -16q-18 -100 -83 -167t-168 -67t-169 68t-82 166l43 12q17 -53 71 -90t138 -37z" />
    <glyph glyph-name="dotaccent" unicode="&#x2d9;" horiz-adv-x="460" 
d="M102 1335q0 53 38 92t94 39t94 -39t39 -92q0 -53 -39 -91q-38 -38 -94 -38t-94 38t-38 91z" />
    <glyph glyph-name="ring" unicode="&#x2da;" horiz-adv-x="593" 
d="M307 1196q80 0 80 129t-92 129q-82 0 -82 -129t94 -129zM303 1493q91 0 147 -43t56 -123t-57 -126t-149 -46t-149 44t-57 123t58 125t151 46z" />
    <glyph glyph-name="ogonek" unicode="&#x2db;" horiz-adv-x="583" 
d="M360 -252q54 0 103 23l26 -50q-80 -83 -178 -83q-213 1 -215 163q0 77 62 139t135 93q72 31 160 53l18 -25q-96 -31 -162 -88t-65 -125q0 -100 116 -100z" />
    <glyph glyph-name="tilde" unicode="&#x2dc;" horiz-adv-x="1001" 
d="M381 1450q70 0 163 -42t142 -42q70 25 123 113l20 -9q-6 -98 -47 -170t-116 -72q-76 0 -172 45q-96 44 -160 44q-66 -25 -139 -125l-23 10q41 248 209 248z" />
    <glyph glyph-name="hungarumlaut" unicode="&#x2dd;" horiz-adv-x="780" 
d="M328 1210l315 217l96 -116v-33l-383 -102zM307 1501h21l110 -123l-354 -200l-31 34z" />
    <glyph glyph-name="pi" unicode="&#x3c0;" horiz-adv-x="1198" 
d="M68 952h1079l-510 -893z" />
    <glyph glyph-name="endash" unicode="&#x2013;" horiz-adv-x="1056" 
d="M104 508v92h846v-92h-846z" />
    <glyph glyph-name="emdash" unicode="&#x2014;" horiz-adv-x="1671" 
d="M104 508v92h1461v-92h-1461z" />
    <glyph glyph-name="quoteleft" unicode="&#x2018;" horiz-adv-x="450" 
d="M365 1075q0 -53 -37 -86q-36 -33 -98 -33t-97 43t-31 99q4 112 96 192t230 119l8 -20q-137 -100 -153 -193q82 -31 82 -121z" />
    <glyph glyph-name="quoteright" unicode="&#x2019;" horiz-adv-x="450" 
d="M88 1292q0 53 37 86t98 33t96 -43t31 -98q-4 -113 -95 -193t-230 -119l-9 21q137 100 154 192q-82 31 -82 121z" />
    <glyph glyph-name="quotesinglbase" unicode="&#x201a;" horiz-adv-x="425" 
d="M82 119q0 53 37 86t98 33t96 -43t31 -99q-4 -112 -95 -192t-231 -119l-8 20q137 100 154 193q-82 31 -82 121z" />
    <glyph glyph-name="quotedblleft" unicode="&#x201c;" horiz-adv-x="847" 
d="M762 1075q0 -53 -37 -86t-98 -33t-97 43q-35 43 -30 99q4 112 95 192t230 119l9 -20q-137 -100 -154 -193q82 -31 82 -121zM365 1075q0 -53 -37 -86q-36 -33 -98 -33t-97 43t-31 99q4 112 96 192t230 119l8 -20q-137 -100 -153 -193q82 -31 82 -121z" />
    <glyph glyph-name="quotedblright" unicode="&#x201d;" horiz-adv-x="845" 
d="M483 1292q0 53 37 86t98 33q60 0 96 -43t31 -98q-4 -113 -95 -193t-230 -119l-8 21q137 100 153 192q-82 31 -82 121zM88 1292q0 53 37 86t98 33t96 -43t31 -98q-4 -113 -95 -193t-230 -119l-9 21q137 100 154 192q-82 31 -82 121z" />
    <glyph glyph-name="quotedblbase" unicode="&#x201e;" horiz-adv-x="821" 
d="M477 119q0 53 37 86t98 33q60 0 96 -43t31 -99q-4 -112 -95 -192t-230 -119l-8 20q137 100 153 193q-82 31 -82 121zM82 119q0 53 37 86t98 33t96 -43t31 -99q-4 -112 -95 -192t-231 -119l-8 20q137 100 154 193q-82 31 -82 121z" />
    <glyph glyph-name="dagger" unicode="&#x2020;" horiz-adv-x="1052" 
d="M621 1391l-56 -377l389 43v-148l-389 43l56 -262l-58 -690h-74l-57 690l53 262l-387 -43v148l389 -45l-55 379h189z" />
    <glyph glyph-name="daggerdbl" unicode="&#x2021;" horiz-adv-x="1052" 
d="M98 909v148l389 -45l-55 379h189l-56 -377l389 43v-148l-389 43l56 -256l-56 -260l389 45v-147l-389 43l56 -377h-189l55 377l-389 -43v147l387 -43l-53 258l53 256z" />
    <glyph glyph-name="bullet" unicode="&#x2022;" horiz-adv-x="735" 
d="M172 550q0 81 57 138t141 57t140 -57q57 -57 57 -138t-57 -137q-57 -57 -140 -57q-82 0 -140 56t-58 138z" />
    <glyph glyph-name="ellipsis" unicode="&#x2026;" horiz-adv-x="1294" 
d="M950 109q0 53 38 92t94 39t94 -38t38 -92t-38 -93q-38 -37 -94 -37t-94 38t-38 91zM516 109q0 53 38 92t94 39t94 -38t38 -92t-39 -92t-94 -38t-93 38t-38 91zM82 109q0 53 38 92t94 39t94 -38t38 -92t-39 -92t-94 -38t-93 38t-38 91z" />
    <glyph glyph-name="perthousand" unicode="&#x2030;" horiz-adv-x="2072" 
d="M1735 653q121 0 191 -86t69 -246q0 -161 -73 -251q-72 -90 -192 -90t-192 86t-72 244t74 251q74 92 195 92zM1735 25q106 1 106 293q1 292 -109 292t-110 -292t113 -293zM1106 653q120 0 190 -86t70 -246q0 -161 -73 -251t-193 -90t-191 86t-71 244t73 251q74 92 195 92z
M1106 25q106 1 106 293t-110 292t-109 -292q0 -292 113 -293zM459 0h-94l657 1309h92zM375 1329q121 0 191 -86t69 -246q0 -160 -73 -251q-72 -91 -192 -91t-192 86t-72 245t74 251t195 92zM375 700q106 0 106 293q1 293 -109 293t-110 -293t113 -293z" />
    <glyph glyph-name="guilsinglleft" unicode="&#x2039;" horiz-adv-x="583" 
d="M74 487v68l352 393h76l-232 -424l232 -430h-76z" />
    <glyph glyph-name="guilsinglright" unicode="&#x203a;" horiz-adv-x="583" 
d="M510 555v-68l-352 -393h-76l231 430l-231 424h76z" />
    <glyph glyph-name="fraction" unicode="&#x2044;" horiz-adv-x="997" 
d="M72 0h-92l952 1309h88z" />
    <glyph glyph-name="Euro" unicode="&#x20ac;" horiz-adv-x="1329" 
d="M88 729v72h117q45 250 214 389t404 139q98 1 216 -23t145 -26v-94q0 -98 20 -201l8 -31l-57 -22q-14 10 -36 28t-71 92q-50 73 -77 158q-80 43 -183 43q-137 1 -229 -117t-117 -335h353v-72h-359v-67q0 -45 2 -66h357v-72h-351q29 -199 131 -304t258 -105t246 81
q49 42 76 72t66 86l36 -16q-37 -126 -142 -233q-56 -56 -143 -91t-194 -34q-233 0 -392 142t-189 402h-109v72h102v39q0 33 5 94h-107z" />
    <glyph glyph-name="trademark" unicode="&#x2122;" horiz-adv-x="1675" 
d="M322 1348h-134q-24 -70 -67 -136l-15 -20l-24 4q10 82 10 137v58h610v-58l11 -137l-25 -4q-53 76 -82 156h-133v-613l84 -22v-17h-321v17l86 22v613zM784 1391h217l211 -455h5l174 455h217v-17l-74 -22v-617l74 -22v-17h-301v17l75 22v457h-4q-12 -47 -24 -80l-152 -383
h-51l-199 375q-16 29 -26 88h-4v-457l73 -22v-17h-211v17l76 22v617l-76 22v17z" />
    <glyph glyph-name="Omega" unicode="&#x2126;" horiz-adv-x="1847" 
d="M1382 1059q128 0 232 -52t145 -112v-295q0 -307 -175 -464t-458 -156q-57 0 -114 6v2q110 12 230 86t149 190q-158 0 -272 81t-113 255v295q41 59 144 111t232 53zM123 600v295q41 59 144 111t233 53q130 0 232 -52q103 -52 145 -112v-295q1 -307 -175 -464t-458 -156
q-55 0 -115 6v2q111 12 231 86t148 190q-158 0 -272 81t-113 255z" />
    <glyph glyph-name="partialdiff" unicode="&#x2202;" horiz-adv-x="1187" 
d="M1016 1059v-1079l-893 509z" />
    <glyph glyph-name="Delta" unicode="&#x2206;" horiz-adv-x="2068" 
d="M565 262q-197 0 -319 115t-123 283q0 168 123 283q122 116 320 116t321 -121t123 -300q0 -494 -437 -625q-119 -36 -221 -36t-157 9v2q160 15 303 132q78 65 100 142h-33zM1540 262q-196 0 -320 116t-124 282t124 283q124 116 322 116t320 -121q123 -121 123 -300
q1 -179 -59 -310t-160 -205q-198 -146 -474 -146q-68 0 -123 9v2q159 14 302 132q79 65 102 142h-33z" />
    <glyph glyph-name="product" unicode="&#x220f;" horiz-adv-x="1198" 
d="M1147 88h-1079l569 893z" />
    <glyph glyph-name="summation" unicode="&#x2211;" horiz-adv-x="1187" 
d="M195 -20v1079l892 -570z" />
    <glyph glyph-name="minus" unicode="&#x2212;" horiz-adv-x="1024" 
d="M98 559v100h828v-100h-828z" />
    <glyph glyph-name="radical" unicode="&#x221a;" horiz-adv-x="2068" 
d="M1540 776q199 0 322 -116t123 -282t-124 -284q-124 -117 -321 -117q-198 0 -320 122q-122 123 -122 301t58 309t158 205q197 146 474 145q43 0 125 -8v-2q-105 -13 -198 -62q-174 -92 -208 -213q10 2 33 2zM567 776q197 0 320 -116t123 -282t-123 -284
q-123 -117 -320 -117t-321 122t-123 307q0 397 301 561q169 92 391 92q41 0 123 -8v-2q-167 -20 -303 -133q-78 -65 -100 -142q9 2 32 2z" />
    <glyph glyph-name="infinity" unicode="&#x221e;" horiz-adv-x="1644" 
d="M1217 352q106 0 165 60t60 163q0 103 -60 163t-165 61q-61 0 -133 -43t-106 -77t-99 -104q57 -63 96 -102t109 -80t133 -41zM428 352q63 0 133 41t111 80t94 102q-61 68 -97 104t-107 78t-134 42q-106 1 -164 -59t-59 -164q1 -104 59 -164t164 -60zM1546 574
q0 -132 -85 -218t-244 -86q-82 0 -162 41t-123 81t-109 110q-63 -68 -109 -109t-126 -82t-160 -41q-160 0 -245 86t-85 217t91 219t239 89q80 0 160 -41t125 -81t108 -108q166 173 278 210q56 19 118 20q149 0 239 -88q90 -87 90 -219z" />
    <glyph glyph-name="integral" unicode="&#x222b;" horiz-adv-x="1847" 
d="M877 438v-295q-41 -59 -145 -111t-232 -52t-232 52t-145 111v295q0 307 175 464t458 157q55 0 114 -6v-2q-112 -12 -232 -87t-149 -190q160 0 274 -81t114 -255zM1382 -20q-130 0 -232 52q-103 52 -144 111v295q0 307 175 464t457 157q55 0 115 -6v-2q-113 -12 -233 -87
t-148 -190q160 0 274 -81t113 -255v-295q-41 -59 -144 -111t-233 -52z" />
    <glyph glyph-name="approxequal" unicode="&#x2248;" horiz-adv-x="1232" 
d="M880 315q-76 0 -222 67t-216 67q-152 0 -266 -142l-78 64q60 90 152 145t196 55q104 -1 258 -69q152 -68 193 -68q96 0 164 94l74 -63q-39 -66 -109 -108t-146 -42zM880 686q-76 0 -222 67t-216 66q-152 0 -266 -141l-78 63q60 89 152 145t196 56t258 -69
q152 -69 193 -68q96 0 164 94l74 -63q-39 -66 -109 -108t-146 -42z" />
    <glyph glyph-name="notequal" unicode="&#x2260;" horiz-adv-x="1024" 
d="M98 750v100h461l84 186h109l-84 -186h258v-100h-303l-117 -261h420v-100h-465l-70 -158h-110l69 158h-252v100h297l119 261h-416z" />
    <glyph glyph-name="lessequal" unicode="&#x2264;" horiz-adv-x="1024" 
d="M98 20v101h828v-101h-828zM926 350v-112l-828 360v76l828 358v-114l-678 -281z" />
    <glyph glyph-name="greaterequal" unicode="&#x2265;" horiz-adv-x="1024" 
d="M926 121v-101h-828v101h828zM98 238v112l678 287l-678 281v114l828 -358v-76z" />
    <glyph glyph-name="lozenge" unicode="&#x25ca;" horiz-adv-x="927" 
d="M94 0v47h756v-47h-756zM94 1343v48h756v-48h-756zM512 692l236 -565h-74l-197 485l-198 -485h-74l235 565l-241 565h75l203 -481l199 481h74z" />
    <glyph glyph-name="apple" unicode="&#xf8ff;" horiz-adv-x="2955" 
d="M1718 584q0 27 -26 26q-42 1 -50 -69q76 0 76 43zM2380 584q0 27 -27 26q-41 1 -49 -69q76 0 76 43zM287 584q0 27 -27 26q-41 1 -49 -69q76 0 76 43zM1057 332q0 -29 28 -29q52 0 56 94q-84 -18 -84 -65zM1868 512q23 0 38 -14t15 -34t-15 -34t-38 -14t-37 13t-14 33
t14 36q14 14 37 14zM1448 553q0 41 -27 41t-46 -38t-19 -60v-47q92 12 92 104zM2352 471q42 0 73 18q16 -10 16 -25q0 -14 -5 -24t-29 -20q-23 -10 -71 -10t-81 30t-33 81q0 52 38 94t90 42t75 -19t22 -44q0 -78 -141 -78q4 -45 46 -45zM1786 594q0 -78 -141 -78
q4 -45 46 -45t72 18q28 -18 12 -50q-16 -29 -83 -29q-66 0 -99 30t-33 81q0 52 38 94t90 42t76 -19q22 -19 22 -44zM259 471q42 0 73 18q16 -10 16 -25q0 -14 -5 -24t-29 -20t-72 -10t-80 30q-33 30 -33 81q0 52 38 94t90 42t75 -19t22 -44q0 -78 -141 -78q4 -45 46 -45z
M2189 592v-100l4 -66q-49 -16 -67 -16t-19 16v137q0 31 -15 31q-14 0 -34 -36t-20 -62l6 -70q-49 -16 -69 -16t-19 16v141l-6 74q48 16 68 16t20 -18v-82q37 100 92 100q59 1 59 -65zM137 0v16h2740v-16h-2740zM137 1083v17h2740v-17h-2740zM2708 428l-168 -16q-39 0 -48 25
q-8 26 -9 113t-3 130l-59 -4v8q0 41 24 41h35l-6 61q49 16 69 16t19 -16v-59h96v-6q0 -43 -24 -43h-72v-184q0 -31 33 -31q23 0 79 11t93 11t83 -12t46 -39t-20 -41t-29 -14q-11 1 -61 25t-78 24zM565 657q59 0 60 -65v-35q29 100 92 100q57 1 57 -65v-100l6 -66
q-50 -16 -68 -16t-18 16v135q0 33 -14 33t-36 -36t-19 -62l4 -70q-49 -16 -68 -16t-18 16v135q1 33 -15 33t-35 -36t-20 -62l6 -70q-49 -16 -69 -16t-19 16v141l-6 74q49 16 69 16t19 -18v-82q33 100 92 100zM1452 655q34 1 58 -27t24 -77q0 -139 -178 -139v-82l6 -66
q-49 -16 -69 -16t-19 16v154l-51 -6v-6q0 -162 -140 -162q-43 0 -63 22t-21 47q0 74 144 109v86q-35 -98 -93 -98t-59 63v6q-39 -67 -103 -67t-65 61v207l-59 -4v8q0 41 24 41h35l-6 61q49 16 69 16t19 -16v-59h96v-6q0 -43 -24 -43h-72v-176q0 -33 27 -33q18 0 39 16
q20 16 20 37v51l-6 68q49 16 69 16t19 -18v-135q0 -31 14 -31t35 36q20 36 19 62l-4 70q49 16 67 16t19 -18v-203l51 6v125l-6 74q48 16 68 16t20 -18v-82q35 98 96 98z" />
    <glyph glyph-name="NULL" 
 />
    <glyph glyph-name="eight.tab" horiz-adv-x="1122" 
d="M358 1051q0 -150 170 -230l111 -55q129 98 129 274q0 88 -51 156t-157 68t-154 -58t-48 -155zM289 295q-1 -100 69 -173t193 -73q264 0 264 234q0 167 -180 247l-172 78q-78 -47 -126 -130t-48 -183zM86 315q0 103 82 193t233 129q-246 125 -245 350q0 162 116 252
q117 90 293 90q177 0 283 -87q106 -88 106 -202t-76 -191t-180 -110l25 -12q163 -80 235 -169t72 -210q0 -158 -129 -263t-344 -105t-343 80t-128 255z" />
    <glyph glyph-name="five.tab" horiz-adv-x="1122" 
d="M464 821q208 0 371 -90q81 -45 128 -125t47 -182q0 -215 -142 -330t-379 -114q-113 0 -221 28t-149 68q-8 66 2 132t23 96q13 32 18 34h69q18 -150 72 -238q106 -53 219 -53t187 78t73 237q0 297 -393 297q-115 0 -207 -20l-10 8l27 662h741l-20 -185h-627l-14 -315
q87 12 185 12z" />
    <glyph glyph-name="four.tab" horiz-adv-x="1122" 
d="M676 430v639h-8l-478 -639h486zM53 354v37l682 918h166v-879h172v-76h-172v-278l160 -45v-31h-549v31l164 45v278h-623z" />
    <glyph glyph-name="nine.tab" horiz-adv-x="1122" 
d="M551 584q81 0 149 39t107 106q-3 291 -63 411t-183 120t-186 -94t-64 -271q0 -311 240 -311zM493 489q-185 1 -298 107t-113 299t138 313t337 121q481 0 481 -596q0 -354 -146 -554t-411 -199q-182 0 -287 100q-28 27 -42 55l34 41q102 -68 263 -67q326 0 354 493
q-125 -113 -310 -113z" />
    <glyph glyph-name="one.tab" horiz-adv-x="1122" 
d="M465 1102h-86q-63 0 -111 12t-63 25l-17 12v29q101 6 248 50q148 44 228 99l26 -22v-1219l236 -57v-31h-690v31l229 57v1014z" />
    <glyph glyph-name="seven.tab" horiz-adv-x="1122" 
d="M1032 1309v-144l-563 -1165h-176v49l625 1079h-633q-17 -51 -57 -102t-70 -76l-31 -26l-45 12q23 168 22 260v113h928z" />
    <glyph glyph-name="six.tab" horiz-adv-x="1122" 
d="M571 725q-79 0 -149 -40t-109 -107q3 -293 65 -411t202 -118q109 0 169 94t60 271q0 311 -238 311zM82 575q0 354 146 554t411 200q150 0 229 -51q78 -51 103 -102l-35 -41q-104 66 -264 65q-322 0 -357 -495q129 115 313 115t298 -107q112 -106 112 -300t-134 -314
t-333 -119q-489 0 -489 595z" />
    <glyph glyph-name="three.tab" horiz-adv-x="1122" 
d="M729 952q0 224 -231 226q-100 0 -192 -48t-144 -114l-39 26q45 115 155 201t284 86t280 -87t106 -216t-72 -199t-182 -92v-4q132 -20 226 -109t94 -239q0 -188 -140 -296t-368 -107q-121 0 -238 32t-166 74q0 64 14 126t29 93q14 31 19 33h69q18 -145 68 -238
q96 -51 216 -51t192 70t71 211q0 183 -103 248t-255 84l20 67q139 10 213 56q74 47 74 167z" />
    <glyph glyph-name="two.tab" horiz-adv-x="1122" 
d="M584 1329q186 0 298 -99t112 -280t-158 -358q-103 -114 -193 -185t-127 -99t-112 -79t-93 -65v-6h553q23 59 62 106t65 64l29 18l33 -18q-20 -100 -21 -228v-100h-950l-14 72q94 74 150 120t172 153q116 108 185 193q70 84 127 194q58 110 58 212t-69 159q-69 58 -179 58
q-211 0 -377 -186l-41 29q47 121 175 223t315 102z" />
    <glyph glyph-name="zero.tab" horiz-adv-x="1122" 
d="M565 43q260 1 260 615t-268 614q-262 0 -262 -614t270 -615zM566 1329q228 0 360 -173t133 -492q0 -320 -137 -502q-138 -182 -366 -182t-361 173t-133 490t138 501t366 185z" />
    </font>
</defs>
</svg>
