<?xml version="1.0" standalone="no"?>
<!DOCTYPE svg PUBLIC "-//W3C//DTD SVG 1.1//EN" "http://www.w3.org/Graphics/SVG/1.1/DTD/svg11.dtd" >
<svg xmlns="http://www.w3.org/2000/svg">
<metadata>
Created by FontPrep 20130207 at Mon Jun 27 20:40:09 2016
 By Devin Halladay
Copyright (c) 2011 by Eduardo Manso. All rights reserved.
</metadata>
<defs>
<font id="5ec0e45f2f2eb089e187f16ae54dbf80" horiz-adv-x='1024' >
  <font-face 
    font-family="PeriodicoDisplay-RegIta"
    font-weight="400"
    font-style="italic"
    font-stretch="normal"
    units-per-em="2048"
    panose-1="2 0 5 6 6 0 0 2 0 4"
    ascent="1597"
    descent="-451"
    x-height="1058"
    cap-height="1391"
    bbox="-330 -373 2896 1837"
    underline-thickness="102"
    underline-position="-102"
    unicode-range="U+0009-FB02"
  />
<missing-glyph horiz-adv-x="927" 
d="M94 0v47h756v-47h-756zM94 1343v48h756v-48h-756zM512 692l236 -565h-74l-197 485l-198 -485h-74l235 565l-241 565h75l203 -481l199 481h74z" />
    <glyph glyph-name="fi" unicode="fi" horiz-adv-x="1271" 
d="M-28 -362q-130 0 -208 51q2 59 25 113t45 79l23 23l110 -21q-47 -78 -59 -182q20 -4 49 -4t61 27q72 59 103 290l153 940h-147l8 45l152 29l12 74q31 195 176 298t326 103t277 -41l69 -28q0 -60 -26 -118t-52 -83l-25 -27l-98 21q29 76 41 182q-76 33 -162 33
q-264 0 -313 -307l-18 -107h344q142 0 256 25l41 6h24l-162 -907q-10 -64 24 -64t76 42t66 83l27 43l37 -20q-11 -28 -43 -81q-31 -53 -63 -87t-82 -61q-49 -27 -117 -27t-105 52t-24 126l139 796h-449l-151 -919q-31 -197 -130 -297q-100 -100 -230 -100z" />
    <glyph glyph-name="fl" unicode="fl" horiz-adv-x="1265" 
d="M817 1442q-159 0 -230 -103q-56 -81 -79 -217l-14 -94h251l-14 -74h-250l-149 -919q-31 -197 -130 -297q-100 -100 -230 -100t-208 51q2 59 24 113t44 79l21 23l110 -21q-43 -78 -55 -182q20 -4 49 -4t61 28q52 45 82 179q10 45 21 110l153 940h-147l8 45l152 29l12 74
q31 195 170 298t330 103q133 0 229 -28l168 28h25l-240 -1351q-14 -63 27 -64q30 0 72 42t67 83l27 43l36 -20q-64 -160 -187 -229q-49 -27 -117 -27t-106 52t-24 126l221 1243q-98 41 -180 41z" />
    <glyph glyph-name=".notdef" horiz-adv-x="927" 
d="M94 0v47h756v-47h-756zM94 1343v48h756v-48h-756zM512 692l236 -565h-74l-197 485l-198 -485h-74l235 565l-241 565h75l203 -481l199 481h74z" />
    <glyph glyph-name=".null" 
 />
    <glyph glyph-name="nonmarkingreturn" horiz-adv-x="681" 
 />
    <glyph glyph-name="CR" unicode="&#xd;" 
 />
    <glyph glyph-name="CR" 
 />
    <glyph glyph-name="HT" unicode="&#x9;" 
 />
    <glyph glyph-name="LF" unicode="&#xa;" 
 />
    <glyph glyph-name="DLE" 
 />
    <glyph glyph-name="DC1" 
 />
    <glyph glyph-name="DC2" 
 />
    <glyph glyph-name="DC3" 
 />
    <glyph glyph-name="DC4" 
 />
    <glyph glyph-name="RS" 
 />
    <glyph glyph-name="US" 
 />
    <glyph glyph-name="space" unicode=" " horiz-adv-x="428" 
 />
    <glyph glyph-name="exclam" unicode="!" horiz-adv-x="536" 
d="M322 118q0 -54 -44 -96t-97 -42q-54 0 -90 34t-36 86t43 96q44 44 98 44t90 -34t36 -88zM409 1411q48 0 85 -26t38 -72l-288 -940h-23l43 940q16 45 56 71t89 27z" />
    <glyph glyph-name="quotedbl" unicode="&#x22;" horiz-adv-x="718" 
d="M630 1411q44 0 75 -28t20 -70l-162 -381h-28l-25 381q6 43 41 71t79 27zM331 1411q44 0 75 -28t20 -70l-162 -381h-28l-25 381q6 43 41 71t79 27z" />
    <glyph glyph-name="numbersign" unicode="#" horiz-adv-x="1273" 
d="M532 664l-126 -273h342l124 273h-340zM236 664l16 90h215l133 286h107l-134 -286h342l134 286h106l-133 -286h154l-17 -90h-180l-127 -273h190l-16 -90h-215l-139 -301h-107l140 301h-340l-140 -301h-106l139 301h-156l17 90h180l127 273h-190z" />
    <glyph glyph-name="dollar" unicode="$" horiz-adv-x="1185" 
d="M430 1047q0 -137 154 -207l14 -9l74 422q-118 -3 -180 -65t-62 -141zM815 337q0 126 -166 208l-26 12l-88 -498q131 10 205 81t75 197zM59 383v39l76 16q80 -113 94 -297q106 -72 232 -82l94 529l-76 37q-117 55 -189 142t-71 191q0 182 135 274t330 97l23 125h73
l-22 -127q92 -4 207 -33t159 -32l-18 -99q-16 -78 -10 -172l2 -33l-68 -14q-76 80 -96 242q-94 55 -191 65l-77 -450l125 -60q254 -121 253 -335q0 -182 -143 -304t-381 -122l-20 -119h-74l20 121q-227 12 -419 104l20 109q12 70 12 188z" />
    <glyph glyph-name="percent" unicode="%" horiz-adv-x="1433" 
d="M1141 432q0 178 -82 178q-47 0 -89 -50t-64 -230q-7 -63 -7 -129q0 -176 86 -176q122 0 151 288q5 60 5 119zM1288 397q0 -184 -88 -301q-88 -116 -208 -116t-181 66t-61 190q0 182 91 300t226 117q104 0 163 -69q58 -70 58 -187zM338 0h-92l854 1309h88zM535 1108
q0 178 -80 178q-47 0 -89 -50t-64 -230q-7 -63 -7 -127q0 -178 84 -179q126 0 150 289q6 60 6 119zM682 1075q0 -186 -87 -303t-207 -117t-181 67t-62 189q-1 182 91 300t225 118q104 0 163 -68q58 -69 58 -186z" />
    <glyph glyph-name="ampersand" unicode="&#x26;" horiz-adv-x="1394" 
d="M518 1087q0 -119 53 -249q242 139 242 333q0 84 -36 128t-99 44q-160 0 -160 -256zM242 389q0 -135 76 -198q77 -62 205 -62t245 72q-80 85 -188 237t-166 283q-172 -131 -172 -332zM694 1411q129 -1 207 -71t78 -166q0 -176 -144 -267q-111 -69 -245 -110
q43 -100 131 -224t197 -239q123 141 235 409l35 -12q-51 -283 -193 -473q121 -106 196 -106t159 135l41 -17q-23 -68 -51 -125t-83 -111t-116 -54q-135 0 -285 133q-174 -133 -403 -133q-138 0 -265 69q-68 37 -110 112q-43 75 -43 174q0 242 259 387q50 28 101 46
q-57 140 -57 254q0 295 239 371q58 18 117 18z" />
    <glyph glyph-name="quotesingle" unicode="'" horiz-adv-x="419" 
d="M331 1411q44 0 75 -28t20 -70l-162 -381h-28l-25 381q6 43 41 71t79 27z" />
    <glyph glyph-name="parenleft" unicode="(" horiz-adv-x="645" 
d="M80 426q0 552 434 925q78 67 182 142l31 -41q-227 -184 -359 -437t-132 -632t194 -621l-43 -36q-307 299 -307 700z" />
    <glyph glyph-name="parenright" unicode=")" horiz-adv-x="645" 
d="M565 793q0 -552 -434 -925q-78 -67 -182 -142l-31 41q227 184 360 437q132 254 132 632t-195 620l43 37q307 -299 307 -700z" />
    <glyph glyph-name="asterisk" unicode="*" horiz-adv-x="942" 
d="M457 1059q0 -29 20 -49t48 -21q27 0 49 22q22 23 22 49t-22 48t-50 20q-28 0 -47 -20q-20 -20 -20 -49zM655 1128l258 -47l-4 -32l-280 -52q8 -33 23 -137t26 -143l-33 -19l-143 226q-29 -31 -114 -113t-112 -113l-26 19l147 280l-254 52l4 32l273 47l-47 269l33 16
l143 -223l221 223l27 -16z" />
    <glyph glyph-name="plus" unicode="+" horiz-adv-x="1024" 
d="M98 559v100h365v359h100v-359h363v-100h-363v-369h-100v369h-365z" />
    <glyph glyph-name="comma" unicode="," horiz-adv-x="575" 
d="M66 92q0 67 38 107q38 39 98 39t92 -35t32 -84q0 -86 -64 -157q-64 -70 -148 -110q-86 -40 -190 -67l-6 16q154 90 211 197q-63 27 -63 94z" />
    <glyph glyph-name="hyphen" unicode="-" horiz-adv-x="694" 
d="M104 502v112h484v-112h-484z" />
    <glyph glyph-name="period" unicode="." horiz-adv-x="575" 
d="M326 121q0 -55 -44 -98t-101 -43q-56 0 -89 30t-33 86t44 100q45 44 101 44t89 -32t33 -87z" />
    <glyph glyph-name="slash" unicode="/" horiz-adv-x="778" 
d="M-51 -342l733 1825h88l-733 -1825h-88z" />
    <glyph glyph-name="zero" unicode="0" horiz-adv-x="1169" 
d="M512 47q102 0 177 84t113 219q70 249 70 531q0 174 -53 280q-53 107 -157 107t-176 -77q-121 -128 -170 -471q-19 -140 -19 -292q0 -381 215 -381zM508 -20q-203 0 -318 134t-114 371q0 375 168 609t418 235q206 0 320 -135t114 -377q0 -369 -167 -603t-421 -234z" />
    <glyph glyph-name="one" unicode="1" horiz-adv-x="737" 
d="M270 1102q-70 0 -120 12t-64 25l-16 12l4 29q97 6 256 50t260 99l24 -22l-217 -1219l244 -57l-4 -31h-727l4 31l260 57l180 1014h-84z" />
    <glyph glyph-name="two" unicode="2" horiz-adv-x="1107" 
d="M-29 0v78q109 65 276 196q167 130 221 180t127 124q125 127 182 268q30 72 30 148t-58 122q-58 45 -162 45t-207 -52t-179 -132l-37 27q70 125 202 225t308 100t272 -88t96 -240t-122 -312q-87 -110 -163 -171q-181 -147 -425 -300q-68 -42 -86 -54v-6h524q31 55 77 102
t75 68l30 18l31 -18q-41 -119 -57 -215l-21 -113h-934z" />
    <glyph glyph-name="three" unicode="3" horiz-adv-x="1024" 
d="M362 -20q-124 0 -238 32t-159 74q21 111 84 219q18 31 23 33h80q-16 -145 12 -238q86 -51 215 -51t217 91t88 268q0 127 -81 181t-222 73l35 67q240 19 302 149q26 54 26 136t-56 122q-55 40 -148 40q-92 0 -186 -46t-157 -112l-33 24q57 119 179 203q123 84 281 84
t249 -76t92 -196q0 -258 -306 -322v-4q105 -20 183 -96t78 -205q0 -206 -157 -328t-401 -122z" />
    <glyph glyph-name="four" unicode="4" horiz-adv-x="1118" 
d="M737 1077l-573 -647h467l114 647h-8zM-2 354v37l831 918h179l-156 -879h170l-12 -76h-172l-50 -278l150 -45l-4 -31h-539l4 31l170 45l49 278h-620z" />
    <glyph glyph-name="five" unicode="5" horiz-adv-x="1062" 
d="M385 -20q-115 0 -223 28t-142 68q4 66 26 132t40 96q18 32 23 34h69q-10 -137 25 -238q98 -53 186 -53q154 0 245 88t91 260q0 264 -338 264q-111 0 -207 -20l-8 8l143 662h727l-53 -185h-614l-70 -313q123 10 168 10q213 0 350 -89t138 -271q0 -229 -158 -355t-418 -126
z" />
    <glyph glyph-name="six" unicode="6" horiz-adv-x="1099" 
d="M573 725q-69 0 -145 -47t-123 -123q-8 -74 -8 -164q0 -342 219 -342q125 0 198 114t72 298q0 264 -213 264zM514 -20q-209 0 -324 120t-114 330q0 393 185 646t499 253q233 0 309 -162l-39 -32q-88 65 -255 65t-283 -139t-162 -361q133 119 307 119t274 -95t101 -255
q0 -223 -144 -356t-354 -133z" />
    <glyph glyph-name="seven" unicode="7" horiz-adv-x="1040" 
d="M127 0v49l803 1079h-619q-27 -51 -73 -103t-82 -79l-33 -26l-43 14q45 147 67 262l19 113h878v-168l-763 -1141h-154z" />
    <glyph glyph-name="eight" unicode="8" horiz-adv-x="1067" 
d="M403 1034q0 -141 150 -223l80 -47q180 115 180 293q0 205 -186 205q-119 0 -171 -66t-53 -162zM475 51q127 0 197 70t69 184q1 154 -157 240l-127 67q-111 -59 -171 -148t-60 -184t60 -162q62 -67 189 -67zM961 381q1 -169 -137 -285t-349 -116t-331 72t-119 224
q0 111 95 213t281 152q-82 45 -142 131t-60 193q0 166 129 265t303 99t270 -79q96 -80 96 -192t-84 -198t-225 -129l23 -12q250 -139 250 -338z" />
    <glyph glyph-name="nine" unicode="9" horiz-adv-x="1112" 
d="M539 584q71 0 147 47t123 125q8 72 8 162q0 342 -219 342q-125 0 -199 -114t-73 -298q0 -264 213 -264zM354 -20q-181 0 -271 107q-36 43 -36 58l35 31q88 -68 256 -68t283 139q115 138 163 361q-133 -119 -307 -119q-174 -1 -275 95t-102 256q0 223 146 356t353 133
q208 0 324 -121t115 -329q0 -393 -185 -647q-186 -252 -499 -252z" />
    <glyph glyph-name="colon" unicode=":" horiz-adv-x="575" 
d="M469 939q1 -52 -47 -97t-102 -45q-54 1 -84 33t-31 85q0 53 46 97t100 45q54 0 86 -33t32 -85zM324 121q0 -53 -48 -97t-102 -44q-55 0 -85 32t-30 85q0 55 46 99q45 44 101 44t87 -33t31 -86z" />
    <glyph glyph-name="semicolon" unicode=";" horiz-adv-x="575" 
d="M469 939q1 -52 -47 -97t-102 -45q-54 1 -84 33t-29 85q0 53 45 97t100 45q55 0 86 -33t31 -85zM66 92q0 67 38 107q38 39 98 39t92 -35t32 -84q0 -86 -64 -157q-64 -70 -148 -110q-86 -40 -190 -67l-6 16q154 90 211 197q-63 27 -63 94z" />
    <glyph glyph-name="less" unicode="&#x3c;" horiz-adv-x="1024" 
d="M98 567v84l828 379v-117l-690 -303l690 -307v-117z" />
    <glyph glyph-name="equal" unicode="=" horiz-adv-x="1024" 
d="M98 389v100h828v-100h-828zM98 750v100h828v-100h-828z" />
    <glyph glyph-name="greater" unicode="&#x3e;" horiz-adv-x="1024" 
d="M926 651v-84l-828 -381v117l690 307l-690 303v117z" />
    <glyph glyph-name="question" unicode="?" horiz-adv-x="989" 
d="M459 119q-1 -53 -47 -96t-99 -43t-86 34t-33 86t47 96q46 44 99 44t86 -34t33 -87zM616 1411q176 0 278 -80t103 -211q0 -249 -183 -381q-158 -112 -355 -145l-76 -221h-27l-6 362q24 1 106 23q81 22 101 32t55 29q46 24 110 95t64 198t-60 177t-154 50t-179 -55
q-34 -92 -37 -186l2 -31l-143 -20q-7 21 -14 97q-6 76 10 113q160 154 405 154z" />
    <glyph glyph-name="at" unicode="@" horiz-adv-x="1828" 
d="M842 289q80 0 152 103t96 247l40 240q-51 94 -143 94q-111 -1 -181 -147t-70 -342t106 -195zM1290 209q123 0 216 135t93 389t-149 429q-150 175 -424 175q-330 -1 -536 -237t-206 -594t214 -524q148 -120 365 -144q46 -4 89 -4q201 0 379 53l8 -34q-184 -90 -407 -91
q-335 0 -551 164q-76 57 -130 131t-88 188t-34 251q0 399 249 657t648 258q176 0 318 -55q142 -54 231 -150q180 -195 180 -475q0 -155 -47 -275q-80 -204 -273 -281q-79 -32 -155 -32q-133 1 -183 59t-42 140l2 45l-6 2q-106 -217 -277 -217q-114 0 -182 78t-68 215
q0 243 138 407t329 164q123 0 211 -75l113 73l41 -10l-115 -643q-22 -133 5 -158q15 -14 44 -14z" />
    <glyph glyph-name="A" unicode="A" horiz-adv-x="1359" 
d="M678 1092h-4l-314 -574h441zM-141 0l4 29l141 45l737 1317l86 20l310 -1337l125 -45l-5 -29h-532l4 29l170 45l-82 372h-500l-202 -372l149 -45l-4 -29h-401z" />
    <glyph glyph-name="B" unicode="B" horiz-adv-x="1271" 
d="M696 1319h-159l-99 -551h156q180 0 276 83t97 228q-1 240 -271 240zM649 696h-225l-111 -624h219q188 0 287 96q98 96 99 274q0 122 -69 188t-200 66zM713 1391q223 0 355 -78t132 -234q0 -268 -336 -346v-4q291 -74 291 -305q0 -208 -175 -316t-452 -108h-608l4 31
l166 45l221 1239l-147 45l4 31h545z" />
    <glyph glyph-name="C" unicode="C" horiz-adv-x="1243" 
d="M795 1335q-199 -1 -332 -197t-133 -505q0 -244 104 -377t262 -133t257 63t186 172l28 -16q-63 -133 -173 -234q-62 -58 -151 -94t-190 -34q-259 0 -415 164t-156 454q0 375 220 594t538 219q114 1 244 -23t161 -26l-16 -109q-12 -62 -12 -184v-33l-41 -10q-31 19 -74 93
q-43 75 -64 161q-98 55 -243 55z" />
    <glyph glyph-name="D" unicode="D" horiz-adv-x="1441" 
d="M715 1315h-183l-217 -1235h246q256 0 407 205t150 522q0 231 -108 370q-109 138 -295 138zM731 1391q285 0 457 -157t172 -415t-114 -444q-114 -187 -298 -281t-403 -94h-625l4 31l166 45l221 1239l-147 45l4 31h563z" />
    <glyph glyph-name="E" unicode="E" horiz-adv-x="1239" 
d="M901 541l-35 121l-444 12l-107 -596h547q80 155 174 268l31 37l35 -12q-57 -197 -74 -301l-12 -70h-1096l4 31l166 45l221 1239l-147 45l4 31h1049l-13 -70q-18 -109 -24 -238l-4 -47l-46 -8q-72 111 -96 285h-499l-101 -570l449 13l69 112h41l-57 -327h-35z" />
    <glyph glyph-name="F" unicode="F" horiz-adv-x="1202" 
d="M907 477l-26 152l-467 10l-99 -563l156 -45l-4 -31h-547l4 31l166 45l221 1239l-147 45l4 31h1063l-43 -355l-43 -8q-72 111 -96 285h-517l-106 -604l473 14l76 145h39l-70 -391h-37z" />
    <glyph glyph-name="G" unicode="G" horiz-adv-x="1374" 
d="M862 1335q-236 0 -386 -219t-150 -559q0 -240 105 -370t276 -130q90 0 172 39l79 447l-106 45l4 28h430l-4 -28l-104 -45l-80 -443l55 -14l-4 -29q-219 -78 -430 -77q-283 0 -460 147t-177 425t113 474q113 195 295 290t403 95q90 0 247 -25t197 -24l-14 -82
q-16 -88 -16 -205l2 -31l-39 -8q-35 21 -78 90q-43 68 -64 148q-111 61 -266 61z" />
    <glyph glyph-name="H" unicode="H" horiz-adv-x="1458" 
d="M756 0l4 31l164 45l110 622h-610l-109 -622l148 -45l-4 -31h-539l6 31l164 45l221 1239l-147 45l4 31h537l-5 -31l-163 -45l-97 -537h609l96 537l-148 45l4 31h537l-6 -31l-164 -45l-221 -1239l149 -45l-4 -31h-536z" />
    <glyph glyph-name="I" unicode="I" horiz-adv-x="624" 
d="M-80 0l4 31l166 45l221 1239l-147 45l4 31h537l-5 -31l-163 -45l-222 -1239l148 -45l-4 -31h-539z" />
    <glyph glyph-name="J" unicode="J" horiz-adv-x="616" 
d="M-248 -362q-39 0 -82 6q4 76 80 252h127q-8 -24 -18 -92t0 -97q31 2 88 25t100 63l268 1520l-157 45l6 31h530l-4 -31l-151 -45l-265 -1491q-166 -186 -522 -186z" />
    <glyph glyph-name="K" unicode="K" horiz-adv-x="1372" 
d="M954 0q-78 39 -157 201l-224 458h-155l-103 -583l148 -45l-4 -31h-539l4 31l166 45l221 1239l-147 45l4 31h537l-5 -31l-163 -45l-105 -578h133l582 580l-137 45l4 29h407l-4 -29l-149 -45l-518 -512l256 -494q102 -197 241 -280l-6 -31h-287z" />
    <glyph glyph-name="L" unicode="L" horiz-adv-x="1124" 
d="M-80 0l4 31l166 45l221 1239l-147 45l4 31h537l-5 -31l-163 -45l-222 -1237h486q87 161 172 268l31 39l40 -10q-55 -193 -73 -301l-13 -74h-1038z" />
    <glyph glyph-name="M" unicode="M" horiz-adv-x="1611" 
d="M360 1073h-8l-176 -999l148 -45l-5 -29h-399l4 29l162 45l221 1243l-143 45l4 29h342l248 -996h4l573 996h357l-4 -29l-166 -45l-222 -1243l150 -45l-4 -29h-531l5 29l161 45l179 999h-9q-63 -115 -82 -147l-493 -860h-66l-231 854q-16 55 -19 129v24z" />
    <glyph glyph-name="N" unicode="N" horiz-adv-x="1400" 
d="M1014 0l-639 1169l-195 -1095l150 -45l-4 -29h-406l4 29l162 45l221 1243l-143 45l4 29h342l549 -1018l168 944l-148 45l4 29h404l-4 -29l-162 -45l-234 -1317h-73z" />
    <glyph glyph-name="O" unicode="O" horiz-adv-x="1441" 
d="M322 545q0 -223 86 -357t234 -135q148 0 260 118t165 293t53 383t-85 352t-232 144q-209 0 -345 -221t-136 -577zM653 -20q-255 0 -413 160t-158 433q0 381 209 609t510 229q259 0 409 -162t150 -440q0 -361 -207 -595t-500 -234z" />
    <glyph glyph-name="P" unicode="P" horiz-adv-x="1271" 
d="M690 496q-86 0 -178 32l4 31h94q190 2 296 120q105 118 106 327q0 307 -303 307h-168l-219 -1237l170 -45l-7 -31h-559l6 31l166 45l219 1239l-149 45l4 31h567q231 1 371 -101t139 -295q1 -229 -159 -364t-400 -135z" />
    <glyph glyph-name="Q" unicode="Q" horiz-adv-x="1441" 
d="M322 545q0 -223 86 -357t234 -135q148 0 260 118t165 293t53 383t-85 352t-232 144q-209 0 -345 -221t-136 -577zM82 557q0 383 215 619t518 235q248 0 396 -157t149 -429q0 -325 -164 -547t-416 -280v-6l78 -80q152 -162 264 -205l-4 -29h-301q-94 43 -176 152l-121 158
q-202 34 -320 184t-118 385z" />
    <glyph glyph-name="R" unicode="R" horiz-adv-x="1302" 
d="M711 1313h-179l-108 -625h332q73 36 126 91q52 55 72 116t21 139q1 135 -67 207t-197 72zM735 1391q217 -1 347 -91t130 -250t-92 -258q-92 -99 -248 -141v-10l95 -299q54 -168 118 -239q64 -66 105 -72l-4 -31h-285q-92 47 -139 217l-113 399h-237l-97 -540l150 -45
l-4 -31h-541l4 31l166 45l221 1239l-147 45l4 31h567z" />
    <glyph glyph-name="S" unicode="S" horiz-adv-x="1161" 
d="M673 1335q-136 -1 -206 -65t-70 -151t44 -135t134 -99l207 -111q250 -131 250 -346q0 -190 -145 -319t-400 -129t-481 106l21 109q12 70 12 188v39l37 16q47 -40 92 -129q45 -88 53 -170q119 -80 267 -80t236 80q87 81 87 223t-182 242l-211 113q-227 123 -228 313
q0 190 146 286t352 95q119 0 255 -32t169 -36l-16 -98q-16 -101 -11 -172v-33l-38 -10l-27 24t-55 80q-37 62 -54 138q-102 63 -238 63z" />
    <glyph glyph-name="T" unicode="T" horiz-adv-x="1239" 
d="M1243 1036q-76 113 -104 277h-297l-219 -1237l163 -45l-4 -31h-567l4 31l180 45l219 1237h-290q-41 -82 -91 -152t-81 -96l-29 -29l-33 8q47 176 64 277l12 70h1149l-12 -70q-15 -82 -21 -229l-2 -48z" />
    <glyph glyph-name="U" unicode="U" horiz-adv-x="1421" 
d="M635 -20q-426 0 -518 296l184 1039l-149 45l4 31h536l-4 -31l-164 -45l-166 -934q-28 -139 54 -221t238 -82t281 85q124 85 148 226l164 926l-149 45l4 31h411l-4 -31l-164 -45l-182 -1018q-72 -149 -206 -233t-318 -84z" />
    <glyph glyph-name="V" unicode="V" horiz-adv-x="1349" 
d="M602 -20h-80l-297 1337l-127 45l4 29h537l-4 -29l-166 -45l197 -1022h8l563 1022l-147 45l4 29h397l-4 -29l-141 -45z" />
    <glyph glyph-name="W" unicode="W" horiz-adv-x="2045" 
d="M510 -20h-76l-209 1337l-127 45l4 29h531l-4 -29l-166 -45l131 -985h6l463 905l-16 96l94 58h141l152 -1059h4l493 985l-145 45l4 29h397l-4 -29l-147 -45l-682 -1337h-76l-193 1112z" />
    <glyph glyph-name="X" unicode="X" horiz-adv-x="1306" 
d="M-143 0l4 29l141 45l535 590l-306 657l-125 41l5 29h510l-5 -29l-131 -39l230 -487l432 481l-117 45l4 29h371l-4 -29l-141 -45l-508 -561l317 -690l137 -37l-4 -29h-528l4 29l139 41l-242 508l-446 -504l115 -45l-4 -29h-383z" />
    <glyph glyph-name="Y" unicode="Y" horiz-adv-x="1314" 
d="M242 0l4 31l182 45l92 520l-305 721l-121 45l4 29h527l-4 -29l-158 -45l239 -623h5l499 623l-135 45l6 29h383l-6 -29l-141 -45l-565 -701l-97 -540l164 -45l-4 -31h-569z" />
    <glyph glyph-name="Z" unicode="Z" horiz-adv-x="1159" 
d="M199 1024l-45 16q51 162 71 275l13 76h966l-10 -68l-977 -1245h617q33 72 84 144t86 106l32 37l45 -15q-45 -145 -67 -272l-13 -78h-1071l11 63l981 1250h-519q-27 -68 -77 -141t-88 -111z" />
    <glyph glyph-name="bracketleft" unicode="[" horiz-adv-x="698" 
d="M29 -254l307 1737h422l-13 -74h-266l-280 -1591h264l-12 -72h-422z" />
    <glyph glyph-name="backslash" unicode="\" horiz-adv-x="817" 
d="M555 -342l-322 1825h89l321 -1825h-88z" />
    <glyph glyph-name="bracketright" unicode="]" horiz-adv-x="698" 
d="M670 1483l-308 -1737h-421l12 74h266l281 1591h-264l12 72h422z" />
    <glyph glyph-name="asciicircum" unicode="^" horiz-adv-x="868" 
d="M770 750h-104l-236 526l-227 -526h-105l267 641h133z" />
    <glyph glyph-name="underscore" unicode="_" horiz-adv-x="1032" 
d="M-137 -291v90h1044v-90h-1044z" />
    <glyph glyph-name="grave" unicode="`" horiz-adv-x="567" 
d="M297 1479h25l268 -287l-23 -29l-364 176z" />
    <glyph glyph-name="a" unicode="a" horiz-adv-x="1179" 
d="M449 98q104 0 197 134t128 323l53 305q-61 133 -200 133q-99 0 -179 -94t-118 -234t-39 -292q0 -275 158 -275zM379 -20q-150 0 -233 97t-83 259q-1 301 173 512t405 211q150 0 250 -96l147 96l33 -12l-160 -895q-14 -64 23 -64t79 41t68 82l25 41l35 -16
q-66 -165 -183 -229q-50 -27 -116 -27t-104 57t-19 139l18 80l-10 2q-139 -278 -348 -278z" />
    <glyph glyph-name="b" unicode="b" horiz-adv-x="1159" 
d="M505 47q124 0 209 95q156 175 154 524q0 276 -174 276q-106 0 -199 -132t-126 -316l-66 -361q78 -86 202 -86zM502 -20q-150 0 -256 83l-154 -81l-20 18l245 1382l-139 25l4 33l338 63h25l-86 -491q-19 -114 -45 -203l-11 -27l11 -2q131 279 348 279q154 -1 243 -103
t89 -270q0 -302 -166 -504t-426 -202z" />
    <glyph glyph-name="c" unicode="c" horiz-adv-x="958" 
d="M610 989q-160 0 -246 -148t-85 -390q0 -173 61 -261q62 -88 166 -88t177 60t155 176l30 -16q-51 -150 -155 -248q-105 -98 -277 -98t-272 108q-100 109 -101 307q0 305 171 487t399 181q106 0 187 -30t118 -71q-6 -61 -30 -120t-44 -88t-22 -29l-115 16q35 102 39 207
q-66 45 -156 45z" />
    <glyph glyph-name="d" unicode="d" horiz-adv-x="1200" 
d="M465 96q102 0 194 118t121 282l74 401q-80 96 -203 96t-207 -96q-153 -175 -153 -524q0 -277 174 -277zM399 -20q-155 0 -245 101t-91 267q0 303 166 507t426 204q127 0 217 -58l70 381l-139 25l4 33l340 63h22l-237 -1351q-14 -63 26 -64q31 0 73 41t69 82l26 41l33 -16
l-11 -28q-7 -18 -34 -62q-26 -44 -56 -78t-81 -61t-117 -27t-104 57t-19 139l19 80l-11 2q-135 -278 -346 -278z" />
    <glyph glyph-name="e" unicode="e" horiz-adv-x="983" 
d="M592 993q-119 0 -207 -126t-109 -341q248 8 351 81q45 32 78 92q33 61 33 139t-43 116q-42 38 -103 39zM433 -20q-169 0 -269 102t-101 293q0 303 164 493t383 191q144 1 232 -61t88 -169q0 -228 -291 -312q-114 -34 -367 -48v-61q0 -156 62 -233t164 -77q104 0 183 52
t161 151l26 -18q-70 -139 -168 -221t-267 -82z" />
    <glyph glyph-name="f" unicode="f" horiz-adv-x="677" 
d="M711 1503q93 0 180 -29q14 -5 26 -12t23 -10q-2 -60 -24 -116t-42 -83l-20 -24l-117 20q47 76 58 181q-49 14 -74 14q-166 0 -209 -281l-23 -135h263l-13 -74h-262l-145 -919q-31 -197 -129 -297q-97 -100 -229 -100t-210 51q2 59 24 113t44 79l21 23l114 -21
q-47 -78 -57 -184l33 -2q85 0 118 83t54 197l153 977h-147l8 45l152 29l12 78q31 195 146 296q116 101 272 101z" />
    <glyph glyph-name="g" unicode="g" horiz-adv-x="1083" 
d="M184 -116q0 -79 77 -128t204 -49q271 0 307 178l12 68q-47 53 -178 61l-260 15q-61 6 -74 16q-88 -82 -88 -161zM518 440q115 0 173 102q59 102 59 220q1 237 -170 237q-115 0 -173 -102t-59 -246q0 -91 45 -151t125 -60zM514 379q-62 -1 -120 -21t-58 -71q0 -63 90 -66
l227 -12q262 -14 348 -137l-16 -103q-23 -151 -164 -241t-360 -90t-338 62t-119 157q0 61 54 117t159 94q-90 49 -90 139q0 160 211 203q-195 76 -195 261t123 286t305 102q119 0 197 -31q80 -2 161 11t122 28l41 14l2 -127q-82 -25 -205 -8v-4q66 -94 65 -192
q0 -172 -127 -272t-313 -99z" />
    <glyph glyph-name="h" unicode="h" horiz-adv-x="1193" 
d="M733 948q-115 0 -217 -131t-135 -323l-90 -494h-209l246 1382l-140 25l7 33l335 63h25l-86 -491q-16 -100 -47 -205l-8 -25l10 -2q145 279 377 279q131 0 197 -86t40 -223l-106 -598q-10 -64 24 -64t74 42q41 42 68 83l24 43l39 -20q-36 -90 -112 -173q-77 -83 -195 -83
q-66 0 -102 52t-25 126l111 626q29 164 -105 164z" />
    <glyph glyph-name="i" unicode="i" horiz-adv-x="632" 
d="M426 1239q-60 0 -90 31q-31 31 -31 83t40 93q39 41 99 41t91 -30t31 -83t-40 -94t-100 -41zM256 950q-31 0 -73 -42t-68 -85l-25 -41l-37 21q10 25 42 79t64 88t82 62q49 28 119 27q70 0 107 -49t22 -129l-135 -729q-10 -64 24 -64t75 42t67 83l25 43l39 -20
q-12 -30 -44 -82t-63 -85q-81 -89 -199 -89q-66 0 -105 52q-38 52 -23 126l133 729q10 63 -27 63z" />
    <glyph glyph-name="j" unicode="j" horiz-adv-x="614" 
d="M448 1239q-58 0 -91 31q-31 31 -31 83t41 93t99 41t89 -30t31 -83t-40 -94t-98 -41zM-56 -362q-114 0 -175 22q2 62 21 118t38 83l18 24l129 -20q-43 -74 -57 -176q123 12 186 75l199 1123q12 63 -27 63q-32 0 -72 -42t-65 -85l-26 -41l-37 21q34 86 106 167q31 34 82 62
t105 27q90 0 123 -50t18 -128l-191 -1082q-53 -73 -157 -117t-218 -44z" />
    <glyph glyph-name="k" unicode="k" horiz-adv-x="1142" 
d="M498 618h8q252 440 502 441q42 0 114 -12q-16 -128 -53 -193l-10 -23h-119q18 74 25 134q-29 -2 -58 -19q-156 -74 -329 -336q119 -25 170 -143l63 -154q2 -3 11 -27q10 -24 16 -37t17 -39t37 -64q25 -38 49 -39q25 -1 59 38t57 80l20 39l41 -18q-4 -10 -10 -28t-31 -65
q-25 -46 -51 -81t-70 -64q-43 -29 -90 -28q-172 0 -258 229l-73 197q-51 137 -148 147l-96 -553h-209l244 1380l-140 25l7 33l337 63h25l-158 -893q47 10 101 10z" />
    <glyph glyph-name="l" unicode="l" horiz-adv-x="587" 
d="M485 146q-101 -166 -257 -166q-68 0 -105 52t-25 126l217 1224l-139 25l4 33l338 63h25l-240 -1351q-10 -64 24 -64q33 0 75 42t69 83l25 43l36 -20q-14 -35 -47 -90z" />
    <glyph glyph-name="m" unicode="m" horiz-adv-x="1826" 
d="M254 950q-31 0 -73 -41t-66 -82l-27 -41l-37 17q13 33 43 83q31 50 63 84t82 62q51 28 117 27q66 0 100 -51t19 -127l-20 -99l10 -2q145 279 364 279q119 0 181 -75t53 -202l6 -2q141 279 369 279q130 0 194 -86t39 -223l-106 -598q-11 -64 23 -64t76 42t69 83l24 43
l37 -20q-64 -160 -187 -229q-50 -27 -118 -27t-105 52t-24 126l110 626q29 164 -102 164q-113 0 -210 -130t-132 -324l-90 -494h-209l139 784q29 164 -102 164q-111 0 -210 -131t-132 -323l-90 -494h-209l158 887q10 63 -27 63z" />
    <glyph glyph-name="n" unicode="n" horiz-adv-x="1234" 
d="M774 948q-115 0 -217 -131t-135 -323l-90 -494h-209l158 887q10 63 -27 63q-31 0 -73 -41t-66 -82l-27 -41l-37 17q13 33 43 83q31 50 63 84t82 62q51 28 117 27q66 0 100 -51t19 -127l-20 -99l10 -2q145 279 377 279q130 0 196 -86t41 -223l-106 -598q-11 -64 23 -64
t76 42t67 83l26 43l37 -20q-14 -35 -47 -90q-103 -166 -259 -166q-68 0 -104 52t-24 126l111 626q29 164 -105 164z" />
    <glyph glyph-name="o" unicode="o" horiz-adv-x="1089" 
d="M490 47q99 0 175 95q138 175 138 520q0 147 -52 239q-51 92 -151 92t-175 -97t-107 -233q-32 -137 -32 -285t53 -240q52 -92 151 -91zM1024 614q0 -276 -154 -455t-358 -179q-203 0 -326 124t-123 316q0 287 157 463t364 176q208 0 324 -125t116 -320z" />
    <glyph glyph-name="p" unicode="p" horiz-adv-x="1214" 
d="M563 47q125 0 209 95q154 174 154 524q0 145 -43 211q-43 65 -139 65t-188 -118t-120 -281l-74 -404q76 -92 201 -92zM260 950q-35 0 -77 -41t-68 -82l-25 -41l-35 17q11 27 43 80q33 53 65 87t83 62q52 28 118 27q66 0 100 -54t15 -131l-18 -92l10 -2q131 279 346 279
q154 -1 244 -103t90 -270q0 -301 -165 -504t-425 -202q-125 0 -219 57l-53 -303l162 -45l-5 -31h-522l4 31l154 45l203 1153q10 63 -25 63z" />
    <glyph glyph-name="q" unicode="q" horiz-adv-x="1150" 
d="M465 96q104 0 198 132q93 132 125 317l64 360q-76 88 -199 88t-208 -96q-154 -174 -154 -524q0 -277 174 -277zM657 1059q152 0 265 -88l137 86l28 -19l-233 -1304l137 -45l-4 -31h-522l4 31l178 45l53 293q19 123 48 202l8 27l-11 2q-131 -279 -346 -278
q-155 0 -245 101t-91 267q0 301 167 506t427 205z" />
    <glyph glyph-name="r" unicode="r" horiz-adv-x="913" 
d="M254 950q-31 0 -72 -41t-67 -82l-27 -41l-37 17q65 164 187 228q52 28 118 28t101 -52t18 -126l-33 -152l11 -2q158 332 383 332q47 0 69 -8q-12 -107 -37 -187t-45 -106l-18 -27h-100q2 14 15 87t1 114q-101 -43 -191 -182t-120 -316l-78 -434h-209l158 887
q10 63 -27 63z" />
    <glyph glyph-name="s" unicode="s" horiz-adv-x="909" 
d="M546 995q-92 0 -148 -48t-56 -130q0 -109 113 -153l157 -68q219 -92 219 -261q1 -169 -121 -262t-316 -93t-367 81q2 61 19 121t34 88l16 29l103 -20q-20 -82 -27 -168q106 -66 217 -66t174 56t64 153q0 119 -127 172l-140 59q-92 39 -150 107t-58 158q0 158 120 234
t275 75q94 0 197 -24t133 -23q-2 -62 -24 -120t-42 -87l-20 -29l-107 19q29 72 39 155q-86 45 -177 45z" />
    <glyph glyph-name="t" unicode="t" horiz-adv-x="720" 
d="M471 70q100 0 180 59l21 -29q-135 -120 -305 -120t-254 118l151 869h-149l8 45l158 28l196 295h60l-52 -297h246l-12 -71h-248l-147 -838q47 -59 147 -59z" />
    <glyph glyph-name="u" unicode="u" horiz-adv-x="1232" 
d="M408 -20q-203 0 -256 188l133 719q10 63 -27 63q-29 0 -68 -42t-63 -85l-25 -41l-36 21q66 164 182 228q50 28 116 28t104 -52t21 -126l-133 -719q20 -72 126 -72t206 131t133 324l88 493h209l-157 -886q-9 -64 25 -64t76 41t68 82l25 41l35 -16l-11 -28q-7 -18 -35 -62
q-106 -168 -257 -166q-68 0 -101 51t-20 127l20 98l-10 2q-137 -278 -368 -278z" />
    <glyph glyph-name="v" unicode="v" horiz-adv-x="1091" 
d="M43 803q102 256 304 256q69 0 107 -52t23 -126l-110 -627q-35 -180 94 -180q207 0 365 406q77 198 100 405q-56 33 -138 49l-24 4l80 121q119 0 205 -76q-53 -332 -150 -563q-184 -440 -483 -440q-135 0 -205 86t-45 223l106 598q10 63 -24 63t-75 -41q-42 -41 -69 -82
l-26 -41z" />
    <glyph glyph-name="w" unicode="w" horiz-adv-x="1650" 
d="M43 803q102 256 304 256q69 0 107 -52t23 -126l-110 -627q-31 -180 84 -180q104 0 198 132t158 331l80 460l53 41h160l-133 -784q-31 -180 84 -180q193 0 346 422q78 211 88 389q-62 34 -144 49l-26 4l80 121q123 0 213 -76q-171 -1003 -602 -1003q-121 0 -188 78
t-52 200h-2q-150 -279 -358 -278q-129 0 -196 86t-44 223l106 598q10 63 -24 63t-75 -41q-42 -41 -69 -82l-26 -41z" />
    <glyph glyph-name="x" unicode="x" horiz-adv-x="1112" 
d="M236 905q-61 0 -50 -235l-41 -6q-16 46 -16 112q0 160 83 238q48 45 129 45t126 -90l151 -293q174 324 347 383q88 -8 153 -66l-82 -133q-53 53 -108 62q-127 -74 -271 -322l222 -426q18 -41 45 -41q61 0 49 238l39 4q33 -107 -2 -246q-16 -63 -62 -106t-114 -43
q-96 0 -144 96l-170 327q-193 -355 -379 -423q-90 8 -155 65l80 135q57 -57 114 -69q133 86 297 376l-194 377q-23 41 -47 41z" />
    <glyph glyph-name="y" unicode="y" horiz-adv-x="1038" 
d="M291 1059q123 0 158 -133l174 -715h4l10 18q100 173 176 357t88 280q-59 36 -143 52l-27 2l86 139q106 4 199 -78q-8 -131 -95 -355t-216 -446q-246 -407 -486 -542q-53 20 -99 60t-67 69l-20 30l108 105q59 -80 127 -111q84 53 199 191l-234 882q-16 53 -36 54
q-37 0 -65 -86t-28 -119l-43 4q-12 59 28 185q19 62 73 110t129 47z" />
    <glyph glyph-name="z" unicode="z" horiz-adv-x="1036" 
d="M135 842q0 92 46 154t133 62t250 -73q163 -74 201 -74t66 31l87 96h112v-24l-733 -819q37 12 81 12t169 -22t176 -21q119 0 154 139l10 51h41q18 -37 18 -153q0 -244 -215 -244q-92 0 -262 75q-170 74 -212 74t-64 -24l-70 -82h-105v27l707 792q-17 -8 -75 -8t-173 20
t-147 21q-92 0 -119 -113l-14 -57h-35q-27 68 -27 160z" />
    <glyph glyph-name="braceleft" unicode="{" horiz-adv-x="761" 
d="M399 -272q-151 0 -221 84t-26 256l71 297q35 135 5 179t-160 54l6 43q137 10 180 50t57 175l33 297q18 180 103 260t255 80q43 0 117 -8l-8 -43l-47 -4q-90 -6 -137 -44t-60 -144l-30 -281q-12 -106 -35 -172q-39 -113 -161 -155q-46 -15 -134 -31v-9q76 -14 119 -34
q44 -20 76 -60t29 -103q-3 -62 -21 -163l-70 -281q-25 -104 9 -142t116 -46l49 -4l-6 -43q-74 -8 -109 -8z" />
    <glyph glyph-name="bar" unicode="|" horiz-adv-x="487" 
d="M291 -342h-90v1825h90v-1825z" />
    <glyph glyph-name="braceright" unicode="}" horiz-adv-x="761" 
d="M362 1503q150 0 221 -84t27 -256l-71 -297q-35 -135 -5 -179t160 -54l-6 -43q-137 -10 -180 -50t-57 -175l-33 -297q-18 -180 -104 -260t-255 -80q-43 0 -116 8l8 43l47 4q90 6 137 44t60 144l30 281q12 106 35 172q39 113 161 155q46 15 134 31v8q-76 14 -119 34t-76 62
q-33 40 -29 102q3 62 21 163l70 281q25 104 -9 142t-116 46q-19 0 -33 2t-16 2l6 43q73 8 108 8z" />
    <glyph glyph-name="asciitilde" unicode="~" horiz-adv-x="1232" 
d="M880 514q-76 0 -222 67t-216 66q-152 0 -266 -141l-78 63q60 89 152 145t196 56t258 -69q152 -69 193 -68q96 0 164 94l74 -63q-39 -66 -109 -108t-146 -42z" />
    <glyph glyph-name="DEL" 
 />
    <glyph glyph-name="uni00A0" unicode="&#xa0;" horiz-adv-x="428" 
 />
    <glyph glyph-name="exclamdown" unicode="&#xa1;" horiz-adv-x="536" 
d="M219 920q0 54 43 96t97 43q55 0 91 -34t36 -87t-44 -96q-43 -43 -97 -43t-90 34q-36 33 -36 87zM132 -373q-48 0 -85 26t-39 73l289 940h22l-43 -940q-16 -45 -56 -72t-88 -27z" />
    <glyph glyph-name="cent" unicode="&#xa2;" horiz-adv-x="1062" 
d="M342 563q0 -268 172 -321l154 868q-156 -24 -241 -176t-85 -371zM127 522q0 276 165 454t388 208l27 145h69l-26 -141q110 0 190 -36t115 -83q-16 -61 -44 -117t-48 -80l-21 -22l-113 6q10 35 18 105q9 71 7 116q-51 37 -117 39l-155 -885h8q88 0 163 37t177 119l20 -29
q-141 -238 -389 -249l-22 -129h-70l23 129q-172 12 -269 118q-96 106 -96 295z" />
    <glyph glyph-name="sterling" unicode="&#xa3;" horiz-adv-x="1232" 
d="M842 1329q100 1 218 -25t132 -28l-18 -98q-11 -60 -11 -142l2 -26l-32 -17q-11 7 -31 23t-56 76t-45 133q-74 39 -153 39q-250 0 -318 -410l-30 -170h284l-14 -72h-283l-26 -153q-47 -274 -217 -381h587q31 86 81 163t87 111l35 33l35 -10q-49 -172 -65 -264l-21 -111
h-1008l7 31l153 41q45 76 101 360l30 180h-180l12 72h183l30 172q39 223 178 348t353 125z" />
    <glyph glyph-name="yen" unicode="&#xa5;" horiz-adv-x="1376" 
d="M213 612l12 72h295l-237 551l-119 45l4 29h532l-6 -29l-157 -45l215 -551h2l448 551l-139 45l4 29h383l-6 -29l-141 -45l-461 -551h325l-12 -72h-369l-24 -147h368l-12 -72h-368l-54 -317l164 -45l-6 -31h-567l6 31l180 45l53 317h-350l12 72h351l22 123l-10 24h-338z
" />
    <glyph glyph-name="brokenbar" unicode="&#xa6;" horiz-adv-x="493" 
d="M297 758h-100v725h100v-725zM297 -252h-100v725h100v-725z" />
    <glyph glyph-name="section" unicode="&#xa7;" horiz-adv-x="1183" 
d="M858 462q0 130 -178 204l-219 88q-63 25 -101 53q-74 -92 -74 -220t179 -202l219 -88q55 -23 98 -55q76 90 76 220zM1051 539q0 -203 -230 -328q92 -88 92 -221q0 -176 -137 -264t-332 -88q-119 0 -255 32t-169 35l19 98q10 62 10 168l-2 31l49 14q35 -21 72 -89t47 -146
q99 -68 231 -68q132 -1 200 59t69 136q0 76 -44 118q-44 44 -139 83l-182 81q-120 50 -188 134t-68 188q0 203 228 328q-90 86 -91 219q1 176 139 265t330 89q119 0 255 -33t169 -37l-18 -98q-13 -83 -8 -166v-30l-49 -15q-34 20 -71 88q-38 67 -48 146q-102 68 -232 68
t-200 -59q-68 -58 -68 -134t44 -120t138 -81l183 -82q121 -49 189 -133t67 -188z" />
    <glyph glyph-name="dieresis" unicode="&#xa8;" horiz-adv-x="684" 
d="M604 1227q-44 -1 -68 25t-24 69t37 79t80 36t67 -27t25 -69q0 -42 -37 -78q-37 -35 -80 -35zM305 1227q-43 1 -67 27t-25 68q0 42 38 78t80 36q43 0 67 -27t24 -69t-37 -78q-37 -35 -80 -35z" />
    <glyph glyph-name="copyright" unicode="&#xa9;" horiz-adv-x="1665" 
d="M870 207q-202 0 -322 122t-120 346t133 352t344 128q66 0 148 -14t106 -15v-84q0 -58 12 -127l5 -22l-37 -12q-29 14 -69 68t-60 116q-57 29 -115 29q-115 0 -183 -106t-69 -290q0 -182 74 -279t194 -97q70 0 125 26t80 50q25 26 60 71l32 -16q-30 -96 -114 -171
t-224 -75zM862 1362q-272 0 -465 -197t-193 -471t194 -469q192 -195 464 -195t466 196q194 194 194 468t-194 471t-466 197zM147 694q0 297 209 507t506 210t507 -210t210 -507t-210 -506q-210 -208 -507 -208t-506 208t-209 506z" />
    <glyph glyph-name="ordfeminine" unicode="&#xaa;" horiz-adv-x="731" 
d="M354 874q45 0 86 62t56 143l26 156q-31 45 -87 45t-99 -86t-43 -203t61 -117zM297 786q-68 0 -111 48t-43 139q0 154 85 255t210 101q84 0 140 -45l79 43l25 -6l-78 -442q-4 -31 14 -31q22 0 66 61l14 23l23 -10q-28 -85 -101 -121q-30 -15 -70 -15t-61 30q-20 30 -16 71
l4 31h-4q-70 -132 -176 -132z" />
    <glyph glyph-name="guillemotleft" unicode="&#xab;" horiz-adv-x="1081" 
d="M1016 948l-303 -430l151 -424h-76l-274 395v56l426 403h76zM575 948l-303 -430l152 -424h-76l-274 395v56l426 403h75z" />
    <glyph glyph-name="logicalnot" unicode="&#xac;" horiz-adv-x="1024" 
d="M98 567v101h828v-469h-101v368h-727z" />
    <glyph glyph-name="registered" unicode="&#xae;" horiz-adv-x="1261" 
d="M694 1137h-57v-273h115q66 41 65 137q0 136 -123 136zM1024 569h-162q-45 16 -76 88l-71 172h-78v-229l61 -18v-13h-264v13l64 18v543l-64 18v13h287q109 0 175 -41t65 -127q0 -113 -113 -150v-4l57 -131q27 -57 57 -92t46 -41l16 -6v-13zM711 1364q-205 0 -351 -147
t-145 -355q0 -208 145 -354q144 -148 350 -148t350 148t144 354t-144 354t-349 148zM164 862q0 227 160 388t386 161t388 -161t162 -388t-161 -387t-388 -160t-387 160t-160 387z" />
    <glyph glyph-name="macron" unicode="&#xaf;" horiz-adv-x="698" 
d="M178 1257l15 82h469l-15 -82h-469z" />
    <glyph glyph-name="degree" unicode="&#xb0;" horiz-adv-x="651" 
d="M215 1071q0 -78 51 -134t119 -56t117 56t49 134t-49 135q-49 58 -117 58t-119 -58t-51 -135zM135 1071q0 106 73 182t175 76t176 -76t74 -182t-74 -181t-176 -75t-175 75t-73 181z" />
    <glyph glyph-name="plusminus" unicode="&#xb1;" horiz-adv-x="1024" 
d="M98 16v101h828v-101h-828zM98 586v100h365v336h100v-336h363v-100h-363v-338h-100v338h-365z" />
    <glyph glyph-name="twosuperior" unicode="&#xb2;" horiz-adv-x="811" 
d="M127 664v38q221 158 311 254t90 177q0 88 -95 88t-171 -86l-26 18q106 176 264 176q86 0 137 -42t51 -104q0 -156 -188 -290q-90 -63 -203 -129v-2h274q33 51 99 90l22 -6q-23 -68 -33 -121l-10 -61h-522z" />
    <glyph glyph-name="threesuperior" unicode="&#xb3;" horiz-adv-x="761" 
d="M496 1163q0 76 -92 76t-175 -78l-22 10q86 158 258 158q86 0 134 -37t48 -96q0 -123 -174 -164v-2q150 -25 150 -151q0 -103 -88 -163q-89 -60 -227 -60t-193 55q13 74 50 113q13 15 17 18h35q-4 -76 8 -121q39 -23 99 -23t103 45q42 45 42 119t-39 98q-39 26 -108 37
l18 31q74 8 115 37t41 98z" />
    <glyph glyph-name="acute" unicode="&#xb4;" horiz-adv-x="591" 
d="M455 1479h22l94 -140l-362 -176l-25 29z" />
    <glyph glyph-name="mu" unicode="&#xb5;" horiz-adv-x="1232" 
d="M412 -20q-68 0 -119 22l-14 -344h-216l218 1229q10 63 -23 63t-75 -42t-68 -85l-25 -41l-37 21q11 27 43 80q33 53 64 87t82 62q52 28 118 27q66 0 103 -52t24 -126l-129 -719q20 -72 126 -72t206 131t133 324l90 493h209l-157 -886q-11 -64 23 -64t76 41t69 82l26 41
l35 -16l-11 -28q-7 -18 -35 -62t-58 -78t-82 -61q-51 -27 -118 -27q-66 0 -100 51t-20 127l21 98l-11 2q-141 -278 -368 -278z" />
    <glyph glyph-name="paragraph" unicode="&#xb6;" horiz-adv-x="1081" 
d="M551 -282q-139 -80 -343 -80q-97 0 -134 18q0 60 28 120t58 91l28 31l82 -15q-43 -108 -32 -178q319 8 383 375l231 1311h301l-4 -31l-172 -45l-215 -1219q-49 -283 -211 -378zM76 795q0 270 185 433t468 163l-182 -1045q-229 -2 -350 126t-121 323z" />
    <glyph glyph-name="periodcentered" unicode="&#xb7;" horiz-adv-x="512" 
d="M267 485q-56 0 -89 31t-33 86t44 99q45 44 101 44q56 1 89 -31t33 -87t-44 -99q-45 -43 -101 -43z" />
    <glyph glyph-name="cedilla" unicode="&#xb8;" horiz-adv-x="561" 
d="M256 -211q0 -72 -61 -112q-61 -39 -163 -39t-169 55l20 33q53 -31 115 -31q62 1 91 23q28 22 28 57q0 84 -127 114l2 9l108 133h70l-84 -101q170 -18 170 -141z" />
    <glyph glyph-name="onesuperior" unicode="&#xb9;" horiz-adv-x="622" 
d="M303 1198q-76 0 -102 29l-8 10l2 16q152 14 262 76l41 -12l-107 -606l109 -29l-2 -18h-371l2 18l115 29l86 487h-27z" />
    <glyph glyph-name="ordmasculine" unicode="&#xba;" horiz-adv-x="673" 
d="M373 836q71 0 107 88t36 223t-88 135q-68 0 -102 -91t-35 -223q0 -132 82 -132zM420 1329q116 -1 180 -63t64 -184t-82 -208q-82 -88 -196 -88t-178 62q-65 62 -65 183q0 122 81 210t196 88z" />
    <glyph glyph-name="guillemotright" unicode="&#xbb;" horiz-adv-x="1081" 
d="M465 94l303 430l-152 424h76l275 -395v-55l-426 -404h-76zM25 94l303 430l-152 424h76l274 -395v-55l-426 -404h-75z" />
    <glyph glyph-name="onequarter" unicode="&#xbc;" horiz-adv-x="1273" 
d="M240 0h-93l934 1309h86zM299 1198q-78 0 -102 29l-9 10l2 16q152 14 263 76l41 -12l-107 -606l109 -29l-2 -18h-371l2 18l115 29l86 487h-27zM872 530l-276 -325h223l58 325h-5zM514 162l6 26l400 465h129l-80 -448h82l-9 -43h-79l-23 -123l70 -23l-2 -16h-306l3 16
l86 23l22 123h-299z" />
    <glyph glyph-name="onehalf" unicode="&#xbd;" horiz-adv-x="1267" 
d="M231 0h-92l934 1309h86zM299 1198q-78 0 -102 29l-9 10l2 16q152 14 263 76l41 -12l-107 -606l109 -29l-2 -18h-371l2 18l115 29l86 487h-27zM573 0v39q221 158 304 244q98 106 98 186q0 88 -95 88t-171 -86l-27 18q106 176 264 177q86 0 137 -42t51 -104
q1 -158 -188 -291q-84 -59 -203 -129v-2h275q31 48 98 90l23 -6q-23 -68 -33 -121l-10 -61h-523z" />
    <glyph glyph-name="threequarters" unicode="&#xbe;" horiz-adv-x="1308" 
d="M276 0h-92l934 1309h86zM496 1163q0 76 -92 76t-175 -78l-22 10q86 158 258 158q86 0 134 -37t48 -96q0 -123 -174 -164v-2q150 -25 150 -151q0 -103 -88 -163q-89 -60 -227 -60t-193 55q13 74 50 113q13 15 17 18h35q-4 -76 8 -121q39 -23 99 -23t103 45q42 45 42 119
t-39 98q-39 26 -108 37l18 31q74 8 115 37t41 98zM901 530l-278 -325h225l57 325h-4zM543 162l4 26l397 465h131l-80 -448h82l-8 -43h-80l-22 -123l69 -23l-2 -16h-305l2 16l86 23l23 123h-297z" />
    <glyph glyph-name="questiondown" unicode="&#xbf;" horiz-adv-x="989" 
d="M530 920q0 52 46 96t100 43q53 0 86 -34t33 -87t-46 -96q-45 -43 -99 -43t-87 34q-33 35 -33 87zM373 -373q-176 0 -279 80q-102 80 -102 211q0 249 183 381q158 112 355 145l76 222h27l6 -363q-4 0 -41 -8t-78 -16t-106 -40q-66 -32 -89 -54q-72 -70 -87 -108
q-35 -83 -35 -180t60 -147q59 -50 153 -51q94 0 180 55q40 109 35 189v28l143 21q6 -19 14 -96q7 -78 -10 -115q-160 -154 -405 -154z" />
    <glyph glyph-name="Agrave" unicode="&#xc0;" horiz-adv-x="1359" 
d="M567 1831h25l268 -287l-22 -28l-365 176zM678 1092h-4l-314 -574h441zM-141 0l4 29l141 45l737 1317l86 20l310 -1337l125 -45l-5 -29h-532l4 29l170 45l-82 372h-500l-202 -372l149 -45l-4 -29h-401z" />
    <glyph glyph-name="Aacute" unicode="&#xc1;" horiz-adv-x="1359" 
d="M1028 1831h23l94 -139l-363 -176l-24 28zM678 1092h-4l-314 -574h441zM-141 0l4 29l141 45l737 1317l86 20l310 -1337l125 -45l-5 -29h-532l4 29l170 45l-82 372h-500l-202 -372l149 -45l-4 -29h-401z" />
    <glyph glyph-name="Acircumflex" unicode="&#xc2;" horiz-adv-x="1359" 
d="M870 1821l191 -267l-25 -22l-227 135l-272 -135l-17 22l287 267h63zM678 1092h-4l-314 -574h441zM-141 0l4 29l141 45l737 1317l86 20l310 -1337l125 -45l-5 -29h-532l4 29l170 45l-82 372h-500l-202 -372l149 -45l-4 -29h-401z" />
    <glyph glyph-name="Atilde" unicode="&#xc3;" horiz-adv-x="1359" 
d="M680 1794q68 0 153 -38t125 -42q68 23 129 109l21 -11q-55 -233 -209 -233q-68 0 -153 41t-140 45q-55 -23 -147 -123l-23 14q76 238 244 238zM678 1092h-4l-314 -574h441zM-141 0l4 29l141 45l737 1317l86 20l310 -1337l125 -45l-5 -29h-532l4 29l170 45l-82 372h-500
l-202 -372l149 -45l-4 -29h-401z" />
    <glyph glyph-name="Adieresis" unicode="&#xc4;" horiz-adv-x="1359" 
d="M940 1579q-43 0 -68 26q-24 27 -24 69t37 78t80 36t67 -27t25 -69q0 -42 -37 -78q-37 -35 -80 -35zM641 1579q-43 0 -68 27q-25 26 -25 68t39 78q38 36 80 36q43 0 67 -27t24 -69t-37 -78q-37 -35 -80 -35zM678 1092h-4l-314 -574h441zM-141 0l4 29l141 45l737 1317
l86 20l310 -1337l125 -45l-5 -29h-532l4 29l170 45l-82 372h-500l-202 -372l149 -45l-4 -29h-401z" />
    <glyph glyph-name="Aring" unicode="&#xc5;" horiz-adv-x="1359" 
d="M811 1540q51 0 77 47t25 119q0 92 -69 92q-106 0 -107 -162q0 -96 74 -96zM1032 1673q0 -78 -63 -126t-155 -48t-142 43q-51 43 -51 122t63 126q62 47 154 47t143 -43t51 -121zM678 1092h-4l-314 -574h441zM-141 0l4 29l141 45l737 1317l86 20l310 -1337l125 -45l-5 -29
h-532l4 29l170 45l-82 372h-500l-202 -372l149 -45l-4 -29h-401z" />
    <glyph glyph-name="AE" unicode="&#xc6;" horiz-adv-x="1961" 
d="M1034 1309h-4l-565 -795h428zM16 74l957 1317h969l-15 -70q-20 -125 -26 -246l-3 -39l-40 -10q-74 109 -97 287h-504l-102 -570l461 13l59 112h43l-57 -319h-37l-25 113l-454 12l-105 -596h547q35 74 85 150t85 114l33 39l37 -10q-47 -156 -70 -287l-14 -84h-1098l6 31
l166 45l66 368h-467l-269 -370l146 -45l-4 -29h-404l6 29z" />
    <glyph glyph-name="Ccedilla" unicode="&#xc7;" horiz-adv-x="1243" 
d="M795 1335q-199 -1 -332 -197t-133 -505q0 -244 104 -377t262 -133t257 63t186 172l28 -16q-63 -133 -173 -234q-62 -58 -170 -101t-253 -21l-45 -56q170 -18 170 -141q0 -72 -61 -112q-61 -39 -163 -39t-169 55l21 33q54 -31 116 -31q62 1 90 23t27 57q0 84 -127 114l2 9
l78 96q-200 43 -314 201t-114 403q0 375 220 594t538 219q114 1 244 -23t161 -26l-16 -109q-12 -62 -12 -184v-33l-41 -10q-31 19 -74 93q-43 75 -64 161q-98 55 -243 55z" />
    <glyph glyph-name="Egrave" unicode="&#xc8;" horiz-adv-x="1239" 
d="M596 1831h25l268 -287l-23 -28l-364 176zM901 541l-35 121l-444 12l-107 -596h547q80 155 174 268l31 37l35 -12q-57 -197 -74 -301l-12 -70h-1096l4 31l166 45l221 1239l-147 45l4 31h1049l-13 -70q-18 -109 -24 -238l-4 -47l-46 -8q-72 111 -96 285h-499l-101 -570
l449 13l69 112h41l-57 -327h-35z" />
    <glyph glyph-name="Eacute" unicode="&#xc9;" horiz-adv-x="1239" 
d="M901 541l-35 121l-444 12l-107 -596h547q80 155 174 268l31 37l35 -12q-57 -197 -74 -301l-12 -70h-1096l4 31l166 45l221 1239l-147 45l4 31h1049l-13 -70q-18 -109 -24 -238l-4 -47l-46 -8q-72 111 -96 285h-499l-101 -570l449 13l69 112h41l-57 -327h-35zM950 1831h23
l94 -139l-362 -176l-25 28z" />
    <glyph glyph-name="Ecircumflex" unicode="&#xca;" horiz-adv-x="1239" 
d="M901 541l-35 121l-444 12l-107 -596h547q80 155 174 268l31 37l35 -12q-57 -197 -74 -301l-12 -70h-1096l4 31l166 45l221 1239l-147 45l4 31h1049l-13 -70q-18 -109 -24 -238l-4 -47l-46 -8q-72 111 -96 285h-499l-101 -570l449 13l69 112h41l-57 -327h-35zM846 1821
l190 -267l-24 -22l-228 135l-272 -135l-16 22l286 267h64z" />
    <glyph glyph-name="Edieresis" unicode="&#xcb;" horiz-adv-x="1239" 
d="M901 541l-35 121l-444 12l-107 -596h547q80 155 174 268l31 37l35 -12q-57 -197 -74 -301l-12 -70h-1096l4 31l166 45l221 1239l-147 45l4 31h1049l-13 -70q-18 -109 -24 -238l-4 -47l-46 -8q-72 111 -96 285h-499l-101 -570l449 13l69 112h41l-57 -327h-35zM899 1579
q-43 0 -68 26q-25 27 -25 69t38 78q37 36 80 36q44 0 68 -27t24 -69t-37 -78q-37 -35 -80 -35zM600 1579q-43 0 -68 27q-24 26 -24 68t38 78t80 36t66 -27t25 -69q0 -42 -37 -78q-37 -35 -80 -35z" />
    <glyph glyph-name="Igrave" unicode="&#xcc;" horiz-adv-x="624" 
d="M236 1831h24l268 -287l-22 -28l-365 176zM-80 0l4 31l166 45l221 1239l-147 45l4 31h537l-5 -31l-163 -45l-222 -1239l148 -45l-4 -31h-539z" />
    <glyph glyph-name="Iacute" unicode="&#xcd;" horiz-adv-x="624" 
d="M692 1831h23l94 -139l-363 -176l-24 28zM-80 0l4 31l166 45l221 1239l-147 45l4 31h537l-5 -31l-163 -45l-222 -1239l148 -45l-4 -31h-539z" />
    <glyph glyph-name="Icircumflex" unicode="&#xce;" horiz-adv-x="624" 
d="M551 1821l190 -267l-24 -22l-228 135l-272 -135l-16 22l286 267h64zM-80 0l4 31l166 45l221 1239l-147 45l4 31h537l-5 -31l-163 -45l-222 -1239l148 -45l-4 -31h-539z" />
    <glyph glyph-name="Idieresis" unicode="&#xcf;" horiz-adv-x="624" 
d="M616 1579q-44 0 -68 26q-24 27 -24 69t37 78t80 36t68 -27t25 -69t-38 -78q-37 -35 -80 -35zM317 1579q-43 0 -67 27q-24 26 -25 68q0 42 38 78t80 36t67 -27q24 -27 24 -69t-37 -78q-37 -35 -80 -35zM-80 0l4 31l166 45l221 1239l-147 45l4 31h537l-5 -31l-163 -45
l-222 -1239l148 -45l-4 -31h-539z" />
    <glyph glyph-name="Eth" unicode="&#xd0;" horiz-adv-x="1441" 
d="M715 1315h-183l-94 -537h275l-13 -78h-276l-109 -620h246q256 0 407 205t150 522q0 231 -108 370q-109 138 -295 138zM731 1391q285 0 457 -157t172 -415t-114 -444q-114 -187 -298 -281t-403 -94h-625l4 31l166 45l111 624h-168l12 78h170l96 537l-147 45l4 31h563z" />
    <glyph glyph-name="Ntilde" unicode="&#xd1;" horiz-adv-x="1400" 
d="M539 1518l-23 14q76 238 244 237q68 1 152 -37t126 -42q68 23 129 108l21 -10q-55 -233 -209 -234q-68 0 -153 41t-140 45q-55 -22 -147 -122zM1014 0l-639 1169l-195 -1095l150 -45l-4 -29h-406l4 29l162 45l221 1243l-143 45l4 29h342l549 -1018l168 944l-148 45l4 29
h404l-4 -29l-162 -45l-234 -1317h-73z" />
    <glyph glyph-name="Ograve" unicode="&#xd2;" horiz-adv-x="1441" 
d="M557 1831h25l268 -287l-23 -28l-364 176zM322 545q0 -223 86 -357t234 -135q148 0 260 118t165 293t53 383t-85 352t-232 144q-209 0 -345 -221t-136 -577zM653 -20q-255 0 -413 160t-158 433q0 381 209 609t510 229q259 0 409 -162t150 -440q0 -361 -207 -595t-500 -234
z" />
    <glyph glyph-name="Oacute" unicode="&#xd3;" horiz-adv-x="1441" 
d="M322 545q0 -223 86 -357t234 -135q148 0 260 118t165 293t53 383t-85 352t-232 144q-209 0 -345 -221t-136 -577zM653 -20q-255 0 -413 160t-158 433q0 381 209 609t510 229q259 0 409 -162t150 -440q0 -361 -207 -595t-500 -234zM1026 1831h23l94 -139l-363 -176l-24 28
z" />
    <glyph glyph-name="Ocircumflex" unicode="&#xd4;" horiz-adv-x="1441" 
d="M322 545q0 -223 86 -357t234 -135q148 0 260 118t165 293t53 383t-85 352t-232 144q-209 0 -345 -221t-136 -577zM653 -20q-255 0 -413 160t-158 433q0 381 209 609t510 229q259 0 409 -162t150 -440q0 -361 -207 -595t-500 -234zM895 1821l190 -267l-24 -22l-227 135
l-273 -135l-16 22l286 267h64z" />
    <glyph glyph-name="Otilde" unicode="&#xd5;" horiz-adv-x="1441" 
d="M688 1794q68 0 153 -38t126 -42q68 23 129 109l20 -11q-55 -233 -209 -233q-69 0 -153 41t-140 45q-55 -23 -147 -123l-23 14q76 238 244 238zM322 545q0 -223 86 -357t234 -135q148 0 260 118t165 293t53 383t-85 352t-232 144q-209 0 -345 -221t-136 -577zM653 -20
q-255 0 -413 160t-158 433q0 381 209 609t510 229q259 0 409 -162t150 -440q0 -361 -207 -595t-500 -234z" />
    <glyph glyph-name="Odieresis" unicode="&#xd6;" horiz-adv-x="1441" 
d="M322 545q0 -223 86 -357t234 -135q148 0 260 118t165 293t53 383t-85 352t-232 144q-209 0 -345 -221t-136 -577zM653 -20q-255 0 -413 160t-158 433q0 381 209 609t510 229q259 0 409 -162t150 -440q0 -361 -207 -595t-500 -234zM954 1579q-44 0 -68 26q-24 27 -24 69
t37 78t80 36t68 -27t25 -69t-38 -78q-37 -35 -80 -35zM655 1579q-43 0 -67 27q-24 26 -25 68q0 42 38 78t80 36t67 -27q24 -27 24 -69t-37 -78q-37 -35 -80 -35z" />
    <glyph glyph-name="multiply" unicode="&#xd7;" horiz-adv-x="858" 
d="M170 285l-72 69l258 258l-254 254l70 70l254 -254l258 258l70 -72l-256 -256l262 -262l-70 -69l-264 260z" />
    <glyph glyph-name="Oslash" unicode="&#xd8;" horiz-adv-x="1441" 
d="M639 53q151 0 263 118t165 293t53 330t-26 265l-723 -803q86 -203 268 -203zM322 545q0 -123 24 -217l723 802q-88 213 -266 213q-209 0 -345 -221t-136 -577zM82 573q0 381 209 609t510 229q242 0 391 -143l129 143h88l-174 -192q125 -160 125 -410q0 -361 -207 -595
t-500 -234q-244 0 -399 145l-131 -145h-90l176 194q-127 156 -127 399z" />
    <glyph glyph-name="Ugrave" unicode="&#xd9;" horiz-adv-x="1421" 
d="M676 1831h24l269 -287l-23 -28l-364 176zM635 -20q-426 0 -518 296l184 1039l-149 45l4 31h536l-4 -31l-164 -45l-166 -934q-28 -139 54 -221t238 -82t281 85q124 85 148 226l164 926l-149 45l4 31h411l-4 -31l-164 -45l-182 -1018q-72 -149 -206 -233t-318 -84z" />
    <glyph glyph-name="Uacute" unicode="&#xda;" horiz-adv-x="1421" 
d="M635 -20q-426 0 -518 296l184 1039l-149 45l4 31h536l-4 -31l-164 -45l-166 -934q-28 -139 54 -221t238 -82t281 85q124 85 148 226l164 926l-149 45l4 31h411l-4 -31l-164 -45l-182 -1018q-72 -149 -206 -233t-318 -84zM1145 1831h22l95 -139l-363 -176l-25 28z" />
    <glyph glyph-name="Ucircumflex" unicode="&#xdb;" horiz-adv-x="1421" 
d="M635 -20q-426 0 -518 296l184 1039l-149 45l4 31h536l-4 -31l-164 -45l-166 -934q-28 -139 54 -221t238 -82t281 85q124 85 148 226l164 926l-149 45l4 31h411l-4 -31l-164 -45l-182 -1018q-72 -149 -206 -233t-318 -84zM975 1821l190 -267l-24 -22l-228 135l-272 -135
l-16 22l286 267h64z" />
    <glyph glyph-name="Udieresis" unicode="&#xdc;" horiz-adv-x="1421" 
d="M635 -20q-426 0 -518 296l184 1039l-149 45l4 31h536l-4 -31l-164 -45l-166 -934q-28 -139 54 -221t238 -82t281 85q124 85 148 226l164 926l-149 45l4 31h411l-4 -31l-164 -45l-182 -1018q-72 -149 -206 -233t-318 -84zM1022 1579q-43 0 -68 26q-24 27 -24 69t37 78
t80 36t67 -27t25 -69q0 -42 -37 -78q-37 -35 -80 -35zM723 1579q-43 0 -68 27q-25 26 -25 68t39 78q38 36 80 36q43 0 67 -27t24 -69t-37 -78q-37 -35 -80 -35z" />
    <glyph glyph-name="Yacute" unicode="&#xdd;" horiz-adv-x="1314" 
d="M1042 1831h23l94 -139l-362 -176l-25 28zM242 0l4 31l182 45l92 520l-305 721l-121 45l4 29h527l-4 -29l-158 -45l239 -623h5l499 623l-135 45l6 29h383l-6 -29l-141 -45l-565 -701l-97 -540l164 -45l-4 -31h-569z" />
    <glyph glyph-name="Thorn" unicode="&#xde;" horiz-adv-x="1208" 
d="M649 266q-88 0 -180 33l4 31h94q182 2 282 113q99 112 99 313q0 287 -291 286h-165l-173 -966l164 -45l-4 -31h-553l4 31l166 45l221 1239l-149 45l4 31h537l-4 -31l-164 -45l-37 -195h184q226 0 362 -95t136 -280q0 -219 -154 -349t-383 -130z" />
    <glyph glyph-name="germandbls" unicode="&#xdf;" horiz-adv-x="1239" 
d="M848 1503q150 -1 236 -67t87 -182q0 -116 -130 -202q-54 -36 -107 -71q-129 -85 -129 -174q0 -53 63 -109l172 -139q125 -98 125 -241t-112 -241q-113 -97 -249 -97t-255 45q2 59 20 117t37 87l19 27l104 -18q-27 -78 -35 -172q156 -51 233 34q48 54 48 138t-92 159
l-113 90q-127 103 -127 219t116 232q48 47 97 92q117 107 117 203t-47 146t-131 51q-225 0 -291 -388l-172 -1007q-33 -197 -131 -297q-99 -100 -229 -100t-208 51q2 59 24 113t44 79l21 23l114 -21q-47 -78 -57 -184l33 -2q85 0 120 87t52 193l164 977h-162l10 54l162 20
l4 21q33 193 193 323t362 131z" />
    <glyph glyph-name="agrave" unicode="&#xe0;" horiz-adv-x="1179" 
d="M457 1479h24l269 -287l-23 -29l-365 176zM449 98q104 0 197 134t128 323l53 305q-61 133 -200 133q-99 0 -179 -94t-118 -234t-39 -292q0 -275 158 -275zM379 -20q-150 0 -233 97t-83 259q-1 301 173 512t405 211q150 0 250 -96l147 96l33 -12l-160 -895q-14 -64 23 -64
t79 41t68 82l25 41l35 -16q-66 -165 -183 -229q-50 -27 -116 -27t-104 57t-19 139l18 80l-10 2q-139 -278 -348 -278z" />
    <glyph glyph-name="aacute" unicode="&#xe1;" horiz-adv-x="1179" 
d="M944 1479h23l94 -140l-363 -176l-24 29zM449 98q104 0 197 134t128 323l53 305q-61 133 -200 133q-99 0 -179 -94t-118 -234t-39 -292q0 -275 158 -275zM379 -20q-150 0 -233 97t-83 259q-1 301 173 512t405 211q150 0 250 -96l147 96l33 -12l-160 -895q-14 -64 23 -64
t79 41t68 82l25 41l35 -16q-66 -165 -183 -229q-50 -27 -116 -27t-104 57t-19 139l18 80l-10 2q-139 -278 -348 -278z" />
    <glyph glyph-name="acircumflex" unicode="&#xe2;" horiz-adv-x="1179" 
d="M764 1468l190 -266l-24 -22l-228 135l-272 -135l-16 22l286 266h64zM449 98q104 0 197 134t128 323l53 305q-61 133 -200 133q-99 0 -179 -94t-118 -234t-39 -292q0 -275 158 -275zM379 -20q-150 0 -233 97t-83 259q-1 301 173 512t405 211q150 0 250 -96l147 96l33 -12
l-160 -895q-14 -64 23 -64t79 41t68 82l25 41l35 -16q-66 -165 -183 -229q-50 -27 -116 -27t-104 57t-19 139l18 80l-10 2q-139 -278 -348 -278z" />
    <glyph glyph-name="atilde" unicode="&#xe3;" horiz-adv-x="1179" 
d="M602 1442q68 0 153 -38t126 -42q68 23 129 108l20 -10q-55 -233 -209 -233q-69 0 -153 41t-140 45q-55 -23 -147 -123l-23 14q76 238 244 238zM449 98q104 0 197 134t128 323l53 305q-61 133 -200 133q-99 0 -179 -94t-118 -234t-39 -292q0 -275 158 -275zM379 -20
q-150 0 -233 97t-83 259q-1 301 173 512t405 211q150 0 250 -96l147 96l33 -12l-160 -895q-14 -64 23 -64t79 41t68 82l25 41l35 -16q-66 -165 -183 -229q-50 -27 -116 -27t-104 57t-19 139l18 80l-10 2q-139 -278 -348 -278z" />
    <glyph glyph-name="adieresis" unicode="&#xe4;" horiz-adv-x="1179" 
d="M831 1227q-43 -1 -67 25t-25 69q0 43 37 79t80 36t68 -27q24 -27 24 -69t-37 -78q-37 -35 -80 -35zM532 1227q-44 1 -68 27t-24 68t38 78t80 36t67 -27t25 -69t-38 -78q-37 -35 -80 -35zM449 98q104 0 197 134t128 323l53 305q-61 133 -200 133q-99 0 -179 -94t-118 -234
t-39 -292q0 -275 158 -275zM379 -20q-150 0 -233 97t-83 259q-1 301 173 512t405 211q150 0 250 -96l147 96l33 -12l-160 -895q-14 -64 23 -64t79 41t68 82l25 41l35 -16q-66 -165 -183 -229q-50 -27 -116 -27t-104 57t-19 139l18 80l-10 2q-139 -278 -348 -278z" />
    <glyph glyph-name="aring" unicode="&#xe5;" horiz-adv-x="1179" 
d="M694 1188q103 0 103 176q0 82 -70 82q-106 0 -106 -162q-1 -96 73 -96zM915 1321q0 -78 -63 -126q-62 -48 -154 -48t-143 43t-51 122t63 126t155 47t142 -43q51 -43 51 -121zM449 98q104 0 197 134t128 323l53 305q-61 133 -200 133q-99 0 -179 -94t-118 -234t-39 -292
q0 -275 158 -275zM379 -20q-150 0 -233 97t-83 259q-1 301 173 512t405 211q150 0 250 -96l147 96l33 -12l-160 -895q-14 -64 23 -64t79 41t68 82l25 41l35 -16q-66 -165 -183 -229q-50 -27 -116 -27t-104 57t-19 139l18 80l-10 2q-139 -278 -348 -278z" />
    <glyph glyph-name="ae" unicode="&#xe6;" horiz-adv-x="1636" 
d="M1245 993q-119 0 -206 -126t-107 -341q246 7 347 81q44 32 77 92q33 61 33 139q1 78 -41 116t-103 39zM711 375q0 291 153 481q-80 137 -232 137t-247 -191q-94 -191 -94 -429q0 -274 160 -275q73 0 141 68t119 180v29zM1098 -20q-150 0 -247 70t-128 200h-4
q-135 -270 -340 -270q-150 0 -232 98t-81 258q0 301 173 512t404 211q178 0 305 -119q141 119 302 119q161 1 247 -61t86 -169q0 -185 -178 -269q-107 -51 -233 -67q-126 -17 -244 -24v-61q0 -158 60 -234t164 -76t182 52q79 52 159 151l31 -18q-154 -303 -426 -303z" />
    <glyph glyph-name="ccedilla" unicode="&#xe7;" horiz-adv-x="958" 
d="M530 -211q0 -72 -61 -112q-61 -39 -163 -39t-169 55l21 33q54 -31 116 -31q62 1 90 23t27 57q0 84 -127 114l2 9l72 90q-133 29 -204 133t-71 270q0 305 171 487t399 181q106 0 187 -30t118 -71q-6 -61 -30 -120t-44 -88t-22 -29l-115 16q35 102 39 207q-66 45 -156 45
q-160 0 -246 -148t-85 -390q0 -173 61 -261q62 -88 166 -88t177 60t155 176l30 -16q-51 -150 -155 -248t-267 -99l-47 2l-39 -47q170 -18 170 -141z" />
    <glyph glyph-name="egrave" unicode="&#xe8;" horiz-adv-x="983" 
d="M401 1479h25l268 -287l-22 -29l-365 176zM592 993q-119 0 -207 -126t-109 -341q248 8 351 81q45 32 78 92q33 61 33 139t-43 116q-42 38 -103 39zM433 -20q-169 0 -269 102t-101 293q0 303 164 493t383 191q144 1 232 -61t88 -169q0 -228 -291 -312q-114 -34 -367 -48
v-61q0 -156 62 -233t164 -77q104 0 183 52t161 151l26 -18q-70 -139 -168 -221t-267 -82z" />
    <glyph glyph-name="eacute" unicode="&#xe9;" horiz-adv-x="983" 
d="M592 993q-119 0 -207 -126t-109 -341q248 8 351 81q45 32 78 92q33 61 33 139t-43 116q-42 38 -103 39zM433 -20q-169 0 -269 102t-101 293q0 303 164 493t383 191q144 1 232 -61t88 -169q0 -228 -291 -312q-114 -34 -367 -48v-61q0 -156 62 -233t164 -77q104 0 183 52
t161 151l26 -18q-70 -139 -168 -221t-267 -82zM860 1479h23l94 -140l-363 -176l-24 29z" />
    <glyph glyph-name="ecircumflex" unicode="&#xea;" horiz-adv-x="983" 
d="M592 993q-119 0 -207 -126t-109 -341q248 8 351 81q45 32 78 92q33 61 33 139t-43 116q-42 38 -103 39zM433 -20q-169 0 -269 102t-101 293q0 303 164 493t383 191q144 1 232 -61t88 -169q0 -228 -291 -312q-114 -34 -367 -48v-61q0 -156 62 -233t164 -77q104 0 183 52
t161 151l26 -18q-70 -139 -168 -221t-267 -82zM688 1468l191 -266l-25 -22l-227 135l-273 -135l-16 22l287 266h63z" />
    <glyph glyph-name="edieresis" unicode="&#xeb;" horiz-adv-x="983" 
d="M592 993q-119 0 -207 -126t-109 -341q248 8 351 81q45 32 78 92q33 61 33 139t-43 116q-42 38 -103 39zM433 -20q-169 0 -269 102t-101 293q0 303 164 493t383 191q144 1 232 -61t88 -169q0 -228 -291 -312q-114 -34 -367 -48v-61q0 -156 62 -233t164 -77q104 0 183 52
t161 151l26 -18q-70 -139 -168 -221t-267 -82zM754 1227q-43 -1 -68 25q-24 26 -24 69t36 79q37 36 80 36t68 -27q24 -27 24 -69t-36 -78q-36 -35 -80 -35zM455 1227q-43 1 -68 27t-25 68t38 78t80 36t67 -27t25 -69t-38 -78q-36 -35 -79 -35z" />
    <glyph glyph-name="igrave" unicode="&#xec;" horiz-adv-x="632" 
d="M160 1479h24l269 -287l-23 -29l-364 176zM256 950q-31 0 -73 -42t-68 -85l-25 -41l-37 21q10 25 42 79t64 88t82 62q49 28 119 27q70 0 107 -49t22 -129l-137 -729q-10 -64 24 -64t75 42t65 83l27 43l37 -20q-13 -32 -45 -83t-62 -84q-81 -89 -199 -89q-66 0 -104 52
q-37 52 -25 126l138 729q10 63 -27 63z" />
    <glyph glyph-name="iacute" unicode="&#xed;" horiz-adv-x="632" 
d="M256 950q-31 0 -73 -42t-68 -85l-25 -41l-37 21q10 25 42 79t64 88t82 62q49 28 119 27q70 0 107 -49t22 -129l-137 -729q-10 -64 24 -64t75 42t65 83l27 43l37 -20q-13 -32 -45 -83t-62 -84q-81 -89 -199 -89q-66 0 -104 52q-37 52 -25 126l138 729q10 63 -27 63z
M596 1479h22l95 -140l-363 -176l-24 29z" />
    <glyph glyph-name="icircumflex" unicode="&#xee;" horiz-adv-x="632" 
d="M256 950q-31 0 -73 -42t-68 -85l-25 -41l-37 21q10 25 42 79t64 88t82 62q49 28 119 27q70 0 107 -49t22 -129l-137 -729q-10 -64 24 -64t75 42t65 83l27 43l37 -20q-13 -32 -45 -83t-62 -84q-81 -89 -199 -89q-66 0 -104 52q-37 52 -25 126l138 729q10 63 -27 63z
M455 1468l190 -266l-24 -22l-228 135l-272 -135l-17 22l287 266h64z" />
    <glyph glyph-name="idieresis" unicode="&#xef;" horiz-adv-x="632" 
d="M256 950q-31 0 -73 -42t-68 -85l-25 -41l-37 21q10 25 42 79t64 88t82 62q49 28 119 27q70 0 107 -49t22 -129l-137 -729q-10 -64 24 -64t75 42t65 83l27 43l37 -20q-13 -32 -45 -83t-62 -84q-81 -89 -199 -89q-66 0 -104 52q-37 52 -25 126l138 729q10 63 -27 63z
M532 1227q-44 -1 -68 25t-24 69t37 79t80 36t68 -27t25 -69t-38 -78q-37 -35 -80 -35zM233 1227q-43 1 -67 27t-25 68q0 42 38 78t80 36t67 -27q24 -27 24 -69t-37 -78q-37 -35 -80 -35z" />
    <glyph glyph-name="eth" unicode="&#xf0;" horiz-adv-x="1089" 
d="M803 656q0 150 -52 243q-51 92 -151 92t-176 -97q-139 -178 -137 -519q0 -143 52 -235t151 -93q99 0 175 95q138 174 138 514zM1024 625q0 -273 -153 -459t-357 -186t-328 124q-123 124 -123 316q0 285 155 462t372 177q104 0 194 -45q-25 125 -75 217l-183 -76l-18 64
l170 73q-61 88 -164 160l49 51q131 -66 230 -164l172 74l22 -65l-149 -62q186 -231 186 -661z" />
    <glyph glyph-name="ntilde" unicode="&#xf1;" horiz-adv-x="1234" 
d="M637 1442q68 0 153 -38t125 -42q68 23 129 108l21 -10q-55 -233 -209 -233q-68 0 -153 41t-140 45q-55 -23 -147 -123l-23 14q76 238 244 238zM774 948q-115 0 -217 -131t-135 -323l-90 -494h-209l158 887q10 63 -27 63q-31 0 -73 -41t-66 -82l-27 -41l-37 17
q13 33 43 83q31 50 63 84t82 62q51 28 117 27q66 0 100 -51t19 -127l-20 -99l10 -2q145 279 377 279q130 0 196 -86t41 -223l-106 -598q-11 -64 23 -64t76 42t67 83l26 43l37 -20q-14 -35 -47 -90q-103 -166 -259 -166q-68 0 -104 52t-24 126l111 626q29 164 -105 164z" />
    <glyph glyph-name="ograve" unicode="&#xf2;" horiz-adv-x="1089" 
d="M403 1479h25l268 -287l-22 -29l-365 176zM490 47q99 0 175 95q138 175 138 520q0 147 -52 239q-51 92 -151 92t-175 -97t-107 -233q-32 -137 -32 -285t53 -240q52 -92 151 -91zM1024 614q0 -276 -154 -455t-358 -179q-203 0 -326 124t-123 316q0 287 157 463t364 176
q208 0 324 -125t116 -320z" />
    <glyph glyph-name="oacute" unicode="&#xf3;" horiz-adv-x="1089" 
d="M490 47q99 0 175 95q138 175 138 520q0 147 -52 239q-51 92 -151 92t-175 -97t-107 -233q-32 -137 -32 -285t53 -240q52 -92 151 -91zM1024 614q0 -276 -154 -455t-358 -179q-203 0 -326 124t-123 316q0 287 157 463t364 176q208 0 324 -125t116 -320zM838 1479h22
l94 -140l-362 -176l-25 29z" />
    <glyph glyph-name="ocircumflex" unicode="&#xf4;" horiz-adv-x="1089" 
d="M490 47q99 0 175 95q138 175 138 520q0 147 -52 239q-51 92 -151 92t-175 -97t-107 -233q-32 -137 -32 -285t53 -240q52 -92 151 -91zM1024 614q0 -276 -154 -455t-358 -179q-203 0 -326 124t-123 316q0 287 157 463t364 176q208 0 324 -125t116 -320zM707 1468l190 -266
l-25 -22l-227 135l-272 -135l-17 22l287 266h64z" />
    <glyph glyph-name="otilde" unicode="&#xf5;" horiz-adv-x="1089" 
d="M545 1442q69 0 153 -38t125 -42q68 23 129 108l21 -10q-55 -233 -209 -233q-68 0 -153 41t-140 45q-55 -23 -147 -123l-23 14q76 238 244 238zM490 47q99 0 175 95q138 175 138 520q0 147 -52 239q-51 92 -151 92t-175 -97t-107 -233q-32 -137 -32 -285t53 -240
q52 -92 151 -91zM1024 614q0 -276 -154 -455t-358 -179q-203 0 -326 124t-123 316q0 287 157 463t364 176q208 0 324 -125t116 -320z" />
    <glyph glyph-name="odieresis" unicode="&#xf6;" horiz-adv-x="1089" 
d="M490 47q99 0 175 95q138 175 138 520q0 147 -52 239q-51 92 -151 92t-175 -97t-107 -233q-32 -137 -32 -285t53 -240q52 -92 151 -91zM1024 614q0 -276 -154 -455t-358 -179q-203 0 -326 124t-123 316q0 287 157 463t364 176q208 0 324 -125t116 -320zM786 1227
q-44 -1 -68 25t-24 69t37 79t80 36t68 -27t25 -69t-38 -78q-37 -35 -80 -35zM487 1227q-43 1 -67 27t-25 68q0 42 38 78t80 36t67 -27q24 -27 24 -69t-37 -78q-37 -35 -80 -35z" />
    <glyph glyph-name="divide" unicode="&#xf7;" horiz-adv-x="1024" 
d="M397 268q0 47 35 81t82 34t81 -34t34 -81t-34 -81q-34 -33 -81 -33t-82 34t-35 80zM98 557v100h828v-100h-828zM397 944q0 47 35 81t82 34t81 -34t34 -81t-34 -81t-81 -34t-82 34t-35 81z" />
    <glyph glyph-name="oslash" unicode="&#xf8;" horiz-adv-x="1089" 
d="M483 47q106 0 182 95q138 175 138 520q0 27 -4 71l-496 -504q20 -84 67 -133t113 -49zM287 426q0 -100 2 -125l497 504q-45 188 -180 188q-106 0 -181 -97t-107 -233q-32 -137 -31 -237zM63 420q0 287 157 463t364 176t325 -129l129 129h82l-174 -176q78 -117 78 -269
q0 -276 -155 -455t-359 -179t-328 126l-127 -126h-84l172 174q-80 113 -80 266z" />
    <glyph glyph-name="ugrave" unicode="&#xf9;" horiz-adv-x="1232" 
d="M475 1479h25l268 -287l-23 -29l-364 176zM408 -20q-203 0 -256 188l133 719q10 63 -27 63q-29 0 -68 -42t-63 -85l-25 -41l-36 21q66 164 182 228q50 28 116 28t104 -52t21 -126l-133 -719q20 -72 126 -72t206 131t133 324l88 493h209l-157 -886q-9 -64 25 -64t76 41
t68 82l25 41l35 -16l-11 -28q-7 -18 -35 -62q-106 -168 -257 -166q-68 0 -101 51t-20 127l20 98l-10 2q-137 -278 -368 -278z" />
    <glyph glyph-name="uacute" unicode="&#xfa;" horiz-adv-x="1232" 
d="M408 -20q-203 0 -256 188l133 719q10 63 -27 63q-29 0 -68 -42t-63 -85l-25 -41l-36 21q66 164 182 228q50 28 116 28t104 -52t21 -126l-133 -719q20 -72 126 -72t206 131t133 324l88 493h209l-157 -886q-9 -64 25 -64t76 41t68 82l25 41l35 -16l-11 -28q-7 -18 -35 -62
q-106 -168 -257 -166q-68 0 -101 51t-20 127l20 98l-10 2q-137 -278 -368 -278zM920 1479h22l94 -140l-362 -176l-25 29z" />
    <glyph glyph-name="ucircumflex" unicode="&#xfb;" horiz-adv-x="1232" 
d="M408 -20q-203 0 -256 188l133 719q10 63 -27 63q-29 0 -68 -42t-63 -85l-25 -41l-36 21q66 164 182 228q50 28 116 28t104 -52t21 -126l-133 -719q20 -72 126 -72t206 131t133 324l88 493h209l-157 -886q-9 -64 25 -64t76 41t68 82l25 41l35 -16l-11 -28q-7 -18 -35 -62
q-106 -168 -257 -166q-68 0 -101 51t-20 127l20 98l-10 2q-137 -278 -368 -278zM793 1468l190 -266l-25 -22l-227 135l-272 -135l-17 22l287 266h64z" />
    <glyph glyph-name="udieresis" unicode="&#xfc;" horiz-adv-x="1232" 
d="M408 -20q-203 0 -256 188l133 719q10 63 -27 63q-29 0 -68 -42t-63 -85l-25 -41l-36 21q66 164 182 228q50 28 116 28t104 -52t21 -126l-133 -719q20 -72 126 -72t206 131t133 324l88 493h209l-157 -886q-9 -64 25 -64t76 41t68 82l25 41l35 -16l-11 -28q-7 -18 -35 -62
q-106 -168 -257 -166q-68 0 -101 51t-20 127l20 98l-10 2q-137 -278 -368 -278zM856 1227q-43 -1 -68 25q-24 26 -24 69t37 79t80 36t67 -27t25 -69q0 -42 -37 -78q-37 -35 -80 -35zM557 1227q-43 1 -68 27t-25 68t39 78q38 36 80 36q43 0 67 -27t24 -69t-37 -78
q-37 -35 -80 -35z" />
    <glyph glyph-name="yacute" unicode="&#xfd;" horiz-adv-x="1038" 
d="M844 1479h22l95 -140l-363 -176l-25 29zM291 1059q123 0 158 -133l174 -715h4l10 18q100 173 176 357t88 280q-59 36 -143 52l-27 2l86 139q106 4 199 -78q-8 -131 -95 -355t-216 -446q-246 -407 -486 -542q-53 20 -99 60t-67 69l-20 30l108 105q59 -80 127 -111
q84 53 199 191l-234 882q-16 53 -36 54q-37 0 -65 -86t-28 -119l-43 4q-12 59 28 185q19 62 73 110t129 47z" />
    <glyph glyph-name="thorn" unicode="&#xfe;" horiz-adv-x="1173" 
d="M518 47q125 0 210 95q155 173 155 524q0 276 -174 276q-105 0 -199 -132t-127 -316l-64 -361q74 -86 199 -86zM516 -20q-123 0 -217 59l-55 -305l162 -45l-5 -31h-524l4 31l156 45l295 1648l-139 25l4 33l338 63h24l-86 -491q-24 -147 -47 -203l-8 -27l10 -2
q131 279 348 279q154 -1 243 -103t89 -270q0 -302 -166 -504t-426 -202z" />
    <glyph glyph-name="ydieresis" unicode="&#xff;" horiz-adv-x="1038" 
d="M792 1227q-44 -1 -68 25t-24 69t37 79t80 36t68 -27t25 -69t-38 -78q-37 -35 -80 -35zM493 1227q-43 1 -67 27t-25 68q0 42 38 78t80 36t67 -27q24 -27 24 -69t-37 -78q-37 -35 -80 -35zM291 1059q123 0 158 -133l174 -715h4l10 18q100 173 176 357t88 280
q-59 36 -143 52l-27 2l86 139q106 4 199 -78q-8 -131 -95 -355t-216 -446q-246 -407 -486 -542q-53 20 -99 60t-67 69l-20 30l108 105q59 -80 127 -111q84 53 199 191l-234 882q-16 53 -36 54q-37 0 -65 -86t-28 -119l-43 4q-12 59 28 185q19 62 73 110t129 47z" />
    <glyph glyph-name="dotlessi" unicode="&#x131;" horiz-adv-x="632" 
d="M256 950q-31 0 -73 -42t-68 -85l-25 -41l-37 21q10 25 42 79t64 88t82 62q49 28 119 27q70 0 107 -49t22 -129l-137 -729q-10 -64 24 -64t75 42t65 83l27 43l37 -20q-13 -32 -45 -83t-62 -84q-81 -89 -199 -89q-66 0 -104 52q-37 52 -25 126l138 729q10 63 -27 63z" />
    <glyph glyph-name="Lslash" unicode="&#x141;" horiz-adv-x="1124" 
d="M-20 508l18 108l213 142l100 557l-147 45l4 31h537l-5 -31l-163 -45l-70 -389l201 133l-19 -109l-203 -133l-131 -739h486q87 161 172 268l31 39l40 -10q-55 -193 -73 -301l-13 -74h-1038l4 31l166 45l103 571z" />
    <glyph glyph-name="lslash" unicode="&#x142;" horiz-adv-x="610" 
d="M-8 508l18 108l193 127l112 639l-139 25l4 33l338 63h25l-109 -606l244 162l-19 -109l-243 -162l-113 -636q-10 -64 24 -64q33 0 75 42t69 83l25 43l36 -20q-64 -160 -187 -229q-49 -27 -117 -27t-105 52t-25 126l84 477z" />
    <glyph glyph-name="OE" unicode="&#x152;" horiz-adv-x="1908" 
d="M623 53q84 0 139 27l211 1208q-66 55 -154 55q-217 0 -357 -225t-140 -590q0 -217 81 -346t220 -129zM602 -20q-238 0 -379 150t-141 411q0 389 221 629t528 241q94 0 177 -20h878l-12 -70q-22 -118 -29 -246l-2 -39l-41 -10q-74 109 -98 287h-500l-102 -570l461 13
l59 112h43l-57 -319h-37l-27 113l-452 12l-107 -596h547q35 74 86 150t86 114l33 39l35 -10q-49 -156 -70 -287l-16 -84h-912q-82 -20 -172 -20z" />
    <glyph glyph-name="oe" unicode="&#x153;" horiz-adv-x="1705" 
d="M1315 993q-119 0 -206 -126t-108 -341q246 7 349 81q45 32 77 92q33 61 33 139t-42 116t-103 39zM490 47q99 0 175 95q138 175 138 520q0 147 -52 239q-51 92 -151 92t-175 -97t-107 -233q-32 -137 -32 -285t53 -240q52 -92 151 -91zM510 -20q-201 0 -324 124t-123 316
q0 287 157 463t376 176q121 1 212 -57t140 -158q155 214 403 214q127 0 215 -60q88 -62 87 -169q0 -183 -179 -269q-105 -50 -231 -67t-246 -24v-61q1 -156 61 -233t164 -77t182 52q79 52 161 151l26 -18q-150 -303 -424 -303q-229 0 -313 182q-143 -182 -344 -182z" />
    <glyph glyph-name="Scaron" unicode="&#x160;" horiz-adv-x="1161" 
d="M673 1335q-136 -1 -206 -65t-70 -151t44 -135t134 -99l207 -111q250 -131 250 -346q0 -190 -145 -319t-400 -129t-481 106l21 109q12 70 12 188v39l37 16q47 -40 92 -129q45 -88 53 -170q119 -80 267 -80t236 80q87 81 87 223t-182 242l-211 113q-227 123 -228 313
q0 190 146 286t352 95q119 0 255 -32t169 -36l-16 -98q-16 -101 -11 -172v-33l-38 -10l-27 24t-55 80q-37 62 -54 138q-102 63 -238 63zM647 1532l-192 266l24 23l228 -135l272 135l16 -23l-286 -266h-62z" />
    <glyph glyph-name="scaron" unicode="&#x161;" horiz-adv-x="909" 
d="M546 995q-92 0 -148 -48t-56 -130q0 -109 113 -153l157 -68q219 -92 219 -261q1 -169 -121 -262t-316 -93t-367 81q2 61 19 121t34 88l16 29l103 -20q-20 -82 -27 -168q106 -66 217 -66t174 56t64 153q0 119 -127 172l-140 59q-92 39 -150 107t-58 158q0 158 120 234
t275 75q94 0 197 -24t133 -23q-2 -62 -24 -120t-42 -87l-20 -29l-107 19q29 72 39 155q-86 45 -177 45zM532 1180l-192 266l25 22l227 -135l272 135l17 -22l-287 -266h-62z" />
    <glyph glyph-name="Ydieresis" unicode="&#x178;" horiz-adv-x="1314" 
d="M948 1579q-44 0 -68 26q-24 27 -24 69t37 78t80 36t67 -27t25 -69q0 -42 -37 -78q-37 -35 -80 -35zM649 1579q-43 0 -67 27q-24 26 -25 68q0 42 38 78t80 36q43 0 67 -27t24 -69t-37 -78q-37 -35 -80 -35zM242 0l4 31l182 45l92 520l-305 721l-121 45l4 29h527l-4 -29
l-158 -45l239 -623h5l499 623l-135 45l6 29h383l-6 -29l-141 -45l-565 -701l-97 -540l164 -45l-4 -31h-569z" />
    <glyph glyph-name="Zcaron" unicode="&#x17d;" horiz-adv-x="1159" 
d="M199 1024l-45 16q51 162 71 275l13 76h966l-10 -68l-977 -1245h617q33 72 84 144t86 106l32 37l45 -15q-45 -145 -67 -272l-13 -78h-1071l11 63l981 1250h-519q-27 -68 -77 -141t-88 -111zM696 1532l-192 266l24 23l228 -135l272 135l16 -23l-286 -266h-62z" />
    <glyph glyph-name="zcaron" unicode="&#x17e;" horiz-adv-x="1036" 
d="M549 1180l-193 266l25 22l227 -135l273 135l16 -22l-287 -266h-61zM135 842q0 92 46 154t133 62t250 -73q163 -74 201 -74t66 31l87 96h112v-24l-733 -819q37 12 81 12t169 -22t176 -21q119 0 154 139l10 51h41q18 -37 18 -153q0 -244 -215 -244q-92 0 -262 75
q-170 74 -212 74t-64 -24l-70 -82h-105v27l707 792q-17 -8 -75 -8t-173 20t-147 21q-92 0 -119 -113l-14 -57h-35q-27 68 -27 160z" />
    <glyph glyph-name="florin" unicode="&#x192;" horiz-adv-x="1034" 
d="M782 739v-71h-247l-103 -633q-31 -197 -130 -297q-100 -100 -230 -100t-207 51q2 59 23 113q22 54 42 79l23 23l115 -21q-45 -78 -58 -184q12 -2 44 -2q32 -1 63 23q64 48 98 257l113 691h-183v71h193l33 193q31 195 146 296q116 101 251 101t219 -37q25 -10 29 -14
q-2 -60 -22 -116t-42 -81l-20 -26l-119 20q51 76 57 180q-43 14 -71 15q-97 0 -143 -78t-68 -203l-41 -250h235z" />
    <glyph glyph-name="circumflex" unicode="&#x2c6;" horiz-adv-x="755" 
d="M524 1468l191 -266l-25 -22l-227 135l-273 -135l-16 22l287 266h63z" />
    <glyph glyph-name="caron" unicode="&#x2c7;" horiz-adv-x="755" 
d="M393 1180l-192 266l24 22l228 -135l272 135l16 -22l-286 -266h-62z" />
    <glyph glyph-name="breve" unicode="&#x2d8;" horiz-adv-x="661" 
d="M349 1315q165 0 245 133l27 -18q-35 -100 -108 -167t-177 -67t-158 67q-53 67 -55 167l39 16q22 -131 187 -131z" />
    <glyph glyph-name="dotaccent" unicode="&#x2d9;" horiz-adv-x="487" 
d="M349 1462q54 0 86 -30t32 -84t-42 -96t-96 -42t-86 31t-32 83t42 95t96 43z" />
    <glyph glyph-name="ring" unicode="&#x2da;" horiz-adv-x="591" 
d="M371 1188q102 0 102 176q0 82 -70 82q-106 0 -106 -162q0 -96 74 -96zM592 1321q0 -78 -64 -126t-154 -48q-91 0 -143 43q-51 43 -51 122t64 126t154 47q92 0 143 -43t51 -121z" />
    <glyph glyph-name="ogonek" unicode="&#x2db;" horiz-adv-x="581" 
d="M225 -252q54 0 103 23l22 -50q-80 -84 -184 -83q-193 0 -195 149q0 79 67 145q66 66 142 98t168 56l12 -25q-100 -33 -171 -92t-70 -133q0 -88 106 -88z" />
    <glyph glyph-name="tilde" unicode="&#x2dc;" horiz-adv-x="1003" 
d="M500 1442q68 0 152 -38t126 -42q68 23 129 108l21 -10q-55 -233 -209 -233q-68 0 -153 41t-140 45q-55 -23 -147 -123l-23 14q76 238 244 238z" />
    <glyph glyph-name="hungarumlaut" unicode="&#x2dd;" horiz-adv-x="776" 
d="M393 1188l326 227l84 -110l2 -27l-389 -123zM410 1491h22l88 -121l-364 -188l-27 32z" />
    <glyph glyph-name="pi" unicode="&#x3c0;" horiz-adv-x="1198" 
d="M68 952h1079l-510 -893z" />
    <glyph glyph-name="endash" unicode="&#x2013;" horiz-adv-x="1056" 
d="M104 508v92h846v-92h-846z" />
    <glyph glyph-name="emdash" unicode="&#x2014;" horiz-adv-x="1671" 
d="M104 508v92h1461v-92h-1461z" />
    <glyph glyph-name="quoteleft" unicode="&#x2018;" horiz-adv-x="485" 
d="M244 958q-59 0 -91 35t-32 84q0 86 63 157q62 70 148 110t190 67l6 -16q-154 -90 -211 -197q63 -27 63 -94q0 -66 -38 -106q-39 -40 -98 -40z" />
    <glyph glyph-name="quoteright" unicode="&#x2019;" horiz-adv-x="485" 
d="M326 1411q60 0 91 -35q32 -35 32 -84q1 -86 -63 -156t-150 -111q-86 -40 -189 -67l-6 17q154 90 211 196q-64 27 -64 95t39 106q39 39 99 39z" />
    <glyph glyph-name="quotesinglbase" unicode="&#x201a;" horiz-adv-x="575" 
d="M66 92q0 67 38 107q38 39 98 39t92 -35t32 -84q0 -86 -64 -157q-64 -70 -148 -110q-86 -40 -190 -67l-6 16q154 90 211 197q-63 27 -63 94z" />
    <glyph glyph-name="quotedblleft" unicode="&#x201c;" horiz-adv-x="874" 
d="M770 1100q0 -66 -39 -106t-98 -40t-91 35t-32 84q0 86 63 157q63 70 149 110t189 67l7 -16q-154 -90 -211 -197q63 -27 63 -94zM244 954q-59 0 -91 35t-32 84q0 86 63 157q62 70 148 110t190 67l6 -16q-154 -90 -211 -197q63 -27 63 -94q0 -66 -38 -106q-39 -40 -98 -40z
" />
    <glyph glyph-name="quotedblright" unicode="&#x201d;" horiz-adv-x="874" 
d="M578 1266q0 68 38 106q38 39 98 39t92 -35t32 -84q0 -86 -64 -156t-148 -111q-86 -40 -190 -67l-6 17q154 90 211 196q-63 27 -63 95zM326 1411q60 0 91 -35q32 -35 32 -84q1 -86 -63 -156t-150 -111q-86 -40 -189 -67l-6 17q154 90 211 196q-64 27 -64 95t39 106
q39 39 99 39z" />
    <glyph glyph-name="quotedblbase" unicode="&#x201e;" horiz-adv-x="964" 
d="M584 238q60 0 91 -35q32 -35 32 -84q1 -86 -63 -157q-64 -70 -150 -110t-189 -67l-6 16q154 90 211 197q-64 27 -64 94q0 66 39 106t99 40zM194 238q60 0 92 -35t31 -84q0 -86 -63 -157q-62 -70 -148 -110t-190 -67l-6 16q154 90 211 197q-63 27 -63 94q0 66 38 106
t98 40z" />
    <glyph glyph-name="dagger" unicode="&#x2020;" horiz-adv-x="1062" 
d="M713 1391l-121 -377l389 43l-27 -148l-372 43l6 -262l-176 -690h-74l65 690l97 262l-385 -43l26 148l371 -45l16 379h185z" />
    <glyph glyph-name="daggerdbl" unicode="&#x2021;" horiz-adv-x="1165" 
d="M217 909l27 148l370 -45l15 379h184l-121 -377l391 43l-26 -148l-375 43l8 -256l-100 -260l391 45l-27 -147l-374 43l-13 -377h-184l119 377l-387 -43l26 147l369 -43l-4 258l96 256z" />
    <glyph glyph-name="bullet" unicode="&#x2022;" horiz-adv-x="628" 
d="M512 618q0 -84 -66 -148t-150 -64q-85 0 -134 46t-49 128t65 148q66 67 151 67t134 -47t49 -130z" />
    <glyph glyph-name="ellipsis" unicode="&#x2026;" horiz-adv-x="1617" 
d="M840 121q0 -55 -44 -98t-101 -43q-56 0 -90 30t-34 86t44 100q43 44 101 44t91 -32t33 -87zM173 -20q-56 0 -89 30t-33 86t44 100q45 44 101 44t89 -32t33 -87t-45 -98q-44 -43 -100 -43zM1362 121q0 -55 -44 -98t-102 -43q-57 0 -90 30q-32 30 -32 86t44 100t100 44
t90 -32t34 -87z" />
    <glyph glyph-name="perthousand" unicode="&#x2030;" horiz-adv-x="2048" 
d="M1757 432q0 178 -82 178q-47 0 -81 -41t-56 -140t-22 -228q0 -176 86 -176q120 0 149 289q6 61 6 118zM1905 397q0 -184 -88 -301q-89 -116 -209 -116t-181 66t-61 190q0 182 91 300t224 117q104 1 164 -69t60 -187zM1141 432q0 178 -82 178q-47 0 -89 -50t-64 -230
q-7 -63 -7 -129q0 -176 86 -176q122 0 151 288q5 60 5 119zM1288 397q0 -184 -88 -301q-88 -116 -208 -116t-181 66t-61 190q0 182 91 300t226 117q104 0 163 -69q58 -70 58 -187zM338 0h-92l854 1309h88zM535 1108q0 178 -80 178q-47 0 -89 -50t-64 -230q-7 -63 -7 -127
q0 -178 84 -179q126 0 150 289q6 60 6 119zM682 1075q0 -186 -87 -303t-207 -117t-181 67t-62 189q-1 182 91 300t225 118q104 0 163 -68q58 -69 58 -186z" />
    <glyph glyph-name="guilsinglleft" unicode="&#x2039;" horiz-adv-x="641" 
d="M575 948l-303 -430l152 -424h-76l-274 395v56l426 403h75z" />
    <glyph glyph-name="guilsinglright" unicode="&#x203a;" horiz-adv-x="641" 
d="M25 94l303 430l-152 424h76l274 -395v-55l-426 -404h-75z" />
    <glyph glyph-name="fraction" unicode="&#x2044;" horiz-adv-x="1011" 
d="M74 0h-92l933 1309h86z" />
    <glyph glyph-name="Euro" unicode="&#x20ac;" horiz-adv-x="1314" 
d="M840 1253q-147 0 -261 -124t-155 -328h360l-12 -72h-360q-8 -86 -9 -133h345l-11 -72h-331q12 -195 95 -300t220 -105q137 -1 235 65t183 176l28 -22q-61 -137 -193 -248q-132 -110 -336 -110t-339 145t-141 399h-113l12 72h101q4 76 14 133h-90l10 72h96q66 250 250 389
t424 139q109 1 234 -23t153 -26l-20 -121q-12 -58 -12 -172l2 -33l-48 -14q-12 10 -30 28t-57 90q-38 71 -50 152q-90 43 -194 43z" />
    <glyph glyph-name="trademark" unicode="&#x2122;" horiz-adv-x="1691" 
d="M403 1348h-133q-24 -70 -67 -136l-15 -20l-24 4q10 82 10 137v58h610v-58l11 -137l-25 -4q-53 76 -82 156h-133v-613l84 -22v-17h-322v17l86 22v613zM866 1391h217l211 -455h4l175 455h217v-17l-74 -22v-617l74 -22v-17h-301v17l75 22v457h-4q-12 -47 -24 -80l-152 -383
h-51l-199 375q-16 29 -26 88h-4v-457l73 -22v-17h-211v17l76 22v617l-76 22v17z" />
    <glyph glyph-name="Omega" unicode="&#x2126;" horiz-adv-x="1847" 
d="M1382 1059q128 0 232 -52t145 -112v-295q0 -307 -175 -464t-458 -156q-57 0 -114 6v2q110 12 230 86t149 190q-158 0 -272 81t-113 255v295q41 59 144 111t232 53zM123 600v295q41 59 144 111t233 53q130 0 232 -52q103 -52 145 -112v-295q1 -307 -175 -464t-458 -156
q-55 0 -115 6v2q111 12 231 86t148 190q-158 0 -272 81t-113 255z" />
    <glyph glyph-name="partialdiff" unicode="&#x2202;" horiz-adv-x="1187" 
d="M1016 1059v-1079l-893 509z" />
    <glyph glyph-name="Delta" unicode="&#x2206;" horiz-adv-x="2068" 
d="M565 262q-197 0 -319 115t-123 283q0 168 123 283q122 116 320 116t321 -121t123 -300q0 -494 -437 -625q-119 -36 -221 -36t-157 9v2q160 15 303 132q78 65 100 142h-33zM1540 262q-196 0 -320 116t-124 282t124 283q124 116 322 116t320 -121q123 -121 123 -300
q1 -179 -59 -310t-160 -205q-198 -146 -474 -146q-68 0 -123 9v2q159 14 302 132q79 65 102 142h-33z" />
    <glyph glyph-name="product" unicode="&#x220f;" horiz-adv-x="1198" 
d="M1147 88h-1079l569 893z" />
    <glyph glyph-name="summation" unicode="&#x2211;" horiz-adv-x="1187" 
d="M195 -20v1079l892 -570z" />
    <glyph glyph-name="minus" unicode="&#x2212;" horiz-adv-x="1024" 
d="M98 559v100h828v-100h-828z" />
    <glyph glyph-name="radical" unicode="&#x221a;" horiz-adv-x="2068" 
d="M1540 776q199 0 322 -116t123 -282t-124 -284q-124 -117 -321 -117q-198 0 -320 122q-122 123 -122 301t58 309t158 205q197 146 474 145q43 0 125 -8v-2q-105 -13 -198 -62q-174 -92 -208 -213q10 2 33 2zM567 776q197 0 320 -116t123 -282t-123 -284
q-123 -117 -320 -117t-321 122t-123 307q0 397 301 561q169 92 391 92q41 0 123 -8v-2q-167 -20 -303 -133q-78 -65 -100 -142q9 2 32 2z" />
    <glyph glyph-name="infinity" unicode="&#x221e;" horiz-adv-x="1644" 
d="M1217 352q106 0 165 60t60 163q0 103 -60 163t-165 61q-61 0 -133 -43t-106 -77t-99 -104q57 -63 96 -102t109 -80t133 -41zM428 352q63 0 133 41t111 80t94 102q-61 68 -97 104t-107 78t-134 42q-106 1 -164 -59t-59 -164q1 -104 59 -164t164 -60zM1546 574
q0 -132 -85 -218t-244 -86q-82 0 -162 41t-123 81t-109 110q-63 -68 -109 -109t-126 -82t-160 -41q-160 0 -245 86t-85 217t91 219t239 89q80 0 160 -41t125 -81t108 -108q166 173 278 210q56 19 118 20q149 0 239 -88q90 -87 90 -219z" />
    <glyph glyph-name="integral" unicode="&#x222b;" horiz-adv-x="1847" 
d="M877 438v-295q-41 -59 -145 -111t-232 -52t-232 52t-145 111v295q0 307 175 464t458 157q55 0 114 -6v-2q-112 -12 -232 -87t-149 -190q160 0 274 -81t114 -255zM1382 -20q-130 0 -232 52q-103 52 -144 111v295q0 307 175 464t457 157q55 0 115 -6v-2q-113 -12 -233 -87
t-148 -190q160 0 274 -81t113 -255v-295q-41 -59 -144 -111t-233 -52z" />
    <glyph glyph-name="approxequal" unicode="&#x2248;" horiz-adv-x="1232" 
d="M880 315q-76 0 -222 67t-216 67q-152 0 -266 -142l-78 64q60 90 152 145t196 55q104 -1 258 -69q152 -68 193 -68q96 0 164 94l74 -63q-39 -66 -109 -108t-146 -42zM880 686q-76 0 -222 67t-216 66q-152 0 -266 -141l-78 63q60 89 152 145t196 56t258 -69
q152 -69 193 -68q96 0 164 94l74 -63q-39 -66 -109 -108t-146 -42z" />
    <glyph glyph-name="notequal" unicode="&#x2260;" horiz-adv-x="1024" 
d="M98 750v100h467l78 172h109l-78 -172h252v-100h-297l-117 -261h414v-100h-459l-76 -172h-110l77 172h-260v100h305l117 261h-422z" />
    <glyph glyph-name="lessequal" unicode="&#x2264;" horiz-adv-x="1024" 
d="M98 20v101h828v-101h-828zM926 350v-112l-828 360v76l828 358v-114l-678 -281z" />
    <glyph glyph-name="greaterequal" unicode="&#x2265;" horiz-adv-x="1024" 
d="M926 121v-101h-828v101h828zM98 238v112l678 287l-678 281v114l828 -358v-76z" />
    <glyph glyph-name="lozenge" unicode="&#x25ca;" horiz-adv-x="927" 
d="M94 0v47h756v-47h-756zM94 1343v48h756v-48h-756zM512 692l236 -565h-74l-197 485l-198 -485h-74l235 565l-241 565h75l203 -481l199 481h74z" />
    <glyph glyph-name="apple" unicode="&#xf8ff;" horiz-adv-x="2955" 
d="M1718 584q0 27 -26 26q-42 1 -50 -69q76 0 76 43zM2380 584q0 27 -27 26q-41 1 -49 -69q76 0 76 43zM287 584q0 27 -27 26q-41 1 -49 -69q76 0 76 43zM1057 332q0 -29 28 -29q52 0 56 94q-84 -18 -84 -65zM1868 512q23 0 38 -14t15 -34t-15 -34t-38 -14t-37 13t-14 33
t14 36q14 14 37 14zM1448 553q0 41 -27 41t-46 -38t-19 -60v-47q92 12 92 104zM2352 471q42 0 73 18q16 -10 16 -25q0 -14 -5 -24t-29 -20q-23 -10 -71 -10t-81 30t-33 81q0 52 38 94t90 42t75 -19t22 -44q0 -78 -141 -78q4 -45 46 -45zM1786 594q0 -78 -141 -78
q4 -45 46 -45t72 18q28 -18 12 -50q-16 -29 -83 -29q-66 0 -99 30t-33 81q0 52 38 94t90 42t76 -19q22 -19 22 -44zM259 471q42 0 73 18q16 -10 16 -25q0 -14 -5 -24t-29 -20t-72 -10t-80 30q-33 30 -33 81q0 52 38 94t90 42t75 -19t22 -44q0 -78 -141 -78q4 -45 46 -45z
M2189 592v-100l4 -66q-49 -16 -67 -16t-19 16v137q0 31 -15 31q-14 0 -34 -36t-20 -62l6 -70q-49 -16 -69 -16t-19 16v141l-6 74q48 16 68 16t20 -18v-82q37 100 92 100q59 1 59 -65zM137 0v16h2740v-16h-2740zM137 1083v17h2740v-17h-2740zM2708 428l-168 -16q-39 0 -48 25
q-8 26 -9 113t-3 130l-59 -4v8q0 41 24 41h35l-6 61q49 16 69 16t19 -16v-59h96v-6q0 -43 -24 -43h-72v-184q0 -31 33 -31q23 0 79 11t93 11t83 -12t46 -39t-20 -41t-29 -14q-11 1 -61 25t-78 24zM565 657q59 0 60 -65v-35q29 100 92 100q57 1 57 -65v-100l6 -66
q-50 -16 -68 -16t-18 16v135q0 33 -14 33t-36 -36t-19 -62l4 -70q-49 -16 -68 -16t-18 16v135q1 33 -15 33t-35 -36t-20 -62l6 -70q-49 -16 -69 -16t-19 16v141l-6 74q49 16 69 16t19 -18v-82q33 100 92 100zM1452 655q34 1 58 -27t24 -77q0 -139 -178 -139v-82l6 -66
q-49 -16 -69 -16t-19 16v154l-51 -6v-6q0 -162 -140 -162q-43 0 -63 22t-21 47q0 74 144 109v86q-35 -98 -93 -98t-59 63v6q-39 -67 -103 -67t-65 61v207l-59 -4v8q0 41 24 41h35l-6 61q49 16 69 16t19 -16v-59h96v-6q0 -43 -24 -43h-72v-176q0 -33 27 -33q18 0 39 16
q20 16 20 37v51l-6 68q49 16 69 16t19 -18v-135q0 -31 14 -31t35 36q20 36 19 62l-4 70q49 16 67 16t19 -18v-203l51 6v125l-6 74q48 16 68 16t20 -18v-82q35 98 96 98z" />
    <glyph glyph-name="NULL" 
 />
    <glyph glyph-name="eight.tab" horiz-adv-x="1142" 
d="M459 1034q0 -139 149 -223l82 -47q178 115 178 293q0 86 -42 145q-42 60 -152 60t-163 -66q-52 -66 -52 -162zM281 280q0 -95 62 -162t189 -67t196 70t69 184q0 154 -156 240l-129 67q-111 -59 -171 -148t-60 -184zM531 -20q-449 0 -449 296q0 111 94 213t281 152
q-82 45 -143 131q-60 86 -60 193q0 166 129 265t303 99t270 -79q96 -80 96 -192t-84 -198q-85 -86 -225 -129l25 -12q250 -139 250 -338q0 -168 -137 -285q-138 -116 -350 -116z" />
    <glyph glyph-name="five.tab" horiz-adv-x="1142" 
d="M432 -20q-117 0 -223 28t-143 68q6 66 28 132t38 96q17 32 22 34h69q-8 -137 27 -238q92 -53 186 -53q154 0 245 88t91 260q0 264 -338 264q-113 0 -209 -20l-6 8l141 662h727l-53 -185h-612l-70 -313q119 10 166 10q215 0 351 -89t137 -271q0 -229 -158 -355t-416 -126z
" />
    <glyph glyph-name="four.tab" horiz-adv-x="1142" 
d="M784 1077l-573 -647h469l113 647h-9zM47 354v37l830 918h178l-156 -879h170l-10 -76h-172l-49 -278l149 -45l-6 -31h-537l5 31l167 45l50 278h-619z" />
    <glyph glyph-name="nine.tab" horiz-adv-x="1142" 
d="M545 584q73 0 147 47t119 123q10 88 10 164q0 342 -219 342q-125 0 -198 -114t-72 -298q0 -264 213 -264zM358 -20q-181 0 -271 107q-36 43 -36 58l35 31q90 -68 257 -68t282 139q115 138 163 361q-135 -119 -307 -119q-172 -1 -273 95t-102 256q0 223 144 356t354 133
q209 0 325 -121t115 -329q0 -393 -186 -647q-187 -252 -500 -252z" />
    <glyph glyph-name="one.tab" horiz-adv-x="1142" 
d="M487 1102q-80 0 -138 12t-77 25l-18 12l4 29q105 6 273 50q169 44 276 99l24 -22l-217 -1219l277 -57l-4 -31h-791l4 31l293 57l178 1014h-84z" />
    <glyph glyph-name="seven.tab" horiz-adv-x="1142" 
d="M162 0v49l819 1079h-627q-28 -51 -74 -103t-79 -79l-35 -26l-43 16q47 145 67 260l19 113h887v-168l-781 -1141h-153z" />
    <glyph glyph-name="six.tab" horiz-adv-x="1142" 
d="M596 725q-70 0 -144 -47t-122 -123q-8 -74 -8 -164q0 -342 219 -342q123 0 197 114t73 298q0 264 -215 264zM539 -20q-209 0 -325 120t-116 330q0 393 186 646t500 253q143 0 217 -55q73 -55 84 -90l9 -17l-39 -32q-90 65 -256 65t-282 -139t-163 -361q132 119 306 119
t275 -95t101 -255q0 -223 -144 -356t-353 -133z" />
    <glyph glyph-name="three.tab" horiz-adv-x="1142" 
d="M426 -20q-123 0 -237 32t-158 74q23 121 83 219q19 31 23 33h80q-18 -145 12 -238q80 -51 211 -51t219 91t89 268q0 127 -81 181t-223 73l35 67q242 20 302 149q26 54 26 132q0 166 -199 166q-96 0 -190 -46t-158 -112l-33 24q57 117 181 202t280 85q158 0 249 -76
t91 -196q0 -258 -305 -322v-4q106 -23 184 -97t78 -204q-1 -206 -157 -328t-402 -122z" />
    <glyph glyph-name="two.tab" horiz-adv-x="1142" 
d="M-6 0v78q116 70 279 198t217 178q179 165 240 259q101 154 100 256q-2 192 -214 192q-111 0 -214 -52t-179 -132l-37 27q68 125 200 225t309 100t273 -87t95 -245q0 -158 -123 -308q-45 -54 -78 -92q-34 -38 -98 -90t-117 -95t-211 -141q-158 -99 -170 -107v-6h525
q33 55 77 102q45 47 74 68l31 18l33 -18q-41 -119 -58 -215l-20 -113h-934z" />
    <glyph glyph-name="zero.tab" horiz-adv-x="1142" 
d="M498 47q271 0 344 570q16 132 16 285t-53 259q-53 107 -155 107t-176 -77q-73 -77 -113 -204q-78 -248 -78 -559q0 -381 215 -381zM492 -20q-203 0 -318 134t-115 371q0 375 169 609t417 235q207 0 322 -135t114 -377q-1 -369 -167 -603t-422 -234z" />
    </font>
</defs>
</svg>
