<?xml version="1.0" standalone="no"?>
<!DOCTYPE svg PUBLIC "-//W3C//DTD SVG 1.1//EN" "http://www.w3.org/Graphics/SVG/1.1/DTD/svg11.dtd" >
<svg xmlns="http://www.w3.org/2000/svg">
<metadata>
Created by FontPrep 20130207 at Mon Jun 27 20:40:32 2016
 By Devin Halladay
Copyright (c) 2011 by Eduardo Manso. All rights reserved.
</metadata>
<defs>
<font id="530be4bba5d774fefe6964bcff076449" horiz-adv-x='1024' >
  <font-face 
    font-family="PeriodicoDisplay-UltBlkIta"
    font-weight="950"
    font-style="italic"
    font-stretch="normal"
    units-per-em="2048"
    panose-1="2 0 5 4 8 0 0 2 0 4"
    ascent="1597"
    descent="-451"
    x-height="1096"
    cap-height="1391"
    bbox="-369 -403 2888 1939"
    underline-thickness="102"
    underline-position="-102"
    unicode-range="U+0009-FB02"
  />
<missing-glyph horiz-adv-x="1042" 
d="M102 0v133h838v-133h-838zM102 1257v134h838v-134h-838zM532 852l164 348h170l-252 -502l260 -510h-178l-164 351l-170 -351h-176l258 508l-258 504h176z" />
    <glyph glyph-name="fi" unicode="fi" horiz-adv-x="1660" 
d="M10 -362q-178 0 -297 59q2 66 22 125q19 59 40 88l18 27l178 -23q-39 -80 -49 -188q20 -10 43 -11q74 0 123 299l156 973h-131l8 51l137 29q65 259 289 353q200 83 493 83t426 -37q18 -4 54 -13t39 -9q-8 -78 -30 -146t-38 -96l-18 -28h-285q43 115 22 219
q-43 16 -134 16q-164 0 -233 -99t-85 -196l-8 -45h301q302 0 419 21l50 6h69l-159 -893q-10 -63 24 -64q26 0 58 34t53 69l18 34l43 -24q-4 -10 -11 -28t-40 -66q-33 -47 -74 -83t-115 -66t-161 -29q-172 0 -236 70q-63 71 -45 181l133 756h-342l-145 -919
q-68 -430 -580 -430z" />
    <glyph glyph-name="fl" unicode="fl" horiz-adv-x="1665" 
d="M1030 1417q-221 0 -272 -303l-8 -45h219l-15 -82h-219l-145 -919q-68 -430 -580 -430q-178 0 -297 59q2 66 22 125q19 59 40 88l18 27l178 -23q-39 -80 -49 -188q20 -10 43 -11q74 0 123 299l156 973h-131l8 51l137 29q65 259 274 353q184 83 474 83q182 0 335 -20
l250 20h70l-231 -1300q-10 -63 24 -64q26 0 58 34t53 69l18 34l43 -24q-4 -10 -11 -28t-40 -66q-33 -47 -74 -83t-115 -66t-161 -29q-172 0 -236 70q-63 71 -45 181l207 1176q-51 10 -121 10z" />
    <glyph glyph-name=".notdef" horiz-adv-x="1042" 
d="M102 0v133h838v-133h-838zM102 1257v134h838v-134h-838zM532 852l164 348h170l-252 -502l260 -510h-178l-164 351l-170 -351h-176l258 508l-258 504h176z" />
    <glyph glyph-name=".null" horiz-adv-x="0" 
 />
    <glyph glyph-name="nonmarkingreturn" horiz-adv-x="681" 
 />
    <glyph glyph-name="CR" unicode="&#xd;" horiz-adv-x="0" 
 />
    <glyph glyph-name="CR" horiz-adv-x="0" 
 />
    <glyph glyph-name="HT" unicode="&#x9;" horiz-adv-x="0" 
 />
    <glyph glyph-name="LF" unicode="&#xa;" horiz-adv-x="0" 
 />
    <glyph glyph-name="DLE" horiz-adv-x="0" 
 />
    <glyph glyph-name="DC1" horiz-adv-x="0" 
 />
    <glyph glyph-name="DC2" horiz-adv-x="0" 
 />
    <glyph glyph-name="DC3" horiz-adv-x="0" 
 />
    <glyph glyph-name="DC4" horiz-adv-x="0" 
 />
    <glyph glyph-name="RS" horiz-adv-x="0" 
 />
    <glyph glyph-name="US" horiz-adv-x="0" 
 />
    <glyph glyph-name="space" unicode=" " horiz-adv-x="378" 
 />
    <glyph glyph-name="exclam" unicode="!" horiz-adv-x="745" 
d="M302 418q118 0 180 -53t62 -147t-81 -166t-199 -72t-181 54t-63 147t82 165t200 72zM480 1411q99 0 172 -53t73 -152l-377 -725h-35l-120 725q31 100 109 153q79 52 178 52z" />
    <glyph glyph-name="quotedbl" unicode="&#x22;" horiz-adv-x="1013" 
d="M854 1411q92 0 148 -55t57 -148l-277 -391h-30l-134 391q14 90 79 146t157 57zM364 1411q92 0 148 -55t57 -148l-276 -391h-31l-133 391q14 90 79 146q64 56 156 57z" />
    <glyph glyph-name="numbersign" unicode="#" horiz-adv-x="1183" 
d="M508 645l-70 -211h209l70 211h-209zM164 645v119h194l105 311h188l-104 -311h209l104 311h189l-105 -311h158v-119h-197l-69 -211h184v-119h-223l-105 -315h-188l104 315h-209l-104 -315h-189l105 315h-129v119h168l69 211h-155z" />
    <glyph glyph-name="dollar" unicode="$" horiz-adv-x="1232" 
d="M571 1079q0 -51 46 -82q15 -10 45 -22l43 244q-134 -23 -134 -140zM743 285q0 70 -86 129l-55 -308q141 50 141 179zM35 406v36l67 27q6 -6 18 -15t41 -44q110 -128 130 -281q90 -41 182 -41h33l65 373l-157 84q-252 133 -252 350q0 147 85 249q155 186 476 185l22 125
h95l-23 -131q70 -6 198 -29t185 -28l-12 -74q-26 -144 -21 -223v-31l-53 -20q-18 12 -45 34t-82 98q-55 75 -74 152q-25 18 -114 23l-51 -293l65 -33q180 -90 268 -185t88 -233q1 -197 -161 -342t-428 -157l-21 -121h-94l20 121q-264 6 -487 102l14 82q23 145 23 240z" />
    <glyph glyph-name="percent" unicode="%" horiz-adv-x="1488" 
d="M1133 487q0 104 -41 105q-54 0 -85 -192q-17 -105 -17 -232t34 -127q59 0 90 182q19 106 19 264zM1397 381q0 -180 -108 -291q-108 -110 -258 -110t-228 70t-78 200q0 180 106 291t258 111t230 -70t78 -201zM324 0h-117l1003 1309h115zM541 1165q0 104 -41 105
q-54 0 -85 -192q-17 -105 -17 -232t34 -127q59 0 90 182q19 106 19 264zM805 1059q0 -180 -108 -291t-258 -111t-228 71t-78 200q1 180 107 291t258 111t229 -70q78 -70 78 -201z" />
    <glyph glyph-name="ampersand" unicode="&#x26;" horiz-adv-x="1601" 
d="M899 1323q-47 0 -75 -51t-27 -138q0 -87 55 -221q121 121 121 320q0 90 -74 90zM776 236q-167 196 -266 411q-76 -76 -76 -186q0 -109 74 -169t197 -61q47 0 71 5zM-2 336q0 327 475 397q-55 145 -55 247q0 267 228 376q115 55 249 55q209 1 305 -71t96 -187
q0 -199 -277 -294q-65 -22 -126 -30q39 -78 76 -133q82 -133 182 -250q135 135 252 355l53 -21q-72 -260 -209 -440q117 -113 179 -113t122 66l33 -21q-28 -153 -110 -220q-34 -28 -97 -50t-145 -22q-145 0 -283 98q-186 -98 -398 -98t-364 64q-86 36 -136 111t-50 181z" />
    <glyph glyph-name="quotesingle" unicode="'" horiz-adv-x="524" 
d="M364 1411q92 0 148 -55t57 -148l-276 -391h-31l-133 391q14 90 79 146q64 56 156 57z" />
    <glyph glyph-name="parenleft" unicode="(" horiz-adv-x="735" 
d="M430 254q0 -322 64 -516l-23 -21q-430 324 -430 747t317 712q165 148 418 278l21 -22q-367 -508 -367 -1178z" />
    <glyph glyph-name="parenright" unicode=")" horiz-adv-x="735" 
d="M694 698q0 -286 -150 -513q-174 -258 -585 -468l-20 23q367 508 366 1178q0 322 -63 516l22 20q430 -324 430 -756z" />
    <glyph glyph-name="asterisk" unicode="*" horiz-adv-x="860" 
d="M551 999q0 19 -15 35q-16 16 -36 16t-34 -14t-15 -36q1 -22 15 -36t36 -14t35 14q14 14 14 35zM242 592l-35 22l133 295l-260 72l10 47l279 64l-25 299l43 22l143 -227l228 227l30 -22l-131 -297l258 -66l-10 -47l-287 -74l33 -293l-39 -22l-147 223z" />
    <glyph glyph-name="plus" unicode="+" horiz-adv-x="1040" 
d="M82 518v174h352v340h174v-340h350v-174h-350v-362h-174v362h-352z" />
    <glyph glyph-name="comma" unicode="," horiz-adv-x="655" 
d="M4 183q0 114 74 190t178 76q104 1 171 -61t67 -171q0 -393 -578 -465l-10 27q135 90 172 235q-74 55 -74 169z" />
    <glyph glyph-name="hyphen" unicode="-" horiz-adv-x="626" 
d="M37 506v153h553v-153h-553z" />
    <glyph glyph-name="period" unicode="." horiz-adv-x="655" 
d="M235 -20q-98 0 -160 60q-63 60 -63 158t71 175q71 76 172 76q101 1 165 -63t63 -162q0 -98 -74 -171q-76 -73 -174 -73z" />
    <glyph glyph-name="slash" unicode="/" horiz-adv-x="552" 
d="M-193 -342l680 1825h170l-682 -1825h-168z" />
    <glyph glyph-name="zero" unicode="0" horiz-adv-x="1325" 
d="M567 72q63 0 121 139q57 139 91 360t34 441t-61 221q-92 0 -167 -299t-75 -651q0 -211 57 -211zM580 -20q-252 0 -393 136q-140 136 -140 382q0 362 204 596t494 235q253 0 393 -139q140 -138 140 -374t-84 -422t-246 -300t-368 -114z" />
    <glyph glyph-name="one" unicode="1" horiz-adv-x="905" 
d="M272 1053q-59 -1 -103 23t-58 46l-13 25l6 31q47 4 125 12t259 47t294 94l56 -31l-213 -1206l143 -59l-6 -35h-803l6 35l156 57l168 961h-17z" />
    <glyph glyph-name="two" unicode="2" horiz-adv-x="1138" 
d="M-72 0v94q348 302 486 486q63 84 114 185q52 101 52 173t-36 103q-36 32 -95 32q-145 0 -306 -131l-34 37q69 122 198 225q158 125 400 125q180 0 285 -95t106 -251q0 -94 -39 -176t-85 -134q-46 -51 -152 -115t-180 -98q-73 -34 -286 -128v-2h502q35 61 86 107t84 63
l33 14l26 -18q-53 -166 -92 -392l-18 -104h-1049z" />
    <glyph glyph-name="three" unicode="3" horiz-adv-x="1157" 
d="M317 74q109 0 173 88t65 230q0 142 -70 192q-70 51 -192 71l37 101q179 13 230 60q52 47 52 147q0 135 -160 135t-298 -99l-29 33q49 101 187 199t405 98q190 0 300 -83t109 -216q0 -102 -70 -170t-162 -94q-91 -26 -204 -31v-6q164 -6 274 -81t110 -218t-73 -235
q-73 -91 -187 -135q-209 -79 -427 -80q-287 0 -459 116q14 82 55 174t91 136h69q-13 -75 3 -170q15 -95 57 -152q51 -10 114 -10z" />
    <glyph glyph-name="four" unicode="4" 
d="M553 844l-393 -443h319l78 443h-4zM-31 305v53l854 951h328l-160 -908h139l-18 -96h-139l-39 -225l125 -45l-6 -35h-787l6 35l150 45l39 225h-492z" />
    <glyph glyph-name="five" unicode="5" horiz-adv-x="1183" 
d="M395 -20q-149 0 -267 34t-169 82q14 82 60 168t106 142h70q-20 -213 24 -316q43 -18 135 -18t153 65q60 66 60 184q0 119 -57 163q-56 44 -192 44t-193 -22l-16 20l176 783h878l-92 -348h-762l-37 -152q154 33 326 33q230 0 364 -98t134 -269q0 -251 -186 -373t-515 -122
z" />
    <glyph glyph-name="six" unicode="6" horiz-adv-x="1277" 
d="M649 713q-43 0 -84 -23q-43 -184 -43 -444q0 -172 68 -172q141 0 141 475q0 164 -82 164zM584 -20q-537 0 -537 495q0 383 218 619t587 235q251 0 353 -131q42 -53 42 -74l-47 -43q-68 72 -205 72q-291 0 -405 -369q112 52 262 52t253 -90t103 -259q0 -243 -182 -375
t-442 -132z" />
    <glyph glyph-name="seven" unicode="7" horiz-adv-x="1155" 
d="M72 0v70l829 891h-604q-41 -61 -93 -113t-85 -72l-31 -20l-37 20q55 182 92 387l27 146h1016v-164l-690 -1145h-424z" />
    <glyph glyph-name="eight" unicode="8" horiz-adv-x="1210" 
d="M547 1090q0 -70 84 -119l164 -97q86 76 86 216q0 68 -44 110t-122 41q-78 0 -123 -41q-45 -40 -45 -110zM291 262q0 -82 49 -136t149 -54t162 56q61 56 61 144t-85 136l-209 118q-127 -121 -127 -264zM143 893q1 115 53 202t139 136q178 100 391 99q214 -1 329 -76
t114 -187q0 -186 -262 -258q242 -156 242 -338q0 -311 -284 -427q-155 -64 -384 -64q-492 0 -491 278q0 111 88 204t239 130q-174 129 -174 301z" />
    <glyph glyph-name="nine" unicode="9" horiz-adv-x="1277" 
d="M547 760q1 -86 19 -125t62 -39t85 22q43 199 43 445q0 172 -68 172q-141 0 -141 -475zM426 -20q-254 0 -353 131q-42 53 -42 73l47 43q68 -72 205 -71q287 0 405 366q-108 -49 -260 -49t-255 90t-103 258q0 242 182 375t443 133t399 -124t137 -371q0 -382 -218 -618
t-587 -236z" />
    <glyph glyph-name="colon" unicode=":" horiz-adv-x="655" 
d="M362 627q-98 0 -160 60t-62 159q0 98 70 174q71 76 172 76q100 0 164 -64t64 -160q0 -97 -74 -172q-76 -73 -174 -73zM235 -20q-98 0 -160 60q-63 60 -63 158t71 175q71 76 172 76q101 1 165 -63t63 -162q0 -98 -74 -171q-76 -73 -174 -73z" />
    <glyph glyph-name="semicolon" unicode=";" horiz-adv-x="655" 
d="M362 627q-98 0 -160 60t-62 159q0 98 70 174q71 76 172 76q100 0 164 -64t64 -160q0 -97 -74 -172q-76 -73 -174 -73zM8 183q0 114 74 190t178 76q104 1 171 -61t67 -171q0 -377 -578 -465l-10 27q135 90 172 235q-74 55 -74 169z" />
    <glyph glyph-name="less" unicode="&#x3c;" horiz-adv-x="1040" 
d="M82 545v131l876 354v-190l-634 -230l634 -229v-191z" />
    <glyph glyph-name="equal" unicode="=" horiz-adv-x="1040" 
d="M82 395v174h876v-174h-876zM82 733v174h876v-174h-876z" />
    <glyph glyph-name="greater" unicode="&#x3e;" horiz-adv-x="1040" 
d="M958 676v-131l-876 -355v191l635 229l-635 230v190z" />
    <glyph glyph-name="question" unicode="?" horiz-adv-x="1030" 
d="M388 418q118 0 180 -53t62 -147t-81 -166t-199 -72t-181 54t-63 147t82 165t200 72zM670 1411q176 0 286 -88t111 -242q0 -100 -46 -184t-125 -140q-152 -108 -357 -151l-105 -125h-86l-86 369q41 10 55 13q15 3 61 19t68 29q87 54 115 101q47 81 47 178q0 121 -116 121
q-27 0 -72 -8q-45 -100 -39 -209v-35l-211 -33q-48 143 -14 256q203 129 514 129z" />
    <glyph glyph-name="at" unicode="@" horiz-adv-x="1902" 
d="M862 326q41 0 77 84t54 194l51 303q-18 47 -49 47q-63 0 -115 -138t-53 -359q0 -131 35 -131zM1386 268q86 0 153 120t67 354t-151 402q-151 169 -425 169q-326 -1 -530 -231t-203 -574q0 -344 210 -505q181 -140 431 -140q251 0 432 53l14 -63q-203 -90 -448 -91
q-358 0 -594 164q-82 57 -139 131t-94 188t-37 251q0 399 266 657t692 258q194 0 350 -55q286 -101 400 -368q51 -122 51 -268t-52 -268q-51 -122 -137 -188q-170 -131 -366 -131q-272 0 -301 172l-4 23l-8 2q-100 -203 -285 -203q-106 0 -188 79q-81 79 -80 253
q0 264 144 427t374 163q178 0 297 -74l192 57h56l-107 -606q-29 -158 20 -158z" />
    <glyph glyph-name="A" unicode="A" horiz-adv-x="1425" 
d="M561 848h-6l-215 -397h295zM-141 0l6 33l125 45l733 1313l227 20l273 -1333l102 -45l-6 -33h-750l6 33l130 43l-54 286h-358l-154 -286l111 -43l-6 -33h-385z" />
    <glyph glyph-name="B" unicode="B" horiz-adv-x="1533" 
d="M795 1298h-4l-93 -518h4q131 0 203 86t72 236q0 196 -182 196zM745 688h-63l-104 -596h59q141 0 214 102t73 279q0 100 -45 158q-46 57 -134 57zM977 1391q516 -1 516 -307q0 -158 -102 -240t-310 -105v-4q354 -41 355 -313q0 -218 -169 -320t-454 -102h-895l6 35l139 45
l218 1231l-123 45l6 35h813z" />
    <glyph glyph-name="C" unicode="C" horiz-adv-x="1300" 
d="M594 614q0 -360 295 -360q150 0 317 156l29 -23q-90 -201 -249 -305t-353 -105q-264 0 -423 161t-159 429t120 464t311 288t427 92q101 -1 233 -23t158 -22l-16 -100q-22 -150 -22 -240l-2 -35l-43 -12q-16 12 -43 36q-27 23 -81 105t-75 176q-27 8 -66 9
q-158 1 -258 -191t-100 -500z" />
    <glyph glyph-name="D" unicode="D" horiz-adv-x="1595" 
d="M821 1296h-30l-213 -1202h55q100 0 175 70t114 164q38 94 68 248t30 327q0 174 -51 284q-52 109 -148 109zM942 1391q286 0 444 -150t158 -416q0 -375 -229 -600t-586 -225h-811l6 35l139 45l218 1231l-123 45l6 35h778z" />
    <glyph glyph-name="E" unicode="E" horiz-adv-x="1361" 
d="M1032 477l-51 158l-305 14l-98 -555h333q70 111 150 200t125 122l45 33l29 -17q-49 -182 -78 -338l-17 -94h-1247l6 35l139 45l218 1231l-123 45l6 35h1206l-16 -95q-27 -155 -37 -288l-4 -50l-33 -8q-14 10 -38 34t-77 113t-82 199h-292l-101 -565l307 14l105 158h41
l-76 -426h-35z" />
    <glyph glyph-name="F" unicode="F" horiz-adv-x="1308" 
d="M1001 422l-47 178l-305 14l-94 -534l139 -45l-6 -35h-790l6 35l139 45l217 1231l-123 45l6 35h1207l-17 -95q-20 -119 -37 -288l-4 -50l-35 -10q-40 29 -100 133q-61 105 -94 215h-293l-106 -600l307 15l108 178h41l-84 -467h-35z" />
    <glyph glyph-name="G" unicode="G" horiz-adv-x="1447" 
d="M741 86q20 0 31 2l84 473l-78 43l6 31h598l-6 -29l-76 -45l-77 -452l57 -21l-6 -27q-233 -84 -532 -84t-486 132q-205 145 -205 479q0 178 73 341q136 304 478 426q160 56 340 56q98 -1 249 -23t195 -22l-28 -162q-12 -74 -15 -178v-35l-45 -16q-6 4 -17 11t-58 49
t-81 118q-34 75 -44 139q-45 16 -99 17q-102 -1 -181 -61t-125 -150q-120 -235 -124 -635q0 -173 44 -275t128 -102z" />
    <glyph glyph-name="H" unicode="H" horiz-adv-x="1708" 
d="M774 0l6 35l135 45l107 610h-340l-107 -610l121 -45l-6 -35h-772l6 35l139 45l218 1231l-123 45l6 35h772l-6 -35l-137 -45l-95 -529h340l95 529l-119 45l6 35h770l-6 -35l-137 -45l-217 -1231l120 -45l-6 -35h-770z" />
    <glyph glyph-name="I" unicode="I" horiz-adv-x="854" 
d="M-82 0l6 35l139 45l218 1231l-123 45l6 35h772l-6 -35l-137 -45l-218 -1231l121 -45l-6 -35h-772z" />
    <glyph glyph-name="J" unicode="J" horiz-adv-x="856" 
d="M-117 -362q-170 0 -252 22q0 125 97 285h213q-20 -119 2 -199q41 8 80 45l268 1520l-131 45l6 35h772l-6 -35l-129 -45l-254 -1438q-293 -235 -666 -235z" />
    <glyph glyph-name="K" unicode="K" horiz-adv-x="1552" 
d="M893 0q-68 51 -98 207l-84 448h-35l-101 -575l107 -45l-6 -35h-758l6 35l139 45l218 1231l-123 45l6 35h772l-6 -35l-137 -45l-97 -547h27l553 555l-96 39l6 33h387l-6 -33l-127 -45l-330 -332l195 -668q27 -91 63 -161t62 -95l22 -22l-6 -35h-553z" />
    <glyph glyph-name="L" unicode="L" horiz-adv-x="1292" 
d="M-82 0l6 35l139 45l218 1231l-123 45l6 35h772l-6 -35l-137 -45l-215 -1217h292q70 111 151 199t126 121l47 32l27 -14q-49 -182 -78 -338l-17 -94h-1208z" />
    <glyph glyph-name="M" unicode="M" horiz-adv-x="1798" 
d="M516 66l-133 628l-35 203h-6l-143 -821l116 -43l-6 -33h-391l6 33l135 43l217 1239l-118 43l6 33h598l133 -707h8l367 707h610l-6 -33l-131 -43l-217 -1239l114 -43l-6 -33h-753l6 33l133 43l143 821h-6q-35 -98 -74 -172l-350 -659h-217z" />
    <glyph glyph-name="N" unicode="N" horiz-adv-x="1421" 
d="M877 0l-519 991l-159 -915l116 -43l-6 -33h-391l6 33l135 43l217 1239l-118 43l6 33h569l381 -742l119 666l-115 43l6 33h389l-6 -33l-133 -43l-231 -1315h-266z" />
    <glyph glyph-name="O" unicode="O" horiz-adv-x="1560" 
d="M696 74q125 0 216 218t92 654q0 174 -31 272t-117 97q-117 0 -207 -237q-90 -236 -90 -620t137 -384zM741 -20q-334 0 -512 162t-178 448q0 371 220 596t551 225t509 -162t178 -442q0 -221 -89 -407t-267 -304q-179 -116 -412 -116z" />
    <glyph glyph-name="P" unicode="P" horiz-adv-x="1531" 
d="M748 553q112 0 178 143t65 336q0 264 -151 264h-49l-216 -1216l146 -45l-6 -35h-797l6 35l139 45l218 1231l-123 45l6 35h776q272 -1 422 -107t150 -315t-126 -329q-172 -169 -482 -169q-110 0 -183 37l8 45h19z" />
    <glyph glyph-name="Q" unicode="Q" horiz-adv-x="1560" 
d="M696 74q125 0 216 218t92 654q0 174 -31 272t-117 97q-117 0 -207 -237q-90 -236 -90 -620t137 -384zM51 590q0 371 220 596t551 225t509 -162t178 -436t-134 -490t-369 -300v-9l45 -80q35 -63 105 -133t149 -90l-7 -33h-563q-90 45 -157 164l-99 168q-211 57 -319 208
t-109 372z" />
    <glyph glyph-name="R" unicode="R" horiz-adv-x="1550" 
d="M797 1296h-17l-112 -632h102q225 111 225 389q1 243 -198 243zM950 1391q559 0 559 -373q0 -295 -303 -385v-8l68 -269q32 -120 68 -200t59 -101l20 -20l-6 -35h-524q-33 24 -65 98t-48 183l-45 294h-82l-86 -495l107 -45l-6 -35h-748l6 35l139 45l218 1231l-123 45l6 35
h786z" />
    <glyph glyph-name="S" unicode="S" 
d="M755 1307q-91 0 -143 -44t-51 -125q0 -81 86 -122l160 -76q340 -160 340 -434q0 -213 -171 -370q-171 -156 -465 -156t-536 104l15 82q22 139 22 240v36l70 29q6 -6 17 -16q86 -78 139 -209q23 -57 30 -117q90 -41 196 -41t174 62t67 170q0 106 -101 157l-215 109
q-113 57 -185 152q-72 96 -73 234q0 138 89 246q159 193 499 193q96 0 266 -30t209 -33l-12 -74q-23 -126 -23 -223l2 -31l-49 -27q-17 12 -55 46q-123 113 -150 245q-61 23 -152 23z" />
    <glyph glyph-name="T" unicode="T" horiz-adv-x="1337" 
d="M1364 993q-48 36 -111 128t-90 175h-131l-215 -1216l119 -45l-6 -35h-770l6 35l139 45l215 1216h-127q-55 -84 -133 -160t-127 -108l-49 -35l-37 15q47 137 78 317l12 66h1313l-12 -66q-29 -166 -35 -278l-2 -39z" />
    <glyph glyph-name="U" unicode="U" horiz-adv-x="1484" 
d="M692 -20q-221 0 -387 80t-219 214l182 1037l-123 45l7 35h774l-6 -35l-138 -45l-157 -893q-55 -309 215 -309q128 1 198 79t101 244l155 879l-118 45l6 35h395l-6 -35l-135 -45l-187 -1053q-80 -134 -208 -206t-349 -72z" />
    <glyph glyph-name="V" unicode="V" horiz-adv-x="1400" 
d="M719 -20h-232l-288 1333l-103 45l6 33h783l-6 -33l-131 -43l139 -705h8l356 705l-106 43l6 33h387l-6 -33l-123 -45z" />
    <glyph glyph-name="W" unicode="W" horiz-adv-x="2074" 
d="M674 -20h-238l-237 1333l-103 45l6 33h760l-6 -33l-129 -43l86 -674h10l236 545l-19 112l144 93h379l73 -750h13l280 674l-110 43l6 33h387l-6 -33l-123 -45l-574 -1333h-237l-168 956z" />
    <glyph glyph-name="X" unicode="X" horiz-adv-x="1454" 
d="M-145 0l6 33l116 45l515 528l-293 711l-88 41l6 33h749l-6 -33l-110 -33l143 -354l352 350l-96 39l6 31h389l-6 -33l-119 -45l-475 -465l318 -778l96 -37l-6 -33h-760l6 33l115 37l-168 407l-383 -405l86 -39l-6 -33h-387z" />
    <glyph glyph-name="Y" unicode="Y" horiz-adv-x="1404" 
d="M199 0l6 35l137 45l96 545l-237 688l-105 45l6 33h777l-7 -33l-129 -43l154 -522h10l350 522l-110 43l6 33h389l-6 -33l-121 -45l-461 -676l-98 -557l119 -45l-6 -35h-770z" />
    <glyph glyph-name="Z" unicode="Z" horiz-adv-x="1296" 
d="M182 1012l-32 16q39 123 67 283l14 80h1106l-12 -66l-756 -1231h332q41 76 107 151t110 111l47 37l43 -22q-39 -121 -67 -281l-17 -90h-1185l8 43l786 1253h-278q-37 -76 -105 -148t-117 -104z" />
    <glyph glyph-name="bracketleft" unicode="[" horiz-adv-x="786" 
d="M-10 -254l307 1737h582l-15 -82h-198l-279 -1575h199l-15 -80h-581z" />
    <glyph glyph-name="backslash" unicode="\" horiz-adv-x="808" 
d="M573 -342l-415 1825h159l414 -1825h-158z" />
    <glyph glyph-name="bracketright" unicode="]" horiz-adv-x="786" 
d="M797 1483l-308 -1737h-581l14 82h199l278 1575h-198l14 80h582z" />
    <glyph glyph-name="asciicircum" unicode="^" horiz-adv-x="933" 
d="M852 750h-188l-197 473l-197 -473h-188l287 641h196z" />
    <glyph glyph-name="underscore" unicode="_" horiz-adv-x="1019" 
d="M-143 -342v137h1032v-137h-1032z" />
    <glyph glyph-name="grave" unicode="`" horiz-adv-x="739" 
d="M332 1604h102l318 -414l-23 -33l-536 186z" />
    <glyph glyph-name="a" unicode="a" horiz-adv-x="1406" 
d="M584 190q49 0 91 102t66 240l70 406q-20 57 -57 57q-80 0 -146 -179t-65 -462q0 -164 41 -164zM367 -20q-120 0 -215 83q-49 43 -80 125t-31 193q0 317 175 516t454 199q217 0 358 -88l232 67h69l-155 -872q-12 -63 24 -64q26 0 58 34t51 69l20 34l43 -24q-4 -10 -11 -28
t-39 -66q-32 -47 -73 -83t-115 -66q-74 -29 -176 -29t-179 61t-56 182l-10 2q-123 -245 -344 -245z" />
    <glyph glyph-name="b" unicode="b" horiz-adv-x="1380" 
d="M623 80q86 0 150 167q65 167 65 472q0 166 -45 166q-51 -1 -94 -103t-68 -239l-72 -400q20 -63 64 -63zM702 -20q-193 0 -327 69l-305 -72l-31 23l246 1372l-111 23l6 41l543 67h74l-74 -428q-16 -93 -57 -190l-15 -33l11 -2q123 246 344 246q131 0 232 -96t101 -306
q0 -326 -176 -520t-461 -194z" />
    <glyph glyph-name="c" unicode="c" horiz-adv-x="1069" 
d="M774 997q-96 0 -166 -129t-69 -346q0 -133 42 -207q43 -73 159 -73t243 116l31 -28q-168 -350 -496 -350q-213 0 -345 122t-132 329q0 208 103 363q103 154 258 228q156 74 300 74t231 -31t116 -61l30 -31q-12 -70 -39 -142t-49 -106l-20 -37l-203 37q47 137 55 266
q-20 6 -49 6z" />
    <glyph glyph-name="d" unicode="d" horiz-adv-x="1417" 
d="M592 190q49 0 92 102t68 240l69 404q-20 59 -61 59q-82 0 -150 -179t-67 -462q0 -164 49 -164zM377 -20q-123 0 -221 83q-51 43 -83 125t-32 193q0 317 178 516t461 199q90 0 168 -17l51 293l-113 23l9 41l551 67h69l-231 -1300q-12 -63 24 -64q25 0 58 34t53 69l18 34
l43 -24q-4 -10 -11 -28t-40 -66q-33 -47 -74 -83t-115 -66q-74 -29 -176 -29t-178 60t-55 183l-10 2q-123 -245 -344 -245z" />
    <glyph glyph-name="e" unicode="e" horiz-adv-x="1148" 
d="M686 1012q-59 0 -100 -144t-47 -338q71 25 115 85q44 61 58 135t15 168q0 94 -41 94zM518 -20q-223 0 -350 116t-127 330q0 301 193 485q194 184 452 185q205 0 319 -85t113 -218q0 -295 -579 -342q4 -94 52 -159t152 -65q154 0 281 103l27 -25q-189 -325 -533 -325z" />
    <glyph glyph-name="f" unicode="f" horiz-adv-x="874" 
d="M899 1425q-94 0 -143 -299l-11 -57h230l-14 -82h-228l-143 -919q-68 -430 -580 -430q-178 0 -297 59q2 66 22 125q19 59 40 88l18 27l178 -23q-39 -80 -49 -188q20 -10 43 -11q74 0 123 299l152 973h-134l9 51l137 29l2 6q68 430 600 430q178 0 297 -59q-1 -72 -21 -136
t-40 -96l-19 -28l-178 22q39 86 49 207q-25 12 -43 12z" />
    <glyph glyph-name="g" unicode="g" 
d="M229 -150q0 -133 267 -133q133 0 191 34t71 97l6 33q-20 27 -92 33l-373 25h-12q-10 2 -13 2q-45 -35 -45 -91zM598 500q67 0 105 168q22 92 22 226t-57 134q-64 0 -96 -135t-32 -264t58 -129zM580 430q-37 0 -66 -14t-29 -39q0 -33 45 -35l285 -18q133 -8 221 -52
t121 -84l-35 -219q-26 -164 -204 -248q-178 -83 -454 -83t-408 50t-132 130q0 53 67 94t167 63q-139 70 -140 209q0 238 365 271q-119 33 -187 103t-67 167q0 176 155 273t398 98q152 0 262 -41q161 4 273 47l36 14l-8 -174q-111 -8 -178 12l-2 -6q27 -18 49 -70t21 -102
q-1 -164 -157 -255t-398 -91z" />
    <glyph glyph-name="h" unicode="h" horiz-adv-x="1458" 
d="M1026 -20q-172 0 -235 70t-46 181l103 586q12 74 -23 74q-63 -1 -115 -107t-81 -262l-94 -522h-494l242 1372l-113 23l8 41l557 67h64l-78 -444q-14 -85 -53 -178l-15 -29l11 -2q68 118 156 182t236 64q150 0 225 -94t50 -232l-100 -567q-10 -63 24 -64q25 0 58 34t51 69
l20 34l43 -24q-4 -10 -11 -28t-40 -66q-34 -47 -74 -83q-40 -35 -114 -65t-162 -30z" />
    <glyph glyph-name="i" unicode="i" horiz-adv-x="837" 
d="M504 1145q-246 0 -246 168q0 90 74 148q74 59 202 59t190 -45t62 -130t-71 -143q-72 -57 -211 -57zM401 -20q-173 0 -237 70t-43 181l117 641q10 63 -25 64q-25 0 -57 -34t-54 -68l-18 -35l-43 24q4 11 11 29t40 66t74 82q41 36 115 66t161 30q172 0 237 -71t44 -181
l-117 -641q-10 -63 25 -64q25 0 57 34t53 69l19 34l43 -24q-4 -10 -11 -28t-40 -66q-33 -47 -74 -83q-41 -35 -115 -65t-162 -30z" />
    <glyph glyph-name="j" unicode="j" horiz-adv-x="823" 
d="M516 1145q-246 0 -246 168q0 90 74 148q74 59 202 59t190 -45t62 -130t-71 -143q-72 -58 -211 -57zM-34 -362q-166 0 -275 24q2 76 21 146t38 102l21 31l211 -25q-23 -76 -25 -184q66 16 100 49l193 1091q10 63 -25 64q-25 0 -57 -34t-53 -68l-19 -35l-43 24
q42 105 125 177q41 36 115 66t162 30q172 0 235 -71t45 -181l-174 -983q-104 -95 -267 -159q-162 -64 -328 -64z" />
    <glyph glyph-name="k" unicode="k" horiz-adv-x="1396" 
d="M1233 1096q84 0 137 -15q-23 -159 -63 -245l-15 -29h-149q20 102 20 156q-35 -4 -78 -31q-109 -66 -227 -242q217 -16 268 -207l56 -207q29 -111 71 -110q29 0 60 26t47 52l16 26l41 -24q-6 -32 -41 -86q-34 -53 -74 -88t-113 -64t-161 -28q-170 0 -245 63t-91 201
l-26 217q-10 80 -31 112l-100 -573h-494l244 1372l-113 23l8 41l551 67h70l-148 -829l49 12q231 410 531 410z" />
    <glyph glyph-name="l" unicode="l" horiz-adv-x="794" 
d="M354 -20q-172 0 -235 70t-45 181l200 1141l-112 23l8 41l551 67h70l-232 -1300q-10 -63 25 -64q26 0 58 34t50 69l21 34l43 -24q-41 -104 -125 -177q-41 -35 -115 -65t-162 -30z" />
    <glyph glyph-name="m" unicode="m" horiz-adv-x="2146" 
d="M461 1096q150 0 204 -74t35 -170l11 -2q137 246 364 246q133 0 205 -68t76 -178h6q137 246 364 246q168 0 243 -94t50 -232l-100 -567q-10 -63 25 -64q26 0 58 34t50 69l21 34l43 -24q-40 -101 -125 -177q-41 -36 -115 -66t-162 -29q-172 0 -235 70t-45 181l102 586
q12 74 -23 74q-61 -1 -110 -107t-76 -262l-94 -522h-494l146 817q12 74 -23 74q-61 -1 -110 -107t-76 -262l-94 -522h-494l156 872q10 63 -27 64q-27 0 -59 -34t-54 -66l-20 -33l-39 20q4 11 11 29t40 66t75 82q42 36 120 66t170 30z" />
    <glyph glyph-name="n" unicode="n" horiz-adv-x="1505" 
d="M1073 -20q-172 0 -235 70t-45 181l102 586q12 74 -23 74q-63 -1 -115 -107t-81 -262l-94 -522h-494l156 872q10 63 -27 64q-27 0 -59 -34t-54 -66l-20 -33l-39 20q4 11 11 29t40 66t75 82q42 36 120 66t170 30q150 0 204 -74t35 -170l11 -2q67 118 155 182t238 64
t224 -94q75 -94 50 -232l-100 -567q-10 -63 25 -64q25 0 57 34t53 69l19 34l43 -24q-40 -101 -125 -177q-41 -35 -115 -65t-162 -30z" />
    <glyph glyph-name="o" unicode="o" horiz-adv-x="1325" 
d="M604 70q141 0 175 522q7 106 7 201q0 211 -68 211t-112 -151q-67 -235 -67 -577q-1 -206 65 -206zM1284 618q0 -282 -181 -460t-457 -178t-441 110q-164 110 -164 348q0 295 179 476q178 182 464 182t443 -126t157 -352z" />
    <glyph glyph-name="p" unicode="p" horiz-adv-x="1427" 
d="M668 80q82 0 149 179q68 179 68 462q0 164 -49 164q-49 -1 -92 -103t-68 -239l-72 -404q23 -59 64 -59zM472 1096q104 0 174 -60t50 -184l11 -2q123 246 344 246q119 0 221 -84q51 -43 83 -125t31 -193q0 -317 -178 -516t-460 -198q-90 0 -168 16l-45 -258
q147 -45 149 -45l-6 -35h-782l6 35l141 45l201 1134q12 63 -25 64q-25 0 -57 -34t-51 -68l-21 -35l-43 24q4 11 11 29t39 66t74 82q42 36 120 66q77 30 181 30z" />
    <glyph glyph-name="q" unicode="q" horiz-adv-x="1382" 
d="M588 190q51 0 94 102t68 240l71 400q-25 63 -63 63q-86 0 -151 -167t-64 -472q0 -166 45 -166zM41 381q0 327 176 521t461 194q193 0 326 -70l307 72l30 -23l-239 -1337l127 -45l-6 -35h-783l6 35l164 45l47 262q17 100 58 190l14 33l-10 2q-123 -246 -344 -245
q-131 0 -233 95q-101 95 -101 306z" />
    <glyph glyph-name="r" unicode="r" horiz-adv-x="1148" 
d="M461 1096q145 0 199 -89t32 -196l10 -2q137 287 373 287q61 0 105 -19q-12 -115 -48 -221t-67 -156l-29 -51h-217q12 104 -10 201q-88 -74 -141 -369l-86 -481h-494l156 872q10 63 -27 64q-27 0 -59 -34t-54 -66l-20 -33l-39 20q4 11 11 29t40 66t75 82q42 36 120 66
t170 30z" />
    <glyph glyph-name="s" unicode="s" horiz-adv-x="1101" 
d="M657 1008q-141 0 -141 -105q0 -51 68 -82l239 -102q211 -88 211 -290t-163 -326q-163 -123 -401 -123t-466 92q2 68 24 134t42 97l22 31l195 -27q-27 -90 -27 -186q76 -51 164 -51q219 0 219 143q0 66 -96 109l-225 100q-88 39 -150 116q-61 77 -61 189q0 164 143 266
t362 103q100 0 252 -18t211 -19q-1 -69 -23 -133t-42 -95l-21 -32l-198 20q20 70 24 154q-84 35 -162 35z" />
    <glyph glyph-name="t" unicode="t" horiz-adv-x="876" 
d="M658 100q60 0 147 56l24 -43q-88 -72 -174 -103t-215 -30q-227 0 -354 131l154 884h-129l8 52l155 28l410 260h107l-48 -260h164l-14 -80h-164l-151 -864q20 -31 80 -31z" />
    <glyph glyph-name="u" unicode="u" horiz-adv-x="1492" 
d="M432 1096q172 0 236 -71t45 -181l-117 -645q12 -12 35 -13q63 0 114 106t80 261l95 522h493l-156 -872q-10 -63 27 -64q28 0 60 33t53 66l20 34l39 -20q-15 -38 -54 -89q-38 -52 -81 -88t-118 -66t-163 -29q-150 0 -204 74t-35 169l-10 2q-142 -245 -342 -245t-273 79
q-49 55 -72 136l123 677q10 63 -24 64q-23 0 -49 -34t-43 -68l-17 -35l-43 24q6 31 40 86t72 91q37 36 109 66t160 30z" />
    <glyph glyph-name="v" unicode="v" horiz-adv-x="1243" 
d="M219 956q-33 0 -72 -38t-63 -76l-25 -39l-39 20q43 108 124 177q42 36 121 66t173 30q172 0 238 -72t47 -180l-94 -545q-25 -141 80 -141q135 0 260 346q80 221 94 385q-72 30 -172 49l-31 4l94 154q166 -10 269 -86q-33 -373 -184 -695q-77 -162 -200 -248
q-123 -87 -327 -87q-203 0 -300 98t-71 248l101 567q10 63 -23 63z" />
    <glyph glyph-name="w" unicode="w" horiz-adv-x="2004" 
d="M1491 158q117 0 240 346q78 209 94 385q-72 30 -172 49l-31 4l94 154q166 -10 269 -86q-25 -270 -124 -551t-235 -381q-137 -100 -338 -98q-154 0 -248 61t-116 164h-6q-133 -225 -412 -225q-197 0 -294 98t-71 248l101 567q10 63 -23 63t-72 -38t-63 -76l-25 -39l-39 20
q43 108 124 177q42 36 121 66t173 30q172 0 238 -72t47 -180l-94 -545q-25 -141 80 -141q53 0 102 66t104 230q55 163 91 398l24 162l115 61h385l-119 -776q-20 -141 80 -141z" />
    <glyph glyph-name="x" unicode="x" horiz-adv-x="1236" 
d="M193 864q-29 0 -45 -68t-19 -126l-47 -6q-37 176 76 304t303 128t266 -166l53 -117q180 231 357 283q74 -10 143 -95l-104 -161q-35 57 -91 82q-117 -57 -254 -222l205 -440q25 -47 45 -47q29 0 44 67t18 126l47 6q24 -176 -70 -304t-297 -128t-280 170l-82 178
q-190 -280 -389 -348q-96 14 -156 94l102 164q45 -72 101 -93q133 76 284 308l-167 364q-23 47 -43 47z" />
    <glyph glyph-name="y" unicode="y" 
d="M431 1096q121 0 185 -48t93 -141l143 -483h8q156 274 213 457q-70 32 -168 41l-35 4l105 170q18 0 48 -1q31 -1 101 -25t115 -69q-13 -129 -115 -356t-245 -452q-267 -418 -480 -555q-61 0 -142 26t-130 49l-51 27l133 174q90 -74 186 -104q49 39 125 120l-319 893
q-18 53 -37 54q-24 1 -46 -49t-30 -99l-8 -49l-49 4q0 167 77 278q91 134 323 134z" />
    <glyph glyph-name="z" unicode="z" horiz-adv-x="1138" 
d="M854 975q48 0 76 26l74 74h172v-24l-711 -711q63 33 138 33q75 -1 155 -21t100 -20q61 0 88 30t39 109l8 57h41q68 -139 68 -281q0 -141 -70 -227t-231 -86q-96 0 -290 76t-263 76q-33 0 -84 -51l-35 -35h-164v27l686 690q-59 -27 -115 -27t-124 14q-66 14 -90 15
q-98 0 -123 -115l-13 -61h-41q-68 127 -67 280q0 272 260 273q90 0 279 -60t237 -61z" />
    <glyph glyph-name="braceleft" unicode="{" horiz-adv-x="845" 
d="M467 -272q-233 0 -325 78q-91 79 -50 262l72 313q28 127 10 165t-111 48l9 43q94 8 126 47t48 166l39 313q20 176 132 258t320 82q51 0 158 -8l-10 -51q-71 0 -98 -36q-28 -36 -37 -124l-39 -305q-25 -193 -100 -261t-255 -97v-11q129 -22 177 -55q47 -33 60 -70
q28 -80 -9 -233l-72 -305q-33 -139 31 -156q29 -4 51 -4l-10 -51q-74 -8 -117 -8z" />
    <glyph glyph-name="bar" unicode="|" horiz-adv-x="434" 
d="M307 -342h-180v1825h180v-1825z" />
    <glyph glyph-name="braceright" unicode="}" horiz-adv-x="845" 
d="M379 1503q233 0 324 -79t51 -261l-72 -313q-28 -127 -10 -165t110 -48l-8 -43q-94 -8 -126 -47t-48 -166l-39 -313q-20 -176 -132 -258t-320 -82q-51 0 -158 8l10 51q71 0 98 36t37 124l39 305q25 194 99 262t255 96v11q-128 22 -175 55q-48 34 -61 70q-28 80 9 233
l72 305q33 139 -31 156q-29 4 -51 4l10 51q74 8 117 8z" />
    <glyph glyph-name="asciitilde" unicode="~" horiz-adv-x="1255" 
d="M900 459q-83 1 -229 69t-216 68q-137 0 -258 -141l-115 125q62 96 162 154t210 58t262 -69q153 -70 193 -70q88 0 158 90l107 -125q-43 -72 -117 -116t-157 -43z" />
    <glyph glyph-name="DEL" horiz-adv-x="0" 
 />
    <glyph glyph-name="uni00A0" unicode="&#xa0;" horiz-adv-x="378" 
 />
    <glyph glyph-name="exclamdown" unicode="&#xa1;" horiz-adv-x="745" 
d="M436 1096q118 0 179 -54q63 -54 63 -148q0 -93 -82 -165t-200 -72q-118 -1 -180 53t-62 147t82 166t200 73zM218 -336q-99 0 -172 53t-73 152l377 725h35l121 -725q-31 -101 -110 -153t-178 -52z" />
    <glyph glyph-name="cent" unicode="&#xa2;" horiz-adv-x="1140" 
d="M528 635q0 -160 72 -223l117 661q-85 -49 -137 -163t-52 -275zM844 1108q-20 0 -27 -2l-131 -741q47 -12 111 -13q121 0 247 117l31 -29q-152 -315 -436 -348l-21 -112h-94l19 110q-217 10 -349 131t-132 321t98 350q100 150 252 224q152 76 327 88l23 125h94l-22 -125
q100 -6 177 -36t103 -58l27 -27q-10 -69 -32 -141t-40 -106l-16 -37l-203 37q29 137 35 266q-21 6 -41 6z" />
    <glyph glyph-name="sterling" unicode="&#xa3;" horiz-adv-x="1263" 
d="M923 1221q-77 0 -119 -65t-71 -224l-37 -217h219l-18 -97h-219l-29 -159q-45 -246 -215 -365h406q70 111 148 199q79 88 122 121l43 32l35 -14q-49 -182 -78 -338l-16 -94h-1155l6 35l139 41q20 59 53 246l51 296h-120l18 97h121l20 125q46 277 228 384q181 107 403 105
q88 0 245 -19t191 -22l-20 -114q-13 -83 -8 -179v-34l-43 -19q-47 27 -98 99q-50 71 -66 141q-59 39 -136 39z" />
    <glyph glyph-name="yen" unicode="&#xa5;" horiz-adv-x="1439" 
d="M207 666l18 96h191l-170 469l-105 45l6 33h793l-6 -33l-129 -43l139 -469h14l320 469l-113 43l6 33h375l-6 -33l-121 -45l-329 -469h198l-18 -96h-248l-33 -48l-18 -98h274l-18 -96h-273l-59 -344l119 -45l-6 -35h-770l6 35l135 45l59 344h-274l18 96h273l16 88l-20 58
h-244z" />
    <glyph glyph-name="brokenbar" unicode="&#xa6;" horiz-adv-x="501" 
d="M338 758h-174v725h174v-725zM338 -252h-174v725h174v-725z" />
    <glyph glyph-name="section" unicode="&#xa7;" horiz-adv-x="1220" 
d="M741 442q0 80 -96 127l-196 101q-12 -31 -13 -64q0 -80 96 -127l197 -100q12 31 12 63zM1151 644q0 -126 -86 -214t-217 -125q147 -111 147 -266q1 -199 -161 -300t-390 -101q-114 0 -264 30t-186 33l12 74q23 126 23 223l-2 31l49 26q108 -72 169 -192q26 -49 34 -99
q59 -22 144 -22t130 32t45 89t-70 92l-159 76q-178 86 -260 167q-82 80 -82 206t84 213t217 126q-145 113 -146 267q0 199 162 300t389 101q113 0 263 -30t188 -33l-13 -74q-25 -140 -20 -223v-31l-49 -27q-70 47 -107 95q-82 107 -96 196q-59 23 -144 23t-130 -32t-45 -89
t69 -92l160 -76q178 -86 260 -167t82 -207z" />
    <glyph glyph-name="dieresis" unicode="&#xa8;" horiz-adv-x="827" 
d="M728 1487q76 0 118 -39q42 -40 41 -106q1 -66 -55 -118t-132 -53q-76 0 -116 38t-39 106q0 68 54 120q53 52 129 52zM346 1487q76 0 116 -39q42 -40 42 -106t-56 -118t-131 -53q-75 0 -115 38t-40 106t54 120t130 52z" />
    <glyph glyph-name="copyright" unicode="&#xa9;" horiz-adv-x="1574" 
d="M815 213q-219 0 -354 123t-135 342t153 350q154 131 393 131q58 0 138 -14t106 -15v-65q0 -98 10 -160l4 -22l-30 -17q-14 8 -37 24t-71 72q-48 58 -68 125q-10 2 -25 3q-74 0 -125 -98t-51 -271q0 -326 233 -326q106 0 197 90l21 -14q-38 -121 -134 -189t-225 -69z
M786 1325q-256 0 -436 -185q-180 -186 -180 -446t180 -444t436 -184t437 184q180 184 180 444t-180 446q-181 185 -437 185zM72 694q0 297 209 507t505 210t507 -210q210 -210 210 -507t-210 -506q-210 -208 -507 -208q-298 0 -506 208t-208 506z" />
    <glyph glyph-name="ordfeminine" unicode="&#xaa;" horiz-adv-x="806" 
d="M414 909q25 0 46 50q22 50 32 116l26 168q-10 27 -29 27q-35 0 -65 -78t-30 -180t20 -103zM753 874q20 0 62 66l27 -22q-6 -17 -32 -54q-26 -36 -77 -56q-51 -21 -94 -22q-162 0 -162 113v6h-6q-59 -119 -174 -119q-74 0 -133 48t-60 147q0 154 98 251t249 97
q104 0 176 -43l153 33h33l-74 -414q-6 -31 14 -31z" />
    <glyph glyph-name="guillemotleft" unicode="&#xab;" horiz-adv-x="1169" 
d="M1190 989l-207 -448l49 -447h-65l-383 381v133l540 381h66zM688 989l-207 -448l49 -447h-65l-383 381v133l541 381h65z" />
    <glyph glyph-name="logicalnot" unicode="&#xac;" horiz-adv-x="1040" 
d="M82 537v172h876v-510h-174v338h-702z" />
    <glyph glyph-name="registered" unicode="&#xae;" horiz-adv-x="1249" 
d="M647 1092h-12v-279h49q70 35 70 137q-1 142 -107 142zM1049 528h-279q-23 23 -53 101l-55 145h-27v-211l45 -18v-17h-354v17l61 18v535l-61 20v15h383q297 0 297 -170q0 -109 -117 -150v-8l69 -131q44 -85 91 -129v-17zM1165 821q0 213 -144 361t-350 149t-350 -149
q-145 -150 -145 -361t144 -361t351 -149q206 1 350 149t144 361zM84 821q0 244 172 418t416 174t418 -174t174 -418q0 -243 -174 -415t-418 -172t-416 171q-172 172 -172 416z" />
    <glyph glyph-name="macron" unicode="&#xaf;" horiz-adv-x="673" 
d="M154 1214l41 242h530l-41 -242h-530z" />
    <glyph glyph-name="degree" unicode="&#xb0;" horiz-adv-x="616" 
d="M248 1055q0 -57 39 -99t91 -43q52 0 89 42q37 41 37 99t-37 99t-89 41t-91 -41t-39 -98zM104 1055q0 113 80 193t193 81q113 0 193 -81q80 -82 81 -194q0 -112 -81 -192q-82 -80 -194 -80t-192 80t-80 193z" />
    <glyph glyph-name="plusminus" unicode="&#xb1;" horiz-adv-x="1040" 
d="M82 0v172h876v-172h-876zM82 582v172h352v301h172v-301h352v-172h-352v-301h-172v301h-352z" />
    <glyph glyph-name="twosuperior" unicode="&#xb2;" horiz-adv-x="706" 
d="M450 1329q99 0 153 -48t54 -117t-19 -100q-18 -32 -30 -50t-40 -41t-41 -34t-59 -40t-101 -57q-54 -29 -68 -37v-6h236q20 33 51 57t51 31l20 8l17 -12q-25 -70 -41 -160l-10 -57h-560v43q338 274 338 419q-1 56 -69 56t-139 -56l-23 19q37 72 109 127t171 55z" />
    <glyph glyph-name="threesuperior" unicode="&#xb3;" horiz-adv-x="708" 
d="M399 1155q0 61 -59 62q-76 0 -162 -68l-18 18q104 162 305 162q99 0 155 -37q56 -38 56 -108t-60 -104t-180 -48v-2q217 -14 217 -151q0 -113 -105 -168t-253 -55t-232 57q8 37 33 80t58 65h39q-4 -21 -7 -71q-2 -50 4 -70q35 -14 66 -15q117 0 117 177q1 41 -17 65
t-36 32q-18 7 -56 17l15 37q39 6 61 16q58 24 59 109z" />
    <glyph glyph-name="acute" unicode="&#xb4;" horiz-adv-x="739" 
d="M510 1604h102l140 -261l-537 -186l-22 33z" />
    <glyph glyph-name="mu" unicode="&#xb5;" horiz-adv-x="1492" 
d="M473 1096q171 0 235 -71t46 -181l-117 -645q12 -12 35 -13q63 0 114 106t80 261l95 522h493l-156 -872q-10 -63 27 -64q27 0 59 33t54 66l20 34l39 -20q-15 -38 -54 -89q-38 -52 -81 -88t-118 -66t-163 -29q-150 0 -204 74t-35 169l-11 2q-121 -209 -301 -239l-4 -328
h-475l94 535v2l123 677q10 63 -24 64q-24 0 -50 -34t-42 -68l-17 -35l-43 24q6 31 40 86t72 91t110 66t159 30z" />
    <glyph glyph-name="paragraph" unicode="&#xb6;" horiz-adv-x="1220" 
d="M317 -362q-174 0 -297 18q4 72 40 152t71 122l33 43h162q-31 -162 4 -252q68 7 128 37q60 29 94 68t71 117t55 182l223 1266h402l-7 -35l-168 -45l-202 -1153q-90 -520 -609 -520zM55 752q0 274 208 456t515 183l-198 -1127q-260 10 -392 144t-133 344z" />
    <glyph glyph-name="periodcentered" unicode="&#xb7;" horiz-adv-x="655" 
d="M313 485q-98 1 -160 61q-63 60 -63 158t71 175q71 75 172 75t165 -63t63 -161q0 -98 -75 -171q-75 -74 -173 -74z" />
    <glyph glyph-name="cedilla" unicode="&#xb8;" horiz-adv-x="589" 
d="M375 -221q0 -182 -285 -182q-176 0 -246 104l29 45q65 -35 139 -35t74 64q0 31 -21 46q-22 15 -71 32l2 8l139 170h88l-84 -107q236 0 236 -145z" />
    <glyph glyph-name="onesuperior" unicode="&#xb9;" horiz-adv-x="571" 
d="M231 1176q-35 0 -57 14t-27 31l-6 14l4 18q256 14 373 78l21 -16l-107 -602l86 -31l-4 -16h-451l5 16l90 29l82 465h-9z" />
    <glyph glyph-name="ordmasculine" unicode="&#xba;" horiz-adv-x="751" 
d="M512 1170q0 108 -35 108q-51 0 -80 -141q-16 -83 -16 -191t31 -108q54 0 83 142q17 82 17 190zM424 786q-320 0 -320 251q0 126 102 209t258 83q154 1 238 -63t84 -190t-104 -208t-258 -82z" />
    <glyph glyph-name="guillemotright" unicode="&#xbb;" horiz-adv-x="1169" 
d="M481 94l207 449l-49 446h66l382 -381v-133l-540 -381h-66zM-20 94l206 449l-49 446h66l383 -381v-133l-541 -381h-65z" />
    <glyph glyph-name="onequarter" unicode="&#xbc;" horiz-adv-x="1243" 
d="M211 1176q-35 0 -57 14t-27 31l-6 14l4 18q256 14 373 78l20 -16l-106 -602l86 -31l-4 -16h-451l4 16l90 29l82 465h-8zM238 0h-119l954 1309h117zM838 461l-215 -256h174l45 256h-4zM532 154v22l404 477h213l-78 -448h74l-10 -51h-74l-21 -115l64 -23l-2 -16h-420l2 16
l82 23l20 115h-254z" />
    <glyph glyph-name="onehalf" unicode="&#xbd;" horiz-adv-x="1267" 
d="M211 1176q-35 0 -57 14t-27 31l-6 14l4 18q256 14 373 78l20 -16l-106 -602l86 -31l-4 -16h-451l4 16l90 29l82 465h-8zM238 0h-119l954 1309h117zM840 133h235q20 33 51 57t52 31l20 8l16 -12q-25 -70 -40 -160l-11 -57h-559v43q338 274 338 420q0 55 -69 55t-140 -55
l-22 18q37 72 108 127q72 56 171 56q100 0 154 -48t54 -118q0 -69 -19 -100q-19 -32 -31 -50t-39 -41q-28 -23 -41 -34t-59 -39t-100 -57q-55 -30 -69 -38v-6z" />
    <glyph glyph-name="threequarters" unicode="&#xbe;" horiz-adv-x="1298" 
d="M293 0h-119l954 1309h117zM43 713q20 92 90 145h39q-3 -14 -5 -68q-3 -53 3 -73q35 -14 66 -15q117 0 116 177q0 41 -17 65t-35 32q-18 7 -56 17l14 37q40 6 62 16q58 24 59 109q0 61 -60 62q-76 0 -161 -68l-19 18q104 162 305 162q100 0 156 -37q56 -38 55 -108
q0 -70 -60 -104t-179 -48v-2q217 -14 217 -151q1 -113 -105 -168t-254 -55t-231 57zM893 461l-215 -256h174l45 256h-4zM588 154v22l403 477h213l-78 -448h74l-10 -51h-74l-20 -115l63 -23l-2 -16h-420l2 16l82 23l21 115h-254z" />
    <glyph glyph-name="questiondown" unicode="&#xbf;" horiz-adv-x="1030" 
d="M680 1096q118 0 180 -54t64 -148q0 -93 -82 -165t-200 -72q-118 -1 -180 53t-62 147t81 166t199 73zM360 -336q-176 0 -286 88t-111 242q0 273 339 418q89 37 190 57l104 125h86l86 -369q-41 -10 -91 -21t-83 -32q-100 -66 -125 -109q-47 -81 -47 -178q0 -121 117 -121
q27 0 71 9q41 91 41 207l-2 36l211 33q48 -143 14 -256q-203 -129 -514 -129z" />
    <glyph glyph-name="Agrave" unicode="&#xc0;" horiz-adv-x="1425" 
d="M496 1939h102l317 -413l-22 -33l-537 186zM561 848h-6l-215 -397h295zM-141 0l6 33l125 45l733 1313l227 20l273 -1333l102 -45l-6 -33h-750l6 33l130 43l-54 286h-358l-154 -286l111 -43l-6 -33h-385z" />
    <glyph glyph-name="Aacute" unicode="&#xc1;" horiz-adv-x="1425" 
d="M1067 1939h102l140 -260l-537 -186l-22 33zM561 848h-6l-215 -397h295zM-141 0l6 33l125 45l733 1313l227 20l273 -1333l102 -45l-6 -33h-750l6 33l130 43l-54 286h-358l-154 -286l111 -43l-6 -33h-385z" />
    <glyph glyph-name="Acircumflex" unicode="&#xc2;" horiz-adv-x="1425" 
d="M952 1915l219 -410l-26 -32l-295 135l-338 -135l-16 32l366 410h90zM561 848h-6l-215 -397h295zM-141 0l6 33l125 45l733 1313l227 20l273 -1333l102 -45l-6 -33h-750l6 33l130 43l-54 286h-358l-154 -286l111 -43l-6 -33h-385z" />
    <glyph glyph-name="Atilde" unicode="&#xc3;" horiz-adv-x="1425" 
d="M815 1874q76 0 170 -42t160 -42q57 18 112 78l17 -6q-4 -150 -74 -258t-182 -107q-76 0 -186 46t-181 46q-63 -27 -133 -88l-16 6q12 141 94 254t219 113zM561 848h-6l-215 -397h295zM-141 0l6 33l125 45l733 1313l227 20l273 -1333l102 -45l-6 -33h-750l6 33l130 43
l-54 286h-358l-154 -286l111 -43l-6 -33h-385z" />
    <glyph glyph-name="Adieresis" unicode="&#xc4;" horiz-adv-x="1425" 
d="M1219 1678q1 -66 -55 -118t-132 -53q-76 0 -116 38q-40 37 -40 105t55 120q53 52 129 52t118 -38q42 -40 41 -106zM836 1678q0 -66 -56 -118t-131 -53q-75 0 -115 38q-40 37 -40 105t54 120t130 52t116 -38q42 -40 42 -106zM561 848h-6l-215 -397h295zM-141 0l6 33
l125 45l733 1313l227 20l273 -1333l102 -45l-6 -33h-750l6 33l130 43l-54 286h-358l-154 -286l111 -43l-6 -33h-385z" />
    <glyph glyph-name="Aring" unicode="&#xc5;" horiz-adv-x="1425" 
d="M834 1550q39 0 56 54t17 118q0 66 -43 66q-34 0 -56 -39t-22 -119t48 -80zM1141 1683q0 -89 -87 -147q-86 -58 -218 -57q-132 0 -206 45t-75 132q0 87 86 144q86 58 218 58t207 -43t75 -132zM561 848h-6l-215 -397h295zM-141 0l6 33l125 45l733 1313l227 20l273 -1333
l102 -45l-6 -33h-750l6 33l130 43l-54 286h-358l-154 -286l111 -43l-6 -33h-385z" />
    <glyph glyph-name="AE" unicode="&#xc6;" horiz-adv-x="2066" 
d="M971 1239h-2l-537 -747h406zM-25 78l953 1313h1147l-17 -95q-20 -119 -37 -288l-4 -50l-32 -20q-14 12 -38 37t-77 118t-84 203h-291l-100 -565l307 14l104 158h41l-75 -426h-35l-51 158l-306 14l-98 -555h334q70 111 150 201q81 90 126 123l47 35l25 -21
q-49 -182 -78 -338l-16 -94h-1247l6 35l137 45l57 323h-454l-234 -327l111 -43l-6 -33h-381l6 33z" />
    <glyph glyph-name="Ccedilla" unicode="&#xc7;" horiz-adv-x="1300" 
d="M594 614q0 -360 295 -360q150 0 317 156l29 -23q-90 -201 -249 -305t-353 -105q-31 0 -45 3l-43 -56q236 0 235 -145q0 -182 -284 -182q-176 0 -246 104l29 45q65 -35 139 -35t74 64q0 31 -22 46t-71 32l2 8l105 127q-211 36 -333 190t-122 406t120 447q120 196 311 288
t427 92q101 -1 233 -23t158 -22l-16 -100q-22 -150 -22 -240l-2 -35l-43 -12q-16 12 -43 36q-27 23 -81 105t-75 176q-27 8 -66 9q-158 1 -258 -191t-100 -500z" />
    <glyph glyph-name="Egrave" unicode="&#xc8;" horiz-adv-x="1361" 
d="M504 1939h102l318 -413l-23 -33l-536 186zM1032 477l-51 158l-305 14l-98 -555h333q70 111 150 200t125 122l45 33l29 -17q-49 -182 -78 -338l-17 -94h-1247l6 35l139 45l218 1231l-123 45l6 35h1206l-16 -95q-27 -155 -37 -288l-4 -50l-33 -8q-14 10 -38 34t-77 113
t-82 199h-292l-101 -565l307 14l105 158h41l-76 -426h-35z" />
    <glyph glyph-name="Eacute" unicode="&#xc9;" horiz-adv-x="1361" 
d="M1032 477l-51 158l-305 14l-98 -555h333q70 111 150 200t125 122l45 33l29 -17q-49 -182 -78 -338l-17 -94h-1247l6 35l139 45l218 1231l-123 45l6 35h1206l-16 -95q-27 -155 -37 -288l-4 -50l-33 -8q-14 10 -38 34t-77 113t-82 199h-292l-101 -565l307 14l105 158h41
l-76 -426h-35zM1016 1939h102l139 -260l-536 -186l-23 33z" />
    <glyph glyph-name="Ecircumflex" unicode="&#xca;" horiz-adv-x="1361" 
d="M1032 477l-51 158l-305 14l-98 -555h333q70 111 150 200t125 122l45 33l29 -17q-49 -182 -78 -338l-17 -94h-1247l6 35l139 45l218 1231l-123 45l6 35h1206l-16 -95q-27 -155 -37 -288l-4 -50l-33 -8q-14 10 -38 34t-77 113t-82 199h-292l-101 -565l307 14l105 158h41
l-76 -426h-35zM954 1915l220 -410l-27 -32l-295 135l-338 -135l-16 32l366 410h90z" />
    <glyph glyph-name="Edieresis" unicode="&#xcb;" horiz-adv-x="1361" 
d="M1032 477l-51 158l-305 14l-98 -555h333q70 111 150 200t125 122l45 33l29 -17q-49 -182 -78 -338l-17 -94h-1247l6 35l139 45l218 1231l-123 45l6 35h1206l-16 -95q-27 -155 -37 -288l-4 -50l-33 -8q-14 10 -38 34t-77 113t-82 199h-292l-101 -565l307 14l105 158h41
l-76 -426h-35zM1184 1678q0 -66 -56 -118t-131 -53q-75 0 -115 38q-40 37 -40 105t54 120t130 52t116 -38q42 -40 42 -106zM801 1678q1 -66 -55 -118t-132 -53q-76 0 -116 38q-40 37 -39 105q0 68 54 120q53 52 129 52t118 -38q42 -40 41 -106z" />
    <glyph glyph-name="Igrave" unicode="&#xcc;" horiz-adv-x="854" 
d="M295 1939h102l318 -413l-23 -33l-536 186zM-82 0l6 35l139 45l218 1231l-123 45l6 35h772l-6 -35l-137 -45l-218 -1231l121 -45l-6 -35h-772z" />
    <glyph glyph-name="Iacute" unicode="&#xcd;" horiz-adv-x="854" 
d="M780 1939h103l139 -260l-537 -186l-22 33zM-82 0l6 35l139 45l218 1231l-123 45l6 35h772l-6 -35l-137 -45l-218 -1231l121 -45l-6 -35h-772z" />
    <glyph glyph-name="Icircumflex" unicode="&#xce;" horiz-adv-x="854" 
d="M694 1915l219 -410l-26 -32l-295 135l-338 -135l-16 32l366 410h90zM-82 0l6 35l139 45l218 1231l-123 45l6 35h772l-6 -35l-137 -45l-218 -1231l121 -45l-6 -35h-772z" />
    <glyph glyph-name="Idieresis" unicode="&#xcf;" horiz-adv-x="854" 
d="M762 1487q-76 0 -116 38q-40 37 -40 105t54 120t130 52t117 -39t41 -105t-55 -119q-55 -52 -131 -52zM379 1487q-76 0 -116 38q-40 37 -40 105q1 68 55 120t130 52t116 -39q41 -39 41 -105t-55 -119q-55 -52 -131 -52zM-82 0l6 35l139 45l218 1231l-123 45l6 35h772
l-6 -35l-137 -45l-218 -1231l121 -45l-6 -35h-772z" />
    <glyph glyph-name="Eth" unicode="&#xd0;" horiz-adv-x="1595" 
d="M821 1296h-30l-93 -514h133l-16 -92h-133l-104 -596h55q100 0 175 70t114 164q38 94 68 248t30 327q0 174 -51 284q-52 109 -148 109zM942 1391q286 0 444 -150t158 -416q0 -375 -229 -600t-586 -225h-811l6 35l139 45l107 610h-125l16 92h125l95 529l-123 45l6 35h778z
" />
    <glyph glyph-name="Ntilde" unicode="&#xd1;" horiz-adv-x="1421" 
d="M803 1874q76 0 170 -42t160 -42q57 18 112 78l17 -6q-4 -150 -74 -258t-182 -107q-76 0 -186 46t-181 46q-63 -27 -133 -88l-17 6q13 141 95 254t219 113zM877 0l-519 991l-159 -915l116 -43l-6 -33h-391l6 33l135 43l217 1239l-118 43l6 33h569l381 -742l119 666
l-115 43l6 33h389l-6 -33l-133 -43l-231 -1315h-266z" />
    <glyph glyph-name="Ograve" unicode="&#xd2;" horiz-adv-x="1560" 
d="M537 1939h102l317 -413l-22 -33l-537 186zM696 74q125 0 216 218t92 654q0 174 -31 272t-117 97q-117 0 -207 -237q-90 -236 -90 -620t137 -384zM741 -20q-334 0 -512 162t-178 448q0 371 220 596t551 225t509 -162t178 -442q0 -221 -89 -407t-267 -304
q-179 -116 -412 -116z" />
    <glyph glyph-name="Oacute" unicode="&#xd3;" horiz-adv-x="1560" 
d="M696 74q125 0 216 218t92 654q0 174 -31 272t-117 97q-117 0 -207 -237q-90 -236 -90 -620t137 -384zM741 -20q-334 0 -512 162t-178 448q0 371 220 596t551 225t509 -162t178 -442q0 -221 -89 -407t-267 -304q-179 -116 -412 -116zM1112 1939h102l140 -260l-537 -186
l-22 33z" />
    <glyph glyph-name="Ocircumflex" unicode="&#xd4;" horiz-adv-x="1560" 
d="M696 74q125 0 216 218t92 654q0 174 -31 272t-117 97q-117 0 -207 -237q-90 -236 -90 -620t137 -384zM741 -20q-334 0 -512 162t-178 448q0 371 220 596t551 225t509 -162t178 -442q0 -221 -89 -407t-267 -304q-179 -116 -412 -116zM973 1915l219 -410l-27 -32l-295 135
l-338 -135l-16 32l367 410h90z" />
    <glyph glyph-name="Otilde" unicode="&#xd5;" horiz-adv-x="1560" 
d="M774 1874q76 0 170 -42t160 -42q57 18 113 78l16 -6q-4 -150 -74 -258t-182 -107q-75 0 -185 46t-182 46q-63 -27 -133 -88l-16 6q12 141 94 254t219 113zM696 74q125 0 216 218t92 654q0 174 -31 272t-117 97q-117 0 -207 -237q-90 -236 -90 -620t137 -384zM741 -20
q-334 0 -512 162t-178 448q0 371 220 596t551 225t509 -162t178 -442q0 -221 -89 -407t-267 -304q-179 -116 -412 -116z" />
    <glyph glyph-name="Odieresis" unicode="&#xd6;" horiz-adv-x="1560" 
d="M696 74q125 0 216 218t92 654q0 174 -31 272t-117 97q-117 0 -207 -237q-90 -236 -90 -620t137 -384zM741 -20q-334 0 -512 162t-178 448q0 371 220 596t551 225t509 -162t178 -442q0 -221 -89 -407t-267 -304q-179 -116 -412 -116zM1249 1678q0 -66 -55 -118t-131 -53
q-76 0 -116 38q-40 37 -40 105q1 68 55 120t130 52t116 -38q41 -40 41 -106zM866 1678q0 -66 -55 -118t-131 -53q-76 0 -116 38q-40 37 -40 105t54 120t130 52t117 -38q41 -40 41 -106z" />
    <glyph glyph-name="multiply" unicode="&#xd7;" horiz-adv-x="915" 
d="M205 231l-123 123l248 248l-240 242l123 123l240 -242l247 248l123 -123l-248 -248l259 -256l-123 -123l-258 256z" />
    <glyph glyph-name="Oslash" unicode="&#xd8;" horiz-adv-x="1560" 
d="M856 1315q-109 0 -197 -210t-100 -570l445 448q-4 158 -35 245t-113 87zM696 74q119 0 207 196t98 586l-442 -448q4 -334 137 -334zM51 590q0 371 220 596q221 225 535 225t488 -133l131 133h123l-188 -190q150 -159 150 -397t-90 -424q-89 -186 -267 -304
q-178 -117 -412 -116q-297 0 -475 131l-129 -131h-125l189 190q-150 156 -150 420z" />
    <glyph glyph-name="Ugrave" unicode="&#xd9;" horiz-adv-x="1484" 
d="M659 1939h103l317 -413l-22 -33l-537 186zM692 -20q-221 0 -387 80t-219 214l182 1037l-123 45l7 35h774l-6 -35l-138 -45l-157 -893q-55 -309 215 -309q128 1 198 79t101 244l155 879l-118 45l6 35h395l-6 -35l-135 -45l-187 -1053q-80 -134 -208 -206t-349 -72z" />
    <glyph glyph-name="Uacute" unicode="&#xda;" horiz-adv-x="1484" 
d="M692 -20q-221 0 -387 80t-219 214l182 1037l-123 45l7 35h774l-6 -35l-138 -45l-157 -893q-55 -309 215 -309q128 1 198 79t101 244l155 879l-118 45l6 35h395l-6 -35l-135 -45l-187 -1053q-80 -134 -208 -206t-349 -72zM1292 1939h103l139 -260l-537 -186l-22 33z" />
    <glyph glyph-name="Ucircumflex" unicode="&#xdb;" horiz-adv-x="1484" 
d="M692 -20q-221 0 -387 80t-219 214l182 1037l-123 45l7 35h774l-6 -35l-138 -45l-157 -893q-55 -309 215 -309q128 1 198 79t101 244l155 879l-118 45l6 35h395l-6 -35l-135 -45l-187 -1053q-80 -134 -208 -206t-349 -72zM1094 1915l219 -410l-27 -32l-295 135l-338 -135
l-16 32l367 410h90z" />
    <glyph glyph-name="Udieresis" unicode="&#xdc;" horiz-adv-x="1484" 
d="M692 -20q-221 0 -387 80t-219 214l182 1037l-123 45l7 35h774l-6 -35l-138 -45l-157 -893q-55 -309 215 -309q128 1 198 79t101 244l155 879l-118 45l6 35h395l-6 -35l-135 -45l-187 -1053q-80 -134 -208 -206t-349 -72zM1298 1678q0 -66 -55 -118t-131 -53
q-76 0 -116 38q-40 37 -40 105t54 120t130 52t117 -38q41 -40 41 -106zM915 1678q0 -66 -55 -118t-131 -53q-76 0 -116 38q-40 37 -40 105q1 68 55 120t130 52t116 -38q41 -40 41 -106z" />
    <glyph glyph-name="Yacute" unicode="&#xdd;" horiz-adv-x="1404" 
d="M1264 1939h102l139 -260l-536 -186l-23 33zM199 0l6 35l137 45l96 545l-237 688l-105 45l6 33h777l-7 -33l-129 -43l154 -522h10l350 522l-110 43l6 33h389l-6 -33l-121 -45l-461 -676l-98 -557l119 -45l-6 -35h-770z" />
    <glyph glyph-name="Thorn" unicode="&#xde;" horiz-adv-x="1495" 
d="M717 328q111 0 174 134t63 314q0 254 -153 254h-58l-168 -950l146 -45l-6 -35h-797l6 35l139 45l218 1231l-123 45l6 35h772l-6 -35l-137 -45l-33 -187h141q274 0 424 -103t150 -310q1 -119 -51 -211t-137 -146q-173 -108 -405 -108q-124 0 -192 37l8 45h19z" />
    <glyph glyph-name="germandbls" unicode="&#xdf;" horiz-adv-x="1587" 
d="M1153 895q0 -43 98 -102l140 -82q88 -51 137 -130t49 -167q0 -201 -142 -318t-356 -116q-168 0 -325 51q2 61 18 121t31 90l16 30l154 -26q-31 -86 -33 -168q33 -25 82 -25t80 39q31 40 31 100t-60 101l-137 90q-154 102 -154 270q0 82 36 164t79 139q43 56 79 140
t36 156t-20 122q-20 51 -62 51q-115 0 -166 -299l-174 -1058q-72 -430 -580 -430q-178 0 -297 59q2 66 22 125q19 59 40 88l18 27l178 -23q-39 -80 -49 -188q20 -10 43 -11q74 0 123 299l160 973h-131l8 51l137 29l4 25q49 306 449 390q104 22 217 21q578 0 577 -252
q0 -68 -55 -122t-123 -83q-178 -79 -178 -151z" />
    <glyph glyph-name="agrave" unicode="&#xe0;" horiz-adv-x="1406" 
d="M432 1604h103l317 -414l-23 -33l-536 186zM584 190q49 0 91 102t66 240l70 406q-20 57 -57 57q-80 0 -146 -179t-65 -462q0 -164 41 -164zM367 -20q-120 0 -215 83q-49 43 -80 125t-31 193q0 317 175 516t454 199q217 0 358 -88l232 67h69l-155 -872q-12 -63 24 -64
q26 0 58 34t51 69l20 34l43 -24q-4 -10 -11 -28t-39 -66q-32 -47 -73 -83t-115 -66q-74 -29 -176 -29t-179 61t-56 182l-10 2q-123 -245 -344 -245z" />
    <glyph glyph-name="aacute" unicode="&#xe1;" horiz-adv-x="1406" 
d="M1008 1604h102l139 -261l-536 -186l-23 33zM584 190q49 0 91 102t66 240l70 406q-20 57 -57 57q-80 0 -146 -179t-65 -462q0 -164 41 -164zM367 -20q-120 0 -215 83q-49 43 -80 125t-31 193q0 317 175 516t454 199q217 0 358 -88l232 67h69l-155 -872q-12 -63 24 -64
q26 0 58 34t51 69l20 34l43 -24q-4 -10 -11 -28t-39 -66q-32 -47 -73 -83t-115 -66q-74 -29 -176 -29t-179 61t-56 182l-10 2q-123 -245 -344 -245z" />
    <glyph glyph-name="acircumflex" unicode="&#xe2;" horiz-adv-x="1406" 
d="M940 1599l219 -409l-26 -33l-295 135l-338 -135l-17 33l367 409h90zM584 190q49 0 91 102t66 240l70 406q-20 57 -57 57q-80 0 -146 -179t-65 -462q0 -164 41 -164zM367 -20q-120 0 -215 83q-49 43 -80 125t-31 193q0 317 175 516t454 199q217 0 358 -88l232 67h69
l-155 -872q-12 -63 24 -64q26 0 58 34t51 69l20 34l43 -24q-4 -10 -11 -28t-39 -66q-32 -47 -73 -83t-115 -66q-74 -29 -176 -29t-179 61t-56 182l-10 2q-123 -245 -344 -245z" />
    <glyph glyph-name="atilde" unicode="&#xe3;" horiz-adv-x="1406" 
d="M737 1538q76 0 170 -42t160 -42q57 18 113 78l16 -6q-4 -150 -74 -258t-182 -107q-76 0 -186 46t-181 46q-63 -27 -133 -88l-16 6q12 141 94 254t219 113zM584 190q49 0 91 102t66 240l70 406q-20 57 -57 57q-80 0 -146 -179t-65 -462q0 -164 41 -164zM367 -20
q-120 0 -215 83q-49 43 -80 125t-31 193q0 317 175 516t454 199q217 0 358 -88l232 67h69l-155 -872q-12 -63 24 -64q26 0 58 34t51 69l20 34l43 -24q-4 -10 -11 -28t-39 -66q-32 -47 -73 -83t-115 -66q-74 -29 -176 -29t-179 61t-56 182l-10 2q-123 -245 -344 -245z" />
    <glyph glyph-name="adieresis" unicode="&#xe4;" horiz-adv-x="1406" 
d="M1161 1342q0 -66 -55 -118t-131 -53q-76 0 -116 38t-40 106t54 120t130 52t117 -39q41 -40 41 -106zM778 1342q0 -66 -55 -118t-131 -53q-76 0 -116 38t-40 106t54 120t130 52t117 -39q41 -40 41 -106zM584 190q49 0 91 102t66 240l70 406q-20 57 -57 57q-80 0 -146 -179
t-65 -462q0 -164 41 -164zM367 -20q-120 0 -215 83q-49 43 -80 125t-31 193q0 317 175 516t454 199q217 0 358 -88l232 67h69l-155 -872q-12 -63 24 -64q26 0 58 34t51 69l20 34l43 -24q-4 -10 -11 -28t-39 -66q-32 -47 -73 -83t-115 -66q-74 -29 -176 -29t-179 61t-56 182
l-10 2q-123 -245 -344 -245z" />
    <glyph glyph-name="aring" unicode="&#xe5;" horiz-adv-x="1406" 
d="M815 1235q39 0 56 53t17 119t-42 66q-34 0 -56 -39t-22 -119t47 -80zM842 1542q280 0 280 -175q0 -89 -87 -146t-218 -57t-206 44q-75 45 -75 132q0 86 87 144q86 58 219 58zM584 190q49 0 91 102t66 240l70 406q-20 57 -57 57q-80 0 -146 -179t-65 -462q0 -164 41 -164z
M367 -20q-120 0 -215 83q-49 43 -80 125t-31 193q0 317 175 516t454 199q217 0 358 -88l232 67h69l-155 -872q-12 -63 24 -64q26 0 58 34t51 69l20 34l43 -24q-4 -10 -11 -28t-39 -66q-32 -47 -73 -83t-115 -66q-74 -29 -176 -29t-179 61t-56 182l-10 2q-123 -245 -344 -245
z" />
    <glyph glyph-name="ae" unicode="&#xe6;" horiz-adv-x="1810" 
d="M1348 1012q-58 0 -100 -144t-48 -338q72 25 116 85q44 61 58 135t14 168t-40 94zM702 426q0 268 164 453q-43 117 -112 116q-80 0 -146 -179t-65 -462q0 -164 41 -164q66 0 121 185q-3 16 -3 51zM1180 -20q-344 0 -445 253h-6q-59 -119 -141 -187t-212 -66
q-130 0 -224 83q-49 43 -80 125t-31 193q0 317 175 516t454 199q209 0 360 -84q145 84 334 84q188 0 302 -85t114 -218q0 -295 -580 -342q4 -94 52 -159t153 -65q154 0 281 103l26 -25q-188 -325 -532 -325z" />
    <glyph glyph-name="ccedilla" unicode="&#xe7;" horiz-adv-x="1069" 
d="M774 997q-96 0 -166 -129t-69 -346q0 -133 42 -207q43 -73 159 -73t243 116l31 -28q-168 -350 -496 -350h-29l-43 -56q236 0 236 -145q0 -182 -285 -182q-176 0 -245 104l28 45q66 -35 140 -35t73 64q0 31 -21 46q-22 15 -71 32l2 8l105 129q-168 31 -268 147
q-99 117 -99 309t103 348q103 154 258 228q156 74 300 74t231 -31t116 -61l30 -31q-12 -70 -39 -142t-49 -106l-20 -37l-203 37q47 137 55 266q-20 6 -49 6z" />
    <glyph glyph-name="egrave" unicode="&#xe8;" horiz-adv-x="1148" 
d="M358 1604h103l317 -414l-22 -33l-537 186zM686 1012q-59 0 -100 -144t-47 -338q71 25 115 85q44 61 58 135t15 168q0 94 -41 94zM518 -20q-223 0 -350 116t-127 330q0 301 193 485q194 184 452 185q205 0 319 -85t113 -218q0 -295 -579 -342q4 -94 52 -159t152 -65
q154 0 281 103l27 -25q-189 -325 -533 -325z" />
    <glyph glyph-name="eacute" unicode="&#xe9;" horiz-adv-x="1148" 
d="M686 1012q-59 0 -100 -144t-47 -338q71 25 115 85q44 61 58 135t15 168q0 94 -41 94zM518 -20q-223 0 -350 116t-127 330q0 301 193 485q194 184 452 185q205 0 319 -85t113 -218q0 -295 -579 -342q4 -94 52 -159t152 -65q154 0 281 103l27 -25q-189 -325 -533 -325z
M930 1604h102l139 -261l-536 -186l-23 33z" />
    <glyph glyph-name="ecircumflex" unicode="&#xea;" horiz-adv-x="1148" 
d="M686 1012q-59 0 -100 -144t-47 -338q71 25 115 85q44 61 58 135t15 168q0 94 -41 94zM518 -20q-223 0 -350 116t-127 330q0 301 193 485q194 184 452 185q205 0 319 -85t113 -218q0 -295 -579 -342q4 -94 52 -159t152 -65q154 0 281 103l27 -25q-189 -325 -533 -325z
M815 1599l219 -409l-26 -33l-295 135l-338 -135l-17 33l367 409h90z" />
    <glyph glyph-name="edieresis" unicode="&#xeb;" horiz-adv-x="1148" 
d="M686 1012q-59 0 -100 -144t-47 -338q71 25 115 85q44 61 58 135t15 168q0 94 -41 94zM518 -20q-223 0 -350 116t-127 330q0 301 193 485q194 184 452 185q205 0 319 -85t113 -218q0 -295 -579 -342q4 -94 52 -159t152 -65q154 0 281 103l27 -25q-189 -325 -533 -325z
M1071 1342q0 -66 -55 -118t-131 -53q-76 0 -116 38t-40 106t54 120t130 52t117 -39q41 -40 41 -106zM688 1342q0 -66 -55 -118t-131 -53q-76 0 -116 38t-40 106t54 120t130 52t117 -39q41 -40 41 -106z" />
    <glyph glyph-name="igrave" unicode="&#xec;" horiz-adv-x="835" 
d="M180 1604h103l317 -414l-22 -33l-537 186zM403 -20q-172 0 -235 70t-45 181l113 641q10 63 -25 64q-25 0 -57 -34t-52 -68l-20 -35l-43 24q4 11 11 29t40 66t74 82q41 36 115 66t161 30q172 0 236 -71t45 -181l-113 -641q-10 -63 25 -64q25 0 57 34t51 69l21 34l43 -24
q-4 -10 -11 -28t-40 -66q-33 -47 -74 -83q-41 -35 -115 -65t-162 -30z" />
    <glyph glyph-name="iacute" unicode="&#xed;" horiz-adv-x="835" 
d="M403 -20q-172 0 -235 70t-45 181l113 641q10 63 -25 64q-25 0 -57 -34t-52 -68l-20 -35l-43 24q4 11 11 29t40 66t74 82q41 36 115 66t161 30q172 0 236 -71t45 -181l-113 -641q-10 -63 25 -64q25 0 57 34t51 69l21 34l43 -24q-4 -10 -11 -28t-40 -66q-33 -47 -74 -83
q-41 -35 -115 -65t-162 -30zM684 1604h102l140 -261l-537 -186l-22 33z" />
    <glyph glyph-name="icircumflex" unicode="&#xee;" horiz-adv-x="835" 
d="M403 -20q-172 0 -235 70t-45 181l113 641q10 63 -25 64q-25 0 -57 -34t-52 -68l-20 -35l-43 24q4 11 11 29t40 66t74 82q41 36 115 66t161 30q172 0 236 -71t45 -181l-113 -641q-10 -63 25 -64q25 0 57 34t51 69l21 34l43 -24q-4 -10 -11 -28t-40 -66q-33 -47 -74 -83
q-41 -35 -115 -65t-162 -30zM596 1599l219 -409l-27 -33l-294 135l-338 -135l-17 33l367 409h90z" />
    <glyph glyph-name="idieresis" unicode="&#xef;" horiz-adv-x="835" 
d="M403 -20q-172 0 -235 70t-45 181l113 641q10 63 -25 64q-25 0 -57 -34t-52 -68l-20 -35l-43 24q4 11 11 29t40 66t74 82q41 36 115 66t161 30q172 0 236 -71t45 -181l-113 -641q-10 -63 25 -64q25 0 57 34t51 69l21 34l43 -24q-4 -10 -11 -28t-40 -66q-33 -47 -74 -83
q-41 -35 -115 -65t-162 -30zM870 1384q0 -66 -55 -120q-55 -52 -131 -52t-116 38t-40 106t54 120t130 52t117 -39t41 -105zM487 1384q0 -66 -55 -120q-55 -52 -131 -52t-116 38t-40 106q1 68 55 120t130 52t116 -39q41 -39 41 -105z" />
    <glyph glyph-name="eth" unicode="&#xf0;" horiz-adv-x="1325" 
d="M539 276q0 -210 67 -206q70 2 114 150t55 293t11 280q0 211 -68 211t-112 -152q-67 -237 -67 -576zM1284 618q0 -272 -183 -455t-457 -183t-439 110q-164 110 -164 348q0 289 170 473t455 185q109 0 184 -31q-12 61 -39 156l-131 -60l-21 66l129 59q-45 94 -114 187
l31 30q147 -53 264 -135l145 68l23 -68l-105 -49q252 -248 252 -701z" />
    <glyph glyph-name="ntilde" unicode="&#xf1;" horiz-adv-x="1505" 
d="M795 1559q76 0 170 -42t159 -42q57 18 113 77l16 -6q-3 -150 -73 -258t-183 -106q-75 0 -185 46t-181 46q-63 -27 -133 -88l-17 6q12 141 94 254t220 113zM1073 -20q-172 0 -235 70t-45 181l102 586q12 74 -23 74q-63 -1 -115 -107t-81 -262l-94 -522h-494l156 872
q10 63 -27 64q-27 0 -59 -34t-54 -66l-20 -33l-39 20q4 11 11 29t40 66t75 82q42 36 120 66t170 30q150 0 204 -74t35 -170l11 -2q67 118 155 182t238 64t224 -94q75 -94 50 -232l-100 -567q-10 -63 25 -64q25 0 57 34t53 69l19 34l43 -24q-40 -101 -125 -177
q-41 -35 -115 -65t-162 -30z" />
    <glyph glyph-name="ograve" unicode="&#xf2;" horiz-adv-x="1325" 
d="M387 1604h102l318 -414l-23 -33l-536 186zM604 70q141 0 175 522q7 106 7 201q0 211 -68 211t-112 -151q-67 -235 -67 -577q-1 -206 65 -206zM1284 618q0 -282 -181 -460t-457 -178t-441 110q-164 110 -164 348q0 295 179 476q178 182 464 182t443 -126t157 -352z" />
    <glyph glyph-name="oacute" unicode="&#xf3;" horiz-adv-x="1325" 
d="M604 70q141 0 175 522q7 106 7 201q0 211 -68 211t-112 -151q-67 -235 -67 -577q-1 -206 65 -206zM1284 618q0 -282 -181 -460t-457 -178t-441 110q-164 110 -164 348q0 295 179 476q178 182 464 182t443 -126t157 -352zM942 1604h102l140 -261l-537 -186l-22 33z" />
    <glyph glyph-name="ocircumflex" unicode="&#xf4;" horiz-adv-x="1325" 
d="M604 70q141 0 175 522q7 106 7 201q0 211 -68 211t-112 -151q-67 -235 -67 -577q-1 -206 65 -206zM1284 618q0 -282 -181 -460t-457 -178t-441 110q-164 110 -164 348q0 295 179 476q178 182 464 182t443 -126t157 -352zM852 1599l219 -409l-27 -33l-294 135l-338 -135
l-17 33l367 409h90z" />
    <glyph glyph-name="otilde" unicode="&#xf5;" horiz-adv-x="1325" 
d="M635 1538q76 0 170 -42t160 -42q57 18 112 78l17 -6q-4 -150 -74 -258t-182 -107q-76 0 -186 46t-181 46q-63 -27 -133 -88l-16 6q12 141 94 254t219 113zM604 70q141 0 175 522q7 106 7 201q0 211 -68 211t-112 -151q-67 -235 -67 -577q-1 -206 65 -206zM1284 618
q0 -282 -181 -460t-457 -178t-441 110q-164 110 -164 348q0 295 179 476q178 182 464 182t443 -126t157 -352z" />
    <glyph glyph-name="odieresis" unicode="&#xf6;" horiz-adv-x="1325" 
d="M604 70q141 0 175 522q7 106 7 201q0 211 -68 211t-112 -151q-67 -235 -67 -577q-1 -206 65 -206zM1284 618q0 -282 -181 -460t-457 -178t-441 110q-164 110 -164 348q0 295 179 476q178 182 464 182t443 -126t157 -352zM1079 1342q0 -66 -55 -118t-131 -53
q-76 0 -116 38t-40 106q1 68 55 120t130 52t116 -39q41 -40 41 -106zM696 1342q0 -66 -55 -118t-131 -53q-76 0 -116 38t-40 106t54 120t130 52t117 -39q41 -40 41 -106z" />
    <glyph glyph-name="divide" unicode="&#xf7;" horiz-adv-x="1040" 
d="M385 232q0 54 40 94t95 41q55 0 95 -40q40 -41 40 -95t-41 -94t-94 -40t-94 40t-41 94zM82 500v174h876v-174h-876zM385 941q0 54 40 94t95 40t95 -40t40 -94t-41 -94t-94 -40t-94 40t-41 94z" />
    <glyph glyph-name="oslash" unicode="&#xf8;" horiz-adv-x="1325" 
d="M604 70q76 0 119 150t55 358l-237 -213q-2 -35 -2 -89q-1 -206 65 -206zM717 1004q-135 0 -172 -531l239 213l2 107q1 211 -69 211zM41 438q0 295 179 476t482 182q254 0 410 -115l107 94h114l-164 -145q115 -125 115 -312q0 -282 -181 -460t-457 -178t-425 98l-110 -98
h-117l166 147q-119 113 -119 311z" />
    <glyph glyph-name="ugrave" unicode="&#xf9;" horiz-adv-x="1492" 
d="M436 1604h103l317 -414l-22 -33l-537 186zM432 1096q172 0 236 -71t45 -181l-117 -645q12 -12 35 -13q63 0 114 106t80 261l95 522h493l-156 -872q-10 -63 27 -64q28 0 60 33t53 66l20 34l39 -20q-15 -38 -54 -89q-38 -52 -81 -88t-118 -66t-163 -29q-150 0 -204 74
t-35 169l-10 2q-142 -245 -342 -245t-273 79q-49 55 -72 136l123 677q10 63 -24 64q-23 0 -49 -34t-43 -68l-17 -35l-43 24q6 31 40 86t72 91q37 36 109 66t160 30z" />
    <glyph glyph-name="uacute" unicode="&#xfa;" horiz-adv-x="1492" 
d="M432 1096q172 0 236 -71t45 -181l-117 -645q12 -12 35 -13q63 0 114 106t80 261l95 522h493l-156 -872q-10 -63 27 -64q28 0 60 33t53 66l20 34l39 -20q-15 -38 -54 -89q-38 -52 -81 -88t-118 -66t-163 -29q-150 0 -204 74t-35 169l-10 2q-142 -245 -342 -245t-273 79
q-49 55 -72 136l123 677q10 63 -24 64q-23 0 -49 -34t-43 -68l-17 -35l-43 24q6 31 40 86t72 91q37 36 109 66t160 30zM1053 1604h102l139 -261l-536 -186l-23 33z" />
    <glyph glyph-name="ucircumflex" unicode="&#xfb;" horiz-adv-x="1492" 
d="M432 1096q172 0 236 -71t45 -181l-117 -645q12 -12 35 -13q63 0 114 106t80 261l95 522h493l-156 -872q-10 -63 27 -64q28 0 60 33t53 66l20 34l39 -20q-15 -38 -54 -89q-38 -52 -81 -88t-118 -66t-163 -29q-150 0 -204 74t-35 169l-10 2q-142 -245 -342 -245t-273 79
q-49 55 -72 136l123 677q10 63 -24 64q-23 0 -49 -34t-43 -68l-17 -35l-43 24q6 31 40 86t72 91q37 36 109 66t160 30zM961 1599l219 -409l-27 -33l-295 135l-338 -135l-16 33l366 409h91z" />
    <glyph glyph-name="udieresis" unicode="&#xfc;" horiz-adv-x="1492" 
d="M432 1096q172 0 236 -71t45 -181l-117 -645q12 -12 35 -13q63 0 114 106t80 261l95 522h493l-156 -872q-10 -63 27 -64q28 0 60 33t53 66l20 34l39 -20q-15 -38 -54 -89q-38 -52 -81 -88t-118 -66t-163 -29q-150 0 -204 74t-35 169l-10 2q-142 -245 -342 -245t-273 79
q-49 55 -72 136l123 677q10 63 -24 64q-23 0 -49 -34t-43 -68l-17 -35l-43 24q6 31 40 86t72 91q37 36 109 66t160 30zM1204 1384q0 -66 -55 -120q-55 -52 -131 -52t-116 38t-40 106t54 120t130 52t117 -39t41 -105zM821 1384q0 -66 -55 -120q-55 -52 -131 -52t-116 38
t-40 106q1 68 55 120t130 52t116 -39q41 -39 41 -105z" />
    <glyph glyph-name="yacute" unicode="&#xfd;" 
d="M1051 1604h102l139 -261l-536 -186l-23 33zM431 1096q121 0 185 -48t93 -141l143 -483h8q156 274 213 457q-70 32 -168 41l-35 4l105 170q18 0 48 -1q31 -1 101 -25t115 -69q-13 -129 -115 -356t-245 -452q-267 -418 -480 -555q-61 0 -142 26t-130 49l-51 27l133 174
q90 -74 186 -104q49 39 125 120l-319 893q-18 53 -37 54q-24 1 -46 -49t-30 -99l-8 -49l-49 4q0 167 77 278q91 134 323 134z" />
    <glyph glyph-name="thorn" unicode="&#xfe;" horiz-adv-x="1429" 
d="M672 80q86 0 150 167q65 167 65 472q0 166 -45 166q-51 -1 -94 -103t-68 -239l-72 -400q20 -63 64 -63zM752 -20q-90 0 -172 16l-45 -258q147 -45 149 -45l-6 -35h-782l6 35l139 45l293 1634l-111 23l6 41l543 67h74l-74 -428q-16 -93 -57 -190l-15 -33l11 -2
q123 246 344 246q131 0 232 -96t102 -306q0 -326 -176 -520t-461 -194z" />
    <glyph glyph-name="ydieresis" unicode="&#xff;" 
d="M1104 1342q0 -66 -56 -118t-131 -53q-75 0 -115 38t-40 106t54 120t130 52t117 -39q41 -40 41 -106zM721 1342q1 -66 -55 -118t-132 -53q-76 0 -116 38t-39 106q0 68 54 120t130 52t117 -39q41 -40 41 -106zM431 1096q121 0 185 -48t93 -141l143 -483h8q156 274 213 457
q-70 32 -168 41l-35 4l105 170q18 0 48 -1q31 -1 101 -25t115 -69q-13 -129 -115 -356t-245 -452q-267 -418 -480 -555q-61 0 -142 26t-130 49l-51 27l133 174q90 -74 186 -104q49 39 125 120l-319 893q-18 53 -37 54q-24 1 -46 -49t-30 -99l-8 -49l-49 4q0 167 77 278
q91 134 323 134z" />
    <glyph glyph-name="dotlessi" unicode="&#x131;" horiz-adv-x="841" 
d="M406 -20q-172 0 -236 70q-63 71 -45 181l113 641q10 63 -25 64q-25 0 -57 -34t-54 -68l-18 -35l-43 24q4 11 11 29t40 66t74 82q41 36 115 66t161 30q172 0 236 -71t45 -181l-113 -641q-10 -63 25 -64q25 0 57 34t53 69l19 34l43 -24q-4 -10 -11 -28t-40 -66
q-33 -47 -74 -83q-40 -35 -114 -65t-162 -30z" />
    <glyph glyph-name="Lslash" unicode="&#x141;" horiz-adv-x="1292" 
d="M23 539l18 112l135 70l105 590l-123 45l6 35h772l-6 -35l-137 -45l-54 -297l156 80l-18 -113l-158 -82l-141 -805h292q70 111 151 199t126 121l47 32l27 -14q-49 -182 -78 -338l-17 -94h-1208l6 35l139 45l93 528z" />
    <glyph glyph-name="lslash" unicode="&#x142;" horiz-adv-x="794" 
d="M20 580l21 112l125 64l108 616l-112 23l8 41l551 67h70l-84 -467l112 60l-18 -113l-115 -59l-127 -721q-10 -63 25 -64q26 0 58 34t50 69l21 34l43 -24q-41 -104 -125 -177q-41 -36 -115 -66t-162 -29q-172 0 -235 70t-45 181l71 414z" />
    <glyph glyph-name="OE" unicode="&#x152;" horiz-adv-x="2093" 
d="M696 74q53 0 103 41l188 1054q-31 145 -131 146q-117 0 -207 -237q-90 -236 -90 -620t137 -384zM741 -20q-334 0 -512 162t-178 448q0 371 220 596t548 225q106 0 215 -20h1067l-16 -95q-27 -155 -37 -288l-4 -50l-33 -20q-14 12 -38 37t-76 118t-82 203h-291l-101 -565
l308 14l102 158h43l-76 -426h-37l-49 158l-305 14l-98 -555h334q70 111 150 201q81 90 126 123l47 35l25 -21q-49 -182 -78 -338l-17 -94h-972q-96 -20 -185 -20z" />
    <glyph glyph-name="oe" unicode="&#x153;" horiz-adv-x="1867" 
d="M1405 1012q-59 0 -100 -144t-48 -338q72 25 116 85q45 61 59 135t14 168t-41 94zM604 70q141 0 175 522q7 106 7 201q0 211 -68 211t-112 -151q-67 -235 -67 -577q-1 -206 65 -206zM635 -20q-266 0 -430 110t-164 348q0 295 179 476t482 182q229 0 369 -117
q151 117 345 117t308 -85t113 -218q0 -295 -580 -342q5 -94 53 -159t152 -65q152 0 281 103l26 -25q-188 -326 -532 -325q-174 0 -281 90q-137 -90 -321 -90z" />
    <glyph glyph-name="Scaron" unicode="&#x160;" 
d="M755 1307q-91 0 -143 -44t-51 -125q0 -81 86 -122l160 -76q340 -160 340 -434q0 -213 -171 -370q-171 -156 -465 -156t-536 104l15 82q22 139 22 240v36l70 29q6 -6 17 -16q86 -78 139 -209q23 -57 30 -117q90 -41 196 -41t174 62t67 170q0 106 -101 157l-215 109
q-113 57 -185 152q-72 96 -73 234q0 138 89 246q159 193 499 193q96 0 266 -30t209 -33l-12 -74q-23 -126 -23 -223l2 -31l-49 -27q-17 12 -55 46q-123 113 -150 245q-61 23 -152 23zM688 1473l-221 409l27 33l290 -135l342 135l17 -33l-365 -409h-90z" />
    <glyph glyph-name="scaron" unicode="&#x161;" horiz-adv-x="1101" 
d="M657 1008q-141 0 -141 -105q0 -51 68 -82l239 -102q211 -88 211 -290t-163 -326q-163 -123 -401 -123t-466 92q2 68 24 134t42 97l22 31l195 -27q-27 -90 -27 -186q76 -51 164 -51q219 0 219 143q0 66 -96 109l-225 100q-88 39 -150 116q-61 77 -61 189q0 164 143 266
t362 103q100 0 252 -18t211 -19q-1 -69 -23 -133t-42 -95l-21 -32l-198 20q20 70 24 154q-84 35 -162 35zM590 1157l-221 410l26 32l291 -135l342 135l16 -32l-364 -410h-90z" />
    <glyph glyph-name="Ydieresis" unicode="&#x178;" horiz-adv-x="1404" 
d="M1233 1678q1 -66 -55 -118t-132 -53q-76 0 -116 38q-40 37 -39 105q0 68 54 120t130 52t117 -38q41 -40 41 -106zM850 1678q0 -66 -56 -118t-131 -53q-75 0 -115 38q-40 37 -40 105t54 120t130 52t117 -38q41 -40 41 -106zM199 0l6 35l137 45l96 545l-237 688l-105 45
l6 33h777l-7 -33l-129 -43l154 -522h10l350 522l-110 43l6 33h389l-6 -33l-121 -45l-461 -676l-98 -557l119 -45l-6 -35h-770z" />
    <glyph glyph-name="Zcaron" unicode="&#x17d;" horiz-adv-x="1296" 
d="M182 1012l-32 16q39 123 67 283l14 80h1106l-12 -66l-756 -1231h332q41 76 107 151t110 111l47 37l43 -22q-39 -121 -67 -281l-17 -90h-1185l8 43l786 1253h-278q-37 -76 -105 -148t-117 -104zM748 1473l-222 409l27 33l291 -135l342 135l16 -33l-364 -409h-90z" />
    <glyph glyph-name="zcaron" unicode="&#x17e;" horiz-adv-x="1097" 
d="M57 823q0 272 260 273q89 0 279 -60t238 -61q48 0 75 26l74 74h172v-24l-711 -711q63 33 138 33q75 -1 155 -21t101 -20q61 0 88 30t39 109l8 57h41q68 -139 68 -281t-70 -228q-70 -85 -232 -85q-94 0 -288 76t-265 76q-33 0 -84 -51l-34 -35h-164v27l686 690
q-59 -27 -115 -27t-124 14q-67 14 -91 15q-98 0 -123 -115l-12 -61h-41q-68 127 -68 280zM594 1157l-221 410l26 32l291 -135l342 135l17 -32l-365 -410h-90z" />
    <glyph glyph-name="florin" unicode="&#x192;" horiz-adv-x="1308" 
d="M1032 1251q-18 0 -33 -8t-33 -35q-18 -28 -37 -87t-26 -111q-8 -52 -10 -58l-35 -190h207v-96h-223l-103 -598q-74 -430 -569 -430q-188 0 -307 59q2 66 21 125t38 88l21 27l178 -23q-39 -82 -49 -190q16 -8 43 -9q74 0 123 299l112 652h-157v96h174l24 137
q76 430 592 430q178 0 297 -59q-2 -72 -22 -136t-37 -94l-21 -30l-178 22q39 88 49 209q-21 10 -39 10z" />
    <glyph glyph-name="circumflex" unicode="&#x2c6;" horiz-adv-x="735" 
d="M567 1599l219 -409l-26 -33l-295 135l-338 -135l-16 33l366 409h90z" />
    <glyph glyph-name="caron" unicode="&#x2c7;" horiz-adv-x="735" 
d="M352 1157l-221 410l27 32l291 -135l342 135l16 -32l-365 -410h-90z" />
    <glyph glyph-name="breve" unicode="&#x2d8;" horiz-adv-x="704" 
d="M463 1430q176 0 244 96l75 -27q-34 -147 -110 -233t-232 -86q-315 0 -270 319l84 27q33 -96 209 -96z" />
    <glyph glyph-name="dotaccent" unicode="&#x2d9;" horiz-adv-x="524" 
d="M355 1153q-89 0 -145 51t-56 135t63 149q63 64 155 64t148 -53q58 -53 58 -136t-67 -147t-156 -63z" />
    <glyph glyph-name="ring" unicode="&#x2da;" horiz-adv-x="610" 
d="M414 1235q39 0 56 53t17 119t-43 66q-34 0 -56 -39t-22 -119t48 -80zM439 1542q282 0 282 -175q0 -89 -87 -146t-218 -57t-206 44q-75 45 -75 132q0 86 86 144t218 58z" />
    <glyph glyph-name="ogonek" unicode="&#x2db;" horiz-adv-x="565" 
d="M82 -362q-76 0 -122 34t-46 103q0 221 440 309l49 -25q-95 -29 -159 -79t-64 -109q0 -51 88 -51q50 -1 107 26l-23 -73q-115 -135 -270 -135z" />
    <glyph glyph-name="tilde" unicode="&#x2dc;" horiz-adv-x="884" 
d="M471 1538q76 0 170 -42t160 -42q57 18 112 78l17 -6q-4 -150 -74 -258t-182 -107q-76 0 -186 46t-181 46q-63 -27 -133 -88l-16 6q12 141 94 254t219 113z" />
    <glyph glyph-name="hungarumlaut" unicode="&#x2dd;" horiz-adv-x="903" 
d="M408 1190l446 373l92 -232v-67l-522 -109zM399 1602h111l119 -181l-527 -260l-22 29z" />
    <glyph glyph-name="pi" unicode="&#x3c0;" horiz-adv-x="1241" 
d="M61 952h1119l-557 -923z" />
    <glyph glyph-name="endash" unicode="&#x2013;" horiz-adv-x="1064" 
d="M37 506v143h991v-143h-991z" />
    <glyph glyph-name="emdash" unicode="&#x2014;" horiz-adv-x="1634" 
d="M37 506v143h1560v-143h-1560z" />
    <glyph glyph-name="quoteleft" unicode="&#x2018;" horiz-adv-x="567" 
d="M557 980q0 -114 -74 -190t-178 -75q-104 0 -171 61t-66 170q-1 393 577 465l10 -27q-135 -90 -172 -235q74 -55 74 -169z" />
    <glyph glyph-name="quoteright" unicode="&#x2019;" horiz-adv-x="567" 
d="M133 1146q0 114 74 190t178 75q104 0 171 -61t67 -170q0 -393 -578 -465l-10 26q135 90 172 236q-74 55 -74 169z" />
    <glyph glyph-name="quotesinglbase" unicode="&#x201a;" horiz-adv-x="655" 
d="M4 183q0 114 74 190t178 76q104 1 171 -61t67 -171q0 -393 -578 -465l-10 27q135 90 172 235q-74 55 -74 169z" />
    <glyph glyph-name="quotedblleft" unicode="&#x201c;" horiz-adv-x="1095" 
d="M834 715q-104 0 -172 61q-66 61 -66 170q0 393 578 465l10 -27q-135 -90 -172 -235q74 -55 74 -169t-74 -190t-178 -75zM557 980q0 -114 -74 -190t-178 -75q-104 0 -171 61t-66 170q-1 393 577 465l10 -27q-135 -90 -172 -235q74 -55 74 -169z" />
    <glyph glyph-name="quotedblright" unicode="&#x201d;" horiz-adv-x="1095" 
d="M914 1411q104 0 170 -61t67 -170q0 -393 -578 -465l-10 26q135 90 172 236q-73 55 -73 169t74 190t178 75zM133 1146q0 114 74 190t178 75q104 0 171 -61t67 -170q0 -393 -578 -465l-10 26q135 90 172 236q-74 55 -74 169z" />
    <glyph glyph-name="quotedblbase" unicode="&#x201e;" horiz-adv-x="1183" 
d="M532 183q0 114 74 190t178 76q104 1 172 -61q66 -62 66 -171q0 -393 -578 -465l-10 27q135 90 172 235q-74 55 -74 169zM4 183q0 114 74 190t178 76q104 1 171 -61t67 -171q0 -393 -578 -465l-10 27q135 90 172 235q-74 55 -74 169z" />
    <glyph glyph-name="dagger" unicode="&#x2020;" horiz-adv-x="1107" 
d="M840 1391l-250 -445l436 154l-65 -369l-371 148l117 -240l-293 -639h-41l-68 639l195 238l-418 -146l65 369l379 -152l-88 443h402z" />
    <glyph glyph-name="daggerdbl" unicode="&#x2021;" horiz-adv-x="1191" 
d="M168 750l63 368l379 -151l-90 424h402l-246 -426l434 153l-63 -368l-367 145l119 -201l-191 -200l418 147l-65 -369l-381 152l96 -424h-402l240 422l-432 -150l65 369l365 -145l-115 198l185 199z" />
    <glyph glyph-name="bullet" unicode="&#x2022;" horiz-adv-x="866" 
d="M400 315q-148 1 -241 91t-93 238t105 260q105 114 257 114t248 -94t96 -240t-112 -258t-260 -111z" />
    <glyph glyph-name="ellipsis" unicode="&#x2026;" horiz-adv-x="1769" 
d="M822 449q100 1 164 -63t64 -162t-74 -170q-75 -74 -173 -74t-161 60q-62 60 -62 158t70 175q71 76 172 76zM265 449q101 1 165 -63t64 -162t-75 -170q-75 -74 -173 -74t-161 60q-62 60 -62 158t70 175q71 76 172 76zM1380 449q102 1 164 -63q64 -64 64 -162t-75 -170
q-75 -74 -173 -74t-161 60q-62 60 -62 158t70 175q71 76 173 76z" />
    <glyph glyph-name="perthousand" unicode="&#x2030;" horiz-adv-x="2203" 
d="M1847 487q0 104 -41 105q-54 0 -85 -192q-17 -105 -17 -232t35 -127q59 0 90 182q18 106 18 264zM2111 381q1 -180 -107 -291q-108 -110 -258 -110t-228 70t-78 200q0 180 106 291t258 111t230 -70q77 -70 77 -201zM1133 487q0 104 -41 105q-54 0 -85 -192
q-17 -105 -17 -232t34 -127q59 0 90 182q19 106 19 264zM1397 381q0 -180 -108 -291q-108 -110 -258 -110t-228 70t-78 200q0 180 106 291t258 111t230 -70t78 -201zM324 0h-117l1003 1309h115zM541 1165q0 104 -41 105q-54 0 -85 -192q-17 -105 -17 -232t34 -127
q59 0 90 182q19 106 19 264zM805 1059q0 -180 -108 -291t-258 -111t-228 71t-78 200q1 180 107 291t258 111t229 -70q78 -70 78 -201z" />
    <glyph glyph-name="guilsinglleft" unicode="&#x2039;" horiz-adv-x="667" 
d="M688 989l-207 -448l49 -447h-65l-383 381v133l541 381h65z" />
    <glyph glyph-name="guilsinglright" unicode="&#x203a;" horiz-adv-x="667" 
d="M-20 94l206 449l-49 446h66l383 -381v-133l-541 -381h-65z" />
    <glyph glyph-name="fraction" unicode="&#x2044;" horiz-adv-x="1009" 
d="M88 0h-119l955 1309h116z" />
    <glyph glyph-name="Euro" unicode="&#x20ac;" horiz-adv-x="1284" 
d="M993 1225q-133 0 -210 -115t-109 -289h221l-18 -96h-215q-6 -63 -7 -119v-6h201l-18 -96h-176q37 -250 241 -250q69 0 137 27t95 46t82 62l26 -22q-184 -389 -600 -390q-236 -1 -378 141t-152 386h-101l19 96h84q2 57 16 125h-80l19 96h88q86 240 301 374t487 134
q98 1 222 -21t149 -24l-19 -100q-22 -125 -22 -240v-35l-37 -18q-6 4 -17 11q-99 63 -156 190q-28 59 -40 129q-20 4 -33 4z" />
    <glyph glyph-name="trademark" unicode="&#x2122;" horiz-adv-x="1898" 
d="M360 1343h-92q-34 -77 -92 -161l-18 -27l-21 4q12 68 13 158v74h710v-74q0 -65 8 -137l4 -21l-20 -4q-70 94 -111 188h-96v-608l90 -22v-17h-463v17l88 22v608zM932 1391h358l183 -369h4l157 369h332v-17l-65 -20v-621l65 -20v-17h-416v17l68 20v412h-4q-18 -74 -41 -123
l-135 -293h-119l-176 293q-34 60 -47 123h-4v-412l65 -20v-17h-225v17l67 20v621l-67 20v17z" />
    <glyph glyph-name="Omega" unicode="&#x2126;" horiz-adv-x="1871" 
d="M1001 612v318q45 59 149 112q104 54 236 54q130 0 236 -54t147 -112v-318q0 -313 -179 -473t-466 -159q-55 0 -116 6v2q162 19 296 136q73 64 93 146q-162 0 -279 82t-117 260zM102 612v318q42 59 148 112q106 54 237 54t237 -54t146 -112v-318q0 -313 -179 -473
t-466 -159q-59 0 -116 6v2q163 19 295 136q74 64 94 146q-162 0 -279 82t-117 260z" />
    <glyph glyph-name="partialdiff" unicode="&#x2202;" horiz-adv-x="1107" 
d="M985 1098v-1118l-924 557z" />
    <glyph glyph-name="Delta" unicode="&#x2206;" horiz-adv-x="2129" 
d="M1569 270q-205 0 -333 120t-128 292t128 293t332 121t332 -126t128 -317q0 -143 -41 -259q-76 -214 -262 -315t-416 -99q-59 0 -125 6v2q171 20 315 138q80 67 103 146q-10 -2 -33 -2zM559 270q-203 0 -330 120t-127 292t127 293t332 121t332 -125t127 -318
q0 -143 -41 -260q-74 -211 -259 -313t-417 -100q-66 0 -127 6v2q117 14 251 91t167 193q-12 -2 -35 -2z" />
    <glyph glyph-name="product" unicode="&#x220f;" horiz-adv-x="1241" 
d="M1180 86h-1119l562 924z" />
    <glyph glyph-name="summation" unicode="&#x2211;" horiz-adv-x="1107" 
d="M123 -20v1118l924 -561z" />
    <glyph glyph-name="minus" unicode="&#x2212;" horiz-adv-x="1040" 
d="M82 518v174h876v-174h-876z" />
    <glyph glyph-name="radical" unicode="&#x221a;" horiz-adv-x="2129" 
d="M1571 805q203 0 330 -120t127 -292t-127 -293q-127 -120 -332 -120t-332 124t-127 318q0 143 41 260q74 211 258 312q184 102 418 102q66 0 127 -6v-3q-117 -14 -251 -91t-167 -193q12 2 35 2zM561 805q205 0 333 -120t128 -292t-128 -293q-128 -120 -332 -120t-332 126
t-128 316q0 143 41 259q76 214 261 315q185 100 417 100q59 0 125 -6v-3q-174 -20 -315 -138q-80 -67 -103 -146q10 2 33 2z" />
    <glyph glyph-name="infinity" unicode="&#x221e;" horiz-adv-x="1630" 
d="M1192 401q82 0 127 45t45 126t-45 127t-120 46t-138 -46t-137 -126q153 -172 268 -172zM440 401q113 0 267 172q-47 51 -81 82t-86 61t-117 30t-111 -47q-46 -46 -46 -127t46 -126t128 -45zM1192 905q162 0 259 -95q97 -94 97 -238t-92 -237t-264 -93q-111 0 -199 54
t-176 146q-201 -200 -376 -200t-267 93t-92 236t98 239t260 95q109 1 197 -55t178 -148q88 92 177 148t200 55z" />
    <glyph glyph-name="integral" unicode="&#x222b;" horiz-adv-x="1871" 
d="M486 -20q-132 0 -237 53t-147 112v318q0 313 180 473t466 160q55 0 116 -6v-3q-164 -19 -296 -136q-73 -64 -93 -146q162 0 279 -82t116 -260v-318q-45 -59 -149 -112q-103 -53 -235 -53zM1384 -20q-132 0 -236 53q-105 53 -147 112v318q-1 313 179 473t467 160
q57 0 116 -6v-3q-164 -19 -296 -136q-73 -64 -93 -146q162 0 279 -82t116 -260v-318q-41 -59 -147 -112t-238 -53z" />
    <glyph glyph-name="approxequal" unicode="&#x2248;" horiz-adv-x="1255" 
d="M900 260q-83 0 -229 69t-216 68q-137 0 -258 -141l-115 125q62 97 162 155t210 58t262 -70q153 -70 193 -69q88 0 158 90l107 -125q-43 -72 -117 -116t-157 -44zM900 631q-83 1 -229 69t-216 68q-137 0 -258 -141l-115 125q62 96 162 154t210 58t262 -69q153 -70 193 -70
q88 0 158 90l107 -124q-43 -72 -117 -116t-157 -44z" />
    <glyph glyph-name="notequal" unicode="&#x2260;" horiz-adv-x="1040" 
d="M82 733v174h475l68 148h145l-65 -148h253v-174h-331l-74 -164h405v-174h-483l-65 -145h-148l66 145h-246v174h324l73 164h-397z" />
    <glyph glyph-name="lessequal" unicode="&#x2264;" horiz-adv-x="1040" 
d="M82 20v175h876v-175h-876zM958 461v-178l-876 323v131l876 324v-178l-612 -211z" />
    <glyph glyph-name="greaterequal" unicode="&#x2265;" horiz-adv-x="1040" 
d="M958 195v-175h-876v175h876zM82 283v178l612 211l-612 211v178l876 -324v-131z" />
    <glyph glyph-name="lozenge" unicode="&#x25ca;" horiz-adv-x="1042" 
d="M102 0v133h838v-133h-838zM102 1257v134h838v-134h-838zM532 852l164 348h170l-252 -502l260 -510h-178l-164 351l-170 -351h-176l258 508l-258 504h176z" />
    <glyph glyph-name="apple" unicode="&#xf8ff;" horiz-adv-x="2918" 
d="M1710 584q0 27 -27 26q-41 1 -49 -69q76 0 76 43zM2372 584q0 27 -27 26q-41 1 -49 -69q76 0 76 43zM279 584q0 27 -27 26q-41 1 -49 -69q76 0 76 43zM1049 332q0 -29 28 -29q52 0 56 94q-84 -18 -84 -65zM1860 512q24 0 38 -14t14 -34t-14 -34q-16 -14 -38 -14t-37 13
t-15 33t14 36q14 14 38 14zM1440 553q0 41 -27 41t-46 -38t-19 -60v-47q92 12 92 104zM2344 471q42 0 73 18q16 -10 16 -25q0 -14 -5 -24t-29 -20q-23 -10 -71 -10t-81 30t-33 81q0 52 38 94t90 42t75 -19t22 -44q0 -78 -141 -78q4 -45 46 -45zM1682 471q42 0 73 18
q30 -19 11 -50q-16 -29 -82 -29t-99 30t-33 81q0 52 38 94t90 42t76 -19q22 -19 22 -44q-2 -78 -142 -78q4 -45 46 -45zM251 471q42 0 73 18q16 -10 16 -25q0 -14 -5 -24t-29 -20t-72 -10t-80 30q-33 30 -33 81q0 52 38 94t90 42t75 -19t22 -44q0 -78 -141 -78q4 -45 46 -45
zM2181 592v-100l4 -66q-49 -16 -67 -16t-19 16v137q0 31 -15 31q-14 0 -34 -36t-20 -62l6 -70q-49 -16 -69 -16t-19 16v141l-6 74q48 16 68 16t20 -18v-82q35 100 92 100q59 1 59 -65zM129 0v16h2740v-16h-2740zM129 1083v17h2740v-17h-2740zM2700 428l-169 -16
q-39 0 -47 26t-9 112q-1 87 -3 130l-59 -4v8q0 41 24 41h35l-6 61q48 16 68 16t20 -16v-59h96v-6q0 -43 -24 -43h-72v-184q0 -31 33 -31q23 0 79 11t92 11q38 0 84 -12t46 -39t-20 -41t-30 -14q-10 1 -60 25t-78 24zM557 657q59 0 59 -65v-35q29 100 93 100q57 1 57 -65
v-100l6 -66q-50 -16 -68 -16t-18 16v135q0 33 -14 33t-36 -36t-20 -62l5 -70q-49 -16 -68 -16t-18 16v135q1 33 -15 33t-36 -36t-19 -62l6 -70q-49 -16 -69 -16t-19 16v141l-6 74q49 16 69 16t19 -18v-82q33 100 92 100zM1444 655q34 1 58 -27t24 -77q0 -139 -178 -139v-82
l6 -66q-49 -16 -69 -16t-19 16v154l-52 -6v-6q0 -162 -139 -162q-43 0 -63 22t-21 47q0 74 144 109v86q-35 -98 -93 -98t-59 63v6q-39 -67 -103 -67t-65 61v207l-59 -4v8q0 41 24 41h35l-6 61q49 16 69 16t19 -16v-59h96v-6q0 -43 -24 -43h-72v-176q0 -33 27 -33q18 0 39 16
q20 16 20 37v51l-6 68q49 16 69 16t19 -18v-135q0 -31 14 -31t35 36q20 36 19 62l-5 70q49 16 64 16q23 0 22 -18v-203l52 6v125l-6 74q48 16 68 16t20 -18v-82q35 98 96 98z" />
    <glyph glyph-name="NULL" horiz-adv-x="0" 
 />
    <glyph glyph-name="eight.tab" 
d="M551 1090q0 -70 84 -119l164 -97q86 76 86 216q0 68 -44 110t-122 41q-78 0 -123 -41q-45 -40 -45 -110zM295 262q0 -82 49 -136q50 -54 150 -54t161 56t61 144t-85 136l-209 118q-127 -121 -127 -264zM1174 1067q0 -186 -263 -258q242 -156 242 -338q0 -311 -284 -427
q-155 -64 -384 -64q-492 0 -491 278q0 111 88 204t240 130q-174 129 -175 301q1 115 53 202t139 136q178 100 391 99q214 -1 329 -76t115 -187z" />
    <glyph glyph-name="five.tab" 
d="M418 -20q-150 0 -268 34t-168 82q14 82 60 169t105 141h70q-20 -213 25 -316q42 -18 134 -18t153 65q61 66 61 184q0 119 -58 163t-193 44q-136 0 -192 -22l-16 20l176 783h879l-92 -348h-762l-37 -152q154 33 326 33q231 0 364 -98t133 -269q0 -251 -186 -373t-514 -122
z" />
    <glyph glyph-name="four.tab" 
d="M571 844l-393 -443h320l77 443h-4zM-12 305v53l852 951h329l-159 -908h139l-19 -96h-139l-39 -225l125 -45l-6 -35h-786l6 35l149 45l39 225h-491z" />
    <glyph glyph-name="nine.tab" 
d="M607 596q44 0 85 22q43 199 43 445q0 172 -67 172q-141 0 -142 -475q0 -86 18 -125t63 -39zM406 -20q-96 0 -172 22q-124 35 -174 99t-50 83l47 43q68 -72 205 -71q287 0 406 366q-108 -49 -260 -49t-255 90t-104 258q0 242 182 375q181 133 443 133t399 -124t137 -371
q0 -382 -218 -618t-586 -236z" />
    <glyph glyph-name="one.tab" 
d="M430 1053q-90 -1 -154 23t-83 46l-19 25l6 31q199 15 416 57q217 41 344 96l55 -31l-213 -1206l226 -59l-7 -35h-966l6 35l238 57l167 961h-16z" />
    <glyph glyph-name="seven.tab" 
d="M111 0v70l847 891h-622q-41 -61 -93 -113t-83 -72l-33 -20l-37 20q55 182 92 387l27 146h1036v-164l-710 -1145h-424z" />
    <glyph glyph-name="six.tab" 
d="M631 713q-43 0 -84 -23q-43 -184 -43 -444q0 -172 67 -172q141 0 142 475q0 164 -82 164zM565 -20q-537 0 -536 495q0 383 218 619t587 235q96 1 171 -21q121 -35 173 -99q51 -64 51 -85l-47 -43q-68 72 -205 72q-291 0 -406 -369q113 52 263 52t252 -90
q103 -90 104 -259q0 -243 -182 -375t-443 -132z" />
    <glyph glyph-name="three.tab" 
d="M356 74q110 0 174 88t64 230t-70 192q-70 51 -192 71l37 101q176 13 229 60t53 147q-1 135 -161 135t-297 -99l-29 33q49 101 187 199t405 98q190 0 300 -83t109 -216q-1 -102 -71 -170t-161 -94t-204 -31v-6q163 -6 273 -81t110 -218t-72 -235q-72 -91 -186 -135
q-209 -79 -428 -80q-287 0 -459 116q14 82 55 174t91 136h69q-13 -75 3 -170q15 -95 57 -152q51 -10 114 -10z" />
    <glyph glyph-name="two.tab" 
d="M-37 0v94q348 302 486 486q63 84 114 185t51 173q0 136 -138 135q-138 0 -298 -131l-35 37q68 121 199 225q158 125 399 125q179 0 285 -95t107 -251q0 -94 -39 -176t-85 -134q-47 -51 -153 -115t-168 -93t-164 -74t-133 -59v-2h502q35 61 86 107t84 63l33 14l26 -18
q-53 -166 -92 -392l-18 -104h-1049z" />
    <glyph glyph-name="zero.tab" 
d="M522 72q94 0 164 290t70 660q0 213 -62 213q-86 0 -154 -300t-67 -652q0 -211 49 -211zM539 -20q-250 0 -389 136t-140 382q0 362 200 596t484 235q252 0 388 -139t137 -393q1 -333 -189 -575t-491 -242z" />
    </font>
</defs>
</svg>
