<?xml version="1.0" standalone="no"?>
<!DOCTYPE svg PUBLIC "-//W3C//DTD SVG 1.1//EN" "http://www.w3.org/Graphics/SVG/1.1/DTD/svg11.dtd" >
<svg xmlns="http://www.w3.org/2000/svg">
<metadata>
Created by FontPrep 20130207 at Mon Jun 27 20:39:31 2016
 By Devin Halladay
Copyright (c) 2011 by Eduardo Manso. All rights reserved.
</metadata>
<defs>
<font id="f9ab434af3a1a8e6e75e97d67c2872dd" horiz-adv-x='1024' >
  <font-face 
    font-family="PeriodicoDisplay-Bd"
    font-weight="700"
    font-stretch="normal"
    units-per-em="2048"
    panose-1="2 0 5 4 8 0 0 2 0 4"
    ascent="1597"
    descent="-451"
    x-height="1055"
    cap-height="1391"
    bbox="-149.966 -362.035 2888 1872"
    underline-thickness="102"
    underline-position="-102"
    unicode-range="U+0009-FB02"
  />
<missing-glyph horiz-adv-x="1026" 
d="M102 0v96h822v-96h-822zM102 1294v97h822v-97h-822zM586 696l256 -501h-137l-181 389l-188 -389h-133l254 501l-254 498h133l188 -385l181 385h131z" />
    <glyph glyph-name="fi" unicode="fi" horiz-adv-x="1505" 
d="M983 1174q0 145 -43 217q-55 25 -132 25q-164 -1 -220 -117q-45 -93 -45 -248v-2h329q205 0 345 20l53 6h76v-995l127 -45v-35h-599v35l127 45v887h-458v-887l172 -45v-35h-664v35l148 45v887h-148v51l148 29v2q0 455 635 454q229 0 376 -61q0 -57 -22 -125t-41 -105
l-21 -38h-143z" />
    <glyph glyph-name="fl" unicode="fl" horiz-adv-x="1525" 
d="M1366 1503v-1423l127 -45v-35h-598v35l127 45v1302q-102 33 -196 33q-182 0 -238 -113q-45 -93 -45 -251v-2h258v-82h-258v-887l172 -45v-35h-664v35l148 45v887h-148v51l148 29v4q0 453 635 452q160 0 292 -28l164 28h76z" />
    <glyph glyph-name=".notdef" horiz-adv-x="1026" 
d="M102 0v96h822v-96h-822zM102 1294v97h822v-97h-822zM586 696l256 -501h-137l-181 389l-188 -389h-133l254 501l-254 498h133l188 -385l181 385h131z" />
    <glyph glyph-name=".null" horiz-adv-x="0" 
 />
    <glyph glyph-name="nonmarkingreturn" horiz-adv-x="681" 
 />
    <glyph glyph-name="CR" unicode="&#xd;" horiz-adv-x="0" 
 />
    <glyph glyph-name="CR" horiz-adv-x="0" 
 />
    <glyph glyph-name="HT" unicode="&#x9;" horiz-adv-x="0" 
 />
    <glyph glyph-name="LF" unicode="&#xa;" horiz-adv-x="0" 
 />
    <glyph glyph-name="DLE" horiz-adv-x="0" 
 />
    <glyph glyph-name="DC1" horiz-adv-x="0" 
 />
    <glyph glyph-name="DC2" horiz-adv-x="0" 
 />
    <glyph glyph-name="DC3" horiz-adv-x="0" 
 />
    <glyph glyph-name="DC4" horiz-adv-x="0" 
 />
    <glyph glyph-name="RS" horiz-adv-x="0" 
 />
    <glyph glyph-name="US" horiz-adv-x="0" 
 />
    <glyph glyph-name="space" unicode=" " horiz-adv-x="423" 
 />
    <glyph glyph-name="exclam" unicode="!" horiz-adv-x="616" 
d="M121 158q0 76 52 127t136 51t136 -51q53 -51 53 -127t-52 -127t-137 -51q-84 0 -136 51t-52 127zM306 1411q73 0 129 -37t69 -106l-178 -807h-35l-180 807q12 70 67 106t128 37z" />
    <glyph glyph-name="quotedbl" unicode="&#x22;" horiz-adv-x="737" 
d="M536 1411q58 0 103 -36t45 -89l-129 -387h-35l-127 387q0 53 42 89q43 36 101 36zM194 1411q58 0 103 -36t45 -89l-129 -387h-35l-127 387q0 53 42 89q43 36 101 36z" />
    <glyph glyph-name="numbersign" unicode="#" horiz-adv-x="1183" 
d="M508 655l-76 -231h250l76 231h-250zM82 326v98h203l75 231h-196v99h229l99 301h147l-98 -301h250l98 301h147l-98 -301h164v-99h-197l-76 -231h191v-98h-221l-107 -326h-147l106 326h-250l-106 -326h-148l107 326h-172z" />
    <glyph glyph-name="dollar" unicode="$" horiz-adv-x="1257" 
d="M481 1055q0 -113 105 -148l26 -10v326q-131 -25 -131 -168zM840 317q0 123 -131 164v-379q131 41 131 215zM131 166q0 128 -22 221l-9 35l68 31q18 -14 45 -39t86 -105t86 -164q109 -57 213 -57h14v424l-145 49q-141 47 -222 149t-81 244q0 178 126 270t322 103v127h97
v-127q78 -4 215 -29t188 -30v-74q0 -131 23 -205l6 -28l-54 -27q-55 35 -121 108q-65 73 -94 142q-72 33 -163 41v-359l106 -35q193 -63 281 -161t88 -263t-128 -285t-347 -138v-123h-97v119q-260 2 -481 104v82z" />
    <glyph glyph-name="percent" unicode="%" horiz-adv-x="1497" 
d="M1120 -20q-133 0 -212 87t-79 245t81 248q81 91 215 91t212 -86t78 -245q0 -160 -81 -250t-214 -90zM1126 41q66 -1 66 275t-70 276t-70 -276t74 -275zM1065 1309h117l-746 -1309h-119zM379 719q66 -1 66 275t-70 276t-70 -276t74 -275zM378 1329q134 0 212 -86t78 -245
q0 -160 -81 -250t-214 -90t-212 86q-79 87 -79 245t81 249t215 91z" />
    <glyph glyph-name="ampersand" unicode="&#x26;" horiz-adv-x="1501" 
d="M575 1143q0 -106 111 -242q90 100 90 263t-100 163t-101 -184zM692 209q102 0 182 41q-133 128 -317 321l-102 105q-61 -80 -62 -199q0 -268 299 -268zM672 1411q182 0 275 -84t93 -205q0 -122 -85 -192t-207 -101l27 -27q17 -16 31 -32t64 -65q49 -49 224 -236
q74 121 129 303l34 -6q-20 -199 -96 -367q283 -301 385 -362v-37h-405q-70 61 -156 143q-171 -163 -403 -163t-379 92t-148 282q1 146 99 240t252 137q-148 177 -148 313t69 221t157 115t188 31z" />
    <glyph glyph-name="quotesingle" unicode="'" horiz-adv-x="395" 
d="M194 1411q58 0 103 -36t45 -89l-129 -387h-35l-127 387q0 53 42 89q43 36 101 36z" />
    <glyph glyph-name="parenleft" unicode="(" horiz-adv-x="634" 
d="M240 61q-158 227 -158 536t158 525q76 104 152 181q77 76 179 151l23 -24q-256 -308 -256 -836t256 -852l-23 -25q-102 80 -179 158t-152 186z" />
    <glyph glyph-name="parenright" unicode=")" horiz-adv-x="634" 
d="M297 593q0 527 -256 837l22 24q102 -76 180 -151q201 -199 269 -418q41 -133 41 -288t-41 -291q-69 -228 -269 -431q-78 -78 -180 -158l-22 25q256 324 256 851z" />
    <glyph glyph-name="asterisk" unicode="*" horiz-adv-x="929" 
d="M391 1038q0 -34 22 -56q23 -22 57 -22t56 22t21 56q0 34 -22 57q-23 21 -57 21t-56 -22t-21 -56zM659 653l-194 211l-197 -211l-41 25l88 278l-260 62v47l260 59l-86 267l41 22l195 -211l190 211l41 -22l-84 -267l260 -59v-47l-262 -62l88 -278z" />
    <glyph glyph-name="plus" unicode="+" 
d="M82 539v133h373v360h133v-360h370v-133h-370v-383h-133v383h-373z" />
    <glyph glyph-name="comma" unicode="," horiz-adv-x="466" 
d="M45 156q0 78 51 129t136 51q86 0 138 -53t52 -131q0 -158 -114 -256t-281 -144l-15 27q123 94 129 219q-96 45 -96 158z" />
    <glyph glyph-name="hyphen" unicode="-" horiz-adv-x="643" 
d="M70 506v133h501v-133h-501z" />
    <glyph glyph-name="period" unicode="." horiz-adv-x="466" 
d="M45 158q0 76 51 127t136 51q86 0 138 -51t52 -127t-52 -127t-136 -51t-137 51q-52 51 -52 127z" />
    <glyph glyph-name="slash" unicode="/" horiz-adv-x="790" 
d="M111 -342h-115l598 1825h115z" />
    <glyph glyph-name="zero" unicode="0" horiz-adv-x="1198" 
d="M604 68q178 0 178 588t-186 589q-180 -1 -180 -589t188 -588zM605 1329q251 0 396 -173t145 -491q0 -317 -150 -501q-152 -184 -402 -184t-396 173t-146 490t150 501q152 184 403 185z" />
    <glyph glyph-name="one" unicode="1" horiz-adv-x="849" 
d="M272 1073h-20q-74 1 -132 19t-79 36l-21 19v31q145 15 300 56q155 42 241 97l68 -31v-1206l211 -59v-35h-772v35l204 57v981z" />
    <glyph glyph-name="two" unicode="2" horiz-adv-x="1132" 
d="M596 1329q200 0 316 -106t116 -285q0 -88 -41 -175t-98 -154q-124 -146 -533 -392v-10h514q25 61 72 107t82 63l35 14l33 -18q-25 -109 -25 -248v-125h-1028l-19 74q207 169 398 372q111 119 178 243q68 124 68 219q0 94 -60 140t-152 46q-94 0 -192 -46t-164 -106
l-47 37q52 118 178 225q66 55 162 90t207 35z" />
    <glyph glyph-name="three" unicode="3" horiz-adv-x="1081" 
d="M425 1118q-93 0 -180 -35t-143 -86l-32 33q150 299 477 299q201 0 315 -87t113 -228q0 -106 -91 -184t-229 -95v-6q173 -18 279 -105t106 -225q0 -195 -144 -307t-380 -112q-142 0 -282 36t-203 80q0 70 31 154t71 115h78q2 -147 49 -244q88 -47 194 -47t163 63
q59 63 59 173q1 198 -103 269q-51 34 -100 49t-123 27l21 80q155 13 204 60t49 139q2 92 -52 138t-147 46z" />
    <glyph glyph-name="four" unicode="4" horiz-adv-x="1189" 
d="M637 422v577h-6l-426 -577h432zM31 326v53l688 930h274v-887h156v-96h-156v-246l144 -45v-35h-664v35l164 45v246h-606z" />
    <glyph glyph-name="five" unicode="5" horiz-adv-x="1067" 
d="M471 821q243 0 399 -100t156 -305t-155 -321t-414 -115q-129 0 -237 34t-159 82q0 70 32 154t71 115h78q8 -162 49 -244q78 -49 168 -49t149 68t60 210q0 144 -91 202t-221 58t-213 -22l-20 20l41 701h776l-25 -267h-657l-14 -237q125 16 227 16z" />
    <glyph glyph-name="six" unicode="6" horiz-adv-x="1163" 
d="M762 413q0 161 -45 231t-138 69q-93 0 -165 -58v-65q0 -291 43 -404t149 -112q72 0 114 89t42 250zM754 1149q-283 0 -330 -377q96 63 235 64q211 0 337 -109t126 -305t-152 -320q-152 -123 -372 -122q-547 0 -547 595q0 352 165 553t458 201q212 0 330 -131
q45 -52 45 -74l-41 -43q-92 68 -254 68z" />
    <glyph glyph-name="seven" unicode="7" horiz-adv-x="1034" 
d="M1024 1309v-164l-545 -1145h-268v70l641 993h-580q-18 -55 -65 -107t-84 -75l-37 -23l-45 16q23 197 22 289v146h961z" />
    <glyph glyph-name="eight" unicode="8" horiz-adv-x="1124" 
d="M406 1055q0 -135 122 -187l134 -57q57 76 57 233q0 74 -43 134t-118 61q-76 0 -114 -51t-38 -133zM338 293q0 -90 63 -156q63 -65 163 -65t154 54q52 54 52 150q1 142 -149 201l-193 78q-90 -96 -90 -262zM41 322q0 98 76 177t213 103q-225 131 -226 369q0 168 132 262
t332 94t317 -89t116 -218q0 -182 -233 -254q166 -78 241 -175t74 -222q0 -172 -139 -281q-139 -108 -378 -108t-382 82t-143 260z" />
    <glyph glyph-name="nine" unicode="9" horiz-adv-x="1163" 
d="M401 898q-1 -162 45 -232t140 -70t162 57q2 23 2 66q0 287 -41 401t-140 115q-76 0 -122 -87t-46 -250zM41 886q0 196 158 320t376 123q269 0 403 -142t134 -472t-165 -533t-458 -202q-219 0 -329 131q-45 52 -45 73l41 43q92 -68 254 -67q283 0 329 375
q-96 -61 -235 -62q-211 0 -337 109q-126 108 -126 304z" />
    <glyph glyph-name="colon" unicode=":" horiz-adv-x="466" 
d="M45 158q0 76 51 127t136 51q86 0 138 -51t52 -127t-52 -127t-136 -51t-137 51q-52 51 -52 127zM45 899q0 76 51 127t136 51q86 0 138 -51t52 -127t-52 -127t-136 -51t-137 51q-52 51 -52 127z" />
    <glyph glyph-name="semicolon" unicode=";" horiz-adv-x="466" 
d="M45 899q0 76 51 127t136 51q86 0 138 -51t52 -127t-52 -127t-136 -51t-137 51q-52 51 -52 127zM45 156q0 78 51 129t136 51q86 0 138 -53t52 -131q0 -158 -114 -256t-281 -144l-15 27q123 94 129 219q-96 45 -96 158z" />
    <glyph glyph-name="less" unicode="&#x3c;" 
d="M82 545v131l876 354v-149l-675 -271l675 -270v-150z" />
    <glyph glyph-name="equal" unicode="=" 
d="M82 416v133h876v-133h-876zM82 754v133h876v-133h-876z" />
    <glyph glyph-name="greater" unicode="&#x3e;" 
d="M958 676v-131l-876 -355v150l676 270l-676 271v149z" />
    <glyph glyph-name="question" unicode="?" 
d="M248 158q0 76 52 127t136 51t136 -51t52 -127t-52 -127t-136 -51t-136 51t-52 127zM512 1411q207 0 337 -96t130 -272t-128 -287t-316 -154l-80 -141h-52l-170 287q43 0 139 34t118 46q86 50 111 90q44 70 44 145q0 248 -225 248q-35 0 -80 -11q-74 -122 -111 -251
l-14 -43h-92q-73 127 -60 243q156 162 449 162z" />
    <glyph glyph-name="at" unicode="@" horiz-adv-x="1861" 
d="M815 489q0 -172 53 -172q52 -1 100 91t68 208l56 316q-35 45 -82 45q-78 0 -136 -126t-59 -362zM1614 735q0 248 -148 423t-417 175q-326 1 -530 -235t-204 -602q0 -143 37 -256q38 -113 100 -181q128 -139 270 -178q143 -39 253 -39q219 0 418 54l10 -43
q-203 -90 -449 -91q-352 0 -579 164q-80 57 -136 131t-93 188q-36 114 -35 251q0 399 260 657t678 258q187 0 337 -55q150 -54 242 -150q189 -196 191 -475q1 -159 -49 -279q-86 -209 -294 -283q-87 -32 -176 -32q-283 0 -282 199v22l-8 2q-104 -195 -281 -194
q-98 0 -172 76t-74 243q1 250 139 403t355 152q145 0 254 -71l174 61l20 -4l-110 -627q-18 -59 -10 -115t67 -57q96 0 169 130t73 378z" />
    <glyph glyph-name="A" unicode="A" horiz-adv-x="1484" 
d="M618 954h-10l-194 -483h403zM1505 0h-661v33l135 43l-127 307h-475l-123 -307l133 -43v-33h-407v33l129 45l555 1313l155 20l563 -1333l123 -45v-33z" />
    <glyph glyph-name="B" unicode="B" horiz-adv-x="1417" 
d="M680 1298h-107v-518h103q123 0 186 66t64 182q0 270 -246 270zM745 688h-172v-596h168q250 0 250 301q0 141 -62 218q-63 77 -184 77zM801 0h-740v35l144 45v1231l-144 45v35h674q561 0 561 -332q0 -147 -97 -221t-290 -97v-4q219 -23 338 -105t119 -264t-154 -275
t-411 -93z" />
    <glyph glyph-name="C" unicode="C" horiz-adv-x="1282" 
d="M51 681q0 339 206 535t534 195q98 -1 225 -23t170 -22v-100q0 -146 22 -240l9 -35l-54 -22l-18 12q-32 21 -83 78q-93 104 -130 223q-57 23 -141 23q-165 0 -259 -153q-94 -152 -94 -428t102 -413t258 -137q155 0 253 60t176 155l35 -22q-37 -129 -156 -250
q-62 -61 -160 -99t-217 -38q-311 0 -495 181q-183 181 -183 520z" />
    <glyph glyph-name="D" unicode="D" horiz-adv-x="1564" 
d="M750 1296h-177v-1202h205q346 0 346 598q0 284 -98 444t-276 160zM61 1391h707q348 -1 547 -181t199 -507t-206 -515t-548 -188h-699v35l144 45v1231l-144 45v35z" />
    <glyph glyph-name="E" unicode="E" horiz-adv-x="1310" 
d="M61 1391h1139v-54q0 -145 17 -278l6 -39l-41 -14l-34 34t-71 97q-49 76 -78 159h-426v-548l408 16l41 96h47v-303h-39l-47 96l-410 17v-576h474q23 74 67 152q45 78 78 119l35 38l43 -12q-23 -158 -23 -315v-76h-1186v35l144 45v1231l-144 45v35z" />
    <glyph glyph-name="F" unicode="F" horiz-adv-x="1243" 
d="M61 1391h1139v-54q0 -145 17 -278l6 -39l-41 -14l-34 34t-71 97q-49 76 -78 159h-426v-585l408 16l41 137h47v-385h-39l-47 137l-410 17v-553l164 -45v-35h-676v35l144 45v1231l-144 45v35z" />
    <glyph glyph-name="G" unicode="G" horiz-adv-x="1398" 
d="M819 1411q102 -1 259 -23t202 -22v-162q0 -89 23 -178l8 -35l-54 -24q-6 4 -32 19t-71 67q-91 104 -126 217q-84 37 -207 37q-180 0 -280 -166q-101 -165 -101 -451t106 -445t267 -159q55 0 100 6v469l-98 43v31h526v-29l-77 -45v-450l71 -23v-27q-221 -82 -538 -81
q-445 0 -643 307q-102 157 -102 387t104 400t276 254q172 83 387 83z" />
    <glyph glyph-name="H" unicode="H" horiz-adv-x="1628" 
d="M911 1391h656v-35l-144 -45v-1231l144 -45v-35h-656v35l144 45v602h-482v-602l144 -45v-35h-656v35l144 45v1231l-144 45v35h656v-35l-144 -45v-529h482v529l-144 45v35z" />
    <glyph glyph-name="I" unicode="I" horiz-adv-x="778" 
d="M61 1391h656v-35l-144 -45v-1231l144 -45v-35h-656v35l144 45v1231l-144 45v35z" />
    <glyph glyph-name="J" unicode="J" horiz-adv-x="757" 
d="M-23 -362q-59 0 -122 6q-12 59 5 141t44 139h135q4 -119 45 -198q80 31 121 86v1499l-144 45v35h656v-35l-144 -45v-1417q-240 -256 -596 -256z" />
    <glyph glyph-name="K" unicode="K" horiz-adv-x="1484" 
d="M61 1391h656v-35l-144 -45v-568h45l510 576l-116 39v33h415v-33l-133 -45l-413 -451l362 -549q57 -87 123 -157t102 -95l37 -26v-35h-401q-104 47 -209 207l-287 444h-35v-571l144 -45v-35h-656v35l144 45v1231l-144 45v35z" />
    <glyph glyph-name="L" unicode="L" horiz-adv-x="1253" 
d="M61 1391h656v-35l-144 -45v-1217h426q20 84 66 167q45 83 82 124l35 39l41 -12q-23 -186 -23 -338v-74h-1139v35l144 45v1231l-144 45v35z" />
    <glyph glyph-name="M" unicode="M" horiz-adv-x="1781" 
d="M61 1391h455l389 -859h6l365 859h444v-33l-139 -43v-1239l139 -43v-33h-641v33l140 43v821h-7q-33 -102 -63 -172l-287 -659h-137l-315 628q-48 95 -64 176l-4 27h-6v-821l137 -43v-33h-412v33l140 43v1239l-140 43v33z" />
    <glyph glyph-name="N" unicode="N" horiz-adv-x="1468" 
d="M1018 1391h409v-33l-139 -43v-1315h-123l-829 930v-854l137 -43v-33h-412v33l140 43v1239l-140 43v33h353l741 -836v760l-137 43v33z" />
    <glyph glyph-name="O" unicode="O" horiz-adv-x="1480" 
d="M727 1319q-151 0 -219 -159t-68 -461t82 -465q82 -162 234 -162t218 158t66 458q0 301 -80 466t-233 165zM51 685q1 337 189 531t506 195q318 0 500 -186q182 -187 184 -523q0 -336 -188 -530t-506 -192q-318 0 -502 184q-183 184 -183 521z" />
    <glyph glyph-name="P" unicode="P" horiz-adv-x="1366" 
d="M61 1391h682q266 0 429 -112t163 -328t-145 -347t-344 -131q-84 0 -195 35v45h60q115 0 178 99t63 284q0 360 -260 360h-119v-1216l172 -45v-35h-684v35l144 45v1231l-144 45v35z" />
    <glyph glyph-name="Q" unicode="Q" horiz-adv-x="1480" 
d="M727 1319q-151 0 -219 -159t-68 -461t82 -465q82 -162 234 -162t218 158t66 458q0 301 -80 466t-233 165zM1399 -322h-398q-109 45 -210 154l-146 152q-279 28 -437 208t-157 505t189 520t506 195t500 -187q182 -186 184 -523q0 -254 -112 -431t-310 -248v-7l84 -82
q6 -6 42 -43t58 -56t73 -61q50 -42 134 -63v-33z" />
    <glyph glyph-name="R" unicode="R" horiz-adv-x="1454" 
d="M567 1296v-612h230q141 92 141 322q0 291 -256 290h-115zM1475 0h-422q-111 47 -181 203l-172 393h-133v-516l138 -45v-35h-644v35l144 45v1231l-144 45v35h713q248 1 394 -93t147 -286q0 -248 -258 -342v-15l137 -299q86 -191 218 -287q31 -23 63 -34v-35z" />
    <glyph glyph-name="S" unicode="S" horiz-adv-x="1196" 
d="M70 166q0 128 -23 240l-8 36l67 31q16 -14 44 -40q28 -27 87 -111q58 -84 85 -172q122 -62 236 -62t175 66t62 186q0 62 -35 114t-103 74l-241 80q-313 102 -314 391q0 205 150 307t371 103q94 0 256 -29t200 -32v-74q0 -144 23 -223l6 -31l-53 -27q-16 12 -44 34
q-28 21 -85 91t-86 144q-96 45 -206 45q-110 1 -162 -51t-52 -142q0 -121 115 -160l229 -75q199 -66 289 -172q90 -107 90 -283t-152 -310q-153 -134 -417 -134t-504 104v82z" />
    <glyph glyph-name="T" unicode="T" horiz-adv-x="1327" 
d="M33 1325v66h1261v-66q0 -149 17 -278l6 -39l-41 -15q-117 115 -182 303h-246v-1216l143 -45v-35h-655v35l143 45v1216h-246q-29 -84 -75 -160t-76 -108l-31 -35l-41 15q23 137 23 317z" />
    <glyph glyph-name="U" unicode="U" horiz-adv-x="1546" 
d="M1219 428v883l-144 45v35h430v-35l-143 -45v-1037q-82 -145 -212 -220q-130 -74 -344 -74t-385 80t-237 216v1035l-143 45v35h655v-35l-143 -45v-897q0 -152 81 -231q80 -79 232 -79t252 88t101 236z" />
    <glyph glyph-name="V" unicode="V" horiz-adv-x="1464" 
d="M-20 1391h665v-33l-135 -43l377 -866h6l313 866l-133 43v33h412v-33l-129 -45l-506 -1333h-162l-586 1333l-122 45v33z" />
    <glyph glyph-name="W" unicode="W" horiz-adv-x="2158" 
d="M-20 1391h665v-33l-135 -43l260 -860h12l222 680l-62 163l141 93h242l303 -936h6l267 860l-134 43v33h412v-33l-129 -45l-440 -1333h-162l-367 954l-329 -954h-162l-488 1333l-122 45v33z" />
    <glyph glyph-name="X" unicode="X" horiz-adv-x="1441" 
d="M807 0v33l123 37l-307 465l-349 -463l101 -39v-33h-395v33l122 45l449 563l-445 676l-106 41v33h647v-33l-119 -33l279 -428l340 426l-115 39v31h400v-33l-123 -45l-435 -520l476 -725l112 -37v-33h-655z" />
    <glyph glyph-name="Y" unicode="Y" horiz-adv-x="1402" 
d="M-20 1391h671v-33l-135 -43l313 -549h5l313 549l-133 43v33h409v-33l-127 -45l-403 -688v-545l143 -45v-35h-655v35l143 45v538l-420 695l-124 45v33z" />
    <glyph glyph-name="Z" unicode="Z" horiz-adv-x="1310" 
d="M1212 1391v-66l-708 -1231h518q25 76 74 149t86 107l37 35l51 -14q-23 -121 -23 -281v-90h-1206v43l729 1253h-434q-23 -76 -74 -148t-90 -104l-41 -32l-43 16q23 123 23 283v80h1101z" />
    <glyph glyph-name="bracketleft" unicode="[" horiz-adv-x="620" 
d="M569 -254h-446v1737h446v-82h-223v-1575h223v-80z" />
    <glyph glyph-name="backslash" unicode="\" horiz-adv-x="790" 
d="M795 -342h-115l-598 1825h115z" />
    <glyph glyph-name="bracketright" unicode="]" horiz-adv-x="620" 
d="M498 -254h-447v80h223v1575h-223v82h447v-1737z" />
    <glyph glyph-name="asciicircum" unicode="^" horiz-adv-x="901" 
d="M819 750h-149l-224 514l-217 -514h-147l266 641h199z" />
    <glyph glyph-name="underscore" unicode="_" horiz-adv-x="1019" 
d="M0 -324v99h1032v-99h-1032z" />
    <glyph glyph-name="grave" unicode="`" horiz-adv-x="585" 
d="M231 1536h35l236 -317l-27 -29l-393 172z" />
    <glyph glyph-name="a" unicode="a" horiz-adv-x="1169" 
d="M403 295q-1 -170 123 -170q62 0 123 45q-2 14 -2 55t1 157t1 177q-139 -37 -246 -104v-160zM897 -20q-174 0 -229 129q-125 -129 -291 -129q-131 0 -218 66t-87 212v117q166 172 579 258v100q0 133 -38 191t-134 59q-53 0 -106 -27q-48 -73 -70 -215l-4 -45h-119
q-74 84 -88 209q60 63 192 117t279 53q428 0 428 -391l-6 -522q0 -61 45 -62q33 0 62 45t43 101l55 -17q-32 -133 -102 -191t-191 -58z" />
    <glyph glyph-name="b" unicode="b" horiz-adv-x="1241" 
d="M623 909q-97 0 -150 -45v-690q82 -100 180 -100t138 104q39 104 39 330t-55 314q-55 87 -152 87zM473 1503v-559q141 131 302 131t276 -99q63 -54 101 -163t38 -260q0 -262 -150 -418t-393 -155q-156 0 -272 73l-213 -80l-33 27v1372l-129 23v41l397 67h76z" />
    <glyph glyph-name="c" unicode="c" horiz-adv-x="980" 
d="M604 977q-207 0 -207 -419t267 -419q135 0 278 125l39 -28q-57 -111 -159 -184t-244 -72q-244 0 -385 138t-141 396t156 410q157 152 384 151q102 -1 200 -29t154 -77q-2 -69 -22 -133t-39 -95l-21 -32h-116q-10 150 -66 254q-39 14 -78 14z" />
    <glyph glyph-name="d" unicode="d" horiz-adv-x="1269" 
d="M412 546q0 -227 54 -314t153 -87q98 0 149 43v691q-88 102 -183 102t-134 -104t-39 -331zM1112 1503v-1423l127 -45v-35h-440l-21 113h-8q-141 -133 -303 -133t-277 99q-63 54 -101 163t-38 260q0 262 150 418t393 155q94 0 174 -28v325l-129 23v41l397 67h76z" />
    <glyph glyph-name="e" unicode="e" 
d="M547 991q-154 0 -154 -397l283 16v37q0 344 -129 344zM51 514q-1 258 147 410t358 152t327 -131q117 -130 116 -337v-90l-606 10q14 -391 262 -391q148 0 295 113l31 -27q-57 -104 -161 -174t-251 -69q-240 0 -379 138t-139 396z" />
    <glyph glyph-name="f" unicode="f" horiz-adv-x="804" 
d="M199 1094q0 409 469 409q158 0 256 -51q0 -108 -47 -211l-17 -37h-123q0 44 -13 114t-30 103q-18 4 -48 4q-70 0 -89 -87q-14 -64 -14 -191v-98h258v-82h-258v-887l172 -45v-35h-664v35l148 45v887h-148v51l148 29v47z" />
    <glyph glyph-name="g" unicode="g" horiz-adv-x="1122" 
d="M274 -88q0 -203 273 -203q143 0 198 46t56 134v33q-45 25 -117 31l-309 29q-29 2 -72 10q-29 -31 -29 -80zM563 438q152 0 152 283q0 129 -42 208t-122 79q-152 0 -152 -287q0 -129 42 -206t122 -77zM1024 725q0 -166 -131 -261t-315 -95t-185 -54q0 -37 66 -43l250 -20
q285 -25 393 -146v-137q0 -143 -159 -237t-413 -94t-378 66q-125 66 -125 169q0 51 51 92t127 58q-115 57 -115 176q0 178 270 194q-124 37 -196 120t-72 204q0 166 130 262t335 96q121 0 219 -39q160 8 275 45l36 15l13 -154q-94 -25 -185 -6l-4 -8q113 -78 113 -203z" />
    <glyph glyph-name="h" unicode="h" horiz-adv-x="1312" 
d="M524 1503v-561q141 133 299 133t248 -83t90 -265v-647l127 -45v-35h-569v35l98 45v682q0 147 -147 147q-88 0 -146 -45v-784l97 -45v-35h-568v35l127 45v1292l-129 23v41l398 67h75z" />
    <glyph glyph-name="i" unicode="i" horiz-adv-x="684" 
d="M524 1075v-995l127 -45v-35h-598v35l127 45v844l-129 22v41l398 88h75zM345 1178q-93 0 -140 44t-47 118q0 73 47 118t140 45t141 -45t48 -118q0 -74 -48 -118t-141 -44z" />
    <glyph glyph-name="j" unicode="j" horiz-adv-x="661" 
d="M349 1178q-93 0 -140 44t-47 118q0 73 47 118t140 45t141 -45t48 -118q0 -74 -48 -118t-141 -44zM528 1075v-1214q-78 -94 -216 -159t-310 -64q-70 0 -143 12q-8 47 5 108t30 101l16 39h125q2 -121 53 -187q72 33 96 70v1143l-149 22v41l418 88h75z" />
    <glyph glyph-name="k" unicode="k" horiz-adv-x="1269" 
d="M524 1503v-854h51l390 336l-117 39v31h369v-31l-109 -49l-289 -242l221 -356q61 -98 88 -139t81 -108t102 -95v-35h-379q-113 55 -197 213l-182 334h-29v-467l97 -45v-35h-568v35l127 45v1292l-129 23v41l398 67h75z" />
    <glyph glyph-name="l" unicode="l" horiz-adv-x="684" 
d="M524 1503v-1423l127 -45v-35h-598v35l127 45v1292l-129 23v41l398 67h75z" />
    <glyph glyph-name="m" unicode="m" horiz-adv-x="1933" 
d="M516 1075v-133h8q141 133 323 133t261 -143h8q160 143 346 143q140 0 230 -83t90 -265v-647l127 -45v-35h-570v35l99 45v682q0 147 -144 147q-86 0 -155 -57q14 -63 14 -125v-647l96 -45v-35h-538v35l98 45v682q0 147 -143 147q-86 0 -142 -45v-784l97 -45v-35h-568v35
l127 45v844l-129 22v41l398 88h67z" />
    <glyph glyph-name="n" unicode="n" horiz-adv-x="1312" 
d="M516 1075v-133h8q141 133 299 133t248 -83t90 -265v-647l127 -45v-35h-569v35l98 45v682q0 147 -147 147q-88 0 -146 -45v-784l97 -45v-35h-568v35l127 45v844l-129 22v41l398 88h67z" />
    <glyph glyph-name="o" unicode="o" horiz-adv-x="1185" 
d="M599 68q97 0 136 108t39 348q0 238 -44 350t-142 111t-137 -109t-39 -348t45 -350t142 -110zM601 1075q249 0 391 -141q142 -142 142 -400t-150 -406t-398 -148t-391 141t-144 399q1 258 151 406t399 149z" />
    <glyph glyph-name="p" unicode="p" horiz-adv-x="1282" 
d="M664 909q-97 0 -150 -45v-690q82 -100 180 -100t137 104t39 330t-54 314q-55 87 -152 87zM506 1075v-131h8q141 131 302 131t276 -99q63 -54 101 -163t38 -260q0 -262 -150 -418t-393 -155q-94 0 -174 26v-268q13 -3 172 -45v-35h-663v35l147 45v1192l-150 22v35l398 88
h88z" />
    <glyph glyph-name="q" unicode="q" horiz-adv-x="1249" 
d="M412 546q0 -227 54 -314t153 -87q98 0 149 43v691q-88 102 -183 102t-134 -104t-39 -331zM1260 -342h-664v35l172 45v373q-139 -131 -301 -131t-277 99q-63 54 -101 163t-38 260q0 262 150 418t393 155q150 0 272 -74l213 80l33 -26v-1317l148 -45v-35z" />
    <glyph glyph-name="r" unicode="r" horiz-adv-x="991" 
d="M717 0h-664v35l148 45v850l-150 22v35l418 88h68v-160h8q133 160 332 160q43 0 94 -10q-1 -86 -17 -174t-32 -133l-15 -47h-151q-8 131 -54 200q-88 -29 -157 -90v-741q13 -3 172 -45v-35z" />
    <glyph glyph-name="s" unicode="s" horiz-adv-x="952" 
d="M63 135q0 114 -18 180l-6 25l43 18q12 -6 32 -20t69 -74q48 -60 77 -141q94 -53 182 -53q160 0 160 163q0 96 -100 134l-154 57q-256 94 -256 319q0 162 122 247t282 85q78 1 200 -23t164 -24v-88q0 -80 19 -129l6 -20l-33 -19q-4 2 -13 6q-73 33 -125 107q-26 35 -44 73
q-68 29 -132 29t-104 -35t-39 -100q0 -92 88 -127l142 -53q145 -55 216 -130t70 -194q-1 -168 -121 -268t-318 -100t-409 92v63z" />
    <glyph glyph-name="t" unicode="t" horiz-adv-x="841" 
d="M20 975v51l156 27l215 282h117v-280h258v-80h-258v-838q55 -53 135 -53t166 61l33 -43q-129 -122 -327 -122t-349 131v864h-146z" />
    <glyph glyph-name="u" unicode="u" horiz-adv-x="1304" 
d="M498 1075v-848q37 -82 132 -82t152 45v734l-129 22v41l398 88h75v-995l127 -45v-35h-440l-20 113h-11q-137 -133 -311 -133q-242 0 -317 200v744l-129 22v41l397 88h76z" />
    <glyph glyph-name="v" unicode="v" horiz-adv-x="1161" 
d="M-41 1055h578v-35l-93 -43l258 -610h9l233 612l-82 43v33h320v-33l-105 -45l-411 -997h-134l-475 997l-98 45v33z" />
    <glyph glyph-name="w" unicode="w" horiz-adv-x="1736" 
d="M-41 1055h549v-35l-72 -43l197 -598h6l158 489l-39 93l71 94h283l240 -676h6l174 600l-72 43v33h297v-33l-104 -45l-326 -997h-147l-318 735l-258 -735h-147l-400 997l-98 45v33z" />
    <glyph glyph-name="x" unicode="x" horiz-adv-x="1210" 
d="M623 0v35l90 37l-215 313l-269 -313l84 -41v-31h-333v31l104 49l354 393l-346 506l-86 43v33h598v-31l-86 -37l182 -270l230 266l-76 39v33h320v-31l-99 -49l-319 -338l385 -567l90 -37v-33h-608z" />
    <glyph glyph-name="y" unicode="y" horiz-adv-x="1161" 
d="M-41 1055h578v-35l-93 -43l285 -610h8l207 612l-82 43v33h320v-33l-105 -45l-362 -959q-143 -381 -443 -380q-98 0 -182 32q-21 131 31 236l20 39h129q4 -125 47 -201q150 0 250 231l-510 1002l-98 45v33z" />
    <glyph glyph-name="z" unicode="z" horiz-adv-x="1028" 
d="M952 1055v-66l-518 -903h342q27 78 73 150t81 104l33 35l34 -10q-23 -135 -22 -299v-66h-946v66l534 903h-264q-25 -72 -72 -133t-84 -88l-34 -27l-33 16q23 106 22 252v66h854z" />
    <glyph glyph-name="braceleft" unicode="{" horiz-adv-x="696" 
d="M545 -272q-193 0 -284 82t-79 258l21 313q8 125 -21 164t-131 49v43q102 10 131 49t21 164l-21 313q-12 176 79 258t284 82q33 0 110 -8v-51l-43 -4q-48 -4 -76 -14t-48 -46q-20 -35 -15 -96l21 -305q15 -248 -120 -309q-62 -29 -186 -49v-11q124 -20 186 -49
q135 -63 120 -309l-21 -305q-6 -84 27 -117t98 -39l57 -4v-51q-78 -8 -110 -8z" />
    <glyph glyph-name="bar" unicode="|" horiz-adv-x="475" 
d="M291 -342h-107v1825h107v-1825z" />
    <glyph glyph-name="braceright" unicode="}" horiz-adv-x="696" 
d="M152 1503q194 0 284 -82t78 -258l-20 -313q-8 -125 20 -164t131 -49v-43q-102 -10 -131 -49t-20 -164l20 -313q12 -176 -79 -258t-283 -82q-33 0 -111 8v51l57 4q66 6 99 39q32 33 26 117l-20 305q-15 249 120 309q62 29 185 49v11q-123 20 -185 49q-137 64 -120 309
l20 305q6 88 -29 118q-36 30 -110 38l-43 4v51q78 8 111 8z" />
    <glyph glyph-name="asciitilde" unicode="~" horiz-adv-x="1214" 
d="M876 500q-80 0 -226 68t-216 69q-137 0 -258 -141l-94 84q57 96 152 154t202 58q108 0 260 -69q152 -70 193 -70q88 0 158 90l86 -84q-39 -71 -108 -115t-149 -44z" />
    <glyph glyph-name="DEL" horiz-adv-x="0" 
 />
    <glyph glyph-name="uni00A0" unicode="&#xa0;" horiz-adv-x="423" 
 />
    <glyph glyph-name="exclamdown" unicode="&#xa1;" horiz-adv-x="616" 
d="M123 898q0 75 52 126t136 51t136 -51q53 -51 53 -127t-52 -127t-138 -51q-85 0 -136 52t-51 127zM308 -356q-73 0 -128 37t-67 106l180 807h35l178 -807q-12 -71 -68 -107t-130 -36z" />
    <glyph glyph-name="cent" unicode="&#xa2;" horiz-adv-x="1157" 
d="M457 694q0 -307 149 -397v778q-149 -74 -149 -381zM702 -20h-96v120q-231 18 -363 156t-132 374q0 238 140 384t355 174v141h96v-135q98 -2 194 -31t151 -76q-3 -69 -23 -133t-41 -94l-18 -33h-117q-10 150 -66 254q-39 14 -77 15h-3v-834q37 -4 62 -4q135 0 278 125
l39 -29q-125 -242 -379 -256v-118z" />
    <glyph glyph-name="sterling" unicode="&#xa3;" horiz-adv-x="1292" 
d="M786 1329q102 0 406 -41v-114q0 -62 20 -179l9 -34l-41 -19q-15 5 -50 32q-116 88 -151 216q-74 39 -160 39q-123 0 -170 -95t-47 -276v-143h223v-97h-223v-159q0 -244 -156 -365h562q10 96 56 177t87 114l39 35l41 -8q-23 -184 -23 -277v-135h-1108v35l136 41
q10 59 10 246v296h-144v97h144v98q0 133 46 235t124 162q78 59 173 89t197 30z" />
    <glyph glyph-name="yen" unicode="&#xa5;" horiz-adv-x="1441" 
d="M270 668v96h201l-285 467l-125 45v33h672v-33l-135 -43l260 -467h6l283 467l-133 43v33h409v-33l-127 -45l-288 -467h225v-96h-285l-14 -23v-123h299v-96h-299v-346l143 -45v-35h-655v35l143 45v346h-295v96h295v86l-37 60h-258z" />
    <glyph glyph-name="brokenbar" unicode="&#xa6;" horiz-adv-x="460" 
d="M297 758h-133v725h133v-725zM297 -252h-133v725h133v-725z" />
    <glyph glyph-name="section" unicode="&#xa7;" horiz-adv-x="1245" 
d="M391 618q0 -123 162 -163l295 -76l57 -19q6 31 6 70q0 123 -161 164l-295 76q-33 6 -60 18q-4 -23 -4 -70zM1182 571q0 -172 -146 -295q104 -98 105 -256q-1 -194 -149 -288t-361 -94q-92 0 -247 28t-200 35v115q0 59 -20 159l-8 33l53 12q89 -30 145 -125q25 -42 39 -94
q113 -59 229 -59t170 47t54 125q0 111 -117 139l-229 56q-197 47 -288 137t-91 231q0 172 143 293q-102 102 -102 258q0 193 148 288t362 95q92 0 247 -29t199 -34v-115q0 -67 21 -160l8 -33l-53 -12q-6 2 -16 5q-73 23 -130 121q-25 42 -39 93q-113 59 -229 59t-169 -46
q-54 -47 -54 -125q0 -111 116 -140l230 -55q197 -48 288 -138t91 -231z" />
    <glyph glyph-name="dieresis" unicode="&#xa8;" horiz-adv-x="677" 
d="M641 1346q0 -56 -37 -94t-95 -38t-96 38t-38 94t38 94q38 39 96 39t95 -39t37 -94zM303 1346q0 -56 -37 -94t-95 -38t-96 38t-38 94t38 94q38 39 96 39t95 -39t37 -94z" />
    <glyph glyph-name="copyright" unicode="&#xa9;" horiz-adv-x="1568" 
d="M795 217q-207 0 -333 125t-126 346t143 348t367 127q63 0 145 -15t111 -15v-68q0 -91 12 -160l6 -24l-33 -17q-48 24 -77 57q-65 75 -92 164q-25 6 -60 7q-94 0 -150 -96t-56 -268q0 -171 60 -266t179 -95q57 -1 106 23t72 46t51 62l37 -19q-33 -111 -128 -187t-234 -75z
M795 1350q-263 0 -451 -193t-188 -463t187 -462t451 -191q264 0 453 191q189 192 189 462t-188 463t-453 193zM80 694q0 297 209 507t506 210t507 -210t210 -507t-210 -506q-210 -208 -507 -208t-506 208t-209 506z" />
    <glyph glyph-name="ordfeminine" unicode="&#xaa;" horiz-adv-x="743" 
d="M303 926q0 -47 23 -47q14 0 43 16v14q0 104 2 162q-56 -16 -68 -20v-125zM610 872q31 0 56 52l20 -6q-37 -131 -176 -132q-96 0 -129 68q-63 -68 -158 -68q-61 0 -102 33t-41 103v75q80 78 291 121v43q-1 67 -15 91t-43 24t-49 -8q-21 -28 -31 -109v-24h-98
q-31 27 -43 102q33 33 105 63t147 29q248 0 248 -203l-4 -225q0 -29 22 -29z" />
    <glyph glyph-name="guillemotleft" unicode="&#xab;" horiz-adv-x="989" 
d="M451 496v51l421 401h76l-231 -424l231 -430h-76zM41 496v51l422 401h76l-232 -424l232 -430h-76z" />
    <glyph glyph-name="logicalnot" unicode="&#xac;" 
d="M82 537v131h876v-469h-133v338h-743z" />
    <glyph glyph-name="registered" unicode="&#xae;" horiz-adv-x="1316" 
d="M641 1092h-12v-279h49q70 35 70 137q-1 142 -107 142zM1001 528h-215q-49 20 -75 101l-47 145h-35v-211l45 -18v-17h-314v17l62 18v535l-62 20v15h342q256 0 256 -170q0 -111 -96 -150v-8l49 -121q47 -109 80 -131l10 -8v-17zM668 1352q-213 0 -364 -156
q-150 -156 -150 -375t150 -375t364 -156t364 156t150 375t-150 375t-364 156zM80 821q0 244 172 418t416 174t418 -174t174 -418q0 -243 -174 -415t-418 -172t-416 171q-172 172 -172 416z" />
    <glyph glyph-name="macron" unicode="&#xaf;" horiz-adv-x="688" 
d="M115 1292v99h479v-99h-479z" />
    <glyph glyph-name="degree" unicode="&#xb0;" horiz-adv-x="684" 
d="M184 1055q0 -76 52 -130q52 -55 118 -55q68 0 117 54t49 131q0 76 -49 130t-117 54t-119 -54t-51 -130zM80 1055q0 113 80 193t192 81q112 0 194 -81q81 -82 81 -194t-81 -192t-194 -80q-112 0 -192 80t-80 193z" />
    <glyph glyph-name="plusminus" unicode="&#xb1;" 
d="M82 0v131h876v-131h-876zM82 602v131h373v322h131v-322h372v-131h-372v-321h-131v321h-373z" />
    <glyph glyph-name="twosuperior" unicode="&#xb2;" horiz-adv-x="704" 
d="M371 1329q100 0 160 -52q61 -52 61 -135q2 -134 -124 -231q-48 -37 -75 -53t-88 -55v-4h209q14 33 42 57t46 31l21 8l18 -12q-12 -70 -12 -160v-57h-539l-10 41q291 254 291 405q1 72 -85 72t-149 -56l-26 19q80 182 260 182z" />
    <glyph glyph-name="threesuperior" unicode="&#xb3;" horiz-adv-x="671" 
d="M275 1217q-87 0 -158 -68l-23 18q74 162 262 162q104 0 162 -42t60 -109q0 -121 -197 -146v-2q227 -14 227 -166q0 -106 -87 -157t-223 -51t-218 57q0 37 19 81t44 64h41q2 -86 23 -141q49 -15 87 -15t66 35t27 91q0 56 -13 90q-13 35 -82 61q-20 6 -61 14l9 37
q61 8 92 28t30 81q0 78 -87 78z" />
    <glyph glyph-name="acute" unicode="&#xb4;" horiz-adv-x="585" 
d="M317 1536h35l150 -174l-393 -172l-27 29z" />
    <glyph glyph-name="mu" unicode="&#xb5;" horiz-adv-x="1304" 
d="M498 1075v-848q37 -82 132 -82t152 45v734l-129 22v41l398 88h75v-995l127 -45v-35h-440l-20 113h-11q-131 -129 -299 -133l54 -322h-383v1266l-129 22v41l397 88h76z" />
    <glyph glyph-name="paragraph" unicode="&#xb6;" horiz-adv-x="1212" 
d="M987 158q0 -298 -171 -410t-396 -110q-96 0 -203 18q-9 72 13 152t49 122l26 43h103q-12 -170 51 -252q74 7 133 37q59 29 90 68t55 117q25 78 25 182v1266h389v-35l-164 -45v-1153zM637 1391v-1127q-295 -2 -451 159t-156 405t170 404q169 159 437 159z" />
    <glyph glyph-name="periodcentered" unicode="&#xb7;" horiz-adv-x="466" 
d="M45 663q0 75 51 127t136 52q86 0 138 -51t52 -127t-52 -127t-136 -51t-137 50q-52 52 -52 127z" />
    <glyph glyph-name="cedilla" unicode="&#xb8;" horiz-adv-x="557" 
d="M518 -218q0 -146 -257 -144q-126 0 -210 63l23 45q70 -35 152 -35t81 49q0 38 -34 56t-115 37v8l110 170h90l-71 -113q115 0 173 -32t58 -104z" />
    <glyph glyph-name="onesuperior" unicode="&#xb9;" horiz-adv-x="563" 
d="M190 1176h-10q-36 0 -60 14t-32 31l-8 14v18q197 14 303 78l25 -16v-602l92 -31v-16h-398v16l88 29v465z" />
    <glyph glyph-name="ordmasculine" unicode="&#xba;" horiz-adv-x="739" 
d="M383 838q68 0 68 220t-72 220q-39 0 -52 -51t-13 -168t14 -169q16 -52 55 -52zM80 1055q0 127 84 201t221 73q137 0 217 -71q80 -70 80 -198t-83 -201t-221 -73t-218 71t-80 198z" />
    <glyph glyph-name="guillemotright" unicode="&#xbb;" horiz-adv-x="989" 
d="M948 547v-51l-422 -402h-75l231 430l-231 424h75zM539 547v-51l-422 -402h-76l231 430l-231 424h76z" />
    <glyph glyph-name="onequarter" unicode="&#xbc;" horiz-adv-x="1228" 
d="M209 0h-111l975 1309h109zM190 1176h-10q-36 0 -60 14t-32 31l-8 14v18q197 14 303 78l25 -16v-602l92 -31v-16h-398v16l88 29v465zM811 205v256h-4l-174 -256h178zM551 158v18l328 477h151v-448h74v-47h-74v-119l68 -23v-16h-367v16l80 23v119h-260z" />
    <glyph glyph-name="onehalf" unicode="&#xbd;" horiz-adv-x="1271" 
d="M209 0h-111l975 1309h109zM190 1176h-10q-36 0 -60 14t-32 31l-8 14v18q197 14 303 78l25 -16v-602l92 -31v-16h-398v16l88 29v465zM1159 469q0 -129 -125 -223q-48 -37 -74 -53t-88 -56v-4h209q14 33 42 57t48 31l19 8l18 -12q-12 -70 -12 -160v-57h-539l-10 41
q291 254 291 405q0 72 -85 72t-148 -55l-27 18q80 182 260 183q100 0 160 -52t61 -143z" />
    <glyph glyph-name="threequarters" unicode="&#xbe;" horiz-adv-x="1275" 
d="M256 0h-111l975 1309h109zM275 1217q-87 0 -158 -68l-23 18q74 162 262 162q104 0 162 -42t60 -109q0 -121 -197 -146v-2q227 -14 227 -166q0 -106 -87 -157t-223 -51t-218 57q0 37 19 81t44 64h41q2 -86 23 -141q49 -15 87 -15t66 35t27 91q0 56 -13 90q-13 35 -82 61
q-20 6 -61 14l9 37q61 8 92 28t30 81q0 78 -87 78zM842 205v256h-4l-174 -256h178zM582 158v18l327 477h152v-448h74v-47h-74v-119l67 -23v-16h-366v16l80 23v119h-260z" />
    <glyph glyph-name="questiondown" unicode="&#xbf;" 
d="M604 1075q84 0 136 -51t53 -126q-1 -75 -53 -127t-136 -52t-136 51t-52 127t52 127t136 51zM61 12q0 176 128 287t317 154l80 141h51l170 -287q-45 1 -139 -33q-180 -64 -225 -133q-46 -69 -48 -149q0 -248 226 -248q35 0 79 10q75 124 111 252l14 43h93q29 -51 47 -120
t12 -124q-156 -162 -449 -161q-207 0 -337 96t-130 272z" />
    <glyph glyph-name="Agrave" unicode="&#xc0;" horiz-adv-x="1484" 
d="M571 1872h35l236 -318l-27 -28l-393 172zM618 954h-10l-194 -483h403zM1505 0h-661v33l135 43l-127 307h-475l-123 -307l133 -43v-33h-407v33l129 45l555 1313l155 20l563 -1333l123 -45v-33z" />
    <glyph glyph-name="Aacute" unicode="&#xc1;" horiz-adv-x="1484" 
d="M877 1872h34l150 -174l-393 -172l-27 28zM618 954h-10l-194 -483h403zM1505 0h-661v33l135 43l-127 307h-475l-123 -307l133 -43v-33h-407v33l129 45l555 1313l155 20l563 -1333l123 -45v-33z" />
    <glyph glyph-name="Acircumflex" unicode="&#xc2;" horiz-adv-x="1484" 
d="M727 1833h37l270 -297l-20 -29l-269 115l-268 -115l-20 29zM618 954h-10l-194 -483h403zM1505 0h-661v33l135 43l-127 307h-475l-123 -307l133 -43v-33h-407v33l129 45l555 1313l155 20l563 -1333l123 -45v-33z" />
    <glyph glyph-name="Atilde" unicode="&#xc3;" horiz-adv-x="1484" 
d="M893 1548q-66 0 -166 45t-156 47q-66 -25 -151 -118l-17 8q15 210 107 266q42 27 108 27t158 -41t142 -43q74 29 131 108l20 -10q4 -121 -38 -205t-138 -84zM618 954h-10l-194 -483h403zM1505 0h-661v33l135 43l-127 307h-475l-123 -307l133 -43v-33h-407v33l129 45
l555 1313l155 20l563 -1333l123 -45v-33z" />
    <glyph glyph-name="Adieresis" unicode="&#xc4;" horiz-adv-x="1484" 
d="M778 1681q0 55 38 95t96 39q58 0 96 -39q38 -38 36 -94q0 -56 -37 -94t-95 -38t-96 38t-38 93zM440 1681q0 55 38 95t96 39q58 0 96 -39q38 -38 37 -94q1 -56 -37 -94t-96 -38t-96 38t-38 93zM618 954h-10l-194 -483h403zM1505 0h-661v33l135 43l-127 307h-475l-123 -307
l133 -43v-33h-407v33l129 45l555 1313l155 20l563 -1333l123 -45v-33z" />
    <glyph glyph-name="Aring" unicode="&#xc5;" horiz-adv-x="1484" 
d="M760 1540q80 0 80 129t-92 129q-82 0 -82 -129t94 -129zM756 1837q116 0 184 -43t68 -124t-71 -126t-187 -45t-184 44t-68 124t71 125q72 45 187 45zM618 954h-10l-194 -483h403zM1505 0h-661v33l135 43l-127 307h-475l-123 -307l133 -43v-33h-407v33l129 45l555 1313
l155 20l563 -1333l123 -45v-33z" />
    <glyph glyph-name="AE" unicode="&#xc6;" horiz-adv-x="2023" 
d="M918 1296h-7l-434 -804h441v804zM1913 1391v-54q0 -122 16 -278l6 -39l-41 -14l-33 33q-22 22 -71 98t-78 159h-426v-548l408 16l41 96h47v-303h-39l-47 96l-410 17v-576h473q23 74 68 152t78 119l34 38l43 -12q-23 -158 -22 -315v-76h-1186v35l144 45v323h-488
l-176 -327l133 -43v-33h-407v33l108 45l735 1313h1090z" />
    <glyph glyph-name="Ccedilla" unicode="&#xc7;" horiz-adv-x="1282" 
d="M594 -289q82 0 82 49q0 38 -34 56t-116 37v8l82 127q-260 33 -408 210t-149 478q0 344 206 540t534 195q98 -1 225 -23t170 -22v-100q0 -146 22 -240l9 -35l-54 -22l-18 12q-32 21 -83 78q-93 104 -130 223q-57 23 -141 23q-165 0 -259 -153q-94 -152 -94 -428t102 -413
t258 -137q155 0 253 60t176 155l35 -22q-37 -129 -156 -250q-62 -61 -160 -99t-217 -38h-35l-39 -62q115 0 173 -32t58 -104t-65 -108t-191 -36t-210 63l22 45q70 -35 152 -35z" />
    <glyph glyph-name="Egrave" unicode="&#xc8;" horiz-adv-x="1310" 
d="M522 1872h35l236 -318l-27 -28l-393 172zM61 1391h1139v-54q0 -145 17 -278l6 -39l-41 -14l-34 34t-71 97q-49 76 -78 159h-426v-548l408 16l41 96h47v-303h-39l-47 96l-410 17v-576h474q23 74 67 152q45 78 78 119l35 38l43 -12q-23 -158 -23 -315v-76h-1186v35l144 45
v1231l-144 45v35z" />
    <glyph glyph-name="Eacute" unicode="&#xc9;" horiz-adv-x="1310" 
d="M61 1391h1139v-54q0 -145 17 -278l6 -39l-41 -14l-34 34t-71 97q-49 76 -78 159h-426v-548l408 16l41 96h47v-303h-39l-47 96l-410 17v-576h474q23 74 67 152q45 78 78 119l35 38l43 -12q-23 -158 -23 -315v-76h-1186v35l144 45v1231l-144 45v35zM838 1872h34l150 -174
l-393 -172l-27 28z" />
    <glyph glyph-name="Ecircumflex" unicode="&#xca;" horiz-adv-x="1310" 
d="M61 1391h1139v-54q0 -145 17 -278l6 -39l-41 -14l-34 34t-71 97q-49 76 -78 159h-426v-548l408 16l41 96h47v-303h-39l-47 96l-410 17v-576h474q23 74 67 152q45 78 78 119l35 38l43 -12q-23 -158 -23 -315v-76h-1186v35l144 45v1231l-144 45v35zM649 1833h37l270 -297
l-20 -29l-268 115l-269 -115l-20 29z" />
    <glyph glyph-name="Edieresis" unicode="&#xcb;" horiz-adv-x="1310" 
d="M61 1391h1139v-54q0 -145 17 -278l6 -39l-41 -14l-34 34t-71 97q-49 76 -78 159h-426v-548l408 16l41 96h47v-303h-39l-47 96l-410 17v-576h474q23 74 67 152q45 78 78 119l35 38l43 -12q-23 -158 -23 -315v-76h-1186v35l144 45v1231l-144 45v35zM698 1681q0 55 38 95
t96 39q58 0 96 -39q38 -38 37 -94q1 -56 -37 -94t-96 -38t-96 38t-38 93zM495 1550q-58 0 -97 38q-38 38 -38 93t38 95t96 39q58 0 96 -39q37 -38 37 -94t-37 -94t-95 -38z" />
    <glyph glyph-name="Igrave" unicode="&#xcc;" horiz-adv-x="778" 
d="M231 1872h35l236 -318l-27 -28l-393 172zM61 1391h656v-35l-144 -45v-1231l144 -45v-35h-656v35l144 45v1231l-144 45v35z" />
    <glyph glyph-name="Iacute" unicode="&#xcd;" horiz-adv-x="778" 
d="M526 1872h35l150 -174l-394 -172l-26 28zM61 1391h656v-35l-144 -45v-1231l144 -45v-35h-656v35l144 45v1231l-144 45v35z" />
    <glyph glyph-name="Icircumflex" unicode="&#xce;" horiz-adv-x="778" 
d="M383 1833h37l270 -297l-20 -29l-269 115l-268 -115l-20 29zM61 1391h656v-35l-144 -45v-1231l144 -45v-35h-656v35l144 45v1231l-144 45v35z" />
    <glyph glyph-name="Idieresis" unicode="&#xcf;" horiz-adv-x="778" 
d="M432 1681q0 55 38 95t96 39q58 0 96 -39q38 -38 36 -94q0 -56 -37 -94t-95 -38t-96 38t-38 93zM94 1681q0 55 38 95t96 39q58 0 96 -39q38 -38 36 -94q0 -56 -37 -94t-95 -38t-96 38t-38 93zM61 1391h656v-35l-144 -45v-1231l144 -45v-35h-656v35l144 45v1231l-144 45v35
z" />
    <glyph glyph-name="Eth" unicode="&#xd0;" horiz-adv-x="1564" 
d="M750 1296h-177v-514h195v-92h-195v-596h205q346 0 346 598q0 284 -98 444t-276 160zM86 690v92h119v529l-144 45v35h707q348 -1 547 -181t199 -507t-206 -515t-548 -188h-699v35l144 45v610h-119z" />
    <glyph glyph-name="Ntilde" unicode="&#xd1;" horiz-adv-x="1468" 
d="M879 1548q-66 0 -166 45t-156 47q-66 -25 -151 -118l-17 8q15 210 107 266q42 27 108 27t158 -41t141 -43q74 29 131 108l21 -10q4 -121 -38 -205t-138 -84zM1018 1391h409v-33l-139 -43v-1315h-123l-829 930v-854l137 -43v-33h-412v33l140 43v1239l-140 43v33h353
l741 -836v760l-137 43v33z" />
    <glyph glyph-name="Ograve" unicode="&#xd2;" horiz-adv-x="1480" 
d="M588 1872h35l235 -318l-27 -28l-393 172zM727 1319q-151 0 -219 -159t-68 -461t82 -465q82 -162 234 -162t218 158t66 458q0 301 -80 466t-233 165zM51 685q1 337 189 531t506 195q318 0 500 -186q182 -187 184 -523q0 -336 -188 -530t-506 -192q-318 0 -502 184
q-183 184 -183 521z" />
    <glyph glyph-name="Oacute" unicode="&#xd3;" horiz-adv-x="1480" 
d="M727 1319q-151 0 -219 -159t-68 -461t82 -465q82 -162 234 -162t218 158t66 458q0 301 -80 466t-233 165zM51 685q1 337 189 531t506 195q318 0 500 -186q182 -187 184 -523q0 -336 -188 -530t-506 -192q-318 0 -502 184q-183 184 -183 521zM887 1872h35l149 -174
l-393 -172l-27 28z" />
    <glyph glyph-name="Ocircumflex" unicode="&#xd4;" horiz-adv-x="1480" 
d="M727 1319q-151 0 -219 -159t-68 -461t82 -465q82 -162 234 -162t218 158t66 458q0 301 -80 466t-233 165zM51 685q1 337 189 531t506 195q318 0 500 -186q182 -187 184 -523q0 -336 -188 -530t-506 -192q-318 0 -502 184q-183 184 -183 521zM743 1833h37l271 -297
l-21 -29l-268 115l-268 -115l-21 29z" />
    <glyph glyph-name="Otilde" unicode="&#xd5;" horiz-adv-x="1480" 
d="M891 1548q-66 0 -166 45t-156 47q-66 -25 -151 -118l-17 8q15 210 107 266q42 27 108 27t158 -41t141 -43q74 29 132 108l20 -10q4 -121 -38 -205t-138 -84zM727 1319q-151 0 -219 -159t-68 -461t82 -465q82 -162 234 -162t218 158t66 458q0 301 -80 466t-233 165z
M51 685q1 337 189 531t506 195q318 0 500 -186q182 -187 184 -523q0 -336 -188 -530t-506 -192q-318 0 -502 184q-183 184 -183 521z" />
    <glyph glyph-name="Odieresis" unicode="&#xd6;" horiz-adv-x="1480" 
d="M727 1319q-151 0 -219 -159t-68 -461t82 -465q82 -162 234 -162t218 158t66 458q0 301 -80 466t-233 165zM51 685q1 337 189 531t506 195q318 0 500 -186q182 -187 184 -523q0 -336 -188 -530t-506 -192q-318 0 -502 184q-183 184 -183 521zM929 1550q-58 0 -96 38
t-38 93t38 95t96 39q58 0 95 -39q37 -38 37 -94t-37 -94t-95 -38zM591 1550q-58 0 -96 38t-38 93t38 95t96 39q58 0 95 -39q37 -38 37 -94t-37 -94t-95 -38z" />
    <glyph glyph-name="multiply" unicode="&#xd7;" horiz-adv-x="886" 
d="M176 246l-94 94l262 262l-254 256l94 94l254 -256l262 262l95 -94l-263 -262l273 -270l-94 -94l-273 270z" />
    <glyph glyph-name="Oslash" unicode="&#xd8;" horiz-adv-x="1480" 
d="M727 1319q-151 0 -219 -159t-68 -468q0 -162 25 -284l516 696q-82 215 -254 215zM1040 692q0 156 -26 289l-516 -696q82 -213 258 -213q152 0 218 158t66 462zM745 1411q233 0 390 -98l73 98h125l-116 -158q213 -191 213 -539t-188 -542t-505 -192q-233 0 -393 98
l-72 -98h-127l117 157q-211 185 -211 535q1 350 189 544t505 195z" />
    <glyph glyph-name="Ugrave" unicode="&#xd9;" horiz-adv-x="1546" 
d="M676 1872h35l235 -318l-26 -28l-394 172zM1219 428v883l-144 45v35h430v-35l-143 -45v-1037q-82 -145 -212 -220q-130 -74 -344 -74t-385 80t-237 216v1035l-143 45v35h655v-35l-143 -45v-897q0 -152 81 -231q80 -79 232 -79t252 88t101 236z" />
    <glyph glyph-name="Uacute" unicode="&#xda;" horiz-adv-x="1546" 
d="M1219 428v883l-144 45v35h430v-35l-143 -45v-1037q-82 -145 -212 -220q-130 -74 -344 -74t-385 80t-237 216v1035l-143 45v35h655v-35l-143 -45v-897q0 -152 81 -231q80 -79 232 -79t252 88t101 236zM958 1872h35l150 -174l-393 -172l-27 28z" />
    <glyph glyph-name="Ucircumflex" unicode="&#xdb;" horiz-adv-x="1546" 
d="M1219 428v883l-144 45v35h430v-35l-143 -45v-1037q-82 -145 -212 -220q-130 -74 -344 -74t-385 80t-237 216v1035l-143 45v35h655v-35l-143 -45v-897q0 -152 81 -231q80 -79 232 -79t252 88t101 236zM858 1833h37l270 -297l-20 -29l-268 115l-269 -115l-20 29z" />
    <glyph glyph-name="Udieresis" unicode="&#xdc;" horiz-adv-x="1546" 
d="M1219 428v883l-144 45v35h430v-35l-143 -45v-1037q-82 -145 -212 -220q-130 -74 -344 -74t-385 80t-237 216v1035l-143 45v35h655v-35l-143 -45v-897q0 -152 81 -231q80 -79 232 -79t252 88t101 236zM864 1681q0 55 38 95t96 39q58 0 96 -39q38 -38 36 -94q0 -56 -37 -94
t-95 -38t-96 38t-38 93zM661 1550q-58 0 -97 38q-38 38 -38 93t38 95t96 39q58 0 96 -39q37 -38 37 -94t-37 -94t-95 -38z" />
    <glyph glyph-name="Yacute" unicode="&#xdd;" horiz-adv-x="1402" 
d="M918 1872h34l150 -174l-393 -172l-27 28zM-20 1391h671v-33l-135 -43l313 -549h5l313 549l-133 43v33h409v-33l-127 -45l-403 -688v-545l143 -45v-35h-655v35l143 45v538l-420 695l-124 45v33z" />
    <glyph glyph-name="Thorn" unicode="&#xde;" horiz-adv-x="1366" 
d="M651 326h60q115 0 178 94t63 268q0 340 -260 340h-119v-948l172 -45v-35h-684v35l144 45v1231l-144 45v35h656v-35l-144 -45v-189h170q266 0 429 -106t163 -314t-145 -332t-344 -124q-84 0 -195 35v45z" />
    <glyph glyph-name="germandbls" unicode="&#xdf;" horiz-adv-x="1421" 
d="M786 1503q166 0 290 -77t124 -209q0 -68 -41 -119t-89 -76q-130 -68 -130 -137q0 -54 117 -129l153 -107q102 -70 147 -143q44 -74 44 -178q0 -158 -111 -253t-266 -95t-297 51v100q0 51 -18 123l-7 25l35 8q14 -7 36 -19t68 -61t64 -113q53 -35 100 -35t80 35
q33 34 33 88q0 86 -61 148q-20 20 -64 55l-139 113q-43 32 -66 54t-49 72q-58 107 3 233q30 60 65 99q35 40 65 100t29 150q0 90 -43 149q-43 60 -121 60q-195 0 -194 -309v-1026l110 -45v-35h-602v35l148 45v887h-148v51l148 29v6q0 158 88 263t210 146q123 41 289 41z" />
    <glyph glyph-name="agrave" unicode="&#xe0;" horiz-adv-x="1169" 
d="M375 1536h35l235 -317l-27 -29l-393 172zM403 295q-1 -170 123 -170q62 0 123 45q-2 14 -2 55t1 157t1 177q-139 -37 -246 -104v-160zM897 -20q-174 0 -229 129q-125 -129 -291 -129q-131 0 -218 66t-87 212v117q166 172 579 258v100q0 133 -38 191t-134 59
q-53 0 -106 -27q-48 -73 -70 -215l-4 -45h-119q-74 84 -88 209q60 63 192 117t279 53q428 0 428 -391l-6 -522q0 -61 45 -62q33 0 62 45t43 101l55 -17q-32 -133 -102 -191t-191 -58z" />
    <glyph glyph-name="aacute" unicode="&#xe1;" horiz-adv-x="1169" 
d="M676 1536h35l149 -174l-393 -172l-27 29zM403 295q-1 -170 123 -170q62 0 123 45q-2 14 -2 55t1 157t1 177q-139 -37 -246 -104v-160zM897 -20q-174 0 -229 129q-125 -129 -291 -129q-131 0 -218 66t-87 212v117q166 172 579 258v100q0 133 -38 191t-134 59
q-53 0 -106 -27q-48 -73 -70 -215l-4 -45h-119q-74 84 -88 209q60 63 192 117t279 53q428 0 428 -391l-6 -522q0 -61 45 -62q33 0 62 45t43 101l55 -17q-32 -133 -102 -191t-191 -58z" />
    <glyph glyph-name="acircumflex" unicode="&#xe2;" horiz-adv-x="1169" 
d="M547 1497h37l270 -297l-20 -29l-269 115l-268 -115l-21 29zM403 295q-1 -170 123 -170q62 0 123 45q-2 14 -2 55t1 157t1 177q-139 -37 -246 -104v-160zM897 -20q-174 0 -229 129q-125 -129 -291 -129q-131 0 -218 66t-87 212v117q166 172 579 258v100q0 133 -38 191
t-134 59q-53 0 -106 -27q-48 -73 -70 -215l-4 -45h-119q-74 84 -88 209q60 63 192 117t279 53q428 0 428 -391l-6 -522q0 -61 45 -62q33 0 62 45t43 101l55 -17q-32 -133 -102 -191t-191 -58z" />
    <glyph glyph-name="atilde" unicode="&#xe3;" horiz-adv-x="1169" 
d="M723 1212q-66 0 -166 45t-156 48q-66 -25 -151 -119l-17 8q15 210 107 266q42 27 108 27t158 -41t142 -43q74 29 131 108l20 -10q4 -121 -38 -205t-138 -84zM403 295q-1 -170 123 -170q62 0 123 45q-2 14 -2 55t1 157t1 177q-139 -37 -246 -104v-160zM897 -20
q-174 0 -229 129q-125 -129 -291 -129q-131 0 -218 66t-87 212v117q166 172 579 258v100q0 133 -38 191t-134 59q-53 0 -106 -27q-48 -73 -70 -215l-4 -45h-119q-74 84 -88 209q60 63 192 117t279 53q428 0 428 -391l-6 -522q0 -61 45 -62q33 0 62 45t43 101l55 -17
q-32 -133 -102 -191t-191 -58z" />
    <glyph glyph-name="adieresis" unicode="&#xe4;" horiz-adv-x="1169" 
d="M740 1214q-58 0 -96 38t-38 94t38 94q38 39 96 39t96 -39t36 -94q0 -55 -36 -94q-38 -38 -96 -38zM402 1214q-58 0 -96 38t-38 94t38 94q38 39 96 39t96 -39t37 -94q0 -55 -37 -94q-38 -38 -96 -38zM403 295q-1 -170 123 -170q62 0 123 45q-2 14 -2 55t1 157t1 177
q-139 -37 -246 -104v-160zM897 -20q-174 0 -229 129q-125 -129 -291 -129q-131 0 -218 66t-87 212v117q166 172 579 258v100q0 133 -38 191t-134 59q-53 0 -106 -27q-48 -73 -70 -215l-4 -45h-119q-74 84 -88 209q60 63 192 117t279 53q428 0 428 -391l-6 -522q0 -61 45 -62
q33 0 62 45t43 101l55 -17q-32 -133 -102 -191t-191 -58z" />
    <glyph glyph-name="aring" unicode="&#xe5;" horiz-adv-x="1169" 
d="M551 1204q80 0 80 129t-92 129q-82 0 -82 -129t94 -129zM547 1501q115 0 183 -43t69 -124q0 -81 -71 -126q-70 -45 -186 -45t-185 44t-69 124t72 125t187 45zM403 295q-1 -170 123 -170q62 0 123 45q-2 14 -2 55t1 157t1 177q-139 -37 -246 -104v-160zM897 -20
q-174 0 -229 129q-125 -129 -291 -129q-131 0 -218 66t-87 212v117q166 172 579 258v100q0 133 -38 191t-134 59q-53 0 -106 -27q-48 -73 -70 -215l-4 -45h-119q-74 84 -88 209q60 63 192 117t279 53q428 0 428 -391l-6 -522q0 -61 45 -62q33 0 62 45t43 101l55 -17
q-32 -133 -102 -191t-191 -58z" />
    <glyph glyph-name="ae" unicode="&#xe6;" horiz-adv-x="1638" 
d="M1145 991q-154 0 -154 -397l283 16v37q0 344 -129 344zM514 125q104 0 203 90q-68 123 -68 305v39q-150 -43 -246 -104v-160q0 -86 31 -128t80 -42zM377 -20q-131 0 -218 66t-87 212v117q166 172 579 258v100q0 133 -38 191t-134 59q-53 0 -106 -27q-48 -73 -70 -215
l-4 -45h-119q-74 84 -88 209q60 63 192 117t279 53q201 0 299 -106q123 106 291 106q211 0 328 -130t116 -337v-90l-606 10q14 -391 262 -391q148 0 295 113l31 -27q-57 -104 -161 -174t-251 -69q-285 0 -419 188q-156 -188 -371 -188z" />
    <glyph glyph-name="ccedilla" unicode="&#xe7;" horiz-adv-x="980" 
d="M420 -289q82 0 82 49q0 38 -34 56t-116 37v8l86 133q-182 35 -284 169q-102 133 -102 371t156 390q157 152 384 151q102 -1 200 -29t154 -77q-2 -69 -22 -133t-39 -95l-21 -32h-116q-10 150 -66 254q-39 14 -78 14q-207 0 -207 -419t267 -419q135 0 278 125l39 -28
q-57 -111 -159 -184t-244 -72l-58 2l-39 -64q115 0 173 -32t58 -104t-65 -108t-191 -36t-210 63l22 45q70 -35 152 -35z" />
    <glyph glyph-name="egrave" unicode="&#xe8;" 
d="M379 1536h35l235 -317l-26 -29l-394 172zM547 991q-154 0 -154 -397l283 16v37q0 344 -129 344zM51 514q-1 258 147 410t358 152t327 -131q117 -130 116 -337v-90l-606 10q14 -391 262 -391q148 0 295 113l31 -27q-57 -104 -161 -174t-251 -69q-240 0 -379 138t-139 396z
" />
    <glyph glyph-name="eacute" unicode="&#xe9;" 
d="M547 991q-154 0 -154 -397l283 16v37q0 344 -129 344zM51 514q-1 258 147 410t358 152t327 -131q117 -130 116 -337v-90l-606 10q14 -391 262 -391q148 0 295 113l31 -27q-57 -104 -161 -174t-251 -69q-240 0 -379 138t-139 396zM713 1536h35l149 -174l-393 -172l-27 29z
" />
    <glyph glyph-name="ecircumflex" unicode="&#xea;" 
d="M547 991q-154 0 -154 -397l283 16v37q0 344 -129 344zM51 514q-1 258 147 410t358 152t327 -131q117 -130 116 -337v-90l-606 10q14 -391 262 -391q148 0 295 113l31 -27q-57 -104 -161 -174t-251 -69q-240 0 -379 138t-139 396zM514 1497h37l270 -297l-20 -29l-269 115
l-268 -115l-20 29z" />
    <glyph glyph-name="edieresis" unicode="&#xeb;" 
d="M547 991q-154 0 -154 -397l283 16v37q0 344 -129 344zM51 514q-1 258 147 410t358 152t327 -131q117 -130 116 -337v-90l-606 10q14 -391 262 -391q148 0 295 113l31 -27q-57 -104 -161 -174t-251 -69q-240 0 -379 138t-139 396zM697 1214q-58 0 -96 38t-38 94t38 94
q38 39 96 39q57 0 95 -39t38 -94t-37 -94q-38 -38 -96 -38zM359 1214q-58 0 -96 38t-38 94t38 94q38 39 96 39q57 0 95 -39t38 -94t-37 -94q-38 -38 -96 -38z" />
    <glyph glyph-name="igrave" unicode="&#xec;" horiz-adv-x="684" 
d="M225 1536h35l236 -317l-27 -29l-393 172zM524 1075v-995l127 -45v-35h-598v35l127 45v844l-129 22v41l398 88h75z" />
    <glyph glyph-name="iacute" unicode="&#xed;" horiz-adv-x="684" 
d="M524 1075v-995l127 -45v-35h-598v35l127 45v844l-129 22v41l398 88h75zM455 1536h34l150 -174l-393 -172l-27 29z" />
    <glyph glyph-name="icircumflex" unicode="&#xee;" horiz-adv-x="684" 
d="M524 1075v-995l127 -45v-35h-598v35l127 45v844l-129 22v41l398 88h75zM326 1497h36l271 -297l-21 -29l-268 115l-268 -115l-21 29z" />
    <glyph glyph-name="idieresis" unicode="&#xef;" horiz-adv-x="684" 
d="M524 1075v-995l127 -45v-35h-598v35l127 45v844l-129 22v41l398 88h75zM653 1346q0 -56 -37 -94t-95 -38t-96 38t-38 94t38 94q38 39 96 39t95 -39t37 -94zM183 1214q-58 0 -96 38t-38 94t38 94q38 39 96 39q57 0 95 -39t38 -94t-37 -94q-38 -38 -96 -38z" />
    <glyph glyph-name="eth" unicode="&#xf0;" horiz-adv-x="1185" 
d="M599 68q97 0 136 108t39 348q0 238 -44 348t-142 111t-137 -107t-39 -348t45 -350t142 -110zM1135 532q0 -256 -151 -404q-150 -148 -398 -148t-391 141t-144 399q0 258 151 406t398 149q61 0 121 -16q-27 96 -72 182l-157 -70l-27 58l151 67q-53 92 -131 177l27 30
q131 -53 244 -143l141 63l29 -59l-117 -53q158 -150 242 -357t84 -422z" />
    <glyph glyph-name="ntilde" unicode="&#xf1;" horiz-adv-x="1312" 
d="M813 1212q-66 0 -166 45t-155 48q-66 -25 -152 -119l-16 8q15 209 106 266q43 27 109 27q65 0 157 -41t142 -43q74 29 131 108l20 -10q4 -121 -38 -205t-138 -84zM516 1075v-133h8q141 133 299 133t248 -83t90 -265v-647l127 -45v-35h-569v35l98 45v682q0 147 -147 147
q-88 0 -146 -45v-784l97 -45v-35h-568v35l127 45v844l-129 22v41l398 88h67z" />
    <glyph glyph-name="ograve" unicode="&#xf2;" horiz-adv-x="1185" 
d="M430 1536h35l235 -317l-26 -29l-393 172zM599 68q97 0 136 108t39 348q0 238 -44 350t-142 111t-137 -109t-39 -348t45 -350t142 -110zM601 1075q249 0 391 -141q142 -142 142 -400t-150 -406t-398 -148t-391 141t-144 399q1 258 151 406t399 149z" />
    <glyph glyph-name="oacute" unicode="&#xf3;" horiz-adv-x="1185" 
d="M599 68q97 0 136 108t39 348q0 238 -44 350t-142 111t-137 -109t-39 -348t45 -350t142 -110zM601 1075q249 0 391 -141q142 -142 142 -400t-150 -406t-398 -148t-391 141t-144 399q1 258 151 406t399 149zM725 1536h35l149 -174l-393 -172l-27 29z" />
    <glyph glyph-name="ocircumflex" unicode="&#xf4;" horiz-adv-x="1185" 
d="M599 68q97 0 136 108t39 348q0 238 -44 350t-142 111t-137 -109t-39 -348t45 -350t142 -110zM601 1075q249 0 391 -141q142 -142 142 -400t-150 -406t-398 -148t-391 141t-144 399q1 258 151 406t399 149zM590 1497h37l270 -297l-20 -29l-269 115l-268 -115l-21 29z" />
    <glyph glyph-name="otilde" unicode="&#xf5;" horiz-adv-x="1185" 
d="M750 1212q-66 0 -166 45t-156 48q-66 -25 -152 -119l-16 8q15 210 107 266q43 27 109 27t157 -41q92 -41 141 -43q74 29 131 108l21 -10q4 -121 -38 -205t-138 -84zM599 68q97 0 136 108t39 348q0 238 -44 350t-142 111t-137 -109t-39 -348t45 -350t142 -110zM601 1075
q249 0 391 -141q142 -142 142 -400t-150 -406t-398 -148t-391 141t-144 399q1 258 151 406t399 149z" />
    <glyph glyph-name="odieresis" unicode="&#xf6;" horiz-adv-x="1185" 
d="M599 68q97 0 136 108t39 348q0 238 -44 350t-142 111t-137 -109t-39 -348t45 -350t142 -110zM601 1075q249 0 391 -141q142 -142 142 -400t-150 -406t-398 -148t-391 141t-144 399q1 258 151 406t399 149zM897 1346q0 -56 -37 -94t-95 -38t-96 38t-38 94t38 94
q38 39 96 39t95 -39t37 -94zM559 1346q0 -56 -37 -94t-95 -38t-96 38t-38 94t38 94q38 39 96 39t95 -39t37 -94z" />
    <glyph glyph-name="divide" unicode="&#xf7;" 
d="M385 273q0 55 40 95t95 40t95 -40t40 -94t-41 -95q-41 -40 -94 -40t-94 40t-41 94zM82 541v133h876v-133h-876zM385 941q0 54 40 94t95 40t95 -40t40 -94t-41 -94t-94 -40t-94 40t-41 94z" />
    <glyph glyph-name="oslash" unicode="&#xf8;" horiz-adv-x="1185" 
d="M412 524q0 -94 4 -135l338 399q-39 197 -166 197q-98 -1 -137 -109t-39 -352zM600 68q96 0 135 108t39 348q0 78 -6 142l-338 -400q39 -198 170 -198zM600 1075q190 0 324 -86l73 86h117l-121 -143q141 -144 141 -400t-150 -404q-151 -148 -396 -148q-197 0 -326 86
l-74 -86h-118l120 143q-139 143 -139 399q1 256 151 404t398 149z" />
    <glyph glyph-name="ugrave" unicode="&#xf9;" horiz-adv-x="1304" 
d="M449 1536h34l236 -317l-27 -29l-393 172zM498 1075v-848q37 -82 132 -82t152 45v734l-129 22v41l398 88h75v-995l127 -45v-35h-440l-20 113h-11q-137 -133 -311 -133q-242 0 -317 200v744l-129 22v41l397 88h76z" />
    <glyph glyph-name="uacute" unicode="&#xfa;" horiz-adv-x="1304" 
d="M498 1075v-848q37 -82 132 -82t152 45v734l-129 22v41l398 88h75v-995l127 -45v-35h-440l-20 113h-11q-137 -133 -311 -133q-242 0 -317 200v744l-129 22v41l397 88h76zM803 1536h35l149 -174l-393 -172l-27 29z" />
    <glyph glyph-name="ucircumflex" unicode="&#xfb;" horiz-adv-x="1304" 
d="M498 1075v-848q37 -82 132 -82t152 45v734l-129 22v41l398 88h75v-995l127 -45v-35h-440l-20 113h-11q-137 -133 -311 -133q-242 0 -317 200v744l-129 22v41l397 88h76zM629 1497h37l270 -297l-21 -29l-268 115l-268 -115l-21 29z" />
    <glyph glyph-name="udieresis" unicode="&#xfc;" horiz-adv-x="1304" 
d="M498 1075v-848q37 -82 132 -82t152 45v734l-129 22v41l398 88h75v-995l127 -45v-35h-440l-20 113h-11q-137 -133 -311 -133q-242 0 -317 200v744l-129 22v41l397 88h76zM952 1346q0 -56 -37 -94t-95 -38t-96 38t-38 94t38 94q38 39 96 39t95 -39t37 -94zM482 1214
q-58 0 -96 38t-38 94t38 94q38 39 96 39t96 -39t36 -94q0 -55 -36 -94q-38 -38 -96 -38z" />
    <glyph glyph-name="yacute" unicode="&#xfd;" horiz-adv-x="1161" 
d="M819 1536h35l150 -174l-394 -172l-26 29zM-41 1055h578v-35l-93 -43l285 -610h8l207 612l-82 43v33h320v-33l-105 -45l-362 -959q-143 -381 -443 -380q-98 0 -182 32q-21 131 31 236l20 39h129q4 -125 47 -201q150 0 250 231l-510 1002l-98 45v33z" />
    <glyph glyph-name="thorn" unicode="&#xfe;" horiz-adv-x="1282" 
d="M664 909q-97 0 -150 -45v-690q82 -100 180 -100t137 104t39 330t-54 314q-55 87 -152 87zM514 1503v-559q141 131 302 131t276 -99q63 -54 101 -163t38 -260q0 -262 -150 -418t-393 -155q-94 0 -174 26v-268q13 -3 172 -45v-35h-663v35l147 45v1620l-150 22v35l398 88h96
z" />
    <glyph glyph-name="ydieresis" unicode="&#xff;" horiz-adv-x="1161" 
d="M881 1346q0 -56 -37 -94t-95 -38t-97 38q-38 38 -38 94t38 94q38 39 96 39t96 -39q37 -39 37 -94zM543 1346q0 -56 -37 -94t-95 -38t-97 38q-38 38 -38 94t38 94q38 39 96 39t96 -39q37 -39 37 -94zM-41 1055h578v-35l-93 -43l285 -610h8l207 612l-82 43v33h320v-33
l-105 -45l-362 -959q-143 -381 -443 -380q-98 0 -182 32q-21 131 31 236l20 39h129q4 -125 47 -201q150 0 250 231l-510 1002l-98 45v33z" />
    <glyph glyph-name="dotlessi" unicode="&#x131;" horiz-adv-x="684" 
d="M524 1075v-995l127 -45v-35h-598v35l127 45v844l-129 22v41l398 88h75z" />
    <glyph glyph-name="Lslash" unicode="&#x141;" horiz-adv-x="1253" 
d="M61 1391h656v-35l-144 -45v-350l172 114v-112l-172 -115v-754h426q20 84 66 167q45 83 82 124l35 39l41 -12q-23 -186 -23 -338v-74h-1139v35l144 45v526l-131 -86v113l131 86v592l-144 45v35z" />
    <glyph glyph-name="lslash" unicode="&#x142;" horiz-adv-x="684" 
d="M524 1503v-536l164 108v-112l-164 -109v-774l127 -45v-35h-598v35l127 45v547l-164 -107v113l164 106v633l-129 23v41l398 67h75z" />
    <glyph glyph-name="OE" unicode="&#x152;" horiz-adv-x="2017" 
d="M756 72q94 0 155 63v1094q-74 90 -184 90q-151 0 -219 -159t-68 -461q0 -303 82 -465t234 -162zM737 -20q-319 0 -503 184q-183 184 -183 521q1 337 189 532t505 194q96 0 195 -20h967v-54q0 -174 16 -278l6 -39l-41 -14l-34 34t-70 97q-49 76 -78 159h-426v-548l408 16
l41 96h47v-303h-39l-47 96l-410 17v-576h473q23 74 68 152t80 119l32 38l43 -12q-23 -158 -22 -315v-76h-1028q-98 -20 -189 -20z" />
    <glyph glyph-name="oe" unicode="&#x153;" horiz-adv-x="1781" 
d="M1288 991q-154 0 -153 -397l282 16v37q0 344 -129 344zM599 68q97 0 136 108t39 348q0 238 -44 350t-142 111t-137 -109t-39 -348t45 -350t142 -110zM578 -20q-240 0 -383 141t-144 399q0 258 151 406q150 148 394 149q244 0 369 -137q133 137 337 137t322 -130
q117 -130 117 -337v-90l-606 10q14 -391 262 -391q148 0 295 113l30 -27q-57 -104 -161 -174t-250 -69q-240 0 -365 133q-128 -133 -368 -133z" />
    <glyph glyph-name="Scaron" unicode="&#x160;" horiz-adv-x="1196" 
d="M70 166q0 128 -23 240l-8 36l67 31q16 -14 44 -40q28 -27 87 -111q58 -84 85 -172q122 -62 236 -62t175 66t62 186q0 62 -35 114t-103 74l-241 80q-313 102 -314 391q0 205 150 307t371 103q94 0 256 -29t200 -32v-74q0 -144 23 -223l6 -31l-53 -27q-16 12 -44 34
q-28 21 -85 91t-86 144q-96 45 -206 45q-110 1 -162 -51t-52 -142q0 -121 115 -160l229 -75q199 -66 289 -172q90 -107 90 -283t-152 -310q-153 -134 -417 -134t-504 104v82zM639 1507h-37l-270 297l20 29l269 -115l268 115l20 -29z" />
    <glyph glyph-name="scaron" unicode="&#x161;" horiz-adv-x="952" 
d="M63 135q0 114 -18 180l-6 25l43 18q12 -6 32 -20t69 -74q48 -60 77 -141q94 -53 182 -53q160 0 160 163q0 96 -100 134l-154 57q-256 94 -256 319q0 162 122 247t282 85q78 1 200 -23t164 -24v-88q0 -80 19 -129l6 -20l-33 -19q-4 2 -13 6q-73 33 -125 107q-26 35 -44 73
q-68 29 -132 29t-104 -35t-39 -100q0 -92 88 -127l142 -53q145 -55 216 -130t70 -194q-1 -168 -121 -268t-318 -100t-409 92v63zM516 1171h-37l-270 297l20 29l269 -115l268 115l20 -29z" />
    <glyph glyph-name="Ydieresis" unicode="&#x178;" horiz-adv-x="1402" 
d="M737 1681q0 55 38 95t96 39q57 0 95 -39q38 -38 38 -94t-38 -94t-95 -38q-58 0 -96 38t-38 93zM534 1550q-58 0 -97 38q-38 38 -38 93t38 95q39 40 97 39q58 0 95 -39q37 -38 37 -94t-37 -94t-95 -38zM-20 1391h671v-33l-135 -43l313 -549h5l313 549l-133 43v33h409v-33
l-127 -45l-403 -688v-545l143 -45v-35h-655v35l143 45v538l-420 695l-124 45v33z" />
    <glyph glyph-name="Zcaron" unicode="&#x17d;" horiz-adv-x="1310" 
d="M1212 1391v-66l-708 -1231h518q25 76 74 149t86 107l37 35l51 -14q-23 -121 -23 -281v-90h-1206v43l729 1253h-434q-23 -76 -74 -148t-90 -104l-41 -32l-43 16q23 123 23 283v80h1101zM684 1507h-37l-270 297l20 29l269 -115l268 115l20 -29z" />
    <glyph glyph-name="zcaron" unicode="&#x17e;" horiz-adv-x="1028" 
d="M952 1055v-66l-518 -903h342q27 78 73 150t81 104l33 35l34 -10q-23 -135 -22 -299v-66h-946v66l534 903h-264q-25 -72 -72 -133t-84 -88l-34 -27l-33 16q23 106 22 252v66h854zM551 1171h-37l-270 297l20 29l268 -115l269 115l20 -29z" />
    <glyph glyph-name="florin" unicode="&#x192;" horiz-adv-x="1177" 
d="M901 1251q-77 0 -111 -57t-53 -160l-49 -272h219v-96h-235l-107 -619q-70 -410 -471 -409q-66 0 -138 16t-101 35q3 73 29 137t50 92l27 31l131 -23q-47 -84 -65 -205q18 -6 45 -6q59 -1 87 55t46 162l127 734h-180v96h196l29 158q70 410 502 409q73 0 157 -17t113 -34
q-2 -72 -27 -136t-49 -93l-24 -31l-138 22q53 82 68 199q-37 12 -78 12z" />
    <glyph glyph-name="circumflex" unicode="&#x2c6;" horiz-adv-x="749" 
d="M367 1497h36l271 -297l-21 -29l-268 115l-268 -115l-21 29z" />
    <glyph glyph-name="caron" unicode="&#x2c7;" horiz-adv-x="749" 
d="M403 1171h-36l-271 297l21 29l268 -115l268 115l21 -29z" />
    <glyph glyph-name="breve" unicode="&#x2d8;" horiz-adv-x="657" 
d="M340 1356q170 0 221 96l41 -6q-18 -110 -86 -184t-178 -74t-178 75t-86 183l45 6q51 -96 221 -96z" />
    <glyph glyph-name="dotaccent" unicode="&#x2d9;" horiz-adv-x="477" 
d="M53 1330q0 75 51 127q50 52 136 52t138 -51t52 -127t-52 -127t-136 -51t-137 51q-52 51 -52 126z" />
    <glyph glyph-name="ring" unicode="&#x2da;" horiz-adv-x="622" 
d="M328 1204q80 0 80 129t-93 129q-81 0 -81 -129t94 -129zM324 1501q116 0 184 -43t68 -124t-72 -126q-70 -45 -186 -45t-184 44t-68 124t71 125q72 45 187 45z" />
    <glyph glyph-name="ogonek" unicode="&#x2db;" horiz-adv-x="577" 
d="M248 -362q-184 0 -185 155q0 205 383 289l41 -12q-84 -29 -139 -78t-55 -111q0 -72 100 -71q54 -1 103 26l-9 -57q-98 -141 -239 -141z" />
    <glyph glyph-name="tilde" unicode="&#x2dc;" horiz-adv-x="987" 
d="M649 1212q-66 0 -166 45t-155 48q-66 -25 -152 -119l-16 8q15 209 106 266q43 27 109 27q65 0 157 -41t142 -43q74 29 131 108l20 -10q4 -121 -38 -205t-138 -84z" />
    <glyph glyph-name="hungarumlaut" unicode="&#x2dd;" horiz-adv-x="770" 
d="M332 1223l321 270l103 -154v-57l-404 -94zM279 1536h28l152 -147l-396 -199l-26 33z" />
    <glyph glyph-name="pi" unicode="&#x3c0;" horiz-adv-x="1185" 
d="M61 952h1098l-547 -907z" />
    <glyph glyph-name="endash" unicode="&#x2013;" horiz-adv-x="1124" 
d="M70 502v102h983v-102h-983z" />
    <glyph glyph-name="emdash" unicode="&#x2014;" horiz-adv-x="1742" 
d="M70 502v102h1601v-102h-1601z" />
    <glyph glyph-name="quoteleft" unicode="&#x2018;" horiz-adv-x="485" 
d="M422 1008q0 -78 -51 -129t-136 -51t-137 52q-52 54 -53 132q0 158 114 256t281 143l15 -27q-123 -94 -129 -219q96 -44 96 -157z" />
    <glyph glyph-name="quoteright" unicode="&#x2019;" horiz-adv-x="485" 
d="M63 1231q1 76 53 128t136 52t136 -53t52 -131q0 -158 -114 -256t-281 -144l-14 27q123 94 129 219q-97 45 -97 158z" />
    <glyph glyph-name="quotesinglbase" unicode="&#x201a;" horiz-adv-x="466" 
d="M45 156q0 78 51 129t136 51q86 0 138 -53t52 -131q0 -158 -114 -256t-281 -144l-15 27q123 94 129 219q-96 45 -96 158z" />
    <glyph glyph-name="quotedblleft" unicode="&#x201c;" horiz-adv-x="948" 
d="M885 1008q0 -78 -51 -129q-50 -51 -136 -51t-138 52q-52 54 -52 132q0 158 114 256t281 143l15 -27q-123 -94 -130 -219q97 -44 97 -157zM422 1008q0 -78 -51 -129t-136 -51t-137 52q-52 54 -53 132q0 158 114 256t281 143l15 -27q-123 -94 -129 -219q96 -44 96 -157z
" />
    <glyph glyph-name="quotedblright" unicode="&#x201d;" horiz-adv-x="946" 
d="M524 1231q0 76 51 128t137 52t137 -53q52 -53 52 -131q0 -158 -114 -256t-281 -144l-14 27q123 94 129 219q-97 45 -97 158zM63 1231q1 76 53 128t136 52t136 -53t52 -131q0 -158 -114 -256t-281 -144l-14 27q123 94 129 219q-97 45 -97 158z" />
    <glyph glyph-name="quotedblbase" unicode="&#x201e;" horiz-adv-x="927" 
d="M506 156q0 78 52 129t136 51t136 -53t53 -131q0 -158 -114 -256t-282 -144l-14 27q123 94 129 219q-96 45 -96 158zM45 156q0 78 51 129t136 51q86 0 138 -53t52 -131q0 -158 -114 -256t-281 -144l-15 27q123 94 129 219q-96 45 -96 158z" />
    <glyph glyph-name="dagger" unicode="&#x2020;" horiz-adv-x="1019" 
d="M653 1391l-116 -414l401 96v-246l-395 95l110 -248l-123 -674h-41l-122 674l108 248l-393 -95v246l399 -96l-114 414h286z" />
    <glyph glyph-name="daggerdbl" unicode="&#x2021;" horiz-adv-x="1019" 
d="M82 827v246l399 -96l-114 414h286l-116 -414l401 96v-246l-395 95l110 -226l-110 -229l395 96v-246l-401 97l116 -414h-286l114 412l-399 -95v246l393 -94l-108 227l108 224z" />
    <glyph glyph-name="bullet" unicode="&#x2022;" horiz-adv-x="745" 
d="M90 582q0 112 78 190t205 78t205 -78t78 -192t-78 -189q-78 -76 -205 -76t-205 77t-78 190z" />
    <glyph glyph-name="ellipsis" unicode="&#x2026;" horiz-adv-x="1400" 
d="M979 158q0 76 51 127t136 51q86 0 138 -51t52 -127t-52 -127t-136 -51t-137 51q-52 51 -52 127zM512 158q0 76 51 127t136 51t137 -51t53 -127q0 -76 -52 -127q-53 -51 -137 -51t-136 51t-52 127zM45 158q0 76 51 127t136 51q86 0 138 -51t52 -127t-52 -127t-136 -51
t-137 51q-52 51 -52 127z" />
    <glyph glyph-name="perthousand" unicode="&#x2030;" horiz-adv-x="2142" 
d="M1797 651q134 0 212 -86t78 -245q0 -160 -81 -250t-214 -90t-212 87t-79 245t81 248q81 91 215 91zM1798 41q66 -1 66 275t-70 276t-70 -276t74 -275zM1144 651q134 0 212 -86t78 -245q0 -160 -81 -250t-214 -90t-212 87t-79 245t81 248q81 91 215 91zM1145 41
q65 -1 65 275t-70 276t-69 -276q0 -276 74 -275zM455 0h-119l747 1309h117zM396 1329q134 0 212 -86t78 -245q0 -160 -81 -250t-214 -90t-212 86q-79 87 -79 245t81 249t215 91zM397 719q66 -1 66 275t-70 276t-70 -276t74 -275z" />
    <glyph glyph-name="guilsinglleft" unicode="&#x2039;" horiz-adv-x="579" 
d="M41 496v51l422 401h76l-232 -424l232 -430h-76z" />
    <glyph glyph-name="guilsinglright" unicode="&#x203a;" horiz-adv-x="579" 
d="M539 547v-51l-422 -402h-76l231 430l-231 424h76z" />
    <glyph glyph-name="fraction" unicode="&#x2044;" horiz-adv-x="1009" 
d="M76 0h-111l975 1309h109z" />
    <glyph glyph-name="Euro" unicode="&#x20ac;" horiz-adv-x="1312" 
d="M51 725v96h113q49 242 224 375t423 133q92 -1 213 -23t162 -22v-119q0 -140 22 -223l9 -33l-54 -26q-22 11 -61 45q-137 121 -176 278q-45 16 -115 17q-111 1 -181 -101t-91 -301h268v-96h-275v-125h275v-96h-264q29 -168 111 -250t212 -82q129 0 209 70t139 147l48 -22
q-38 -132 -150 -250q-60 -61 -154 -99t-208 -38q-246 0 -405 136t-191 388h-103v96h94v35q0 61 5 90h-99z" />
    <glyph glyph-name="trademark" unicode="&#x2122;" horiz-adv-x="1763" 
d="M303 1343h-92q-34 -77 -92 -161l-19 -27l-20 4q12 68 12 158v74h649v-74q0 -83 9 -137l4 -21l-21 -4q-70 94 -110 188h-97v-608l90 -22v-17h-401v17l88 22v608zM813 1391h268l207 -377h4l154 377h260v-17l-66 -20v-621l66 -20v-17h-354v17l67 20v412h-4q-8 -49 -24 -86
l-142 -330h-67l-201 313q-31 51 -31 88l-2 15h-4v-412l66 -20v-17h-197v17l68 20v621l-68 20v17z" />
    <glyph glyph-name="Omega" unicode="&#x2126;" horiz-adv-x="1822" 
d="M1380 1075q128 0 232 -52t145 -112v-311q0 -307 -175 -464t-458 -156q-55 0 -114 6v2q114 12 232 86t147 190q-158 0 -272 81t-113 255v311q41 59 144 111t232 53zM498 1075q130 0 232 -52q103 -52 144 -112v-311q0 -307 -175 -464t-457 -156q-55 0 -115 6v2
q113 12 231 86t148 190q-158 0 -272 81t-113 255v311q41 59 144 111t233 53z" />
    <glyph glyph-name="partialdiff" unicode="&#x2202;" horiz-adv-x="1153" 
d="M1028 1077v-1097l-907 546z" />
    <glyph glyph-name="Delta" unicode="&#x2206;" horiz-adv-x="2066" 
d="M569 266q-199 0 -323 117t-125 287q0 170 125 288q124 118 324 117q200 0 325 -123t125 -304t-59 -313q-106 -237 -386 -320q-168 -50 -382 -29v2q115 14 247 90t162 190q-10 -2 -33 -2zM1559 266q-199 0 -325 118t-126 287t126 287t325 117q199 0 325 -123t125 -304
q0 -181 -59 -313q-60 -132 -162 -208q-201 -149 -483 -147q-61 0 -123 6v2q114 14 246 90t163 190q-9 -2 -32 -2z" />
    <glyph glyph-name="product" unicode="&#x220f;" horiz-adv-x="1185" 
d="M1159 88h-1098l551 907z" />
    <glyph glyph-name="summation" unicode="&#x2211;" horiz-adv-x="1153" 
d="M160 -20v1097l907 -551z" />
    <glyph glyph-name="minus" unicode="&#x2212;" 
d="M82 539v133h876v-133h-876z" />
    <glyph glyph-name="radical" unicode="&#x221a;" horiz-adv-x="2066" 
d="M1561 788q199 0 323 -116t125 -287q0 -170 -125 -288q-124 -117 -324 -117t-325 122t-125 304t59 314q107 238 385 319q121 36 221 36t162 -6v-2q-115 -14 -247 -90t-162 -191q10 2 33 2zM571 788q199 0 325 -118t126 -286q0 -169 -126 -287q-126 -117 -325 -117
t-325 122t-125 304q0 182 59 314q107 239 386 319q122 36 221 36t161 -6v-2q-115 -14 -247 -90t-162 -191q9 2 32 2z" />
    <glyph glyph-name="infinity" unicode="&#x221e;" horiz-adv-x="1644" 
d="M1212 375q94 0 148 53q53 53 53 146q0 92 -53 146t-148 54q-55 0 -117 -37t-96 -68q-33 -32 -92 -94q51 -57 89 -94t100 -71t116 -35zM432 375q133 0 305 200q-53 57 -89 93t-98 70q-62 36 -137 36t-128 -53t-53 -147t52 -146q54 -53 148 -53zM1212 899q158 0 254 -93
q96 -94 96 -234t-89 -231t-267 -91t-383 219q-61 -63 -108 -104t-125 -78t-158 -37q-170 0 -260 91t-90 231t96 234t254 93q78 0 156 -37t125 -78t108 -104q61 66 107 104t126 77q79 38 158 38z" />
    <glyph glyph-name="integral" unicode="&#x222b;" horiz-adv-x="1822" 
d="M498 -20q-128 0 -232 52t-145 111v312q0 307 175 464t458 156q57 0 114 -6v-2q-112 -13 -232 -87t-149 -189q160 0 274 -81t113 -255v-312q-41 -59 -144 -111t-232 -52zM1380 -20q-130 0 -232 52q-103 52 -144 111v312q0 307 175 464t457 156q55 0 115 -6v-2
q-113 -13 -233 -87t-148 -189q160 0 274 -81t113 -255v-312q-41 -59 -144 -111t-233 -52z" />
    <glyph glyph-name="approxequal" unicode="&#x2248;" horiz-adv-x="1214" 
d="M876 301q-80 0 -226 69t-216 68q-137 0 -258 -141l-94 84q57 97 152 155t202 58q108 0 260 -70t193 -69q88 0 158 90l86 -84q-39 -72 -108 -116t-149 -44zM876 672q-80 0 -226 68t-216 69q-137 0 -258 -141l-94 84q57 96 152 154t202 58q108 0 260 -69q152 -70 193 -70
q88 0 158 90l86 -84q-39 -71 -108 -115t-149 -44z" />
    <glyph glyph-name="notequal" unicode="&#x2260;" 
d="M82 754v133h491l76 168h105l-76 -168h280v-133h-340l-92 -205h432v-133h-491l-74 -166h-106l73 166h-278v133h340l92 205h-432z" />
    <glyph glyph-name="lessequal" unicode="&#x2264;" 
d="M82 20v134h876v-134h-876zM958 430v-135l-876 315v117l876 313v-137l-653 -231z" />
    <glyph glyph-name="greaterequal" unicode="&#x2265;" 
d="M958 154v-134h-876v134h876zM82 295v135l653 242l-653 231v137l876 -313v-117z" />
    <glyph glyph-name="lozenge" unicode="&#x25ca;" horiz-adv-x="1026" 
d="M102 0v96h822v-96h-822zM102 1294v97h822v-97h-822zM586 696l256 -501h-137l-181 389l-188 -389h-133l254 501l-254 498h133l188 -385l181 385h131z" />
    <glyph glyph-name="apple" unicode="&#xf8ff;" horiz-adv-x="2918" 
d="M1710 584q0 27 -27 26q-41 1 -49 -69q76 0 76 43zM2372 584q0 27 -27 26q-41 1 -49 -69q76 0 76 43zM279 584q0 27 -27 26q-41 1 -49 -69q76 0 76 43zM1049 332q0 -29 28 -29q52 0 56 94q-84 -18 -84 -65zM1860 512q24 0 38 -14t14 -34t-14 -34q-16 -14 -38 -14t-37 13
t-15 33t14 36q14 14 38 14zM1440 553q0 41 -27 41t-46 -38t-19 -60v-47q92 12 92 104zM2344 471q42 0 73 18q16 -10 16 -25q0 -14 -5 -24t-29 -20q-23 -10 -71 -10t-81 30t-33 81q0 52 38 94t90 42t75 -19t22 -44q0 -78 -141 -78q4 -45 46 -45zM1682 471q42 0 73 18
q30 -19 11 -50q-16 -29 -82 -29t-99 30t-33 81q0 52 38 94t90 42t76 -19q22 -19 22 -44q-2 -78 -142 -78q4 -45 46 -45zM251 471q42 0 73 18q16 -10 16 -25q0 -14 -5 -24t-29 -20t-72 -10t-80 30q-33 30 -33 81q0 52 38 94t90 42t75 -19t22 -44q0 -78 -141 -78q4 -45 46 -45
zM2181 592v-100l4 -66q-49 -16 -67 -16t-19 16v137q0 31 -15 31q-14 0 -34 -36t-20 -62l6 -70q-49 -16 -69 -16t-19 16v141l-6 74q48 16 68 16t20 -18v-82q35 100 92 100q59 1 59 -65zM129 0v16h2740v-16h-2740zM129 1083v17h2740v-17h-2740zM2700 428l-169 -16
q-39 0 -47 26t-9 112q-1 87 -3 130l-59 -4v8q0 41 24 41h35l-6 61q48 16 68 16t20 -16v-59h96v-6q0 -43 -24 -43h-72v-184q0 -31 33 -31q23 0 79 11t92 11q38 0 84 -12t46 -39t-20 -41t-30 -14q-10 1 -60 25t-78 24zM557 657q59 0 59 -65v-35q29 100 93 100q57 1 57 -65
v-100l6 -66q-50 -16 -68 -16t-18 16v135q0 33 -14 33t-36 -36t-20 -62l5 -70q-49 -16 -68 -16t-18 16v135q1 33 -15 33t-36 -36t-19 -62l6 -70q-49 -16 -69 -16t-19 16v141l-6 74q49 16 69 16t19 -18v-82q33 100 92 100zM1444 655q34 1 58 -27t24 -77q0 -139 -178 -139v-82
l6 -66q-49 -16 -69 -16t-19 16v154l-52 -6v-6q0 -162 -139 -162q-43 0 -63 22t-21 47q0 74 144 109v86q-35 -98 -93 -98t-59 63v6q-39 -67 -103 -67t-65 61v207l-59 -4v8q0 41 24 41h35l-6 61q49 16 69 16t19 -16v-59h96v-6q0 -43 -24 -43h-72v-176q0 -33 27 -33q18 0 39 16
q20 16 20 37v51l-6 68q49 16 69 16t19 -18v-135q0 -31 14 -31t35 36q20 36 19 62l-5 70q49 16 64 16q23 0 22 -18v-203l52 6v125l-6 74q48 16 68 16t20 -18v-82q35 98 96 98z" />
    <glyph glyph-name="NULL" horiz-adv-x="0" 
 />
    <glyph glyph-name="eight.tab" horiz-adv-x="1173" 
d="M420 1055q0 -135 123 -187l133 -57q57 76 57 233q0 74 -43 134t-118 61q-76 0 -114 -51t-38 -133zM645 477l-192 78q-90 -96 -91 -262q0 -90 64 -156q64 -65 164 -65t152 54t53 150q0 142 -150 201zM66 322q0 98 75 177q76 79 211 103q-233 131 -233 369q0 168 131 262
q132 94 332 94t317 -89t117 -218q0 -178 -234 -254q172 -78 249 -175t77 -222q0 -172 -139 -281q-139 -108 -378 -108t-382 82t-143 260z" />
    <glyph glyph-name="five.tab" horiz-adv-x="1173" 
d="M514 821q242 0 398 -100t157 -305q0 -205 -155 -321t-414 -115q-129 0 -237 34t-159 82q0 70 32 154t71 115h78q8 -162 49 -244q78 -49 168 -49t149 68t60 210q0 144 -91 202q-92 58 -222 58t-212 -22l-20 20l41 701h776l-25 -267h-657l-14 -237q125 16 227 16z" />
    <glyph glyph-name="four.tab" horiz-adv-x="1173" 
d="M633 422v577h-6l-426 -577h432zM27 326v53l688 930h274v-887h156v-96h-156v-246l144 -45v-35h-664v35l164 45v246h-606z" />
    <glyph glyph-name="nine.tab" horiz-adv-x="1173" 
d="M412 898q0 -162 45 -232t139 -70t162 57q2 23 2 66q0 287 -41 401t-139 115q-76 0 -122 -87t-46 -250zM51 886q0 196 158 320t377 123q270 0 403 -142t133 -472t-165 -533t-457 -202q-84 0 -155 22q-108 33 -164 96q-56 64 -56 86l41 43q92 -68 254 -67q283 0 330 375
q-96 -61 -236 -62q-211 0 -337 109q-126 108 -126 304z" />
    <glyph glyph-name="one.tab" horiz-adv-x="1173" 
d="M428 1073h-20q-74 1 -132 19t-79 36l-21 19v31q145 15 299 56q155 42 242 97l67 -31v-1206l211 -59v-35h-772v35l205 57v981z" />
    <glyph glyph-name="seven.tab" horiz-adv-x="1173" 
d="M1077 1309v-164l-545 -1145h-268v70l641 993h-579q-18 -55 -66 -107t-84 -75l-37 -23l-45 16q23 197 23 289v146h960z" />
    <glyph glyph-name="six.tab" horiz-adv-x="1173" 
d="M762 413q0 161 -45 231t-138 69q-93 0 -165 -58v-65q0 -291 43 -404t149 -112q72 0 114 89t42 250zM754 1149q-283 0 -330 -377q96 63 235 64q211 0 337 -109t126 -305t-152 -320q-152 -123 -372 -122q-547 0 -547 595q0 352 165 553t458 201q212 0 330 -131
q45 -52 45 -74l-41 -43q-92 68 -254 68z" />
    <glyph glyph-name="three.tab" horiz-adv-x="1173" 
d="M476 1118q-94 0 -180 -35q-87 -35 -142 -86l-33 33q150 299 477 299q200 0 314 -87t114 -228q0 -106 -91 -184t-228 -95v-6q172 -18 278 -105t107 -225q0 -195 -144 -307t-381 -112q-143 0 -282 36t-203 80q0 70 31 152t71 117h78q2 -147 49 -244q87 -47 193 -47t165 63
q58 63 58 173q0 198 -102 269q-51 34 -101 49t-123 27l21 80q154 13 204 60q50 48 50 139q0 92 -53 138t-147 46z" />
    <glyph glyph-name="two.tab" horiz-adv-x="1173" 
d="M627 1329q199 0 315 -106t117 -285q0 -88 -41 -175t-98 -154q-124 -146 -533 -392v-10h514q25 61 72 107t82 63l35 14l32 -18q-25 -109 -24 -248v-125h-1028l-19 74q207 169 398 372q111 119 178 243t67 219q0 94 -59 140t-153 46t-191 -46q-98 -46 -164 -106l-47 37
q53 121 178 225q66 55 162 90t207 35z" />
    <glyph glyph-name="zero.tab" horiz-adv-x="1173" 
d="M592 68q178 0 178 588t-186 589q-180 -1 -180 -589t188 -588zM593 1329q251 0 396 -173t145 -491q0 -317 -150 -501q-152 -184 -402 -184t-397 173q-146 173 -146 490t151 502q152 184 403 184z" />
    </font>
</defs>
</svg>
