<?xml version="1.0" standalone="no"?>
<!DOCTYPE svg PUBLIC "-//W3C//DTD SVG 1.1//EN" "http://www.w3.org/Graphics/SVG/1.1/DTD/svg11.dtd" >
<svg xmlns="http://www.w3.org/2000/svg">
<metadata>
Created by FontPrep 20130207 at Mon Jun 27 20:40:39 2016
 By Devin Halladay
Copyright (c) 2011 by Eduardo Manso. All rights reserved.
</metadata>
<defs>
<font id="5ee93d882acff08bb6d6aa8aed3b2acc" horiz-adv-x='1024' >
  <font-face 
    font-family="PeriodicoDisplay-UltraBlack"
    font-weight="950"
    font-stretch="normal"
    units-per-em="2048"
    panose-1="2 0 5 4 8 0 0 2 0 4"
    ascent="1597"
    descent="-451"
    x-height="1075"
    cap-height="1391"
    bbox="-196.2 -403 2888 1939"
    underline-thickness="102"
    underline-position="-102"
    unicode-range="U+0009-FB02"
  />
<missing-glyph horiz-adv-x="1042" 
d="M102 0v133h838v-133h-838zM102 1257v134h838v-134h-838zM532 852l164 348h170l-252 -502l260 -510h-178l-164 351l-170 -351h-176l258 508l-258 504h176z" />
    <glyph glyph-name="fi" unicode="fi" horiz-adv-x="1673" 
d="M1106 1174q0 46 -13 120t-28 107q-39 16 -125 16q-86 1 -138 -29q-124 -70 -124 -274v-45h307q310 0 424 21l49 6h72v-1016l112 -45v-35h-733v35l117 45v907h-348v-907l139 -45v-35h-776v35l135 45v907h-135v51l135 29v8q0 156 106 255t262 136q158 37 406 37t486 -59
q0 -57 -16 -125t-31 -107l-15 -38h-268z" />
    <glyph glyph-name="fl" unicode="fl" horiz-adv-x="1673" 
d="M1530 1503v-1423l112 -45v-35h-733v35l117 45v1327q-55 10 -125 10q-127 0 -175 -82t-48 -221v-45h235v-82h-235v-907l139 -45v-35h-776v35l135 45v907h-135v51l135 29v8q0 156 99 255t247 136t338 37q192 0 346 -20l252 20h72z" />
    <glyph glyph-name=".notdef" horiz-adv-x="1042" 
d="M102 0v133h838v-133h-838zM102 1257v134h838v-134h-838zM532 852l164 348h170l-252 -502l260 -510h-178l-164 351l-170 -351h-176l258 508l-258 504h176z" />
    <glyph glyph-name=".null" 
 />
    <glyph glyph-name="nonmarkingreturn" horiz-adv-x="681" 
 />
    <glyph glyph-name="CR" unicode="&#xd;" 
 />
    <glyph glyph-name="CR" 
 />
    <glyph glyph-name="HT" unicode="&#x9;" 
 />
    <glyph glyph-name="LF" unicode="&#xa;" 
 />
    <glyph glyph-name="DLE" 
 />
    <glyph glyph-name="DC1" 
 />
    <glyph glyph-name="DC2" 
 />
    <glyph glyph-name="DC3" 
 />
    <glyph glyph-name="DC4" 
 />
    <glyph glyph-name="RS" 
 />
    <glyph glyph-name="US" 
 />
    <glyph glyph-name="space" unicode=" " horiz-adv-x="387" 
 />
    <glyph glyph-name="exclam" unicode="!" horiz-adv-x="626" 
d="M580 200q0 -92 -73 -156t-192 -64t-193 64t-73 155q0 92 74 155q75 64 193 64t191 -62t73 -156zM309 1411q100 0 179 -52t98 -153l-254 -725h-35l-256 725q14 100 91 152t177 53z" />
    <glyph glyph-name="quotedbl" unicode="&#x22;" horiz-adv-x="987" 
d="M731 1411q92 0 160 -58t67 -149l-210 -387h-33l-207 387q0 90 65 149q66 58 158 58zM252 1411q92 0 160 -58t67 -149l-211 -387h-32l-207 387q0 90 65 149q66 58 158 58z" />
    <glyph glyph-name="numbersign" unicode="#" horiz-adv-x="1183" 
d="M508 645l-70 -211h209l70 211h-209zM82 315v119h168l69 211h-155v119h194l105 311h188l-104 -311h209l104 311h189l-105 -311h158v-119h-197l-69 -211h184v-119h-223l-105 -315h-188l104 315h-209l-104 -315h-189l105 315h-129z" />
    <glyph glyph-name="dollar" unicode="$" horiz-adv-x="1257" 
d="M483 1112q1 -38 21 -64t38 -36t56 -27v236q-115 -23 -115 -109zM809 232q0 94 -115 153v-283q115 36 115 130zM88 166q0 133 -22 240l-7 36l66 29q121 -90 202 -227q34 -57 52 -117q98 -39 190 -39h29v342l-139 64q-176 84 -269 181q-92 97 -92 249q0 193 142 293
t358 110v127h96v-127q78 -4 218 -29t192 -30v-74q0 -130 18 -223l6 -31l-47 -27q-64 33 -147 124q-82 90 -111 167q-45 18 -129 23v-283l84 -37q226 -100 324 -198q98 -99 98 -269t-138 -303t-368 -153v-123h-96v119q-274 2 -510 104v82z" />
    <glyph glyph-name="percent" unicode="%" horiz-adv-x="1517" 
d="M1456 320q0 -160 -92 -250t-245 -90t-241 87t-90 245q0 158 92 248q92 91 246 91q152 0 241 -86t89 -245zM1126 41q45 -1 45 275t-49 276t-49 -276t53 -275zM1090 1309h116l-786 -1309h-119zM399 719q45 -1 45 275t-49 276t-49 -276t53 -275zM729 998q0 -160 -92 -250
t-245 -90q-154 0 -242 86q-88 87 -88 245t91 249q92 91 245 91t242 -86t89 -245z" />
    <glyph glyph-name="ampersand" unicode="&#x26;" horiz-adv-x="1587" 
d="M688 1323q-92 -1 -92 -149t131 -269q47 70 47 244t-86 174zM442 479q0 -76 32 -128q71 -116 282 -120q53 0 94 9l-340 329l-43 39q-25 -53 -25 -129zM16 375q0 272 346 338q-158 172 -157 325q0 276 321 355q78 18 158 18q242 0 346 -84t104 -214t-88 -202
q-89 -72 -215 -98q4 -6 17 -14q147 -137 332 -348q102 131 176 333l61 -12q-33 -238 -145 -428q215 -246 307 -311v-33h-492l-18 18q-15 14 -29 30t-30 30q-168 -98 -405 -98t-402 81q-185 90 -187 314z" />
    <glyph glyph-name="quotesingle" unicode="'" horiz-adv-x="507" 
d="M252 1411q92 0 160 -58t67 -149l-211 -387h-32l-207 387q0 90 65 149q66 58 158 58z" />
    <glyph glyph-name="parenleft" unicode="(" horiz-adv-x="673" 
d="M217 61q-186 225 -186 536q0 310 186 525q163 188 395 332l21 -18q-178 -326 -178 -842t178 -856l-21 -21q-123 80 -214 158t-181 186z" />
    <glyph glyph-name="parenright" unicode=")" horiz-adv-x="673" 
d="M219 594q0 516 -178 842l20 18q121 -76 213 -152t182 -180q186 -215 187 -525q0 -310 -186 -536q-89 -109 -181 -187t-215 -157l-20 21q178 340 178 856z" />
    <glyph glyph-name="asterisk" unicode="*" horiz-adv-x="903" 
d="M506 999q0 19 -16 35t-35 16q-21 0 -35 -14t-14 -36t14 -35q14 -15 36 -15t36 14t14 35zM643 592l-190 223l-189 -223l-39 22l84 295l-278 72v47l274 64l-80 299l39 22l189 -227l190 227l35 -22l-78 -297l272 -66v-47l-278 -74l84 -293z" />
    <glyph glyph-name="plus" unicode="+" horiz-adv-x="1040" 
d="M82 518v174h352v340h174v-340h350v-174h-350v-362h-174v362h-352z" />
    <glyph glyph-name="comma" unicode="," horiz-adv-x="565" 
d="M37 213q0 100 66 168q67 68 179 68t180 -68t66 -168q0 -369 -503 -461l-15 27q37 33 58 54q20 22 46 72t29 109q-106 70 -106 199z" />
    <glyph glyph-name="hyphen" unicode="-" horiz-adv-x="626" 
d="M37 506v153h553v-153h-553z" />
    <glyph glyph-name="period" unicode="." horiz-adv-x="565" 
d="M37 214q0 99 66 167q67 68 179 68t180 -68t66 -167q0 -99 -68 -167q-68 -67 -180 -67q-110 0 -177 67q-66 68 -66 167z" />
    <glyph glyph-name="slash" unicode="/" horiz-adv-x="727" 
d="M219 -342h-168l455 1825h170z" />
    <glyph glyph-name="zero" unicode="0" horiz-adv-x="1335" 
d="M672 68q98 0 98 588t-102 589q-102 -1 -102 -589t106 -588zM45 644q0 306 173 496t455 189q281 0 449 -179t168 -486q0 -308 -173 -496t-453 -188t-450 179q-169 179 -169 485z" />
    <glyph glyph-name="one" unicode="1" horiz-adv-x="872" 
d="M193 1053h-19q-55 -1 -99 23t-59 46l-16 25v31q47 4 122 12t248 47t273 94l64 -31v-1206l155 -59v-35h-819v35l150 57v961z" />
    <glyph glyph-name="two" unicode="2" horiz-adv-x="1169" 
d="M621 1329q205 -1 327 -109t121 -282q0 -84 -34 -159t-78 -125t-133 -108t-166 -98t-232 -114v-4h500q25 61 67 107q43 46 76 63l31 14l28 -18q-23 -166 -22 -392v-104h-1059l-16 94q522 522 522 819q0 80 -44 120t-116 40t-151 -39t-136 -92l-40 37q35 80 99 154
q65 74 187 135t269 61z" />
    <glyph glyph-name="three" unicode="3" horiz-adv-x="1163" 
d="M561 956q0 141 -182 142q-143 0 -283 -109l-41 41q35 62 73 106t102 93q134 102 366 101q231 -1 353 -83q122 -83 122 -223t-99 -203t-288 -86v-6q444 -8 444 -330q0 -100 -46 -178t-114 -122t-185 -82q-118 -38 -294 -37q-283 0 -469 116q0 82 28 178t65 132h71
q0 -23 3 -58t33 -121t83 -143q45 -10 119 -10q186 0 186 268q0 170 -98 238q-49 33 -97 48t-120 27l18 101q110 7 162 32q51 25 70 66q18 41 18 102z" />
    <glyph glyph-name="four" unicode="4" horiz-adv-x="1218" 
d="M522 401v461h-10l-340 -461h350zM10 305v53l701 951h333v-908h144v-96h-144v-225l132 -45v-35h-803v35l149 45v225h-512z" />
    <glyph glyph-name="five" unicode="5" horiz-adv-x="1177" 
d="M442 72q180 0 181 237q0 219 -250 219q-168 0 -230 -22l-18 20l39 783h895l-31 -348h-778l-8 -138q129 18 331 19q267 0 415 -102t149 -312q0 -449 -670 -448q-137 0 -249 34t-167 82q0 82 33 178t80 132h69q16 -213 82 -316q49 -18 127 -18z" />
    <glyph glyph-name="six" unicode="6" horiz-adv-x="1271" 
d="M627 713q-25 0 -62 -8q-2 -39 -2 -221q0 -411 88 -410q80 0 80 340q1 168 -21 234t-83 65zM903 1153q-285 0 -330 -362q106 45 234 45q193 0 309 -109t115 -305q0 -196 -169 -320q-169 -123 -409 -122q-608 0 -608 595q0 354 184 554t516 200q237 0 368 -131
q50 -52 50 -74l-39 -43q-82 72 -221 72z" />
    <glyph glyph-name="seven" unicode="7" horiz-adv-x="1171" 
d="M1130 1309v-164l-497 -1145h-432v70l719 891h-662q-18 -55 -62 -107t-79 -76l-35 -22l-41 16q25 199 25 391v146h1064z" />
    <glyph glyph-name="eight" unicode="8" horiz-adv-x="1222" 
d="M459 1131q1 -45 27 -71t83 -56l195 -103q37 66 37 159t-47 137t-129 44t-124 -33t-42 -77zM348 272q0 -82 58 -141t162 -59t161 45t57 126t-122 144l-242 125q-74 -96 -74 -240zM41 281q0 98 65 181q66 83 187 122q-205 141 -205 334q0 141 81 237q147 174 447 174
q222 0 352 -78t130 -190q0 -152 -205 -227q147 -84 218 -176t71 -217q0 -124 -52 -217t-144 -144q-182 -102 -419 -101q-238 1 -382 73t-144 229z" />
    <glyph glyph-name="nine" unicode="9" horiz-adv-x="1269" 
d="M645 596q35 0 60 8q4 74 4 239q0 392 -88 392q-82 0 -82 -340q1 -167 23 -233t83 -66zM463 473q-193 0 -307 109q-114 110 -115 306q0 196 168 318t407 123q608 0 609 -596q1 -354 -183 -554t-518 -199q-245 0 -365 132q-50 53 -50 72l38 43q80 -72 222 -71
q283 0 327 362q-100 -45 -233 -45z" />
    <glyph glyph-name="colon" unicode=":" horiz-adv-x="573" 
d="M286 449q112 0 180 -68t66 -167q0 -99 -68 -167q-68 -67 -180 -67q-110 0 -176 68t-67 166q0 99 67 167q66 68 178 68zM286 1096q112 0 180 -68t66 -167q0 -99 -68 -167t-180 -68q-110 0 -176 68t-67 167q0 99 67 167q66 68 178 68z" />
    <glyph glyph-name="semicolon" unicode=";" horiz-adv-x="573" 
d="M286 1096q112 0 180 -68t66 -167q0 -99 -68 -167t-180 -68q-110 0 -176 68t-67 167q0 99 67 167q66 68 178 68zM41 213q0 100 67 168q66 68 178 68t180 -68t66 -168q0 -369 -503 -461l-15 27q37 33 58 54q20 22 46 72t29 109q-106 70 -106 199z" />
    <glyph glyph-name="less" unicode="&#x3c;" horiz-adv-x="1040" 
d="M82 545v131l876 354v-190l-634 -230l634 -229v-191z" />
    <glyph glyph-name="equal" unicode="=" horiz-adv-x="1040" 
d="M82 395v174h876v-174h-876zM82 733v174h876v-174h-876z" />
    <glyph glyph-name="greater" unicode="&#x3e;" horiz-adv-x="1040" 
d="M958 676v-131l-876 -355v191l635 229l-635 230v190z" />
    <glyph glyph-name="question" unicode="?" horiz-adv-x="1042" 
d="M162 200q0 93 72 155q73 63 192 63q120 0 192 -62t72 -156q0 -92 -73 -156t-191 -64t-192 63q-72 64 -72 157zM551 1411q199 0 323 -91t123 -264q0 -173 -130 -288t-320 -160l-84 -127h-86l-156 369q2 0 38 11t47 17t45 19t48 27t40 37q67 59 67 184q0 166 -133 166
q-16 0 -25 -2q-42 -63 -64 -139t-22 -121v-43h-162q-23 39 -41 114q-18 74 -12 129q172 162 504 162z" />
    <glyph glyph-name="at" unicode="@" horiz-adv-x="1902" 
d="M862 326q41 0 77 84t54 194l51 303q-18 47 -49 47q-63 0 -115 -138t-53 -359q0 -131 35 -131zM1386 268q86 0 153 120t67 354t-151 402q-151 169 -425 169q-326 -1 -530 -231t-203 -574q0 -344 210 -505q181 -140 431 -140q251 0 432 53l14 -63q-203 -90 -448 -91
q-358 0 -594 164q-82 57 -139 131t-94 188t-37 251q0 399 266 657t692 258q194 0 350 -55q286 -101 400 -368q51 -122 51 -268t-52 -268q-51 -122 -137 -188q-170 -131 -366 -131q-272 0 -301 172l-4 23l-8 2q-100 -203 -285 -203q-106 0 -188 79q-81 79 -80 253
q0 264 144 427t374 163q178 0 297 -74l192 57h56l-107 -606q-29 -158 20 -158z" />
    <glyph glyph-name="A" unicode="A" horiz-adv-x="1427" 
d="M516 848h-8l-148 -397h297zM1458 0h-790v33l123 43l-103 286h-360l-107 -286l121 -43v-33h-373v33l119 45l512 1313l229 20l517 -1333l112 -45v-33z" />
    <glyph glyph-name="B" unicode="B" horiz-adv-x="1576" 
d="M713 1298h-4v-518h4q109 0 167 66t58 182q0 270 -225 270zM772 688h-63v-596h59q229 0 229 301q0 141 -56 218t-169 77zM965 0h-914v35l133 45v1231l-133 45v35h850q561 0 561 -332q0 -147 -90 -222t-268 -98v-2q202 -20 312 -102q110 -81 110 -265t-154 -277t-407 -93z
" />
    <glyph glyph-name="C" unicode="C" horiz-adv-x="1304" 
d="M819 1411q90 -1 208 -23t159 -22v-100q0 -138 18 -240l6 -35l-47 -22q-59 30 -143 116q-82 87 -123 218q-18 2 -37 2q-116 1 -192 -147t-76 -410q0 -494 354 -494q72 0 136 26t92 48q27 22 67 61l33 -22q-56 -181 -202 -285t-341 -105q-303 -1 -491 185t-188 519t215 531
q216 198 552 199z" />
    <glyph glyph-name="D" unicode="D" horiz-adv-x="1619" 
d="M739 1296h-30v-1202h55q262 0 262 598q0 284 -76 444t-211 160zM51 1391h836q317 -1 499 -181t182 -507t-188 -515t-501 -188h-828v35l133 45v1231l-133 45v35z" />
    <glyph glyph-name="E" unicode="E" horiz-adv-x="1394" 
d="M51 1391h1231v-95q0 -135 12 -288l6 -50l-28 -20q-16 12 -45 37t-100 118t-121 203h-297v-565l311 14l76 158h43v-426h-37l-80 158l-313 14v-555h340q51 111 117 201q67 90 108 123l41 35l28 -21q-18 -182 -18 -338v-94h-1274v35l133 45v1231l-133 45v35z" />
    <glyph glyph-name="F" unicode="F" horiz-adv-x="1331" 
d="M51 1391h1231v-95q0 -135 12 -288l6 -50l-28 -20q-16 12 -43 37t-97 118q-71 93 -126 203h-297v-600l311 15l76 178h43v-467h-37l-80 178l-313 14v-534l149 -45v-35h-807v35l133 45v1231l-133 45v35z" />
    <glyph glyph-name="G" unicode="G" horiz-adv-x="1449" 
d="M811 1411q102 -1 258 -23t201 -22v-162q0 -90 20 -178l6 -35l-47 -24q-48 24 -130 107t-128 212q-68 20 -141 21q-120 0 -188 -166t-68 -457q0 -290 59 -444t170 -154q37 0 54 4v471l-89 43v31h611v-29l-70 -45v-452l64 -21v-27q-242 -84 -570 -84t-539 149
q-110 77 -171 214t-62 326q0 354 214 550t546 195z" />
    <glyph glyph-name="H" unicode="H" horiz-adv-x="1761" 
d="M926 1391h784v-35l-131 -45v-1231l131 -45v-35h-784v35l129 45v610h-346v-610l131 -45v-35h-789v35l133 45v1231l-133 45v35h789v-35l-131 -45v-529h346v529l-129 45v35z" />
    <glyph glyph-name="I" unicode="I" horiz-adv-x="890" 
d="M51 1391h789v-35l-131 -45v-1231l131 -45v-35h-789v35l133 45v1231l-133 45v35z" />
    <glyph glyph-name="J" unicode="J" horiz-adv-x="872" 
d="M70 -362q-137 0 -260 22q-23 119 47 285h217q0 -119 39 -199q43 16 71 66v1499l-133 45v35h789v-35l-131 -45v-1417q-256 -256 -639 -256z" />
    <glyph glyph-name="K" unicode="K" horiz-adv-x="1589" 
d="M51 1391h789v-35l-131 -45v-547h39l466 555l-104 39v33h379v-33l-121 -45l-289 -332l310 -668q43 -91 93 -161t79 -95l28 -22v-35h-567q-90 57 -139 207l-152 448h-22v-575l110 -45v-35h-768v35l133 45v1231l-133 45v35z" />
    <glyph glyph-name="L" unicode="L" horiz-adv-x="1343" 
d="M51 1391h789v-35l-131 -45v-1217h299q51 111 117 201q67 90 108 123l41 35l29 -21q-18 -182 -19 -338v-94h-1233v35l133 45v1231l-133 45v35z" />
    <glyph glyph-name="M" unicode="M" horiz-adv-x="1851" 
d="M51 1391h621l266 -707h8l238 707h616v-33l-125 -43v-1239l125 -43v-33h-774v33l127 43v821h-6q-20 -98 -45 -172l-232 -659h-245l-246 628l-70 203h-6v-821l127 -43v-33h-379v33l129 43v1239l-129 43v33z" />
    <glyph glyph-name="N" unicode="N" horiz-adv-x="1437" 
d="M1022 1391h375v-33l-127 -43v-1315h-260l-707 1016v-940l127 -43v-33h-379v33l129 43v1239l-129 43v33h635l461 -654v578l-125 43v33z" />
    <glyph glyph-name="O" unicode="O" horiz-adv-x="1550" 
d="M762 1319q-168 0 -168 -627q0 -295 50 -458t144 -162q168 0 168 620q0 297 -50 462t-144 165zM782 1411q334 0 526 -186q192 -187 191 -523q0 -336 -199 -530q-200 -194 -532 -192q-332 0 -524 184t-193 521q1 337 199 531t532 195z" />
    <glyph glyph-name="P" unicode="P" horiz-adv-x="1540" 
d="M51 1391h813q303 0 469 -112t166 -343t-146 -348t-356 -117q-135 0 -219 37v45h19q166 -1 166 371t-185 372h-69v-1216l155 -45v-35h-813v35l133 45v1231l-133 45v35z" />
    <glyph glyph-name="Q" unicode="Q" horiz-adv-x="1550" 
d="M762 1319q-168 0 -168 -627q0 -295 50 -458t144 -162q168 0 168 620q0 297 -50 462t-144 165zM1487 -322h-576q-98 43 -190 164l-117 152q-262 43 -407 221t-146 467q0 340 199 535q198 195 532 195t526 -187q192 -186 191 -523q0 -236 -102 -406t-285 -251v-12l76 -99
q150 -186 299 -223v-33z" />
    <glyph glyph-name="R" unicode="R" horiz-adv-x="1591" 
d="M698 1296v-632h72q193 92 193 321q0 311 -248 311h-17zM1561 0h-529q-100 47 -158 250l-90 325h-86v-495l117 -45v-35h-764v35l133 45v1231l-133 45v35h793q635 0 635 -400q0 -242 -215 -334v-14l102 -287q43 -122 92 -202t76 -101l27 -18v-35z" />
    <glyph glyph-name="S" unicode="S" horiz-adv-x="1243" 
d="M80 166q0 140 -23 240l-6 36l66 29q123 -92 201 -227q34 -57 53 -117q98 -39 197 -39t159 48q59 48 59 142t-116 148l-219 100q-173 80 -267 182t-94 254q0 153 81 257q148 190 470 190q90 0 254 -29t201 -32v-74q0 -130 18 -223l6 -31l-47 -27q-63 33 -146 123
q-84 90 -112 168q-63 23 -147 23t-130 -37t-46 -96q0 -98 104 -142l174 -76q226 -98 324 -200t98 -273q0 -203 -160 -353t-434 -150t-518 104v82z" />
    <glyph glyph-name="T" unicode="T" horiz-adv-x="1443" 
d="M53 1391h1340v-66q0 -177 16 -278l4 -39l-37 -15q-62 41 -140 131q-79 89 -122 172h-131v-1216l131 -45v-35h-786v35l133 45v1216h-133q-41 -84 -106 -160t-107 -108l-45 -35l-39 15q23 137 22 317v66z" />
    <glyph glyph-name="U" unicode="U" horiz-adv-x="1536" 
d="M1233 432v879l-129 45v35h391v-35l-129 -45v-1032q-92 -150 -222 -225q-130 -74 -341 -74t-381 80t-248 214v1037l-133 45v35h790v-35l-131 -45v-893q0 -154 64 -234t184 -80q121 0 203 89t82 239z" />
    <glyph glyph-name="V" unicode="V" horiz-adv-x="1402" 
d="M-31 1391h809v-33l-125 -43l277 -705h8l240 705l-119 43v33h375v-33l-117 -45l-465 -1333h-236l-534 1333l-113 45v33z" />
    <glyph glyph-name="W" unicode="W" horiz-adv-x="2091" 
d="M-31 1391h795v-33l-123 -43l193 -674h6l155 508l-53 149l131 93h397l209 -750h4l185 674l-121 43v33h375v-33l-117 -45l-371 -1333h-241l-322 956l-289 -956h-241l-459 1333l-113 45v33z" />
    <glyph glyph-name="X" unicode="X" horiz-adv-x="1464" 
d="M711 0v33l110 37l-258 424l-309 -422l92 -39v-33h-360v33l110 45l404 522l-432 717l-99 41v33h779v-33l-107 -33l215 -362l309 360l-104 39v31h364v-33l-112 -45l-395 -455l473 -790l104 -37v-33h-784z" />
    <glyph glyph-name="Y" unicode="Y" horiz-adv-x="1406" 
d="M-31 1391h817v-33l-122 -43l245 -539h11l268 539l-123 43v33h373v-33l-115 -45l-348 -674v-559l129 -45v-35h-787v35l132 45v549l-365 684l-115 45v33z" />
    <glyph glyph-name="Z" unicode="Z" horiz-adv-x="1318" 
d="M1217 1391v-66l-551 -1231h340q27 76 80 149q54 73 94 107l41 35l47 -14q-18 -121 -19 -281v-90h-1198v43l578 1253h-271q-22 -76 -78 -148t-102 -104l-45 -32l-37 16q18 123 19 283v80h1102z" />
    <glyph glyph-name="bracketleft" unicode="[" horiz-adv-x="686" 
d="M655 -254h-594v1737h594v-82h-202v-1575h202v-80z" />
    <glyph glyph-name="backslash" unicode="\" horiz-adv-x="727" 
d="M676 -342h-168l-457 1825h170z" />
    <glyph glyph-name="bracketright" unicode="]" horiz-adv-x="686" 
d="M625 -254h-594v80h202v1575h-202v82h594v-1737z" />
    <glyph glyph-name="asciicircum" unicode="^" horiz-adv-x="933" 
d="M852 750h-188l-197 473l-197 -473h-188l287 641h196z" />
    <glyph glyph-name="underscore" unicode="_" horiz-adv-x="1019" 
d="M0 -342v137h1032v-137h-1032z" />
    <glyph glyph-name="grave" unicode="`" horiz-adv-x="641" 
d="M244 1604h102l254 -414l-22 -33l-537 186z" />
    <glyph glyph-name="a" unicode="a" horiz-adv-x="1290" 
d="M590 152q22 0 51 24q-2 12 -2 47t1 157t1 189q-61 -16 -96 -32v-277q0 -66 11 -87q12 -21 34 -21zM1165 125q47 0 76 119l39 -11q-35 -147 -109 -200t-215 -53q-225 0 -294 135q-131 -135 -300 -135q-133 0 -222 68t-89 210v137q166 162 592 246v154q0 125 -19 167
t-69 42q-20 0 -45 -9q-41 -41 -63 -121t-21 -139l-2 -59h-219q-10 6 -26 21q-15 15 -46 75t-41 133q74 71 218 131t302 60q526 0 527 -418l-6 -494q0 -59 32 -59z" />
    <glyph glyph-name="b" unicode="b" horiz-adv-x="1359" 
d="M688 909q-37 0 -72 -24v-731q39 -80 80 -80q106 0 107 463q0 372 -115 372zM616 1503v-538q135 131 297 131q199 0 314 -150q92 -123 92 -383q-1 -260 -149 -422t-394 -161q-178 0 -321 69l-308 -76l-32 27v1372l-115 23v41l551 67h65z" />
    <glyph glyph-name="c" unicode="c" horiz-adv-x="1091" 
d="M694 997q-61 0 -108 -106t-47 -305q-1 -199 75 -272q76 -72 188 -72t224 96l35 -29q-109 -330 -445 -329q-252 0 -414 143t-161 403q0 260 181 415t437 155t394 -127q-4 -74 -31 -144t-51 -104l-25 -33h-164q6 182 -71 307q-6 2 -17 2z" />
    <glyph glyph-name="d" unicode="d" horiz-adv-x="1396" 
d="M670 166q49 0 73 22v734q-39 80 -79 79q-104 0 -105 -452q0 -383 111 -383zM1245 1503v-1423l117 -45v-35h-590l-20 113h-7q-129 -133 -289 -133t-276 98q-63 53 -101 162t-38 262q0 274 148 434t393 160q84 0 161 -17v293l-118 23v41l551 67h69z" />
    <glyph glyph-name="e" unicode="e" horiz-adv-x="1136" 
d="M604 1012q-63 0 -63 -412l127 10v37q0 195 -12 280q-11 85 -52 85zM41 518q0 262 159 420q160 158 394 158t368 -135t134 -353v-90l-555 10q8 -158 70 -230q63 -72 155 -71q92 0 150 25t133 80l30 -27q-152 -326 -485 -325q-256 0 -405 138q-148 138 -148 400z" />
    <glyph glyph-name="f" unicode="f" horiz-adv-x="913" 
d="M819 1184q0 49 -13 125q-13 77 -28 112q-10 4 -26 4q-76 0 -74 -278v-78h235v-82h-235v-907l160 -45v-35h-797v35l135 45v907h-135v51l135 29v6q0 272 243 375q130 55 308 55t320 -59q1 -57 -15 -122t-33 -101l-14 -37h-166z" />
    <glyph glyph-name="g" unicode="g" horiz-adv-x="1236" 
d="M623 -283q135 0 189 34t54 97v33q-20 25 -106 33l-385 35l-25 4q-25 -33 -24 -82q0 -154 297 -154zM633 500q72 0 72 262q0 118 -22 192t-62 74q-74 0 -74 -266q1 -118 23 -190t63 -72zM1137 766q1 -156 -143 -246t-367 -90q-135 0 -135 -47q0 -31 51 -37l303 -27
q262 -23 371 -131v-219q0 -141 -170 -236t-453 -95t-428 54t-146 140q0 47 56 89t141 67q-164 70 -164 205q0 225 373 258q-143 31 -225 109t-82 198q0 158 142 248t366 90q149 0 266 -41q80 2 156 17t110 30l37 14l21 -174q-94 -12 -181 12l-2 -6q39 -27 71 -75t32 -107z
" />
    <glyph glyph-name="h" unicode="h" horiz-adv-x="1482" 
d="M664 1503v-540q53 57 140 95t185 38q346 0 346 -369v-647l117 -45v-35h-688v35l74 45v733q0 96 -84 96q-45 0 -90 -24v-805l67 -45v-35h-688v35l117 45v1292l-119 23v41l559 67h64z" />
    <glyph glyph-name="i" unicode="i" horiz-adv-x="806" 
d="M664 1096v-1016l112 -45v-35h-733v35l117 45v885l-119 22v41l551 68h72zM403 1135q-131 0 -199 53t-67 140q0 87 68 140q69 54 199 54t198 -54t68 -140q0 -87 -68 -140t-199 -53z" />
    <glyph glyph-name="j" unicode="j" horiz-adv-x="800" 
d="M401 1135q-131 0 -199 53t-67 140q0 87 68 140q69 54 199 54t198 -54t68 -140q0 -87 -68 -140t-199 -53zM57 -61q0 -131 41 -205q43 18 62 47v1184l-119 22v41l551 68h67v-1235q-87 -94 -243 -159q-156 -64 -326 -64t-283 24q-8 53 4 123q11 70 25 113l17 41h204z" />
    <glyph glyph-name="k" unicode="k" horiz-adv-x="1435" 
d="M664 1503v-854h20l381 340l-127 55v31h412v-31l-152 -65l-178 -156l207 -446q129 -276 209 -342v-35h-498q-104 57 -176 293l-76 254h-22v-467l88 -45v-35h-709v35l117 45v1292l-119 23v41l551 67h72z" />
    <glyph glyph-name="l" unicode="l" horiz-adv-x="796" 
d="M653 1503v-1423l113 -45v-35h-733v35l117 45v1292l-119 23v41l551 67h71z" />
    <glyph glyph-name="m" unicode="m" horiz-adv-x="2140" 
d="M653 1096v-133h11q51 57 137 95t180 38q219 0 303 -158h6q150 158 359 158q164 0 255 -90t91 -279v-647l114 -45v-35h-684v35l68 45v733q0 96 -82 96q-45 0 -102 -37q18 -61 18 -145v-647l68 -45v-35h-633v35l63 45v733q0 96 -73 96q-45 0 -88 -24v-805l61 -45v-35h-682
v35l117 45v864l-119 23v41l551 88h61z" />
    <glyph glyph-name="n" unicode="n" horiz-adv-x="1482" 
d="M653 1096v-133h11q53 57 140 95t185 38q346 0 346 -369v-647l117 -45v-35h-688v35l74 45v733q0 96 -84 96q-45 0 -90 -24v-805l67 -45v-35h-688v35l117 45v864l-119 23v41l551 88h61z" />
    <glyph glyph-name="o" unicode="o" horiz-adv-x="1316" 
d="M664 70q96 0 96 467q0 247 -25 359t-80 112t-75 -110t-20 -356t24 -360q25 -112 80 -112zM666 1096q282 0 446 -144t164 -407q0 -262 -171 -414q-171 -151 -454 -151t-447 144t-163 407q0 263 171 414t454 151z" />
    <glyph glyph-name="p" unicode="p" horiz-adv-x="1402" 
d="M733 909q-45 0 -74 -22v-733q39 -80 80 -80q104 0 105 452q0 383 -111 383zM653 1096v-133h4q133 133 291 133t275 -99q63 -53 101 -161t38 -263q0 -274 -148 -434t-395 -159q-84 0 -160 16v-258q158 -45 160 -45v-35h-799v35l138 45v1206l-117 23v41l549 88h63z" />
    <glyph glyph-name="q" unicode="q" horiz-adv-x="1386" 
d="M670 166q49 0 73 22v734q-39 80 -79 79q-104 0 -105 -462q0 -373 111 -373zM1380 -342h-796v35l159 45v373q-55 -57 -135 -95q-142 -67 -299 -14q-66 23 -129 75q-63 53 -101 159t-38 256q0 280 148 442t393 162q180 0 323 -72l309 78l31 -27v-1337l135 -45v-35z" />
    <glyph glyph-name="r" unicode="r" horiz-adv-x="1116" 
d="M674 1096v-160h6q47 70 128 115q82 45 144 45t154 -19q0 -169 -41 -352l-14 -55h-260q-6 160 -33 221q-39 -14 -78 -49v-762l158 -45v-35h-795v35l135 45v870l-137 23v35l569 88h64z" />
    <glyph glyph-name="s" unicode="s" horiz-adv-x="1085" 
d="M989 971q0 -117 21 -180l-29 -19q-176 59 -256 195q-88 41 -174 41q-117 0 -117 -80q0 -35 26 -59t97 -48l182 -63q295 -100 295 -340q0 -195 -150 -317q-150 -121 -376 -121t-453 92v63q0 114 -18 180l-6 25l30 18q61 -20 138 -88q78 -67 120 -143q87 -57 173 -57
t129 32t43 80q0 49 -26 75t-87 48l-193 68q-287 102 -286 348q0 164 122 269t322 106q100 0 257 -29t216 -29v-67z" />
    <glyph glyph-name="t" unicode="t" horiz-adv-x="933" 
d="M31 995v52l149 28l375 260h109v-260h202v-80h-202v-864q25 -31 88 -31t139 56l33 -43q-86 -74 -164 -104t-209 -29q-225 0 -387 131v884h-133z" />
    <glyph glyph-name="u" unicode="u" horiz-adv-x="1474" 
d="M649 1096v-895q31 -35 74 -35t92 24v754l-108 23v41l546 88h64v-1016l117 -39v-41h-590l-21 113h-8q-123 -133 -317 -133q-272 0 -348 204v760l-119 23v41l557 88h61z" />
    <glyph glyph-name="v" unicode="v" horiz-adv-x="1167" 
d="M-31 1075h717v-35l-84 -43l199 -518h8l174 520l-76 43v33h291v-33l-96 -45l-371 -1017h-235l-437 1017l-90 45v33z" />
    <glyph glyph-name="w" unicode="w" horiz-adv-x="1769" 
d="M-31 1075h688v-35l-65 -43l133 -462h8l98 339l-38 107l65 94h440l156 -540h8l131 464l-65 43v33h272v-33l-96 -45l-318 -1017h-225l-272 737l-238 -737h-225l-367 1017l-90 45v33z" />
    <glyph glyph-name="x" unicode="x" horiz-adv-x="1243" 
d="M532 0v35l82 37l-174 284l-237 -284l76 -41v-31h-306v31l99 49l315 364l-338 555l-78 43v33h736v-31l-80 -36l139 -232l203 228l-68 38v33h293v-31l-90 -49l-289 -301l379 -624l82 -37v-33h-744z" />
    <glyph glyph-name="y" unicode="y" horiz-adv-x="1148" 
d="M-31 1075h715v-35l-86 -43l209 -503h4l152 505l-78 43v33h295v-33l-95 -45l-333 -979q-70 -204 -171 -292t-253 -88q-111 0 -203 32q-12 63 0 132t31 106l18 37h152q6 -127 53 -199q109 0 190 129l-510 1122l-90 45v33z" />
    <glyph glyph-name="z" unicode="z" horiz-adv-x="1101" 
d="M1049 1075v-65l-406 -924h188q31 78 82 150t88 104l37 35l35 -10q-25 -135 -24 -299v-66h-1004v66l463 923h-182q-27 -72 -80 -133t-94 -88l-39 -27l-27 17q18 106 18 252v65h945z" />
    <glyph glyph-name="braceleft" unicode="{" horiz-adv-x="737" 
d="M567 -272q-473 0 -424 340l19 313q6 125 -20 164t-122 49v43q96 10 122 49t20 164l-19 313q-49 340 424 340q41 0 140 -8v-51l-41 -4q-25 -4 -38 -14q-36 -29 -32 -142l16 -305q26 -246 -112 -309q-61 -29 -185 -49v-11q123 -20 185 -49q140 -66 112 -309l-16 -305
q-2 -84 12 -117t45 -39l54 -4v-51q-98 -8 -140 -8z" />
    <glyph glyph-name="bar" unicode="|" horiz-adv-x="434" 
d="M307 -342h-180v1825h180v-1825z" />
    <glyph glyph-name="braceright" unicode="}" horiz-adv-x="737" 
d="M170 1503q473 0 424 -340l-19 -313q-6 -125 20 -164t122 -49v-43q-96 -10 -122 -49t-20 -164l19 -313q49 -340 -424 -340q-41 0 -139 8v51l53 4q31 6 45 39t12 117l-16 305q-26 246 113 309q61 29 184 49v11q-123 20 -184 49q-140 67 -113 309l16 305q2 88 -15 118
t-54 38l-41 4v51q98 8 139 8z" />
    <glyph glyph-name="asciitilde" unicode="~" horiz-adv-x="1255" 
d="M900 459q-83 1 -229 69t-216 68q-137 0 -258 -141l-115 125q62 96 162 154t210 58t262 -69q153 -70 193 -70q88 0 158 90l107 -125q-43 -72 -117 -116t-157 -43z" />
    <glyph glyph-name="DEL" 
 />
    <glyph glyph-name="uni00A0" unicode="&#xa0;" horiz-adv-x="387" 
 />
    <glyph glyph-name="exclamdown" unicode="&#xa1;" horiz-adv-x="626" 
d="M580 876q0 -94 -73 -156t-192 -62t-193 63q-74 64 -73 156q0 92 74 155q75 64 193 64t191 -64t73 -156zM309 -336q-100 0 -177 52t-91 153l256 725h35l254 -725q-18 -101 -98 -153t-179 -52z" />
    <glyph glyph-name="cent" unicode="&#xa2;" horiz-adv-x="1163" 
d="M528 692q0 -193 107 -278v643q-107 -107 -107 -365zM731 -20h-96v110q-250 10 -407 152q-156 142 -156 389q0 245 162 397t401 174v127h96v-123q242 -6 373 -127q-4 -73 -31 -143t-51 -105l-25 -32h-163q6 182 -72 307q-6 2 -17 2l-14 -2v-739q43 -14 111 -15
q123 0 235 97l35 -29q-98 -295 -381 -328v-112z" />
    <glyph glyph-name="sterling" unicode="&#xa3;" horiz-adv-x="1290" 
d="M41 0v35l135 41q10 59 10 246v296h-123v97h123v125q0 133 48 231q48 99 132 153q165 107 396 105q88 0 242 -19t190 -22v-114q0 -90 23 -179l6 -34l-39 -19q-21 7 -58 32q-128 88 -153 208q-68 39 -146 39q-77 1 -109 -63t-32 -226v-217h223v-97h-223v-159
q0 -244 -156 -365h414q51 111 116 200t103 124l41 33l35 -19q-18 -182 -18 -338v-94h-1180z" />
    <glyph glyph-name="yen" unicode="&#xa5;" horiz-adv-x="1468" 
d="M199 666v96h194l-258 469l-115 45v33h818v-33l-123 -43l225 -469h14l244 469l-123 43v33h373v-33l-115 -45l-252 -469h203v-96h-254l-24 -48v-98h278v-96h-278v-344l129 -45v-35h-787v35l131 45v344h-280v96h280v88l-33 58h-247z" />
    <glyph glyph-name="brokenbar" unicode="&#xa6;" horiz-adv-x="501" 
d="M338 758h-174v725h174v-725zM338 -252h-174v725h174v-725z" />
    <glyph glyph-name="section" unicode="&#xa7;" horiz-adv-x="1245" 
d="M451 625q0 -90 143 -148l240 -110q12 25 12 55q0 90 -144 147l-219 101q-16 8 -20 8q-12 -25 -12 -53zM1208 576q0 -98 -63 -173q-63 -76 -170 -112q174 -117 174 -305q0 -117 -75 -198q-141 -152 -435 -150q-90 0 -254 28t-201 33v74q0 130 -18 223l-6 31l47 26
q63 -33 146 -123q84 -90 112 -168q63 -22 145 -22q154 1 154 113q0 66 -80 100l-174 76q-120 53 -186 87t-127 85t-85 111t-24 156t62 173q62 76 172 115q-174 115 -175 305q0 117 75 197q140 150 435 151q90 0 254 -29t201 -32v-74q0 -130 18 -223l7 -31l-47 -27
q-65 34 -148 124q-82 89 -111 167q-63 23 -144 23q-155 0 -155 -113q0 -66 80 -100l174 -76q121 -53 187 -87t127 -85q60 -52 84 -112t24 -158z" />
    <glyph glyph-name="dieresis" unicode="&#xa8;" horiz-adv-x="804" 
d="M766 1328q0 -67 -48 -112t-125 -45q-77 -1 -125 45t-48 112t48 113q48 46 125 46t125 -46t48 -113zM381 1328q0 -67 -47 -112t-124 -45q-77 -1 -126 45t-49 112t49 113q49 46 126 46t124 -46t47 -113z" />
    <glyph glyph-name="copyright" unicode="&#xa9;" horiz-adv-x="1513" 
d="M784 213q-219 0 -354 123t-135 342t154 350t393 131q59 0 138 -14t105 -15v-65q0 -79 13 -160l2 -22l-31 -17q-14 8 -37 24q-22 16 -70 72q-48 58 -69 125q-10 2 -25 3q-74 0 -125 -98t-51 -271q0 -326 234 -326q106 0 196 90l21 -14q-37 -121 -133 -189t-226 -69z
M756 1325q-256 0 -436 -185q-180 -186 -181 -446q0 -260 180 -444q181 -184 437 -184t436 184t180 444t-180 446t-436 185zM41 694q0 297 209 507t506 210t507 -210t210 -507t-210 -506q-210 -208 -507 -208t-506 208t-209 506z" />
    <glyph glyph-name="ordfeminine" unicode="&#xaa;" horiz-adv-x="772" 
d="M317 934q0 -47 23 -47q10 0 31 12v10q0 100 2 158l-56 -20v-113zM205 786q-70 0 -117 33t-47 103v75q92 82 332 121v43q-1 107 -60 107q-27 0 -47 -8q-33 -41 -41 -125h-119q-35 27 -53 102q37 33 128 63t186 29q268 0 268 -203l-4 -217q0 -29 22 -28q27 0 52 51l26 -12
q-41 -133 -199 -134q-111 0 -149 70q-70 -70 -178 -70z" />
    <glyph glyph-name="guillemotleft" unicode="&#xab;" horiz-adv-x="1136" 
d="M547 475v133l481 381h68l-121 -444l121 -451h-68zM41 475v133l481 381h68l-121 -444l121 -451h-68z" />
    <glyph glyph-name="logicalnot" unicode="&#xac;" horiz-adv-x="1040" 
d="M82 537v172h876v-510h-174v338h-702z" />
    <glyph glyph-name="registered" unicode="&#xae;" horiz-adv-x="1261" 
d="M604 1092h-12v-279h49q70 35 70 137q-1 142 -107 142zM1006 528h-279q-23 23 -53 101l-56 145h-26v-211l45 -18v-17h-354v17l61 18v535l-61 20v15h383q297 0 297 -170q0 -109 -117 -150v-8l69 -131q44 -85 91 -129v-17zM1122 821q0 213 -144 361t-350 149t-350 -149
t-144 -361t144 -361t350 -149t350 149t144 361zM41 821q0 244 172 418t416 174t418 -174t174 -418q0 -243 -174 -415t-418 -172t-416 171q-172 172 -172 416z" />
    <glyph glyph-name="macron" unicode="&#xaf;" horiz-adv-x="688" 
d="M82 1214v242h541v-242h-541z" />
    <glyph glyph-name="degree" unicode="&#xb0;" horiz-adv-x="628" 
d="M184 1055q0 -57 39 -99t91 -43q52 0 89 42q37 41 37 99t-37 99t-89 41t-91 -41t-39 -98zM41 1055q0 113 80 193q81 80 193 81q112 0 193 -81q81 -82 81 -194t-81 -192t-194 -80t-193 80t-79 193z" />
    <glyph glyph-name="plusminus" unicode="&#xb1;" horiz-adv-x="1040" 
d="M82 0v172h876v-172h-876zM82 582v172h352v301h172v-301h352v-172h-352v-301h-172v301h-352z" />
    <glyph glyph-name="twosuperior" unicode="&#xb2;" horiz-adv-x="684" 
d="M362 1329q100 0 160 -52t62 -142q0 -140 -169 -246q-104 -65 -113 -69t-15 -9q-6 -4 -11 -6v-6h230q14 33 42 57t46 31l20 8l19 -12q-12 -70 -12 -160v-57h-560l-10 41q270 252 271 405q0 72 -77 72t-136 -56l-27 19q86 182 280 182z" />
    <glyph glyph-name="threesuperior" unicode="&#xb3;" horiz-adv-x="671" 
d="M240 1217q-80 0 -152 -68l-22 18q78 162 282 162q114 0 178 -42t64 -109q0 -121 -217 -146v-2q248 -14 248 -166q1 -106 -93 -157t-240 -51t-237 57q0 67 43 124q12 15 21 21h41q2 -86 22 -141q43 -14 70 -15q90 0 90 138q0 89 -39 115t-96 38l8 37q51 8 77 28t25 81
q0 78 -73 78z" />
    <glyph glyph-name="acute" unicode="&#xb4;" horiz-adv-x="641" 
d="M293 1604h102l203 -261l-537 -186l-22 33z" />
    <glyph glyph-name="mu" unicode="&#xb5;" horiz-adv-x="1474" 
d="M649 1096v-895q31 -35 74 -35t92 24v754l-108 23v41l546 88h64v-1016l117 -39v-41h-590l-21 113h-8q-90 -100 -235 -125l55 -330h-485v1286l-119 23v41l557 88h61z" />
    <glyph glyph-name="paragraph" unicode="&#xb6;" horiz-adv-x="1253" 
d="M1038 158q0 -298 -171 -410t-396 -110q-154 0 -264 18q-9 72 13 152t48 122l27 43h164q-12 -170 51 -252q106 16 146 48q68 50 90 103q45 111 47 253v1266h409v-35l-164 -45v-1153zM668 1391v-1127q-305 -2 -466 159t-161 405t174 404q174 159 453 159z" />
    <glyph glyph-name="periodcentered" unicode="&#xb7;" horiz-adv-x="565" 
d="M37 720q0 99 66 167q67 67 179 67t180 -68t66 -166q0 -99 -68 -167t-180 -68q-110 0 -177 68q-66 68 -66 167z" />
    <glyph glyph-name="cedilla" unicode="&#xb8;" horiz-adv-x="602" 
d="M565 -233q0 -170 -262 -170q-176 0 -266 104l22 45q70 -35 142 -35t71 49q0 39 -24 57q-25 17 -84 36v8l110 170h91l-66 -107q266 0 266 -157z" />
    <glyph glyph-name="onesuperior" unicode="&#xb9;" horiz-adv-x="583" 
d="M162 1176h-10q-35 0 -60 14t-33 31l-8 14v18q258 14 365 78l24 -16v-602l92 -31v-16h-458v16l88 29v465z" />
    <glyph glyph-name="ordmasculine" unicode="&#xba;" horiz-adv-x="765" 
d="M336 1057q0 -219 48 -219t48 220t-51 220q-27 0 -36 -50t-9 -171zM41 1055q0 127 95 201t251 73q156 0 247 -71q91 -70 91 -198t-94 -201t-251 -73t-248 71t-91 198z" />
    <glyph glyph-name="guillemotright" unicode="&#xbb;" horiz-adv-x="1134" 
d="M1094 608v-133l-482 -381h-67l121 451l-121 444h67zM590 608v-133l-481 -381h-68l121 451l-121 444h68z" />
    <glyph glyph-name="onequarter" unicode="&#xbc;" horiz-adv-x="1267" 
d="M162 1176h-10q-35 0 -60 14t-33 31l-8 14v18q258 14 365 78l24 -16v-602l92 -31v-16h-458v16l88 29v465zM264 0h-119l955 1309h117zM807 205v256h-4l-174 -256h178zM543 154v22l327 477h217v-448h74v-51h-74v-115l68 -23v-16h-428v16l80 23v115h-264z" />
    <glyph glyph-name="onehalf" unicode="&#xbd;" horiz-adv-x="1261" 
d="M162 1176h-10q-35 0 -60 14t-33 31l-8 14v18q258 14 365 78l24 -16v-602l92 -31v-16h-458v16l88 29v465zM238 0h-119l954 1309h117zM854 133h229q14 33 42 57t46 31l21 8l18 -12q-12 -70 -12 -160v-57h-559l-10 41q270 252 270 405q0 72 -77 72t-136 -55l-27 18
q86 182 281 183q100 0 160 -52t61 -153q0 -100 -88 -173q-59 -51 -134 -95q-74 -45 -85 -52v-6z" />
    <glyph glyph-name="threequarters" unicode="&#xbe;" horiz-adv-x="1286" 
d="M283 0h-119l954 1309h117zM240 1217q-80 0 -152 -68l-22 18q78 162 282 162q114 0 178 -42t64 -109q0 -121 -217 -146v-2q248 -14 248 -166q1 -106 -93 -157t-240 -51t-237 57q0 67 43 124q12 15 21 21h41q2 -86 22 -141q43 -14 70 -15q90 0 90 138q0 89 -39 115t-96 38
l8 37q51 8 77 28t25 81q0 78 -73 78zM838 205v256h-4l-175 -256h179zM573 154v22l328 477h217v-448h74v-51h-74v-115l68 -23v-16h-428v16l80 23v115h-265z" />
    <glyph glyph-name="questiondown" unicode="&#xbf;" horiz-adv-x="1042" 
d="M881 876q0 -94 -73 -156t-192 -62q-120 0 -192 62t-72 156t73 156q73 64 191 64t192 -64q73 -64 73 -156zM492 -336q-199 0 -323 91t-124 264t130 288t321 160l84 127h86l155 -369q-2 0 -38 -11t-47 -16q-11 -6 -45 -20t-48 -27t-40 -36q-66 -58 -66 -185
q0 -166 133 -166q16 0 24 3q43 63 65 139t21 119v45h162q24 -43 42 -116q17 -73 11 -128q-172 -162 -503 -162z" />
    <glyph glyph-name="Agrave" unicode="&#xc0;" horiz-adv-x="1427" 
d="M477 1939h103l254 -413l-23 -33l-537 186zM516 848h-8l-148 -397h297zM1458 0h-790v33l123 43l-103 286h-360l-107 -286l121 -43v-33h-373v33l119 45l512 1313l229 20l517 -1333l112 -45v-33z" />
    <glyph glyph-name="Aacute" unicode="&#xc1;" horiz-adv-x="1427" 
d="M840 1939h102l203 -260l-537 -186l-22 33zM516 848h-8l-148 -397h297zM1458 0h-790v33l123 43l-103 286h-360l-107 -286l121 -43v-33h-373v33l119 45l512 1313l229 20l517 -1333l112 -45v-33z" />
    <glyph glyph-name="Acircumflex" unicode="&#xc2;" horiz-adv-x="1427" 
d="M666 1915h92l299 -410l-23 -32l-323 135l-322 -135l-22 32zM516 848h-8l-148 -397h297zM1458 0h-790v33l123 43l-103 286h-360l-107 -286l121 -43v-33h-373v33l119 45l512 1313l229 20l517 -1333l112 -45v-33z" />
    <glyph glyph-name="Atilde" unicode="&#xc3;" horiz-adv-x="1427" 
d="M602 1884q78 0 178 -41t154 -43q72 18 121 68l18 -10q0 -346 -217 -347q-72 0 -182 45t-168 48q-55 -14 -139 -78l-15 8q14 350 250 350zM516 848h-8l-148 -397h297zM1458 0h-790v33l123 43l-103 286h-360l-107 -286l121 -43v-33h-373v33l119 45l512 1313l229 20
l517 -1333l112 -45v-33z" />
    <glyph glyph-name="Adieresis" unicode="&#xc4;" horiz-adv-x="1427" 
d="M898 1507q-77 0 -125 45t-48 112t48 113t125 46t125 -46t48 -113t-48 -112t-125 -45zM515 1507q-77 0 -126 45t-49 112t49 113t126 46t124 -46t47 -113t-47 -112t-124 -45zM516 848h-8l-148 -397h297zM1458 0h-790v33l123 43l-103 286h-360l-107 -286l121 -43v-33h-373
v33l119 45l512 1313l229 20l517 -1333l112 -45v-33z" />
    <glyph glyph-name="Aring" unicode="&#xc5;" horiz-adv-x="1427" 
d="M721 1550q49 0 49 119t-61 119q-51 0 -51 -119t63 -119zM717 1858q133 0 213 -48t80 -139q0 -90 -82 -141t-216 -51t-214 49t-80 138q0 88 83 140t216 52zM516 848h-8l-148 -397h297zM1458 0h-790v33l123 43l-103 286h-360l-107 -286l121 -43v-33h-373v33l119 45
l512 1313l229 20l517 -1333l112 -45v-33z" />
    <glyph glyph-name="AE" unicode="&#xc6;" horiz-adv-x="2080" 
d="M870 1239h-4l-411 -747h415v747zM1968 1391v-95q0 -110 14 -288l5 -50l-29 -20q-16 12 -45 37t-99 118q-71 93 -122 203h-297v-565l311 14l76 158h43v-426h-37l-80 158l-313 14v-555h340q51 111 117 201q67 90 108 123l41 35l29 -21q-18 -182 -19 -338v-94h-1274v35
l133 45v323h-464l-181 -327l121 -43v-33h-377v33l109 45l729 1313h1161z" />
    <glyph glyph-name="Ccedilla" unicode="&#xc7;" horiz-adv-x="1304" 
d="M958 -233q0 -170 -262 -170q-176 0 -266 104l23 45q69 -35 141 -35t72 49q0 38 -25 56t-84 37v8l78 123q-264 29 -424 210t-160 472q0 348 216 546t552 199q90 -1 208 -23t159 -22v-100q0 -138 18 -240l6 -35l-47 -22q-59 30 -143 116q-82 87 -123 218q-18 2 -37 2
q-116 1 -192 -147t-76 -410q0 -494 354 -494q72 0 136 26t92 48q27 22 67 61l33 -22q-56 -181 -202 -285t-341 -105h-6l-33 -53q266 0 266 -157z" />
    <glyph glyph-name="Egrave" unicode="&#xc8;" horiz-adv-x="1394" 
d="M524 1939h103l254 -413l-23 -33l-536 186zM51 1391h1231v-95q0 -135 12 -288l6 -50l-28 -20q-16 12 -45 37t-100 118t-121 203h-297v-565l311 14l76 158h43v-426h-37l-80 158l-313 14v-555h340q51 111 117 201q67 90 108 123l41 35l28 -21q-18 -182 -18 -338v-94h-1274
v35l133 45v1231l-133 45v35z" />
    <glyph glyph-name="Eacute" unicode="&#xc9;" horiz-adv-x="1394" 
d="M51 1391h1231v-95q0 -135 12 -288l6 -50l-28 -20q-16 12 -45 37t-100 118t-121 203h-297v-565l311 14l76 158h43v-426h-37l-80 158l-313 14v-555h340q51 111 117 201q67 90 108 123l41 35l28 -21q-18 -182 -18 -338v-94h-1274v35l133 45v1231l-133 45v35zM958 1939h103
l203 -260l-537 -186l-22 33z" />
    <glyph glyph-name="Ecircumflex" unicode="&#xca;" horiz-adv-x="1394" 
d="M51 1391h1231v-95q0 -135 12 -288l6 -50l-28 -20q-16 12 -45 37t-100 118t-121 203h-297v-565l311 14l76 158h43v-426h-37l-80 158l-313 14v-555h340q51 111 117 201q67 90 108 123l41 35l28 -21q-18 -182 -18 -338v-94h-1274v35l133 45v1231l-133 45v35zM678 1915h92
l299 -410l-22 -32l-324 135l-322 -135l-22 32z" />
    <glyph glyph-name="Edieresis" unicode="&#xcb;" horiz-adv-x="1394" 
d="M51 1391h1231v-95q0 -135 12 -288l6 -50l-28 -20q-16 12 -45 37t-100 118t-121 203h-297v-565l311 14l76 158h43v-426h-37l-80 158l-313 14v-555h340q51 111 117 201q67 90 108 123l41 35l28 -21q-18 -182 -18 -338v-94h-1274v35l133 45v1231l-133 45v35zM931 1507
q-77 0 -125 45t-48 112t48 113t125 46t125 -46t48 -113t-48 -112t-125 -45zM548 1507q-77 0 -126 45t-49 112t49 113t126 46t124 -46t47 -113t-47 -112t-124 -45z" />
    <glyph glyph-name="Igrave" unicode="&#xcc;" horiz-adv-x="890" 
d="M248 1939h102l254 -413l-22 -33l-537 186zM51 1391h789v-35l-131 -45v-1231l131 -45v-35h-789v35l133 45v1231l-133 45v35z" />
    <glyph glyph-name="Iacute" unicode="&#xcd;" horiz-adv-x="890" 
d="M580 1939h102l203 -260l-537 -186l-22 33zM51 1391h789v-35l-131 -45v-1231l131 -45v-35h-789v35l133 45v1231l-133 45v35z" />
    <glyph glyph-name="Icircumflex" unicode="&#xce;" horiz-adv-x="890" 
d="M401 1915h93l299 -410l-23 -32l-324 135l-321 -135l-23 32zM51 1391h789v-35l-131 -45v-1231l131 -45v-35h-789v35l133 45v1231l-133 45v35z" />
    <glyph glyph-name="Idieresis" unicode="&#xcf;" horiz-adv-x="890" 
d="M648 1507q-77 0 -125 45t-48 112t48 113t125 46t125 -46t48 -113t-48 -112t-125 -45zM265 1507q-77 0 -126 45t-49 112t49 113t126 46t124 -46t47 -113t-47 -112t-124 -45zM51 1391h789v-35l-131 -45v-1231l131 -45v-35h-789v35l133 45v1231l-133 45v35z" />
    <glyph glyph-name="Eth" unicode="&#xd0;" horiz-adv-x="1619" 
d="M739 1296h-30v-514h127v-92h-127v-596h55q262 0 262 598q0 284 -76 444t-211 160zM51 690v92h133v529l-133 45v35h836q317 -1 499 -181t182 -507t-188 -515t-501 -188h-828v35l133 45v610h-133z" />
    <glyph glyph-name="Ntilde" unicode="&#xd1;" horiz-adv-x="1437" 
d="M618 1884q78 0 178 -41t154 -43q72 18 121 68l19 -10q0 -346 -218 -347q-72 0 -182 45t-168 48q-55 -14 -139 -78l-14 8q14 350 249 350zM1022 1391h375v-33l-127 -43v-1315h-260l-707 1016v-940l127 -43v-33h-379v33l129 43v1239l-129 43v33h635l461 -654v578l-125 43
v33z" />
    <glyph glyph-name="Ograve" unicode="&#xd2;" horiz-adv-x="1550" 
d="M516 1939h102l254 -413l-22 -33l-537 186zM762 1319q-168 0 -168 -627q0 -295 50 -458t144 -162q168 0 168 620q0 297 -50 462t-144 165zM782 1411q334 0 526 -186q192 -187 191 -523q0 -336 -199 -530q-200 -194 -532 -192q-332 0 -524 184t-193 521q1 337 199 531
t532 195z" />
    <glyph glyph-name="Oacute" unicode="&#xd3;" horiz-adv-x="1550" 
d="M762 1319q-168 0 -168 -627q0 -295 50 -458t144 -162q168 0 168 620q0 297 -50 462t-144 165zM782 1411q334 0 526 -186q192 -187 191 -523q0 -336 -199 -530q-200 -194 -532 -192q-332 0 -524 184t-193 521q1 337 199 531t532 195zM969 1939h102l203 -260l-537 -186
l-22 33z" />
    <glyph glyph-name="Ocircumflex" unicode="&#xd4;" horiz-adv-x="1550" 
d="M762 1319q-168 0 -168 -627q0 -295 50 -458t144 -162q168 0 168 620q0 297 -50 462t-144 165zM782 1411q334 0 526 -186q192 -187 191 -523q0 -336 -199 -530q-200 -194 -532 -192q-332 0 -524 184t-193 521q1 337 199 531t532 195zM725 1915h92l299 -410l-22 -32
l-324 135l-321 -135l-23 32z" />
    <glyph glyph-name="Otilde" unicode="&#xd5;" horiz-adv-x="1550" 
d="M649 1884q78 0 178 -41t154 -43q72 18 121 68l18 -10q0 -346 -217 -347q-71 0 -181 45t-169 48q-55 -14 -139 -78l-15 8q14 350 250 350zM762 1319q-168 0 -168 -627q0 -295 50 -458t144 -162q168 0 168 620q0 297 -50 462t-144 165zM782 1411q334 0 526 -186
q192 -187 191 -523q0 -336 -199 -530q-200 -194 -532 -192q-332 0 -524 184t-193 521q1 337 199 531t532 195z" />
    <glyph glyph-name="Odieresis" unicode="&#xd6;" horiz-adv-x="1550" 
d="M762 1319q-168 0 -168 -627q0 -295 50 -458t144 -162q168 0 168 620q0 297 -50 462t-144 165zM782 1411q334 0 526 -186q192 -187 191 -523q0 -336 -199 -530q-200 -194 -532 -192q-332 0 -524 184t-193 521q1 337 199 531t532 195zM953 1507q-77 0 -125 45t-48 112
t48 113t125 46t125 -46t48 -113t-48 -112t-125 -45zM570 1507q-77 0 -126 45t-49 112t49 113t126 46t124 -46t47 -113t-47 -112t-124 -45z" />
    <glyph glyph-name="multiply" unicode="&#xd7;" horiz-adv-x="915" 
d="M205 231l-123 123l248 248l-240 242l123 123l240 -242l247 248l123 -123l-248 -248l259 -256l-123 -123l-258 256z" />
    <glyph glyph-name="Oslash" unicode="&#xd8;" horiz-adv-x="1550" 
d="M956 692q0 51 -4 137l-344 -417q41 -340 180 -340q168 -1 168 620zM762 1319q-168 0 -168 -627q0 -96 2 -141l346 418q-41 350 -180 350zM780 1411q258 0 434 -113l95 113h125l-142 -172q207 -189 207 -531t-199 -536t-528 -192q-258 0 -432 108l-90 -108h-127l139 167
q-211 187 -211 531q1 344 199 538t530 195z" />
    <glyph glyph-name="Ugrave" unicode="&#xd9;" horiz-adv-x="1536" 
d="M649 1939h103l254 -413l-23 -33l-537 186zM1233 432v879l-129 45v35h391v-35l-129 -45v-1032q-92 -150 -222 -225q-130 -74 -341 -74t-381 80t-248 214v1037l-133 45v35h790v-35l-131 -45v-893q0 -154 64 -234t184 -80q121 0 203 89t82 239z" />
    <glyph glyph-name="Uacute" unicode="&#xda;" horiz-adv-x="1536" 
d="M1233 432v879l-129 45v35h391v-35l-129 -45v-1032q-92 -150 -222 -225q-130 -74 -341 -74t-381 80t-248 214v1037l-133 45v35h790v-35l-131 -45v-893q0 -154 64 -234t184 -80q121 0 203 89t82 239zM1073 1939h103l202 -260l-536 -186l-23 33z" />
    <glyph glyph-name="Ucircumflex" unicode="&#xdb;" horiz-adv-x="1536" 
d="M1233 432v879l-129 45v35h391v-35l-129 -45v-1032q-92 -150 -222 -225q-130 -74 -341 -74t-381 80t-248 214v1037l-133 45v35h790v-35l-131 -45v-893q0 -154 64 -234t184 -80q121 0 203 89t82 239zM825 1915h93l299 -410l-23 -32l-324 135l-321 -135l-23 32z" />
    <glyph glyph-name="Udieresis" unicode="&#xdc;" horiz-adv-x="1536" 
d="M1233 432v879l-129 45v35h391v-35l-129 -45v-1032q-92 -150 -222 -225q-130 -74 -341 -74t-381 80t-248 214v1037l-133 45v35h790v-35l-131 -45v-893q0 -154 64 -234t184 -80q121 0 203 89t82 239zM1056 1507q-77 0 -125 45t-48 112t48 113t125 46t125 -46t48 -113
t-48 -112t-125 -45zM673 1507q-77 0 -126 45t-49 112t49 113t126 46t124 -46t47 -113t-47 -112t-124 -45z" />
    <glyph glyph-name="Yacute" unicode="&#xdd;" horiz-adv-x="1406" 
d="M1020 1939h102l203 -260l-537 -186l-22 33zM-31 1391h817v-33l-122 -43l245 -539h11l268 539l-123 43v33h373v-33l-115 -45l-348 -674v-559l129 -45v-35h-787v35l132 45v549l-365 684l-115 45v33z" />
    <glyph glyph-name="Thorn" unicode="&#xde;" horiz-adv-x="1540" 
d="M778 328h19q166 0 166 351t-185 351h-69v-950l155 -45v-35h-813v35l133 45v1231l-133 45v35h789v-35l-131 -45v-187h155q303 0 469 -106t166 -328t-146 -333q-146 -112 -356 -111q-135 0 -219 37v45z" />
    <glyph glyph-name="germandbls" unicode="&#xdf;" horiz-adv-x="1658" 
d="M803 1503q614 0 614 -286q0 -57 -47 -105t-103 -74q-151 -73 -151 -133q0 -31 27 -55t92 -57l158 -82q117 -61 181 -151t64 -193q0 -186 -119 -287q-119 -100 -303 -100t-354 51v100q0 55 -18 139l-6 29l34 8q73 -36 134 -140q23 -40 34 -85q45 -29 88 -29q94 0 95 123
q0 70 -80 117l-156 90q-61 35 -101 68t-80 103t-40 144q0 123 73 235q29 41 51 111t22 132t-9 110q-8 47 -37 93t-73 46q-115 0 -115 -299v-1046l98 -45v-35h-735v35l135 45v907h-135v51l135 29v6q0 325 402 409q104 21 225 21z" />
    <glyph glyph-name="agrave" unicode="&#xe0;" horiz-adv-x="1290" 
d="M383 1604h102l254 -414l-22 -33l-537 186zM590 152q22 0 51 24q-2 12 -2 47t1 157t1 189q-61 -16 -96 -32v-277q0 -66 11 -87q12 -21 34 -21zM1165 125q47 0 76 119l39 -11q-35 -147 -109 -200t-215 -53q-225 0 -294 135q-131 -135 -300 -135q-133 0 -222 68t-89 210v137
q166 162 592 246v154q0 125 -19 167t-69 42q-20 0 -45 -9q-41 -41 -63 -121t-21 -139l-2 -59h-219q-10 6 -26 21q-15 15 -46 75t-41 133q74 71 218 131t302 60q526 0 527 -418l-6 -494q0 -59 32 -59z" />
    <glyph glyph-name="aacute" unicode="&#xe1;" horiz-adv-x="1290" 
d="M760 1604h102l203 -261l-537 -186l-22 33zM590 152q22 0 51 24q-2 12 -2 47t1 157t1 189q-61 -16 -96 -32v-277q0 -66 11 -87q12 -21 34 -21zM1165 125q47 0 76 119l39 -11q-35 -147 -109 -200t-215 -53q-225 0 -294 135q-131 -135 -300 -135q-133 0 -222 68t-89 210v137
q166 162 592 246v154q0 125 -19 167t-69 42q-20 0 -45 -9q-41 -41 -63 -121t-21 -139l-2 -59h-219q-10 6 -26 21q-15 15 -46 75t-41 133q74 71 218 131t302 60q526 0 527 -418l-6 -494q0 -59 32 -59z" />
    <glyph glyph-name="acircumflex" unicode="&#xe2;" horiz-adv-x="1290" 
d="M582 1599h92l299 -409l-23 -33l-323 135l-322 -135l-22 33zM590 152q22 0 51 24q-2 12 -2 47t1 157t1 189q-61 -16 -96 -32v-277q0 -66 11 -87q12 -21 34 -21zM1165 125q47 0 76 119l39 -11q-35 -147 -109 -200t-215 -53q-225 0 -294 135q-131 -135 -300 -135
q-133 0 -222 68t-89 210v137q166 162 592 246v154q0 125 -19 167t-69 42q-20 0 -45 -9q-41 -41 -63 -121t-21 -139l-2 -59h-219q-10 6 -26 21q-15 15 -46 75t-41 133q74 71 218 131t302 60q526 0 527 -418l-6 -494q0 -59 32 -59z" />
    <glyph glyph-name="atilde" unicode="&#xe3;" horiz-adv-x="1290" 
d="M780 1176q-72 0 -182 45t-168 47q-55 -14 -139 -78l-15 8q14 350 250 350q78 0 178 -41t154 -43q72 18 121 68l18 -10q0 -346 -217 -346zM590 152q22 0 51 24q-2 12 -2 47t1 157t1 189q-61 -16 -96 -32v-277q0 -66 11 -87q12 -21 34 -21zM1165 125q47 0 76 119l39 -11
q-35 -147 -109 -200t-215 -53q-225 0 -294 135q-131 -135 -300 -135q-133 0 -222 68t-89 210v137q166 162 592 246v154q0 125 -19 167t-69 42q-20 0 -45 -9q-41 -41 -63 -121t-21 -139l-2 -59h-219q-10 6 -26 21q-15 15 -46 75t-41 133q74 71 218 131t302 60q526 0 527 -418
l-6 -494q0 -59 32 -59z" />
    <glyph glyph-name="adieresis" unicode="&#xe4;" horiz-adv-x="1290" 
d="M997 1328q0 -67 -48 -112t-125 -45q-77 -1 -125 45t-48 112t48 113q48 46 125 46t125 -46t48 -113zM612 1328q0 -67 -47 -112t-124 -45q-77 -1 -126 45t-49 112t49 113q49 46 126 46t124 -46t47 -113zM590 152q22 0 51 24q-2 12 -2 47t1 157t1 189q-61 -16 -96 -32v-277
q0 -66 11 -87q12 -21 34 -21zM1165 125q47 0 76 119l39 -11q-35 -147 -109 -200t-215 -53q-225 0 -294 135q-131 -135 -300 -135q-133 0 -222 68t-89 210v137q166 162 592 246v154q0 125 -19 167t-69 42q-20 0 -45 -9q-41 -41 -63 -121t-21 -139l-2 -59h-219q-10 6 -26 21
q-15 15 -46 75t-41 133q74 71 218 131t302 60q526 0 527 -418l-6 -494q0 -59 32 -59z" />
    <glyph glyph-name="aring" unicode="&#xe5;" horiz-adv-x="1290" 
d="M637 1235q49 0 49 119t-61 119q-51 0 -51 -119t63 -119zM633 1542q133 0 213 -48t80 -138t-82 -142t-216 -51q-134 0 -214 49q-80 48 -80 138t83 141t216 51zM590 152q22 0 51 24q-2 12 -2 47t1 157t1 189q-61 -16 -96 -32v-277q0 -66 11 -87q12 -21 34 -21zM1165 125
q47 0 76 119l39 -11q-35 -147 -109 -200t-215 -53q-225 0 -294 135q-131 -135 -300 -135q-133 0 -222 68t-89 210v137q166 162 592 246v154q0 125 -19 167t-69 42q-20 0 -45 -9q-41 -41 -63 -121t-21 -139l-2 -59h-219q-10 6 -26 21q-15 15 -46 75t-41 133q74 71 218 131
t302 60q526 0 527 -418l-6 -494q0 -59 32 -59z" />
    <glyph glyph-name="ae" unicode="&#xe6;" horiz-adv-x="1734" 
d="M612 164q39 0 93 65q-66 119 -66 291v47q-59 -12 -94 -30v-277q-1 -96 67 -96zM1202 1012q-63 0 -63 -412l127 10v37q0 195 -12 280q-11 85 -52 85zM555 1004q-20 0 -45 -9q-41 -41 -63 -121t-21 -139l-2 -59h-219q-10 6 -26 21q-15 15 -46 75t-41 133q72 72 216 131
q144 60 334 60t286 -74q106 74 250 74q248 0 382 -135t134 -353v-90l-555 8q8 -156 70 -228q63 -72 155 -71q92 0 150 25t133 80l30 -27q-152 -326 -485 -325q-307 0 -453 190q-166 -190 -377 -190q-133 0 -222 68t-89 210v137q94 89 261 151t329 95l2 154q0 125 -19 167
t-69 42z" />
    <glyph glyph-name="ccedilla" unicode="&#xe7;" horiz-adv-x="1091" 
d="M694 997q-61 0 -108 -106t-47 -305q-1 -199 75 -272q76 -72 188 -72t224 96l35 -29q-109 -330 -445 -329q-23 0 -67 4l-35 -60q266 0 266 -157q0 -170 -262 -170q-176 0 -266 104l22 45q70 -35 142 -35t71 49q0 39 -24 57q-25 17 -84 36v8l86 135q-193 39 -309 175
t-115 359q0 256 181 411t437 155t394 -127q-4 -74 -31 -144t-51 -104l-25 -33h-164q6 182 -71 307q-6 2 -17 2z" />
    <glyph glyph-name="egrave" unicode="&#xe8;" horiz-adv-x="1136" 
d="M328 1604h102l254 -414l-22 -33l-537 186zM604 1012q-63 0 -63 -412l127 10v37q0 195 -12 280q-11 85 -52 85zM41 518q0 262 159 420q160 158 394 158t368 -135t134 -353v-90l-555 10q8 -158 70 -230q63 -72 155 -71q92 0 150 25t133 80l30 -27q-152 -326 -485 -325
q-256 0 -405 138q-148 138 -148 400z" />
    <glyph glyph-name="eacute" unicode="&#xe9;" horiz-adv-x="1136" 
d="M604 1012q-63 0 -63 -412l127 10v37q0 195 -12 280q-11 85 -52 85zM41 518q0 262 159 420q160 158 394 158t368 -135t134 -353v-90l-555 10q8 -158 70 -230q63 -72 155 -71q92 0 150 25t133 80l30 -27q-152 -326 -485 -325q-256 0 -405 138q-148 138 -148 400zM739 1604
h103l202 -261l-536 -186l-23 33z" />
    <glyph glyph-name="ecircumflex" unicode="&#xea;" horiz-adv-x="1136" 
d="M604 1012q-63 0 -63 -412l127 10v37q0 195 -12 280q-11 85 -52 85zM41 518q0 262 159 420q160 158 394 158t368 -135t134 -353v-90l-555 10q8 -158 70 -230q63 -72 155 -71q92 0 150 25t133 80l30 -27q-152 -326 -485 -325q-256 0 -405 138q-148 138 -148 400zM557 1599
h92l299 -409l-22 -33l-324 135l-321 -135l-23 33z" />
    <glyph glyph-name="edieresis" unicode="&#xeb;" horiz-adv-x="1136" 
d="M604 1012q-63 0 -63 -412l127 10v37q0 195 -12 280q-11 85 -52 85zM41 518q0 262 159 420q160 158 394 158t368 -135t134 -353v-90l-555 10q8 -158 70 -230q63 -72 155 -71q92 0 150 25t133 80l30 -27q-152 -326 -485 -325q-256 0 -405 138q-148 138 -148 400zM979 1328
q0 -67 -48 -112t-125 -45q-77 -1 -125 45t-48 112t48 113q48 46 125 46t125 -46t48 -113zM594 1328q0 -67 -47 -112t-124 -45q-77 -1 -126 45t-49 112t49 113q49 46 126 46t124 -46t47 -113z" />
    <glyph glyph-name="igrave" unicode="&#xec;" horiz-adv-x="806" 
d="M219 1604h103l253 -414l-22 -33l-537 186zM664 1096v-1016l112 -45v-35h-733v35l117 45v885l-119 22v41l551 68h72z" />
    <glyph glyph-name="iacute" unicode="&#xed;" horiz-adv-x="806" 
d="M664 1096v-1016l112 -45v-35h-733v35l117 45v885l-119 22v41l551 68h72zM459 1604h102l203 -261l-537 -186l-22 33z" />
    <glyph glyph-name="icircumflex" unicode="&#xee;" horiz-adv-x="806" 
d="M664 1096v-1016l112 -45v-35h-733v35l117 45v885l-119 22v41l551 68h72zM328 1599h92l299 -409l-23 -33l-323 135l-322 -135l-22 33z" />
    <glyph glyph-name="idieresis" unicode="&#xef;" horiz-adv-x="806" 
d="M664 1096v-1016l112 -45v-35h-733v35l117 45v885l-119 22v41l551 68h72zM739 1328q0 -67 -48 -112t-125 -45q-77 -1 -125 45t-48 112t48 113q48 46 125 46t125 -46t48 -113zM354 1328q0 -67 -47 -112t-124 -45q-77 -1 -126 45t-49 112t49 113q49 46 126 46t124 -46
t47 -113z" />
    <glyph glyph-name="eth" unicode="&#xf0;" horiz-adv-x="1316" 
d="M664 70q96 0 96 467q0 247 -25 359t-80 112t-75 -110t-20 -356t24 -360q25 -112 80 -112zM1276 543q0 -260 -171 -412q-171 -151 -454 -151t-447 144t-163 406q0 262 163 414t419 152q72 0 133 -21q-31 86 -64 146l-123 -60l-34 66l120 59q-59 92 -149 187l26 30
q162 -53 293 -135l136 68l36 -68l-98 -49q377 -274 377 -776z" />
    <glyph glyph-name="ntilde" unicode="&#xf1;" horiz-adv-x="1482" 
d="M887 1176q-71 0 -181 45t-169 47q-55 -14 -140 -78l-14 8q14 350 250 350q78 0 178 -41t154 -43q72 18 120 68l19 -10q0 -346 -217 -346zM653 1096v-133h11q53 57 140 95t185 38q346 0 346 -369v-647l117 -45v-35h-688v35l74 45v733q0 96 -84 96q-45 0 -90 -24v-805
l67 -45v-35h-688v35l117 45v864l-119 23v41l551 88h61z" />
    <glyph glyph-name="ograve" unicode="&#xf2;" horiz-adv-x="1316" 
d="M442 1604h103l254 -414l-23 -33l-536 186zM664 70q96 0 96 467q0 247 -25 359t-80 112t-75 -110t-20 -356t24 -360q25 -112 80 -112zM666 1096q282 0 446 -144t164 -407q0 -262 -171 -414q-171 -151 -454 -151t-447 144t-163 407q0 263 171 414t454 151z" />
    <glyph glyph-name="oacute" unicode="&#xf3;" horiz-adv-x="1316" 
d="M664 70q96 0 96 467q0 247 -25 359t-80 112t-75 -110t-20 -356t24 -360q25 -112 80 -112zM666 1096q282 0 446 -144t164 -407q0 -262 -171 -414q-171 -151 -454 -151t-447 144t-163 407q0 263 171 414t454 151zM772 1604h102l203 -261l-536 -186l-23 33z" />
    <glyph glyph-name="ocircumflex" unicode="&#xf4;" horiz-adv-x="1316" 
d="M664 70q96 0 96 467q0 247 -25 359t-80 112t-75 -110t-20 -356t24 -360q25 -112 80 -112zM666 1096q282 0 446 -144t164 -407q0 -262 -171 -414q-171 -151 -454 -151t-447 144t-163 407q0 263 171 414t454 151zM608 1599h92l299 -409l-22 -33l-324 135l-321 -135l-23 33z
" />
    <glyph glyph-name="otilde" unicode="&#xf5;" horiz-adv-x="1316" 
d="M795 1176q-72 0 -182 45t-169 47q-55 -14 -139 -78l-14 8q14 350 250 350q78 0 178 -41t153 -43q72 18 121 68l19 -10q0 -346 -217 -346zM664 70q96 0 96 467q0 247 -25 359t-80 112t-75 -110t-20 -356t24 -360q25 -112 80 -112zM666 1096q282 0 446 -144t164 -407
q0 -262 -171 -414q-171 -151 -454 -151t-447 144t-163 407q0 263 171 414t454 151z" />
    <glyph glyph-name="odieresis" unicode="&#xf6;" horiz-adv-x="1316" 
d="M664 70q96 0 96 467q0 247 -25 359t-80 112t-75 -110t-20 -356t24 -360q25 -112 80 -112zM666 1096q282 0 446 -144t164 -407q0 -262 -171 -414q-171 -151 -454 -151t-447 144t-163 407q0 263 171 414t454 151zM1026 1328q0 -67 -48 -112t-125 -45q-77 -1 -125 45
t-48 112t48 113q48 46 125 46t125 -46t48 -113zM641 1328q0 -67 -47 -112t-124 -45q-77 -1 -126 45t-49 112t49 113q49 46 126 46t124 -46t47 -113z" />
    <glyph glyph-name="divide" unicode="&#xf7;" horiz-adv-x="1040" 
d="M385 232q0 54 40 94t95 41q55 0 95 -40q40 -41 40 -95t-41 -94t-94 -40t-94 40t-41 94zM82 500v174h876v-174h-876zM385 941q0 54 40 94t95 40t95 -40t40 -94t-41 -94t-94 -40t-94 40t-41 94z" />
    <glyph glyph-name="oslash" unicode="&#xf8;" horiz-adv-x="1316" 
d="M664 70q96 0 96 467v34l-199 -204q15 -297 103 -297zM559 537v-52l197 207q-12 315 -103 316q-53 0 -73 -110t-21 -361zM642 1096q260 0 409 -99l73 78h117l-125 -129q160 -147 160 -405t-171 -410t-452 -151q-225 0 -374 90l-86 -90h-119l135 141q-168 145 -168 409
t171 415q170 151 430 151z" />
    <glyph glyph-name="ugrave" unicode="&#xf9;" horiz-adv-x="1474" 
d="M508 1604h102l254 -414l-22 -33l-537 186zM649 1096v-895q31 -35 74 -35t92 24v754l-108 23v41l546 88h64v-1016l117 -39v-41h-590l-21 113h-8q-123 -133 -317 -133q-272 0 -348 204v760l-119 23v41l557 88h61z" />
    <glyph glyph-name="uacute" unicode="&#xfa;" horiz-adv-x="1474" 
d="M649 1096v-895q31 -35 74 -35t92 24v754l-108 23v41l546 88h64v-1016l117 -39v-41h-590l-21 113h-8q-123 -133 -317 -133q-272 0 -348 204v760l-119 23v41l557 88h61zM877 1604h102l203 -261l-537 -186l-22 33z" />
    <glyph glyph-name="ucircumflex" unicode="&#xfb;" horiz-adv-x="1474" 
d="M649 1096v-895q31 -35 74 -35t92 24v754l-108 23v41l546 88h64v-1016l117 -39v-41h-590l-21 113h-8q-123 -133 -317 -133q-272 0 -348 204v760l-119 23v41l557 88h61zM684 1599h92l299 -409l-22 -33l-324 135l-321 -135l-23 33z" />
    <glyph glyph-name="udieresis" unicode="&#xfc;" horiz-adv-x="1474" 
d="M649 1096v-895q31 -35 74 -35t92 24v754l-108 23v41l546 88h64v-1016l117 -39v-41h-590l-21 113h-8q-123 -133 -317 -133q-272 0 -348 204v760l-119 23v41l557 88h61zM1096 1328q0 -67 -48 -112t-125 -45q-77 -1 -125 45t-48 112t48 113q48 46 125 46t125 -46t48 -113z
M711 1328q0 -67 -47 -112t-124 -45q-77 -1 -126 45t-49 112t49 113q49 46 126 46t124 -46t47 -113z" />
    <glyph glyph-name="yacute" unicode="&#xfd;" horiz-adv-x="1148" 
d="M870 1604h103l203 -261l-537 -186l-23 33zM-31 1075h715v-35l-86 -43l209 -503h4l152 505l-78 43v33h295v-33l-95 -45l-333 -979q-70 -204 -171 -292t-253 -88q-111 0 -203 32q-12 63 0 132t31 106l18 37h152q6 -127 53 -199q109 0 190 129l-510 1122l-90 45v33z" />
    <glyph glyph-name="thorn" unicode="&#xfe;" horiz-adv-x="1402" 
d="M733 909q-45 0 -74 -22v-733q39 -80 80 -80q104 0 105 452q0 383 -111 383zM659 1503v-538q135 131 291 131t273 -99q63 -53 101 -161t38 -263q0 -274 -148 -434t-395 -159q-84 0 -160 16v-258q158 -45 160 -45v-35h-799v35l138 45v1614l-117 22v41l555 88h63z" />
    <glyph glyph-name="ydieresis" unicode="&#xff;" horiz-adv-x="1148" 
d="M1012 1328q0 -67 -48 -112t-125 -45q-77 -1 -125 45t-48 112t48 113q48 46 125 46t125 -46t48 -113zM627 1328q0 -67 -47 -112t-124 -45q-77 -1 -126 45t-49 112t49 113q49 46 126 46t124 -46t47 -113zM-31 1075h715v-35l-86 -43l209 -503h4l152 505l-78 43v33h295v-33
l-95 -45l-333 -979q-70 -204 -171 -292t-253 -88q-111 0 -203 32q-12 63 0 132t31 106l18 37h152q6 -127 53 -199q109 0 190 129l-510 1122l-90 45v33z" />
    <glyph glyph-name="dotlessi" unicode="&#x131;" horiz-adv-x="806" 
d="M664 1096v-1016l112 -45v-35h-733v35l117 45v885l-119 22v41l551 68h72z" />
    <glyph glyph-name="Lslash" unicode="&#x141;" horiz-adv-x="1343" 
d="M51 1391h789v-35l-131 -45v-291l133 76v-113l-133 -76v-813h299q51 111 117 201q67 90 108 123l41 35l29 -21q-18 -182 -19 -338v-94h-1233v35l133 45v534l-133 -73v112l133 74v584l-133 45v35z" />
    <glyph glyph-name="lslash" unicode="&#x142;" horiz-adv-x="796" 
d="M653 1503v-465l103 58v-113l-103 -57v-846l113 -45v-35h-733v35l117 45v565l-117 -65v112l117 66v614l-119 23v41l551 67h71z" />
    <glyph glyph-name="OE" unicode="&#x152;" horiz-adv-x="2129" 
d="M594 692q0 -296 50 -458t142 -162t134 166v868q-51 213 -158 213q-168 0 -168 -627zM772 -20q-336 0 -528 184t-193 521q0 337 199 532t530 194q98 0 205 -20h1032v-95q0 -135 15 -288l4 -50l-29 -20q-16 12 -45 37t-99 118q-71 93 -122 203h-297v-565l311 14l76 158h43
v-426h-37l-80 158l-313 14v-555h340q51 111 118 201t107 123l41 35l29 -21q-18 -182 -19 -338v-94h-1089q-106 -20 -199 -20z" />
    <glyph glyph-name="oe" unicode="&#x153;" horiz-adv-x="1861" 
d="M1329 1012q-63 0 -63 -412l127 10v37q0 195 -12 280q-11 85 -52 85zM664 70q96 0 96 467q0 247 -25 359t-80 112t-75 -110t-20 -356t24 -360q25 -112 80 -112zM41 531q0 263 171 414t452 151q219 0 356 -115q125 115 285 115q248 0 382 -135t134 -353v-90l-555 10
q8 -158 70 -230t154 -71q92 0 150 25t134 80l30 -27q-152 -326 -485 -325q-197 0 -318 110q-141 -111 -348 -110q-285 0 -449 144t-163 407z" />
    <glyph glyph-name="Scaron" unicode="&#x160;" horiz-adv-x="1243" 
d="M80 166q0 140 -23 240l-6 36l66 29q123 -92 201 -227q34 -57 53 -117q98 -39 197 -39t159 48q59 48 59 142t-116 148l-219 100q-173 80 -267 182t-94 254q0 153 81 257q148 190 470 190q90 0 254 -29t201 -32v-74q0 -130 18 -223l6 -31l-47 -27q-63 33 -146 123
q-84 90 -112 168q-63 23 -147 23t-130 -37t-46 -96q0 -98 104 -142l174 -76q226 -98 324 -200t98 -273q0 -203 -160 -353t-434 -150t-518 104v82zM664 1473h-93l-299 409l23 33l321 -135l324 135l23 -33z" />
    <glyph glyph-name="scaron" unicode="&#x161;" horiz-adv-x="1085" 
d="M989 971q0 -117 21 -180l-29 -19q-176 59 -256 195q-88 41 -174 41q-117 0 -117 -80q0 -35 26 -59t97 -48l182 -63q295 -100 295 -340q0 -195 -150 -317q-150 -121 -376 -121t-453 92v63q0 114 -18 180l-6 25l30 18q61 -20 138 -88q78 -67 120 -143q87 -57 173 -57
t129 32t43 80q0 49 -26 75t-87 48l-193 68q-287 102 -286 348q0 164 122 269t322 106q100 0 257 -29t216 -29v-67zM584 1157h-92l-299 410l22 32l322 -135l323 135l23 -32z" />
    <glyph glyph-name="Ydieresis" unicode="&#x178;" horiz-adv-x="1406" 
d="M953 1507q-77 0 -125 45t-48 112t48 113t125 46t125 -46t48 -113t-48 -112t-125 -45zM570 1507q-77 0 -126 45t-49 112t49 113t126 46t124 -46t47 -113t-47 -112t-124 -45zM-31 1391h817v-33l-122 -43l245 -539h11l268 539l-123 43v33h373v-33l-115 -45l-348 -674v-559
l129 -45v-35h-787v35l132 45v549l-365 684l-115 45v33z" />
    <glyph glyph-name="Zcaron" unicode="&#x17d;" horiz-adv-x="1318" 
d="M1217 1391v-66l-551 -1231h340q27 76 80 149q54 73 94 107l41 35l47 -14q-18 -121 -19 -281v-90h-1198v43l578 1253h-271q-22 -76 -78 -148t-102 -104l-45 -32l-37 16q18 123 19 283v80h1102zM735 1473h-92l-299 409l23 33l321 -135l324 135l22 -33z" />
    <glyph glyph-name="zcaron" unicode="&#x17e;" horiz-adv-x="1101" 
d="M1049 1075v-65l-406 -924h188q31 78 82 150t88 104l37 35l35 -10q-25 -135 -24 -299v-66h-1004v66l463 923h-182q-27 -72 -80 -133t-94 -88l-39 -27l-27 17q18 106 18 252v65h945zM608 1157h-92l-299 410l23 32l321 -135l324 135l22 -32z" />
    <glyph glyph-name="florin" unicode="&#x192;" horiz-adv-x="1308" 
d="M1092 1241q-20 10 -46 10t-43 -21q-16 -22 -25 -36t-17 -39q-7 -25 -13 -42t-12 -45l-9 -42q-3 -14 -7 -41t-7 -33l-34 -190h206v-96h-223l-102 -598q-74 -430 -570 -430q-188 0 -307 59q2 66 22 125q19 59 38 88l20 27l178 -23q-39 -82 -49 -190q16 -8 43 -9
q74 0 123 299l113 652h-158v96h174l25 137q76 430 592 430q178 0 296 -59q-2 -72 -21 -136t-38 -94l-20 -30l-179 22q39 88 50 209z" />
    <glyph glyph-name="circumflex" unicode="&#x2c6;" horiz-adv-x="749" 
d="M338 1599h92l299 -409l-22 -33l-324 135l-322 -135l-22 33z" />
    <glyph glyph-name="caron" unicode="&#x2c7;" horiz-adv-x="749" 
d="M430 1157h-92l-299 410l22 32l322 -135l324 135l22 -32z" />
    <glyph glyph-name="breve" unicode="&#x2d8;" horiz-adv-x="718" 
d="M358 1430q180 0 232 96l82 -27q-12 -151 -80 -235t-236 -84q-293 0 -311 319l82 27q51 -96 231 -96z" />
    <glyph glyph-name="dotaccent" unicode="&#x2d9;" horiz-adv-x="534" 
d="M45 1354q0 84 60 141q59 57 159 57t162 -57t61 -142q0 -85 -61 -143q-60 -58 -160 -57q-100 0 -161 58q-60 59 -60 143z" />
    <glyph glyph-name="ring" unicode="&#x2da;" horiz-adv-x="622" 
d="M328 1235q49 0 49 119t-62 119q-51 0 -51 -119t64 -119zM324 1542q133 0 213 -48q79 -48 79 -138t-81 -142q-83 -51 -217 -51t-214 49q-80 48 -80 138t84 141q83 51 216 51z" />
    <glyph glyph-name="ogonek" unicode="&#x2db;" horiz-adv-x="577" 
d="M256 -362q-197 0 -197 155q0 209 394 291l55 -25q-84 -27 -139 -73t-55 -106t100 -60q53 -1 102 26l-8 -73q-94 -135 -252 -135z" />
    <glyph glyph-name="tilde" unicode="&#x2dc;" horiz-adv-x="903" 
d="M594 1176q-72 0 -182 45t-168 47q-55 -14 -140 -78l-14 8q14 350 250 350q78 0 178 -41t154 -43q72 18 121 68l18 -10q0 -346 -217 -346z" />
    <glyph glyph-name="hungarumlaut" unicode="&#x2dd;" horiz-adv-x="921" 
d="M367 1190l385 373l137 -232v-69l-506 -109zM283 1602h112l154 -181l-496 -264l-22 33z" />
    <glyph glyph-name="pi" unicode="&#x3c0;" horiz-adv-x="1241" 
d="M61 952h1119l-557 -923z" />
    <glyph glyph-name="endash" unicode="&#x2013;" horiz-adv-x="1064" 
d="M37 506v143h991v-143h-991z" />
    <glyph glyph-name="emdash" unicode="&#x2014;" horiz-adv-x="1634" 
d="M37 506v143h1560v-143h-1560z" />
    <glyph glyph-name="quoteleft" unicode="&#x2018;" horiz-adv-x="579" 
d="M532 950q0 -100 -66 -168t-178 -68t-180 68t-67 168q0 369 504 461l14 -27q-37 -32 -57 -54t-46 -72t-30 -109q106 -70 106 -199z" />
    <glyph glyph-name="quoteright" unicode="&#x2019;" horiz-adv-x="579" 
d="M47 1176q0 100 67 168q66 68 178 67q112 0 180 -68t67 -167q0 -369 -504 -461l-15 26q37 33 58 55q20 22 46 72t30 109q-107 70 -107 199z" />
    <glyph glyph-name="quotesinglbase" unicode="&#x201a;" horiz-adv-x="565" 
d="M37 213q0 100 66 168q67 68 179 68t180 -68t66 -168q0 -369 -503 -461l-15 27q37 33 58 54q20 22 46 72t29 109q-106 70 -106 199z" />
    <glyph glyph-name="quotedblleft" unicode="&#x201c;" horiz-adv-x="1095" 
d="M1049 950q0 -100 -67 -168q-66 -68 -178 -68t-180 68t-67 168q0 369 504 461l14 -27q-37 -32 -57 -54t-46 -72t-30 -109q107 -70 107 -199zM532 950q0 -100 -66 -168t-178 -68t-180 68t-67 168q0 369 504 461l14 -27q-37 -32 -57 -54t-46 -72t-30 -109q106 -70 106 -199z
" />
    <glyph glyph-name="quotedblright" unicode="&#x201d;" horiz-adv-x="1095" 
d="M563 1174q0 100 67 168q66 68 178 67q112 0 180 -68t67 -167q0 -369 -504 -461l-14 26q37 33 57 55t46 72t30 109q-107 70 -107 199zM47 1174q0 100 67 168q66 68 178 67q112 0 180 -68t67 -167q0 -369 -504 -461l-15 26q37 33 58 55q20 22 46 72t30 109
q-107 70 -107 199z" />
    <glyph glyph-name="quotedblbase" unicode="&#x201e;" horiz-adv-x="1081" 
d="M553 213q0 100 67 168q66 68 178 68t180 -68t66 -168q0 -369 -503 -461l-15 27q37 33 58 54q20 22 46 72t29 109q-106 70 -106 199zM37 213q0 100 66 168q67 68 179 68t180 -68t66 -168q0 -369 -503 -461l-15 27q37 33 58 54q20 22 46 72t29 109q-106 70 -106 199z" />
    <glyph glyph-name="dagger" unicode="&#x2020;" horiz-adv-x="1060" 
d="M735 1391l-172 -445l416 154v-369l-406 148l162 -240l-184 -639h-41l-184 639l157 238l-401 -146v369l414 -152l-170 443h409z" />
    <glyph glyph-name="daggerdbl" unicode="&#x2021;" horiz-adv-x="1060" 
d="M82 750v368l414 -151l-170 424h409l-172 -426l416 153v-368l-399 145l155 -201l-155 -200l399 147v-369l-416 152l172 -424h-409l170 422l-414 -150v369l397 -145l-153 198l153 199z" />
    <glyph glyph-name="bullet" unicode="&#x2022;" horiz-adv-x="880" 
d="M72 668q0 150 100 250t266 100t268 -100t103 -250q0 -150 -102 -250q-103 -102 -269 -102t-266 101t-100 251z" />
    <glyph glyph-name="ellipsis" unicode="&#x2026;" horiz-adv-x="1695" 
d="M1167 214q0 99 67 167q66 68 178 68t180 -68t67 -167q0 -99 -69 -167q-70 -67 -180 -67t-176 68t-67 166zM602 214q0 99 67 167t179 68t178 -68q68 -68 68 -167t-69 -167q-69 -67 -179 -67t-178 68q-66 68 -66 166zM37 214q0 99 66 167q67 68 179 68t180 -68t66 -167
q0 -99 -68 -167q-68 -67 -180 -67q-110 0 -177 67q-66 68 -66 167z" />
    <glyph glyph-name="perthousand" unicode="&#x2030;" horiz-adv-x="2246" 
d="M2185 320q0 -160 -92 -250t-245 -90q-154 0 -242 87t-88 245t92 248q92 91 244 91q153 0 242 -86t89 -245zM1855 41q45 -1 45 275t-51 276q-47 0 -47 -276t53 -275zM1456 320q0 -160 -92 -250t-245 -90t-241 87t-90 245q0 158 92 248q92 91 245 91t242 -86t89 -245z
M1126 41q45 -1 45 275t-49 276t-49 -276t53 -275zM420 0h-119l789 1309h116zM729 998q0 -160 -92 -250t-245 -90q-154 0 -242 86q-88 87 -88 245t91 249q92 91 245 91t242 -86t89 -245zM399 719q45 -1 45 275t-49 276t-49 -276t53 -275z" />
    <glyph glyph-name="guilsinglleft" unicode="&#x2039;" horiz-adv-x="630" 
d="M41 475v133l481 381h68l-121 -444l121 -451h-68z" />
    <glyph glyph-name="guilsinglright" unicode="&#x203a;" horiz-adv-x="630" 
d="M590 608v-133l-481 -381h-68l121 451l-121 444h68z" />
    <glyph glyph-name="fraction" unicode="&#x2044;" horiz-adv-x="1009" 
d="M88 0h-119l955 1309h116z" />
    <glyph glyph-name="Euro" unicode="&#x20ac;" horiz-adv-x="1374" 
d="M903 821v-96h-213v-18q0 -37 4 -107h209v-96h-192q59 -250 297 -250q72 0 135 27t89 47t71 61l30 -22q-53 -181 -199 -285t-341 -105q-256 -1 -427 139t-208 388h-97v96h89v25q0 68 4 100h-93v96h111q58 242 250 375t459 133q90 -1 208 -23t156 -22v-100q0 -158 21 -240
l6 -35l-47 -22q-64 32 -120 92q-109 116 -147 242l-36 2q-86 -1 -148 -105t-80 -297h209z" />
    <glyph glyph-name="trademark" unicode="&#x2122;" horiz-adv-x="1910" 
d="M264 1343h-92q-34 -77 -92 -161l-19 -27l-20 4q12 68 12 158v74h711v-74q0 -92 10 -137l2 -21l-20 -4q-70 94 -111 188h-96v-608l90 -22v-17h-463v17l88 22v608zM836 1391h358l182 -369h4l158 369h332v-17l-66 -20v-621l66 -20v-17h-416v17l68 20v412h-4
q-18 -74 -41 -123l-136 -293h-118l-176 293q-29 53 -48 123h-4v-412l66 -20v-17h-225v17l67 20v621l-67 20v17z" />
    <glyph glyph-name="Omega" unicode="&#x2126;" horiz-adv-x="1871" 
d="M1001 612v318q45 59 149 112q104 54 236 54q130 0 236 -54t147 -112v-318q0 -313 -179 -473t-466 -159q-55 0 -116 6v2q162 19 296 136q73 64 93 146q-162 0 -279 82t-117 260zM102 612v318q42 59 148 112q106 54 237 54t237 -54t146 -112v-318q0 -313 -179 -473
t-466 -159q-59 0 -116 6v2q163 19 295 136q74 64 94 146q-162 0 -279 82t-117 260z" />
    <glyph glyph-name="partialdiff" unicode="&#x2202;" horiz-adv-x="1107" 
d="M985 1098v-1118l-924 557z" />
    <glyph glyph-name="Delta" unicode="&#x2206;" horiz-adv-x="2129" 
d="M559 270q-203 0 -330 120t-127 292t127 293t332 121t332 -125t127 -318q0 -143 -41 -260q-74 -211 -259 -313t-417 -100q-66 0 -127 6v2q117 14 251 91t167 193q-12 -2 -35 -2zM1569 270q-205 0 -333 120t-128 292t128 293t332 121t332 -126t128 -317q0 -143 -41 -259
q-76 -214 -262 -315t-416 -99q-59 0 -125 6v2q171 20 315 138q80 67 103 146q-10 -2 -33 -2z" />
    <glyph glyph-name="product" unicode="&#x220f;" horiz-adv-x="1241" 
d="M1180 86h-1119l562 924z" />
    <glyph glyph-name="summation" unicode="&#x2211;" horiz-adv-x="1107" 
d="M123 -20v1118l924 -561z" />
    <glyph glyph-name="minus" unicode="&#x2212;" horiz-adv-x="1040" 
d="M82 518v174h876v-174h-876z" />
    <glyph glyph-name="radical" unicode="&#x221a;" horiz-adv-x="2129" 
d="M1571 805q203 0 330 -120t127 -292t-127 -293q-127 -120 -332 -120t-332 124t-127 318q0 143 41 260q74 211 258 312q184 102 418 102q66 0 127 -6v-3q-117 -14 -251 -91t-167 -193q12 2 35 2zM561 805q205 0 333 -120t128 -292t-128 -293q-128 -120 -332 -120t-332 126
t-128 316q0 143 41 259q76 214 261 315q185 100 417 100q59 0 125 -6v-3q-174 -20 -315 -138q-80 -67 -103 -146q10 2 33 2z" />
    <glyph glyph-name="infinity" unicode="&#x221e;" horiz-adv-x="1630" 
d="M1192 401q82 0 127 45t45 126t-45 127t-120 46t-138 -46t-137 -126q153 -172 268 -172zM440 401q113 0 267 172q-47 51 -81 82t-86 61t-117 30t-111 -47q-46 -46 -46 -127t46 -126t128 -45zM1192 905q162 0 259 -95q97 -94 97 -238t-92 -237t-264 -93q-111 0 -199 54
t-176 146q-201 -200 -376 -200t-267 93t-92 236t98 239t260 95q109 1 197 -55t178 -148q88 92 177 148t200 55z" />
    <glyph glyph-name="integral" unicode="&#x222b;" horiz-adv-x="1871" 
d="M486 -20q-132 0 -237 53t-147 112v318q0 313 180 473t466 160q55 0 116 -6v-3q-164 -19 -296 -136q-73 -64 -93 -146q162 0 279 -82t116 -260v-318q-45 -59 -149 -112q-103 -53 -235 -53zM1384 -20q-132 0 -236 53q-105 53 -147 112v318q-1 313 179 473t467 160
q57 0 116 -6v-3q-164 -19 -296 -136q-73 -64 -93 -146q162 0 279 -82t116 -260v-318q-41 -59 -147 -112t-238 -53z" />
    <glyph glyph-name="approxequal" unicode="&#x2248;" horiz-adv-x="1255" 
d="M900 260q-83 0 -229 69t-216 68q-137 0 -258 -141l-115 125q62 97 162 155t210 58t262 -70q153 -70 193 -69q88 0 158 90l107 -125q-43 -72 -117 -116t-157 -44zM900 631q-83 1 -229 69t-216 68q-137 0 -258 -141l-115 125q62 96 162 154t210 58t262 -69q153 -70 193 -70
q88 0 158 90l107 -124q-43 -72 -117 -116t-157 -44z" />
    <glyph glyph-name="notequal" unicode="&#x2260;" horiz-adv-x="1040" 
d="M82 733v174h475l68 148h145l-65 -148h253v-174h-331l-74 -164h405v-174h-483l-65 -145h-148l66 145h-246v174h324l73 164h-397z" />
    <glyph glyph-name="lessequal" unicode="&#x2264;" horiz-adv-x="1040" 
d="M82 20v175h876v-175h-876zM958 461v-178l-876 323v131l876 324v-178l-612 -211z" />
    <glyph glyph-name="greaterequal" unicode="&#x2265;" horiz-adv-x="1040" 
d="M958 195v-175h-876v175h876zM82 283v178l612 211l-612 211v178l876 -324v-131z" />
    <glyph glyph-name="lozenge" unicode="&#x25ca;" horiz-adv-x="1042" 
d="M102 0v133h838v-133h-838zM102 1257v134h838v-134h-838zM532 852l164 348h170l-252 -502l260 -510h-178l-164 351l-170 -351h-176l258 508l-258 504h176z" />
    <glyph glyph-name="apple" unicode="&#xf8ff;" horiz-adv-x="2918" 
d="M1710 584q0 27 -27 26q-41 1 -49 -69q76 0 76 43zM2372 584q0 27 -27 26q-41 1 -49 -69q76 0 76 43zM279 584q0 27 -27 26q-41 1 -49 -69q76 0 76 43zM1049 332q0 -29 28 -29q52 0 56 94q-84 -18 -84 -65zM1860 512q24 0 38 -14t14 -34t-14 -34q-16 -14 -38 -14t-37 13
t-15 33t14 36q14 14 38 14zM1440 553q0 41 -27 41t-46 -38t-19 -60v-47q92 12 92 104zM2344 471q42 0 73 18q16 -10 16 -25q0 -14 -5 -24t-29 -20q-23 -10 -71 -10t-81 30t-33 81q0 52 38 94t90 42t75 -19t22 -44q0 -78 -141 -78q4 -45 46 -45zM1682 471q42 0 73 18
q30 -19 11 -50q-16 -29 -82 -29t-99 30t-33 81q0 52 38 94t90 42t76 -19q22 -19 22 -44q-2 -78 -142 -78q4 -45 46 -45zM251 471q42 0 73 18q16 -10 16 -25q0 -14 -5 -24t-29 -20t-72 -10t-80 30q-33 30 -33 81q0 52 38 94t90 42t75 -19t22 -44q0 -78 -141 -78q4 -45 46 -45
zM2181 592v-100l4 -66q-49 -16 -67 -16t-19 16v137q0 31 -15 31q-14 0 -34 -36t-20 -62l6 -70q-49 -16 -69 -16t-19 16v141l-6 74q48 16 68 16t20 -18v-82q35 100 92 100q59 1 59 -65zM129 0v16h2740v-16h-2740zM129 1083v17h2740v-17h-2740zM2700 428l-169 -16
q-39 0 -47 26t-9 112q-1 87 -3 130l-59 -4v8q0 41 24 41h35l-6 61q48 16 68 16t20 -16v-59h96v-6q0 -43 -24 -43h-72v-184q0 -31 33 -31q23 0 79 11t92 11q38 0 84 -12t46 -39t-20 -41t-30 -14q-10 1 -60 25t-78 24zM557 657q59 0 59 -65v-35q29 100 93 100q57 1 57 -65
v-100l6 -66q-50 -16 -68 -16t-18 16v135q0 33 -14 33t-36 -36t-20 -62l5 -70q-49 -16 -68 -16t-18 16v135q1 33 -15 33t-36 -36t-19 -62l6 -70q-49 -16 -69 -16t-19 16v141l-6 74q49 16 69 16t19 -18v-82q33 100 92 100zM1444 655q34 1 58 -27t24 -77q0 -139 -178 -139v-82
l6 -66q-49 -16 -69 -16t-19 16v154l-52 -6v-6q0 -162 -139 -162q-43 0 -63 22t-21 47q0 74 144 109v86q-35 -98 -93 -98t-59 63v6q-39 -67 -103 -67t-65 61v207l-59 -4v8q0 41 24 41h35l-6 61q49 16 69 16t19 -16v-59h96v-6q0 -43 -24 -43h-72v-176q0 -33 27 -33q18 0 39 16
q20 16 20 37v51l-6 68q49 16 69 16t19 -18v-135q0 -31 14 -31t35 36q20 36 19 62l-5 70q49 16 64 16q23 0 22 -18v-203l52 6v125l-6 74q48 16 68 16t20 -18v-82q35 98 96 98z" />
    <glyph glyph-name="NULL" 
 />
    <glyph glyph-name="eight.tab" horiz-adv-x="1228" 
d="M461 1131q1 -45 25 -69t85 -54l197 -103q35 63 35 155t-46 137q-46 44 -128 44t-125 -33t-43 -77zM350 272q0 -82 58 -141t157 -59q219 0 219 164q1 90 -118 147l-248 121q-68 -94 -68 -232zM43 281q0 94 62 175t176 122q-190 125 -191 335q0 143 82 241q148 176 451 175
q223 0 350 -78t127 -190q0 -145 -197 -225q149 -82 215 -170t66 -220t-52 -225q-52 -94 -142 -144q-177 -99 -416 -98t-385 73t-146 229z" />
    <glyph glyph-name="five.tab" horiz-adv-x="1228" 
d="M1157 428q0 -449 -670 -448q-137 0 -249 34t-166 82q0 82 33 178t79 132h70q16 -213 82 -316q49 -18 127 -18q180 0 180 237q0 219 -250 219q-168 0 -229 -22l-19 20l39 783h895l-30 -348h-779l-8 -138q129 18 332 19q268 0 416 -102t147 -312z" />
    <glyph glyph-name="four.tab" horiz-adv-x="1228" 
d="M537 401v461h-11l-340 -461h351zM25 305v53l700 951h334v-908h143v-96h-143v-225l131 -45v-35h-803v35l150 45v225h-512z" />
    <glyph glyph-name="nine.tab" horiz-adv-x="1228" 
d="M627 596q35 0 59 8q4 74 4 239q0 392 -88 392q-82 0 -82 -340q0 -167 23 -233t84 -66zM444 473q-194 0 -308 109q-114 110 -114 306t168 318t408 123q608 0 608 -596q0 -354 -183 -554t-517 -199q-94 0 -172 22q-122 34 -183 98q-61 65 -61 84l39 43q80 -72 221 -71
q283 0 328 362q-100 -45 -234 -45z" />
    <glyph glyph-name="one.tab" horiz-adv-x="1228" 
d="M375 1053h-19q-68 -1 -122 23t-74 46l-19 25v31q49 4 129 12t264 47t291 94l64 -31v-1206l196 -59v-35h-901v35l191 57v961z" />
    <glyph glyph-name="seven.tab" horiz-adv-x="1228" 
d="M1159 1309v-164l-497 -1145h-433v70l676 891h-618q-19 -55 -63 -107t-79 -76l-34 -22l-41 16q25 199 24 391v146h1065z" />
    <glyph glyph-name="six.tab" horiz-adv-x="1228" 
d="M602 713q-25 0 -61 -8q-2 -39 -2 -221q0 -411 88 -410q80 0 80 340q0 168 -22 234t-83 65zM879 1153q-285 0 -330 -362q106 45 233 45q193 0 309 -109q115 -109 115 -305t-169 -320q-169 -123 -408 -122q-608 0 -609 595q0 354 184 554t517 200q237 0 368 -131
q50 -52 50 -74l-39 -43q-82 72 -221 72z" />
    <glyph glyph-name="three.tab" horiz-adv-x="1228" 
d="M600 956q0 141 -182 142q-143 0 -283 -109l-41 41q35 62 73 106q39 44 103 93q134 102 364 101t353 -83q123 -83 123 -223t-99 -203t-288 -86v-6q444 -8 444 -330q0 -100 -46 -178q-45 -78 -113 -122t-186 -82t-294 -37q-283 0 -469 116q0 82 28 178t65 132h71
q0 -23 3 -58t33 -121t83 -143q61 -10 119 -10q186 0 186 268q0 170 -98 238q-49 33 -97 48t-120 27l18 101q192 13 232 98q18 41 18 102z" />
    <glyph glyph-name="two.tab" horiz-adv-x="1228" 
d="M651 1329q207 0 330 -106t123 -285q0 -86 -37 -162t-73 -122t-138 -112q-164 -105 -391 -208v-4h491q25 61 69 107t75 63l30 14l29 -18q-23 -166 -22 -392v-104h-1051l-16 94q514 514 514 819q0 80 -44 120t-116 40t-151 -39t-136 -92l-41 37q35 80 100 154
q66 74 188 135t267 61z" />
    <glyph glyph-name="zero.tab" horiz-adv-x="1228" 
d="M618 68q78 0 78 588t-82 589q-82 -1 -82 -589t86 -588zM12 644q0 306 167 496t440 189q273 0 435 -179t163 -486q0 -308 -167 -496q-168 -188 -440 -188t-435 179t-163 485z" />
    </font>
</defs>
</svg>
