<svg xmlns="http://www.w3.org/2000/svg" viewBox="0 0 171.96 22.91"><path fill="white" d="M44.83,14.73a2.19,2.19,0,0,0-2.26-2.32,2.23,2.23,0,0,0-2.28,2.32,2.27,2.27,0,1,0,4.54,0ZM46,4.77a.45.45,0,0,1-.14.63h0a17,17,0,0,0-3.76,3.34,5.34,5.34,0,0,1,1-.08c4.72.27,5.77,3.77,5.77,6.17a5.91,5.91,0,0,1-6.26,6,6.07,6.07,0,0,1-6.28-6.25c0-6.19,4-10.2,7.55-12.28a.53.53,0,0,1,.69.17Zm10.75,8.72h2.09a.23.23,0,0,0,.23-.24V9.7a.24.24,0,0,0-.44-.12l-2.06,3.61A.2.2,0,0,0,56.76,13.49Zm5.52,6.73a.48.48,0,0,1-.48.49H58.61a.49.49,0,0,1-.49-.48h0V17.29H51.73a.48.48,0,0,1-.48-.48h0V15.38a1.48,1.48,0,0,1,.27-.89L58.79,2.83a1,1,0,0,1,.76-.41H61.8a.48.48,0,0,1,.48.49V13.49h1.78a.48.48,0,0,1,.48.49V16.8a.48.48,0,0,1-.48.49H62.28ZM80.45,8.36a2.12,2.12,0,0,0-2.31-2.18H75.66a.51.51,0,0,0-.51.51v3.37a.51.51,0,0,0,.51.51h2.58a2.17,2.17,0,0,0,2.21-2.21m.81,5.45,3,6.48a.29.29,0,0,1-.26.42H80.37a.75.75,0,0,1-.68-.42L77,14.52H75.15v5.71a.47.47,0,0,1-.48.48H71.44a.47.47,0,0,1-.47-.47h0V2.75a.47.47,0,0,1,.47-.47H78c5.09,0,6.64,3.58,6.64,6.08a5.88,5.88,0,0,1-3.39,5.45m19.51-2.34c0-1.37-.61-5.53-4.83-5.53s-4.86,4.16-4.86,5.53.6,5.58,4.86,5.58,4.83-4.21,4.83-5.58m4.28,0c0,3.95-2.16,9.53-9.11,9.53s-9.14-5.58-9.14-9.53S89,2,95.94,2s9.11,5.66,9.11,9.51m12.62,3.63c0-.55-.26-1.71-2.07-1.76h-2.85a.32.32,0,0,0-.33.32v2.78a.35.35,0,0,0,.35.35h2.78c1.83,0,2.12-1.27,2.12-1.69m0-7.19c0-.42-.29-1.73-2.12-1.73h-2.78a.35.35,0,0,0-.35.35V9.3a.54.54,0,0,0,.54.54h2.64a1.92,1.92,0,0,0,2.07-1.93m4.26,7.19c0,2.5-1.55,5.61-6.65,5.61h-6.56a.47.47,0,0,1-.47-.47h0V2.75a.47.47,0,0,1,.47-.47h6.56c5.1,0,6.65,3.13,6.65,5.63a4.25,4.25,0,0,1-2.37,3.56,3.87,3.87,0,0,1,2.37,3.63M138,11.43c0-1.37-.6-5.51-4.83-5.51s-4.85,4.15-4.85,5.51S129,17,133.21,17s4.83-4.2,4.83-5.56m4.28,0c0,3.93-2.15,9.49-9.11,9.49s-9.13-5.56-9.13-9.49S126.23,2,133.21,2s9.11,5.64,9.11,9.47m5.25-5.24h-4.33a.47.47,0,0,1-.47-.47h0v-3a.47.47,0,0,1,.47-.47h12.94a.47.47,0,0,1,.48.47v3a.47.47,0,0,1-.48.48H151.8v14a.47.47,0,0,1-.47.47h-3.28a.48.48,0,0,1-.48-.47h0v-14Zm24.39,9c0,3.2-2.78,5.69-6.8,5.69a14.21,14.21,0,0,1-6.85-1.78.47.47,0,0,1-.21-.63l1.44-2.67a.48.48,0,0,1,.63-.22A12.32,12.32,0,0,0,165,16.91c1.37,0,2.52-.66,2.52-1.58,0-1.15-1.42-1.65-3.15-2.2-2.65-.86-6-1.89-6-5.66C158.39,4,160.93,2,164.45,2a15.88,15.88,0,0,1,6.64,1.57.52.52,0,0,1,.24.66l-1.18,2.7a.48.48,0,0,1-.63.24A17.06,17.06,0,0,0,164.71,6c-1.1,0-2.12.34-2.1,1.34s1.95,1.62,4,2.36c2.55.89,5.36,2.15,5.36,5.5"/><path fill="white" d="M26.71,5.57V2a2,2,0,0,0-2-2H5.62a2,2,0,0,0-2,2V5.57a.7.7,0,0,1-.7.7H1.2A1.2,1.2,0,0,0,0,7.47v8a1.2,1.2,0,0,0,1.2,1.2H2.92a.7.7,0,0,1,.7.7v3.57a2,2,0,0,0,2,2H24.71a2,2,0,0,0,2-2V17.34a.7.7,0,0,1,.7-.7h1.72a1.09,1.09,0,0,0,1.09-1.09V7.36a1.09,1.09,0,0,0-1.09-1.09H27.41A.7.7,0,0,1,26.71,5.57ZM3.87,14.4h-1A.91.91,0,0,1,2,13.49V9.42a.91.91,0,0,1,.91-.91h1ZM23,20.67H7.31a1.44,1.44,0,0,1-1.44-1.43V3.67A1.44,1.44,0,0,1,7.31,2.24H23a1.43,1.43,0,0,1,1.43,1.43V19.24A1.43,1.43,0,0,1,23,20.67Zm4.29-6.27h-.86V8.51h.86a.91.91,0,0,1,.91.91v4.07A.91.91,0,0,1,27.31,14.4Z"/><path fill="white" d="M15.16,17.34a4.14,4.14,0,0,0,4.16-4.12H11a4.14,4.14,0,0,0,4.15,4.12"/><path fill="white" d="M21.05,8.47a1.73,1.73,0,1,1-1.73-1.72,1.72,1.72,0,0,1,1.73,1.72m-8.32,0A1.73,1.73,0,1,1,11,6.75a1.71,1.71,0,0,1,1.72,1.72"/></svg>