<svg xmlns="http://www.w3.org/2000/svg" viewBox="0 0 303.18 30"><defs><style>.cls-1,.cls-2{fill:#fff;}.cls-1{opacity:0.6;}</style></defs><title>ftw-logo</title><g id="Layer_2" data-name="Layer 2"><g id="Layer_1-2" data-name="Layer 1"><rect class="cls-1" x="7.93" y="0.86" width="14.14" height="28.28" transform="translate(-6.21 15) rotate(-45)"/><rect class="cls-1" x="10.86" y="7.93" width="28.28" height="14.14" transform="translate(-3.28 22.07) rotate(-45)"/><rect class="cls-2" x="12.93" y="12.93" width="14.14" height="14.14" transform="translate(-8.28 20) rotate(-45)"/><path class="cls-2" d="M51.61,8.12v6.14h8.68v3.2H51.61v8.21H47.9V4.92H63v3.2Z"/><path class="cls-2" d="M67.88,15.5V25.67H64.36V10.17H67l.63,2.61A6.84,6.84,0,0,1,73.4,10v3.56A8.93,8.93,0,0,0,67.88,15.5Z"/><path class="cls-2" d="M75.62,8.09V5.22h3.74V8.09Zm.09,17.58V10.17h3.53v15.5Z"/><path class="cls-2" d="M85.29,19.06a4.37,4.37,0,0,0,4.65,4.3,9.74,9.74,0,0,0,4.6-1.3l.95,2.28a11.69,11.69,0,0,1-5.84,1.6c-4.54,0-7.65-2.79-7.65-8,0-4.92,3-8.15,7.11-8.15,4.3,0,7,3.35,7,8.3v.92Zm0-2.16h7.53c-.21-2.61-1.57-4.42-3.74-4.42S85.5,14.29,85.29,16.9Z"/><path class="cls-2" d="M108.59,25.67V16c0-2-1-3-2.76-3a6.53,6.53,0,0,0-3.67,1.37V25.67H98.63V10.17h2.73L102,11.8a8.58,8.58,0,0,1,5.19-1.87c3.23,0,5,1.81,5,5.31V25.67Z"/><path class="cls-2" d="M121.43,9.9a7.43,7.43,0,0,1,4,1.19V4.15h3.53V25.67H126.2l-.56-1.48a6.75,6.75,0,0,1-4.57,1.75c-3.58,0-6.31-2.93-6.31-8S117.51,9.9,121.43,9.9ZM122.11,23a5.36,5.36,0,0,0,3.29-1.24V13.87a5.87,5.87,0,0,0-3.23-1.09c-2.37,0-4,1.8-4,5.16S119.74,23,122.11,23Z"/><path class="cls-2" d="M138.39,25.94a16.1,16.1,0,0,1-7-1.6l1-2.67a13.92,13.92,0,0,0,6,1.54c1.81,0,2.93-.68,2.93-1.78s-.62-1.51-3.52-2.22c-3.8-.86-5.64-1.87-5.64-4.68s2.2-4.63,6-4.63A13.53,13.53,0,0,1,144,11.2l-.92,2.64a12.6,12.6,0,0,0-5-1.21c-1.66,0-2.55.68-2.55,1.63s.72,1.45,3.47,2.16c4.36,1,5.67,2.23,5.67,4.81C144.62,24.31,142.24,25.94,138.39,25.94Z"/><path class="cls-2" d="M161.28,26c-4.24,0-7.36-3.14-7.36-8.06s3.18-8.1,7.39-8.1,7.32,3.14,7.32,8.07S165.46,26,161.28,26Zm0-13.25c-2.43,0-4.09,2.1-4.09,5.16s1.69,5.16,4.12,5.16,4.06-2.08,4.06-5.13S163.68,12.75,161.28,12.75Z"/><path class="cls-2" d="M181.89,4.59l-.54,2.55a10,10,0,0,0-2.73-.44c-1.72,0-2.43,1-2.43,2.55v1.21h4.36v2.73h-4.33V25.67h-3.5V13.19h-2.61V10.46h2.61V9.16C172.72,6,174.32,4,178,4A13.11,13.11,0,0,1,181.89,4.59Z"/><path class="cls-2" d="M196.38,25.88c-3.26,0-5.07-1.48-5.07-5v-8h-2.46V10.17h2.46V5.75h3.5v4.42h4.66V12.9h-4.66v7.56A2.25,2.25,0,0,0,197.3,23a6.86,6.86,0,0,0,2.17-.36l.06,2.82A11.13,11.13,0,0,1,196.38,25.88Z"/><path class="cls-2" d="M212.19,25.67V16c0-2-.95-3-2.76-3a6.53,6.53,0,0,0-3.68,1.37V25.67h-3.53V4.15h3.53v7.5a8.49,8.49,0,0,1,5-1.72c3.24,0,5,1.81,5,5.31V25.67Z"/><path class="cls-2" d="M221.58,19.06a4.38,4.38,0,0,0,4.66,4.3,9.8,9.8,0,0,0,4.6-1.3l.94,2.28a11.66,11.66,0,0,1-5.84,1.6c-4.53,0-7.65-2.79-7.65-8,0-4.92,3-8.15,7.12-8.15,4.3,0,7,3.35,7,8.3v.92Zm0-2.16h7.54c-.21-2.61-1.58-4.42-3.74-4.42S221.79,14.29,221.58,16.9Z"/><path class="cls-2" d="M265.85,25.85h-4.12L256.57,10l-5.19,15.89h-4.09l-6-20.93h4l4.27,15.89,5.07-15.89h4l5,15.92L268,4.92h3.85Z"/><path class="cls-2" d="M275.66,19.06a4.38,4.38,0,0,0,4.66,4.3,9.8,9.8,0,0,0,4.6-1.3l.94,2.28a11.63,11.63,0,0,1-5.84,1.6c-4.53,0-7.65-2.79-7.65-8,0-4.92,3-8.15,7.12-8.15,4.3,0,7,3.35,7,8.3v.92Zm0-2.16h7.54c-.21-2.61-1.58-4.42-3.74-4.42S275.87,14.29,275.66,16.9Z"/><path class="cls-2" d="M296.63,25.94a7.06,7.06,0,0,1-4.42-1.57l-.51,1.3H289V4.15h3.52v7.26a6.81,6.81,0,0,1,4.25-1.51c3.7,0,6.4,2.91,6.4,8S300.42,25.94,296.63,25.94Zm-.8-13.16a5.26,5.26,0,0,0-3.3,1.27V22A5.49,5.49,0,0,0,295.74,23c2.4,0,4.06-1.77,4.06-5.15C299.8,14.67,298.17,12.78,295.83,12.78Z"/></g></g></svg>