<svg fill="white" viewBox="0 0 100 25" xmlns="http://www.w3.org/2000/svg">
  <path d="M24.4,3h6.2c2.3,0,3.8,0.1,5.1,1.5c0.9,1,1.4,2.2,1.4,3.6c0,1.4-0.5,2.6-1.5,3.6c-1,1-2.3,1.6-5.6,1.6h-3 v8.3h-2.6V3z M27,11.2H30c1.7,0,4.3-0.1,4.3-3.2c0-2.9-2.4-2.9-3.8-2.9H27V11.2z M45.4,21.6c-0.2-0.6-0.2-1.3-0.2-1.9 c-1.2,2.1-2.9,2.3-4,2.3c-3,0-4.6-1.7-4.6-3.8c0-1,0.4-2.7,2.3-3.8c1.4-0.8,3.4-0.8,4.5-0.8c0.6,0,1,0,1.7,0.1c0-1.6,0-2.3-0.5-2.9 c-0.5-0.6-1.5-0.8-2.2-0.8c-2.4,0-2.6,1.7-2.6,2.2h-2.4c0.1-0.7,0.2-1.6,0.9-2.4c1-1.1,2.8-1.4,4.2-1.4c1.9,0,3.9,0.6,4.6,1.9 c0.4,0.8,0.4,1.4,0.4,2l-0.1,6.2c0,0.2,0,1.9,0.2,3.2H45.4z M43.7,15.2c-1,0-4.7,0-4.7,2.6c0,0.8,0.5,2.2,2.7,2.2 c1.2,0,2.2-0.5,2.8-1.4c0.5-0.9,0.6-1.6,0.6-3.4C44.7,15.3,44.3,15.2,43.7,15.2z M49.6,3H52v18.6h-2.4V3z M62.4,21.6 c-0.2-0.6-0.2-1.3-0.2-1.9c-1.2,2.1-2.9,2.3-4,2.3c-3,0-4.6-1.7-4.6-3.8c0-1,0.4-2.7,2.3-3.8c1.4-0.8,3.4-0.8,4.5-0.8 c0.6,0,1,0,1.7,0.1c0-1.6,0-2.3-0.5-2.9c-0.5-0.6-1.5-0.8-2.2-0.8c-2.4,0-2.6,1.7-2.6,2.2h-2.4c0.1-0.7,0.2-1.6,0.9-2.4 c1-1.1,2.8-1.4,4.2-1.4c1.9,0,3.9,0.6,4.6,1.9c0.4,0.8,0.4,1.4,0.4,2l-0.1,6.2c0,0.2,0,1.9,0.2,3.2H62.4z M60.8,15.2 c-1,0-4.7,0-4.7,2.6c0,0.8,0.5,2.2,2.7,2.2c1.2,0,2.2-0.5,2.8-1.4c0.5-0.9,0.6-1.6,0.6-3.4C61.7,15.3,61.4,15.2,60.8,15.2z M66.7,10.2l0-1.5h2.4l0,2.1c0.3-0.5,1.2-2.3,4.1-2.3c1.2,0,4.7,0.4,4.7,4.4v8.8h-2.5v-8.2c0-0.8-0.1-1.6-0.7-2.2 c-0.6-0.6-1.5-0.9-2.3-0.9c-1.8,0-3.4,1.3-3.4,3.9v7.4h-2.4V10.2z M78.7,8.7H81V5.9l2.4-0.8v3.5h2.9v1.8h-2.9v7.7 c0,0.6,0,1.7,1.7,1.7c0.5,0,1-0.1,1.2-0.1v1.9c-0.4,0.1-1.1,0.2-2,0.2C82,21.8,81,21.1,81,19v-8.6h-2.3V8.7z M88,3h2.9v2.7H88V3z M88.2,8.7h2.4v12.9h-2.4V8.7z M92.9,11.3c0-0.9-0.1-1.8-0.1-2.6h2.4l0.1,2.5c0.5-1.8,2-2.4,3.1-2.5c0.7-0.1,1.3-0.1,1.7-0.1v2.4 c-0.1,0-0.3-0.1-0.5-0.1c-0.2,0-0.4,0-0.7,0c-2.9,0-3.5,1.7-3.5,3.9v6.9h-2.4V11.3z M9.5,0.5c-5,0-9.1,4.1-9.1,9.1s4.1,9.1,9.1,9.1 c5,0,9.1-4.1,9.1-9.1S14.5,0.5,9.5,0.5z M9.5,15.9c-3.5,0-6.3-2.8-6.3-6.3c0-3.5,2.8-6.3,6.3-6.3c3.5,0,6.3,2.8,6.3,6.3 C15.7,13.1,12.9,15.9,9.5,15.9z M17.6,17.9l-8.1,3.5l-8.1-3.5L0,20.4l9.5,4l9.5-4L17.6,17.9z"></path>
<!--<![endif]-->
</svg>