<svg id="Layer_1" data-name="Layer 1" xmlns="http://www.w3.org/2000/svg" viewBox="0 0 200 100"><defs><style>.cls-1{fill:none;stroke:#fff;stroke-linecap:round;stroke-linejoin:round;stroke-width:2px;}.cls-2{fill:#fff;}</style></defs><title>design</title><path class="cls-1" d="M1,60.54H8.78m30.86-.09A10.09,10.09,0,1,1,29.55,50.36,10.09,10.09,0,0,1,39.64,60.45Zm18.46,0A28.55,28.55,0,1,1,29.55,31.9,28.55,28.55,0,0,1,58.1,60.45Z"/><polygon class="cls-1" points="9.06 60.54 9.06 56.77 12.32 58.66 15.58 60.54 12.32 62.42 9.06 64.31 9.06 60.54"/><polygon class="cls-2" points="9.06 60.54 9.06 56.77 12.32 58.66 15.58 60.54 12.32 62.42 9.06 64.31 9.06 60.54"/><line class="cls-1" x1="29.55" y1="50.36" x2="29.55" y2="31.9"/><line class="cls-1" x1="29.55" y1="89" x2="29.55" y2="70.54"/><line class="cls-1" x1="58.1" y1="60.54" x2="50.32" y2="60.54"/><polygon class="cls-1" points="50.04 60.54 50.04 64.31 46.78 62.42 43.52 60.54 46.78 58.66 50.04 56.77 50.04 60.54"/><polygon class="cls-2" points="50.04 60.54 50.04 64.31 46.78 62.42 43.52 60.54 46.78 58.66 50.04 56.77 50.04 60.54"/></svg>