<?xml version="1.0" standalone="no"?>
<!DOCTYPE svg PUBLIC "-//W3C//DTD SVG 1.1//EN" "http://www.w3.org/Graphics/SVG/1.1/DTD/svg11.dtd" >
<svg xmlns="http://www.w3.org/2000/svg">
<metadata>
Created by FontPrep 20130207 at Mon Jun 27 20:06:41 2016
 By Devin Halladay
Copyright (c) Ian Lynam, 2013. All rights reserved.
</metadata>
<defs>
<font id="f6ac929777ee24521767b7bdd7ce7136" horiz-adv-x='1024' >
  <font-face 
    font-family="Vaud-BookItalic"
    font-weight="400"
    font-style="italic"
    font-stretch="normal"
    units-per-em="2048"
    panose-1="2 0 5 3 0 0 0 9 0 4"
    ascent="1638"
    descent="-410"
    x-height="1044"
    cap-height="1456"
    bbox="-254 -639 2630 1939.02"
    underline-thickness="102"
    underline-position="-102"
    slope="-12"
    unicode-range="U+000D-FB02"
  />
<missing-glyph horiz-adv-x="1536" 
 />
    <glyph glyph-name=".notdef" horiz-adv-x="1536" 
 />
    <glyph glyph-name=".null" horiz-adv-x="0" 
 />
    <glyph glyph-name=".null" horiz-adv-x="0" 
 />
    <glyph glyph-name="nonmarkingreturn" horiz-adv-x="681" 
 />
    <glyph glyph-name="CR" unicode="&#xd;" horiz-adv-x="544" 
 />
    <glyph glyph-name="space" unicode=" " horiz-adv-x="544" 
 />
    <glyph glyph-name="exclam" unicode="!" horiz-adv-x="548" 
d="M96 0l29 203h182l-28 -203h-183zM186 434q37 346 123 1022h166q-133 -803 -172 -1022h-117z" />
    <glyph glyph-name="quotedbl" unicode="&#x22;" horiz-adv-x="796" 
d="M119 903q16 215 53 549h160q-33 -240 -101 -549h-112zM459 903q27 348 53 549h158q-31 -236 -101 -549h-110z" />
    <glyph glyph-name="numbersign" unicode="#" horiz-adv-x="1388" 
d="M942 907h-373l-118 -405h372zM1323 907h-248l-119 -405h238l-16 -119h-258l-113 -383h-133l114 383h-372l-115 -383h-131l113 383h-228l17 119h245l119 405h-237l16 119h258l111 381h133l-113 -381h373l110 381h134l-109 -381h227z" />
    <glyph glyph-name="dollar" unicode="$" 
d="M557 815l70 504q-131 -8 -219 -78q-88 -71 -104 -181t50 -168q64 -58 203 -77zM635 651l-76 -536q137 14 228 88q91 75 107 189t-44 178q-61 64 -215 81zM975 1040q1 117 -61 191t-185 86l-74 -518q217 -27 317 -120t72 -277t-166 -294t-335 -120l-27 -191h-102l26 191
q-204 12 -318 126t-93 310h147q-10 -139 65 -217t218 -90l76 551q-207 29 -306 117q-98 89 -73 265t163 280q139 105 326 118l25 180h102l-24 -180q194 -14 290 -133t88 -275h-151z" />
    <glyph glyph-name="percent" unicode="%" horiz-adv-x="1873" 
d="M1556 1434l-1089 -1434h-152q369 488 1090 1434h151zM1421 668q-203 0 -244 -292t162 -292t242 293q43 291 -160 291zM1322 -33q-162 0 -234 110t-46 300q30 190 134 301q104 110 263 110t231 -112t46 -299q-27 -188 -130 -299t-264 -111zM440 758q203 0 244 292
t-160 291q-205 0 -243 -290q-44 -293 159 -293zM425 639q-161 0 -234 111t-45 300t132 300q104 110 263 110t233 -110t47 -300q-27 -189 -131 -300t-265 -111z" />
    <glyph glyph-name="ampersand" unicode="&#x26;" horiz-adv-x="1388" 
d="M582 866q160 88 218 146t71 146q13 89 -35 141q-48 53 -140 53t-154 -54t-77 -147q-6 -51 14 -107t38 -84t65 -94zM856 244l-338 465q-131 -68 -203 -138q-72 -71 -89 -191t57 -200t233 -80q201 1 340 144zM504 -31q-242 0 -348 115q-106 116 -84 280t117 262t257 179
q-52 69 -76 111q-67 113 -47 243q19 129 130 222t263 93t234 -88q82 -90 63 -229t-125 -230q-56 -48 -104 -77t-131 -74q120 -170 301 -414q86 137 123 386h133q-55 -334 -178 -492q127 -172 191 -256h-185q-66 92 -106 145q-186 -176 -428 -176z" />
    <glyph glyph-name="quotesingle" unicode="'" horiz-adv-x="421" 
d="M117 905q6 102 51 547h160q-20 -129 -101 -547h-110z" />
    <glyph glyph-name="parenleft" unicode="(" horiz-adv-x="571" 
d="M410 -266l-127 -2q-115 184 -156 422q-84 488 137 975q109 239 275 421h127q-330 -410 -400 -908t144 -908z" />
    <glyph glyph-name="parenright" unicode=")" horiz-adv-x="571" 
d="M291 1550q117 -180 158 -418t5 -491q-36 -251 -144 -489t-275 -420h-129q328 412 398 912t-142 906h129z" />
    <glyph glyph-name="asterisk" unicode="*" horiz-adv-x="940" 
d="M872 1116l-323 -90l166 -258l-111 -74l-143 275l-221 -275l-90 74l241 258l-301 90l57 119l273 -117l45 326h110l-45 -326l318 117z" />
    <glyph glyph-name="plus" unicode="+" horiz-adv-x="1304" 
d="M1159 594h-446l-70 -490h-137l69 490h-444l19 133h444l65 471h138l-66 -471h447z" />
    <glyph glyph-name="comma" unicode="," horiz-adv-x="497" 
d="M86 -240q102 90 129 240h-78l35 248h195l-35 -242q-37 -193 -182 -297q-8 3 -32 25t-32 26z" />
    <glyph glyph-name="hyphen" unicode="-" horiz-adv-x="849" 
d="M719 537h-606l20 145h606z" />
    <glyph glyph-name="period" unicode="." horiz-adv-x="493" 
d="M332 0h-201l31 221h200z" />
    <glyph glyph-name="slash" unicode="/" horiz-adv-x="706" 
d="M938 1456l-1022 -1468h-147l1026 1468h143z" />
    <glyph glyph-name="zero" unicode="0" 
d="M508 106q84 0 150 35q170 90 236 388q81 375 32 595q-20 90 -82 140t-156 49q-176 0 -279 -132q-102 -132 -151 -473q-49 -340 23 -478q29 -54 86 -89t141 -35zM698 1452q492 0 386 -742t-596 -741q-490 -1 -386 741t596 742z" />
    <glyph glyph-name="one" unicode="1" 
d="M651 0h-151l174 1247q-256 -160 -391 -235l22 153q301 188 410 254h135z" />
    <glyph glyph-name="two" unicode="2" 
d="M688 1315q-266 0 -340 -268h-147q43 177 172 291t329 114t298 -105t75 -282q-39 -266 -362 -524q-20 -15 -217 -199t-222 -203h691l-19 -139h-887l19 135q24 21 260 241t272 249q279 225 308 432q18 123 -44 191t-186 67z" />
    <glyph glyph-name="three" unicode="3" 
d="M467 -31q-221 0 -321 122q-99 122 -80 306h149q-16 -293 279 -293q145 0 237 75q91 75 111 214t-50 208q-71 69 -214 69h-123l18 137h125q127 -1 209 67t98 188q17 120 -49 186t-192 67q-274 0 -349 -258h-147q25 167 167 281t344 114t304 -103t80 -270
q-35 -246 -262 -331q115 -42 163 -136t33 -221q-29 -190 -169 -306t-361 -116z" />
    <glyph glyph-name="four" unicode="4" 
d="M223 489h512l101 713zM47 367l16 114l799 934h158l-129 -926h180l-18 -122h-181l-51 -367h-155l51 367h-670z" />
    <glyph glyph-name="five" unicode="5" 
d="M668 918q209 0 300 -129t61 -344t-169 -347t-352 -131q-213 0 -320 112q-106 112 -92 304h150q-10 -281 276 -281q150 0 241 92t113 251q22 161 -39 251q-60 90 -210 90q-190 0 -314 -135h-147l151 768h781l-19 -137h-649l-100 -487q129 123 338 123z" />
    <glyph glyph-name="six" unicode="6" 
d="M530 100q148 0 243 96t117 250q22 152 -40 248t-208 96t-248 -90q-102 -92 -122 -241t44 -254q66 -105 214 -105zM668 918q215 0 309 -130t64 -340t-174 -344t-359 -135q-113 0 -194 42t-124 108q-115 176 -67 543q113 791 612 790q183 0 277 -98t92 -258h-148
q-16 221 -226 221t-309 -170t-138 -424q141 195 385 195z" />
    <glyph glyph-name="seven" unicode="7" 
d="M379 0h-166q348 680 739 1280h-772l19 139h934l-19 -135q-438 -684 -735 -1284z" />
    <glyph glyph-name="eight" unicode="8" 
d="M586 666q-164 0 -258 -75t-112 -208t58 -209t234 -76t256 77t117 209q18 132 -57 207q-74 75 -238 75zM680 1325q-142 0 -232 -73q-90 -74 -107 -196t51 -191t214 -69q145 0 233 69q87 69 104 193t-51 196t-212 71zM490 -31q-224 0 -340 110t-91 302q17 127 105 221
t198 129q-90 39 -138 127t-31 205q25 178 159 284q135 105 345 105q209 0 315 -105t82 -284q-16 -115 -89 -203t-174 -125q99 -39 159 -132t44 -222q-27 -193 -174 -303q-146 -110 -370 -109z" />
    <glyph glyph-name="nine" unicode="9" 
d="M542 631q148 0 248 92q99 93 119 241t-45 251q-66 103 -214 103t-242 -95q-94 -96 -116 -249t40 -248t210 -95zM236 324q0 -223 245 -224q188 0 280 146q87 138 136 450q-145 -194 -371 -194t-321 130q-94 130 -66 341q31 211 176 345t359 134q548 0 339 -929
q-22 -97 -67 -207t-105 -182q-59 -72 -157 -118q-98 -47 -221 -47q-188 0 -288 94q-99 95 -89 261h150z" />
    <glyph glyph-name="colon" unicode=":" horiz-adv-x="520" 
d="M63 4l35 244h242l-35 -244h-242zM178 825l35 246h242l-35 -246h-242z" />
    <glyph glyph-name="semicolon" unicode=";" horiz-adv-x="520" 
d="M74 -240q102 90 129 240h-113l35 248h227l-35 -242q-35 -190 -180 -297q-11 3 -33 25t-30 26zM199 825l34 246h242l-35 -246h-241z" />
    <glyph glyph-name="less" unicode="&#x3c;" horiz-adv-x="1099" 
d="M131 614l16 119l891 539l-20 -152l-756 -440l629 -475l-21 -146z" />
    <glyph glyph-name="equal" unicode="=" horiz-adv-x="1316" 
d="M1081 336h-931l18 133h932zM1147 797h-932l18 133h932z" />
    <glyph glyph-name="greater" unicode="&#x3e;" horiz-adv-x="1099" 
d="M961 709l-17 -119l-889 -531l21 150l755 442l-626 475l20 146z" />
    <glyph glyph-name="question" unicode="?" horiz-adv-x="1017" 
d="M297 0l29 207h186l-29 -207h-186zM594 1348q-263 0 -332 -269h-156q40 180 176 293t334 113t298 -108q99 -108 77 -273q-27 -201 -233 -352q-16 -14 -56 -47t-76 -67q-37 -34 -45 -52q-9 -18 -26 -49t-33 -121h-151q19 152 83 234t210 192q146 111 165 239
q18 127 -43 197t-192 70z" />
    <glyph glyph-name="at" unicode="@" horiz-adv-x="1925" 
d="M1010 870q-112 0 -207 -108t-115 -254q-20 -144 26 -214t127 -69q149 0 223 92q111 140 132 339q10 94 -32 154t-154 60zM821 -305q-362 0 -558 226t-144 589q31 219 130 396q185 330 545 458q165 59 336 59q350 1 550 -193t153 -528q-35 -256 -175 -424t-337 -169
q-84 -1 -134 39t-54 118q-125 -162 -314 -162q-155 0 -229 109t-51 268q31 215 169 361t330 145q80 0 140 -38t84 -107l73 125h92q-81 -317 -121 -461t-42 -152q-2 -10 -4 -14q-14 -117 86 -117q129 0 226 132t126 339q39 285 -124 446q-162 160 -478 160t-552 -218
t-284 -568q-43 -307 119 -502q162 -194 473 -194t526 147q8 -6 36 -35t34 -34q-132 -106 -278 -154t-349 -47z" />
    <glyph glyph-name="A" unicode="A" horiz-adv-x="1316" 
d="M903 530l-176 736l-377 -736h553zM1196 0h-166l-94 387h-660l-198 -387h-160l760 1456h164z" />
    <glyph glyph-name="B" unicode="B" horiz-adv-x="1320" 
d="M623 137q360 0 397 277q20 143 -61 210t-252 66h-371l-78 -553h365zM717 829q162 1 252 59t108 188t-61 187q-80 56 -246 56h-346l-68 -490h361zM791 1456q243 0 355 -98t87 -268q-35 -246 -260 -326q240 -86 205 -350q-27 -198 -178 -306t-394 -108h-522l205 1456h502z
" />
    <glyph glyph-name="C" unicode="C" horiz-adv-x="1366" 
d="M626 -31q-222 1 -348 105q-235 197 -169 653q47 332 233 547t481 215q233 0 357 -136t125 -354h-160q-4 164 -89 255t-253 92q-121 0 -217 -52q-172 -94 -259 -337q-38 -105 -55 -228q-45 -228 35 -427q35 -87 118 -139t204 -52q180 0 292 94q111 94 154 258h162
q-53 -219 -221 -357t-390 -137z" />
    <glyph glyph-name="D" unicode="D" horiz-adv-x="1415" 
d="M575 141q477 0 564 590q41 239 -33 410q-35 80 -123 127t-223 47h-336l-166 -1174h317zM793 1456q263 0 391 -139q127 -142 131 -355q2 -108 -12 -229q-47 -329 -229 -531t-509 -202h-481l205 1456h504z" />
    <glyph glyph-name="E" unicode="E" horiz-adv-x="1239" 
d="M1044 0h-960l205 1456h948l-20 -141h-791l-68 -484h721l-20 -143h-721l-78 -545h803z" />
    <glyph glyph-name="F" unicode="F" horiz-adv-x="1171" 
d="M1184 1315h-758l-72 -512h697l-21 -144h-696l-92 -659h-158l205 1456h915z" />
    <glyph glyph-name="G" unicode="G" horiz-adv-x="1427" 
d="M646 111q317 0 432 330q30 87 38 184h-399l20 137h549l-108 -762h-84q0 43 -2 130t-2 130q-52 -133 -182 -210t-275 -81q-164 1 -280 61t-172 162q-123 225 -70 533q47 332 237 548t490 216q227 0 354 -124t123 -318h-158q-2 143 -89 221q-86 78 -230 78
q-266 0 -396 -183q-129 -183 -169 -429t42 -435q37 -86 124 -137t207 -51z" />
    <glyph glyph-name="H" unicode="H" horiz-adv-x="1447" 
d="M1161 0h-160l97 686h-760l-96 -686h-158l205 1456h157l-88 -620h760l88 620h160z" />
    <glyph glyph-name="I" unicode="I" horiz-adv-x="530" 
d="M242 0h-158l205 1456h157z" />
    <glyph glyph-name="J" unicode="J" horiz-adv-x="1120" 
d="M374 -31q-214 0 -316 122q-101 122 -83 345h156q-23 -326 260 -325q160 0 240 90t106 266l140 989h157l-143 -1012q-33 -225 -168 -350t-349 -125z" />
    <glyph glyph-name="K" unicode="K" horiz-adv-x="1337" 
d="M1210 0h-184l-373 799l-346 -324l-65 -475h-158l205 1456h157l-110 -778l840 778h186l-582 -545z" />
    <glyph glyph-name="L" unicode="L" horiz-adv-x="1132" 
d="M991 0h-907l205 1456h157l-184 -1311h750z" />
    <glyph glyph-name="M" unicode="M" horiz-adv-x="1765" 
d="M811 213l670 1243h200l-204 -1456h-150l170 1208q-13 -26 -155 -288t-300 -555t-196 -365h-135q-39 144 -152 590t-160 612l-168 -1202h-147l205 1456h207q34 -125 150 -593t165 -650z" />
    <glyph glyph-name="N" unicode="N" horiz-adv-x="1468" 
d="M1180 0h-162l-610 1202l-168 -1202h-156l205 1456h166l606 -1198l170 1198h153z" />
    <glyph glyph-name="O" unicode="O" horiz-adv-x="1458" 
d="M641 111q254 0 388 193q116 171 155 425q40 231 -37 423q-35 87 -121 140q-86 54 -213 54q-350 1 -486 -391q-36 -103 -53 -226q-45 -224 34 -425q34 -87 120 -140t213 -53zM622 -31q-161 1 -275 61t-169 164q-122 231 -69 533q47 330 233 546t494 216q210 1 336 -105
q238 -198 174 -653q-46 -325 -216 -533q-88 -108 -218 -168t-290 -61z" />
    <glyph glyph-name="P" unicode="P" horiz-adv-x="1271" 
d="M682 715q354 0 399 305q21 152 -55 224t-260 73h-342l-84 -602h342zM791 1456q263 0 371 -114t78 -322t-173 -326q-143 -119 -403 -119h-345l-79 -575h-156l205 1456h502z" />
    <glyph glyph-name="Q" unicode="Q" horiz-adv-x="1458" 
d="M820 1343q-349 0 -486 -389q-37 -104 -53 -227q-45 -226 34 -423q35 -87 120 -140t217 -53t233 61l-154 234l115 77q25 -37 75 -113t76 -112q145 147 191 469q40 235 -37 424q-35 86 -120 139t-211 53zM639 -31q-170 1 -284 61t-169 164q-121 227 -69 533q47 332 233 547
t492 215q207 1 335 -105q239 -197 175 -655q-55 -399 -271 -592l131 -194l-116 -80l-133 192q-154 -86 -324 -86z" />
    <glyph glyph-name="R" unicode="R" horiz-adv-x="1316" 
d="M709 748q342 0 385 290q18 135 -58 207t-260 72h-352l-80 -569h365zM799 1456q266 0 372 -116t82 -302q-43 -297 -329 -391q34 -106 104 -323t105 -324h-175l-192 612h-440l-86 -612h-156l205 1456h510z" />
    <glyph glyph-name="S" unicode="S" horiz-adv-x="1298" 
d="M572 106q177 0 282 79q104 79 123 212q10 78 -9 127q-20 49 -78 77t-131 44q-73 17 -146 27t-83 12q-403 63 -356 397q27 190 193 299t391 109t346 -120t117 -294h-158q-12 272 -334 273q-164 0 -270 -68t-125 -195q-10 -73 3 -119t81 -75t106 -38t136 -25
q97 -16 133 -21q401 -68 351 -427q-26 -184 -190 -298t-406 -113q-242 0 -380 114q-139 114 -127 333h160q2 -154 98 -232t273 -78z" />
    <glyph glyph-name="T" unicode="T" horiz-adv-x="1163" 
d="M1214 1313h-471l-184 -1313h-158l185 1313h-473l20 143h1102z" />
    <glyph glyph-name="U" unicode="U" horiz-adv-x="1404" 
d="M595 -31q-263 0 -379 152t-75 440l127 895h158l-127 -899q-63 -446 317 -446t443 446l127 899h157l-126 -897q-41 -287 -200 -439t-422 -151z" />
    <glyph glyph-name="V" unicode="V" horiz-adv-x="1273" 
d="M1356 1456l-742 -1456h-159l-332 1456h172l270 -1249l625 1249h166z" />
    <glyph glyph-name="W" unicode="W" horiz-adv-x="1830" 
d="M1888 1456l-561 -1456h-168l-174 1225l-520 -1225h-162l-153 1456h163l113 -1231l520 1221h154l170 -1219l461 1229h157z" />
    <glyph glyph-name="X" unicode="X" horiz-adv-x="1239" 
d="M1106 0h-180l-328 629l-500 -629h-168l598 754l-374 702h180l303 -586l477 586h168l-573 -706z" />
    <glyph glyph-name="Y" unicode="Y" horiz-adv-x="1198" 
d="M1284 1456l-622 -858l-84 -598h-158l84 598l-387 858h176l311 -713l516 713h164z" />
    <glyph glyph-name="Z" unicode="Z" horiz-adv-x="1232" 
d="M1055 0h-1075l18 141l1038 1174h-860l21 141h1046l-20 -141l-1041 -1172h891z" />
    <glyph glyph-name="bracketleft" unicode="[" horiz-adv-x="620" 
d="M449 -252h-386l252 1788h385l-16 -121h-246l-217 -1546h246z" />
    <glyph glyph-name="backslash" unicode="\" horiz-adv-x="735" 
d="M600 -14h-141l-340 1505h141z" />
    <glyph glyph-name="bracketright" unicode="]" horiz-adv-x="620" 
d="M305 -252h-385l19 121h243l217 1546h-245l16 121h387z" />
    <glyph glyph-name="asciicircum" unicode="^" horiz-adv-x="1136" 
d="M956 727h-161l-203 569l-361 -569h-155l477 739h135z" />
    <glyph glyph-name="underscore" unicode="_" horiz-adv-x="1069" 
d="M1028 -236h-1003l14 111h1003z" />
    <glyph glyph-name="grave" unicode="`" horiz-adv-x="1009" 
d="M637 1212h-172q-86 92 -262 273h241q132 -181 193 -273z" />
    <glyph glyph-name="a" unicode="a" horiz-adv-x="1120" 
d="M553 944q-152 0 -249 -115t-125 -309t40 -306q67 -112 217 -112t251 113t126 285v4q61 440 -260 440zM887 0h-105l-20 158q-142 -186 -364 -186t-314 154q-92 156 -59 396t174 397t358 156q100 0 183 -44t124 -128l21 154h149z" />
    <glyph glyph-name="b" unicode="b" horiz-adv-x="1210" 
d="M538 102q160 0 257 113q96 113 125 309t-39 308q-69 112 -219 112t-251 -110t-126 -289v-4q-27 -203 33 -321t220 -118zM702 1075q220 1 314 -155t59 -399t-176 -397t-361 -153q-220 0 -309 181q-47 -113 -71 -152h-95l207 1470h150l-82 -575q144 180 364 180z" />
    <glyph glyph-name="c" unicode="c" horiz-adv-x="1099" 
d="M639 942q-168 0 -260 -120t-118 -300q-25 -180 33 -300t226 -120q237 0 311 244h154q-47 -172 -174 -273t-309 -102q-231 0 -331 152q-99 153 -65 397t180 400t376 155q176 0 274 -103t88 -265h-150q-2 109 -60 172t-175 63z" />
    <glyph glyph-name="d" unicode="d" horiz-adv-x="1208" 
d="M606 944q-152 0 -250 -115t-125 -309t41 -306t216 -112t250 113q101 113 126 285l2 4q61 440 -260 440zM938 0h-104l-19 158q-143 -186 -365 -186t-316 155q-93 155 -59 395t176 397t359 156q100 0 182 -44t123 -128l80 567h150z" />
    <glyph glyph-name="e" unicode="e" horiz-adv-x="1136" 
d="M644 952q-146 0 -244 -95t-130 -253h627q20 156 -43 252q-64 96 -210 96zM508 -29q-225 0 -332 151q-106 152 -72 398t187 401q151 155 369 155t316 -145q98 -144 66 -370q-4 -25 -12 -78h-778q-20 -167 50 -277t222 -110q240 0 314 203h147q-47 -152 -175 -240t-302 -88
z" />
    <glyph glyph-name="f" unicode="f" horiz-adv-x="700" 
d="M643 1487q82 0 166 -19l-31 -125q-59 14 -133 15q-178 0 -205 -180l-18 -134h291l-17 -124h-290l-132 -920h-151l131 920h-182l16 124h182l19 132q19 145 117 228t237 83z" />
    <glyph glyph-name="g" unicode="g" horiz-adv-x="1144" 
d="M354 33l-12 -2q-158 -49 -176 -180t96 -170q97 -33 211 -33q354 -1 383 200q14 94 -51 139q-66 44 -199 46h-252zM631 942q-115 0 -198 -68t-98 -180t48 -180q63 -66 178 -66t197 67q82 66 98 179q14 112 -48 180t-177 68zM545 330q-104 0 -191 43q-88 -31 -100 -115
q-6 -43 20 -68q26 -26 61 -30q34 -4 85 -4h227q175 0 271 -80t73 -238t-175 -234t-347 -77q-330 1 -414 159q-33 62 -21 143t59 144q48 63 122 95q-51 18 -80 67t-20 105q18 125 151 198q-90 106 -66 265t150 259q128 99 280 99t247 -70q100 25 112 131l-6 33h113
q4 -7 5 -25t-1 -20v-8q-21 -142 -150 -189q63 -96 45 -221q-25 -164 -153 -263t-297 -99z" />
    <glyph glyph-name="h" unicode="h" horiz-adv-x="1179" 
d="M670 940q-168 0 -264 -119t-123 -305l-72 -516h-150l207 1470h150l-84 -591q152 197 381 196q176 0 253 -100t52 -283l-98 -692h-152l94 668q20 140 -26 206t-168 66z" />
    <glyph glyph-name="i" unicode="i" horiz-adv-x="497" 
d="M221 0h-151l147 1044h152zM412 1274h-174l26 184h174z" />
    <glyph glyph-name="j" unicode="j" horiz-adv-x="518" 
d="M-59 -406h-7q-76 0 -163 25q20 86 32 129q74 -18 134 -18q143 0 169 176l160 1138h152l-158 -1118q-47 -332 -319 -332zM461 1274h-176l24 184h176z" />
    <glyph glyph-name="k" unicode="k" horiz-adv-x="1085" 
d="M963 0h-175l-270 569l-258 -227l-49 -342h-150l207 1470h150l-133 -944l596 518h186l-426 -374z" />
    <glyph glyph-name="l" unicode="l" horiz-adv-x="516" 
d="M59 0l207 1470h148l-207 -1470h-148z" />
    <glyph glyph-name="m" unicode="m" horiz-adv-x="1777" 
d="M1318 942q-114 0 -215 -92t-120 -225l-88 -625h-150l95 680q20 134 -22 198t-158 64t-214 -100q-100 -100 -124 -264l-80 -578h-152l146 1044h88l36 -165q147 197 351 196q240 0 278 -205q152 205 377 205q164 0 235 -94t46 -270l-99 -711h-149l94 680q20 139 -20 201
q-41 61 -155 61z" />
    <glyph glyph-name="n" unicode="n" horiz-adv-x="1179" 
d="M696 938q-168 0 -263 -118t-122 -308l-71 -512h-150l146 1044h88l34 -167q154 199 385 198q174 0 252 -100t52 -283l-97 -692h-151l92 668q20 138 -26 204t-169 66z" />
    <glyph glyph-name="o" unicode="o" horiz-adv-x="1177" 
d="M509 -29q-230 0 -334 153q-103 154 -69 398t184 399q151 155 378 155t331 -154q105 -152 71 -397t-182 -399t-379 -155zM529 102q171 0 266 120q93 120 119 301t-35 300t-233 119t-265 -120q-94 -120 -120 -299q-27 -179 35 -300t233 -121z" />
    <glyph glyph-name="p" unicode="p" horiz-adv-x="1210" 
d="M716 942q-150 0 -250 -112q-101 -112 -126 -285q-61 -442 258 -443q152 0 250 114t126 310t-40 306t-218 110zM760 1075q147 0 239 -76q175 -145 131 -471q-35 -246 -177 -402t-360 -155q-218 0 -306 170l-76 -544h-150l203 1447h98l25 -157q145 188 373 188z" />
    <glyph glyph-name="q" unicode="q" horiz-adv-x="1208" 
d="M667 944q-157 0 -255 -113t-126 -309t39 -308t216 -112t252 111q102 111 129 303q26 192 -36 310t-219 118zM786 -403l78 553q-141 -178 -362 -178t-314 155q-92 157 -58 397t175 396t359 155q98 0 181 -45t128 -135l67 149h101l-203 -1447h-152z" />
    <glyph glyph-name="r" unicode="r" horiz-adv-x="759" 
d="M702 1061q51 0 93 -8q-20 -94 -31 -144q-39 8 -88 9q-156 0 -247 -108t-114 -278l-75 -532h-150l148 1044h84l34 -180q62 94 154 146t192 51z" />
    <glyph glyph-name="s" unicode="s" horiz-adv-x="1058" 
d="M609 1075q177 0 271 -87t87 -224l-140 -2q-4 188 -239 188q-127 0 -198 -47t-83 -130t41 -111t260 -66q180 -28 258 -102t58 -214t-146 -224t-315 -85q-190 0 -303 88t-99 252h148q-4 -213 270 -215q129 0 205 48t87 130t-38 126t-149 58q-185 27 -259 54q-73 28 -106 58
q-79 73 -60 207t146 216t304 82z" />
    <glyph glyph-name="t" unicode="t" horiz-adv-x="737" 
d="M444 115q80 0 158 18l-2 -123q-115 -29 -194 -28q-154 0 -204 88t-28 247l84 603h-182l18 124h182l31 232l164 76l-43 -308h295l-18 -124h-295l-88 -625q-25 -180 122 -180z" />
    <glyph glyph-name="u" unicode="u" horiz-adv-x="1169" 
d="M480 106q128 0 237 105q63 61 92 135t47 201l70 500h149l-145 -1047h-94q-4 27 -15 85q-10 58 -14 85q-154 -199 -379 -199q-176 1 -251 99t-48 282l96 695h152l-92 -668q-21 -141 23 -207t172 -66z" />
    <glyph glyph-name="v" unicode="v" horiz-adv-x="1015" 
d="M1069 1044l-551 -1044h-160l-268 1044h170l205 -862l444 862h160z" />
    <glyph glyph-name="w" unicode="w" horiz-adv-x="1515" 
d="M1540 1044l-430 -1044h-160l-149 852l-383 -852h-160l-139 1044h155l95 -858l389 850h149l146 -848l333 856h154z" />
    <glyph glyph-name="x" unicode="x" horiz-adv-x="1001" 
d="M901 0h-176l-242 436l-356 -436h-168l453 545l-289 506h176l221 -402l342 402h164l-428 -506z" />
    <glyph glyph-name="y" unicode="y" horiz-adv-x="1030" 
d="M144 -412q-70 0 -154 25q18 80 35 127q37 -20 104 -20q112 -1 175 100q24 38 60 104t44 82q-131 477 -287 1038h168q203 -788 221 -862q72 139 444 862h162q-115 -218 -335 -630t-279 -525t-137 -207t-221 -94z" />
    <glyph glyph-name="z" unicode="z" horiz-adv-x="980" 
d="M840 0h-828l19 133l743 785h-624l16 126h801l-19 -131l-741 -786h649z" />
    <glyph glyph-name="braceleft" unicode="{" horiz-adv-x="653" 
d="M676 1536h80l-19 -123h-57q-92 0 -135 -36t-53 -117l-50 -355q-16 -111 -61 -177t-135 -87q66 -15 102 -69t29 -130q-2 -10 -5 -34q-4 -24 -18 -121q-14 -96 -35 -252q-12 -92 19 -129t127 -37h57l-18 -123h-49q-314 0 -275 274l51 365q27 190 -155 190l18 132
q98 10 147 53q48 43 62 135l39 285q27 190 100 273q74 83 234 83z" />
    <glyph glyph-name="bar" unicode="|" horiz-adv-x="491" 
d="M188 -252h-137l252 1788h137z" />
    <glyph glyph-name="braceright" unicode="}" horiz-adv-x="653" 
d="M-25 -254h-81l18 123h59q100 0 139 40q38 40 52 138l41 301q18 129 61 200t142 93q-90 25 -114 93t-7 198l45 313q12 92 -18 130t-128 38h-59l18 123h82q162 0 211 -83t23 -273l-39 -285q-14 -92 24 -135t131 -53q-18 -115 -20 -132q-180 0 -207 -190l-45 -315
q-23 -168 -101 -246t-227 -78z" />
    <glyph glyph-name="asciitilde" unicode="~" horiz-adv-x="1257" 
d="M436 813q76 0 149 -43t136 -86t119 -43q129 0 192 147q61 -27 107 -51q-92 -246 -320 -245q-75 0 -147 44t-135 88t-119 44q-136 0 -197 -152q-18 8 -108 53q90 244 323 244z" />
    <glyph glyph-name="nbspace" unicode="&#xa0;" horiz-adv-x="563" 
 />
    <glyph glyph-name="exclamdown" unicode="&#xa1;" horiz-adv-x="548" 
d="M242 842l28 202h181l-29 -202h-180zM74 -408q24 186 168 1018h118q-86 -759 -120 -1018h-166z" />
    <glyph glyph-name="cent" unicode="&#xa2;" 
d="M516 299l117 829q-143 -18 -222 -133t-104 -282q-51 -375 209 -414zM1075 891l-149 2q2 94 -47 159t-146 78l-117 -831q102 12 171 79t96 165h151q-40 -160 -154 -262t-284 -117l-23 -172h-100l25 174q-203 18 -290 166t-55 376q32 230 162 382q131 152 336 172l25 184
h100l-24 -184q158 -10 242 -112t81 -259z" />
    <glyph glyph-name="sterling" unicode="&#xa3;" horiz-adv-x="1198" 
d="M770 1454q182 0 268 -103t82 -259h-145q-4 229 -223 229q-260 0 -303 -293q-16 -113 -23 -233h410l-19 -129h-401q-6 -92 -19 -160q-10 -92 -28 -158q-33 -158 -119 -207v-2h749q-17 -104 -20 -139h-942q4 23 10 69t10 68q113 43 150 164q46 150 59 365h-157l18 129h149
q8 147 21 231q29 208 160 318t313 110z" />
    <glyph glyph-name="currency" unicode="&#xa4;" horiz-adv-x="1220" 
d="M870 1450q148 0 236 -60t135 -184q-74 -45 -108 -69q-80 178 -283 178q-164 -1 -278 -107t-166 -290h544q-40 -89 -53 -111h-520l-19 -98q-4 -33 -8 -99h471q-29 -57 -53 -112h-424q2 -178 86 -286t244 -108q120 0 200 48t144 147q6 -2 26 -15q20 -12 43 -26t25 -16
q-154 -270 -457 -271q-227 1 -346 143t-119 384h-161q15 66 30 112h136q6 96 26 197h-149l30 111h148q70 240 235 386q166 146 385 146z" />
    <glyph glyph-name="yen" unicode="&#xa5;" horiz-adv-x="1167" 
d="M590 743l502 705h159q-49 -70 -291 -404t-260 -358h205l-14 -104h-250l-20 -148h249l-14 -102h-250l-47 -332h-153l47 332h-273l15 102h272l20 148h-272l14 104h226q-20 47 -166 372l-174 390h172q139 -328 303 -705z" />
    <glyph glyph-name="brokenbar" unicode="&#xa6;" horiz-adv-x="501" 
d="M205 -178h-148l97 688h147zM350 856h-147l94 674h147z" />
    <glyph glyph-name="section" unicode="&#xa7;" horiz-adv-x="1093" 
d="M733 313q80 89 45 204q-22 71 -120 161q-34 31 -87 75t-79 68q-146 -69 -162 -183t60 -192t231 -213q68 31 112 80zM358 -391q-160 0 -245 103q-84 103 -64 265h144q-13 -104 35 -174q48 -69 150 -69t175 54q72 54 82 136q16 104 -76 180q-167 137 -277 243t-87 274
q10 81 66 153t147 121q-90 98 -72 235q18 138 142 226t280 88t241 -104q84 -104 66 -259h-141q12 102 -36 170t-152 68t-175 -55q-72 -55 -82 -136q-16 -98 76 -180q201 -172 272 -239q116 -109 92 -279t-212 -272q87 -106 69 -238t-138 -222q-120 -89 -280 -89z" />
    <glyph glyph-name="dieresis" unicode="&#xa8;" horiz-adv-x="702" 
d="M231 1264h-159l26 176h160zM602 1264h-162l27 176h162z" />
    <glyph glyph-name="copyright" unicode="&#xa9;" horiz-adv-x="1681" 
d="M788 311q-178 0 -260 114t-57 298q27 184 144 301q118 117 294 117q137 0 216 -78t73 -209h-131q0 170 -176 170q-123 0 -193 -82t-89 -216t28 -216t170 -82q88 0 147 48t82 132h133q-33 -137 -135 -217t-246 -80zM748 96q260 0 456 180t236 452t-106 452t-406 180
t-455 -179t-233 -453t105 -452q143 -180 403 -180zM732 -16q-310 0 -486 211t-131 533t284 533q240 212 550 212q311 0 487 -211q176 -210 131 -532t-285 -534t-550 -212z" />
    <glyph glyph-name="ordfeminine" unicode="&#xaa;" horiz-adv-x="626" 
d="M336 1012q-84 0 -138 -64t-68 -172q-14 -109 22 -170t118 -61t140 62q57 63 69 157v4q35 244 -143 244zM247 471q-122 0 -173 86t-33 219t97 220t199 87t169 -94l12 84h84l-82 -586h-59l-10 88q-82 -104 -204 -104z" />
    <glyph glyph-name="guillemotleft" unicode="&#xab;" horiz-adv-x="1062" 
d="M897 199l-135 -82q-80 147 -236 442q21 26 361 440l108 -86l-293 -354q29 -55 195 -360zM461 199q-108 -67 -135 -82q-156 295 -236 442q341 413 361 440l110 -86l-147 -177q-98 -118 -148 -177q29 -55 195 -360z" />
    <glyph glyph-name="logicalnot" unicode="&#xac;" horiz-adv-x="1251" 
d="M1040 281h-139l53 368h-809l19 135h948z" />
    <glyph glyph-name="registered" unicode="&#xae;" horiz-adv-x="1384" 
d="M618 391q209 0 364 140q154 139 186 359t-84 361t-324 141t-362 -140q-154 -142 -186 -361t82 -359t324 -141zM603 293q-251 0 -394 169t-107 428t230 430t446 171t394 -170t106 -429t-230 -429t-445 -170zM709 913q53 0 89 30t41 72q5 43 -20 67t-90 24h-115l-26 -193
h121zM745 1202q115 0 163 -53t36 -137q-16 -127 -133 -172q20 -51 82 -244h-117l-67 223h-134l-32 -223h-105l86 606h221z" />
    <glyph glyph-name="macron" unicode="&#xaf;" horiz-adv-x="702" 
d="M610 1272h-538l18 129h539z" />
    <glyph glyph-name="degree" unicode="&#xb0;" horiz-adv-x="884" 
d="M641 1108q10 84 -39 142t-134 58t-150 -58q-66 -58 -76 -142t38 -143t133 -59t151 58q66 60 77 144zM394 778q-138 0 -222 96t-64 234t130 232q112 96 250 96t222 -96t65 -232q-19 -138 -131 -234t-250 -96z" />
    <glyph glyph-name="plusminus" unicode="&#xb1;" horiz-adv-x="2795" 
d="M2048 1456l-1024 -1468h-147l1028 1468h143zM2611 596h-938l19 135h938zM1149 594h-447l-69 -490h-137l69 490h-444l18 133h445l65 471h137l-65 -471h446z" />
    <glyph glyph-name="twosuperior" unicode="&#xb2;" horiz-adv-x="679" 
d="M360 1421q-150 0 -190 -151h-82q23 100 95 164q73 63 185 63t168 -59t42 -158q-20 -147 -205 -293q-7 -6 -65 -60q-58 -53 -113 -105t-66 -60h387l-10 -78h-498l10 76q16 14 148 137t151 137q158 129 172 242q9 68 -25 106t-104 39z" />
    <glyph glyph-name="threesuperior" unicode="&#xb3;" horiz-adv-x="657" 
d="M234 684q-120 0 -173 66t-45 165h82q-10 -158 152 -157q80 0 130 40t60 113q20 154 -145 154h-68l11 74h67q70 0 116 37t54 102t-29 101t-104 36q-147 0 -190 -141h-80q16 92 92 153t185 61t165 -55q56 -56 43 -147q-16 -129 -141 -180q128 -43 108 -193
q-16 -105 -93 -167t-197 -62z" />
    <glyph glyph-name="acute" unicode="&#xb4;" horiz-adv-x="649" 
d="M518 1409l-348 -238l-55 62l321 268z" />
    <glyph glyph-name="mu" unicode="&#xb5;" horiz-adv-x="1261" 
d="M109 188v1080h1079v-1080h-1079zM440 763q0 30 -8 30q-16 -1 -16 -5t5 -4t5 -44t-33 -73q-10 -11 -14 -12q-4 0 -4 13l-4 116q2 2 2 6t-4 5l-17 -11q4 -45 4 -52t-22 -39q-22 -31 -26 -31q-3 0 -3 47t-6 77q-2 10 -16 11q-57 0 -88 -25q-31 -26 -31 -62t33 -36
q16 0 25 10t9 24t-10 13q-10 0 -10 -8l6 -15q1 -18 -21 -18t-22 36t34 54t66 18q10 0 11 -26l6 -119q0 -4 4 -4q25 0 61 76l4 -72q0 -4 11 -4q35 16 52 55t17 69zM471 723h2q18 0 19 -33v-2q0 -45 -25 -45q-18 0 -18 25v4q-1 51 22 51zM481 731q-21 0 -35 -18
q-14 -19 -14 -35t1 -22t9 -12q8 -7 21 -7q45 0 45 59q0 35 -27 35zM522 709q0 8 10 8t11 -25l-8 -51l4 -4q14 0 14 8v2q0 66 16 66h2l9 -4l8 8q0 14 -15 14l-10 -10q0 -1 -8 -21q-7 31 -14 31t-17 -8t-10 -16l4 -9l4 4v7zM641 700v-12q0 -8 -7 -24t-22 -17q-14 0 -14 24
t8 31q9 21 22 21t13 -23zM641 659v-8q0 -16 10 -16q11 0 19 8t10 16l-4 5q-4 -1 -4 -9t-8 -8q-8 -1 -8 7t6 71v6q10 50 10 57t-20 7q-20 -1 -19 -7q0 -6 4 -5t10 1t6 -6q0 -59 -8 -59l-2 2q-1 8 -19 8q-18 1 -30 -23t-12 -46t22 -23q16 0 26 11t11 11zM716 721l21 -8
q6 0 6 8t-14 8h-2q-33 0 -33 -24q0 -14 18 -26q18 -11 19 -14q2 -3 2 -13t-16 -9q-16 0 -17 8v2q0 8 -8 9q-6 0 -6 -7q0 -18 30 -18t29 27q0 12 -15 23t-19 15t-4 12t9 7zM822 631q16 0 22 18l2 4q0 4 -4 4q-4 -2 -4 -6q-4 -10 -10 -10t-7 4q0 4 5 21t5 41q0 25 -24 24
q-12 0 -19 -9q-6 -9 -6 -11l-4 -4h-2l12 84q0 4 -20 4t-18 -9q0 -2 6 -2h8q6 0 6 -8l-6 -53v-2q-4 -41 -8 -59l-4 -21q0 -2 9 -2t9 4v16q13 60 33 60q14 0 14 -10v-4l-12 -64q1 -10 17 -10zM881 647q-13 0 -13 30t27 46q14 0 14 -38t-28 -38zM925 645q-5 1 -5 19t6 36t6 21
l2 2v2q0 2 -6 2h-2q-8 0 -10 -5t-3 -5q-8 12 -20 12t-35 -33q-6 -18 -6 -32q0 -27 22 -27q11 0 31 20q2 0 2 -4v-8q-1 -8 9 -8t19 6t9 12t-4 7q-10 -17 -15 -17zM977 717q0 4 10 4q25 0 25 -39t-25 -39q-16 0 -16 14v5l6 47v8zM973 764v-2q-6 0 -6 -6l-2 -19v-6
q0 -8 -15 -15q-14 -6 -14 -14t4 -8l16 15q0 4 5 4l2 -2l-11 -76q0 -23 -8 -23h-8q-2 0 -2 -2q0 -10 24 -10t22 4q-1 4 -3 4h-6q-6 0 -6 16t4 17q12 -4 23 -4q12 0 24 14t12 39q0 39 -33 39q-8 -2 -14 -2l-2 2l4 31l-4 4h-6zM1065 719h2q12 -1 12 -21t-18 -20q-10 0 -10 10
t5 21q5 10 9 10zM1055 672h2q17 0 27 15t10 24q0 18 -18 18t-29 -20q-13 -20 -13 -44t15 -24q8 -4 18 -4t22 6t13 14q0 4 -4 5q-4 0 -4 -5q-8 -14 -23 -14q-20 0 -20 25q0 4 4 4z" />
    <glyph glyph-name="paragraph" unicode="&#xb6;" horiz-adv-x="1306" 
d="M416 113l78 544q-197 2 -290 116q-93 115 -72 269q20 154 118 257t246 131h653l-186 -1317h-146l172 1212h-258l-172 -1212h-143z" />
    <glyph glyph-name="periodcentered" unicode="&#xb7;" horiz-adv-x="514" 
d="M334 578h-201l31 219h201z" />
    <glyph glyph-name="cedilla" unicode="&#xb8;" horiz-adv-x="579" 
d="M410 -94l-187 -348l-127 63l193 285h121z" />
    <glyph glyph-name="onesuperior" unicode="&#xb9;" horiz-adv-x="792" 
d="M420 758h-82l94 674q-25 -16 -209 -127l10 81q57 37 222 138h73z" />
    <glyph glyph-name="ordmasculine" unicode="&#xba;" horiz-adv-x="782" 
d="M342 416q-139 0 -203 92q-63 92 -41 240t111 240q90 93 227 93t202 -92q64 -92 44 -239q-20 -146 -110 -240t-230 -94zM353 494q103 0 161 73q57 74 74 183q14 108 -23 180t-140 72t-161 -73q-57 -73 -72 -181t21 -182q37 -72 140 -72z" />
    <glyph glyph-name="guillemotright" unicode="&#xbb;" horiz-adv-x="1062" 
d="M143 915l133 84l238 -438l-362 -444l-111 82l299 360zM578 915l135 84l237 -438l-362 -444l-111 84l297 358z" />
    <glyph glyph-name="onequarter" unicode="&#xbc;" horiz-adv-x="1884" 
d="M1116 252h264l52 366q-216 -251 -316 -366zM1028 188l8 60q137 160 412 483h82l-68 -479h92l-8 -64h-92l-27 -188h-81l26 188h-344zM713 872h-78l88 633q-18 -10 -89 -53t-110 -66l11 78l208 129h70zM358 -29q344 510 1037 1534h102q-483 -719 -1036 -1534h-103z" />
    <glyph glyph-name="onehalf" unicode="&#xbd;" horiz-adv-x="2123" 
d="M1455 721q-67 0 -117 -39t-68 -109h-80q23 98 93 161q71 62 181 62t166 -58t41 -154q-20 -152 -196 -289q-37 -30 -135 -120q-97 -91 -109 -99h379l-11 -78h-487l10 74q14 10 144 131t149 137q154 125 170 240q8 61 -27 101q-36 40 -103 40zM754 758h-88l102 733
q-37 -25 -115 -71t-114 -68l12 92q41 27 121 75t119 74h79zM362 -29q553 815 1037 1534h102q-178 -264 -1034 -1534h-105z" />
    <glyph glyph-name="threequarters" unicode="&#xbe;" horiz-adv-x="1884" 
d="M494 827q84 0 137 44t63 120q20 162 -153 162h-70l10 78h72q74 0 121 39t55 107q8 67 -29 107t-108 40q-154 0 -201 -148h-84q14 96 95 161t197 65t174 -60t46 -156q-20 -139 -147 -188q130 -49 110 -205q-16 -111 -97 -177t-208 -66t-184 70t-45 177h86
q-10 -170 160 -170zM1044 281h299l58 417zM942 209l10 67l465 547h94l-75 -542h104l-10 -72h-105l-30 -215h-92l30 215h-391zM338 -29l1036 1534h103l-1035 -1534h-104z" />
    <glyph glyph-name="questiondown" unicode="&#xbf;" horiz-adv-x="1013" 
d="M502 838l28 206h189l-29 -206h-188zM414 -299q276 0 348 274h149q-37 -178 -175 -296q-138 -117 -334 -117t-298 106t-79 275q29 203 231 348q88 69 121 99t67 91q35 61 48 148h151q-23 -163 -101 -257q-44 -52 -80 -83t-110 -86q-148 -107 -166 -237t41 -198t187 -67z
" />
    <glyph glyph-name="Agrave" unicode="&#xc0;" horiz-adv-x="1298" 
d="M801 1518h-172q-86 92 -262 272h241q132 -180 193 -272zM879 530l-174 736l-379 -736h553zM1171 0h-165l-93 387h-659l-201 -387h-159l759 1456h164z" />
    <glyph glyph-name="Aacute" unicode="&#xc1;" horiz-adv-x="1298" 
d="M1057 1749l-346 -238l-56 62l322 268zM877 530l-177 736l-376 -736h553zM1167 0h-166l-92 387h-659l-201 -387h-160l760 1456h164z" />
    <glyph glyph-name="Acircumflex" unicode="&#xc2;" horiz-adv-x="1298" 
d="M1067 1530h-143l-152 217l-209 -217h-147l311 309h121zM877 530l-177 736l-376 -736h553zM1167 0h-166l-92 387h-659l-201 -387h-160l760 1456h164z" />
    <glyph glyph-name="Atilde" unicode="&#xc3;" horiz-adv-x="1298" 
d="M862 1538q-63 0 -141 48t-119 48q-78 0 -117 -78l-86 33q66 164 219 164q62 0 140 -49t119 -49q74 0 112 80l88 -35q-66 -162 -215 -162zM883 530l-176 736l-377 -736h553zM1174 0h-166l-93 387h-659l-201 -387h-159l759 1456h164z" />
    <glyph glyph-name="Adieresis" unicode="&#xc4;" horiz-adv-x="1316" 
d="M643 1505h-160l25 176h160zM1014 1505h-162l25 176h161zM887 530l-174 736l-379 -736h553zM1180 0h-166l-94 387h-660l-199 -387h-159l760 1456h163z" />
    <glyph glyph-name="Aring" unicode="&#xc5;" horiz-adv-x="1316" 
d="M777 1833q-52 0 -88 -34t-44 -88t20 -88q27 -34 79 -34t89 33q36 33 44 88t-20 89t-80 34zM791 1923q94 -1 147 -59t39 -153t-86 -153t-162 -58t-143 56t-39 154t82 156t162 57zM870 530l-176 736l-377 -736h553zM1163 0h-166l-94 387h-659l-199 -387h-160l760 1456h164z
" />
    <glyph glyph-name="AE" unicode="&#xc6;" horiz-adv-x="1972" 
d="M979 586l102 729h-151l-469 -729h518zM1769 0h-872l61 444h-591l-293 -444h-170l960 1456h1104l-20 -141h-713l-68 -481h641l-20 -144h-641l-78 -547h719z" />
    <glyph glyph-name="Ccedilla" unicode="&#xc7;" horiz-adv-x="1366" 
d="M846 1489q233 0 356 -136t125 -354h-160q-4 164 -89 255t-253 92q-333 0 -476 -389q-86 -239 -65 -457q11 -112 46 -198q36 -87 118 -139t203 -52q180 0 292 94t155 258h162q-53 -219 -222 -357q-138 -113 -324 -132l-175 -324l-125 63l174 257q-176 10 -294 109
q-229 191 -163 648q47 332 233 547t482 215z" />
    <glyph glyph-name="Egrave" unicode="&#xc8;" horiz-adv-x="1232" 
d="M844 1520h-172q-86 92 -262 272h241q132 -180 193 -272zM1020 0h-961l205 1456h948l-20 -141h-791l-67 -484h721l-21 -143h-721l-75 -545h802z" />
    <glyph glyph-name="Eacute" unicode="&#xc9;" horiz-adv-x="1239" 
d="M965 1729l-349 -238l-53 61l320 269zM1018 0h-961l205 1456h948l-20 -141h-791l-67 -484h721l-21 -143h-721l-75 -545h802z" />
    <glyph glyph-name="Ecircumflex" unicode="&#xca;" horiz-adv-x="1269" 
d="M1106 1563h-143l-154 217l-207 -217h-147l309 309h121zM1014 0h-961l205 1456h948l-18 -141h-791l-69 -484h721l-21 -143h-721l-76 -545h803z" />
    <glyph glyph-name="Edieresis" unicode="&#xcb;" horiz-adv-x="1232" 
d="M672 1524h-160l25 176h159zM1042 1524h-161l24 176h162zM1026 0h-960l204 1456h949l-21 -141h-790l-68 -484h721l-21 -143h-721l-75 -545h803z" />
    <glyph glyph-name="Igrave" unicode="&#xcc;" horiz-adv-x="505" 
d="M393 1540h-172q-88 92 -260 272h240q92 -127 192 -272zM215 0h-158l205 1456h158z" />
    <glyph glyph-name="Iacute" unicode="&#xcd;" horiz-adv-x="505" 
d="M694 1741l-346 -238l-55 62l319 268zM215 0h-158l205 1456h158z" />
    <glyph glyph-name="Icircumflex" unicode="&#xce;" horiz-adv-x="505" 
d="M666 1540h-144l-151 217l-209 -217h-148l310 309h120zM213 0h-158l205 1456h158z" />
    <glyph glyph-name="Idieresis" unicode="&#xcf;" horiz-adv-x="505" 
d="M254 1524h-160l25 176h160zM625 1524h-162l24 176h162zM223 0h-157l204 1456h158z" />
    <glyph glyph-name="Eth" unicode="&#xd0;" horiz-adv-x="1437" 
d="M795 1313h-346l-70 -496h354l-18 -127h-355l-77 -549h309q284 12 417 182q119 152 154 408q80 582 -368 582zM815 1456q164 0 279 -57t167 -155q115 -218 64 -511q-46 -315 -222 -524t-515 -209h-482l97 690h-160l18 127h160l90 639h504z" />
    <glyph glyph-name="Ntilde" unicode="&#xd1;" horiz-adv-x="1468" 
d="M979 1507q-63 0 -141 48t-119 49q-78 0 -117 -78l-86 33q66 164 219 163q63 0 141 -49t117 -49q72 0 113 80l88 -35q-66 -162 -215 -162zM1159 0h-162l-608 1202l-170 -1202h-156l205 1456h166l608 -1198l168 1198h154z" />
    <glyph glyph-name="Ograve" unicode="&#xd2;" horiz-adv-x="1447" 
d="M870 1559h-172q-88 92 -264 272h242q131 -180 194 -272zM616 111q351 0 488 389q37 104 55 229q44 221 -37 423q-35 87 -121 140q-87 54 -213 54q-346 1 -485 -391q-37 -103 -53 -226q-45 -224 34 -425q34 -87 120 -140t212 -53zM599 -31q-161 1 -275 61t-168 164
q-121 230 -70 533q47 324 221 535q88 106 217 166t287 61q209 1 336 -105q239 -199 174 -653q-47 -323 -215 -533q-86 -108 -216 -168t-291 -61z" />
    <glyph glyph-name="Oacute" unicode="&#xd3;" horiz-adv-x="1447" 
d="M1135 1792l-347 -238l-55 62l320 268zM614 111q205 0 331 128q163 163 210 490q44 221 -37 423q-35 87 -121 140q-86 54 -213 54q-346 1 -485 -391q-59 -163 -65 -408q-5 -174 85 -307q41 -59 117 -94t178 -35zM595 -31q-161 1 -275 61t-168 164q-121 230 -70 533
q47 324 221 535q88 106 217 166t287 61q209 1 336 -105q239 -199 174 -653q-47 -323 -215 -533q-86 -108 -216 -168t-291 -61z" />
    <glyph glyph-name="Ocircumflex" unicode="&#xd4;" horiz-adv-x="1447" 
d="M1147 1546h-143l-152 217l-209 -217h-147l309 309h121zM616 111q205 0 331 128q163 163 210 490q44 221 -37 423q-35 87 -121 140q-86 54 -213 54q-346 1 -485 -391q-59 -166 -65 -408q-4 -177 86 -307q40 -59 116 -94t178 -35zM597 -31q-161 1 -275 61t-168 164
q-121 230 -70 533q47 324 221 535q88 106 217 166t287 61q209 1 336 -105q239 -199 174 -653q-47 -323 -215 -533q-86 -108 -216 -168t-291 -61z" />
    <glyph glyph-name="Otilde" unicode="&#xd5;" horiz-adv-x="1447" 
d="M963 1575q-63 0 -141 48t-120 48q-76 0 -114 -78l-86 33q66 164 217 164q63 0 140 -49t118 -49q76 0 115 80l86 -35q-63 -162 -215 -162zM621 111q204 0 330 128q163 163 210 490q44 219 -36 423q-34 87 -119 140q-86 54 -213 54q-349 1 -488 -391q-59 -166 -65 -408
q-4 -177 86 -307q41 -59 117 -94t178 -35zM601 -31q-161 1 -275 61t-168 164q-121 230 -70 533q47 324 221 535q88 106 217 166t287 61q209 1 337 -105q239 -197 173 -653q-47 -323 -215 -533q-86 -108 -216 -168t-291 -61z" />
    <glyph glyph-name="Odieresis" unicode="&#xd6;" horiz-adv-x="1458" 
d="M733 1548h-160l25 176h160zM1104 1548h-162l25 176h161zM625 111q204 0 330 128q163 163 210 490q45 223 -36 423q-34 87 -119 140q-86 54 -213 54q-345 1 -488 -391q-59 -166 -65 -408q-4 -177 86 -307q41 -59 117 -94t178 -35zM605 -31q-161 1 -275 61t-168 164
q-121 230 -70 533q48 330 234 546t493 216q209 1 336 -105q239 -199 174 -653q-47 -325 -216 -533q-87 -108 -217 -168t-291 -61z" />
    <glyph glyph-name="multiply" unicode="&#xd7;" horiz-adv-x="1300" 
d="M1079 256l-104 -94l-340 395l-449 -395l-77 94l448 393l-346 402l104 92l347 -400l458 400l78 -92l-459 -402z" />
    <glyph glyph-name="Oslash" unicode="&#xd8;" horiz-adv-x="1458" 
d="M1118 1202q-145 -209 -710 -1024q92 -68 226 -68q260 1 386 184q127 183 162 433q42 307 -64 475zM334 256q396 576 706 1022q-86 66 -219 66q-261 -1 -387 -185t-160 -432q-44 -317 60 -471zM836 1489q176 0 294 -82l113 160q16 -9 47 -27t47 -27l-56 -80
q-42 -60 -64 -92q195 -220 129 -612q-48 -328 -217 -532q-185 -227 -513 -227q-166 0 -299 79l-118 -170q-18 12 -90 55q41 59 127 183q-184 190 -125 610q51 373 260 576q190 186 465 186z" />
    <glyph glyph-name="Ugrave" unicode="&#xd9;" horiz-adv-x="1402" 
d="M885 1534h-172q-43 45 -131 136t-131 136h241q14 -20 85 -120t108 -152zM572 -31q-264 0 -380 152t-75 440l127 895h157l-127 -899q-63 -446 317 -446t443 446l127 899h158l-127 -897q-41 -287 -199 -439t-421 -151z" />
    <glyph glyph-name="Uacute" unicode="&#xda;" horiz-adv-x="1402" 
d="M1081 1765l-346 -237l-55 61l319 269zM568 -31q-263 0 -380 152t-75 440l127 895h157l-127 -899q-63 -446 317 -446t443 446l127 899h158l-127 -897q-41 -287 -199 -439t-421 -151z" />
    <glyph glyph-name="Ucircumflex" unicode="&#xdb;" horiz-adv-x="1402" 
d="M1106 1554h-143l-152 218l-209 -218h-147l311 310h121zM568 -31q-263 0 -380 152t-75 440l127 895h157l-127 -899q-63 -446 317 -446t443 446l127 899h158l-127 -897q-41 -287 -199 -439t-421 -151z" />
    <glyph glyph-name="Udieresis" unicode="&#xdc;" horiz-adv-x="1404" 
d="M707 1505h-160l24 176h160zM1077 1505h-162l25 176h162zM580 -31q-262 0 -379 152t-76 440l127 895h158l-127 -899q-63 -446 317 -446t442 446l127 899h158l-127 -897q-41 -287 -199 -439q-159 -152 -421 -151z" />
    <glyph glyph-name="Yacute" unicode="&#xdd;" horiz-adv-x="1198" 
d="M969 1714l-346 -237l-56 61l320 268zM1257 1456l-620 -858l-84 -598h-158l84 598l-389 858h176l314 -713l514 713h163z" />
    <glyph glyph-name="Thorn" unicode="&#xde;" horiz-adv-x="1249" 
d="M625 438q186 0 280 76t117 230q23 153 -54 225t-261 71h-322l-84 -602h324zM606 299h-325l-41 -299h-156l205 1456h155l-38 -274h325q262 0 371 -114t79 -323q-30 -208 -172 -327t-403 -119z" />
    <glyph glyph-name="germandbls" unicode="&#xdf;" horiz-adv-x="1196" 
d="M702 1481q190 1 284 -97q95 -98 73 -262q-15 -110 -75 -192t-161 -119q131 -31 200 -136t45 -279t-159 -294q-135 -121 -348 -120q-90 0 -188 24q27 111 30 127q90 -20 162 -20q154 0 243 81q89 80 111 230q23 150 -63 226t-248 77h-88l19 129h77q123 0 199 69t91 182
t-44 180t-183 67t-203 -79t-97 -218l-150 -1057h-149l147 1047q27 190 156 312t319 122z" />
    <glyph glyph-name="agrave" unicode="&#xe0;" horiz-adv-x="1177" 
d="M717 1180h-172q-88 92 -264 272h241q132 -180 195 -272zM528 944q-152 0 -250 -115t-125 -309q-28 -194 40 -306t217 -112t250 113t126 285v4q61 440 -258 440zM860 0h-104l-19 158q-143 -186 -370 -187q-145 0 -238 77q-176 147 -131 468q33 246 175 403t359 156
q100 0 182 -44t124 -128l20 154h150z" />
    <glyph glyph-name="aacute" unicode="&#xe1;" horiz-adv-x="1177" 
d="M915 1382l-348 -237l-53 61l320 269zM526 944q-152 0 -250 -115t-124 -309t41 -306q68 -112 216 -112t249 113t126 285v4q61 440 -258 440zM858 0h-104l-19 158q-143 -186 -370 -187q-145 0 -238 77q-176 147 -131 468q33 246 175 403t359 156q100 0 182 -44t124 -128
l20 154h150z" />
    <glyph glyph-name="acircumflex" unicode="&#xe2;" horiz-adv-x="1177" 
d="M958 1141h-143l-151 217l-209 -217h-148l309 309h121zM528 944q-152 0 -250 -115t-125 -309q-28 -194 40 -306t217 -112t250 113t126 285v4q61 440 -258 440zM860 0h-104l-19 158q-143 -186 -370 -187q-145 0 -238 77q-176 147 -131 468q33 246 175 403t359 156
q100 0 182 -44t124 -128l20 154h150z" />
    <glyph glyph-name="atilde" unicode="&#xe3;" horiz-adv-x="1177" 
d="M776 1186q-63 0 -142 48t-120 48q-76 0 -115 -78l-86 33q66 164 219 164q62 0 140 -49t119 -49q74 0 112 79l88 -34q-66 -162 -215 -162zM530 944q-152 0 -248 -115t-125 -309q-28 -194 40 -306q69 -112 217 -112t250 114t127 284v4q61 440 -261 440zM862 0h-104l-19 158
q-143 -186 -364 -186t-314 154q-92 156 -60 396t174 397t360 156q100 0 182 -44t123 -128l22 154h150z" />
    <glyph glyph-name="adieresis" unicode="&#xe4;" horiz-adv-x="1177" 
d="M539 1200h-160l24 176h160zM909 1200h-161l24 176h162zM532 944q-152 0 -250 -115t-124 -309q-27 -194 41 -306q69 -112 217 -112t250 114t127 284v4q61 440 -261 440zM864 0h-104l-19 158q-143 -186 -364 -186t-314 154q-92 156 -60 396t174 397t360 156q100 0 182 -44
t123 -128l22 154h150z" />
    <glyph glyph-name="aring" unicode="&#xe5;" horiz-adv-x="1177" 
d="M675 1489q-52 0 -89 -34t-45 -88q-9 -54 19 -88t80 -34t88 33t44 88t-18 89q-27 34 -79 34zM626 1155q-90 0 -144 57q-54 56 -40 154t82 156t162 57q94 0 148 -58q52 -59 38 -155t-85 -154t-161 -57zM518 944q-152 0 -249 -115t-125 -309t40 -306t216 -112t251 114
q102 114 127 284v4q61 440 -260 440zM850 0h-105l-18 158q-143 -186 -371 -187q-145 0 -237 77q-174 146 -129 468q33 246 173 403t359 156q100 0 182 -44t123 -128l23 154h149z" />
    <glyph glyph-name="ae" unicode="&#xe6;" horiz-adv-x="1787" 
d="M1306 950q-142 0 -234 -91t-124 -253h598q20 154 -39 249t-201 95zM772 432l12 76q-363 0 -463 -53t-114 -152q-14 -100 38 -149t158 -50q155 0 253 92t116 236zM621 1075q258 0 321 -182q148 182 374 182t316 -146t58 -380l-9 -64h-751q-25 -173 42 -281t230 -108
q209 0 287 203h147q-47 -154 -169 -241q-123 -87 -281 -87t-250 65t-125 175q-147 -233 -438 -234q-160 0 -249 82t-69 232q14 114 98 201q50 51 166 82q116 30 400 30h76l6 47q20 147 -24 223t-165 76q-122 0 -198 -48t-99 -130h-145q39 147 156 225t295 78z" />
    <glyph glyph-name="ccedilla" unicode="&#xe7;" horiz-adv-x="1079" 
d="M662 942q-168 0 -260 -119t-118 -300t31 -301t226 -120q237 0 313 244h154q-47 -172 -175 -273q-103 -82 -241 -98l-172 -317l-127 63l172 253q-187 17 -274 149q-99 153 -65 397t181 400t377 155q174 0 273 -103t90 -265h-150q-4 109 -61 172t-174 63z" />
    <glyph glyph-name="egrave" unicode="&#xe8;" horiz-adv-x="1146" 
d="M719 1182h-172q-88 92 -264 272h241q132 -180 195 -272zM618 952q-146 0 -245 -95q-98 -95 -129 -253h626q20 156 -43 252t-209 96zM481 -29q-225 0 -331 151q-106 152 -72 398t186 401t370 155t316 -145q98 -144 66 -370q-4 -25 -12 -78h-779q-21 -167 49 -277t224 -110
q239 0 313 203h147q-47 -152 -175 -240t-302 -88z" />
    <glyph glyph-name="eacute" unicode="&#xe9;" horiz-adv-x="1146" 
d="M928 1376l-348 -237l-54 61l320 268zM618 952q-146 0 -245 -95q-98 -95 -129 -253h626q20 156 -43 252t-209 96zM479 -29q-225 0 -331 150q-105 149 -70 397t185 403q151 155 370 155t316 -145q97 -144 67 -370q-2 -10 -7 -37t-8 -41h-778q-19 -167 51 -277t224 -110
q235 0 313 203h147q-47 -152 -176 -240t-303 -88z" />
    <glyph glyph-name="ecircumflex" unicode="&#xea;" horiz-adv-x="1146" 
d="M948 1143h-143l-152 217l-209 -217h-147l309 309h121zM618 952q-146 0 -245 -95q-98 -95 -129 -253h626q20 156 -43 252t-209 96zM481 -29q-225 0 -331 151q-106 152 -72 398t186 401t371 155t318 -149q99 -148 56 -410q-5 -30 -5 -34h-779q-21 -167 49 -277t224 -110
q239 0 313 203h147q-47 -152 -175 -240t-302 -88z" />
    <glyph glyph-name="edieresis" unicode="&#xeb;" horiz-adv-x="1146" 
d="M580 1264h-160l24 176h160zM950 1264h-162l25 176h162zM620 952q-146 0 -245 -95q-98 -95 -129 -253h626q20 156 -43 252t-209 96zM481 -29q-225 0 -330 150q-105 149 -71 397t185 403t370 155t316 -145q97 -144 67 -370q-10 -50 -14 -78h-779q-19 -167 51 -277t224 -110
q235 0 313 203h148q-47 -152 -177 -240t-303 -88z" />
    <glyph glyph-name="igrave" unicode="&#xec;" horiz-adv-x="475" 
d="M362 1165h-172q-88 92 -260 273h240q92 -128 192 -273zM223 0h-151l147 1044h152z" />
    <glyph glyph-name="iacute" unicode="&#xed;" horiz-adv-x="475" 
d="M655 1409l-348 -238l-53 62l319 268zM219 0h-151l147 1044h152z" />
    <glyph glyph-name="icircumflex" unicode="&#xee;" horiz-adv-x="475" 
d="M633 1141h-144l-151 217l-209 -217h-145l307 309h121zM223 0h-151l145 1044h152z" />
    <glyph glyph-name="idieresis" unicode="&#xef;" horiz-adv-x="475" 
d="M213 1264h-160l25 176h160zM584 1264h-162l24 176h162zM223 0h-151l147 1044h152z" />
    <glyph glyph-name="eth" unicode="&#xf0;" horiz-adv-x="1171" 
d="M602 899q-164 0 -257 -116t-116 -281q-14 -106 1 -192t82 -146q67 -61 184 -62q170 0 263 115t118 285q55 397 -275 397zM480 -29q-230 1 -334 147t-73 378q32 232 178 384q146 151 365 150q137 0 215 -76q-25 182 -155 289q-92 -31 -213 -78q-18 49 -29 88q31 10 93 33
t73 27q-82 68 -158 104q39 29 101 68q119 -57 190 -119q57 18 180 66q4 -25 27 -91q-90 -33 -133 -49q293 -308 229 -761q-36 -248 -180 -404q-146 -156 -376 -156z" />
    <glyph glyph-name="ntilde" unicode="&#xf1;" horiz-adv-x="1212" 
d="M522 1272q-76 0 -114 -78l-86 33q66 164 217 164q63 1 141 -49t119 -50q74 0 112 80l88 -35q-66 -162 -215 -161q-63 0 -142 48t-120 48zM674 938q-168 0 -263 -118t-122 -308l-72 -512h-149l147 1044h88l33 -167q154 199 387 198q174 0 251 -99t50 -284l-96 -692h-152
l94 668q18 138 -28 204t-168 66z" />
    <glyph glyph-name="ograve" unicode="&#xf2;" horiz-adv-x="1236" 
d="M711 1182h-172q-88 92 -265 272h242q132 -180 195 -272zM482 -29q-230 0 -334 153q-103 154 -69 398t184 399q151 155 378 155t332 -153q104 -153 70 -398q-35 -245 -183 -399t-378 -155zM503 102q171 0 265 120t120 301t-36 300t-232 119q-172 0 -266 -120t-120 -299
t36 -300t233 -121z" />
    <glyph glyph-name="oacute" unicode="&#xf3;" horiz-adv-x="1236" 
d="M903 1378l-348 -237l-53 61l319 268zM480 -29q-230 0 -334 153q-103 154 -68 398t185 399q151 155 378 155t332 -153q104 -153 70 -398q-33 -245 -183 -399t-380 -155zM501 102q171 0 265 120t121 301t-35 300t-232 119q-172 0 -267 -120t-121 -299t36 -300t233 -121z
" />
    <glyph glyph-name="ocircumflex" unicode="&#xf4;" horiz-adv-x="1236" 
d="M1001 1165h-143l-151 217l-209 -217h-148l309 310h121zM480 -29q-230 0 -334 153q-103 154 -68 398t185 399q151 155 378 155t332 -153q104 -153 69 -398q-36 -245 -184 -399t-378 -155zM501 102q171 0 265 120t120 301t-34 300t-232 119t-267 -120t-121 -299t36 -300
t233 -121z" />
    <glyph glyph-name="otilde" unicode="&#xf5;" horiz-adv-x="1257" 
d="M809 1198q-63 0 -141 48t-119 48q-74 0 -117 -77l-84 32q66 164 217 164q63 0 141 -49t117 -49q74 0 115 80l86 -35q-66 -162 -215 -162zM484 -29q-230 0 -333 153q-103 154 -69 398t185 399t378 155t332 -153q103 -153 69 -398t-183 -399t-379 -155zM624 942
q-170 0 -266 -120t-122 -299t36 -300t233 -121t265 120t121 301t-35 300t-232 119z" />
    <glyph glyph-name="odieresis" unicode="&#xf6;" horiz-adv-x="1236" 
d="M561 1264h-160l25 176h160zM932 1264h-162l25 176h161zM482 -29q-230 0 -334 153q-103 154 -68 398t185 399q151 155 378 155t332 -153q104 -153 70 -398q-33 -245 -183 -399t-380 -155zM622 942q-172 0 -266 -120t-120 -299t34 -300q62 -121 233 -121t266 121t120 301
q27 180 -35 299t-232 119z" />
    <glyph glyph-name="divide" unicode="&#xf7;" horiz-adv-x="1273" 
d="M653 156h-182l29 198h182zM1102 588h-950l18 135h950zM766 958h-182l28 201h183z" />
    <glyph glyph-name="oslash" unicode="&#xf8;" horiz-adv-x="1177" 
d="M528 102q164 0 261 116t123 299t-44 314l-485 -694q55 -35 145 -35zM645 942q-170 0 -264 -121t-119 -299q-10 -80 3 -172t46 -143q438 627 488 696q-66 39 -154 39zM508 -29q-117 0 -211 45q-65 -94 -100 -145l-86 43l108 160q-156 154 -113 446q33 244 184 400t376 155
q125 0 215 -53l102 147l88 -53l-108 -153q147 -161 110 -423t-185 -416t-380 -153z" />
    <glyph glyph-name="ugrave" unicode="&#xf9;" horiz-adv-x="1157" 
d="M743 1180h-172q-88 92 -264 272h242q131 -180 194 -272zM452 106q128 0 236 105q63 61 92 135t47 201l72 500h150l-148 -1047h-94q-10 76 -29 170q-152 -199 -379 -199q-176 1 -251 99t-48 282l99 695h151l-94 -668q-20 -141 24 -207t172 -66z" />
    <glyph glyph-name="uacute" unicode="&#xfa;" horiz-adv-x="1224" 
d="M901 1380l-348 -237l-53 61l319 269zM450 106q128 0 238 105q63 61 92 136t47 200l70 500h150l-148 -1047h-94q-9 67 -27 170q-154 -199 -381 -199q-176 1 -251 99t-48 282l99 695h151l-94 -668q-20 -141 24 -207t172 -66z" />
    <glyph glyph-name="ucircumflex" unicode="&#xfb;" horiz-adv-x="1157" 
d="M940 1165h-143l-152 217l-209 -217h-147l309 310h121zM450 106q128 0 236 105q66 61 94 136q29 75 45 200l72 500h150l-148 -1047h-94q-9 67 -27 170q-154 -199 -381 -199q-176 1 -251 99t-48 282l99 695h151l-94 -668q-20 -141 24 -207t172 -66z" />
    <glyph glyph-name="udieresis" unicode="&#xfc;" horiz-adv-x="1157" 
d="M535 1206h-160l24 176h160zM905 1206h-162l25 176h162zM456 106q128 0 238 105q63 61 92 136t48 200l69 500h150l-148 -1047h-94q-9 67 -27 170q-154 -199 -381 -199q-350 0 -299 381l99 695h151l-94 -668q-20 -141 24 -207t172 -66z" />
    <glyph glyph-name="yacute" unicode="&#xfd;" horiz-adv-x="1030" 
d="M879 1319l-349 -238l-53 62l320 268zM485 182l443 862h162q-113 -219 -339 -641t-262 -491q-74 -142 -152 -233t-220 -91q-68 0 -152 25q4 12 16 57q11 45 19 70q37 -20 116 -20t125 52q47 52 85 126t42 80l7 14t8 14l-289 1038h168q37 -143 112 -431t111 -431z" />
    <glyph glyph-name="thorn" unicode="&#xfe;" horiz-adv-x="1204" 
d="M686 944q-152 0 -249 -110t-124 -289v-4q-61 -440 254 -441q152 0 250 116t125 308t-38 306q-66 114 -218 114zM727 1075q221 1 312 -155t59 -396t-174 -396t-362 -157q-220 0 -302 174l-78 -548h-149l264 1871h149l-81 -575q141 182 362 182z" />
    <glyph glyph-name="ydieresis" unicode="&#xff;" horiz-adv-x="999" 
d="M510 1192h-160l25 176h160zM881 1192h-162l24 176h162zM119 -412q-74 0 -152 25q14 48 35 127q37 -20 116 -20t125 52q47 52 85 126t42 80l7 14t8 14q-164 602 -289 1038h168q141 -539 223 -862q186 358 443 862h162q-45 -86 -341 -644t-326 -608q-30 -48 -77 -104
t-101 -78t-128 -22z" />
    <glyph glyph-name="Amacron" unicode="&#x100;" horiz-adv-x="1466" 
d="M1020 1507h-539l19 129h538zM891 530l-176 736l-377 -736h553zM1182 0h-166l-92 387h-660l-201 -387h-159l760 1456h163z" />
    <glyph glyph-name="amacron" unicode="&#x101;" horiz-adv-x="1198" 
d="M915 1165h-538l18 129h539zM539 944q-152 0 -250 -115t-125 -309t41 -306q69 -112 217 -112t249 113t126 285l2 4q61 440 -260 440zM870 0h-104l-18 158q-144 -186 -366 -186t-314 154q-92 156 -60 396t175 397q142 157 360 156q100 0 182 -44t123 -128l22 154h150z" />
    <glyph glyph-name="Aogonek" unicode="&#x104;" horiz-adv-x="1470" 
d="M1266 -266q-53 -57 -82 -90q-176 51 -156 219q12 63 62 137h-35l-94 387h-660l-199 -387h-159l759 1456h164l355 -1456q-45 -70 -50 -115q-16 -112 95 -151zM928 530l-174 736l-379 -736h553z" />
    <glyph glyph-name="aogonek" unicode="&#x105;" horiz-adv-x="1105" 
d="M950 -266q-29 -33 -82 -90q-176 51 -155 219q12 63 61 137h31l-19 158q-143 -186 -365 -186t-316 155q-93 155 -59 395t176 397t360 156q100 0 182 -44t123 -128l20 154h150l-148 -1057h-4q-41 -66 -49 -115q-17 -112 94 -151zM578 944q-152 0 -250 -115t-125 -309
t41 -306t216 -112t250 113q101 113 126 285v4q61 440 -258 440z" />
    <glyph glyph-name="Cacute" unicode="&#x106;" horiz-adv-x="1523" 
d="M1153 1819l-348 -238l-53 61l319 269zM580 -31q-156 -1 -267 59t-166 163q-119 222 -67 536q47 332 232 547t481 215q233 0 357 -136t126 -354h-160q-4 162 -90 254t-254 93q-121 0 -217 -52q-172 -94 -259 -337q-38 -105 -54 -228q-41 -239 37 -427q35 -87 117 -139
t204 -52q180 0 292 94t155 258h161q-55 -219 -222 -357t-406 -137z" />
    <glyph glyph-name="cacute" unicode="&#x107;" horiz-adv-x="1081" 
d="M997 1397l-346 -238l-55 62l322 268zM610 942q-168 0 -260 -119t-118 -300t32 -301t225 -120q238 0 314 244h153q-47 -172 -175 -273t-310 -102q-231 0 -331 152q-99 153 -64 397t181 400t376 155q174 0 273 -103t89 -265h-149q-4 109 -62 172t-174 63z" />
    <glyph glyph-name="Ccaron" unicode="&#x10c;" horiz-adv-x="1523" 
d="M1157 1894q-211 -203 -313 -311h-121q-129 178 -223 311h139q25 -39 158 -227q109 115 221 227h139zM597 -31q-222 1 -347 105q-235 197 -170 653q47 332 233 547t482 215q233 0 356 -136t125 -354h-160q-4 164 -89 255t-253 92q-121 0 -217 -52q-172 -94 -259 -337
q-38 -105 -54 -228q-46 -232 35 -427q35 -87 117 -139t204 -52q180 0 292 94t155 258h161q-53 -219 -221 -357t-390 -137z" />
    <glyph glyph-name="ccaron" unicode="&#x10d;" horiz-adv-x="1118" 
d="M1026 1483l-311 -312h-121q-37 53 -113 157t-112 155h139q24 -33 50 -71t58 -85t52 -72q72 76 219 228h139zM610 942q-168 0 -260 -120t-118 -300t32 -300t228 -120q237 0 311 244h153q-47 -172 -174 -273t-309 -102q-231 0 -331 152q-99 153 -65 397t180 400t376 155
q176 0 274 -103t88 -265h-149q-2 109 -60 172t-176 63z" />
    <glyph glyph-name="Dcaron" unicode="&#x10e;" horiz-adv-x="1525" 
d="M1100 1819q-46 -47 -98 -99t-115 -114l-99 -99h-120q-108 154 -226 312h140q68 -106 157 -228l222 228h139zM551 141q479 0 561 590q45 229 -33 410q-35 80 -123 127t-223 47h-336l-164 -1174h318zM766 1456q263 0 391 -139q127 -142 131 -355q2 -108 -12 -229
q-45 -325 -228 -529t-509 -204h-482l205 1456h504z" />
    <glyph glyph-name="dcaron" unicode="&#x10f;" horiz-adv-x="1427" 
d="M1114 983q100 92 127 240h-78l35 247h195l-35 -241q-37 -193 -182 -297q-8 4 -31 26t-31 25zM606 944q-152 0 -250 -115t-125 -309t41 -306t216 -112t250 113q101 113 126 285l2 4q61 440 -260 440zM938 0h-104l-19 158q-143 -186 -365 -186t-316 155q-93 155 -59 395
t176 397t359 156q100 0 182 -44t123 -128l80 567h150z" />
    <glyph glyph-name="Dslash" unicode="&#x110;" horiz-adv-x="1503" 
d="M575 141q477 0 564 590q41 239 -33 410q-35 80 -123 127t-223 47h-336l-81 -572h230l-16 -106h-229l-70 -496h317zM793 1456q263 0 391 -139q127 -142 131 -355q2 -108 -12 -229q-47 -329 -229 -531t-509 -202h-481l90 637h-194l16 106h193l100 713h504z" />
    <glyph glyph-name="dmacron" unicode="&#x111;" horiz-adv-x="1255" 
d="M606 944q-152 0 -250 -115t-125 -309t41 -306t216 -112t250 113q101 113 126 285l2 4q61 440 -260 440zM938 0h-104l-19 158q-143 -186 -365 -186t-316 155q-93 155 -59 395t176 397t359 156q100 0 182 -44t123 -128l47 334h-196l18 129h197l14 104h150l-15 -104h193
l-18 -129h-193z" />
    <glyph glyph-name="Emacron" unicode="&#x112;" horiz-adv-x="1304" 
d="M1059 1511h-539l19 129h538zM1030 0h-960l204 1456h949l-19 -141h-790l-70 -484h721l-18 -143h-721l-78 -545h803z" />
    <glyph glyph-name="emacron" unicode="&#x113;" horiz-adv-x="1140" 
d="M940 1145h-539l19 129h538zM630 952q-146 0 -244 -95t-130 -253h627q20 156 -43 252q-64 96 -210 96zM494 -29q-225 0 -332 151q-106 152 -72 398t186 401t371 155t317 -145q98 -144 64 -370q-2 -14 -7 -44t-5 -34h-778q-20 -167 50 -277t222 -110q239 0 313 203h148
q-45 -152 -174 -240t-303 -88z" />
    <glyph glyph-name="Edotaccent" unicode="&#x116;" horiz-adv-x="1304" 
d="M877 1491h-172l26 184h172zM1028 0h-960l204 1456h949l-21 -141h-790l-68 -484h721l-21 -143h-720l-76 -545h803z" />
    <glyph glyph-name="edotaccent" unicode="&#x117;" horiz-adv-x="1140" 
d="M737 1143h-172l27 184h172zM626 952q-146 0 -244 -95t-130 -253h627q20 156 -43 252q-64 96 -210 96zM489 -29q-225 0 -331 151q-106 152 -72 398t186 401t371 155t318 -149q99 -148 56 -410q-5 -30 -5 -34h-779q-20 -167 51 -277t224 -110q237 0 311 203h148
q-45 -152 -174 -240t-304 -88z" />
    <glyph glyph-name="Ecaron" unicode="&#x11a;" horiz-adv-x="1304" 
d="M1161 1825l-311 -312h-121q-125 169 -225 312h139q126 -181 160 -228q72 76 219 228h139zM1018 0h-961l205 1456h948l-20 -141h-791l-67 -484h721l-21 -143h-721l-75 -545h802z" />
    <glyph glyph-name="ecaron" unicode="&#x11b;" horiz-adv-x="1140" 
d="M1022 1450l-311 -311h-121q-37 53 -112 155t-113 156h139q24 -33 50 -71t58 -85t52 -71q72 76 219 227h139zM618 952q-146 0 -245 -95q-98 -95 -129 -253h626q20 156 -43 252t-209 96zM481 -29q-225 0 -331 151q-106 152 -72 398t186 401t371 155t318 -149
q99 -148 56 -410q-5 -30 -5 -34h-779q-21 -167 49 -277t224 -110q239 0 313 203h147q-47 -152 -175 -240t-302 -88z" />
    <glyph glyph-name="Gcommaaccent" unicode="&#x122;" horiz-adv-x="1421" 
d="M498 -588q100 92 127 240h-78l35 248h194l-35 -242q-41 -195 -182 -297q-9 3 -31 25t-30 26zM689 111q317 0 432 330q30 87 38 184h-399l20 137h549l-108 -762h-84q-2 43 -2 130t-2 130q-53 -133 -183 -210t-274 -81q-164 1 -280 61t-172 162q-123 225 -70 533
q47 332 237 548t490 216q227 0 354 -124t123 -318h-158q-2 143 -89 221t-231 78q-266 0 -395 -183t-169 -429t42 -435q37 -86 124 -137t207 -51z" />
    <glyph glyph-name="gcommaaccent" unicode="&#x123;" horiz-adv-x="1230" 
d="M442 -352q212 0 310 82q57 48 65 118q10 70 -29 117q-55 63 -219 68h-252q-27 -4 -53 -15q-119 -47 -137 -176q-12 -70 31 -118q72 -76 284 -76zM592 942q-115 0 -198 -68t-97 -180t48 -180q62 -66 177 -66t198 67q83 66 97 179q14 112 -48 180t-177 68zM506 330
q-104 0 -191 43q-89 -33 -100 -115q-2 0 -2 -14l2 -15q2 -47 64 -61q27 -12 102 -12h227q166 0 256 -66q113 -92 90 -240q-18 -121 -104 -196q-142 -127 -422 -127t-387 123q-57 76 -45 168q24 182 180 250q-51 18 -80 68t-20 104q18 125 151 198q-88 104 -65 264t149 260
q127 99 279 99t248 -70q100 25 112 131l-4 33h113q4 -10 4 -45l-2 -8q-12 -71 -51 -120q-40 -49 -99 -69q63 -96 45 -221q-24 -164 -152 -263t-298 -99zM813 1653q-102 -88 -129 -240h78l-35 -248h-192l34 242q35 190 181 297q22 -14 63 -51z" />
    <glyph glyph-name="Imacron" unicode="&#x12a;" horiz-adv-x="532" 
d="M602 1538h-539l19 129h539zM45 0l207 1470h147l-206 -1470h-148z" />
    <glyph glyph-name="imacron" unicode="&#x12b;" horiz-adv-x="483" 
d="M580 1104h-539l18 129h539zM238 0h-152l147 1044h152z" />
    <glyph glyph-name="Iogonek" unicode="&#x12e;" horiz-adv-x="509" 
d="M276 -266q-2 -2 -79 -90q-180 51 -156 219q8 63 59 137h-16l207 1470h147l-207 -1470q-120 -207 45 -266z" />
    <glyph glyph-name="iogonek" unicode="&#x12f;" horiz-adv-x="483" 
d="M291 -266q-50 -50 -80 -90q-180 51 -156 219q8 59 62 137h-21l146 1044h151l-145 -1044q-45 -70 -49 -115q-17 -110 92 -151zM436 1274h-174l27 184h174z" />
    <glyph glyph-name="dotlessi" unicode="&#x131;" horiz-adv-x="497" 
d="M252 0h-152l146 1044h151z" />
    <glyph glyph-name="Kcommaaccent" unicode="&#x136;" horiz-adv-x="1376" 
d="M395 -563q100 92 125 239h-78l35 248h195l-33 -241q-41 -195 -182 -297q-8 4 -32 26t-30 25zM1253 0h-184l-371 799l-348 -324l-65 -475h-158l205 1456h157l-110 -778l840 778h186l-582 -545z" />
    <glyph glyph-name="kcommaaccent" unicode="&#x137;" horiz-adv-x="1054" 
d="M317 -559q98 92 125 240h-77l34 247h195l-35 -241q-37 -193 -182 -297q-8 4 -31 26t-29 25zM1006 0h-175l-270 569l-260 -227l-47 -342h-150l207 1470h150l-133 -944l596 518h186l-426 -374z" />
    <glyph glyph-name="Lacute" unicode="&#x139;" horiz-adv-x="1167" 
d="M678 1747l-346 -238l-56 62l322 268zM963 0h-908l205 1456h158l-185 -1311h750z" />
    <glyph glyph-name="lacute" unicode="&#x13a;" horiz-adv-x="483" 
d="M668 1767l-346 -237l-56 61l320 269zM33 0l207 1470h147l-207 -1470h-147z" />
    <glyph glyph-name="Lcommaaccent" unicode="&#x13b;" horiz-adv-x="1122" 
d="M346 -588q100 92 127 240h-78l35 248h195l-35 -242q-41 -195 -182 -297q-8 3 -31 25t-31 26zM1036 0h-907l203 1456h157l-182 -1311h750z" />
    <glyph glyph-name="lcommaaccent" unicode="&#x13c;" horiz-adv-x="483" 
d="M-6 -588q96 94 123 240h-78l35 248h194l-35 -242q-37 -193 -182 -297q-9 5 -31 27t-26 24zM104 0l207 1470h148l-207 -1470h-148z" />
    <glyph glyph-name="Lcaron" unicode="&#x13d;" horiz-adv-x="1167" 
d="M893 1014q98 92 125 239h-78l35 248h194l-34 -241q-37 -193 -183 -297q-8 3 -30 25t-29 26zM987 0h-907l205 1456h157l-184 -1311h750z" />
    <glyph glyph-name="lcaron" unicode="&#x13e;" horiz-adv-x="589" 
d="M377 981q100 92 127 240h-78l35 247h194l-34 -241q-37 -193 -183 -297q-8 4 -30 26t-31 25zM59 0l207 1470h148l-207 -1470h-148z" />
    <glyph glyph-name="Lslash" unicode="&#x141;" horiz-adv-x="1161" 
d="M1014 0h-899l80 567l-197 -123l18 146l197 121l106 745h156l-90 -641l403 248l-20 -145l-403 -248l-74 -525h751z" />
    <glyph glyph-name="lslash" unicode="&#x142;" horiz-adv-x="561" 
d="M236 0h-150l98 694q-102 -64 -164 -102q6 137 7 139q87 54 177 110l89 629h149l-74 -528q93 58 189 119q-8 -86 -10 -139q-70 -45 -200 -126z" />
    <glyph glyph-name="Nacute" unicode="&#x143;" horiz-adv-x="1462" 
d="M1149 1769l-346 -237l-55 61l319 269zM1151 0h-162l-610 1202l-168 -1202h-156l205 1456h166l606 -1198l170 1198h154z" />
    <glyph glyph-name="Ncommaaccent" unicode="&#x145;" horiz-adv-x="1462" 
d="M485 -588q100 92 127 240h-77l34 248h195l-35 -242q-41 -195 -182 -297q-8 3 -31 25t-31 26zM1225 0h-162l-610 1202l-168 -1202h-156l203 1456h166l608 -1198l168 1198h153z" />
    <glyph glyph-name="ncommaaccent" unicode="&#x146;" horiz-adv-x="1165" 
d="M377 -588q100 92 127 240h-78l35 248h194l-34 -242q-37 -193 -183 -297q-8 3 -30 25t-31 26zM741 938q-168 0 -263 -118t-122 -308l-71 -512h-150l146 1044h88l34 -167q154 199 385 198q174 0 252 -100t52 -283l-97 -692h-151l92 668q20 138 -26 204t-169 66z" />
    <glyph glyph-name="omacron" unicode="&#x14d;" horiz-adv-x="1165" 
d="M918 1126h-539l18 129h539zM497 -29q-230 0 -334 153q-103 154 -69 398t184 399q152 155 378 155t331 -153t71 -398t-182 -399t-379 -155zM516 102q172 0 266 121t119 301q27 180 -35 299t-232 119q-171 0 -265 -120q-93 -120 -115 -268t-5 -237q17 -91 83 -153t184 -62z
" />
    <glyph glyph-name="OE" unicode="&#x152;" horiz-adv-x="2172" 
d="M612 109q213 0 334 130q154 163 201 496q41 225 -30 417q-32 87 -113 140q-82 54 -207 54q-339 1 -471 -391q-35 -103 -52 -226q-45 -224 27 -425q31 -87 114 -141t197 -54zM815 1489q145 1 249 -61t157 -171l26 199h920l-19 -141h-764l-69 -486h696l-18 -143h-697
l-77 -543h782l-21 -143h-938l29 201q-176 -231 -471 -232q-207 0 -330 108q-122 109 -156 273t-5 377q47 330 228 546t478 216z" />
    <glyph glyph-name="oe" unicode="&#x153;" horiz-adv-x="1925" 
d="M1438 952q-144 0 -242 -97t-127 -251h614q20 150 -41 249t-204 99zM524 102q170 0 262 119t119 302t-33 301t-230 118q-169 0 -262 -120t-118 -300q-12 -111 -1 -204q11 -92 79 -154t184 -62zM1303 -29q-268 0 -363 246q-160 -246 -436 -246q-231 0 -332 153
q-100 154 -66 398t180 399t373 154q139 0 234 -64q94 -65 131 -175q162 240 428 239q215 0 313 -144t66 -370q-4 -25 -12 -78h-766q-25 -167 44 -277t220 -110q117 0 197 54t112 149h148q-45 -152 -172 -240t-299 -88z" />
    <glyph glyph-name="Racute" unicode="&#x154;" horiz-adv-x="1308" 
d="M969 1741l-346 -238l-56 62l320 268zM682 748q342 0 385 290q18 135 -57 207q-76 72 -260 72h-353l-80 -569h365zM772 1456q266 0 372 -116t83 -302q-43 -297 -330 -391q35 -106 105 -323t104 -324h-174l-193 612h-440l-86 -612h-156l205 1456h510z" />
    <glyph glyph-name="racute" unicode="&#x155;" horiz-adv-x="735" 
d="M723 1366l-346 -238l-55 62l321 268zM650 1061q75 0 118 -8q-14 -55 -33 -144q-39 8 -88 9q-156 0 -247 -108t-113 -278l-76 -532h-150l148 1044h84l37 -180q61 94 153 146t167 51z" />
    <glyph glyph-name="Rcommaaccent" unicode="&#x156;" horiz-adv-x="1308" 
d="M414 -588q100 92 127 240h-78l35 248h194l-35 -242q-41 -195 -182 -297q-9 3 -31 25t-30 26zM754 748q342 0 385 290q18 135 -58 207t-260 72h-352l-80 -569h365zM842 1456q266 0 374 -116t82 -302q-43 -297 -329 -391q35 -106 105 -323t104 -324h-174q-178 561 -193 612
h-440l-86 -612h-156l203 1456h510z" />
    <glyph glyph-name="rcommaaccent" unicode="&#x157;" horiz-adv-x="735" 
d="M27 -580q100 92 125 240h-78l35 248h194l-33 -242q-41 -195 -184 -297q-8 3 -30 25t-29 26zM748 1061q49 0 92 -8q-20 -94 -33 -144q-35 8 -86 9q-156 0 -247 -108t-116 -278l-73 -532h-150l146 1044h84l36 -180q61 94 153 146t194 51z" />
    <glyph glyph-name="Rcaron" unicode="&#x158;" horiz-adv-x="1423" 
d="M748 748q342 0 385 290q18 135 -58 207t-260 72h-352l-80 -569h365zM836 1456q266 0 374 -116t82 -302q-43 -297 -329 -391q117 -362 206 -647h-174q-14 51 -192 612h-441l-86 -612h-155l205 1456h510zM401 -498q100 92 127 240h-77l34 248h195l-35 -242
q-37 -193 -182 -297q-8 3 -31 25t-31 26z" />
    <glyph glyph-name="rcaron" unicode="&#x159;" horiz-adv-x="735" 
d="M743 1061q51 0 93 -8q-20 -94 -33 -144q-35 8 -86 9q-156 0 -247 -108t-116 -278l-73 -532h-150l148 1044h83l35 -180q61 94 153 146t193 51zM18 -524q98 90 125 239h-77l34 248h195l-33 -242q-41 -195 -184 -296q-8 3 -31 25t-29 26z" />
    <glyph glyph-name="Sacute" unicode="&#x15a;" horiz-adv-x="1337" 
d="M1083 1806l-346 -237l-55 61l322 268zM544 106q178 0 281 79q104 79 123 212q10 78 -9 127t-77 77t-132 44q-74 17 -146 27t-82 12q-195 31 -289 125q-93 94 -67 278t192 293t391 109t346 -120t117 -294h-158q-12 272 -334 273q-164 0 -270 -68t-125 -195q-10 -73 3 -119
t81 -75t107 -38t136 -25t132 -21q402 -68 351 -427q-25 -184 -189 -298t-406 -113q-242 0 -380 114t-128 333h160q2 -154 98 -232t274 -78z" />
    <glyph glyph-name="sacute" unicode="&#x15b;" horiz-adv-x="1001" 
d="M877 1389l-347 -238l-55 61l320 269zM582 1075q176 0 270 -87t86 -224l-139 -2q-4 188 -240 188q-127 0 -198 -47t-83 -130t42 -111q52 -28 260 -66q180 -28 258 -102t58 -214t-146 -224t-316 -85q-190 0 -303 88q-112 88 -98 252h147q-4 -213 271 -215q129 0 205 48
t86 130t-38 126t-148 58t-154 25q-145 27 -212 86q-76 71 -59 207q19 135 147 217t304 82z" />
    <glyph glyph-name="Scaron" unicode="&#x160;" horiz-adv-x="1298" 
d="M1124 1862l-311 -312h-121q-38 52 -112 156t-113 156h139q126 -181 160 -228q72 76 219 228h139zM546 106q178 0 281 79q104 79 123 212q10 78 -3 126t-88 80t-120 41q-45 10 -134 24t-99 16q-197 31 -290 125q-94 94 -68 278t192 293t391 109t346 -120t117 -294h-158
q-12 272 -334 273q-164 0 -270 -68t-125 -195q-10 -73 4 -119t81 -75t108 -38t136 -25t130 -21q404 -68 352 -428q-28 -185 -190 -297t-404 -113q-242 0 -381 114t-129 333h160q2 -154 98 -232t274 -78z" />
    <glyph glyph-name="scaron" unicode="&#x161;" horiz-adv-x="1058" 
d="M971 1456q-198 -190 -314 -311h-120q-129 178 -224 311h140q25 -37 157 -227q106 115 221 227h140zM582 1075q176 0 272 -87q94 -87 86 -224l-139 -2q-6 188 -240 188q-127 0 -197 -47t-83 -130q-12 -83 40 -111t259 -66q182 -28 260 -102t58 -214t-146 -224t-316 -85
q-190 0 -303 88q-112 88 -98 252h147q-4 -213 271 -215q129 0 205 48t86 130t-38 126t-148 58t-154 25q-143 27 -213 86q-79 72 -59 207q18 135 146 217t304 82z" />
    <glyph glyph-name="Tcaron" unicode="&#x164;" horiz-adv-x="1218" 
d="M1036 1827l-311 -311h-121q-164 223 -225 311h139l160 -228q72 76 219 228h139zM1188 1313h-471l-185 -1313h-157l184 1313h-473l20 143h1102z" />
    <glyph glyph-name="tcaron" unicode="&#x165;" horiz-adv-x="712" 
d="M500 1204q98 90 125 240h-78l35 248h194l-33 -242q-41 -193 -184 -297q-9 3 -31 25t-28 26zM420 115q80 0 158 18l-3 -123q-115 -29 -194 -28q-154 0 -204 88t-27 247l83 603h-182l19 124h182l33 232l161 76l-43 -308h295l-18 -124h-295l-88 -625q-25 -180 123 -180z" />
    <glyph glyph-name="Umacron" unicode="&#x16a;" horiz-adv-x="1402" 
d="M1071 1526h-539l17 129h538zM583 -31q-263 0 -380 152t-76 440l127 895h158l-127 -899q-63 -446 317 -446t442 446l127 899h158l-127 -897q-40 -287 -198 -439t-421 -151z" />
    <glyph glyph-name="umacron" unicode="&#x16b;" horiz-adv-x="1157" 
d="M907 1135h-538l18 129h539zM465 106q127 0 237 105q63 61 93 135q29 74 47 201l69 500h150l-148 -1047h-94q-4 29 -13 85t-13 85q-154 -199 -381 -199q-350 0 -299 381l98 695h151l-94 -668q-20 -141 25 -207t172 -66z" />
    <glyph glyph-name="Uring" unicode="&#x16e;" horiz-adv-x="1402" 
d="M713 1638q27 -32 79 -32t89 34t45 87q8 55 -20 89t-80 34t-88 -34t-44 -90t19 -88zM778 1516q-90 0 -144 57t-40 154t82 155t162 57t147 -59t39 -154t-85 -153t-161 -57zM562 -31q-263 0 -379 152t-74 440l124 895h158l-127 -899q-63 -446 320 -446q377 0 440 446
l127 899h158l-127 -897q-41 -287 -199 -439t-421 -151z" />
    <glyph glyph-name="uring" unicode="&#x16f;" horiz-adv-x="1157" 
d="M680 1491q-53 0 -89 -34t-44 -88q-9 -54 19 -88t80 -34t88 33t44 88t-18 89q-27 34 -80 34zM633 1157q-90 0 -145 57q-54 56 -40 154t82 156q68 57 162 57t148 -58q53 -59 39 -155t-85 -154t-161 -57zM442 106q127 0 238 105q63 61 92 135t47 201l70 500h149l-147 -1047
h-94q-4 29 -14 85q-9 56 -13 85q-154 -199 -381 -199q-350 0 -299 381l98 695h152l-94 -668q-20 -141 24 -207t172 -66z" />
    <glyph glyph-name="Uhungarumlaut" unicode="&#x170;" horiz-adv-x="1402" 
d="M985 1554l-86 37q236 205 328 287q20 -8 63 -28t66 -29q-336 -242 -371 -267zM498 1591q186 165 323 287q78 -39 123 -57q-331 -242 -364 -267zM566 -31q-263 0 -379 152t-74 440l125 895h157l-127 -899q-59 -446 321 -446t439 446l127 899h158l-127 -897
q-41 -287 -199 -439t-421 -151z" />
    <glyph glyph-name="uhungarumlaut" unicode="&#x171;" horiz-adv-x="1157" 
d="M713 1221l325 286q33 -14 129 -57q-335 -241 -370 -266l-42 18q-28 12 -42 19zM311 1221q310 275 322 286q37 -16 123 -57q-332 -241 -365 -266zM447 106q128 0 237 105q63 61 92 135t47 201l72 500h149l-147 -1047h-94q-10 76 -29 170q-152 -199 -379 -199
q-176 1 -251 99t-48 282l99 695h151l-94 -668q-20 -141 24 -207t171 -66z" />
    <glyph glyph-name="Uogonek" unicode="&#x172;" horiz-adv-x="1402" 
d="M642 111q380 0 439 446l127 899h158l-125 -897q-41 -287 -200 -438q-133 -127 -340 -148q-109 -196 53 -254q-20 -20 -80 -90q-180 51 -156 219q7 57 50 123q-223 14 -333 158t-69 432l125 895h158l-127 -899q-60 -446 320 -446z" />
    <glyph glyph-name="uogonek" unicode="&#x173;" horiz-adv-x="1157" 
d="M451 -29q-176 1 -251 99t-48 282l98 695h151l-94 -668q-20 -141 24 -207t172 -66t236 105q66 61 95 136t45 200l71 500h150l-148 -1047q-41 -66 -49 -115q-17 -112 94 -151q-29 -33 -82 -90q-176 51 -155 219q12 63 61 137h37q-9 67 -27 170q-154 -199 -380 -199z" />
    <glyph glyph-name="Ydieresis" unicode="&#x178;" horiz-adv-x="1159" 
d="M606 1493h-160l25 176h160zM977 1493h-162l25 176h161zM1268 1456l-623 -858l-84 -598h-158l84 598l-387 858h176l312 -713l516 713h164z" />
    <glyph glyph-name="Zacute" unicode="&#x179;" horiz-adv-x="1306" 
d="M956 1743l-346 -238l-55 62l319 268zM1028 0h-1075l18 141l1039 1174h-860l18 141h1046l-18 -141l-1040 -1172h891z" />
    <glyph glyph-name="zacute" unicode="&#x17a;" horiz-adv-x="1067" 
d="M854 1356l-346 -238l-55 62l319 268zM811 0h-825l16 133l743 785h-624l18 126h801l-18 -131l-742 -786h649z" />
    <glyph glyph-name="Zdotaccent" unicode="&#x17b;" horiz-adv-x="1232" 
d="M793 1507h-172l26 185h172zM1036 0h-1075l21 141l1038 1174h-860l18 141h1047l-19 -141l-1040 -1172h891z" />
    <glyph glyph-name="zdotaccent" unicode="&#x17c;" horiz-adv-x="964" 
d="M657 1114h-172l27 184h172zM821 0h-825l16 133l744 785h-625l19 126h800l-18 -131l-742 -786h650z" />
    <glyph glyph-name="Zcaron" unicode="&#x17d;" horiz-adv-x="1232" 
d="M731 1587q53 53 221 228h140q-102 -102 -314 -312h-121q-94 133 -223 312h139q51 -76 158 -228zM1028 0h-1075l20 141l1037 1174h-860l20 141h1047l-21 -141l-1038 -1172h891z" />
    <glyph glyph-name="zcaron" unicode="&#x17e;" horiz-adv-x="980" 
d="M934 1421l-311 -311h-121q-39 54 -113 156t-113 155h140l159 -227q72 76 220 227h139zM813 0h-825l16 133l744 785h-625l16 126h801l-18 -131l-742 -786h649z" />
    <glyph glyph-name="florin" unicode="&#x192;" horiz-adv-x="1146" 
d="M14 -303h-8q-72 -1 -135 24q23 74 35 127q53 -18 128 -18t123 41q47 41 71 111t148 430t142 413h-194q16 52 30 131h209q100 332 198 419t243 85q63 0 149 -24q-31 -102 -39 -127q-59 23 -119 22q-113 1 -159 -67t-111 -269q-8 -25 -12 -39h284q-2 -10 -30 -131h-301
q-43 -131 -128 -377t-122 -356q-72 -213 -158 -304t-244 -91z" />
    <glyph glyph-name="circumflex" unicode="&#x2c6;" horiz-adv-x="763" 
d="M684 1198h-143l-152 217l-209 -217h-147l309 309h121z" />
    <glyph glyph-name="caron" unicode="&#x2c7;" horiz-adv-x="759" 
d="M727 1698l-311 -312h-121q-37 54 -113 156t-112 156h139q23 -33 49 -71t60 -85q32 -47 51 -72q72 76 219 228h139z" />
    <glyph glyph-name="breve" unicode="&#x2d8;" horiz-adv-x="765" 
d="M360 1188q-132 0 -198 80t-49 215h118q-8 -90 31 -137q39 -48 115 -48t128 48t73 137h118q-24 -135 -114 -215t-222 -80z" />
    <glyph glyph-name="dotaccent" unicode="&#x2d9;" horiz-adv-x="675" 
d="M410 1274h-172l26 184h172z" />
    <glyph glyph-name="ring" unicode="&#x2da;" horiz-adv-x="628" 
d="M331 1522q-52 0 -88 -34t-44 -88q-7 -54 19 -88t78 -34t89 34t45 88t-19 88q-28 34 -80 34zM282 1188q-90 0 -143 57t-39 155t81 154q67 58 161 58t147 -58t40 -154t-85 -154t-162 -58z" />
    <glyph glyph-name="ogonek" unicode="&#x2db;" horiz-adv-x="579" 
d="M414 -317l-80 -91q-180 51 -156 220q8 59 62 137h131q-45 -70 -49 -115q-17 -110 92 -151z" />
    <glyph glyph-name="tilde" unicode="&#x2dc;" horiz-adv-x="770" 
d="M508 1243q-63 0 -141 48t-119 48q-74 0 -117 -77l-84 32q66 164 217 164q63 0 140 -49t118 -49q76 0 115 80l86 -35q-66 -162 -215 -162z" />
    <glyph glyph-name="hungarumlaut" unicode="&#x2dd;" horiz-adv-x="880" 
d="M879 1450l-373 -266l-42 18q-28 12 -42 19q236 205 328 286q96 -43 129 -57zM467 1450q-52 -37 -367 -266l-80 37l324 286q86 -41 123 -57z" />
    <glyph glyph-name="pi" unicode="&#x3c0;" horiz-adv-x="1689" 
d="M924 991h-176l-41 -286h176q82 -1 135 37t62 107q10 69 -32 105t-124 37zM946 1106q138 0 210 -68t56 -189q-16 -120 -111 -189t-233 -68h-178l-39 -283h-131l113 797h313zM749 72q273 0 479 182t246 456q40 273 -116 455q-156 183 -429 183t-479 -182t-245 -457
q-39 -273 116 -455t428 -182zM944 1442q312 0 494 -209t138 -522t-286 -525t-556 -211q-314 0 -495 210q-181 209 -137 523t286 524q243 210 556 210z" />
    <glyph glyph-name="endash" unicode="&#x2013;" horiz-adv-x="1150" 
d="M1069 537h-1006l21 145h1006z" />
    <glyph glyph-name="emdash" unicode="&#x2014;" horiz-adv-x="2160" 
d="M2077 537h-2014l19 143h2013z" />
    <glyph glyph-name="quoteleft" unicode="&#x2018;" horiz-adv-x="454" 
d="M375 1499q-102 -90 -129 -239h78l-35 -248h-193l35 241q37 190 180 297q10 -4 34 -26t30 -25z" />
    <glyph glyph-name="quoteright" unicode="&#x2019;" horiz-adv-x="434" 
d="M104 1014q96 86 127 239h-77l34 248h193l-35 -241q-37 -190 -180 -297q-8 3 -32 25t-30 26z" />
    <glyph glyph-name="quotesinglbase" unicode="&#x201a;" horiz-adv-x="483" 
d="M84 -240q98 88 129 240h-78l35 248h192l-34 -242q-37 -193 -183 -297q-9 3 -31 25t-30 26z" />
    <glyph glyph-name="quotedblleft" unicode="&#x201c;" horiz-adv-x="776" 
d="M694 1499q-102 -90 -129 -239h78l-35 -248h-192l35 241q35 190 180 297q9 -4 33 -26t30 -25zM369 1499q-102 -90 -129 -239h77l-34 -248h-193l35 241q35 190 180 297q8 -4 32 -26t32 -25z" />
    <glyph glyph-name="quotedblright" unicode="&#x201d;" horiz-adv-x="763" 
d="M98 1040q96 86 127 240h-78l35 248h193l-35 -242q-37 -190 -180 -297q-8 3 -32 25t-30 26zM424 1040q100 88 127 240h-78l35 248h192l-34 -242q-35 -190 -181 -297q-7 3 -31 25t-30 26z" />
    <glyph glyph-name="quotedblbase" unicode="&#x201e;" horiz-adv-x="872" 
d="M426 -240q100 92 127 240h-78l35 248h195l-35 -242q-37 -193 -183 -297q-9 3 -31 25t-30 26zM78 -240q98 88 129 240h-78l35 248h192l-34 -242q-37 -190 -181 -297q-9 3 -33 25t-30 26z" />
    <glyph glyph-name="dagger" unicode="&#x2020;" horiz-adv-x="876" 
d="M809 993h-279l-90 -637h-151l88 631h-283l21 137h274l41 295h154l-41 -289h284z" />
    <glyph glyph-name="daggerdbl" unicode="&#x2021;" horiz-adv-x="1054" 
d="M918 201h-375l-60 -418h-145l59 418h-377l19 129h377l82 592h-379l18 129h379l57 405h146l-57 -405h374l-18 -129h-375l-82 -592h375z" />
    <glyph glyph-name="bullet" unicode="&#x2022;" horiz-adv-x="800" 
d="M438 934q110 0 176 -74q64 -74 49 -188q-15 -113 -101 -189q-86 -75 -198 -75q-110 0 -177 76t-51 187t104 187t198 76z" />
    <glyph glyph-name="ellipsis" unicode="&#x2026;" horiz-adv-x="1773" 
d="M342 0h-197l31 219h197zM969 0h-197l31 219h196zM1597 0h-198l31 219h198z" />
    <glyph glyph-name="perthousand" unicode="&#x2030;" horiz-adv-x="2514" 
d="M1507 1444l-1114 -1458l-143 2q160 211 1110 1456h147zM2009 84q199 0 238 288t-158 287q-201 1 -240 -287t160 -288zM1992 -31q-159 0 -231 108t-45 295t130 296q103 108 260 108t228 -108t44 -296q-27 -187 -127 -295t-259 -108zM439 770q200 0 239 287t-160 286
q-201 -1 -240 -287t161 -286zM422 651q-156 0 -228 110t-47 296q27 186 131 296q104 109 259 109t227 -108t45 -296q-27 -187 -129 -297t-258 -110zM1233 84q203 0 242 288t-160 287q-201 1 -240 -287t158 -288zM1219 -31q-160 0 -232 108t-45 294t131 296q104 109 260 109
t228 -108t45 -295q-27 -188 -127 -296t-260 -108z" />
    <glyph glyph-name="guilsinglleft" unicode="&#x2039;" horiz-adv-x="626" 
d="M82 561l360 438q46 -31 70 -49t41 -30q-205 -244 -301 -361q12 -23 201 -364q-90 -53 -136 -78q-37 70 -235 444z" />
    <glyph glyph-name="guilsinglright" unicode="&#x203a;" horiz-adv-x="626" 
d="M137 922l133 77l238 -438l-363 -444l-110 78l303 366z" />
    <glyph glyph-name="fraction" unicode="&#x2044;" horiz-adv-x="677" 
d="M913 1389l-1085 -1426l-82 51l1090 1424z" />
    <glyph glyph-name="Euro" unicode="&#x20ac;" horiz-adv-x="1220" 
d="M870 1450q148 0 236 -60t135 -184q-74 -45 -108 -69q-80 178 -283 178q-164 -1 -278 -107t-166 -290h544q-40 -89 -53 -111h-520l-19 -98q-4 -33 -8 -99h471q-29 -57 -53 -112h-424q2 -178 86 -286t244 -108q120 0 200 48t144 147q6 -2 26 -15q20 -12 43 -26t25 -16
q-154 -270 -457 -271q-227 1 -346 143t-119 384h-161q15 66 30 112h136q6 96 26 197h-149l30 111h148q70 240 235 386q166 146 385 146z" />
    <glyph glyph-name="trademark" unicode="&#x2122;" horiz-adv-x="1779" 
d="M709 1348h-254l-99 -707h-120l98 707h-252l16 110h627zM1567 641h-115l90 653l-338 -643h-94l-156 643l-90 -653h-112l114 817h162l154 -647l338 647h161z" />
    <glyph glyph-name="Omega" unicode="&#x2126;" horiz-adv-x="1261" 
d="M109 188v1080h1079v-1080h-1079zM440 763q0 30 -8 30q-16 -1 -16 -5t5 -4t5 -44t-33 -73q-10 -11 -14 -12q-4 0 -4 13l-4 116q2 2 2 6t-4 5l-17 -11q4 -45 4 -52t-22 -39q-22 -31 -26 -31q-3 0 -3 47t-6 77q-2 10 -16 11q-57 0 -88 -25q-31 -26 -31 -62t33 -36
q16 0 25 10t9 24t-10 13q-10 0 -10 -8l6 -15q1 -18 -21 -18t-22 36t34 54t66 18q10 0 11 -26l6 -119q0 -4 4 -4q25 0 61 76l4 -72q0 -4 11 -4q35 16 52 55t17 69zM471 723h2q18 0 19 -33v-2q0 -45 -25 -45q-18 0 -18 25v4q-1 51 22 51zM481 731q-21 0 -35 -18
q-14 -19 -14 -35t1 -22t9 -12q8 -7 21 -7q45 0 45 59q0 35 -27 35zM522 709q0 8 10 8t11 -25l-8 -51l4 -4q14 0 14 8v2q0 66 16 66h2l9 -4l8 8q0 14 -15 14l-10 -10q0 -1 -8 -21q-7 31 -14 31t-17 -8t-10 -16l4 -9l4 4v7zM641 700v-12q0 -8 -7 -24t-22 -17q-14 0 -14 24
t8 31q9 21 22 21t13 -23zM641 659v-8q0 -16 10 -16q11 0 19 8t10 16l-4 5q-4 -1 -4 -9t-8 -8q-8 -1 -8 7t6 71v6q10 50 10 57t-20 7q-20 -1 -19 -7q0 -6 4 -5t10 1t6 -6q0 -59 -8 -59l-2 2q-1 8 -19 8q-18 1 -30 -23t-12 -46t22 -23q16 0 26 11t11 11zM716 721l21 -8
q6 0 6 8t-14 8h-2q-33 0 -33 -24q0 -14 18 -26q18 -11 19 -14q2 -3 2 -13t-16 -9q-16 0 -17 8v2q0 8 -8 9q-6 0 -6 -7q0 -18 30 -18t29 27q0 12 -15 23t-19 15t-4 12t9 7zM822 631q16 0 22 18l2 4q0 4 -4 4q-4 -2 -4 -6q-4 -10 -10 -10t-7 4q0 4 5 21t5 41q0 25 -24 24
q-12 0 -19 -9q-6 -9 -6 -11l-4 -4h-2l12 84q0 4 -20 4t-18 -9q0 -2 6 -2h8q6 0 6 -8l-6 -53v-2q-4 -41 -8 -59l-4 -21q0 -2 9 -2t9 4v16q13 60 33 60q14 0 14 -10v-4l-12 -64q1 -10 17 -10zM881 647q-13 0 -13 30t27 46q14 0 14 -38t-28 -38zM925 645q-5 1 -5 19t6 36t6 21
l2 2v2q0 2 -6 2h-2q-8 0 -10 -5t-3 -5q-8 12 -20 12t-35 -33q-6 -18 -6 -32q0 -27 22 -27q11 0 31 20q2 0 2 -4v-8q-1 -8 9 -8t19 6t9 12t-4 7q-10 -17 -15 -17zM977 717q0 4 10 4q25 0 25 -39t-25 -39q-16 0 -16 14v5l6 47v8zM973 764v-2q-6 0 -6 -6l-2 -19v-6
q0 -8 -15 -15q-14 -6 -14 -14t4 -8l16 15q0 4 5 4l2 -2l-11 -76q0 -23 -8 -23h-8q-2 0 -2 -2q0 -10 24 -10t22 4q-1 4 -3 4h-6q-6 0 -6 16t4 17q12 -4 23 -4q12 0 24 14t12 39q0 39 -33 39q-8 -2 -14 -2l-2 2l4 31l-4 4h-6zM1065 719h2q12 -1 12 -21t-18 -20q-10 0 -10 10
t5 21q5 10 9 10zM1055 672h2q17 0 27 15t10 24q0 18 -18 18t-29 -20q-13 -20 -13 -44t15 -24q8 -4 18 -4t22 6t13 14q0 4 -4 5q-4 0 -4 -5q-8 -14 -23 -14q-20 0 -20 25q0 4 4 4z" />
    <glyph glyph-name="partialdiff" unicode="&#x2202;" horiz-adv-x="1261" 
d="M109 188v1080h1079v-1080h-1079zM440 763q0 30 -8 30q-16 -1 -16 -5t5 -4t5 -44t-33 -73q-10 -11 -14 -12q-4 0 -4 13l-4 116q2 2 2 6t-4 5l-17 -11q4 -45 4 -52t-22 -39q-22 -31 -26 -31q-3 0 -3 47t-6 77q-2 10 -16 11q-57 0 -88 -25q-31 -26 -31 -62t33 -36
q16 0 25 10t9 24t-10 13q-10 0 -10 -8l6 -15q1 -18 -21 -18t-22 36t34 54t66 18q10 0 11 -26l6 -119q0 -4 4 -4q25 0 61 76l4 -72q0 -4 11 -4q35 16 52 55t17 69zM471 723h2q18 0 19 -33v-2q0 -45 -25 -45q-18 0 -18 25v4q-1 51 22 51zM481 731q-21 0 -35 -18
q-14 -19 -14 -35t1 -22t9 -12q8 -7 21 -7q45 0 45 59q0 35 -27 35zM522 709q0 8 10 8t11 -25l-8 -51l4 -4q14 0 14 8v2q0 66 16 66h2l9 -4l8 8q0 14 -15 14l-10 -10q0 -1 -8 -21q-7 31 -14 31t-17 -8t-10 -16l4 -9l4 4v7zM641 700v-12q0 -8 -7 -24t-22 -17q-14 0 -14 24
t8 31q9 21 22 21t13 -23zM641 659v-8q0 -16 10 -16q11 0 19 8t10 16l-4 5q-4 -1 -4 -9t-8 -8q-8 -1 -8 7t6 71v6q10 50 10 57t-20 7q-20 -1 -19 -7q0 -6 4 -5t10 1t6 -6q0 -59 -8 -59l-2 2q-1 8 -19 8q-18 1 -30 -23t-12 -46t22 -23q16 0 26 11t11 11zM716 721l21 -8
q6 0 6 8t-14 8h-2q-33 0 -33 -24q0 -14 18 -26q18 -11 19 -14q2 -3 2 -13t-16 -9q-16 0 -17 8v2q0 8 -8 9q-6 0 -6 -7q0 -18 30 -18t29 27q0 12 -15 23t-19 15t-4 12t9 7zM822 631q16 0 22 18l2 4q0 4 -4 4q-4 -2 -4 -6q-4 -10 -10 -10t-7 4q0 4 5 21t5 41q0 25 -24 24
q-12 0 -19 -9q-6 -9 -6 -11l-4 -4h-2l12 84q0 4 -20 4t-18 -9q0 -2 6 -2h8q6 0 6 -8l-6 -53v-2q-4 -41 -8 -59l-4 -21q0 -2 9 -2t9 4v16q13 60 33 60q14 0 14 -10v-4l-12 -64q1 -10 17 -10zM881 647q-13 0 -13 30t27 46q14 0 14 -38t-28 -38zM925 645q-5 1 -5 19t6 36t6 21
l2 2v2q0 2 -6 2h-2q-8 0 -10 -5t-3 -5q-8 12 -20 12t-35 -33q-6 -18 -6 -32q0 -27 22 -27q11 0 31 20q2 0 2 -4v-8q-1 -8 9 -8t19 6t9 12t-4 7q-10 -17 -15 -17zM977 717q0 4 10 4q25 0 25 -39t-25 -39q-16 0 -16 14v5l6 47v8zM973 764v-2q-6 0 -6 -6l-2 -19v-6
q0 -8 -15 -15q-14 -6 -14 -14t4 -8l16 15q0 4 5 4l2 -2l-11 -76q0 -23 -8 -23h-8q-2 0 -2 -2q0 -10 24 -10t22 4q-1 4 -3 4h-6q-6 0 -6 16t4 17q12 -4 23 -4q12 0 24 14t12 39q0 39 -33 39q-8 -2 -14 -2l-2 2l4 31l-4 4h-6zM1065 719h2q12 -1 12 -21t-18 -20q-10 0 -10 10
t5 21q5 10 9 10zM1055 672h2q17 0 27 15t10 24q0 18 -18 18t-29 -20q-13 -20 -13 -44t15 -24q8 -4 18 -4t22 6t13 14q0 4 -4 5q-4 0 -4 -5q-8 -14 -23 -14q-20 0 -20 25q0 4 4 4z" />
    <glyph glyph-name="Delta" unicode="&#x2206;" horiz-adv-x="1261" 
d="M109 188v1080h1079v-1080h-1079zM440 763q0 30 -8 30q-16 -1 -16 -5t5 -4t5 -44t-33 -73q-10 -11 -14 -12q-4 0 -4 13l-4 116q2 2 2 6t-4 5l-17 -11q4 -45 4 -52t-22 -39q-22 -31 -26 -31q-3 0 -3 47t-6 77q-2 10 -16 11q-57 0 -88 -25q-31 -26 -31 -62t33 -36
q16 0 25 10t9 24t-10 13q-10 0 -10 -8l6 -15q1 -18 -21 -18t-22 36t34 54t66 18q10 0 11 -26l6 -119q0 -4 4 -4q25 0 61 76l4 -72q0 -4 11 -4q35 16 52 55t17 69zM471 723h2q18 0 19 -33v-2q0 -45 -25 -45q-18 0 -18 25v4q-1 51 22 51zM481 731q-21 0 -35 -18
q-14 -19 -14 -35t1 -22t9 -12q8 -7 21 -7q45 0 45 59q0 35 -27 35zM522 709q0 8 10 8t11 -25l-8 -51l4 -4q14 0 14 8v2q0 66 16 66h2l9 -4l8 8q0 14 -15 14l-10 -10q0 -1 -8 -21q-7 31 -14 31t-17 -8t-10 -16l4 -9l4 4v7zM641 700v-12q0 -8 -7 -24t-22 -17q-14 0 -14 24
t8 31q9 21 22 21t13 -23zM641 659v-8q0 -16 10 -16q11 0 19 8t10 16l-4 5q-4 -1 -4 -9t-8 -8q-8 -1 -8 7t6 71v6q10 50 10 57t-20 7q-20 -1 -19 -7q0 -6 4 -5t10 1t6 -6q0 -59 -8 -59l-2 2q-1 8 -19 8q-18 1 -30 -23t-12 -46t22 -23q16 0 26 11t11 11zM716 721l21 -8
q6 0 6 8t-14 8h-2q-33 0 -33 -24q0 -14 18 -26q18 -11 19 -14q2 -3 2 -13t-16 -9q-16 0 -17 8v2q0 8 -8 9q-6 0 -6 -7q0 -18 30 -18t29 27q0 12 -15 23t-19 15t-4 12t9 7zM822 631q16 0 22 18l2 4q0 4 -4 4q-4 -2 -4 -6q-4 -10 -10 -10t-7 4q0 4 5 21t5 41q0 25 -24 24
q-12 0 -19 -9q-6 -9 -6 -11l-4 -4h-2l12 84q0 4 -20 4t-18 -9q0 -2 6 -2h8q6 0 6 -8l-6 -53v-2q-4 -41 -8 -59l-4 -21q0 -2 9 -2t9 4v16q13 60 33 60q14 0 14 -10v-4l-12 -64q1 -10 17 -10zM881 647q-13 0 -13 30t27 46q14 0 14 -38t-28 -38zM925 645q-5 1 -5 19t6 36t6 21
l2 2v2q0 2 -6 2h-2q-8 0 -10 -5t-3 -5q-8 12 -20 12t-35 -33q-6 -18 -6 -32q0 -27 22 -27q11 0 31 20q2 0 2 -4v-8q-1 -8 9 -8t19 6t9 12t-4 7q-10 -17 -15 -17zM977 717q0 4 10 4q25 0 25 -39t-25 -39q-16 0 -16 14v5l6 47v8zM973 764v-2q-6 0 -6 -6l-2 -19v-6
q0 -8 -15 -15q-14 -6 -14 -14t4 -8l16 15q0 4 5 4l2 -2l-11 -76q0 -23 -8 -23h-8q-2 0 -2 -2q0 -10 24 -10t22 4q-1 4 -3 4h-6q-6 0 -6 16t4 17q12 -4 23 -4q12 0 24 14t12 39q0 39 -33 39q-8 -2 -14 -2l-2 2l4 31l-4 4h-6zM1065 719h2q12 -1 12 -21t-18 -20q-10 0 -10 10
t5 21q5 10 9 10zM1055 672h2q17 0 27 15t10 24q0 18 -18 18t-29 -20q-13 -20 -13 -44t15 -24q8 -4 18 -4t22 6t13 14q0 4 -4 5q-4 0 -4 -5q-8 -14 -23 -14q-20 0 -20 25q0 4 4 4z" />
    <glyph glyph-name="product" unicode="&#x220f;" horiz-adv-x="1261" 
d="M109 188v1080h1079v-1080h-1079zM440 763q0 30 -8 30q-16 -1 -16 -5t5 -4t5 -44t-33 -73q-10 -11 -14 -12q-4 0 -4 13l-4 116q2 2 2 6t-4 5l-17 -11q4 -45 4 -52t-22 -39q-22 -31 -26 -31q-3 0 -3 47t-6 77q-2 10 -16 11q-57 0 -88 -25q-31 -26 -31 -62t33 -36
q16 0 25 10t9 24t-10 13q-10 0 -10 -8l6 -15q1 -18 -21 -18t-22 36t34 54t66 18q10 0 11 -26l6 -119q0 -4 4 -4q25 0 61 76l4 -72q0 -4 11 -4q35 16 52 55t17 69zM471 723h2q18 0 19 -33v-2q0 -45 -25 -45q-18 0 -18 25v4q-1 51 22 51zM481 731q-21 0 -35 -18
q-14 -19 -14 -35t1 -22t9 -12q8 -7 21 -7q45 0 45 59q0 35 -27 35zM522 709q0 8 10 8t11 -25l-8 -51l4 -4q14 0 14 8v2q0 66 16 66h2l9 -4l8 8q0 14 -15 14l-10 -10q0 -1 -8 -21q-7 31 -14 31t-17 -8t-10 -16l4 -9l4 4v7zM641 700v-12q0 -8 -7 -24t-22 -17q-14 0 -14 24
t8 31q9 21 22 21t13 -23zM641 659v-8q0 -16 10 -16q11 0 19 8t10 16l-4 5q-4 -1 -4 -9t-8 -8q-8 -1 -8 7t6 71v6q10 50 10 57t-20 7q-20 -1 -19 -7q0 -6 4 -5t10 1t6 -6q0 -59 -8 -59l-2 2q-1 8 -19 8q-18 1 -30 -23t-12 -46t22 -23q16 0 26 11t11 11zM716 721l21 -8
q6 0 6 8t-14 8h-2q-33 0 -33 -24q0 -14 18 -26q18 -11 19 -14q2 -3 2 -13t-16 -9q-16 0 -17 8v2q0 8 -8 9q-6 0 -6 -7q0 -18 30 -18t29 27q0 12 -15 23t-19 15t-4 12t9 7zM822 631q16 0 22 18l2 4q0 4 -4 4q-4 -2 -4 -6q-4 -10 -10 -10t-7 4q0 4 5 21t5 41q0 25 -24 24
q-12 0 -19 -9q-6 -9 -6 -11l-4 -4h-2l12 84q0 4 -20 4t-18 -9q0 -2 6 -2h8q6 0 6 -8l-6 -53v-2q-4 -41 -8 -59l-4 -21q0 -2 9 -2t9 4v16q13 60 33 60q14 0 14 -10v-4l-12 -64q1 -10 17 -10zM881 647q-13 0 -13 30t27 46q14 0 14 -38t-28 -38zM925 645q-5 1 -5 19t6 36t6 21
l2 2v2q0 2 -6 2h-2q-8 0 -10 -5t-3 -5q-8 12 -20 12t-35 -33q-6 -18 -6 -32q0 -27 22 -27q11 0 31 20q2 0 2 -4v-8q-1 -8 9 -8t19 6t9 12t-4 7q-10 -17 -15 -17zM977 717q0 4 10 4q25 0 25 -39t-25 -39q-16 0 -16 14v5l6 47v8zM973 764v-2q-6 0 -6 -6l-2 -19v-6
q0 -8 -15 -15q-14 -6 -14 -14t4 -8l16 15q0 4 5 4l2 -2l-11 -76q0 -23 -8 -23h-8q-2 0 -2 -2q0 -10 24 -10t22 4q-1 4 -3 4h-6q-6 0 -6 16t4 17q12 -4 23 -4q12 0 24 14t12 39q0 39 -33 39q-8 -2 -14 -2l-2 2l4 31l-4 4h-6zM1065 719h2q12 -1 12 -21t-18 -20q-10 0 -10 10
t5 21q5 10 9 10zM1055 672h2q17 0 27 15t10 24q0 18 -18 18t-29 -20q-13 -20 -13 -44t15 -24q8 -4 18 -4t22 6t13 14q0 4 -4 5q-4 0 -4 -5q-8 -14 -23 -14q-20 0 -20 25q0 4 4 4z" />
    <glyph glyph-name="summation" unicode="&#x2211;" horiz-adv-x="1261" 
d="M109 188v1080h1079v-1080h-1079zM440 763q0 30 -8 30q-16 -1 -16 -5t5 -4t5 -44t-33 -73q-10 -11 -14 -12q-4 0 -4 13l-4 116q2 2 2 6t-4 5l-17 -11q4 -45 4 -52t-22 -39q-22 -31 -26 -31q-3 0 -3 47t-6 77q-2 10 -16 11q-57 0 -88 -25q-31 -26 -31 -62t33 -36
q16 0 25 10t9 24t-10 13q-10 0 -10 -8l6 -15q1 -18 -21 -18t-22 36t34 54t66 18q10 0 11 -26l6 -119q0 -4 4 -4q25 0 61 76l4 -72q0 -4 11 -4q35 16 52 55t17 69zM471 723h2q18 0 19 -33v-2q0 -45 -25 -45q-18 0 -18 25v4q-1 51 22 51zM481 731q-21 0 -35 -18
q-14 -19 -14 -35t1 -22t9 -12q8 -7 21 -7q45 0 45 59q0 35 -27 35zM522 709q0 8 10 8t11 -25l-8 -51l4 -4q14 0 14 8v2q0 66 16 66h2l9 -4l8 8q0 14 -15 14l-10 -10q0 -1 -8 -21q-7 31 -14 31t-17 -8t-10 -16l4 -9l4 4v7zM641 700v-12q0 -8 -7 -24t-22 -17q-14 0 -14 24
t8 31q9 21 22 21t13 -23zM641 659v-8q0 -16 10 -16q11 0 19 8t10 16l-4 5q-4 -1 -4 -9t-8 -8q-8 -1 -8 7t6 71v6q10 50 10 57t-20 7q-20 -1 -19 -7q0 -6 4 -5t10 1t6 -6q0 -59 -8 -59l-2 2q-1 8 -19 8q-18 1 -30 -23t-12 -46t22 -23q16 0 26 11t11 11zM716 721l21 -8
q6 0 6 8t-14 8h-2q-33 0 -33 -24q0 -14 18 -26q18 -11 19 -14q2 -3 2 -13t-16 -9q-16 0 -17 8v2q0 8 -8 9q-6 0 -6 -7q0 -18 30 -18t29 27q0 12 -15 23t-19 15t-4 12t9 7zM822 631q16 0 22 18l2 4q0 4 -4 4q-4 -2 -4 -6q-4 -10 -10 -10t-7 4q0 4 5 21t5 41q0 25 -24 24
q-12 0 -19 -9q-6 -9 -6 -11l-4 -4h-2l12 84q0 4 -20 4t-18 -9q0 -2 6 -2h8q6 0 6 -8l-6 -53v-2q-4 -41 -8 -59l-4 -21q0 -2 9 -2t9 4v16q13 60 33 60q14 0 14 -10v-4l-12 -64q1 -10 17 -10zM881 647q-13 0 -13 30t27 46q14 0 14 -38t-28 -38zM925 645q-5 1 -5 19t6 36t6 21
l2 2v2q0 2 -6 2h-2q-8 0 -10 -5t-3 -5q-8 12 -20 12t-35 -33q-6 -18 -6 -32q0 -27 22 -27q11 0 31 20q2 0 2 -4v-8q-1 -8 9 -8t19 6t9 12t-4 7q-10 -17 -15 -17zM977 717q0 4 10 4q25 0 25 -39t-25 -39q-16 0 -16 14v5l6 47v8zM973 764v-2q-6 0 -6 -6l-2 -19v-6
q0 -8 -15 -15q-14 -6 -14 -14t4 -8l16 15q0 4 5 4l2 -2l-11 -76q0 -23 -8 -23h-8q-2 0 -2 -2q0 -10 24 -10t22 4q-1 4 -3 4h-6q-6 0 -6 16t4 17q12 -4 23 -4q12 0 24 14t12 39q0 39 -33 39q-8 -2 -14 -2l-2 2l4 31l-4 4h-6zM1065 719h2q12 -1 12 -21t-18 -20q-10 0 -10 10
t5 21q5 10 9 10zM1055 672h2q17 0 27 15t10 24q0 18 -18 18t-29 -20q-13 -20 -13 -44t15 -24q8 -4 18 -4t22 6t13 14q0 4 -4 5q-4 0 -4 -5q-8 -14 -23 -14q-20 0 -20 25q0 4 4 4z" />
    <glyph glyph-name="minus" unicode="&#x2212;" horiz-adv-x="1257" 
d="M1077 592h-938l19 135h938z" />
    <glyph glyph-name="radical" unicode="&#x221a;" horiz-adv-x="1261" 
d="M109 188v1080h1079v-1080h-1079zM440 763q0 30 -8 30q-16 -1 -16 -5t5 -4t5 -44t-33 -73q-10 -11 -14 -12q-4 0 -4 13l-4 116q2 2 2 6t-4 5l-17 -11q4 -45 4 -52t-22 -39q-22 -31 -26 -31q-3 0 -3 47t-6 77q-2 10 -16 11q-57 0 -88 -25q-31 -26 -31 -62t33 -36
q16 0 25 10t9 24t-10 13q-10 0 -10 -8l6 -15q1 -18 -21 -18t-22 36t34 54t66 18q10 0 11 -26l6 -119q0 -4 4 -4q25 0 61 76l4 -72q0 -4 11 -4q35 16 52 55t17 69zM471 723h2q18 0 19 -33v-2q0 -45 -25 -45q-18 0 -18 25v4q-1 51 22 51zM481 731q-21 0 -35 -18
q-14 -19 -14 -35t1 -22t9 -12q8 -7 21 -7q45 0 45 59q0 35 -27 35zM522 709q0 8 10 8t11 -25l-8 -51l4 -4q14 0 14 8v2q0 66 16 66h2l9 -4l8 8q0 14 -15 14l-10 -10q0 -1 -8 -21q-7 31 -14 31t-17 -8t-10 -16l4 -9l4 4v7zM641 700v-12q0 -8 -7 -24t-22 -17q-14 0 -14 24
t8 31q9 21 22 21t13 -23zM641 659v-8q0 -16 10 -16q11 0 19 8t10 16l-4 5q-4 -1 -4 -9t-8 -8q-8 -1 -8 7t6 71v6q10 50 10 57t-20 7q-20 -1 -19 -7q0 -6 4 -5t10 1t6 -6q0 -59 -8 -59l-2 2q-1 8 -19 8q-18 1 -30 -23t-12 -46t22 -23q16 0 26 11t11 11zM716 721l21 -8
q6 0 6 8t-14 8h-2q-33 0 -33 -24q0 -14 18 -26q18 -11 19 -14q2 -3 2 -13t-16 -9q-16 0 -17 8v2q0 8 -8 9q-6 0 -6 -7q0 -18 30 -18t29 27q0 12 -15 23t-19 15t-4 12t9 7zM822 631q16 0 22 18l2 4q0 4 -4 4q-4 -2 -4 -6q-4 -10 -10 -10t-7 4q0 4 5 21t5 41q0 25 -24 24
q-12 0 -19 -9q-6 -9 -6 -11l-4 -4h-2l12 84q0 4 -20 4t-18 -9q0 -2 6 -2h8q6 0 6 -8l-6 -53v-2q-4 -41 -8 -59l-4 -21q0 -2 9 -2t9 4v16q13 60 33 60q14 0 14 -10v-4l-12 -64q1 -10 17 -10zM881 647q-13 0 -13 30t27 46q14 0 14 -38t-28 -38zM925 645q-5 1 -5 19t6 36t6 21
l2 2v2q0 2 -6 2h-2q-8 0 -10 -5t-3 -5q-8 12 -20 12t-35 -33q-6 -18 -6 -32q0 -27 22 -27q11 0 31 20q2 0 2 -4v-8q-1 -8 9 -8t19 6t9 12t-4 7q-10 -17 -15 -17zM977 717q0 4 10 4q25 0 25 -39t-25 -39q-16 0 -16 14v5l6 47v8zM973 764v-2q-6 0 -6 -6l-2 -19v-6
q0 -8 -15 -15q-14 -6 -14 -14t4 -8l16 15q0 4 5 4l2 -2l-11 -76q0 -23 -8 -23h-8q-2 0 -2 -2q0 -10 24 -10t22 4q-1 4 -3 4h-6q-6 0 -6 16t4 17q12 -4 23 -4q12 0 24 14t12 39q0 39 -33 39q-8 -2 -14 -2l-2 2l4 31l-4 4h-6zM1065 719h2q12 -1 12 -21t-18 -20q-10 0 -10 10
t5 21q5 10 9 10zM1055 672h2q17 0 27 15t10 24q0 18 -18 18t-29 -20q-13 -20 -13 -44t15 -24q8 -4 18 -4t22 6t13 14q0 4 -4 5q-4 0 -4 -5q-8 -14 -23 -14q-20 0 -20 25q0 4 4 4z" />
    <glyph glyph-name="infinity" unicode="&#x221e;" horiz-adv-x="1343" 
d="M375 915q-154 0 -185 -215q-14 -104 18 -160t108 -56t136 64q60 65 93 157q-8 84 -51 147t-119 63zM895 915q-76 -1 -136 -65t-93 -154q8 -86 51 -149t119 -63q155 -1 185 215t-126 216zM279 362q-121 0 -185 86t-40 252q24 164 112 251t200 87t168 -51q58 -51 93 -137
q127 188 305 188q120 0 184 -87t41 -251t-111 -250t-210 -88q-174 0 -250 193q-133 -193 -307 -193z" />
    <glyph glyph-name="integral" unicode="&#x222b;" horiz-adv-x="1261" 
d="M109 188v1080h1079v-1080h-1079zM440 763q0 30 -8 30q-16 -1 -16 -5t5 -4t5 -44t-33 -73q-10 -11 -14 -12q-4 0 -4 13l-4 116q2 2 2 6t-4 5l-17 -11q4 -45 4 -52t-22 -39q-22 -31 -26 -31q-3 0 -3 47t-6 77q-2 10 -16 11q-57 0 -88 -25q-31 -26 -31 -62t33 -36
q16 0 25 10t9 24t-10 13q-10 0 -10 -8l6 -15q1 -18 -21 -18t-22 36t34 54t66 18q10 0 11 -26l6 -119q0 -4 4 -4q25 0 61 76l4 -72q0 -4 11 -4q35 16 52 55t17 69zM471 723h2q18 0 19 -33v-2q0 -45 -25 -45q-18 0 -18 25v4q-1 51 22 51zM481 731q-21 0 -35 -18
q-14 -19 -14 -35t1 -22t9 -12q8 -7 21 -7q45 0 45 59q0 35 -27 35zM522 709q0 8 10 8t11 -25l-8 -51l4 -4q14 0 14 8v2q0 66 16 66h2l9 -4l8 8q0 14 -15 14l-10 -10q0 -1 -8 -21q-7 31 -14 31t-17 -8t-10 -16l4 -9l4 4v7zM641 700v-12q0 -8 -7 -24t-22 -17q-14 0 -14 24
t8 31q9 21 22 21t13 -23zM641 659v-8q0 -16 10 -16q11 0 19 8t10 16l-4 5q-4 -1 -4 -9t-8 -8q-8 -1 -8 7t6 71v6q10 50 10 57t-20 7q-20 -1 -19 -7q0 -6 4 -5t10 1t6 -6q0 -59 -8 -59l-2 2q-1 8 -19 8q-18 1 -30 -23t-12 -46t22 -23q16 0 26 11t11 11zM716 721l21 -8
q6 0 6 8t-14 8h-2q-33 0 -33 -24q0 -14 18 -26q18 -11 19 -14q2 -3 2 -13t-16 -9q-16 0 -17 8v2q0 8 -8 9q-6 0 -6 -7q0 -18 30 -18t29 27q0 12 -15 23t-19 15t-4 12t9 7zM822 631q16 0 22 18l2 4q0 4 -4 4q-4 -2 -4 -6q-4 -10 -10 -10t-7 4q0 4 5 21t5 41q0 25 -24 24
q-12 0 -19 -9q-6 -9 -6 -11l-4 -4h-2l12 84q0 4 -20 4t-18 -9q0 -2 6 -2h8q6 0 6 -8l-6 -53v-2q-4 -41 -8 -59l-4 -21q0 -2 9 -2t9 4v16q13 60 33 60q14 0 14 -10v-4l-12 -64q1 -10 17 -10zM881 647q-13 0 -13 30t27 46q14 0 14 -38t-28 -38zM925 645q-5 1 -5 19t6 36t6 21
l2 2v2q0 2 -6 2h-2q-8 0 -10 -5t-3 -5q-8 12 -20 12t-35 -33q-6 -18 -6 -32q0 -27 22 -27q11 0 31 20q2 0 2 -4v-8q-1 -8 9 -8t19 6t9 12t-4 7q-10 -17 -15 -17zM977 717q0 4 10 4q25 0 25 -39t-25 -39q-16 0 -16 14v5l6 47v8zM973 764v-2q-6 0 -6 -6l-2 -19v-6
q0 -8 -15 -15q-14 -6 -14 -14t4 -8l16 15q0 4 5 4l2 -2l-11 -76q0 -23 -8 -23h-8q-2 0 -2 -2q0 -10 24 -10t22 4q-1 4 -3 4h-6q-6 0 -6 16t4 17q12 -4 23 -4q12 0 24 14t12 39q0 39 -33 39q-8 -2 -14 -2l-2 2l4 31l-4 4h-6zM1065 719h2q12 -1 12 -21t-18 -20q-10 0 -10 10
t5 21q5 10 9 10zM1055 672h2q17 0 27 15t10 24q0 18 -18 18t-29 -20q-13 -20 -13 -44t15 -24q8 -4 18 -4t22 6t13 14q0 4 -4 5q-4 0 -4 -5q-8 -14 -23 -14q-20 0 -20 25q0 4 4 4z" />
    <glyph glyph-name="approxequal" unicode="&#x2248;" horiz-adv-x="1261" 
d="M109 188v1080h1079v-1080h-1079zM440 763q0 30 -8 30q-16 -1 -16 -5t5 -4t5 -44t-33 -73q-10 -11 -14 -12q-4 0 -4 13l-4 116q2 2 2 6t-4 5l-17 -11q4 -45 4 -52t-22 -39q-22 -31 -26 -31q-3 0 -3 47t-6 77q-2 10 -16 11q-57 0 -88 -25q-31 -26 -31 -62t33 -36
q16 0 25 10t9 24t-10 13q-10 0 -10 -8l6 -15q1 -18 -21 -18t-22 36t34 54t66 18q10 0 11 -26l6 -119q0 -4 4 -4q25 0 61 76l4 -72q0 -4 11 -4q35 16 52 55t17 69zM471 723h2q18 0 19 -33v-2q0 -45 -25 -45q-18 0 -18 25v4q-1 51 22 51zM481 731q-21 0 -35 -18
q-14 -19 -14 -35t1 -22t9 -12q8 -7 21 -7q45 0 45 59q0 35 -27 35zM522 709q0 8 10 8t11 -25l-8 -51l4 -4q14 0 14 8v2q0 66 16 66h2l9 -4l8 8q0 14 -15 14l-10 -10q0 -1 -8 -21q-7 31 -14 31t-17 -8t-10 -16l4 -9l4 4v7zM641 700v-12q0 -8 -7 -24t-22 -17q-14 0 -14 24
t8 31q9 21 22 21t13 -23zM641 659v-8q0 -16 10 -16q11 0 19 8t10 16l-4 5q-4 -1 -4 -9t-8 -8q-8 -1 -8 7t6 71v6q10 50 10 57t-20 7q-20 -1 -19 -7q0 -6 4 -5t10 1t6 -6q0 -59 -8 -59l-2 2q-1 8 -19 8q-18 1 -30 -23t-12 -46t22 -23q16 0 26 11t11 11zM716 721l21 -8
q6 0 6 8t-14 8h-2q-33 0 -33 -24q0 -14 18 -26q18 -11 19 -14q2 -3 2 -13t-16 -9q-16 0 -17 8v2q0 8 -8 9q-6 0 -6 -7q0 -18 30 -18t29 27q0 12 -15 23t-19 15t-4 12t9 7zM822 631q16 0 22 18l2 4q0 4 -4 4q-4 -2 -4 -6q-4 -10 -10 -10t-7 4q0 4 5 21t5 41q0 25 -24 24
q-12 0 -19 -9q-6 -9 -6 -11l-4 -4h-2l12 84q0 4 -20 4t-18 -9q0 -2 6 -2h8q6 0 6 -8l-6 -53v-2q-4 -41 -8 -59l-4 -21q0 -2 9 -2t9 4v16q13 60 33 60q14 0 14 -10v-4l-12 -64q1 -10 17 -10zM881 647q-13 0 -13 30t27 46q14 0 14 -38t-28 -38zM925 645q-5 1 -5 19t6 36t6 21
l2 2v2q0 2 -6 2h-2q-8 0 -10 -5t-3 -5q-8 12 -20 12t-35 -33q-6 -18 -6 -32q0 -27 22 -27q11 0 31 20q2 0 2 -4v-8q-1 -8 9 -8t19 6t9 12t-4 7q-10 -17 -15 -17zM977 717q0 4 10 4q25 0 25 -39t-25 -39q-16 0 -16 14v5l6 47v8zM973 764v-2q-6 0 -6 -6l-2 -19v-6
q0 -8 -15 -15q-14 -6 -14 -14t4 -8l16 15q0 4 5 4l2 -2l-11 -76q0 -23 -8 -23h-8q-2 0 -2 -2q0 -10 24 -10t22 4q-1 4 -3 4h-6q-6 0 -6 16t4 17q12 -4 23 -4q12 0 24 14t12 39q0 39 -33 39q-8 -2 -14 -2l-2 2l4 31l-4 4h-6zM1065 719h2q12 -1 12 -21t-18 -20q-10 0 -10 10
t5 21q5 10 9 10zM1055 672h2q17 0 27 15t10 24q0 18 -18 18t-29 -20q-13 -20 -13 -44t15 -24q8 -4 18 -4t22 6t13 14q0 4 -4 5q-4 0 -4 -5q-8 -14 -23 -14q-20 0 -20 25q0 4 4 4z" />
    <glyph glyph-name="notequal" unicode="&#x2260;" horiz-adv-x="1316" 
d="M1081 336h-571l-172 -223h-170l174 223h-192l18 133h276l256 328h-485l18 133h568l172 219h164l-168 -219h196l-18 -133h-279l-256 -328h488z" />
    <glyph glyph-name="lessequal" unicode="&#x2264;" horiz-adv-x="1218" 
d="M973 6h-889l16 123h889zM1108 1022l-692 -264l616 -266l-22 -166l-830 381l15 100l935 379z" />
    <glyph glyph-name="greaterequal" unicode="&#x2265;" horiz-adv-x="1218" 
d="M936 18h-842l17 109h841zM836 758l-619 264l25 164l831 -379l-14 -100l-938 -381l22 166z" />
    <glyph glyph-name="lozenge" unicode="&#x25ca;" horiz-adv-x="1261" 
d="M109 188v1080h1079v-1080h-1079zM440 763q0 30 -8 30q-16 -1 -16 -5t5 -4t5 -44t-33 -73q-10 -11 -14 -12q-4 0 -4 13l-4 116q2 2 2 6t-4 5l-17 -11q4 -45 4 -52t-22 -39q-22 -31 -26 -31q-3 0 -3 47t-6 77q-2 10 -16 11q-57 0 -88 -25q-31 -26 -31 -62t33 -36
q16 0 25 10t9 24t-10 13q-10 0 -10 -8l6 -15q1 -18 -21 -18t-22 36t34 54t66 18q10 0 11 -26l6 -119q0 -4 4 -4q25 0 61 76l4 -72q0 -4 11 -4q35 16 52 55t17 69zM471 723h2q18 0 19 -33v-2q0 -45 -25 -45q-18 0 -18 25v4q-1 51 22 51zM481 731q-21 0 -35 -18
q-14 -19 -14 -35t1 -22t9 -12q8 -7 21 -7q45 0 45 59q0 35 -27 35zM522 709q0 8 10 8t11 -25l-8 -51l4 -4q14 0 14 8v2q0 66 16 66h2l9 -4l8 8q0 14 -15 14l-10 -10q0 -1 -8 -21q-7 31 -14 31t-17 -8t-10 -16l4 -9l4 4v7zM641 700v-12q0 -8 -7 -24t-22 -17q-14 0 -14 24
t8 31q9 21 22 21t13 -23zM641 659v-8q0 -16 10 -16q11 0 19 8t10 16l-4 5q-4 -1 -4 -9t-8 -8q-8 -1 -8 7t6 71v6q10 50 10 57t-20 7q-20 -1 -19 -7q0 -6 4 -5t10 1t6 -6q0 -59 -8 -59l-2 2q-1 8 -19 8q-18 1 -30 -23t-12 -46t22 -23q16 0 26 11t11 11zM716 721l21 -8
q6 0 6 8t-14 8h-2q-33 0 -33 -24q0 -14 18 -26q18 -11 19 -14q2 -3 2 -13t-16 -9q-16 0 -17 8v2q0 8 -8 9q-6 0 -6 -7q0 -18 30 -18t29 27q0 12 -15 23t-19 15t-4 12t9 7zM822 631q16 0 22 18l2 4q0 4 -4 4q-4 -2 -4 -6q-4 -10 -10 -10t-7 4q0 4 5 21t5 41q0 25 -24 24
q-12 0 -19 -9q-6 -9 -6 -11l-4 -4h-2l12 84q0 4 -20 4t-18 -9q0 -2 6 -2h8q6 0 6 -8l-6 -53v-2q-4 -41 -8 -59l-4 -21q0 -2 9 -2t9 4v16q13 60 33 60q14 0 14 -10v-4l-12 -64q1 -10 17 -10zM881 647q-13 0 -13 30t27 46q14 0 14 -38t-28 -38zM925 645q-5 1 -5 19t6 36t6 21
l2 2v2q0 2 -6 2h-2q-8 0 -10 -5t-3 -5q-8 12 -20 12t-35 -33q-6 -18 -6 -32q0 -27 22 -27q11 0 31 20q2 0 2 -4v-8q-1 -8 9 -8t19 6t9 12t-4 7q-10 -17 -15 -17zM977 717q0 4 10 4q25 0 25 -39t-25 -39q-16 0 -16 14v5l6 47v8zM973 764v-2q-6 0 -6 -6l-2 -19v-6
q0 -8 -15 -15q-14 -6 -14 -14t4 -8l16 15q0 4 5 4l2 -2l-11 -76q0 -23 -8 -23h-8q-2 0 -2 -2q0 -10 24 -10t22 4q-1 4 -3 4h-6q-6 0 -6 16t4 17q12 -4 23 -4q12 0 24 14t12 39q0 39 -33 39q-8 -2 -14 -2l-2 2l4 31l-4 4h-6zM1065 719h2q12 -1 12 -21t-18 -20q-10 0 -10 10
t5 21q5 10 9 10zM1055 672h2q17 0 27 15t10 24q0 18 -18 18t-29 -20q-13 -20 -13 -44t15 -24q8 -4 18 -4t22 6t13 14q0 4 -4 5q-4 0 -4 -5q-8 -14 -23 -14q-20 0 -20 25q0 4 4 4z" />
    <glyph glyph-name="commaaccent" unicode="&#xf6c3;" horiz-adv-x="479" 
d="M74 -588q100 92 127 240h-78l35 248h194l-35 -242q-37 -193 -182 -297q-9 3 -31 25t-30 26z" />
    <glyph glyph-name="apple" unicode="&#xf8ff;" horiz-adv-x="1261" 
d="M109 188v1080h1079v-1080h-1079zM440 763q0 30 -8 30q-16 -1 -16 -5t5 -4t5 -44t-33 -73q-10 -11 -14 -12q-4 0 -4 13l-4 116q2 2 2 6t-4 5l-17 -11q4 -45 4 -52t-22 -39q-22 -31 -26 -31q-3 0 -3 47t-6 77q-2 10 -16 11q-57 0 -88 -25q-31 -26 -31 -62t33 -36
q16 0 25 10t9 24t-10 13q-10 0 -10 -8l6 -15q1 -18 -21 -18t-22 36t34 54t66 18q10 0 11 -26l6 -119q0 -4 4 -4q25 0 61 76l4 -72q0 -4 11 -4q35 16 52 55t17 69zM471 723h2q18 0 19 -33v-2q0 -45 -25 -45q-18 0 -18 25v4q-1 51 22 51zM481 731q-21 0 -35 -18
q-14 -19 -14 -35t1 -22t9 -12q8 -7 21 -7q45 0 45 59q0 35 -27 35zM522 709q0 8 10 8t11 -25l-8 -51l4 -4q14 0 14 8v2q0 66 16 66h2l9 -4l8 8q0 14 -15 14l-10 -10q0 -1 -8 -21q-7 31 -14 31t-17 -8t-10 -16l4 -9l4 4v7zM641 700v-12q0 -8 -7 -24t-22 -17q-14 0 -14 24
t8 31q9 21 22 21t13 -23zM641 659v-8q0 -16 10 -16q11 0 19 8t10 16l-4 5q-4 -1 -4 -9t-8 -8q-8 -1 -8 7t6 71v6q10 50 10 57t-20 7q-20 -1 -19 -7q0 -6 4 -5t10 1t6 -6q0 -59 -8 -59l-2 2q-1 8 -19 8q-18 1 -30 -23t-12 -46t22 -23q16 0 26 11t11 11zM716 721l21 -8
q6 0 6 8t-14 8h-2q-33 0 -33 -24q0 -14 18 -26q18 -11 19 -14q2 -3 2 -13t-16 -9q-16 0 -17 8v2q0 8 -8 9q-6 0 -6 -7q0 -18 30 -18t29 27q0 12 -15 23t-19 15t-4 12t9 7zM822 631q16 0 22 18l2 4q0 4 -4 4q-4 -2 -4 -6q-4 -10 -10 -10t-7 4q0 4 5 21t5 41q0 25 -24 24
q-12 0 -19 -9q-6 -9 -6 -11l-4 -4h-2l12 84q0 4 -20 4t-18 -9q0 -2 6 -2h8q6 0 6 -8l-6 -53v-2q-4 -41 -8 -59l-4 -21q0 -2 9 -2t9 4v16q13 60 33 60q14 0 14 -10v-4l-12 -64q1 -10 17 -10zM881 647q-13 0 -13 30t27 46q14 0 14 -38t-28 -38zM925 645q-5 1 -5 19t6 36t6 21
l2 2v2q0 2 -6 2h-2q-8 0 -10 -5t-3 -5q-8 12 -20 12t-35 -33q-6 -18 -6 -32q0 -27 22 -27q11 0 31 20q2 0 2 -4v-8q-1 -8 9 -8t19 6t9 12t-4 7q-10 -17 -15 -17zM977 717q0 4 10 4q25 0 25 -39t-25 -39q-16 0 -16 14v5l6 47v8zM973 764v-2q-6 0 -6 -6l-2 -19v-6
q0 -8 -15 -15q-14 -6 -14 -14t4 -8l16 15q0 4 5 4l2 -2l-11 -76q0 -23 -8 -23h-8q-2 0 -2 -2q0 -10 24 -10t22 4q-1 4 -3 4h-6q-6 0 -6 16t4 17q12 -4 23 -4q12 0 24 14t12 39q0 39 -33 39q-8 -2 -14 -2l-2 2l4 31l-4 4h-6zM1065 719h2q12 -1 12 -21t-18 -20q-10 0 -10 10
t5 21q5 10 9 10zM1055 672h2q17 0 27 15t10 24q0 18 -18 18t-29 -20q-13 -20 -13 -44t15 -24q8 -4 18 -4t22 6t13 14q0 4 -4 5q-4 0 -4 -5q-8 -14 -23 -14q-20 0 -20 25q0 4 4 4z" />
    <glyph glyph-name="fi" unicode="&#xfb01;" horiz-adv-x="1038" 
d="M817 0h-151l147 1044h152zM643 1487q82 0 166 -19l-31 -125q-59 14 -133 15q-178 0 -205 -180l-18 -134h291l-17 -124h-290l-132 -920h-151l131 920h-182l16 124h182l19 132q19 145 117 228t237 83z" />
    <glyph glyph-name="fl" unicode="&#xfb02;" horiz-adv-x="1095" 
d="M745 0l207 1470h148l-207 -1470h-148zM643 1487q82 0 166 -19l-31 -125q-59 14 -133 15q-178 0 -205 -180l-18 -134h291l-17 -124h-290l-132 -920h-151l131 920h-182l16 124h182l19 132q19 145 117 228t237 83z" />
    <glyph glyph-name="_360" horiz-adv-x="1165" 
d="M956 1356l-346 -238l-55 62l319 268zM618 952q-146 0 -245 -95q-98 -95 -129 -253h626q20 156 -43 252t-209 96zM481 -29q-225 0 -331 151q-106 152 -72 398t186 401t371 155t318 -149q99 -148 56 -410q-5 -30 -5 -34h-779q-21 -167 49 -277t224 -110q239 0 313 203h147
q-45 -152 -174 -240t-303 -88z" />
    <glyph glyph-name="caron.002" horiz-adv-x="749" 
d="M238 1245q98 92 124 240h-77l34 248h195l-35 -242q-37 -193 -182 -297q-9 4 -31 26t-28 25z" />
  </font>
</defs>
</svg>
