<?xml version="1.0" standalone="no"?>
<!DOCTYPE svg PUBLIC "-//W3C//DTD SVG 1.1//EN" "http://www.w3.org/Graphics/SVG/1.1/DTD/svg11.dtd" >
<svg xmlns="http://www.w3.org/2000/svg">
<metadata>
Created by FontPrep 20130207 at Mon Jun 27 20:06:37 2016
 By Devin Halladay
Copyright (c) Ian Lynam, 2013. All rights reserved.
</metadata>
<defs>
<font id="9abde1e8a15b662a5550fb0dd4be32df" horiz-adv-x='1024' >
  <font-face 
    font-family="Vaud-BoldItalic"
    font-weight="700"
    font-style="italic"
    font-stretch="normal"
    units-per-em="2048"
    panose-1="2 0 5 3 5 0 0 9 0 4"
    ascent="1638"
    descent="-410"
    x-height="1067"
    cap-height="1458"
    bbox="-254 -756 2689 1989"
    underline-thickness="102"
    underline-position="-102"
    slope="-12"
    unicode-range="U+000D-FB02"
  />
<missing-glyph horiz-adv-x="1536" 
 />
    <glyph glyph-name=".notdef" horiz-adv-x="1536" 
 />
    <glyph glyph-name=".null" horiz-adv-x="0" 
 />
    <glyph glyph-name="nonmarkingreturn" horiz-adv-x="681" 
 />
    <glyph glyph-name="NULL" horiz-adv-x="0" 
 />
    <glyph glyph-name="NULL" horiz-adv-x="0" 
 />
    <glyph glyph-name="CR" unicode="&#xd;" horiz-adv-x="512" 
 />
    <glyph glyph-name="space" unicode=" " horiz-adv-x="544" 
 />
    <glyph glyph-name="exclam" unicode="!" horiz-adv-x="620" 
d="M365 0h-277l41 299h277zM573 1456l-192 -1007h-201l107 1007h286z" />
    <glyph glyph-name="quotedbl" unicode="&#x22;" horiz-adv-x="929" 
d="M391 1186l-80 -334h-202l16 334l35 268h268zM815 1186l-80 -334h-200l16 334l35 268h266z" />
    <glyph glyph-name="numbersign" unicode="#" horiz-adv-x="1382" 
d="M530 557h250l88 293h-252zM135 0l103 350h-205l30 207h238l84 293h-217l29 205h249l105 350h227l-102 -350h252l102 350h230l-103 -350h193l-29 -205h-225l-84 -293h200l-30 -207h-236l-100 -350h-230l101 350h-250l-102 -350h-230z" />
    <glyph glyph-name="dollar" unicode="$" 
d="M819 410q18 129 -164 178l-53 -377q192 29 217 199zM555 874l49 355q-90 -9 -146 -59t-68 -126t31 -114q42 -40 134 -56zM1018 711q101 -95 74 -283t-168 -306t-353 -134l-28 -199h-142l29 199q-213 16 -326 141t-92 330h271q-12 -106 36 -170q49 -63 142 -76l57 399
q-449 55 -395 422q23 162 163 279t349 135l27 188h141l-27 -192q201 -18 294 -144t81 -294l-260 2q6 186 -146 217l-53 -375q225 -45 326 -139z" />
    <glyph glyph-name="percent" unicode="%" horiz-adv-x="1921" 
d="M455 809q78 0 119 56t59 173q16 117 -9 175q-26 59 -104 59t-120 -58t-58 -176q-35 -229 113 -229zM1391 162q80 0 122 57t58 172q33 233 -115 234q-145 1 -178 -231t113 -232zM852 1038q-26 -198 -140 -308t-284 -110t-252 112t-55 308t142 308q116 112 285 112
t250 -112t54 -310zM285 -16l1106 1464h241l-35 -55q-332 -440 -1073 -1413zM1485 813q168 -1 250 -113t54 -309q-27 -197 -139 -307t-284 -111q-172 0 -253 111q-81 110 -53 308t142 310t283 111z" />
    <glyph glyph-name="ampersand" unicode="&#x26;" horiz-adv-x="1445" 
d="M784 264q-162 219 -278 379q-86 -47 -133 -96t-61 -141t49 -155t199 -63t224 76zM699 1272q-67 0 -113 -39t-56 -120q-12 -81 97 -208q86 45 136 94t60 122t-23 112q-34 39 -101 39zM492 -35q-234 0 -351 122t-90 310q35 240 338 408q-127 165 -104 321t146 255
q124 99 296 99t267 -94q95 -96 76 -236t-103 -230t-224 -166q90 -123 218 -293q100 164 98 315h215q-29 -301 -180 -497q109 -147 211 -279h-320q-37 47 -76 100q-183 -135 -417 -135z" />
    <glyph glyph-name="quotesingle" unicode="'" horiz-adv-x="493" 
d="M391 1186l-80 -334h-202l16 334l35 268h268z" />
    <glyph glyph-name="parenleft" unicode="(" horiz-adv-x="641" 
d="M459 -299h-217q-252 406 -176 936q74 530 440 936h215q-328 -412 -399 -936q-74 -516 137 -936z" />
    <glyph glyph-name="parenright" unicode=")" horiz-adv-x="641" 
d="M152 -299h-215q329 416 401 937t-137 935h215q252 -403 178 -936t-442 -936z" />
    <glyph glyph-name="asterisk" unicode="*" horiz-adv-x="962" 
d="M98 774l238 230l-273 69l113 221l236 -123l6 289h241l-77 -291l272 125l49 -221l-289 -69l172 -230l-211 -137l-116 256l-191 -258z" />
    <glyph glyph-name="plus" unicode="+" horiz-adv-x="1300" 
d="M449 98l63 451h-412l33 233h412l61 432h244l-62 -432h414l-33 -233h-413l-64 -451h-243z" />
    <glyph glyph-name="comma" unicode="," horiz-adv-x="550" 
d="M430 25q-20 -143 -80 -231t-196 -140l-56 119q88 39 125 90t49 137h-145l43 309h301z" />
    <glyph glyph-name="hyphen" unicode="-" horiz-adv-x="872" 
d="M88 494l35 256h657l-35 -256h-657z" />
    <glyph glyph-name="period" unicode="." horiz-adv-x="550" 
d="M100 0l47 326h302l-48 -326h-301z" />
    <glyph glyph-name="slash" unicode="/" horiz-adv-x="790" 
d="M899 1491l-762 -1503h-235l760 1503h237z" />
    <glyph glyph-name="zero" unicode="0" 
d="M522 211q181 0 251 219q68 202 82 518q5 110 -41 186q-46 75 -150 74q-64 0 -114 -30t-81 -73q-31 -44 -59 -124t-56 -270q-16 -129 -22 -240t40 -185t150 -75zM696 1452q518 0 418 -741q-82 -549 -368 -687q-112 -54 -259 -55q-521 -1 -415 741t624 742z" />
    <glyph glyph-name="one" unicode="1" 
d="M457 0l153 1102l-321 -197l39 281l370 233h232l-199 -1419h-274z" />
    <glyph glyph-name="two" unicode="2" 
d="M683 1454q220 0 330 -113t83 -307q-18 -126 -98 -236t-226 -235q-18 -13 -170 -159t-174 -162h561l-33 -242h-946l29 211q35 29 261 241t304 275q188 152 211 299q10 84 -31 137t-127 54q-188 0 -249 -213h-271q51 198 189 324t357 126z" />
    <glyph glyph-name="three" unicode="3" 
d="M516 205q100 0 170 52q70 53 84 155q28 203 -209 202h-125l33 240h133q201 0 227 184q12 78 -32 129q-45 51 -138 52q-207 0 -258 -199h-268q29 188 184 311q156 123 374 123t329 -111t86 -284q-14 -103 -76 -187t-166 -124q106 -42 152 -132t31 -202q-29 -209 -179 -328
t-386 -119t-350 132q-113 132 -93 331h276q-14 -225 201 -225z" />
    <glyph glyph-name="four" unicode="4" 
d="M324 547h344l67 493zM0 317l25 195l774 903h262l-121 -868h180l-33 -230h-180l-45 -317h-272l45 317h-635z" />
    <glyph glyph-name="five" unicode="5" 
d="M537 205q221 0 258 264q35 246 -191 246q-139 0 -233 -105h-246l162 809h839l-32 -239h-609l-67 -314q109 78 274 78q215 0 309 -132q93 -132 63 -354t-180 -356q-150 -135 -376 -135q-227 0 -344 117q-116 117 -98 330h270q-12 -209 201 -209z" />
    <glyph glyph-name="six" unicode="6" 
d="M622 719q-106 0 -180 -65q-74 -64 -90 -184t30 -197t155 -77t181 72q72 70 88 191q17 121 -31 191q-47 70 -153 69zM506 -31q-113 0 -198 38t-131 104q-105 150 -99 338q2 98 12 202q115 801 643 801q209 0 309 -110t95 -275h-269q-10 158 -174 158q-129 0 -206 -111
t-105 -291q121 115 323 115t300 -126q100 -126 68 -348t-182 -359q-151 -136 -386 -136z" />
    <glyph glyph-name="seven" unicode="7" 
d="M469 0h-297q63 146 317 582t359 598h-690l32 239h992l-29 -213q-111 -160 -367 -606t-317 -600z" />
    <glyph glyph-name="eight" unicode="8" 
d="M521 195q118 0 191 58q73 59 86 155t-40 152t-177 56t-194 -57t-83 -153t43 -154t174 -57zM612 846q217 0 244 194q12 84 -35 138t-155 53t-172 -55q-62 -54 -74 -142t36 -138t156 -50zM488 -33q-234 0 -357 116t-96 318q14 107 84 197t172 137q-76 47 -112 131t-21 185
q27 184 174 294q147 109 368 109t335 -108t87 -295q-14 -101 -72 -185t-151 -131q94 -47 137 -135t29 -199q-29 -203 -187 -319q-156 -116 -390 -115z" />
    <glyph glyph-name="nine" unicode="9" 
d="M651 1223q-109 0 -181 -71t-87 -191q-16 -119 31 -191t154 -72q108 0 180 68t88 189q16 120 -30 194t-155 74zM504 195q242 0 301 403q-125 -119 -325 -119t-302 127q-100 127 -68 350t184 360q153 136 388 136q140 0 236 -59t136 -157q91 -222 42 -476
q-54 -373 -192 -581q-139 -208 -433 -210q-221 1 -323 107t-89 278h267q-4 -76 40 -118t138 -41z" />
    <glyph glyph-name="colon" unicode=":" horiz-adv-x="579" 
d="M178 748l45 319h301l-45 -319h-301zM74 0l45 319h301l-45 -319h-301z" />
    <glyph glyph-name="semicolon" unicode=";" horiz-adv-x="579" 
d="M401 25q-20 -143 -80 -231t-196 -140l-55 119q88 39 125 90t49 137h-146l43 309h301zM504 748h-301l45 319h301z" />
    <glyph glyph-name="less" unicode="&#x3c;" horiz-adv-x="1083" 
d="M162 774l874 543l-35 -256l-651 -383l549 -389l-37 -250l-731 516z" />
    <glyph glyph-name="equal" unicode="=" horiz-adv-x="1312" 
d="M184 737l31 224h971l-31 -224h-971zM123 307l33 225h970l-32 -225h-971z" />
    <glyph glyph-name="greater" unicode="&#x3e;" horiz-adv-x="1083" 
d="M246 1317l723 -543l-31 -219l-875 -516l33 250l660 389l-545 383z" />
    <glyph glyph-name="question" unicode="?" horiz-adv-x="1058" 
d="M557 0h-285l43 305h285zM606 1249q-205 0 -258 -209h-266q43 201 193 323q151 122 366 122q215 1 326 -107t86 -280q-17 -109 -69 -183t-140 -145q-12 -10 -46 -38q-101 -83 -116 -105q-44 -64 -52 -89q-7 -26 -12 -55l-6 -45h-268q16 117 54 197t76 119q38 40 81 74
t100 80t72 72q35 63 43 119t-35 103t-129 47z" />
    <glyph glyph-name="at" unicode="@" horiz-adv-x="1978" 
d="M1042 819q-92 0 -158 -85q-66 -84 -81 -198t15 -168t98 -54t121 42q101 83 127 273t-122 190zM1343 113q-96 1 -150 33t-67 116q-118 -156 -288 -156t-242 114t-47 286q31 219 165 363t320 145q70 0 126 -34t79 -97l88 108h172l-160 -606q-14 -84 47 -84q102 0 184 120
q81 120 105 290q37 268 -105 405t-436 137t-520 -197q-225 -198 -267 -501t99 -482q140 -179 436 -179t472 131l106 -136q-236 -195 -620 -195t-580 235q-195 234 -143 612q31 217 135 393t252 287q304 229 669 229t567 -194t152 -545q-36 -260 -190 -429t-359 -169z" />
    <glyph glyph-name="A" unicode="A" horiz-adv-x="1370" 
d="M461 553h383l-113 567zM-92 0l735 1458h289l323 -1458h-303l-59 309h-545l-151 -309h-289z" />
    <glyph glyph-name="B" unicode="B" horiz-adv-x="1341" 
d="M733 637h-309l-55 -399h290q256 -1 287 198q14 102 -40 152t-173 49zM780 1223h-272l-51 -353h299q214 1 241 179q12 94 -42 134t-175 40zM627 0h-570l205 1456h551q256 0 375 -103t90 -304t-217 -287q199 -107 168 -320q-31 -214 -185 -328t-417 -114z" />
    <glyph glyph-name="C" unicode="C" horiz-adv-x="1374" 
d="M1337 977h-288q0 260 -252 260q-340 0 -414 -510q-14 -137 -4 -250t81 -187q72 -74 196 -73q124 0 208 71t115 195h299q-53 -229 -232 -371t-430 -143q-315 0 -444 210t-82 548q66 460 369 656q163 105 389 105t358 -140q132 -141 131 -371z" />
    <glyph glyph-name="D" unicode="D" horiz-adv-x="1456" 
d="M575 248q260 0 362 136q103 136 130 347q39 283 -50 381q-90 98 -284 96h-221l-135 -960h198zM588 0h-531l205 1456h555q172 0 293 -56t178 -154q125 -214 72 -513q-46 -329 -238 -531t-534 -202z" />
    <glyph glyph-name="E" unicode="E" horiz-adv-x="1261" 
d="M55 0l207 1458h1016l-37 -252h-731l-45 -327h663l-34 -250h-664l-53 -379h737l-37 -250h-1022z" />
    <glyph glyph-name="F" unicode="F" horiz-adv-x="1200" 
d="M55 0l207 1458h981l-37 -252h-696l-51 -366h637l-35 -250h-637l-84 -590h-285z" />
    <glyph glyph-name="G" unicode="G" horiz-adv-x="1443" 
d="M846 1489q250 0 392 -138t118 -339l-289 2q-4 225 -258 225q-187 0 -289 -142t-135 -370q-70 -512 293 -512q166 0 249 86t107 260h-313l33 236h581l-112 -797h-160l-21 174q-51 -82 -156 -143t-245 -62q-326 0 -461 207t-88 549t246 553t508 211z" />
    <glyph glyph-name="H" unicode="H" horiz-adv-x="1476" 
d="M55 0l207 1458h285l-80 -567h588l80 567h284l-207 -1458h-284l88 623h-588l-88 -623h-285z" />
    <glyph glyph-name="I" unicode="I" horiz-adv-x="606" 
d="M55 0l207 1458h287l-207 -1458h-287z" />
    <glyph glyph-name="J" unicode="J" horiz-adv-x="1155" 
d="M418 -33q-234 0 -340 132t-78 380h279q-27 -264 178 -264q123 0 178 82t78 240l129 919h284l-141 -993q-33 -236 -183 -366t-384 -130z" />
    <glyph glyph-name="K" unicode="K" horiz-adv-x="1384" 
d="M55 0l207 1458h287l-90 -629l647 629h328l-553 -549l399 -909h-326l-301 700l-245 -235l-66 -465h-287z" />
    <glyph glyph-name="L" unicode="L" horiz-adv-x="1161" 
d="M55 0l207 1458h285l-170 -1202h684l-37 -256h-969z" />
    <glyph glyph-name="M" unicode="M" horiz-adv-x="1779" 
d="M55 0l207 1458h361l221 -1065l530 1065h348l-206 -1458h-269l142 1006l-498 -1006h-217l-211 1010l-144 -1010h-264z" />
    <glyph glyph-name="N" unicode="N" horiz-adv-x="1486" 
d="M55 0l207 1458h277l475 -971l137 971h279l-207 -1458h-273l-479 973l-137 -973h-279z" />
    <glyph glyph-name="O" unicode="O" horiz-adv-x="1486" 
d="M814 1237q-358 0 -430 -509t286 -509t430 509t-286 509zM637 -31q-319 0 -456 211q-136 211 -88 548t245 549t512 212q215 -1 349 -103q257 -197 192 -659q-47 -338 -241 -548t-513 -210z" />
    <glyph glyph-name="P" unicode="P" horiz-adv-x="1294" 
d="M702 764q260 0 295 229q14 109 -39 165t-192 56h-256l-64 -450h256zM807 1458q279 0 393 -126t83 -338q-29 -212 -179 -342t-426 -130h-266l-74 -522h-283l207 1458h545z" />
    <glyph glyph-name="Q" unicode="Q" horiz-adv-x="1488" 
d="M824 1237q-358 0 -431 -510q-14 -137 -4 -251t84 -188t207 -73q68 0 123 18l-137 207l190 142q31 -45 135 -207q86 119 117 352q74 510 -284 510zM874 1489q302 0 438 -210q136 -209 86 -571t-261 -552q86 -135 125 -189q-172 -127 -189 -139l-135 197q-135 -55 -293 -56
q-317 0 -454 211q-136 211 -89 547q58 385 264 573t508 189z" />
    <glyph glyph-name="R" unicode="R" horiz-adv-x="1343" 
d="M788 1214h-278l-59 -419h294q238 0 269 213q12 90 -42 148t-184 58zM827 1456q404 0 468 -282q17 -76 5 -164q-41 -291 -301 -404q31 -102 99 -303t98 -303h-307q-41 127 -168 549h-305l-76 -549h-283l205 1456h565z" />
    <glyph glyph-name="S" unicode="S" horiz-adv-x="1308" 
d="M555 -31q-260 0 -410 125t-122 375h288q-12 -133 64 -195t213 -63q137 0 219 52t97 155t-70 140q-66 29 -171 45q-106 17 -135 22q-206 25 -314 130t-80 301t203 314t428 119q253 0 387 -134t105 -331h-280q8 102 -62 164q-71 62 -191 61q-120 0 -203 -45t-95 -128
t26 -120q40 -37 92 -49t143 -25t140 -24q420 -76 369 -438q-31 -215 -206 -333t-435 -118z" />
    <glyph glyph-name="T" unicode="T" horiz-adv-x="1210" 
d="M358 0l170 1202h-436l37 256h1157l-37 -256h-436l-170 -1202h-285z" />
    <glyph glyph-name="U" unicode="U" horiz-adv-x="1409" 
d="M597 -33q-280 0 -407 157t-86 454l125 880h285l-125 -880q-51 -358 246 -359q153 0 235 90t107 269l125 880h287l-125 -883q-41 -295 -214 -451t-453 -157z" />
    <glyph glyph-name="V" unicode="V" horiz-adv-x="1339" 
d="M422 0l-309 1458h311l201 -1071l510 1071h297l-721 -1458h-289z" />
    <glyph glyph-name="W" unicode="W" horiz-adv-x="1884" 
d="M281 0l-152 1458h299l76 -1014l416 1014h272l125 -1014l358 1014h285l-551 -1458h-281l-139 1042l-432 -1042h-276z" />
    <glyph glyph-name="X" unicode="X" horiz-adv-x="1318" 
d="M-94 0l588 756l-363 702h318l243 -487l381 487h307l-557 -708l383 -750h-319l-264 530l-410 -530h-307z" />
    <glyph glyph-name="Y" unicode="Y" horiz-adv-x="1312" 
d="M412 0l82 578l-381 880h313l252 -610l426 610h301l-627 -880l-82 -578h-284z" />
    <glyph glyph-name="Z" unicode="Z" horiz-adv-x="1230" 
d="M-49 0l35 242l899 964h-754l37 252h1098l-35 -244l-895 -962h782l-37 -252h-1130z" />
    <glyph glyph-name="bracketleft" unicode="[" horiz-adv-x="712" 
d="M51 -279l256 1829h498l-29 -211h-256l-198 -1407h256l-29 -211h-498z" />
    <glyph glyph-name="backslash" unicode="\" horiz-adv-x="790" 
d="M100 1491h236l342 -1503h-236z" />
    <glyph glyph-name="bracketright" unicode="]" horiz-adv-x="712" 
d="M-92 -279l29 211h256l198 1407h-258l29 211h500l-256 -1829h-498z" />
    <glyph glyph-name="asciicircum" unicode="^" horiz-adv-x="1157" 
d="M35 717l487 753h217l277 -753h-291l-143 424l-263 -424h-284z" />
    <glyph glyph-name="underscore" unicode="_" horiz-adv-x="1112" 
d="M14 -272l19 143h1063l-19 -143h-1063z" />
    <glyph glyph-name="grave" unicode="`" horiz-adv-x="686" 
d="M580 1253h-252l-291 297h293z" />
    <glyph glyph-name="a" unicode="a" horiz-adv-x="1148" 
d="M516 195q257 0 293 346q49 332 -195 331q-114 0 -188 -93t-96 -245t24 -246q45 -93 162 -93zM416 -29q-215 0 -307 155q-91 155 -57 406q34 252 176 408t348 156t288 -119l15 96h270l-152 -1073h-196l-43 129q-127 -158 -342 -158z" />
    <glyph glyph-name="b" unicode="b" horiz-adv-x="1253" 
d="M672 872q-246 0 -289 -325l-4 -17q-47 -336 194 -335q117 -1 189 91t94 248t-21 247q-44 91 -163 91zM777 1096q209 0 303 -154t59 -405t-179 -409t-352 -157q-207 0 -293 146l-77 -117h-197l207 1470h270l-72 -507q123 133 331 133z" />
    <glyph glyph-name="c" unicode="c" horiz-adv-x="1126" 
d="M510 -27q-250 0 -354 154q-104 155 -70 405t188 407t400 157q207 0 310 -119t79 -287h-266q14 180 -158 180q-225 0 -273 -336t175 -337q86 0 143 49t76 135h270q-39 -184 -174 -296t-346 -112z" />
    <glyph glyph-name="d" unicode="d" horiz-adv-x="1253" 
d="M524 195q257 0 293 346q49 332 -194 331q-115 0 -189 -93t-96 -245t24 -246q45 -93 162 -93zM424 -29q-215 0 -307 155q-91 155 -57 406q34 252 176 408t349 156q206 0 287 -119l70 493h270l-206 -1470h-197l-43 129q-127 -158 -342 -158z" />
    <glyph glyph-name="e" unicode="e" horiz-adv-x="1173" 
d="M647 887q-111 0 -181 -69t-89 -173h461q27 242 -191 242zM555 184q170 0 221 142h262q-45 -172 -184 -264t-330 -91q-246 0 -360 152q-114 153 -77 407q36 254 195 410t395 156t343 -148q124 -172 55 -489h-727q-12 -123 40 -199t167 -76z" />
    <glyph glyph-name="f" unicode="f" horiz-adv-x="776" 
d="M676 1491q109 0 209 -27l-49 -207q-76 17 -142 17t-109 -35q-44 -35 -55 -102l-8 -70h264l-30 -217h-264l-121 -850h-273l121 850h-174l31 217h174l8 68q25 170 137 263q113 93 281 93z" />
    <glyph glyph-name="g" unicode="g" horiz-adv-x="1202" 
d="M979 1163q0 8 2 11h199q2 -10 -6 -70q-20 -150 -164 -213q43 -88 28 -193q-25 -176 -166 -281t-321 -106q-92 0 -168 29q-57 -31 -66 -76q-10 -78 107 -78h176q244 0 336 -71q117 -88 94 -256q-14 -100 -70 -173q-140 -181 -521 -183q-226 -1 -340 87t-95 234
q25 156 158 217q-45 27 -67 78t-13 104q18 135 156 215q-90 106 -70 262q27 184 165 288t304 104t258 -68q70 20 84 129v10zM491 -294q275 0 295 147q12 93 -77 115q-65 16 -158 16h-201q-98 -29 -114 -131q-20 -147 255 -147zM633 899q-85 0 -145 -55q-60 -56 -71 -144
t32 -142t129 -54t146 54t69 142q12 88 -31 144t-129 55z" />
    <glyph glyph-name="h" unicode="h" horiz-adv-x="1212" 
d="M650 858q-95 0 -168 -75t-89 -181l-84 -602h-270l207 1470h270l-74 -528q132 154 318 154t265 -100t52 -287l-100 -709h-272l92 662q14 102 -19 149t-128 47z" />
    <glyph glyph-name="i" unicode="i" horiz-adv-x="565" 
d="M205 1208l37 260h284l-37 -260h-284zM41 0l149 1067h275l-150 -1067h-274z" />
    <glyph glyph-name="j" unicode="j" horiz-adv-x="575" 
d="M-27 -412h-22q-80 0 -187 31q14 55 52 217q80 -14 121 -14q121 0 139 125l155 1120h273l-160 -1143q-23 -166 -118 -251t-253 -85zM528 1210h-284l37 260h284z" />
    <glyph glyph-name="k" unicode="k" horiz-adv-x="1181" 
d="M39 0l207 1470h268l-113 -804l463 401h328l-438 -389l323 -678h-303l-235 504l-183 -160l-49 -344h-268z" />
    <glyph glyph-name="l" unicode="l" horiz-adv-x="581" 
d="M309 0h-272l207 1470h272z" />
    <glyph glyph-name="m" unicode="m" horiz-adv-x="1802" 
d="M1294 864q-80 0 -154 -77t-89 -169l-86 -618h-271l94 668q14 104 -14 150q-30 46 -110 46t-154 -77t-88 -175l-86 -612h-270l149 1067h164l72 -143q133 172 329 172q227 0 275 -178q145 178 354 178q166 0 239 -98t46 -281l-101 -717h-270l94 668q14 104 -14 150
q-29 46 -109 46z" />
    <glyph glyph-name="n" unicode="n" horiz-adv-x="1212" 
d="M799 1098q176 0 253 -100t50 -289l-98 -709h-273l92 662q14 102 -18 149q-33 47 -119 47q-118 0 -188 -94t-86 -225l-76 -539h-270l149 1067h182l54 -143q133 174 348 174z" />
    <glyph glyph-name="o" unicode="o" horiz-adv-x="1214" 
d="M557 197q242 0 289 337t-193 336q-125 0 -195 -92t-91 -243q-47 -338 190 -338zM523 -29q-247 0 -359 152t-77 410q36 259 196 411q161 152 405 152t358 -152t79 -410q-35 -257 -195 -410t-407 -153z" />
    <glyph glyph-name="p" unicode="p" horiz-adv-x="1253" 
d="M723 870q-242 0 -289 -325q-49 -352 193 -352q115 -1 189 91t94 248q22 156 -22 247t-165 91zM666 -29q-208 0 -289 123l-70 -495h-270l207 1468h194l45 -129q127 158 342 158t307 -156t59 -404q-34 -249 -176 -407q-141 -158 -349 -158z" />
    <glyph glyph-name="q" unicode="q" horiz-adv-x="1253" 
d="M578 195q243 0 294 344q45 334 -194 333q-115 0 -189 -92t-95 -248t23 -246q44 -91 161 -91zM474 -29q-212 0 -304 153t-57 404q35 252 179 410t350 158t294 -148l70 119h204l-206 -1468h-273l72 505q-117 -133 -329 -133z" />
    <glyph glyph-name="r" unicode="r" horiz-adv-x="833" 
d="M772 1083q43 0 96 -8q-17 -71 -53 -254q-45 12 -102 13q-117 0 -197 -72t-96 -184l-82 -578h-272l151 1067h166l70 -156q113 172 319 172z" />
    <glyph glyph-name="s" unicode="s" horiz-adv-x="1083" 
d="M770 745q4 148 -177 148q-89 0 -145 -31t-65 -83q-8 -52 23 -76q31 -25 125 -39q326 -50 395 -129t48 -235q-22 -155 -158 -242t-342 -87t-331 92t-106 279h258q-4 -86 48 -124t151 -38q203 0 221 121q14 86 -105 113q-60 12 -108 18q-47 6 -74 10q-160 10 -242 96
t-63 218q23 160 161 250t340 90t312 -98q109 -98 86 -250z" />
    <glyph glyph-name="t" unicode="t" horiz-adv-x="796" 
d="M530 213q59 0 146 12l-10 -213q-117 -31 -226 -30q-333 0 -284 348l73 520h-182l31 217h182l27 197l291 129l-46 -326h256l-30 -217h-256l-72 -506q-10 -72 16 -102t84 -29z" />
    <glyph glyph-name="u" unicode="u" horiz-adv-x="1204" 
d="M533 207q95 0 165 76t84 180l84 604h273l-150 -1067h-174l-61 143q-131 -174 -340 -174q-176 1 -256 101t-52 288l99 709h272l-92 -661q-14 -104 19 -152q34 -47 129 -47z" />
    <glyph glyph-name="v" unicode="v" horiz-adv-x="1107" 
d="M340 0l-258 1067h301l149 -745l351 745h291l-553 -1067h-281z" />
    <glyph glyph-name="w" unicode="w" horiz-adv-x="1581" 
d="M246 0l-144 1067h281l61 -705l312 697h231l111 -694l256 702h272l-436 -1067h-258l-117 711l-313 -711h-256z" />
    <glyph glyph-name="x" unicode="x" horiz-adv-x="1089" 
d="M-61 0l454 547l-289 520h316l166 -324l262 324h291l-428 -514l290 -553h-311l-178 352l-279 -352h-294z" />
    <glyph glyph-name="y" unicode="y" horiz-adv-x="1124" 
d="M209 -414q-70 0 -203 39l55 213q61 -27 127 -26q94 0 154 112l55 101l-286 1042h307l162 -735l352 735h287l-607 -1155q-86 -166 -173 -246t-230 -80z" />
    <glyph glyph-name="z" unicode="z" horiz-adv-x="1030" 
d="M6 0l29 209l633 641h-535l31 217h868l-28 -213l-629 -637h553l-31 -217h-891z" />
    <glyph glyph-name="braceleft" unicode="{" horiz-adv-x="729" 
d="M479 -279q-165 0 -243 84t-58 240l35 246q18 125 -15 181q-34 56 -147 56l31 215q113 -1 161 55t66 183l35 244q20 157 122 241t269 84h115l-29 -207h-80q-147 0 -170 -141l-45 -330q-14 -80 -66 -144t-143 -89v-4q82 -25 117 -91t25 -145l-45 -329q-23 -141 129 -142h80
l-29 -207h-115z" />
    <glyph glyph-name="bar" unicode="|" horiz-adv-x="557" 
d="M31 -279l256 1829h237l-256 -1829h-237z" />
    <glyph glyph-name="braceright" unicode="}" horiz-adv-x="729" 
d="M-6 -279h-117l29 207h82q72 0 116 37t52 105l45 329q12 80 65 146t146 90v4q-86 25 -121 89t-23 144l45 330q23 141 -129 141h-82l29 207h117q166 0 244 -84t57 -241q-10 -84 -37 -244q-16 -125 20 -181t142 -57l-31 -215q-109 0 -159 -57t-68 -180q-4 -35 -16 -123
t-17 -123q-19 -156 -121 -240t-268 -84z" />
    <glyph glyph-name="asciitilde" unicode="~" horiz-adv-x="1304" 
d="M475 860q88 0 206 -68t167 -67q117 0 182 129q62 -30 197 -96q-129 -317 -402 -318q-90 0 -208 70t-164 70q-115 0 -183 -136l-194 97q125 319 399 319z" />
    <glyph glyph-name="nbspace" unicode="&#xa0;" horiz-adv-x="563" 
 />
    <glyph glyph-name="exclamdown" unicode="&#xa1;" horiz-adv-x="620" 
d="M262 1049h277l-43 -299h-277zM53 -408l191 1008h200l-104 -1008h-287z" />
    <glyph glyph-name="cent" unicode="&#xa2;" 
d="M512 403l92 644q-164 -47 -198 -320q-41 -273 106 -324zM1069 578q-33 -168 -151 -279t-310 -129l-24 -182h-129l26 186q-215 23 -298 170q-83 148 -51 378t161 380t342 176l27 186h129l-25 -184q174 -14 263 -129t81 -277l-270 3q4 61 -23 110t-84 64l-92 -652
q66 13 108 63t52 116h268z" />
    <glyph glyph-name="sterling" unicode="&#xa3;" horiz-adv-x="1196" 
d="M767 1454q198 0 292 -112t82 -283l-254 2q4 164 -148 164q-90 1 -144 -53q-53 -54 -63 -126t-20 -206h360l-30 -217h-346q-23 -281 -78 -341q-20 -24 -53 -42h665l-33 -240h-985q4 37 16 108q11 71 15 105q86 37 127 104t63 306h-155l31 217h141q12 160 14 176
q31 210 168 324t335 114z" />
    <glyph glyph-name="currency" unicode="&#xa4;" horiz-adv-x="1241" 
d="M657 -31q-237 1 -359 139t-128 361h-156q20 78 37 168h125q8 49 8 59t13 76h-140l37 168h142q70 221 234 367q165 145 404 145q166 0 262 -70t138 -204l-195 -123q-45 82 -100 119q-55 36 -155 36t-186 -72q-85 -72 -128 -198h451q-36 -81 -72 -168h-422l-21 -135h394
q-39 -96 -74 -168h-322q8 -123 72 -193t176 -69q199 0 293 166q57 -35 168 -105q-156 -299 -496 -299z" />
    <glyph glyph-name="yen" unicode="&#xa5;" 
d="M1276 1419q-139 -203 -414 -604h230l-25 -174h-346l-23 -164h346l-24 -174h-346l-43 -303h-273l43 303h-333l24 174h334l23 164h-334l24 174h217q-31 74 -115 282q-85 208 -132 322h292q74 -190 217 -571l375 571h283z" />
    <glyph glyph-name="brokenbar" unicode="&#xa6;" horiz-adv-x="577" 
d="M37 -178l96 688h262l-96 -688h-262zM182 858l94 670h263l-95 -670h-262z" />
    <glyph glyph-name="section" unicode="&#xa7;" horiz-adv-x="1134" 
d="M801 473q18 125 -127 186q-78 49 -187 119q-125 -35 -139 -133q-6 -47 8 -87q23 -66 148 -141q35 -21 79 -47t47 -28t19 -10q138 30 152 141zM437 -373q-195 1 -303 97t-91 296h252q-6 -180 170 -180t197 131q14 92 -89 135q-37 23 -146 85q-226 128 -282 218
q-55 90 -39 212q25 164 216 266q-115 90 -94 246q22 155 158 249t329 94t291 -108q98 -109 92 -268h-248q10 80 -34 121t-136 41q-176 0 -193 -127q-7 -45 11 -76t75 -55q51 -33 135 -82q243 -142 295 -224q52 -81 37 -190q-27 -184 -217 -287q113 -96 90 -253t-153 -249
t-323 -92z" />
    <glyph glyph-name="dieresis" unicode="&#xa8;" horiz-adv-x="755" 
d="M442 1239l35 252h252l-35 -252h-252zM25 1239l34 252h252l-35 -252h-251z" />
    <glyph glyph-name="copyright" unicode="&#xa9;" horiz-adv-x="1652" 
d="M760 315q-172 0 -256 115t-58 295q25 180 147 296t289 116t253 -89t67 -221l-213 2q-4 57 -35 93t-88 36q-88 0 -138 -66t-64 -168q-14 -101 18 -166t117 -64q61 0 105 35t57 96h215q-32 -143 -138 -227t-278 -83zM743 147q244 0 421 162t213 419t-95 419t-376 162
t-421 -162t-212 -420t95 -419t375 -161zM718 -14q-318 0 -494 207q-175 207 -129 535t285 535t555 207t491 -206t129 -535q-47 -327 -283 -535t-554 -208z" />
    <glyph glyph-name="ordfeminine" unicode="&#xaa;" horiz-adv-x="712" 
d="M315 596q133 0 160 182l2 10q25 182 -110 183q-63 0 -103 -51q-40 -50 -52 -136q-24 -188 103 -188zM258 471q-118 0 -170 86q-51 86 -32 225q18 138 98 226t192 88t162 -66l6 53h150l-84 -596h-109l-25 72q-70 -88 -188 -88z" />
    <glyph glyph-name="guillemotleft" unicode="&#xab;" horiz-adv-x="1161" 
d="M860 565l170 -356l-205 -123l-237 479l373 486l172 -119zM383 565l168 -354l-201 -125l-239 479l374 486l174 -119z" />
    <glyph glyph-name="logicalnot" unicode="&#xac;" horiz-adv-x="1286" 
d="M135 586l35 239h989l-80 -563h-252l45 324h-737z" />
    <glyph glyph-name="registered" unicode="&#xae;" horiz-adv-x="1357" 
d="M611 424q200 0 340 127t170 337t-74 337q-105 127 -305 127t-339 -127t-169 -337t74 -337q103 -127 303 -127zM590 285q-262 0 -406 167q-143 167 -105 433t231 435q194 169 455 169t405 -168t106 -435t-230 -434q-194 -167 -456 -167zM696 932q78 0 88 69q4 33 -14 49
t-61 15h-82l-19 -133h88zM729 1194q115 0 168 -51t41 -142q-16 -119 -117 -167l76 -232h-162l-57 201h-88l-29 -201h-149l84 592h233z" />
    <glyph glyph-name="macron" unicode="&#xaf;" horiz-adv-x="737" 
d="M51 1272l31 213h606l-31 -213h-606z" />
    <glyph glyph-name="degree" unicode="&#xb0;" horiz-adv-x="817" 
d="M385 1001q61 0 108 42q46 43 54 105t-26 102t-96 40q-61 0 -105 -39t-54 -103t24 -106q34 -41 95 -41zM362 825q-140 1 -220 93t-61 229t123 228t246 91q144 0 224 -91t60 -229t-126 -230t-246 -91z" />
    <glyph glyph-name="plusminus" unicode="&#xb1;" horiz-adv-x="2770" 
d="M1952 1491l-762 -1503h-238l762 1503h238zM1655 549l35 239h999l-35 -239h-999zM438 98l62 451h-412l33 233h411l62 432h244l-62 -432h414l-33 -233h-414l-61 -451h-244z" />
    <glyph glyph-name="twosuperior" unicode="&#xb2;" horiz-adv-x="604" 
d="M342 1366q-102 0 -139 -121h-152q29 113 106 183t201 71q124 0 184 -63t45 -180t-179 -257q-12 -8 -98 -90t-95 -90h315l-18 -135h-528l16 119q16 14 143 133q127 120 171 156q107 88 118 168q6 46 -18 76t-72 30z" />
    <glyph glyph-name="threesuperior" unicode="&#xb3;" horiz-adv-x="604" 
d="M262 811q55 0 92 29t45 85q16 111 -112 109h-68l19 131h71q109 0 123 99q6 42 -18 70t-74 28q-113 0 -141 -107h-146q17 102 101 169t202 67t180 -59q60 -59 48 -156q-8 -55 -43 -100t-90 -70q59 -20 84 -70t16 -110q-16 -115 -97 -180q-81 -64 -210 -64q-130 0 -190 72
t-52 180h152q-8 -123 108 -123z" />
    <glyph glyph-name="acute" unicode="&#xb4;" horiz-adv-x="686" 
d="M461 1604l135 -158l-379 -258l-106 112z" />
    <glyph glyph-name="mu" unicode="&#xb5;" horiz-adv-x="1261" 
d="M109 188v1080h1079v-1080h-1079zM440 763q0 30 -8 30q-16 -1 -16 -5t5 -4t5 -44t-33 -73q-10 -11 -14 -12q-4 0 -4 13l-4 116q2 2 2 6t-4 5l-17 -11q4 -45 4 -52t-22 -39q-22 -31 -26 -31q-3 0 -3 47t-6 77q-2 10 -16 11q-57 0 -88 -25q-31 -26 -31 -62t33 -36
q16 0 25 10t9 24t-10 13q-10 0 -10 -8l6 -15q1 -18 -21 -18t-22 36t34 54t66 18q10 0 11 -26l6 -119q0 -4 4 -4q25 0 61 76l4 -72q0 -4 11 -4q35 16 52 55t17 69zM471 723h2q18 0 19 -33v-2q0 -45 -25 -45q-18 0 -18 25v4q-1 51 22 51zM481 731q-21 0 -35 -18
q-14 -19 -14 -35t1 -22t9 -12q8 -7 21 -7q45 0 45 59q0 35 -27 35zM522 709q0 8 10 8t11 -25l-8 -51l4 -4q14 0 14 8v2q0 66 16 66h2l9 -4l8 8q0 14 -15 14l-10 -10q0 -1 -8 -21q-7 31 -14 31t-17 -8t-10 -16l4 -9l4 4v7zM641 700v-12q0 -8 -7 -24t-22 -17q-14 0 -14 24
t8 31q9 21 22 21t13 -23zM641 659v-8q0 -16 10 -16q11 0 19 8t10 16l-4 5q-4 -1 -4 -9t-8 -8q-8 -1 -8 7t6 71v6q10 50 10 57t-20 7q-20 -1 -19 -7q0 -6 4 -5t10 1t6 -6q0 -59 -8 -59l-2 2q-1 8 -19 8q-18 1 -30 -23t-12 -46t22 -23q16 0 26 11t11 11zM716 721l21 -8
q6 0 6 8t-14 8h-2q-33 0 -33 -24q0 -14 18 -26q18 -11 19 -14q2 -3 2 -13t-16 -9q-16 0 -17 8v2q0 8 -8 9q-6 0 -6 -7q0 -18 30 -18t29 27q0 12 -15 23t-19 15t-4 12t9 7zM822 631q16 0 22 18l2 4q0 4 -4 4q-4 -2 -4 -6q-4 -10 -10 -10t-7 4q0 4 5 21t5 41q0 25 -24 24
q-12 0 -19 -9q-6 -9 -6 -11l-4 -4h-2l12 84q0 4 -20 4t-18 -9q0 -2 6 -2h8q6 0 6 -8l-6 -53v-2q-4 -41 -8 -59l-4 -21q0 -2 9 -2t9 4v16q13 60 33 60q14 0 14 -10v-4l-12 -64q1 -10 17 -10zM881 647q-13 0 -13 30t27 46q14 0 14 -38t-28 -38zM925 645q-5 1 -5 19t6 36t6 21
l2 2v2q0 2 -6 2h-2q-8 0 -10 -5t-3 -5q-8 12 -20 12t-35 -33q-6 -18 -6 -32q0 -27 22 -27q11 0 31 20q2 0 2 -4v-8q-1 -8 9 -8t19 6t9 12t-4 7q-10 -17 -15 -17zM977 717q0 4 10 4q25 0 25 -39t-25 -39q-16 0 -16 14v5l6 47v8zM973 764v-2q-6 0 -6 -6l-2 -19v-6
q0 -8 -15 -15q-14 -6 -14 -14t4 -8l16 15q0 4 5 4l2 -2l-11 -76q0 -23 -8 -23h-8q-2 0 -2 -2q0 -10 24 -10t22 4q-1 4 -3 4h-6q-6 0 -6 16t4 17q12 -4 23 -4q12 0 24 14t12 39q0 39 -33 39q-8 -2 -14 -2l-2 2l4 31l-4 4h-6zM1065 719h2q12 -1 12 -21t-18 -20q-10 0 -10 10
t5 21q5 10 9 10zM1055 672h2q17 0 27 15t10 24q0 18 -18 18t-29 -20q-13 -20 -13 -44t15 -24q8 -4 18 -4t22 6t13 14q0 4 -4 5q-4 0 -4 -5q-8 -14 -23 -14q-20 0 -20 25q0 4 4 4z" />
    <glyph glyph-name="paragraph" unicode="&#xb6;" horiz-adv-x="1359" 
d="M522 1438h731l-182 -1284h-237l151 1087h-186l-152 -1087h-237l59 432q-203 10 -300 133t-73 293t136 286q114 116 290 140z" />
    <glyph glyph-name="periodcentered" unicode="&#xb7;" horiz-adv-x="573" 
d="M102 520l48 324h301l-48 -324h-301z" />
    <glyph glyph-name="cedilla" unicode="&#xb8;" horiz-adv-x="626" 
d="M459 -23l-213 -407l-199 100l213 307h199z" />
    <glyph glyph-name="onesuperior" unicode="&#xb9;" horiz-adv-x="604" 
d="M315 758l84 594l-174 -105l21 152l200 125h125l-108 -766h-148z" />
    <glyph glyph-name="ordmasculine" unicode="&#xba;" horiz-adv-x="835" 
d="M372 551q144 0 173 204t-115 203q-147 0 -175 -204q-27 -204 117 -203zM350 416q-150 0 -218 91t-44 247q23 156 119 248t244 92t216 -92q69 -92 47 -247t-118 -247t-246 -92z" />
    <glyph glyph-name="guillemotright" unicode="&#xbb;" horiz-adv-x="1161" 
d="M59 209l269 356l-166 367l205 119l233 -486l-373 -479zM539 211l266 354l-170 367l207 119l235 -486l-375 -479z" />
    <glyph glyph-name="onequarter" unicode="&#xbc;" horiz-adv-x="1884" 
d="M1167 283h179l36 254zM999 164l15 100l399 467h135l-63 -448h94l-16 -119h-95l-22 -164h-139l22 164h-330zM612 872l78 560l-164 -99l21 142l188 118h117l-100 -721h-140zM1522 1589l-807 -1589h-191l807 1589h191z" />
    <glyph glyph-name="onehalf" unicode="&#xbd;" horiz-adv-x="2123" 
d="M1440 668q-104 0 -135 -117h-150q27 109 103 179t198 69q121 -1 180 -63t43 -177t-176 -252q-12 -8 -95 -88t-93 -88h307l-18 -133h-521l17 117q20 16 145 133t139 129q131 106 144 186q6 45 -18 75t-70 30zM639 758l92 649l-190 -117l22 166l217 137h135l-116 -835h-160
zM1540 1589l-807 -1589h-190l807 1589h190z" />
    <glyph glyph-name="threequarters" unicode="&#xbe;" horiz-adv-x="1884" 
d="M504 885q57 1 98 31t49 88t-23 88q-32 29 -98 28h-71l18 140h78q115 0 129 104q6 45 -19 75q-26 30 -79 29q-117 0 -148 -114h-153q16 110 105 180t214 70t190 -64t50 -164q-8 -57 -44 -105t-95 -73q123 -47 104 -192q-16 -121 -101 -189q-86 -67 -222 -67t-202 76
t-55 190h160q-8 -131 115 -131zM1100 313h200l41 291zM909 180l17 113l452 530h154l-72 -510h107l-19 -133h-106l-27 -186h-160l27 186h-373zM1440 1589l-807 -1589h-191l807 1589h191z" />
    <glyph glyph-name="questiondown" unicode="&#xbf;" horiz-adv-x="1044" 
d="M432 743l45 308h283l-45 -308h-283zM394 -434q-216 0 -326 108t-86 285q23 178 204 322q10 9 47 39t45 36t36 31q26 25 32 36t24 35q17 24 23 44t15 49q8 29 12 61h268q-18 -132 -45 -180q-27 -49 -37 -72q-10 -22 -46 -58l-45 -45t-58 -49t-73 -60t-46 -39
q-22 -21 -46 -59q-22 -38 -30 -96t35 -106q43 -47 129 -47q205 0 258 209h266q-28 -196 -184 -320t-372 -124z" />
    <glyph glyph-name="Agrave" unicode="&#xc0;" horiz-adv-x="1298" 
d="M879 1559h-252l-293 296h293zM434 553h383l-112 567zM-119 0l733 1458h289l326 -1458h-303l-62 309h-545l-149 -309h-289z" />
    <glyph glyph-name="Aacute" unicode="&#xc1;" horiz-adv-x="1370" 
d="M987 1911l135 -158l-377 -258l-108 113zM430 553h383l-113 567zM-123 0l733 1458h289l326 -1458h-303l-62 309h-545l-149 -309h-289z" />
    <glyph glyph-name="Acircumflex" unicode="&#xc2;" horiz-adv-x="1370" 
d="M395 1499l307 307h207l217 -307h-233l-102 187l-152 -187h-244zM436 553h383l-112 567zM-115 0l733 1458h289l326 -1458h-303l-62 309h-544l-150 -309h-289z" />
    <glyph glyph-name="Atilde" unicode="&#xc3;" horiz-adv-x="1298" 
d="M649 1819q59 0 135 -44t109 -44q82 0 113 75l141 -65q-39 -99 -109 -153t-144 -54t-152 44t-107 44q-80 0 -117 -76l-139 66q80 207 270 207zM436 553h383l-112 567zM-117 0l733 1458h289l326 -1458h-303l-62 309h-544l-150 -309h-289z" />
    <glyph glyph-name="Adieresis" unicode="&#xc4;" horiz-adv-x="1439" 
d="M848 1534l37 252h252l-37 -252h-252zM430 1534l37 252h252l-37 -252h-252zM438 553h383l-112 567zM-115 0l733 1458h289l326 -1458h-303l-62 309h-544l-150 -309h-289z" />
    <glyph glyph-name="Aring" unicode="&#xc5;" horiz-adv-x="1439" 
d="M770 1649q43 -1 76 27t40 74t-18 73t-69 26q-94 0 -111 -100q-6 -45 16 -73t66 -27zM819 1989q103 0 163 -66q60 -67 46 -175t-94 -172t-182 -65q-102 0 -163 66q-60 66 -46 172t94 173t182 67zM424 553h383l-113 567zM-129 0l733 1458h289l326 -1458h-304l-59 309h-545
l-151 -309h-289z" />
    <glyph glyph-name="AE" unicode="&#xc6;" horiz-adv-x="2058" 
d="M629 651h385l78 553h-113zM-102 0l960 1458h1217l-37 -254h-666l-45 -323h596l-37 -254h-596l-51 -373h686l-37 -254h-966l57 403h-510l-258 -403h-313z" />
    <glyph glyph-name="Ccedilla" unicode="&#xc7;" horiz-adv-x="1349" 
d="M823 1237q-340 0 -413 -510q-14 -137 -4 -250t80 -187t196 -73q125 0 209 71t115 195h299q-53 -229 -233 -371q-143 -114 -331 -137l-200 -383l-199 101l196 283q-233 30 -339 203q-129 210 -82 548q66 459 368 656q163 105 389 105t358 -140q132 -141 130 -371h-289
q2 123 -60 191t-190 69z" />
    <glyph glyph-name="Egrave" unicode="&#xc8;" horiz-adv-x="1261" 
d="M965 1522h-252l-293 297h293zM31 0l205 1458h1015l-34 -252h-732l-47 -327h664l-35 -250h-664l-53 -379h737l-34 -250h-1022z" />
    <glyph glyph-name="Eacute" unicode="&#xc9;" horiz-adv-x="1259" 
d="M1004 1935l135 -157l-379 -258l-107 112zM23 0l204 1458h1016l-35 -252h-731l-47 -327h664l-35 -250h-664l-53 -379h737l-35 -250h-1021z" />
    <glyph glyph-name="Ecircumflex" unicode="&#xca;" horiz-adv-x="1269" 
d="M406 1538l307 307h207l217 -307h-234l-102 186l-152 -186h-243zM29 0l204 1458h1016l-35 -252h-731l-45 -327h664l-37 -250h-664l-53 -379h737l-34 -250h-1022z" />
    <glyph glyph-name="Edieresis" unicode="&#xcb;" horiz-adv-x="1261" 
d="M862 1505l35 252h252l-35 -252h-252zM444 1505l35 252h252l-35 -252h-252zM35 0l205 1458h1015l-34 -252h-732l-45 -327h664l-37 -250h-663l-54 -379h738l-35 -250h-1022z" />
    <glyph glyph-name="Igrave" unicode="&#xcc;" horiz-adv-x="606" 
d="M516 1499h-252l-291 297h291zM33 0l205 1458h286l-205 -1458h-286z" />
    <glyph glyph-name="Iacute" unicode="&#xcd;" horiz-adv-x="606" 
d="M565 1911l135 -158l-376 -258l-109 113zM25 0l204 1458h287l-205 -1458h-286z" />
    <glyph glyph-name="Icircumflex" unicode="&#xce;" horiz-adv-x="606" 
d="M27 1503l307 307h207l217 -307h-234l-104 187l-150 -187h-243zM31 0l205 1458h286l-205 -1458h-286z" />
    <glyph glyph-name="Idieresis" unicode="&#xcf;" horiz-adv-x="606" 
d="M483 1497l37 252h252l-37 -252h-252zM66 1497l36 252h252l-37 -252h-251zM35 0l207 1458h286l-206 -1458h-287z" />
    <glyph glyph-name="Eth" unicode="&#xd0;" horiz-adv-x="1474" 
d="M801 1208h-271l-49 -348h289l-31 -213h-288l-56 -399h211q250 0 351 138t128 345q37 188 -19 331q-26 66 -94 106t-171 40zM606 0h-530l90 647h-148l31 213h148l84 596h555q172 0 292 -56t178 -154q125 -212 72 -513q-47 -329 -238 -531t-534 -202z" />
    <glyph glyph-name="Ntilde" unicode="&#xd1;" horiz-adv-x="1462" 
d="M760 1792q59 0 135 -44t109 -44q82 0 112 76l141 -66q-78 -207 -266 -207q-59 0 -136 44t-107 44q-82 1 -119 -75l-140 65q80 207 271 207zM33 0l205 1458h276l477 -971l135 971h279l-205 -1458h-272l-479 973l-138 -973h-278z" />
    <glyph glyph-name="Ograve" unicode="&#xd2;" horiz-adv-x="1486" 
d="M969 1532h-252l-293 297h293zM789 1237q-356 0 -429 -510q-16 -137 -5 -251t85 -186t207 -71q354 0 428 508q70 510 -286 510zM614 -31q-319 0 -456 211t-89 548t244 549q197 212 513 212t452 -211t89 -551q-48 -340 -241 -549t-512 -209z" />
    <glyph glyph-name="Oacute" unicode="&#xd3;" horiz-adv-x="1447" 
d="M1077 1954l135 -158l-378 -258l-107 113zM780 1237q-354 0 -430 -510q-70 -508 288 -508t429 509q72 509 -287 509zM604 -31q-319 0 -456 211q-136 211 -88 548t245 549t512 212q215 -1 349 -103q257 -197 192 -659q-47 -338 -241 -548t-513 -210z" />
    <glyph glyph-name="Ocircumflex" unicode="&#xd4;" horiz-adv-x="1447" 
d="M473 1544l307 307h207l217 -307h-233l-103 187l-151 -187h-244zM786 1237q-356 0 -427 -509t287 -509t427 509t-287 509zM612 -31q-319 0 -455 211t-88 548t243 549q196 212 511 212q215 -1 349 -103q259 -198 194 -659q-47 -338 -241 -548t-513 -210z" />
    <glyph glyph-name="Otilde" unicode="&#xd5;" horiz-adv-x="1447" 
d="M993 1767q82 0 113 76l141 -65q-76 -207 -266 -207q-59 0 -137 44t-107 44q-83 0 -116 -76l-142 66q80 207 271 206q57 0 133 -44t110 -44zM786 1237q-356 0 -428 -510q-16 -137 -5 -251t85 -186t207 -71q354 0 428 508q69 510 -287 510zM612 -31q-319 0 -455 211
t-89 548t243 549q197 212 513 212t452 -211t89 -551q-48 -340 -241 -549t-512 -209z" />
    <glyph glyph-name="Odieresis" unicode="&#xd6;" horiz-adv-x="1546" 
d="M948 1534l35 252h252l-35 -252h-252zM530 1534l35 252h252l-35 -252h-252zM793 1237q-357 0 -429 -509t286 -509t429 509q72 509 -286 509zM616 -31q-319 0 -455 211t-88 548t244 549q197 212 512 212q215 -1 349 -103q257 -196 192 -659q-47 -338 -241 -548t-513 -210z
" />
    <glyph glyph-name="multiply" unicode="&#xd7;" horiz-adv-x="1308" 
d="M86 297l406 356l-306 357l185 159l305 -354l405 354l140 -159l-404 -357l303 -356l-184 -162l-305 357l-406 -357z" />
    <glyph glyph-name="Oslash" unicode="&#xd8;" horiz-adv-x="1486" 
d="M815 1237q-191 0 -295 -141q-104 -140 -136 -364t17 -343l566 811q-63 37 -152 37zM672 219q356 0 428 508q35 254 -27 367q-476 -680 -577 -826q70 -49 176 -49zM637 -31q-172 0 -301 70l-123 -172q-110 70 -127 76q106 152 131 188q-182 191 -126 585t264 584t495 189
q158 0 278 -62l107 152l127 -76q-92 -131 -113 -157q111 -114 142 -262t2 -357q-49 -340 -244 -549t-512 -209z" />
    <glyph glyph-name="Ugrave" unicode="&#xd9;" horiz-adv-x="1409" 
d="M915 1507h-251l-291 297h293zM574 -33q-280 0 -408 157t-86 454l125 880h284l-124 -880q-47 -358 245 -359q295 0 342 359l125 880h287l-125 -883q-41 -295 -213 -451t-452 -157z" />
    <glyph glyph-name="Uacute" unicode="&#xda;" horiz-adv-x="1409" 
d="M973 1915l137 -158l-379 -258l-106 113zM566 -33q-280 0 -408 157t-84 454l123 880h284l-123 -880q-51 -358 244 -359q293 0 344 359l123 880h287l-125 -883q-41 -295 -213 -451t-452 -157z" />
    <glyph glyph-name="Ucircumflex" unicode="&#xdb;" horiz-adv-x="1409" 
d="M430 1540l307 307h207l217 -307h-233l-103 186l-151 -186h-244zM570 -33q-280 0 -406 157t-86 454l123 880h284l-123 -880q-51 -358 244 -359q293 0 344 359l123 880h287l-123 -883q-41 -295 -214 -451t-453 -157z" />
    <glyph glyph-name="Udieresis" unicode="&#xdc;" horiz-adv-x="1464" 
d="M920 1530l36 252h252l-37 -252h-251zM502 1530l37 252h252l-37 -252h-252zM574 -33q-280 0 -406 157t-86 454l125 880h285l-125 -880q-51 -358 245 -359q152 0 235 90t107 269l125 880h287l-125 -883q-41 -295 -214 -451t-453 -157z" />
    <glyph glyph-name="Yacute" unicode="&#xdd;" horiz-adv-x="1312" 
d="M938 1888l135 -157l-377 -258l-108 112zM383 0l80 578l-381 880h313l252 -610l426 610h301l-626 -880l-80 -578h-285z" />
    <glyph glyph-name="Thorn" unicode="&#xde;" horiz-adv-x="1263" 
d="M643 512q141 0 208 59t82 171t-36 168t-192 57h-230l-63 -455h231zM748 1210q276 0 388 -126t81 -340t-177 -344t-422 -130h-241l-39 -270h-283l207 1458h283l-35 -248h238z" />
    <glyph glyph-name="germandbls" unicode="&#xdf;" horiz-adv-x="1241" 
d="M733 1487q205 0 315 -98t85 -275q-13 -100 -71 -177t-153 -118q135 -37 193 -139t35 -256q-27 -195 -159 -319t-345 -123q-113 0 -201 24q37 162 51 217q61 -16 131 -16q225 0 258 239q18 127 -46 183q-65 55 -205 55h-52l31 215h53q178 0 207 188q10 83 -30 133t-128 50
q-201 0 -237 -256l-143 -1014h-263l150 1044q29 207 174 325t350 118z" />
    <glyph glyph-name="agrave" unicode="&#xe0;" horiz-adv-x="1177" 
d="M788 1221h-251l-291 297h293zM487 195q244 0 289 327l4 19q45 332 -196 331q-115 0 -188 -92t-94 -246t24 -246q45 -93 161 -93zM387 -29q-215 0 -306 154t-57 406q34 253 176 409t348 156t288 -119l12 96h270l-151 -1073h-197l-43 129q-125 -158 -340 -158z" />
    <glyph glyph-name="aacute" unicode="&#xe1;" horiz-adv-x="1177" 
d="M860 1577l135 -158l-379 -258l-106 113zM483 195q255 0 291 346q49 332 -194 331q-115 0 -189 -93t-94 -245t25 -246q45 -93 161 -93zM382 -29q-216 0 -307 154t-57 406q34 253 178 409q142 156 347 156t286 -119l15 96h270l-151 -1073h-197l-43 129q-125 -158 -341 -158
z" />
    <glyph glyph-name="acircumflex" unicode="&#xe2;" horiz-adv-x="1177" 
d="M289 1194l307 307h207l217 -307h-234l-102 186l-152 -186h-243zM487 195q257 0 293 346q49 332 -194 331q-115 0 -189 -93q-73 -93 -95 -245t24 -246q46 -93 161 -93zM387 -29q-215 0 -306 154t-56 406q35 253 176 409t347 156t288 -119l14 96h270l-151 -1073h-197
l-43 129q-127 -158 -342 -158z" />
    <glyph glyph-name="atilde" unicode="&#xe3;" horiz-adv-x="1177" 
d="M786 1378q82 0 113 76l139 -65q-76 -207 -266 -207q-59 0 -137 44t-107 44q-79 0 -116 -76l-140 66q80 207 271 206q59 0 135 -44t108 -44zM492 195q254 0 290 346q49 332 -194 331q-115 0 -189 -93q-73 -93 -95 -245t24 -245q46 -94 164 -94zM390 -29q-216 0 -307 154
t-56 406q35 253 176 409t347 156t288 -119l14 96h270l-151 -1073h-197l-43 129q-125 -158 -341 -158z" />
    <glyph glyph-name="adieresis" unicode="&#xe4;" horiz-adv-x="1177" 
d="M745 1176l37 251h252l-37 -251h-252zM328 1176l37 251h251l-36 -251h-252zM494 195q244 0 288 327l4 19q45 332 -196 331q-115 0 -188 -92t-94 -246t24 -246q45 -93 162 -93zM393 -29q-215 0 -306 154t-57 406q34 253 176 409t348 156t288 -119l12 96h270l-149 -1073
h-197l-45 129q-125 -158 -340 -158z" />
    <glyph glyph-name="aring" unicode="&#xe5;" horiz-adv-x="1177" 
d="M670 1311q42 -1 74 27t39 74t-17 73q-25 27 -68 27q-44 0 -74 -28q-30 -26 -37 -72t16 -74q24 -27 67 -27zM717 1651q101 0 163 -66t48 -173t-95 -173q-81 -65 -183 -65t-163 64q-59 64 -45 173t94 175t181 65zM477 195q257 0 293 346q45 332 -195 331q-115 0 -189 -93
t-94 -245q-22 -152 23 -246q45 -93 162 -93zM377 -29q-215 0 -306 154t-57 406q34 253 175 409q143 156 349 156t287 -119l13 96h270l-150 -1073h-196l-43 129q-127 -158 -342 -158z" />
    <glyph glyph-name="ae" unicode="&#xe6;" horiz-adv-x="1800" 
d="M436 186q119 0 193 74t92 203q-240 -10 -291 -23q-109 -27 -127 -123q-2 -4 -2 -10q-8 -57 30 -89t105 -32zM1278 887q-108 0 -176 -67t-88 -175h448q31 242 -184 242zM1184 180q164 0 221 144h264q-47 -170 -185 -262t-325 -91q-137 1 -235 53t-136 152
q-158 -203 -417 -203q-168 0 -266 83q-97 83 -74 243q17 128 117 223q69 64 224 101q87 21 193 23q105 3 183 3l10 74q22 166 -148 166t-207 -125h-256q86 332 496 332q219 0 311 -146q140 146 364 146t328 -148t68 -405l-12 -86h-717q-12 -127 35 -202t164 -75z" />
    <glyph glyph-name="ccedilla" unicode="&#xe7;" horiz-adv-x="1079" 
d="M700 1096q206 0 310 -119t82 -287h-267q10 180 -159 180q-226 0 -274 -336t177 -337q86 0 144 49q57 49 73 135h271q-39 -184 -174 -296q-99 -82 -238 -104l-207 -395l-198 101l203 293q-107 16 -181 69q-195 143 -147 483q35 250 188 407q154 157 397 157z" />
    <glyph glyph-name="egrave" unicode="&#xe8;" horiz-adv-x="1146" 
d="M831 1171h-251l-293 297h293zM621 887q-111 0 -182 -69t-89 -173h461q31 242 -190 242zM528 184q172 0 224 142h262q-46 -172 -186 -264t-330 -91q-246 0 -360 153q-114 152 -78 406t195 410t395 156t343 -148t72 -397l-14 -92h-727q-14 -123 38 -199t166 -76z" />
    <glyph glyph-name="eacute" unicode="&#xe9;" horiz-adv-x="1146" 
d="M870 1571l138 -158l-379 -258l-107 113zM614 887q-112 0 -182 -69t-88 -173h461q27 242 -191 242zM520 184q172 0 223 142h263q-44 -172 -184 -264t-330 -91q-248 0 -362 153q-114 152 -77 406t196 410t395 156t343 -148t70 -397q0 -22 -15 -92h-727q-14 -123 38 -199
t167 -76z" />
    <glyph glyph-name="ecircumflex" unicode="&#xea;" horiz-adv-x="1146" 
d="M279 1196l307 307h207l217 -307h-234l-102 186l-152 -186h-243zM618 887q-112 0 -182 -69t-88 -173h461q27 242 -191 242zM526 184q170 0 222 142h262q-44 -172 -184 -264t-330 -91q-246 0 -360 152q-114 153 -78 407t195 410t395 156t343 -148t72 -397q-10 -47 -16 -92
h-728q-12 -123 40 -199t167 -76z" />
    <glyph glyph-name="edieresis" unicode="&#xeb;" horiz-adv-x="1146" 
d="M762 1239l37 252h252l-37 -252h-252zM344 1239l37 252h252l-37 -252h-252zM618 887q-110 0 -180 -69t-88 -173h461q27 242 -193 242zM526 184q172 0 224 142h262q-46 -172 -186 -264t-330 -91q-246 0 -360 153q-114 152 -77 406t196 410t395 156t342 -148t71 -397
q-3 -15 -14 -92h-727q-14 -123 38 -199t166 -76z" />
    <glyph glyph-name="igrave" unicode="&#xec;" horiz-adv-x="475" 
d="M467 1206h-252l-291 297h291zM39 0l149 1067h275l-150 -1067h-274z" />
    <glyph glyph-name="iacute" unicode="&#xed;" horiz-adv-x="475" 
d="M600 1604l135 -158l-379 -258l-106 112zM33 0l149 1067h275l-150 -1067h-274z" />
    <glyph glyph-name="icircumflex" unicode="&#xee;" horiz-adv-x="475" 
d="M-18 1194l305 307h207l217 -307h-234l-102 186l-152 -186h-241zM39 0l149 1067h275l-150 -1067h-274z" />
    <glyph glyph-name="idieresis" unicode="&#xef;" horiz-adv-x="475" 
d="M420 1239l37 252h252l-37 -252h-252zM2 1239l37 252h252l-37 -252h-252zM39 0l151 1067h275l-152 -1067h-274z" />
    <glyph glyph-name="eth" unicode="&#xf0;" horiz-adv-x="1206" 
d="M608 823q-118 0 -186 -88t-88 -227t24 -226t167 -87q122 0 193 89t89 228q47 311 -199 311zM494 -29q-242 -1 -357 145t-81 388t185 390t373 148q115 0 156 -63q-16 154 -135 227q-52 -18 -109 -41q-57 -22 -88 -32q-16 68 -37 124l123 43q-55 47 -118 86l163 111
q102 -47 191 -104l168 59q14 -53 35 -125q-34 -13 -61 -22q-27 -10 -38 -15q139 -141 201 -315t26 -430t-195 -415q-160 -159 -402 -159z" />
    <glyph glyph-name="ntilde" unicode="&#xf1;" horiz-adv-x="1212" 
d="M571 1456q59 0 133 -44t109 -44q80 0 115 76l139 -66q-76 -207 -266 -207q-59 0 -137 44t-107 45q-84 0 -117 -76l-141 65q80 207 272 207zM774 1098q176 0 253 -100t50 -289l-98 -709h-272l92 662q14 102 -20 149t-120 47q-115 0 -185 -94t-87 -225l-76 -539h-270
l149 1067h183l53 -143q129 174 348 174z" />
    <glyph glyph-name="ograve" unicode="&#xf2;" horiz-adv-x="1236" 
d="M834 1223h-252l-291 297h293zM528 197q244 0 290 337t-195 336q-238 0 -286 -336t191 -337zM494 -29q-246 0 -360 152t-78 410q36 259 197 411t405 152t360 -154q115 -154 79 -408q-36 -255 -197 -409q-160 -154 -406 -154z" />
    <glyph glyph-name="oacute" unicode="&#xf3;" horiz-adv-x="1236" 
d="M846 1573l137 -158l-379 -258l-106 113zM524 197q244 0 290 337t-196 336q-238 0 -286 -336t192 -337zM490 -29q-246 0 -360 152t-78 410q36 259 197 411t405 152t360 -154q115 -154 79 -408q-36 -255 -196 -409q-161 -154 -407 -154z" />
    <glyph glyph-name="ocircumflex" unicode="&#xf4;" horiz-adv-x="1236" 
d="M332 1219l307 307h207l217 -307h-234l-102 186l-152 -186h-243zM528 197q240 0 288 337t-193 336q-238 0 -286 -336q-49 -336 191 -337zM494 -29q-246 0 -360 152t-78 410q36 259 196 411t404 152t361 -154q116 -154 80 -408q-36 -255 -197 -409q-160 -154 -406 -154z
" />
    <glyph glyph-name="otilde" unicode="&#xf5;" horiz-adv-x="1257" 
d="M596 1479q59 0 135 -44t109 -44q82 0 112 75l142 -65q-76 -207 -267 -207q-61 0 -137 44t-106 44q-84 0 -117 -76l-141 66q80 207 270 207zM530 197q244 0 290 337t-195 336q-238 0 -286 -336t191 -337zM496 -29q-246 0 -360 152t-77 410q37 259 197 411t404 152
t360 -154q115 -154 79 -408q-36 -255 -196 -409q-161 -154 -407 -154z" />
    <glyph glyph-name="odieresis" unicode="&#xf6;" horiz-adv-x="1236" 
d="M768 1239l37 252h252l-37 -252h-252zM350 1239l37 252h252l-37 -252h-252zM530 197q240 0 288 337t-193 336q-238 0 -286 -336q-49 -336 191 -337zM496 -29q-246 0 -360 152t-78 410q36 259 197 411t405 152t360 -154q115 -154 79 -408q-36 -255 -197 -409
q-160 -154 -406 -154z" />
    <glyph glyph-name="divide" unicode="&#xf7;" horiz-adv-x="1269" 
d="M123 537l35 239h987l-35 -239h-987zM424 117l39 280h270l-39 -280h-270zM535 913l38 281h271l-39 -281h-270z" />
    <glyph glyph-name="oslash" unicode="&#xf8;" horiz-adv-x="1214" 
d="M653 870q-238 0 -286 -335l-5 -31q-12 -94 9 -172q245 348 366 522q-37 16 -84 16zM559 197q244 0 289 338q20 133 -12 215q-287 -408 -375 -533q39 -20 98 -20zM686 1096q111 0 197 -37l92 129h170l-144 -203q168 -145 125 -450q-36 -258 -194 -411t-404 -153
q-125 0 -215 39l-106 -147h-158l150 225q-78 88 -105 192t-6 255q37 253 196 407t402 154z" />
    <glyph glyph-name="ugrave" unicode="&#xf9;" horiz-adv-x="1157" 
d="M831 1221h-251l-291 297h293zM503 207q95 0 164 76t83 180l86 604h272l-152 -1067h-174l-61 143q-131 -174 -340 -174q-176 1 -255 101t-52 288l100 709h272l-94 -661q-14 -104 21 -152t130 -47z" />
    <glyph glyph-name="uacute" unicode="&#xfa;" horiz-adv-x="1224" 
d="M846 1575l135 -158l-379 -258l-106 113zM498 207q94 0 165 76q69 76 82 180l86 604h273l-150 -1067h-174l-63 143q-131 -174 -340 -174q-176 1 -255 101t-52 288l100 709h272l-94 -661q-14 -104 21 -152t129 -47z" />
    <glyph glyph-name="ucircumflex" unicode="&#xfb;" horiz-adv-x="1157" 
d="M270 1219l308 307h206l217 -307h-233l-102 186l-152 -186h-244zM501 207q95 0 165 76t84 180l84 604h272l-150 -1067h-174l-61 143q-131 -174 -340 -174q-176 1 -255 101t-52 288l98 709h272l-92 -661q-14 -104 20 -152t129 -47z" />
    <glyph glyph-name="udieresis" unicode="&#xfc;" horiz-adv-x="1157" 
d="M743 1182l35 252h252l-35 -252h-252zM326 1182l34 252h252l-34 -252h-252zM509 207q95 0 164 76t83 180l86 604h272l-151 -1067h-175l-61 143q-131 -174 -340 -174q-176 1 -255 101t-52 288l100 709h273l-95 -661q-14 -104 21 -152t130 -47z" />
    <glyph glyph-name="yacute" unicode="&#xfd;" horiz-adv-x="1124" 
d="M870 1546l136 -157l-379 -259l-107 113zM174 -414q-70 0 -199 39l54 213q57 -27 127 -26q92 0 153 112l53 101l-284 1042h307l160 -735l354 735h287l-606 -1155q-88 -166 -176 -246t-230 -80z" />
    <glyph glyph-name="thorn" unicode="&#xfe;" horiz-adv-x="1245" 
d="M694 874q-242 0 -288 -329l-3 -17q-47 -336 193 -335q114 1 186 93t94 248t-22 248q-43 92 -160 92zM635 -29q-207 0 -283 133l-71 -505h-271l264 1871h271l-74 -516q117 142 329 142t301 -158t54 -402t-174 -404t-346 -161z" />
    <glyph glyph-name="ydieresis" unicode="&#xff;" horiz-adv-x="1124" 
d="M756 1143l37 252h251l-36 -252h-252zM338 1143l37 252h252l-37 -252h-252zM186 -414q-71 0 -200 39l53 213q57 -27 127 -26q92 0 153 112l56 101l-287 1042h307l162 -735l352 735h287l-606 -1155q-86 -166 -173 -246t-231 -80z" />
    <glyph glyph-name="Amacron" unicode="&#x100;" horiz-adv-x="1466" 
d="M461 1507l31 213h606l-31 -213h-606zM442 553h383l-112 567zM-111 0l736 1458h288l324 -1458h-303l-60 309h-544l-152 -309h-289z" />
    <glyph glyph-name="amacron" unicode="&#x101;" horiz-adv-x="1198" 
d="M356 1165l31 213h606l-30 -213h-607zM498 195q254 0 290 346q49 332 -194 331q-114 0 -188 -93t-94 -245t24 -246q45 -93 162 -93zM396 -29q-216 0 -307 154t-56 406q35 253 176 409t347 156t288 -119l14 96h270l-151 -1073h-197l-43 129q-125 -158 -341 -158z" />
    <glyph glyph-name="Aogonek" unicode="&#x104;" horiz-adv-x="1470" 
d="M1333 -272q-86 -94 -133 -140q-104 31 -159 98q-54 66 -41 150t73 164h-90l-61 309h-545l-150 -309h-288l733 1458h289l325 -1458q-45 -66 -51 -120t18 -87q25 -32 80 -65zM492 553h382l-112 567z" />
    <glyph glyph-name="aogonek" unicode="&#x105;" horiz-adv-x="1105" 
d="M442 -29q-215 0 -307 155t-57 406q35 252 177 408t348 156t288 -119l14 96h271l-152 -1073h-59q-41 -62 -49 -118t16 -88q25 -32 80 -66q-86 -94 -131 -140q-104 31 -160 97q-55 67 -43 149t74 166h75l-43 129q-127 -158 -342 -158zM543 195q257 0 293 346
q49 332 -195 331q-115 0 -189 -93t-95 -245q-23 -152 23 -246q46 -93 163 -93z" />
    <glyph glyph-name="Cacute" unicode="&#x106;" horiz-adv-x="1523" 
d="M1063 1976l137 -157l-379 -258l-106 112zM799 1489q239 0 371 -141t133 -371h-289q2 123 -60 191t-190 69q-182 0 -282 -141t-132 -369q-14 -137 -4 -250t81 -187t197 -73q126 0 208 71t112 195h299q-53 -229 -231 -371t-428 -143q-315 0 -444 209q-128 209 -82 546
t234 551t507 214z" />
    <glyph glyph-name="cacute" unicode="&#x107;" horiz-adv-x="1081" 
d="M879 1575l137 -158l-379 -258l-107 113zM477 -27q-252 0 -355 155q-102 154 -68 404t188 407t399 157q205 0 308 -119t81 -287h-266q10 180 -160 180q-225 0 -271 -336t175 -337q86 0 143 49t76 135h270q-41 -184 -175 -296t-345 -112z" />
    <glyph glyph-name="Ccaron" unicode="&#x10c;" horiz-adv-x="1523" 
d="M1210 1868l-311 -309h-209l-217 309h201l139 -187l195 187h202zM1311 977h-289q2 123 -61 191t-191 69q-340 0 -414 -510q-14 -137 -4 -250t81 -187t196 -73q125 0 209 71t114 195h299q-53 -229 -232 -371t-429 -143q-315 0 -445 210q-129 210 -82 548q66 460 369 656
q162 105 388 105t359 -140q132 -141 132 -371z" />
    <glyph glyph-name="ccaron" unicode="&#x10d;" horiz-adv-x="1118" 
d="M1083 1497l-309 -309h-209l-219 309h201l139 -186l195 186h202zM502 -27q-190 0 -295 76q-194 142 -148 483q35 250 189 407t379 157t328 -119t79 -287h-266q14 180 -158 180q-225 0 -273 -336t177 -337q86 0 142 49t75 135h270q-39 -184 -174 -296t-325 -112z" />
    <glyph glyph-name="Dcaron" unicode="&#x10e;" horiz-adv-x="1525" 
d="M1155 1833l-309 -309h-209l-219 309h200l142 -186l192 186h203zM549 248q258 0 369 144q126 169 136 490q2 157 -69 234q-85 94 -278 92h-222l-135 -960h199zM561 0h-530l205 1456h555q173 0 293 -56t178 -154q125 -212 71 -513q-47 -329 -238 -531t-534 -202z" />
    <glyph glyph-name="dcaron" unicode="&#x10f;" horiz-adv-x="1484" 
d="M1526 1180q-20 -142 -80 -230t-197 -141l-55 119q86 39 123 90t49 137h-145l45 309h301zM524 195q257 0 293 346q49 332 -194 331q-115 0 -189 -93t-96 -245t24 -246q45 -93 162 -93zM424 -29q-215 0 -307 155q-91 155 -57 406q34 252 176 408t349 156q206 0 287 -119
l70 493h270l-206 -1470h-197l-43 129q-127 -158 -342 -158z" />
    <glyph glyph-name="Dslash" unicode="&#x110;" horiz-adv-x="1437" 
d="M575 248q260 0 362 136q103 136 130 347q39 283 -50 381q-90 98 -284 96h-221l-60 -428h171l-27 -190h-171l-48 -342h198zM588 0h-531l83 590h-140l27 190h140l95 676h555q172 0 293 -56t178 -154q125 -214 72 -513q-46 -329 -238 -531t-534 -202z" />
    <glyph glyph-name="dmacron" unicode="&#x111;" horiz-adv-x="1255" 
d="M424 -29q-215 0 -307 155q-91 155 -57 406q34 252 176 408t349 156q206 0 287 -119l30 209h-191l30 213h191l10 71h270l-10 -71h146l-31 -213h-145l-166 -1186h-197l-43 129q-127 -158 -342 -158zM524 195q257 0 293 346q49 332 -194 331q-115 0 -189 -93t-96 -245
t24 -246q45 -93 162 -93z" />
    <glyph glyph-name="Emacron" unicode="&#x112;" horiz-adv-x="1304" 
d="M500 1511l30 213h607l-31 -213h-606zM37 0l205 1458h1015l-34 -252h-731l-46 -327h664l-37 -250h-663l-54 -379h738l-35 -250h-1022z" />
    <glyph glyph-name="emacron" unicode="&#x113;" horiz-adv-x="1140" 
d="M358 1145l29 213h606l-28 -213h-607zM629 887q-111 0 -182 -69t-89 -173h461q27 242 -190 242zM537 184q170 0 221 142h262q-45 -172 -184 -264t-330 -91q-246 0 -360 152q-114 153 -78 407t195 410t395 156t344 -148q121 -168 55 -489h-727q-12 -123 40 -199t167 -76z
" />
    <glyph glyph-name="Edotaccent" unicode="&#x116;" horiz-adv-x="1304" 
d="M664 1493l36 260h271l-37 -260h-270zM35 0l205 1458h1015l-34 -252h-732l-45 -327h664l-37 -250h-663l-54 -379h738l-35 -250h-1022z" />
    <glyph glyph-name="edotaccent" unicode="&#x117;" horiz-adv-x="1140" 
d="M522 1130l37 261h270l-36 -261h-271zM627 887q-111 0 -182 -69t-89 -173h461q27 242 -190 242zM532 184q172 0 224 142h262q-45 -172 -184 -264t-330 -91q-248 0 -362 153q-114 152 -76 406t195 410q159 156 395 156t343 -148t72 -397q-10 -47 -16 -92h-727
q-14 -123 38 -199t166 -76z" />
    <glyph glyph-name="Ecaron" unicode="&#x11a;" horiz-adv-x="1304" 
d="M1165 1819l-309 -310h-209l-219 310h201l139 -187l195 187h202zM31 0l205 1458h1015l-34 -252h-732l-47 -327h664l-35 -250h-664l-53 -379h737l-34 -250h-1022z" />
    <glyph glyph-name="ecaron" unicode="&#x11b;" horiz-adv-x="1140" 
d="M1079 1464l-309 -309h-209l-219 309h201l139 -186l195 186h202zM621 887q-111 0 -181 -69t-88 -173h461q27 242 -192 242zM528 184q172 0 224 142h262q-46 -172 -186 -264t-330 -91q-246 0 -360 153q-114 152 -77 406t196 410t395 156t342 -148t71 -397l-14 -92h-727
q-14 -123 38 -199t166 -76z" />
    <glyph glyph-name="Gcommaaccent" unicode="&#x122;" horiz-adv-x="1421" 
d="M768 -365q-20 -143 -82 -230t-197 -140l-55 119q88 39 125 90t49 137h-145l43 309h301zM895 1489q250 0 392 -138t118 -339l-289 2q-4 225 -256 225q-196 0 -296 -152q-101 -152 -128 -360q-74 -512 291 -512q166 0 249 86t107 260h-313l33 236h581l-110 -797h-160
l-20 174q-54 -82 -158 -143t-244 -62q-326 0 -462 208t-88 548t246 552t507 212z" />
    <glyph glyph-name="gcommaaccent" unicode="&#x123;" horiz-adv-x="1157" 
d="M934 1174h199q2 -18 -5 -70q-20 -147 -163 -213q43 -92 28 -193q-25 -176 -167 -281t-322 -106q-88 0 -168 29q-57 -31 -64 -76q-10 -78 107 -78h176q244 0 336 -71q115 -90 92 -256q-13 -100 -69 -173q-138 -181 -520 -183q-226 -1 -340 89t-94 238t157 211
q-45 27 -67 77t-15 105q18 137 158 215q-89 106 -67 276t161 274t304 104t257 -68q72 23 86 129v21zM446 -294q276 0 295 147q12 93 -77 115q-65 16 -158 16h-201q-45 -12 -77 -47t-38 -84q-20 -147 256 -147zM588 899q-86 0 -146 -55q-60 -56 -71 -144q-13 -88 31 -142
t130 -54t145 54t71 142t-31 144t-129 55zM514 1456q20 142 80 230t197 141l55 -119q-86 -39 -123 -90t-49 -137h145l-45 -310h-301z" />
    <glyph glyph-name="Imacron" unicode="&#x12a;" horiz-adv-x="532" 
d="M74 1751h606l-31 -213h-606zM289 0h-273l207 1470h273z" />
    <glyph glyph-name="imacron" unicode="&#x12b;" horiz-adv-x="483" 
d="M57 1104l31 213h606l-30 -213h-607zM51 0l152 1067h274l-151 -1067h-275z" />
    <glyph glyph-name="Iogonek" unicode="&#x12e;" horiz-adv-x="509" 
d="M387 -272q-49 -56 -133 -140q-104 31 -159 98q-104 129 30 314h213q-96 -160 -7 -236q19 -16 56 -36zM338 0h-272l206 1470h273z" />
    <glyph glyph-name="iogonek" unicode="&#x12f;" horiz-adv-x="483" 
d="M393 -272q-49 -56 -133 -140q-104 31 -159 98q-104 129 30 314h-61l149 1067h275l-150 -1067q-84 -139 -32 -207q26 -32 81 -65zM233 1208l37 260h285l-37 -260h-285z" />
    <glyph glyph-name="dotlessi" unicode="&#x131;" horiz-adv-x="565" 
d="M70 0l149 1067h275l-150 -1067h-274z" />
    <glyph glyph-name="Kcommaaccent" unicode="&#x136;" horiz-adv-x="1376" 
d="M694 -360q-20 -142 -80 -230t-198 -141l-54 119q86 39 123 90t50 137h-146l43 309h301zM109 0l204 1458h287l-88 -629l645 629h328l-553 -549l401 -909h-325l-303 700l-244 -235l-66 -465h-286z" />
    <glyph glyph-name="kcommaaccent" unicode="&#x137;" 
d="M616 -356q-20 -142 -81 -230t-197 -141l-55 119q88 39 125 90t49 137h-146l43 309h301zM90 0l207 1470h268l-112 -804l462 401h328l-438 -389l323 -678h-303l-235 504l-182 -160l-50 -344h-268z" />
    <glyph glyph-name="Lacute" unicode="&#x139;" horiz-adv-x="1167" 
d="M623 1942l135 -158l-377 -258l-109 112zM23 0l204 1458h285l-170 -1202h684l-35 -256h-968z" />
    <glyph glyph-name="lacute" unicode="&#x13a;" horiz-adv-x="483" 
d="M748 1804l-379 -258l-107 113l350 303zM274 0h-272l207 1470h272z" />
    <glyph glyph-name="Lcommaaccent" unicode="&#x13b;" horiz-adv-x="1122" 
d="M645 -385q-21 -143 -81 -230t-195 -141l-56 119q86 39 123 90t49 137h-145l45 310h301zM109 0l206 1458h285l-170 -1202h684l-37 -256h-968z" />
    <glyph glyph-name="lcommaaccent" unicode="&#x13c;" horiz-adv-x="483" 
d="M324 -385q-20 -143 -82 -230t-197 -141l-53 119q86 39 123 90t49 137h-146l43 310h301zM362 0h-272l207 1470h272z" />
    <glyph glyph-name="Lcaron" unicode="&#x13d;" horiz-adv-x="1167" 
d="M1167 1182q-21 -142 -81 -230t-195 -141l-55 119q88 39 125 90t49 137h-146l43 309h301zM55 0l205 1458h285l-168 -1202h684l-37 -256h-969z" />
    <glyph glyph-name="lcaron" unicode="&#x13e;" horiz-adv-x="858" 
d="M850 1186q-20 -142 -80 -230t-197 -141l-55 119q88 39 125 90t49 137h-145l43 309h301zM309 0h-272l207 1470h272z" />
    <glyph glyph-name="Lslash" unicode="&#x141;" horiz-adv-x="1196" 
d="M90 0l72 508l-195 -117l33 232l195 116l102 719h285l-76 -534l350 211l-33 -234l-350 -209l-61 -436h684l-37 -256h-969z" />
    <glyph glyph-name="lslash" unicode="&#x142;" horiz-adv-x="727" 
d="M401 0h-272l88 621q-53 -29 -199 -105l31 207q37 23 108 63t89 50l90 634h272l-65 -469q29 15 107 63t106 64l-31 -219l-213 -125z" />
    <glyph glyph-name="Nacute" unicode="&#x143;" horiz-adv-x="1462" 
d="M1026 1964l135 -158l-379 -258l-106 113zM20 0l205 1458h277l477 -971l135 971h279l-205 -1458h-273l-479 973l-137 -973h-279z" />
    <glyph glyph-name="Ncommaaccent" unicode="&#x145;" horiz-adv-x="1462" 
d="M831 -385q-20 -143 -80 -230t-196 -141l-55 119q86 39 123 90t49 137h-146l45 310h301zM109 0l206 1458h277l475 -971l137 971h279l-207 -1458h-272l-480 973l-137 -973h-278z" />
    <glyph glyph-name="ncommaaccent" unicode="&#x146;" horiz-adv-x="1165" 
d="M674 -385q-20 -143 -80 -230t-197 -141l-55 119q88 39 125 90t49 137h-145l43 310h301zM852 1098q176 0 253 -100t50 -289l-98 -709h-273l93 662q14 102 -19 149t-119 47q-117 0 -187 -94t-87 -225l-76 -539h-270l149 1067h183l53 -143q133 174 348 174z" />
    <glyph glyph-name="omacron" unicode="&#x14d;" horiz-adv-x="1165" 
d="M358 1126l29 213h606l-28 -213h-607zM542 197q242 0 288 337t-195 336q-238 0 -286 -336q-49 -336 193 -337zM506 -29q-246 0 -360 152t-78 410q36 259 198 411q160 152 405 152t359 -154t79 -408q-36 -255 -196 -409q-161 -154 -407 -154z" />
    <glyph glyph-name="OE" unicode="&#x152;" horiz-adv-x="2142" 
d="M796 1237q-207 0 -300 -160q-81 -138 -109 -348q-14 -135 -10 -249t74 -188t202 -73q180 0 275 120q94 120 131 333l6 67q33 196 -14 344q-23 70 -87 112q-65 42 -168 42zM606 -31q-162 -1 -276 61t-169 166q-118 229 -67 533q39 310 218 532q87 107 218 167t291 61
q219 0 332 -139l14 106h990l-35 -250h-711l-45 -327h643l-35 -250h-643l-53 -379h731l-37 -250h-1009l16 104q-154 -135 -373 -135z" />
    <glyph glyph-name="oe" unicode="&#x153;" horiz-adv-x="1908" 
d="M646 870q-234 0 -280 -338t185 -337q227 -1 280 335q49 340 -185 340zM1386 887q-106 0 -176 -68t-88 -174h451q27 242 -187 242zM1290 180q160 0 223 146h263q-50 -172 -186 -264t-324 -91q-236 0 -353 181q-157 -180 -401 -180t-352 152t-73 406q36 254 191 410
q156 156 400 156t346 -183q146 183 386 183t346 -148q123 -172 54 -489h-716q-12 -123 38 -201t158 -78z" />
    <glyph glyph-name="Racute" unicode="&#x154;" horiz-adv-x="1308" 
d="M913 1935l136 -157l-379 -258l-107 112zM756 1214h-279l-59 -419h295q235 0 266 213q14 90 -40 148t-183 58zM793 1456q400 0 468 -282q17 -76 5 -164q-41 -291 -299 -404q31 -102 97 -304t97 -302h-307q-150 494 -166 549h-305l-78 -549h-282l204 1456h566z" />
    <glyph glyph-name="racute" unicode="&#x155;" horiz-adv-x="837" 
d="M668 1561l135 -158l-377 -258l-109 112zM737 1083q45 0 99 -8q-24 -122 -56 -254q-43 12 -102 13q-117 0 -196 -72t-95 -184l-82 -578h-272l149 1067h166l70 -156q115 172 319 172z" />
    <glyph glyph-name="Rcommaaccent" unicode="&#x156;" horiz-adv-x="1308" 
d="M713 -385q-21 -143 -81 -230t-196 -141l-55 119q86 39 123 90t49 137h-145l45 310h301zM842 1214h-279l-59 -419h295q237 0 268 213q12 90 -42 148t-183 58zM879 1456q404 0 470 -284q17 -77 5 -162q-41 -291 -301 -404q33 -102 97 -304t97 -302h-307q-39 122 -166 549
h-305l-78 -549h-282l204 1456h566z" />
    <glyph glyph-name="rcommaaccent" unicode="&#x157;" horiz-adv-x="827" 
d="M352 -332q-20 -143 -82 -230t-196 -140l-56 118q88 39 125 90t50 138h-146l43 309h301zM821 1083q43 0 97 -8l-54 -254q-47 12 -102 13q-117 0 -197 -72t-96 -184l-82 -578h-272l151 1067h166l70 -156q113 172 319 172z" />
    <glyph glyph-name="Rcaron" unicode="&#x158;" horiz-adv-x="1423" 
d="M836 1214h-279l-59 -419h295q237 0 268 213q14 90 -41 148t-184 58zM874 1456q404 0 468 -282q17 -76 6 -164q-41 -291 -299 -404q33 -102 97 -304t97 -302h-307q-78 248 -166 549h-305l-78 -549h-283l205 1456h565zM748 -309q-20 -143 -82 -231t-197 -140l-55 119
q88 39 125 90t49 137h-146l43 309h301z" />
    <glyph glyph-name="rcaron" unicode="&#x159;" horiz-adv-x="847" 
d="M819 1083q45 0 99 -8l-56 -254q-43 12 -102 13q-117 0 -197 -72t-96 -184l-80 -578h-272l149 1067h166l70 -156q113 172 319 172zM360 -311q-20 -143 -80 -231t-196 -140l-55 119q88 39 125 90t49 137h-146l43 309h301z" />
    <glyph glyph-name="Sacute" unicode="&#x15a;" horiz-adv-x="1308" 
d="M938 1942l135 -158l-377 -258l-108 112zM524 -31q-260 0 -410 125t-122 375h287q-12 -133 63 -196q76 -62 213 -62t220 52t96 155t-69 140q-62 28 -169 45q-106 17 -135 22q-207 25 -315 130t-80 301t202 314t427 119q253 0 387 -134t106 -331h-281q10 102 -59 164
q-70 61 -191 61t-205 -45t-96 -128t26 -120q39 -37 93 -49q53 -12 86 -17t94 -14t105 -18q417 -76 368 -438q-31 -215 -206 -333t-435 -118z" />
    <glyph glyph-name="sacute" unicode="&#x15b;" horiz-adv-x="1083" 
d="M862 1577l135 -158l-379 -258l-106 113zM439 -29q-207 0 -329 92t-106 279h258q-4 -86 48 -124t151 -38q203 0 219 121q14 87 -102 113q-59 11 -109 18q-49 6 -74 10q-161 10 -243 96t-62 232t160 236q139 90 341 90q203 0 311 -98t87 -250l-252 -3q0 147 -176 148
q-90 0 -146 -31q-57 -31 -65 -83t23 -76q31 -25 124 -39t163 -28q178 -37 239 -109q61 -71 40 -227q-22 -155 -158 -242t-342 -87z" />
    <glyph glyph-name="Scaron" unicode="&#x160;" horiz-adv-x="1308" 
d="M1184 1849l-310 -309h-208l-220 309h201l139 -186l195 186h203zM530 -31q-260 0 -410 125t-122 375h287q-12 -133 64 -196q77 -62 214 -62t219 52t95 155t-69 140q-62 28 -169 45q-106 17 -135 22q-207 25 -315 130q-107 105 -79 301t202 314t427 119q254 0 388 -135
t104 -330h-281q10 102 -59 164q-70 61 -191 61q-120 0 -204 -45t-97 -128t26 -120t93 -49q53 -12 86 -17t94 -14t105 -18q417 -76 368 -438q-31 -215 -205 -333q-176 -118 -436 -118z" />
    <glyph glyph-name="scaron" unicode="&#x161;" horiz-adv-x="1083" 
d="M1032 1485l-311 -309h-209l-217 309h201l139 -187l194 187h203zM447 -29q-205 0 -329 92t-108 279h258q-4 -86 48 -124t151 -38q203 0 219 121q14 88 -90 110q-63 13 -116 20q-52 7 -79 11q-159 10 -241 96t-66 218q25 160 163 250t341 90q204 0 312 -98t85 -250l-252 -3
q0 147 -176 148q-90 0 -146 -31q-57 -31 -65 -83t23 -76q31 -25 125 -39q329 -51 396 -128q67 -78 45 -235q-22 -156 -157 -243t-341 -87z" />
    <glyph glyph-name="Tcaron" unicode="&#x164;" horiz-adv-x="1218" 
d="M1106 1841l-309 -309h-209l-219 309h200l140 -186l194 186h203zM332 0l170 1202h-436l34 256h1157l-34 -256h-437l-170 -1202h-284z" />
    <glyph glyph-name="tcaron" unicode="&#x165;" horiz-adv-x="901" 
d="M963 1520q-19 -142 -81 -230t-198 -141l-55 119q88 39 125 90t49 137h-146l43 309h301zM502 213q59 0 145 12l-10 -213q-117 -31 -225 -30q-334 0 -285 348l74 520h-183l29 217h182l29 197l291 129l-47 -326h256l-29 -217h-256l-72 -506q-10 -72 16 -102t85 -29z" />
    <glyph glyph-name="Umacron" unicode="&#x16a;" horiz-adv-x="1409" 
d="M492 1520l30 213h606l-30 -213h-606zM578 -33q-280 0 -406 157q-127 157 -86 454l123 880h285l-123 -880q-51 -358 243 -359q293 0 344 359l123 880h287l-123 -883q-41 -295 -214 -451t-453 -157z" />
    <glyph glyph-name="umacron" unicode="&#x16b;" horiz-adv-x="1204" 
d="M348 1124l29 213h606l-29 -213h-606zM515 207q95 0 165 76t82 180l86 604h272l-149 -1067h-174l-62 143q-131 -174 -340 -174q-176 1 -256 101t-53 288l100 709h273l-94 -661q-14 -104 20 -152q35 -47 130 -47z" />
    <glyph glyph-name="Uring" unicode="&#x16e;" horiz-adv-x="1402" 
d="M797 1647q43 -1 75 27t40 74q7 46 -17 73q-25 27 -70 26q-94 0 -110 -100q-6 -45 16 -73q23 -27 66 -27zM846 1987q102 0 162 -66q60 -67 47 -175q-14 -108 -94 -172q-81 -64 -183 -65q-102 0 -163 66q-60 66 -46 172q15 106 95 173t182 67zM560 -33q-280 0 -406 157
t-86 454l125 880h284l-125 -880q-51 -358 244 -359q293 0 344 359l125 880h287l-125 -883q-41 -295 -214 -451t-453 -157z" />
    <glyph glyph-name="uring" unicode="&#x16f;" horiz-adv-x="1157" 
d="M674 1272q43 0 75 28q33 28 39 73q6 46 -18 73q-25 27 -70 27q-94 0 -110 -101q-6 -45 17 -73q24 -27 67 -27zM722 1612q100 0 162 -66t47 -174t-95 -174q-80 -64 -182 -64t-164 66q-60 66 -45 174t95 172q80 66 182 66zM494 207q94 0 165 76q70 76 84 180l84 604h273
l-150 -1067h-174l-61 143q-131 -174 -340 -174q-176 1 -255 101t-52 288l98 709h272l-92 -661q-14 -104 20 -152t128 -47z" />
    <glyph glyph-name="Uhungarumlaut" unicode="&#x170;" horiz-adv-x="1402" 
d="M729 1913h303l-471 -357h-211zM1192 1913h319l-493 -357h-219zM566 -33q-280 0 -408 157t-84 454l123 880h284l-123 -880q-51 -358 244 -359q293 0 344 359l123 880h287l-125 -883q-41 -295 -213 -451t-452 -157z" />
    <glyph glyph-name="uhungarumlaut" unicode="&#x171;" horiz-adv-x="1157" 
d="M604 1604h303l-473 -357h-211zM1067 1604h319l-495 -357h-219zM496 207q94 0 164 76q69 76 83 180l86 604h273l-150 -1067h-174l-63 143q-131 -174 -340 -174q-176 1 -255 101t-52 288l100 709h272l-94 -661q-14 -104 21 -152t129 -47z" />
    <glyph glyph-name="Uogonek" unicode="&#x172;" horiz-adv-x="1402" 
d="M786 -283q-42 -48 -133 -139q-104 32 -158 98t-40 160q7 61 59 138q-195 26 -296 150q-128 157 -85 454l123 880h285l-123 -880q-51 -358 244 -359q293 0 344 359l122 880h287l-125 -883q-41 -295 -213 -451q-140 -127 -350 -151q-71 -127 -21 -190q25 -33 80 -66z" />
    <glyph glyph-name="uogonek" unicode="&#x173;" horiz-adv-x="1157" 
d="M440 -31q-176 1 -256 101t-51 288l98 709h273l-92 -661q-14 -104 19 -152q34 -47 129 -47t165 76t84 180l84 604h272l-149 -1067q-41 -62 -49 -118t16 -89q25 -32 80 -65q-86 -94 -131 -140q-104 31 -160 97q-55 67 -42 151t73 164h39l-62 143q-131 -174 -340 -174z" />
    <glyph glyph-name="Ydieresis" unicode="&#x178;" horiz-adv-x="1312" 
d="M829 1487l35 252h252l-35 -252h-252zM412 1487l34 252h252l-34 -252h-252zM393 0l82 578l-383 880h314l251 -610l426 610h301l-624 -880l-82 -578h-285z" />
    <glyph glyph-name="Zacute" unicode="&#x179;" horiz-adv-x="1306" 
d="M901 1937l135 -157l-379 -258l-106 112zM-82 0l35 242l899 964h-754l35 252h1098l-35 -244l-895 -962h782l-34 -252h-1131z" />
    <glyph glyph-name="zacute" unicode="&#x17a;" horiz-adv-x="1067" 
d="M799 1550l135 -157l-379 -258l-106 112zM-27 0l29 209l633 641h-535l31 217h868l-30 -213l-629 -637h553l-31 -217h-889z" />
    <glyph glyph-name="Zdotaccent" unicode="&#x17b;" horiz-adv-x="1232" 
d="M578 1493l36 260h271l-37 -260h-270zM-70 0l35 242l899 964h-753l34 252h1098l-33 -244l-895 -962h783l-37 -252h-1131z" />
    <glyph glyph-name="zdotaccent" unicode="&#x17c;" horiz-adv-x="1009" 
d="M442 1094l37 260h271l-37 -260h-271zM-12 0l26 209l633 641h-534l30 217h869l-29 -213l-629 -637h553l-30 -217h-889z" />
    <glyph glyph-name="Zcaron" unicode="&#x17d;" horiz-adv-x="1230" 
d="M1145 1806l-309 -309h-209l-219 309h200l142 -186l192 186h203zM-72 0l33 242l899 964h-754l37 252h1098l-35 -244l-895 -962h783l-35 -252h-1131z" />
    <glyph glyph-name="zcaron" unicode="&#x17e;" horiz-adv-x="1030" 
d="M1030 1452l-309 -309h-209l-219 309h201l141 -186l192 186h203zM-18 0l26 209l633 641h-535l31 217h869l-31 -213l-627 -637h553l-31 -217h-888z" />
    <glyph glyph-name="florin" unicode="&#x192;" horiz-adv-x="1150" 
d="M1028 1239q-102 0 -144 -50t-96 -210h259l-50 -231h-288l-248 -732q-111 -322 -424 -321q-113 0 -195 35l68 217q51 -21 121 -21q71 0 111 35t69 115l227 672h-176l49 231h205l57 164q115 326 437 325q100 0 194 -32l-69 -217q-57 20 -107 20z" />
    <glyph glyph-name="circumflex" unicode="&#x2c6;" horiz-adv-x="798" 
d="M10 1251l307 308h207l217 -308h-233l-102 187l-152 -187h-244z" />
    <glyph glyph-name="caron" unicode="&#x2c7;" horiz-adv-x="790" 
d="M782 1712l-309 -309h-209l-219 309h201l139 -186l195 186h202z" />
    <glyph glyph-name="breve" unicode="&#x2d8;" horiz-adv-x="782" 
d="M369 1210q-154 0 -227 89q-72 89 -56 249h197q-14 -156 110 -155q123 0 158 155h199q-29 -160 -128 -249t-253 -89z" />
    <glyph glyph-name="dotaccent" unicode="&#x2d9;" horiz-adv-x="696" 
d="M197 1229l34 260h271l-35 -260h-270z" />
    <glyph glyph-name="ring" unicode="&#x2da;" horiz-adv-x="677" 
d="M326 1343q42 0 74 28t39 74t-17 73q-25 26 -69 26q-43 0 -73 -26t-37 -73q-7 -46 17 -74t66 -28zM305 1206q-102 0 -163 66q-60 66 -45 174t94 172q79 66 181 66t165 -66q61 -66 46 -174t-95 -174q-80 -64 -183 -64z" />
    <glyph glyph-name="ogonek" unicode="&#x2db;" horiz-adv-x="626" 
d="M489 -299q-66 -72 -133 -139q-104 32 -158 98t-41 150t72 163h213q-45 -65 -51 -119q-5 -54 19 -87t79 -66z" />
    <glyph glyph-name="tilde" unicode="&#x2dc;" horiz-adv-x="815" 
d="M295 1524q57 0 133 -44t111 -44q82 0 112 75l142 -65q-76 -207 -267 -207q-59 0 -137 44t-106 44q-84 0 -117 -76l-141 66q80 207 270 207z" />
    <glyph glyph-name="hungarumlaut" unicode="&#x2dd;" horiz-adv-x="946" 
d="M309 1604h303l-473 -357h-209zM772 1604h320l-496 -357h-219z" />
    <glyph glyph-name="pi" unicode="&#x3c0;" horiz-adv-x="1689" 
d="M874 729q156 0 177 139q20 133 -140 133h-155l-37 -272h155zM936 1149q168 0 236 -77t51 -205q-17 -127 -107 -205t-256 -78h-162l-45 -316h-170l123 881h330zM743 147q244 0 421 162t213 419t-95 419t-376 162t-421 -162t-212 -420t95 -419t375 -161zM718 -14
q-318 0 -494 207q-175 207 -129 535t285 535t555 207t491 -206t129 -535q-47 -327 -283 -535t-554 -208z" />
    <glyph glyph-name="endash" unicode="&#x2013;" horiz-adv-x="1185" 
d="M43 496l35 252h1063l-35 -252h-1063z" />
    <glyph glyph-name="emdash" unicode="&#x2014;" horiz-adv-x="2199" 
d="M43 496l35 249h2076l-34 -249h-2077z" />
    <glyph glyph-name="quoteleft" unicode="&#x2018;" horiz-adv-x="520" 
d="M109 1178q20 143 80 230t196 140l55 -118q-88 -38 -125 -90t-49 -138h146l-43 -309h-301z" />
    <glyph glyph-name="quoteright" unicode="&#x2019;" horiz-adv-x="499" 
d="M418 1169q-20 -143 -80 -230t-197 -140l-55 119q88 39 125 90t49 137h-145l43 309h301z" />
    <glyph glyph-name="quotesinglbase" unicode="&#x201a;" horiz-adv-x="499" 
d="M418 25q-20 -143 -80 -231t-197 -140l-55 119q88 39 125 90t49 137h-145l43 309h301z" />
    <glyph glyph-name="quotedblleft" unicode="&#x201c;" horiz-adv-x="921" 
d="M502 1178q20 143 80 230t196 140l56 -118q-88 -38 -125 -90t-50 -138h146l-43 -309h-301zM82 1178q20 143 80 230t196 140l56 -118q-88 -38 -125 -90t-49 -138h145l-43 -309h-301z" />
    <glyph glyph-name="quotedblright" unicode="&#x201d;" horiz-adv-x="901" 
d="M393 1171q-21 -143 -81 -230t-195 -140l-56 119q88 39 125 90t50 137h-146l43 309h301zM813 1171q-21 -143 -81 -230t-195 -140l-56 119q88 39 125 90t49 137h-145l43 309h301z" />
    <glyph glyph-name="quotedblbase" unicode="&#x201e;" horiz-adv-x="901" 
d="M393 25q-21 -143 -81 -231t-195 -140l-56 119q88 39 125 90t50 137h-146l43 309h301zM813 25q-21 -143 -81 -231t-195 -140l-56 119q88 39 125 90t49 137h-145l43 309h301z" />
    <glyph glyph-name="dagger" unicode="&#x2020;" horiz-adv-x="1064" 
d="M285 -217l149 1059h-348l33 235h348l53 381h258l-53 -381h348l-33 -235h-348l-149 -1059h-258z" />
    <glyph glyph-name="daggerdbl" unicode="&#x2021;" horiz-adv-x="1064" 
d="M285 -217l53 385h-346l31 233h348l63 451h-348l35 235h348l51 371h258l-51 -371h348l-35 -235h-348l-63 -451h348l-33 -233h-348l-53 -385h-258z" />
    <glyph glyph-name="bullet" unicode="&#x2022;" horiz-adv-x="851" 
d="M467 969q127 0 200 -85t55 -213t-114 -213q-98 -85 -225 -85t-201 85q-73 85 -56 213q18 128 116 213t225 85z" />
    <glyph glyph-name="ellipsis" unicode="&#x2026;" horiz-adv-x="2021" 
d="M1559 0l43 315h294l-43 -315h-294zM125 0l43 315h295l-43 -315h-295zM840 0l43 315h295l-43 -315h-295z" />
    <glyph glyph-name="perthousand" unicode="&#x2030;" horiz-adv-x="2611" 
d="M512 1276q-142 0 -176 -227q-16 -113 10 -169t102 -56t116 54q40 56 57 171q33 227 -109 227zM1390 608q-142 0 -176 -227q-16 -113 10 -169t102 -56t117 55q40 55 56 170q33 227 -109 227zM2124 156q143 0 175 226q31 226 -111 226t-175 -227q-17 -113 9 -169t102 -56z
M422 639q-166 0 -247 110t-54 300t140 301q114 110 278 110t244 -109t53 -301t-138 -301q-110 -110 -276 -110zM227 -20q218 287 1121 1468l247 -2q-390 -507 -1114 -1466h-254zM1418 793q164 1 243 -109q80 -110 53 -302q-28 -192 -138 -300q-110 -109 -276 -109t-246 108
t-54 299t140 302t278 111zM2098 -27q-167 1 -247 107t-53 301q28 195 140 303t277 109t244 -109t52 -303t-137 -301t-276 -107z" />
    <glyph glyph-name="guilsinglleft" unicode="&#x2039;" horiz-adv-x="677" 
d="M313 86l-237 483l377 482l178 -95l-299 -385l184 -381z" />
    <glyph glyph-name="guilsinglright" unicode="&#x203a;" horiz-adv-x="677" 
d="M580 569l-377 -483l-170 104l291 381l-193 385l207 95z" />
    <glyph glyph-name="fraction" unicode="&#x2044;" horiz-adv-x="677" 
d="M913 1389l-1085 -1426l-82 51l1090 1424z" />
    <glyph glyph-name="Euro" unicode="&#x20ac;" horiz-adv-x="1241" 
d="M657 -31q-237 1 -359 139t-128 361h-156q20 78 37 168h125q8 49 8 59t13 76h-140l37 168h142q70 221 234 367q165 145 404 145q166 0 262 -70t138 -204l-195 -123q-45 82 -100 119q-55 36 -155 36t-186 -72q-85 -72 -128 -198h451q-36 -81 -72 -168h-422l-21 -135h394
q-39 -96 -74 -168h-322q8 -123 72 -193t176 -69q199 0 293 166q57 -35 168 -105q-156 -299 -496 -299z" />
    <glyph glyph-name="trademark" unicode="&#x2122;" horiz-adv-x="1820" 
d="M750 657l112 801h258l113 -545l264 545h252l-113 -801h-188l74 521l-248 -510h-158l-104 508l-74 -519h-188zM211 657l88 625h-238l25 176h676l-25 -176h-239l-88 -625h-199z" />
    <glyph glyph-name="Omega" unicode="&#x2126;" horiz-adv-x="1261" 
d="M109 188v1080h1079v-1080h-1079zM440 763q0 30 -8 30q-16 -1 -16 -5t5 -4t5 -44t-33 -73q-10 -11 -14 -12q-4 0 -4 13l-4 116q2 2 2 6t-4 5l-17 -11q4 -45 4 -52t-22 -39q-22 -31 -26 -31q-3 0 -3 47t-6 77q-2 10 -16 11q-57 0 -88 -25q-31 -26 -31 -62t33 -36
q16 0 25 10t9 24t-10 13q-10 0 -10 -8l6 -15q1 -18 -21 -18t-22 36t34 54t66 18q10 0 11 -26l6 -119q0 -4 4 -4q25 0 61 76l4 -72q0 -4 11 -4q35 16 52 55t17 69zM471 723h2q18 0 19 -33v-2q0 -45 -25 -45q-18 0 -18 25v4q-1 51 22 51zM481 731q-21 0 -35 -18
q-14 -19 -14 -35t1 -22t9 -12q8 -7 21 -7q45 0 45 59q0 35 -27 35zM522 709q0 8 10 8t11 -25l-8 -51l4 -4q14 0 14 8v2q0 66 16 66h2l9 -4l8 8q0 14 -15 14l-10 -10q0 -1 -8 -21q-7 31 -14 31t-17 -8t-10 -16l4 -9l4 4v7zM641 700v-12q0 -8 -7 -24t-22 -17q-14 0 -14 24
t8 31q9 21 22 21t13 -23zM641 659v-8q0 -16 10 -16q11 0 19 8t10 16l-4 5q-4 -1 -4 -9t-8 -8q-8 -1 -8 7t6 71v6q10 50 10 57t-20 7q-20 -1 -19 -7q0 -6 4 -5t10 1t6 -6q0 -59 -8 -59l-2 2q-1 8 -19 8q-18 1 -30 -23t-12 -46t22 -23q16 0 26 11t11 11zM716 721l21 -8
q6 0 6 8t-14 8h-2q-33 0 -33 -24q0 -14 18 -26q18 -11 19 -14q2 -3 2 -13t-16 -9q-16 0 -17 8v2q0 8 -8 9q-6 0 -6 -7q0 -18 30 -18t29 27q0 12 -15 23t-19 15t-4 12t9 7zM822 631q16 0 22 18l2 4q0 4 -4 4q-4 -2 -4 -6q-4 -10 -10 -10t-7 4q0 4 5 21t5 41q0 25 -24 24
q-12 0 -19 -9q-6 -9 -6 -11l-4 -4h-2l12 84q0 4 -20 4t-18 -9q0 -2 6 -2h8q6 0 6 -8l-6 -53v-2q-4 -41 -8 -59l-4 -21q0 -2 9 -2t9 4v16q13 60 33 60q14 0 14 -10v-4l-12 -64q1 -10 17 -10zM881 647q-13 0 -13 30t27 46q14 0 14 -38t-28 -38zM925 645q-5 1 -5 19t6 36t6 21
l2 2v2q0 2 -6 2h-2q-8 0 -10 -5t-3 -5q-8 12 -20 12t-35 -33q-6 -18 -6 -32q0 -27 22 -27q11 0 31 20q2 0 2 -4v-8q-1 -8 9 -8t19 6t9 12t-4 7q-10 -17 -15 -17zM977 717q0 4 10 4q25 0 25 -39t-25 -39q-16 0 -16 14v5l6 47v8zM973 764v-2q-6 0 -6 -6l-2 -19v-6
q0 -8 -15 -15q-14 -6 -14 -14t4 -8l16 15q0 4 5 4l2 -2l-11 -76q0 -23 -8 -23h-8q-2 0 -2 -2q0 -10 24 -10t22 4q-1 4 -3 4h-6q-6 0 -6 16t4 17q12 -4 23 -4q12 0 24 14t12 39q0 39 -33 39q-8 -2 -14 -2l-2 2l4 31l-4 4h-6zM1065 719h2q12 -1 12 -21t-18 -20q-10 0 -10 10
t5 21q5 10 9 10zM1055 672h2q17 0 27 15t10 24q0 18 -18 18t-29 -20q-13 -20 -13 -44t15 -24q8 -4 18 -4t22 6t13 14q0 4 -4 5q-4 0 -4 -5q-8 -14 -23 -14q-20 0 -20 25q0 4 4 4z" />
    <glyph glyph-name="partialdiff" unicode="&#x2202;" horiz-adv-x="1261" 
d="M109 188v1080h1079v-1080h-1079zM440 763q0 30 -8 30q-16 -1 -16 -5t5 -4t5 -44t-33 -73q-10 -11 -14 -12q-4 0 -4 13l-4 116q2 2 2 6t-4 5l-17 -11q4 -45 4 -52t-22 -39q-22 -31 -26 -31q-3 0 -3 47t-6 77q-2 10 -16 11q-57 0 -88 -25q-31 -26 -31 -62t33 -36
q16 0 25 10t9 24t-10 13q-10 0 -10 -8l6 -15q1 -18 -21 -18t-22 36t34 54t66 18q10 0 11 -26l6 -119q0 -4 4 -4q25 0 61 76l4 -72q0 -4 11 -4q35 16 52 55t17 69zM471 723h2q18 0 19 -33v-2q0 -45 -25 -45q-18 0 -18 25v4q-1 51 22 51zM481 731q-21 0 -35 -18
q-14 -19 -14 -35t1 -22t9 -12q8 -7 21 -7q45 0 45 59q0 35 -27 35zM522 709q0 8 10 8t11 -25l-8 -51l4 -4q14 0 14 8v2q0 66 16 66h2l9 -4l8 8q0 14 -15 14l-10 -10q0 -1 -8 -21q-7 31 -14 31t-17 -8t-10 -16l4 -9l4 4v7zM641 700v-12q0 -8 -7 -24t-22 -17q-14 0 -14 24
t8 31q9 21 22 21t13 -23zM641 659v-8q0 -16 10 -16q11 0 19 8t10 16l-4 5q-4 -1 -4 -9t-8 -8q-8 -1 -8 7t6 71v6q10 50 10 57t-20 7q-20 -1 -19 -7q0 -6 4 -5t10 1t6 -6q0 -59 -8 -59l-2 2q-1 8 -19 8q-18 1 -30 -23t-12 -46t22 -23q16 0 26 11t11 11zM716 721l21 -8
q6 0 6 8t-14 8h-2q-33 0 -33 -24q0 -14 18 -26q18 -11 19 -14q2 -3 2 -13t-16 -9q-16 0 -17 8v2q0 8 -8 9q-6 0 -6 -7q0 -18 30 -18t29 27q0 12 -15 23t-19 15t-4 12t9 7zM822 631q16 0 22 18l2 4q0 4 -4 4q-4 -2 -4 -6q-4 -10 -10 -10t-7 4q0 4 5 21t5 41q0 25 -24 24
q-12 0 -19 -9q-6 -9 -6 -11l-4 -4h-2l12 84q0 4 -20 4t-18 -9q0 -2 6 -2h8q6 0 6 -8l-6 -53v-2q-4 -41 -8 -59l-4 -21q0 -2 9 -2t9 4v16q13 60 33 60q14 0 14 -10v-4l-12 -64q1 -10 17 -10zM881 647q-13 0 -13 30t27 46q14 0 14 -38t-28 -38zM925 645q-5 1 -5 19t6 36t6 21
l2 2v2q0 2 -6 2h-2q-8 0 -10 -5t-3 -5q-8 12 -20 12t-35 -33q-6 -18 -6 -32q0 -27 22 -27q11 0 31 20q2 0 2 -4v-8q-1 -8 9 -8t19 6t9 12t-4 7q-10 -17 -15 -17zM977 717q0 4 10 4q25 0 25 -39t-25 -39q-16 0 -16 14v5l6 47v8zM973 764v-2q-6 0 -6 -6l-2 -19v-6
q0 -8 -15 -15q-14 -6 -14 -14t4 -8l16 15q0 4 5 4l2 -2l-11 -76q0 -23 -8 -23h-8q-2 0 -2 -2q0 -10 24 -10t22 4q-1 4 -3 4h-6q-6 0 -6 16t4 17q12 -4 23 -4q12 0 24 14t12 39q0 39 -33 39q-8 -2 -14 -2l-2 2l4 31l-4 4h-6zM1065 719h2q12 -1 12 -21t-18 -20q-10 0 -10 10
t5 21q5 10 9 10zM1055 672h2q17 0 27 15t10 24q0 18 -18 18t-29 -20q-13 -20 -13 -44t15 -24q8 -4 18 -4t22 6t13 14q0 4 -4 5q-4 0 -4 -5q-8 -14 -23 -14q-20 0 -20 25q0 4 4 4z" />
    <glyph glyph-name="Delta" unicode="&#x2206;" horiz-adv-x="1261" 
d="M109 188v1080h1079v-1080h-1079zM440 763q0 30 -8 30q-16 -1 -16 -5t5 -4t5 -44t-33 -73q-10 -11 -14 -12q-4 0 -4 13l-4 116q2 2 2 6t-4 5l-17 -11q4 -45 4 -52t-22 -39q-22 -31 -26 -31q-3 0 -3 47t-6 77q-2 10 -16 11q-57 0 -88 -25q-31 -26 -31 -62t33 -36
q16 0 25 10t9 24t-10 13q-10 0 -10 -8l6 -15q1 -18 -21 -18t-22 36t34 54t66 18q10 0 11 -26l6 -119q0 -4 4 -4q25 0 61 76l4 -72q0 -4 11 -4q35 16 52 55t17 69zM471 723h2q18 0 19 -33v-2q0 -45 -25 -45q-18 0 -18 25v4q-1 51 22 51zM481 731q-21 0 -35 -18
q-14 -19 -14 -35t1 -22t9 -12q8 -7 21 -7q45 0 45 59q0 35 -27 35zM522 709q0 8 10 8t11 -25l-8 -51l4 -4q14 0 14 8v2q0 66 16 66h2l9 -4l8 8q0 14 -15 14l-10 -10q0 -1 -8 -21q-7 31 -14 31t-17 -8t-10 -16l4 -9l4 4v7zM641 700v-12q0 -8 -7 -24t-22 -17q-14 0 -14 24
t8 31q9 21 22 21t13 -23zM641 659v-8q0 -16 10 -16q11 0 19 8t10 16l-4 5q-4 -1 -4 -9t-8 -8q-8 -1 -8 7t6 71v6q10 50 10 57t-20 7q-20 -1 -19 -7q0 -6 4 -5t10 1t6 -6q0 -59 -8 -59l-2 2q-1 8 -19 8q-18 1 -30 -23t-12 -46t22 -23q16 0 26 11t11 11zM716 721l21 -8
q6 0 6 8t-14 8h-2q-33 0 -33 -24q0 -14 18 -26q18 -11 19 -14q2 -3 2 -13t-16 -9q-16 0 -17 8v2q0 8 -8 9q-6 0 -6 -7q0 -18 30 -18t29 27q0 12 -15 23t-19 15t-4 12t9 7zM822 631q16 0 22 18l2 4q0 4 -4 4q-4 -2 -4 -6q-4 -10 -10 -10t-7 4q0 4 5 21t5 41q0 25 -24 24
q-12 0 -19 -9q-6 -9 -6 -11l-4 -4h-2l12 84q0 4 -20 4t-18 -9q0 -2 6 -2h8q6 0 6 -8l-6 -53v-2q-4 -41 -8 -59l-4 -21q0 -2 9 -2t9 4v16q13 60 33 60q14 0 14 -10v-4l-12 -64q1 -10 17 -10zM881 647q-13 0 -13 30t27 46q14 0 14 -38t-28 -38zM925 645q-5 1 -5 19t6 36t6 21
l2 2v2q0 2 -6 2h-2q-8 0 -10 -5t-3 -5q-8 12 -20 12t-35 -33q-6 -18 -6 -32q0 -27 22 -27q11 0 31 20q2 0 2 -4v-8q-1 -8 9 -8t19 6t9 12t-4 7q-10 -17 -15 -17zM977 717q0 4 10 4q25 0 25 -39t-25 -39q-16 0 -16 14v5l6 47v8zM973 764v-2q-6 0 -6 -6l-2 -19v-6
q0 -8 -15 -15q-14 -6 -14 -14t4 -8l16 15q0 4 5 4l2 -2l-11 -76q0 -23 -8 -23h-8q-2 0 -2 -2q0 -10 24 -10t22 4q-1 4 -3 4h-6q-6 0 -6 16t4 17q12 -4 23 -4q12 0 24 14t12 39q0 39 -33 39q-8 -2 -14 -2l-2 2l4 31l-4 4h-6zM1065 719h2q12 -1 12 -21t-18 -20q-10 0 -10 10
t5 21q5 10 9 10zM1055 672h2q17 0 27 15t10 24q0 18 -18 18t-29 -20q-13 -20 -13 -44t15 -24q8 -4 18 -4t22 6t13 14q0 4 -4 5q-4 0 -4 -5q-8 -14 -23 -14q-20 0 -20 25q0 4 4 4z" />
    <glyph glyph-name="product" unicode="&#x220f;" horiz-adv-x="1261" 
d="M109 188v1080h1079v-1080h-1079zM440 763q0 30 -8 30q-16 -1 -16 -5t5 -4t5 -44t-33 -73q-10 -11 -14 -12q-4 0 -4 13l-4 116q2 2 2 6t-4 5l-17 -11q4 -45 4 -52t-22 -39q-22 -31 -26 -31q-3 0 -3 47t-6 77q-2 10 -16 11q-57 0 -88 -25q-31 -26 -31 -62t33 -36
q16 0 25 10t9 24t-10 13q-10 0 -10 -8l6 -15q1 -18 -21 -18t-22 36t34 54t66 18q10 0 11 -26l6 -119q0 -4 4 -4q25 0 61 76l4 -72q0 -4 11 -4q35 16 52 55t17 69zM471 723h2q18 0 19 -33v-2q0 -45 -25 -45q-18 0 -18 25v4q-1 51 22 51zM481 731q-21 0 -35 -18
q-14 -19 -14 -35t1 -22t9 -12q8 -7 21 -7q45 0 45 59q0 35 -27 35zM522 709q0 8 10 8t11 -25l-8 -51l4 -4q14 0 14 8v2q0 66 16 66h2l9 -4l8 8q0 14 -15 14l-10 -10q0 -1 -8 -21q-7 31 -14 31t-17 -8t-10 -16l4 -9l4 4v7zM641 700v-12q0 -8 -7 -24t-22 -17q-14 0 -14 24
t8 31q9 21 22 21t13 -23zM641 659v-8q0 -16 10 -16q11 0 19 8t10 16l-4 5q-4 -1 -4 -9t-8 -8q-8 -1 -8 7t6 71v6q10 50 10 57t-20 7q-20 -1 -19 -7q0 -6 4 -5t10 1t6 -6q0 -59 -8 -59l-2 2q-1 8 -19 8q-18 1 -30 -23t-12 -46t22 -23q16 0 26 11t11 11zM716 721l21 -8
q6 0 6 8t-14 8h-2q-33 0 -33 -24q0 -14 18 -26q18 -11 19 -14q2 -3 2 -13t-16 -9q-16 0 -17 8v2q0 8 -8 9q-6 0 -6 -7q0 -18 30 -18t29 27q0 12 -15 23t-19 15t-4 12t9 7zM822 631q16 0 22 18l2 4q0 4 -4 4q-4 -2 -4 -6q-4 -10 -10 -10t-7 4q0 4 5 21t5 41q0 25 -24 24
q-12 0 -19 -9q-6 -9 -6 -11l-4 -4h-2l12 84q0 4 -20 4t-18 -9q0 -2 6 -2h8q6 0 6 -8l-6 -53v-2q-4 -41 -8 -59l-4 -21q0 -2 9 -2t9 4v16q13 60 33 60q14 0 14 -10v-4l-12 -64q1 -10 17 -10zM881 647q-13 0 -13 30t27 46q14 0 14 -38t-28 -38zM925 645q-5 1 -5 19t6 36t6 21
l2 2v2q0 2 -6 2h-2q-8 0 -10 -5t-3 -5q-8 12 -20 12t-35 -33q-6 -18 -6 -32q0 -27 22 -27q11 0 31 20q2 0 2 -4v-8q-1 -8 9 -8t19 6t9 12t-4 7q-10 -17 -15 -17zM977 717q0 4 10 4q25 0 25 -39t-25 -39q-16 0 -16 14v5l6 47v8zM973 764v-2q-6 0 -6 -6l-2 -19v-6
q0 -8 -15 -15q-14 -6 -14 -14t4 -8l16 15q0 4 5 4l2 -2l-11 -76q0 -23 -8 -23h-8q-2 0 -2 -2q0 -10 24 -10t22 4q-1 4 -3 4h-6q-6 0 -6 16t4 17q12 -4 23 -4q12 0 24 14t12 39q0 39 -33 39q-8 -2 -14 -2l-2 2l4 31l-4 4h-6zM1065 719h2q12 -1 12 -21t-18 -20q-10 0 -10 10
t5 21q5 10 9 10zM1055 672h2q17 0 27 15t10 24q0 18 -18 18t-29 -20q-13 -20 -13 -44t15 -24q8 -4 18 -4t22 6t13 14q0 4 -4 5q-4 0 -4 -5q-8 -14 -23 -14q-20 0 -20 25q0 4 4 4z" />
    <glyph glyph-name="summation" unicode="&#x2211;" horiz-adv-x="1261" 
d="M109 188v1080h1079v-1080h-1079zM440 763q0 30 -8 30q-16 -1 -16 -5t5 -4t5 -44t-33 -73q-10 -11 -14 -12q-4 0 -4 13l-4 116q2 2 2 6t-4 5l-17 -11q4 -45 4 -52t-22 -39q-22 -31 -26 -31q-3 0 -3 47t-6 77q-2 10 -16 11q-57 0 -88 -25q-31 -26 -31 -62t33 -36
q16 0 25 10t9 24t-10 13q-10 0 -10 -8l6 -15q1 -18 -21 -18t-22 36t34 54t66 18q10 0 11 -26l6 -119q0 -4 4 -4q25 0 61 76l4 -72q0 -4 11 -4q35 16 52 55t17 69zM471 723h2q18 0 19 -33v-2q0 -45 -25 -45q-18 0 -18 25v4q-1 51 22 51zM481 731q-21 0 -35 -18
q-14 -19 -14 -35t1 -22t9 -12q8 -7 21 -7q45 0 45 59q0 35 -27 35zM522 709q0 8 10 8t11 -25l-8 -51l4 -4q14 0 14 8v2q0 66 16 66h2l9 -4l8 8q0 14 -15 14l-10 -10q0 -1 -8 -21q-7 31 -14 31t-17 -8t-10 -16l4 -9l4 4v7zM641 700v-12q0 -8 -7 -24t-22 -17q-14 0 -14 24
t8 31q9 21 22 21t13 -23zM641 659v-8q0 -16 10 -16q11 0 19 8t10 16l-4 5q-4 -1 -4 -9t-8 -8q-8 -1 -8 7t6 71v6q10 50 10 57t-20 7q-20 -1 -19 -7q0 -6 4 -5t10 1t6 -6q0 -59 -8 -59l-2 2q-1 8 -19 8q-18 1 -30 -23t-12 -46t22 -23q16 0 26 11t11 11zM716 721l21 -8
q6 0 6 8t-14 8h-2q-33 0 -33 -24q0 -14 18 -26q18 -11 19 -14q2 -3 2 -13t-16 -9q-16 0 -17 8v2q0 8 -8 9q-6 0 -6 -7q0 -18 30 -18t29 27q0 12 -15 23t-19 15t-4 12t9 7zM822 631q16 0 22 18l2 4q0 4 -4 4q-4 -2 -4 -6q-4 -10 -10 -10t-7 4q0 4 5 21t5 41q0 25 -24 24
q-12 0 -19 -9q-6 -9 -6 -11l-4 -4h-2l12 84q0 4 -20 4t-18 -9q0 -2 6 -2h8q6 0 6 -8l-6 -53v-2q-4 -41 -8 -59l-4 -21q0 -2 9 -2t9 4v16q13 60 33 60q14 0 14 -10v-4l-12 -64q1 -10 17 -10zM881 647q-13 0 -13 30t27 46q14 0 14 -38t-28 -38zM925 645q-5 1 -5 19t6 36t6 21
l2 2v2q0 2 -6 2h-2q-8 0 -10 -5t-3 -5q-8 12 -20 12t-35 -33q-6 -18 -6 -32q0 -27 22 -27q11 0 31 20q2 0 2 -4v-8q-1 -8 9 -8t19 6t9 12t-4 7q-10 -17 -15 -17zM977 717q0 4 10 4q25 0 25 -39t-25 -39q-16 0 -16 14v5l6 47v8zM973 764v-2q-6 0 -6 -6l-2 -19v-6
q0 -8 -15 -15q-14 -6 -14 -14t4 -8l16 15q0 4 5 4l2 -2l-11 -76q0 -23 -8 -23h-8q-2 0 -2 -2q0 -10 24 -10t22 4q-1 4 -3 4h-6q-6 0 -6 16t4 17q12 -4 23 -4q12 0 24 14t12 39q0 39 -33 39q-8 -2 -14 -2l-2 2l4 31l-4 4h-6zM1065 719h2q12 -1 12 -21t-18 -20q-10 0 -10 10
t5 21q5 10 9 10zM1055 672h2q17 0 27 15t10 24q0 18 -18 18t-29 -20q-13 -20 -13 -44t15 -24q8 -4 18 -4t22 6t13 14q0 4 -4 5q-4 0 -4 -5q-8 -14 -23 -14q-20 0 -20 25q0 4 4 4z" />
    <glyph glyph-name="minus" unicode="&#x2212;" horiz-adv-x="1280" 
d="M123 545l35 239h999l-35 -239h-999z" />
    <glyph glyph-name="radical" unicode="&#x221a;" horiz-adv-x="1261" 
d="M109 188v1080h1079v-1080h-1079zM440 763q0 30 -8 30q-16 -1 -16 -5t5 -4t5 -44t-33 -73q-10 -11 -14 -12q-4 0 -4 13l-4 116q2 2 2 6t-4 5l-17 -11q4 -45 4 -52t-22 -39q-22 -31 -26 -31q-3 0 -3 47t-6 77q-2 10 -16 11q-57 0 -88 -25q-31 -26 -31 -62t33 -36
q16 0 25 10t9 24t-10 13q-10 0 -10 -8l6 -15q1 -18 -21 -18t-22 36t34 54t66 18q10 0 11 -26l6 -119q0 -4 4 -4q25 0 61 76l4 -72q0 -4 11 -4q35 16 52 55t17 69zM471 723h2q18 0 19 -33v-2q0 -45 -25 -45q-18 0 -18 25v4q-1 51 22 51zM481 731q-21 0 -35 -18
q-14 -19 -14 -35t1 -22t9 -12q8 -7 21 -7q45 0 45 59q0 35 -27 35zM522 709q0 8 10 8t11 -25l-8 -51l4 -4q14 0 14 8v2q0 66 16 66h2l9 -4l8 8q0 14 -15 14l-10 -10q0 -1 -8 -21q-7 31 -14 31t-17 -8t-10 -16l4 -9l4 4v7zM641 700v-12q0 -8 -7 -24t-22 -17q-14 0 -14 24
t8 31q9 21 22 21t13 -23zM641 659v-8q0 -16 10 -16q11 0 19 8t10 16l-4 5q-4 -1 -4 -9t-8 -8q-8 -1 -8 7t6 71v6q10 50 10 57t-20 7q-20 -1 -19 -7q0 -6 4 -5t10 1t6 -6q0 -59 -8 -59l-2 2q-1 8 -19 8q-18 1 -30 -23t-12 -46t22 -23q16 0 26 11t11 11zM716 721l21 -8
q6 0 6 8t-14 8h-2q-33 0 -33 -24q0 -14 18 -26q18 -11 19 -14q2 -3 2 -13t-16 -9q-16 0 -17 8v2q0 8 -8 9q-6 0 -6 -7q0 -18 30 -18t29 27q0 12 -15 23t-19 15t-4 12t9 7zM822 631q16 0 22 18l2 4q0 4 -4 4q-4 -2 -4 -6q-4 -10 -10 -10t-7 4q0 4 5 21t5 41q0 25 -24 24
q-12 0 -19 -9q-6 -9 -6 -11l-4 -4h-2l12 84q0 4 -20 4t-18 -9q0 -2 6 -2h8q6 0 6 -8l-6 -53v-2q-4 -41 -8 -59l-4 -21q0 -2 9 -2t9 4v16q13 60 33 60q14 0 14 -10v-4l-12 -64q1 -10 17 -10zM881 647q-13 0 -13 30t27 46q14 0 14 -38t-28 -38zM925 645q-5 1 -5 19t6 36t6 21
l2 2v2q0 2 -6 2h-2q-8 0 -10 -5t-3 -5q-8 12 -20 12t-35 -33q-6 -18 -6 -32q0 -27 22 -27q11 0 31 20q2 0 2 -4v-8q-1 -8 9 -8t19 6t9 12t-4 7q-10 -17 -15 -17zM977 717q0 4 10 4q25 0 25 -39t-25 -39q-16 0 -16 14v5l6 47v8zM973 764v-2q-6 0 -6 -6l-2 -19v-6
q0 -8 -15 -15q-14 -6 -14 -14t4 -8l16 15q0 4 5 4l2 -2l-11 -76q0 -23 -8 -23h-8q-2 0 -2 -2q0 -10 24 -10t22 4q-1 4 -3 4h-6q-6 0 -6 16t4 17q12 -4 23 -4q12 0 24 14t12 39q0 39 -33 39q-8 -2 -14 -2l-2 2l4 31l-4 4h-6zM1065 719h2q12 -1 12 -21t-18 -20q-10 0 -10 10
t5 21q5 10 9 10zM1055 672h2q17 0 27 15t10 24q0 18 -18 18t-29 -20q-13 -20 -13 -44t15 -24q8 -4 18 -4t22 6t13 14q0 4 -4 5q-4 0 -4 -5q-8 -14 -23 -14q-20 0 -20 25q0 4 4 4z" />
    <glyph glyph-name="infinity" unicode="&#x221e;" horiz-adv-x="1343" 
d="M825 537q111 -1 132 161t-85 162q-61 0 -107 -48t-71 -118q6 -63 39 -110t92 -47zM389 1063q170 0 246 -156q125 156 291 156q130 0 198 -93q68 -92 43 -270t-121 -272t-225 -94q-170 -1 -246 155q-125 -156 -290 -155q-129 0 -197 93t-43 270t120 271t224 95zM385 860
q-111 0 -133 -162t86 -161q61 -1 107 47t71 118q-6 62 -38 110t-93 48z" />
    <glyph glyph-name="integral" unicode="&#x222b;" horiz-adv-x="1261" 
d="M109 188v1080h1079v-1080h-1079zM440 763q0 30 -8 30q-16 -1 -16 -5t5 -4t5 -44t-33 -73q-10 -11 -14 -12q-4 0 -4 13l-4 116q2 2 2 6t-4 5l-17 -11q4 -45 4 -52t-22 -39q-22 -31 -26 -31q-3 0 -3 47t-6 77q-2 10 -16 11q-57 0 -88 -25q-31 -26 -31 -62t33 -36
q16 0 25 10t9 24t-10 13q-10 0 -10 -8l6 -15q1 -18 -21 -18t-22 36t34 54t66 18q10 0 11 -26l6 -119q0 -4 4 -4q25 0 61 76l4 -72q0 -4 11 -4q35 16 52 55t17 69zM471 723h2q18 0 19 -33v-2q0 -45 -25 -45q-18 0 -18 25v4q-1 51 22 51zM481 731q-21 0 -35 -18
q-14 -19 -14 -35t1 -22t9 -12q8 -7 21 -7q45 0 45 59q0 35 -27 35zM522 709q0 8 10 8t11 -25l-8 -51l4 -4q14 0 14 8v2q0 66 16 66h2l9 -4l8 8q0 14 -15 14l-10 -10q0 -1 -8 -21q-7 31 -14 31t-17 -8t-10 -16l4 -9l4 4v7zM641 700v-12q0 -8 -7 -24t-22 -17q-14 0 -14 24
t8 31q9 21 22 21t13 -23zM641 659v-8q0 -16 10 -16q11 0 19 8t10 16l-4 5q-4 -1 -4 -9t-8 -8q-8 -1 -8 7t6 71v6q10 50 10 57t-20 7q-20 -1 -19 -7q0 -6 4 -5t10 1t6 -6q0 -59 -8 -59l-2 2q-1 8 -19 8q-18 1 -30 -23t-12 -46t22 -23q16 0 26 11t11 11zM716 721l21 -8
q6 0 6 8t-14 8h-2q-33 0 -33 -24q0 -14 18 -26q18 -11 19 -14q2 -3 2 -13t-16 -9q-16 0 -17 8v2q0 8 -8 9q-6 0 -6 -7q0 -18 30 -18t29 27q0 12 -15 23t-19 15t-4 12t9 7zM822 631q16 0 22 18l2 4q0 4 -4 4q-4 -2 -4 -6q-4 -10 -10 -10t-7 4q0 4 5 21t5 41q0 25 -24 24
q-12 0 -19 -9q-6 -9 -6 -11l-4 -4h-2l12 84q0 4 -20 4t-18 -9q0 -2 6 -2h8q6 0 6 -8l-6 -53v-2q-4 -41 -8 -59l-4 -21q0 -2 9 -2t9 4v16q13 60 33 60q14 0 14 -10v-4l-12 -64q1 -10 17 -10zM881 647q-13 0 -13 30t27 46q14 0 14 -38t-28 -38zM925 645q-5 1 -5 19t6 36t6 21
l2 2v2q0 2 -6 2h-2q-8 0 -10 -5t-3 -5q-8 12 -20 12t-35 -33q-6 -18 -6 -32q0 -27 22 -27q11 0 31 20q2 0 2 -4v-8q-1 -8 9 -8t19 6t9 12t-4 7q-10 -17 -15 -17zM977 717q0 4 10 4q25 0 25 -39t-25 -39q-16 0 -16 14v5l6 47v8zM973 764v-2q-6 0 -6 -6l-2 -19v-6
q0 -8 -15 -15q-14 -6 -14 -14t4 -8l16 15q0 4 5 4l2 -2l-11 -76q0 -23 -8 -23h-8q-2 0 -2 -2q0 -10 24 -10t22 4q-1 4 -3 4h-6q-6 0 -6 16t4 17q12 -4 23 -4q12 0 24 14t12 39q0 39 -33 39q-8 -2 -14 -2l-2 2l4 31l-4 4h-6zM1065 719h2q12 -1 12 -21t-18 -20q-10 0 -10 10
t5 21q5 10 9 10zM1055 672h2q17 0 27 15t10 24q0 18 -18 18t-29 -20q-13 -20 -13 -44t15 -24q8 -4 18 -4t22 6t13 14q0 4 -4 5q-4 0 -4 -5q-8 -14 -23 -14q-20 0 -20 25q0 4 4 4z" />
    <glyph glyph-name="approxequal" unicode="&#x2248;" horiz-adv-x="1261" 
d="M109 188v1080h1079v-1080h-1079zM440 763q0 30 -8 30q-16 -1 -16 -5t5 -4t5 -44t-33 -73q-10 -11 -14 -12q-4 0 -4 13l-4 116q2 2 2 6t-4 5l-17 -11q4 -45 4 -52t-22 -39q-22 -31 -26 -31q-3 0 -3 47t-6 77q-2 10 -16 11q-57 0 -88 -25q-31 -26 -31 -62t33 -36
q16 0 25 10t9 24t-10 13q-10 0 -10 -8l6 -15q1 -18 -21 -18t-22 36t34 54t66 18q10 0 11 -26l6 -119q0 -4 4 -4q25 0 61 76l4 -72q0 -4 11 -4q35 16 52 55t17 69zM471 723h2q18 0 19 -33v-2q0 -45 -25 -45q-18 0 -18 25v4q-1 51 22 51zM481 731q-21 0 -35 -18
q-14 -19 -14 -35t1 -22t9 -12q8 -7 21 -7q45 0 45 59q0 35 -27 35zM522 709q0 8 10 8t11 -25l-8 -51l4 -4q14 0 14 8v2q0 66 16 66h2l9 -4l8 8q0 14 -15 14l-10 -10q0 -1 -8 -21q-7 31 -14 31t-17 -8t-10 -16l4 -9l4 4v7zM641 700v-12q0 -8 -7 -24t-22 -17q-14 0 -14 24
t8 31q9 21 22 21t13 -23zM641 659v-8q0 -16 10 -16q11 0 19 8t10 16l-4 5q-4 -1 -4 -9t-8 -8q-8 -1 -8 7t6 71v6q10 50 10 57t-20 7q-20 -1 -19 -7q0 -6 4 -5t10 1t6 -6q0 -59 -8 -59l-2 2q-1 8 -19 8q-18 1 -30 -23t-12 -46t22 -23q16 0 26 11t11 11zM716 721l21 -8
q6 0 6 8t-14 8h-2q-33 0 -33 -24q0 -14 18 -26q18 -11 19 -14q2 -3 2 -13t-16 -9q-16 0 -17 8v2q0 8 -8 9q-6 0 -6 -7q0 -18 30 -18t29 27q0 12 -15 23t-19 15t-4 12t9 7zM822 631q16 0 22 18l2 4q0 4 -4 4q-4 -2 -4 -6q-4 -10 -10 -10t-7 4q0 4 5 21t5 41q0 25 -24 24
q-12 0 -19 -9q-6 -9 -6 -11l-4 -4h-2l12 84q0 4 -20 4t-18 -9q0 -2 6 -2h8q6 0 6 -8l-6 -53v-2q-4 -41 -8 -59l-4 -21q0 -2 9 -2t9 4v16q13 60 33 60q14 0 14 -10v-4l-12 -64q1 -10 17 -10zM881 647q-13 0 -13 30t27 46q14 0 14 -38t-28 -38zM925 645q-5 1 -5 19t6 36t6 21
l2 2v2q0 2 -6 2h-2q-8 0 -10 -5t-3 -5q-8 12 -20 12t-35 -33q-6 -18 -6 -32q0 -27 22 -27q11 0 31 20q2 0 2 -4v-8q-1 -8 9 -8t19 6t9 12t-4 7q-10 -17 -15 -17zM977 717q0 4 10 4q25 0 25 -39t-25 -39q-16 0 -16 14v5l6 47v8zM973 764v-2q-6 0 -6 -6l-2 -19v-6
q0 -8 -15 -15q-14 -6 -14 -14t4 -8l16 15q0 4 5 4l2 -2l-11 -76q0 -23 -8 -23h-8q-2 0 -2 -2q0 -10 24 -10t22 4q-1 4 -3 4h-6q-6 0 -6 16t4 17q12 -4 23 -4q12 0 24 14t12 39q0 39 -33 39q-8 -2 -14 -2l-2 2l4 31l-4 4h-6zM1065 719h2q12 -1 12 -21t-18 -20q-10 0 -10 10
t5 21q5 10 9 10zM1055 672h2q17 0 27 15t10 24q0 18 -18 18t-29 -20q-13 -20 -13 -44t15 -24q8 -4 18 -4t22 6t13 14q0 4 -4 5q-4 0 -4 -5q-8 -14 -23 -14q-20 0 -20 25q0 4 4 4z" />
    <glyph glyph-name="notequal" unicode="&#x2260;" horiz-adv-x="1312" 
d="M98 63l185 244h-160l33 225h297l157 205h-426l31 224h565l185 237h217l-187 -237h191l-31 -224h-328l-157 -205h456l-32 -225h-596l-189 -244h-211z" />
    <glyph glyph-name="lessequal" unicode="&#x2264;" horiz-adv-x="1218" 
d="M68 -35l30 217h949l-31 -217h-948zM160 684l30 225l988 348l-39 -270l-631 -186l579 -189l-38 -274z" />
    <glyph glyph-name="greaterequal" unicode="&#x2265;" horiz-adv-x="1218" 
d="M35 -18l26 186h943l-27 -186h-942zM1102 909l-31 -225l-987 -346l39 274l633 189l-580 186l37 270z" />
    <glyph glyph-name="lozenge" unicode="&#x25ca;" horiz-adv-x="1261" 
d="M109 188v1080h1079v-1080h-1079zM440 763q0 30 -8 30q-16 -1 -16 -5t5 -4t5 -44t-33 -73q-10 -11 -14 -12q-4 0 -4 13l-4 116q2 2 2 6t-4 5l-17 -11q4 -45 4 -52t-22 -39q-22 -31 -26 -31q-3 0 -3 47t-6 77q-2 10 -16 11q-57 0 -88 -25q-31 -26 -31 -62t33 -36
q16 0 25 10t9 24t-10 13q-10 0 -10 -8l6 -15q1 -18 -21 -18t-22 36t34 54t66 18q10 0 11 -26l6 -119q0 -4 4 -4q25 0 61 76l4 -72q0 -4 11 -4q35 16 52 55t17 69zM471 723h2q18 0 19 -33v-2q0 -45 -25 -45q-18 0 -18 25v4q-1 51 22 51zM481 731q-21 0 -35 -18
q-14 -19 -14 -35t1 -22t9 -12q8 -7 21 -7q45 0 45 59q0 35 -27 35zM522 709q0 8 10 8t11 -25l-8 -51l4 -4q14 0 14 8v2q0 66 16 66h2l9 -4l8 8q0 14 -15 14l-10 -10q0 -1 -8 -21q-7 31 -14 31t-17 -8t-10 -16l4 -9l4 4v7zM641 700v-12q0 -8 -7 -24t-22 -17q-14 0 -14 24
t8 31q9 21 22 21t13 -23zM641 659v-8q0 -16 10 -16q11 0 19 8t10 16l-4 5q-4 -1 -4 -9t-8 -8q-8 -1 -8 7t6 71v6q10 50 10 57t-20 7q-20 -1 -19 -7q0 -6 4 -5t10 1t6 -6q0 -59 -8 -59l-2 2q-1 8 -19 8q-18 1 -30 -23t-12 -46t22 -23q16 0 26 11t11 11zM716 721l21 -8
q6 0 6 8t-14 8h-2q-33 0 -33 -24q0 -14 18 -26q18 -11 19 -14q2 -3 2 -13t-16 -9q-16 0 -17 8v2q0 8 -8 9q-6 0 -6 -7q0 -18 30 -18t29 27q0 12 -15 23t-19 15t-4 12t9 7zM822 631q16 0 22 18l2 4q0 4 -4 4q-4 -2 -4 -6q-4 -10 -10 -10t-7 4q0 4 5 21t5 41q0 25 -24 24
q-12 0 -19 -9q-6 -9 -6 -11l-4 -4h-2l12 84q0 4 -20 4t-18 -9q0 -2 6 -2h8q6 0 6 -8l-6 -53v-2q-4 -41 -8 -59l-4 -21q0 -2 9 -2t9 4v16q13 60 33 60q14 0 14 -10v-4l-12 -64q1 -10 17 -10zM881 647q-13 0 -13 30t27 46q14 0 14 -38t-28 -38zM925 645q-5 1 -5 19t6 36t6 21
l2 2v2q0 2 -6 2h-2q-8 0 -10 -5t-3 -5q-8 12 -20 12t-35 -33q-6 -18 -6 -32q0 -27 22 -27q11 0 31 20q2 0 2 -4v-8q-1 -8 9 -8t19 6t9 12t-4 7q-10 -17 -15 -17zM977 717q0 4 10 4q25 0 25 -39t-25 -39q-16 0 -16 14v5l6 47v8zM973 764v-2q-6 0 -6 -6l-2 -19v-6
q0 -8 -15 -15q-14 -6 -14 -14t4 -8l16 15q0 4 5 4l2 -2l-11 -76q0 -23 -8 -23h-8q-2 0 -2 -2q0 -10 24 -10t22 4q-1 4 -3 4h-6q-6 0 -6 16t4 17q12 -4 23 -4q12 0 24 14t12 39q0 39 -33 39q-8 -2 -14 -2l-2 2l4 31l-4 4h-6zM1065 719h2q12 -1 12 -21t-18 -20q-10 0 -10 10
t5 21q5 10 9 10zM1055 672h2q17 0 27 15t10 24q0 18 -18 18t-29 -20q-13 -20 -13 -44t15 -24q8 -4 18 -4t22 6t13 14q0 4 -4 5q-4 0 -4 -5q-8 -14 -23 -14q-20 0 -20 25q0 4 4 4z" />
    <glyph glyph-name="commaaccent" unicode="&#xf6c3;" horiz-adv-x="479" 
d="M373 -385q-21 -143 -81 -230t-196 -141l-55 119q88 39 125 90t49 137h-145l43 310h301z" />
    <glyph glyph-name="apple" unicode="&#xf8ff;" horiz-adv-x="1261" 
d="M109 188v1080h1079v-1080h-1079zM440 763q0 30 -8 30q-16 -1 -16 -5t5 -4t5 -44t-33 -73q-10 -11 -14 -12q-4 0 -4 13l-4 116q2 2 2 6t-4 5l-17 -11q4 -45 4 -52t-22 -39q-22 -31 -26 -31q-3 0 -3 47t-6 77q-2 10 -16 11q-57 0 -88 -25q-31 -26 -31 -62t33 -36
q16 0 25 10t9 24t-10 13q-10 0 -10 -8l6 -15q1 -18 -21 -18t-22 36t34 54t66 18q10 0 11 -26l6 -119q0 -4 4 -4q25 0 61 76l4 -72q0 -4 11 -4q35 16 52 55t17 69zM471 723h2q18 0 19 -33v-2q0 -45 -25 -45q-18 0 -18 25v4q-1 51 22 51zM481 731q-21 0 -35 -18
q-14 -19 -14 -35t1 -22t9 -12q8 -7 21 -7q45 0 45 59q0 35 -27 35zM522 709q0 8 10 8t11 -25l-8 -51l4 -4q14 0 14 8v2q0 66 16 66h2l9 -4l8 8q0 14 -15 14l-10 -10q0 -1 -8 -21q-7 31 -14 31t-17 -8t-10 -16l4 -9l4 4v7zM641 700v-12q0 -8 -7 -24t-22 -17q-14 0 -14 24
t8 31q9 21 22 21t13 -23zM641 659v-8q0 -16 10 -16q11 0 19 8t10 16l-4 5q-4 -1 -4 -9t-8 -8q-8 -1 -8 7t6 71v6q10 50 10 57t-20 7q-20 -1 -19 -7q0 -6 4 -5t10 1t6 -6q0 -59 -8 -59l-2 2q-1 8 -19 8q-18 1 -30 -23t-12 -46t22 -23q16 0 26 11t11 11zM716 721l21 -8
q6 0 6 8t-14 8h-2q-33 0 -33 -24q0 -14 18 -26q18 -11 19 -14q2 -3 2 -13t-16 -9q-16 0 -17 8v2q0 8 -8 9q-6 0 -6 -7q0 -18 30 -18t29 27q0 12 -15 23t-19 15t-4 12t9 7zM822 631q16 0 22 18l2 4q0 4 -4 4q-4 -2 -4 -6q-4 -10 -10 -10t-7 4q0 4 5 21t5 41q0 25 -24 24
q-12 0 -19 -9q-6 -9 -6 -11l-4 -4h-2l12 84q0 4 -20 4t-18 -9q0 -2 6 -2h8q6 0 6 -8l-6 -53v-2q-4 -41 -8 -59l-4 -21q0 -2 9 -2t9 4v16q13 60 33 60q14 0 14 -10v-4l-12 -64q1 -10 17 -10zM881 647q-13 0 -13 30t27 46q14 0 14 -38t-28 -38zM925 645q-5 1 -5 19t6 36t6 21
l2 2v2q0 2 -6 2h-2q-8 0 -10 -5t-3 -5q-8 12 -20 12t-35 -33q-6 -18 -6 -32q0 -27 22 -27q11 0 31 20q2 0 2 -4v-8q-1 -8 9 -8t19 6t9 12t-4 7q-10 -17 -15 -17zM977 717q0 4 10 4q25 0 25 -39t-25 -39q-16 0 -16 14v5l6 47v8zM973 764v-2q-6 0 -6 -6l-2 -19v-6
q0 -8 -15 -15q-14 -6 -14 -14t4 -8l16 15q0 4 5 4l2 -2l-11 -76q0 -23 -8 -23h-8q-2 0 -2 -2q0 -10 24 -10t22 4q-1 4 -3 4h-6q-6 0 -6 16t4 17q12 -4 23 -4q12 0 24 14t12 39q0 39 -33 39q-8 -2 -14 -2l-2 2l4 31l-4 4h-6zM1065 719h2q12 -1 12 -21t-18 -20q-10 0 -10 10
t5 21q5 10 9 10zM1055 672h2q17 0 27 15t10 24q0 18 -18 18t-29 -20q-13 -20 -13 -44t15 -24q8 -4 18 -4t22 6t13 14q0 4 -4 5q-4 0 -4 -5q-8 -14 -23 -14q-20 0 -20 25q0 4 4 4z" />
    <glyph glyph-name="fi" unicode="&#xfb01;" horiz-adv-x="1126" 
d="M688 0l152 1067h274l-151 -1067h-275zM676 1491q109 0 209 -27l-49 -207q-76 17 -142 17t-109 -35q-44 -35 -55 -102l-8 -70h264l-30 -217h-264l-121 -850h-273l121 850h-174l31 217h174l8 68q25 170 137 263q113 93 281 93z" />
    <glyph glyph-name="fl" unicode="&#xfb02;" horiz-adv-x="1204" 
d="M774 0l207 1470h272l-206 -1470h-273zM676 1491q109 0 209 -27l-49 -207q-76 17 -142 17t-109 -35q-44 -35 -55 -102l-8 -70h264l-30 -217h-264l-121 -850h-273l121 850h-174l31 217h174l8 68q25 170 137 263q113 93 281 93z" />
    <glyph glyph-name="_360" horiz-adv-x="1165" 
d="M901 1569l135 -158l-377 -258l-106 113zM614 887q-112 0 -182 -69t-88 -173h461q27 242 -191 242zM520 184q172 0 223 142h263q-44 -172 -184 -264t-330 -91q-248 0 -362 153q-114 152 -77 406t196 410t395 156t343 -148t70 -397q0 -22 -15 -92h-727q-14 -123 38 -199
t167 -76z" />
    <glyph glyph-name="caron.002" horiz-adv-x="749" 
d="M535 1561q-21 -143 -81 -231t-196 -140l-55 119q88 39 125 90t49 137h-146l43 309h301z" />
  </font>
</defs>
</svg>
