<svg xmlns="http://www.w3.org/2000/svg" viewBox="0 0 319.2 258.84"><defs><style>.a{fill:#cb3d00;}.b{fill:#fff;}</style></defs><title>final-logo</title><path class="a" d="M319.2,69.33l-.11-.5a17.47,17.47,0,0,0-1.36-6.39v0l0,0a17.47,17.47,0,0,0-10.89-9.9l-1.14-.56-.06-.26L165.67,1.08l.07,0A17.47,17.47,0,0,0,162.87.3a17.66,17.66,0,0,0-11,1.47L10,53.45a17.58,17.58,0,0,0-9.65,13L0,70.34v135l.1.16A17.56,17.56,0,0,0,10,221.08h0l0,0c.47.23,1,.44,1.45.63s1,.36,1.55.5l.57,0,139.82,35.44a17.64,17.64,0,0,0,12.42,0l141.94-36a17.58,17.58,0,0,0,11.14-19.24l.22,2.8.09.09Z"/><path class="b" d="M86.83,91.68V90.09l5.77-6c1.41-1.48,2-2.47,2-3.74,0-1.75-1-2.63-2.84-2.63a6.43,6.43,0,0,0-4.25,1.85l-.3-2a7.07,7.07,0,0,1,4.66-1.75c3,0,4.87,1.73,4.87,4.41,0,1.89-.85,3.16-2.77,5.13l-4.46,4.53h7.18L97,91.68Z"/><path class="b" d="M105.29,92c-3.58,0-6-2.93-6-8.1s2.4-8.1,6-8.1,6,2.93,6,8.1S108.85,92,105.29,92Zm0-14.38c-2.4,0-3.86,2.22-3.86,6.28s1.45,6.28,3.86,6.28,3.83-2.22,3.83-6.28S107.69,77.6,105.29,77.6Z"/><path class="b" d="M211.41,91.68V78.2l-3.25,1.22-.23-1.66L211.67,76h1.8V91.68Z"/><path class="b" d="M226.19,88.15v3.53h-1.92V88.15h-7.8V86.62L223.72,76h2.47V86.44h2.49v1.71Zm-1.92-9.79-5.59,8.08h5.59Z"/><path class="b" d="M155,77.28c.38-2.23-1.4-4.1-2.07-4.72,0,0-2.12-2.09-4.42-4.28a60.79,60.79,0,0,0-5.55-5h0c-.1,0-.45.15-.38.23l2.5,2.67,6.34,6.78c.35.33-.13.81-.61.36l-9.17-8.7c-.07-.07-.34.2-.34.2L150,74.14s.37.36.12.6-.42,0-.54-.06l0,0-9.37-8.74s-.25.26-.19.33l8.7,9.17c.45.49,0,.93-.36.61l-9.45-8.83c-.08-.07-.27.28-.23.38.39.91,9.06,9.74,9.06,9.74s2.22,2.75,5,2.28,15.41,15.19,17.93,18.34,3.24,5.74,5.32,6.89a3.14,3.14,0,0,0,3.71-.58h0a3.14,3.14,0,0,0,.58-3.7c-1.15-2.07-3.75-2.79-6.89-5.31S154.49,80,155,77.28"/><path class="b" d="M178.61,63.81,177.43,65l-.1.1-16,16a.4.4,0,0,0-.38.16L141,101.18a2.13,2.13,0,0,0,3,3L163.88,84.3c.13-.12.25-.23.27-.39.46-.22,1-.54,1.54-.21l7.51-7.51c6.39-6.39,5.41-12.38,5.41-12.38"/><path class="b" d="M57.68,140.88v12.58h-4V140.88H49.3v-3.35H61.9l.55,3.35Z"/><path class="b" d="M74.71,153.63l-1.2-3.46H68l-1.11,3.3H63.08l5.73-16h4.34L78.68,153Zm-3.95-12.1L69,147.07h3.6Z"/><path class="b" d="M87,153.65a13.07,13.07,0,0,1-5.56-1.2l.58-3.37A11.3,11.3,0,0,0,87,150.56c1.13,0,1.92-.48,1.92-1.43s-.46-1.32-2.7-2.17c-3.19-1.22-4.57-2.26-4.57-4.89,0-3.07,2.4-4.71,5.45-4.71a10.12,10.12,0,0,1,4.8,1.06l-.6,3.32a8.72,8.72,0,0,0-4.16-1.29c-1.2,0-1.78.51-1.78,1.25s.44,1.2,2.42,2c3.46,1.27,4.85,2.47,4.85,5C92.67,152.13,90.13,153.65,87,153.65Z"/><path class="b" d="M103.87,140.88v12.58h-4V140.88H95.49v-3.35h12.61l.55,3.35Z"/><path class="b" d="M110.42,153.47V137.54h9.93v3.16h-6v2.91h4.62l.51,3.26H114.3v3.44h6.26v3.16Z"/><path class="b" d="M134.59,153.77c-4.57,0-7.57-3.32-7.57-8.24s3-8.29,7.62-8.29,7.6,3.32,7.6,8.24S139.23,153.77,134.59,153.77Zm0-13.44c-2.31,0-3.65,2-3.65,5.17s1.36,5.17,3.65,5.17,3.65-2,3.65-5.17S136.93,140.33,134.62,140.33Z"/><path class="b" d="M148.49,140.84v3.23h4.16l.55,3.35h-4.71v6h-3.92V137.54h9.53v3.3Z"/><path class="b" d="M175.11,153.47l-.69-10.6-3,10.62H167.7l-3-10.62-.69,10.6h-3.44l1.15-15.93h5.1l3.09,11,3.12-11h5l1.15,15.93Z"/><path class="b" d="M181.57,153.47V137.54h9.93v3.16h-6v2.91h4.62l.51,3.26h-5.12v3.44h6.26v3.16Z"/><path class="b" d="M199.5,153.47h-5.59V137.54h5.47c5.54,0,8.45,3.21,8.45,7.94S204.88,153.47,199.5,153.47Zm-.21-12.86h-1.43v9.79h1.43c2.82,0,4.57-1.48,4.57-4.89S202,140.61,199.3,140.61Z"/><path class="b" d="M210.28,153.47V137.54h3.95v15.93Z"/><path class="b" d="M227.18,153.47l-6.28-9.53v9.53h-3.67V137.54h3.83l5.86,8.91v-8.91h3.67v15.93Z"/><path class="b" d="M244,153.63l-1.2-3.46h-5.47l-1.11,3.3h-3.86l5.73-16h4.34L248,153ZM240,141.53l-1.8,5.54h3.6Z"/><path class="b" d="M57.23,195.58c-4.48,0-7.36-3.32-7.36-8.24s2.93-8.29,7.41-8.29a7.67,7.67,0,0,1,4.52,1.32l-.32,2.22A6.83,6.83,0,0,0,57.25,181c-3.23,0-5.15,2.45-5.15,6.28s1.94,6.26,5.15,6.26A7.6,7.6,0,0,0,61.73,192l.32,2.05a8.4,8.4,0,0,1-4.82,1.55"/><path class="b" d="M97.37,181c-3.16,0-5.1,2.45-5.1,6.28s2,6.28,5.1,6.28,5.1-2.45,5.1-6.28-2-6.28-5.1-6.28m0,14.54c-4.48,0-7.32-3.32-7.32-8.24s2.88-8.29,7.36-8.29,7.32,3.32,7.32,8.24-2.86,8.29-7.36,8.29"/><path class="b" d="M140,195.58c-3.86,0-6.16-2.45-6.16-6.32v-9.9H136V189c0,2.77,1.25,4.62,4,4.62S144,191.93,144,189v-9.7h2.17v9.79c0,4-2.38,6.44-6.23,6.44"/><polygon class="b" points="186.73 195.28 177.98 182.88 177.98 195.28 175.97 195.28 175.97 179.35 177.91 179.35 186.36 191.29 186.36 179.35 188.37 179.35 188.37 195.28 186.73 195.28"/><polygon class="b" points="224.38 181.34 224.38 195.28 222.21 195.28 222.21 181.34 217.13 181.34 217.13 179.35 229.28 179.35 229.6 181.34 224.38 181.34"/><polygon class="b" points="264.69 188.95 264.69 195.28 262.52 195.28 262.52 188.95 256.88 179.65 259.05 179.19 263.62 186.97 268.08 179.35 270.48 179.35 264.69 188.95"/><rect class="b" x="49.81" y="164.87" width="219.1" height="3"/><path class="b" d="M159.6,249.45a19,19,0,0,1-6.43-1.11L20.66,216c-.6-.16-1.15-.33-1.67-.52s-.92-.36-1.45-.6l-.52-.19-.07-.1A17.86,17.86,0,0,1,7,199.49l-.11-.17V74.38l.3-2.6A18.08,18.08,0,0,1,17.42,58.34l.19-.08,134-47.11a18.84,18.84,0,0,1,8-1.76A19.28,19.28,0,0,1,163,9.7a19,19,0,0,1,2.93.79h0L298.13,56.63l.31.11.71.25,0,.06c.52.24,1.12.54,1.79.88l.83.41a18.28,18.28,0,0,1,8.8,8.8l.16.16.09.4a17.35,17.35,0,0,1,1.37,6.2l.11.7V198.73h-.09a18.1,18.1,0,0,1-12,16.75l-.21.06-134,32.8A19,19,0,0,1,159.6,249.45ZM19.29,211.38c.34.16.69.3,1,.43s.85.29,1.29.41L154.3,244.6l.1,0a15.33,15.33,0,0,0,10.39,0l.21-.06,134-32.8a14.18,14.18,0,0,0,9.35-13.13h.09V74.81l-.1-.62a13.5,13.5,0,0,0-1.12-5.1l-.07-.16a14.36,14.36,0,0,0-7-7.06l-.93-.46c-.64-.33-1.84-.93-2.24-1.05l.49-1.6h0l-.55,1.57L164.74,14.18h0a15.1,15.1,0,0,0-2.39-.65,15.37,15.37,0,0,0-2.74-.25,15,15,0,0,0-6.44,1.43l-.19.08L19,61.91a14.14,14.14,0,0,0-7.93,10.41l-.27,2.39V198.14l.09.13v.57a14,14,0,0,0,8.19,12.44Z"/></svg>